999
dxflib 3.12.2.0
  0
SECTION
  2
HEADER
  9
$ACADVER
  1
AC1015
  9
$HANDSEED
  5
FFFF
  9
$DIMADEC
 70
0
  9
$DIMASZ
 40
2.5
  9
$DIMAUNIT
 70
0
  9
$DIMAZIN
 70
2
  9
$DIMDEC
 70
4
  9
$DIMEXE
 40
1.25
  9
$DIMEXO
 40
0.625
  9
$DIMGAP
 40
0.625
  9
$DIMLUNIT
 70
2
  9
$DIMSCALE
 40
1.0
  9
$DIMTSZ
 40
0.0
  9
$DIMTXT
 40
2.5
  9
$DIMZIN
 70
8
  9
$DWGCODEPAGE
  3
ANSI_1252
  9
$INSUNITS
 70
4
  9
$LTSCALE
 40
1.0
  9
$MEASUREMENT
 70
1
  9
$PDMODE
 70
0
  9
$PDSIZE
 40
0
  0
ENDSEC
  0
SECTION
  2
TABLES
  0
TABLE
  2
VPORT
  5
8
100
AcDbSymbolTable
 70
1
  0
VPORT
  5
30
100
AcDbSymbolTableRecord
100
AcDbViewportTableRecord
  2
*Active
 70
0
 10
0.0
 20
0.0
 11
1.0
 21
1.0
 12
286.3055555555554861
 22
148.5
 13
0.0
 23
0.0
 14
10.0
 24
10.0
 15
10.0
 25
10.0
 16
0.0
 26
0.0
 36
1.0
 17
0.0
 27
0.0
 37
0.0
 40
297.0
 41
1.92798353909465
 42
50.0
 43
0.0
 44
0.0
 50
0.0
 51
0.0
 71
0
 72
100
 73
1
 74
3
 75
1
 76
1
 77
0
 78
0
281
0
 65
1
110
0.0
120
0.0
130
0.0
111
1.0
121
0.0
131
0.0
112
0.0
122
1.0
132
0.0
 79
0
146
0.0
  0
ENDTAB
  0
TABLE
  2
LTYPE
  5
5
100
AcDbSymbolTable
 70
54
  0
LTYPE
  5
16
100
AcDbSymbolTableRecord
100
AcDbLinetypeTableRecord
  2
Continuous
 70
0
  3
Solid line
 72
65
 73
0
 40
0.0
  0
LTYPE
  5
31
100
AcDbSymbolTableRecord
100
AcDbLinetypeTableRecord
  2
FENCELINE1
 70
0
  3
Fenceline circle ----0-----0----0-----0----0-----0--
 72
65
 73
4
 40
36.8299999999999983
 49
6.3499999999999996
 74
0
 49
-2.54
 74
0
 49
-2.54
 74
0
 49
25.3999999999999986
 74
0
  0
LTYPE
  5
32
100
AcDbSymbolTableRecord
100
AcDbLinetypeTableRecord
  2
FENCELINE2
 70
0
  3
Fenceline square ----[]-----[]----[]-----[]----[]---
 72
65
 73
4
 40
36.8299999999999983
 49
6.3499999999999996
 74
0
 49
-2.54
 74
0
 49
-2.54
 74
0
 49
25.3999999999999986
 74
0
  0
LTYPE
  5
33
100
AcDbSymbolTableRecord
100
AcDbLinetypeTableRecord
  2
CENTER
 70
0
  3
Center ____ _ ____ _ ____ _ ____ _ ____ _ ____
 72
65
 73
4
 40
50.8000000000000043
 49
31.75
 74
0
 49
-6.3499999999999996
 74
0
 49
6.3499999999999996
 74
0
 49
-6.3499999999999996
 74
0
  0
LTYPE
  5
34
100
AcDbSymbolTableRecord
100
AcDbLinetypeTableRecord
  2
ACAD_ISO09W100
 70
0
  3
ISO long-dash double-short-dash ____ __ __ ____
 72
65
 73
6
 40
45.0
 49
24.0
 74
0
 49
-3.0
 74
0
 49
6.0
 74
0
 49
-3.0
 74
0
 49
6.0
 74
0
 49
-3.0
 74
0
  0
LTYPE
  5
35
100
AcDbSymbolTableRecord
100
AcDbLinetypeTableRecord
  2
PHANTOMX2
 70
0
  3
Phantom (2x) ____________    ____    ____   _
 72
65
 73
6
 40
127.0000000000000142
 49
63.5
 74
0
 49
-12.6999999999999993
 74
0
 49
12.6999999999999993
 74
0
 49
-12.6999999999999993
 74
0
 49
12.6999999999999993
 74
0
 49
-12.6999999999999993
 74
0
  0
LTYPE
  5
36
100
AcDbSymbolTableRecord
100
AcDbLinetypeTableRecord
  2
PHANTOM
 70
0
  3
Phantom ______  __  __  ______  __  __  ______ 
 72
65
 73
6
 40
63.5000000000000071
 49
31.75
 74
0
 49
-6.3499999999999996
 74
0
 49
6.3499999999999996
 74
0
 49
-6.3499999999999996
 74
0
 49
6.3499999999999996
 74
0
 49
-6.3499999999999996
 74
0
  0
LTYPE
  5
37
100
AcDbSymbolTableRecord
100
AcDbLinetypeTableRecord
  2
DIVIDE
 70
0
  3
Divide ____ . . ____ . . ____ . . ____ . . ____
 72
65
 73
6
 40
31.75
 49
12.6999999999999993
 74
0
 49
-6.3499999999999996
 74
0
 49
0.0
 74
0
 49
-6.3499999999999996
 74
0
 49
0.0
 74
0
 49
-6.3499999999999996
 74
0
  0
LTYPE
  5
38
100
AcDbSymbolTableRecord
100
AcDbLinetypeTableRecord
  2
DASHED
 70
0
  3
Dashed __ __ __ __ __ __ __ __ __ __ __ __ __ _
 72
65
 73
2
 40
19.0499999999999972
 49
12.6999999999999993
 74
0
 49
-6.3499999999999996
 74
0
  0
LTYPE
  5
39
100
AcDbSymbolTableRecord
100
AcDbLinetypeTableRecord
  2
BORDER2
 70
0
  3
Border (.5x) __.__.__.__.__.__.__.__.__.__.__.
 72
65
 73
6
 40
22.2249999999999979
 49
6.3499999999999996
 74
0
 49
-3.1749999999999998
 74
0
 49
6.3499999999999996
 74
0
 49
-3.1749999999999998
 74
0
 49
0.0
 74
0
 49
-3.1749999999999998
 74
0
  0
LTYPE
  5
3A
100
AcDbSymbolTableRecord
100
AcDbLinetypeTableRecord
  2
ACAD_ISO08W100
 70
0
  3
ISO long-dash short-dash ____ __ ____ __ ____ _
 72
65
 73
4
 40
36.0
 49
24.0
 74
0
 49
-3.0
 74
0
 49
6.0
 74
0
 49
-3.0
 74
0
  0
LTYPE
  5
3B
100
AcDbSymbolTableRecord
100
AcDbLinetypeTableRecord
  2
DASHED2
 70
0
  3
Dashed (.5x) _ _ _ _ _ _ _ _ _ _ _ _ _ _ _ _ _ 
 72
65
 73
2
 40
9.5249999999999986
 49
6.3499999999999996
 74
0
 49
-3.1749999999999998
 74
0
  0
LTYPE
  5
3C
100
AcDbSymbolTableRecord
100
AcDbLinetypeTableRecord
  2
CENTERX2
 70
0
  3
Center (2x) ________  __  ________  __  _____
 72
65
 73
4
 40
101.6000000000000085
 49
63.5
 74
0
 49
-12.6999999999999993
 74
0
 49
12.6999999999999993
 74
0
 49
-12.6999999999999993
 74
0
  0
LTYPE
  5
3D
100
AcDbSymbolTableRecord
100
AcDbLinetypeTableRecord
  2
CUTLEFT2
 70
0
  3
G41 reversed----/----/----/----
 72
65
 73
2
 40
10.1600000000000001
 49
5.0800000000000001
 74
0
 49
5.0800000000000001
 74
0
  0
LTYPE
  5
3E
100
AcDbSymbolTableRecord
100
AcDbLinetypeTableRecord
  2
ACAD_ISO15W100
 70
0
  3
ISO double-dash triple-dot __ __ . . . __ __ . .
 72
65
 73
10
 40
39.0
 49
12.0
 74
0
 49
-3.0
 74
0
 49
12.0
 74
0
 49
-3.0
 74
0
 49
0.0
 74
0
 49
-3.0
 74
0
 49
0.0
 74
0
 49
-3.0
 74
0
 49
0.0
 74
0
 49
-3.0
 74
0
  0
LTYPE
  5
3F
100
AcDbSymbolTableRecord
100
AcDbLinetypeTableRecord
  2
GAS_LINE
 70
0
  3
Gas line ----GAS----GAS----GAS----GAS----GAS----GAS--
 72
65
 73
3
 40
24.1300000000000026
 49
12.6999999999999993
 74
0
 49
-5.0800000000000001
 74
0
 49
-6.3499999999999996
 74
0
  0
LTYPE
  5
40
100
AcDbSymbolTableRecord
100
AcDbLinetypeTableRecord
  2
TRACKS
 70
0
  3
Tracks -|-|-|-|-|-|-|-|-|-|-|-|-|-|-|-|-|-|-|-|-|-|-|-|-
 72
65
 73
2
 40
7.6200000000000001
 49
3.8100000000000001
 74
0
 49
3.8100000000000001
 74
0
  0
LTYPE
  5
41
100
AcDbSymbolTableRecord
100
AcDbLinetypeTableRecord
  2
ACAD_ISO07W100
 70
0
  3
ISO dot . . . . . . . . . . . . . . . . . . . . 
 72
65
 73
2
 40
3.0
 49
0.0
 74
0
 49
-3.0
 74
0
  0
LTYPE
  5
42
100
AcDbSymbolTableRecord
100
AcDbLinetypeTableRecord
  2
DOT2
 70
0
  3
Dot (.5x) ........................................
 72
65
 73
2
 40
3.1749999999999998
 49
0.0
 74
0
 49
-3.1749999999999998
 74
0
  0
LTYPE
  5
43
100
AcDbSymbolTableRecord
100
AcDbLinetypeTableRecord
  2
DIVIDEX2
 70
0
  3
Divide (2x) ________  .  .  ________  .  .  _
 72
65
 73
6
 40
63.5
 49
25.3999999999999986
 74
0
 49
-12.6999999999999993
 74
0
 49
0.0
 74
0
 49
-12.6999999999999993
 74
0
 49
0.0
 74
0
 49
-12.6999999999999993
 74
0
  0
LTYPE
  5
44
100
AcDbSymbolTableRecord
100
AcDbLinetypeTableRecord
  2
CENTER2
 70
0
  3
Center (.5x) ___ _ ___ _ ___ _ ___ _ ___ _ ___
 72
65
 73
4
 40
28.5750000000000028
 49
19.0500000000000007
 74
0
 49
-3.1749999999999998
 74
0
 49
3.1749999999999998
 74
0
 49
-3.1749999999999998
 74
0
  0
LTYPE
  5
45
100
AcDbSymbolTableRecord
100
AcDbLinetypeTableRecord
  2
BORDER
 70
0
  3
Border __ __ . __ __ . __ __ . __ __ . __ __ .
 72
65
 73
6
 40
44.4499999999999957
 49
12.6999999999999993
 74
0
 49
-6.3499999999999996
 74
0
 49
12.6999999999999993
 74
0
 49
-6.3499999999999996
 74
0
 49
0.0
 74
0
 49
-6.3499999999999996
 74
0
  0
LTYPE
  5
46
100
AcDbSymbolTableRecord
100
AcDbLinetypeTableRecord
  2
ACAD_ISO14W100
 70
0
  3
ISO dash triple-dot __ . . . __ . . . __ . . . _
 72
65
 73
8
 40
24.0
 49
12.0
 74
0
 49
-3.0
 74
0
 49
0.0
 74
0
 49
-3.0
 74
0
 49
0.0
 74
0
 49
-3.0
 74
0
 49
0.0
 74
0
 49
-3.0
 74
0
  0
LTYPE
  5
47
100
AcDbSymbolTableRecord
100
AcDbLinetypeTableRecord
  2
DOTX2
 70
0
  3
Dot (2x) .  .  .  .  .  .  .  .  .  .  .  .  .  .
 72
65
 73
2
 40
12.6999999999999993
 49
0.0
 74
0
 49
-12.6999999999999993
 74
0
  0
LTYPE
  5
48
100
AcDbSymbolTableRecord
100
AcDbLinetypeTableRecord
  2
BORDERX2
 70
0
  3
Border (2x) ____  ____  .  ____  ____  .  ___
 72
65
 73
6
 40
88.8999999999999915
 49
25.3999999999999986
 74
0
 49
-12.6999999999999993
 74
0
 49
25.3999999999999986
 74
0
 49
-12.6999999999999993
 74
0
 49
0.0
 74
0
 49
-12.6999999999999993
 74
0
  0
LTYPE
  5
49
100
AcDbSymbolTableRecord
100
AcDbLinetypeTableRecord
  2
CUTRIGHT2
 70
0
  3
G42 reversed----\----\----\----
 72
65
 73
2
 40
10.1600000000000001
 49
5.0800000000000001
 74
0
 49
5.0800000000000001
 74
0
  0
LTYPE
  5
4A
100
AcDbSymbolTableRecord
100
AcDbLinetypeTableRecord
  2
ACAD_ISO06W100
 70
0
  3
ISO long-dash triple-dot ____ ... ____ ... ____
 72
65
 73
8
 40
36.0
 49
24.0
 74
0
 49
-3.0
 74
0
 49
0.0
 74
0
 49
-3.0
 74
0
 49
0.0
 74
0
 49
-3.0
 74
0
 49
0.0
 74
0
 49
-3.0
 74
0
  0
LTYPE
  5
4B
100
AcDbSymbolTableRecord
100
AcDbLinetypeTableRecord
  2
BATTING
 70
0
  3
Batting SSSSSSSSSSSSSSSSSSSSSSSSSSSSSSSSSSSSSSSSSSSSSSS
 72
65
 73
4
 40
10.1625399999999999
 49
0.00254
 74
0
 49
-2.54
 74
0
 49
-5.0800000000000001
 74
0
 49
-2.54
 74
0
  0
LTYPE
  5
4C
100
AcDbSymbolTableRecord
100
AcDbLinetypeTableRecord
  2
DASHDOT
 70
0
  3
Dash dot __ . __ . __ . __ . __ . __ . __ . __
 72
65
 73
4
 40
25.3999999999999986
 49
12.6999999999999993
 74
0
 49
-6.3499999999999996
 74
0
 49
0.0
 74
0
 49
-6.3499999999999996
 74
0
  0
LTYPE
  5
14
100
AcDbSymbolTableRecord
100
AcDbLinetypeTableRecord
  2
BYBLOCK
 70
0
  3

 72
65
 73
0
 40
0.0
  0
LTYPE
  5
4D
100
AcDbSymbolTableRecord
100
AcDbLinetypeTableRecord
  2
ACAD_ISO13W100
 70
0
  3
ISO double-dash double-dot __ __ . . __ __ . . _
 72
65
 73
8
 40
36.0
 49
12.0
 74
0
 49
-3.0
 74
0
 49
12.0
 74
0
 49
-3.0
 74
0
 49
0.0
 74
0
 49
-3.0
 74
0
 49
0.0
 74
0
 49
-3.0
 74
0
  0
LTYPE
  5
4E
100
AcDbSymbolTableRecord
100
AcDbLinetypeTableRecord
  2
CUTRIGHT
 70
0
  3
G42 ----/----/-----/---
 72
65
 73
2
 40
10.1600000000000001
 49
5.0800000000000001
 74
0
 49
5.0800000000000001
 74
0
  0
LTYPE
  5
4F
100
AcDbSymbolTableRecord
100
AcDbLinetypeTableRecord
  2
PHANTOM2
 70
0
  3
Phantom (.5x) ___ _ _ ___ _ _ ___ _ _ ___ _ _
 72
65
 73
6
 40
31.7500000000000036
 49
15.875
 74
0
 49
-3.1749999999999998
 74
0
 49
3.1749999999999998
 74
0
 49
-3.1749999999999998
 74
0
 49
3.1749999999999998
 74
0
 49
-3.1749999999999998
 74
0
  0
LTYPE
  5
50
100
AcDbSymbolTableRecord
100
AcDbLinetypeTableRecord
  2
HIDDEN
 70
0
  3
Hidden __ __ __ __ __ __ __ __ __ __ __ __ __ __
 72
65
 73
2
 40
9.5249999999999986
 49
6.3499999999999996
 74
0
 49
-3.1749999999999998
 74
0
  0
LTYPE
  5
51
100
AcDbSymbolTableRecord
100
AcDbLinetypeTableRecord
  2
ACAD_ISO05W100
 70
0
  3
ISO long-dash double-dot ____ .. ____ .. ____ . 
 72
65
 73
6
 40
33.0
 49
24.0
 74
0
 49
-3.0
 74
0
 49
0.0
 74
0
 49
-3.0
 74
0
 49
0.0
 74
0
 49
-3.0
 74
0
  0
LTYPE
  5
52
100
AcDbSymbolTableRecord
100
AcDbLinetypeTableRecord
  2
DOT
 70
0
  3
Dot . . . . . . . . . . . . . . . . . . . . . . . .
 72
65
 73
2
 40
6.3499999999999996
 49
0.0
 74
0
 49
-6.3499999999999996
 74
0
  0
LTYPE
  5
53
100
AcDbSymbolTableRecord
100
AcDbLinetypeTableRecord
  2
DRAINAGE2
 70
0
  3
Drainage reversed----<----<----<----
 72
65
 73
2
 40
10.1600000000000001
 49
5.0800000000000001
 74
0
 49
5.0800000000000001
 74
0
  0
LTYPE
  5
54
100
AcDbSymbolTableRecord
100
AcDbLinetypeTableRecord
  2
ACAD_ISO12W100
 70
0
  3
ISO dash double-dot __ . . __ . . __ . . __ . . 
 72
65
 73
6
 40
21.0
 49
12.0
 74
0
 49
-3.0
 74
0
 49
0.0
 74
0
 49
-3.0
 74
0
 49
0.0
 74
0
 49
-3.0
 74
0
  0
LTYPE
  5
55
100
AcDbSymbolTableRecord
100
AcDbLinetypeTableRecord
  2
HIDDENX2
 70
0
  3
Hidden (2x) ____ ____ ____ ____ ____ ____ ____ 
 72
65
 73
2
 40
19.0499999999999972
 49
12.6999999999999993
 74
0
 49
-6.3499999999999996
 74
0
  0
LTYPE
  5
56
100
AcDbSymbolTableRecord
100
AcDbLinetypeTableRecord
  2
ACAD_ISO04W100
 70
0
  3
ISO long-dash dot ____ . ____ . ____ . ____ . _
 72
65
 73
4
 40
30.0
 49
24.0
 74
0
 49
-3.0
 74
0
 49
0.0
 74
0
 49
-3.0
 74
0
  0
LTYPE
  5
57
100
AcDbSymbolTableRecord
100
AcDbLinetypeTableRecord
  2
DASHEDX2
 70
0
  3
Dashed (2x) ____  ____  ____  ____  ____  ___
 72
65
 73
2
 40
38.0999999999999943
 49
25.3999999999999986
 74
0
 49
-12.6999999999999993
 74
0
  0
LTYPE
  5
58
100
AcDbSymbolTableRecord
100
AcDbLinetypeTableRecord
  2
DRAINAGE
 70
0
  3
Drainage ---->---->---->----
 72
65
 73
2
 40
10.1600000000000001
 49
5.0800000000000001
 74
0
 49
5.0800000000000001
 74
0
  0
LTYPE
  5
59
100
AcDbSymbolTableRecord
100
AcDbLinetypeTableRecord
  2
ACAD_ISO11W100
 70
0
  3
ISO double-dash dot __ __ . __ __ . __ __ . __ _
 72
65
 73
6
 40
33.0
 49
12.0
 74
0
 49
-3.0
 74
0
 49
12.0
 74
0
 49
-3.0
 74
0
 49
0.0
 74
0
 49
-3.0
 74
0
  0
LTYPE
  5
5A
100
AcDbSymbolTableRecord
100
AcDbLinetypeTableRecord
  2
ACAD_ISO03W100
 70
0
  3
ISO dash space __    __    __    __    __    __
 72
65
 73
2
 40
30.0
 49
12.0
 74
0
 49
-18.0
 74
0
  0
LTYPE
  5
5B
100
AcDbSymbolTableRecord
100
AcDbLinetypeTableRecord
  2
CUTLEFT
 70
0
  3
G41 ----\----\----\----
 72
65
 73
2
 40
10.1600000000000001
 49
5.0800000000000001
 74
0
 49
5.0800000000000001
 74
0
  0
LTYPE
  5
5C
100
AcDbSymbolTableRecord
100
AcDbLinetypeTableRecord
  2
ZIGZAG
 70
0
  3
Zig zag /\/\/\/\/\/\/\/\/\/\/\/\/\/\/\/\/\/\/\/\/\/\/\/
 72
65
 73
4
 40
20.32254
 49
0.00254
 74
0
 49
-5.0800000000000001
 74
0
 49
-10.1600000000000001
 74
0
 49
-5.0800000000000001
 74
0
  0
LTYPE
  5
5D
100
AcDbSymbolTableRecord
100
AcDbLinetypeTableRecord
  2
DIVIDE2
 70
0
  3
Divide (.5x) __..__..__..__..__..__..__..__.._
 72
65
 73
6
 40
15.875
 49
6.3499999999999996
 74
0
 49
-3.1749999999999998
 74
0
 49
0.0
 74
0
 49
-3.1749999999999998
 74
0
 49
0.0
 74
0
 49
-3.1749999999999998
 74
0
  0
LTYPE
  5
5E
100
AcDbSymbolTableRecord
100
AcDbLinetypeTableRecord
  2
HOT_WATER_SUPPLY
 70
0
  3
Hot water supply ---- HW ---- HW ---- HW ----
 72
65
 73
3
 40
22.8599999999999994
 49
12.6999999999999993
 74
0
 49
-5.0800000000000001
 74
0
 49
-5.0800000000000001
 74
0
  0
LTYPE
  5
5F
100
AcDbSymbolTableRecord
100
AcDbLinetypeTableRecord
  2
ACAD_ISO10W100
 70
0
  3
ISO dash dot __ . __ . __ . __ . __ . __ . __ . 
 72
65
 73
4
 40
18.0
 49
12.0
 74
0
 49
-3.0
 74
0
 49
0.0
 74
0
 49
-3.0
 74
0
  0
LTYPE
  5
60
100
AcDbSymbolTableRecord
100
AcDbLinetypeTableRecord
  2
HIDDEN2
 70
0
  3
Hidden (.5x) _ _ _ _ _ _ _ _ _ _ _ _ _ _ _ _ _ 
 72
65
 73
2
 40
4.7624999999999993
 49
3.1749999999999998
 74
0
 49
-1.5874999999999999
 74
0
  0
LTYPE
  5
61
100
AcDbSymbolTableRecord
100
AcDbLinetypeTableRecord
  2
ACAD_ISO02W100
 70
0
  3
ISO dash __ __ __ __ __ __ __ __ __ __ __ __ __
 72
65
 73
2
 40
15.0
 49
12.0
 74
0
 49
-3.0
 74
0
  0
LTYPE
  5
15
100
AcDbSymbolTableRecord
100
AcDbLinetypeTableRecord
  2
BYLAYER
 70
0
  3

 72
65
 73
0
 40
0.0
  0
LTYPE
  5
62
100
AcDbSymbolTableRecord
100
AcDbLinetypeTableRecord
  2
DASHDOTX2
 70
0
  3
Dash dot (2x) ____  .  ____  .  ____  .  ___
 72
65
 73
4
 40
50.7999999999999972
 49
25.3999999999999986
 74
0
 49
-12.6999999999999993
 74
0
 49
0.0
 74
0
 49
-12.6999999999999993
 74
0
  0
LTYPE
  5
63
100
AcDbSymbolTableRecord
100
AcDbLinetypeTableRecord
  2
DASHDOT2
 70
0
  3
Dash dot (.5x) _._._._._._._._._._._._._._._.
 72
65
 73
4
 40
12.6999999999999993
 49
6.3499999999999996
 74
0
 49
-3.1749999999999998
 74
0
 49
0.0
 74
0
 49
-3.1749999999999998
 74
0
  0
ENDTAB
  0
TABLE
  2
LAYER
  5
2
100
AcDbSymbolTable
 70
4
  0
LAYER
  5
10
100
AcDbSymbolTableRecord
100
AcDbLayerTableRecord
  2
0
 70
0
 62
7
420
16777215
  6
Continuous
370
25
390
F
  0
LAYER
  5
64
100
AcDbSymbolTableRecord
100
AcDbLayerTableRecord
  2
Text
 70
0
 62
1
420
16711680
  6
Continuous
370
25
390
F
  0
LAYER
  5
65
100
AcDbSymbolTableRecord
100
AcDbLayerTableRecord
  2
Steg
 70
0
 62
5
420
255
  6
Continuous
370
25
390
F
  0
LAYER
  5
66
100
AcDbSymbolTableRecord
100
AcDbLayerTableRecord
  2
Cut
 70
0
 62
7
420
16777215
  6
Continuous
370
-3
390
F
  0
ENDTAB
  0
TABLE
  2
STYLE
  5
3
100
AcDbSymbolTable
 70
16
  0
STYLE
  5
67
100
AcDbSymbolTableRecord
100
AcDbTextStyleTableRecord
  2
Standard
 70
0
 40
0.0
 41
1.0
 50
0.0
 71
0
 42
2.5
  3

  4

1001
ACAD
1000
txt
1071
0
  0
STYLE
  5
68
100
AcDbSymbolTableRecord
100
AcDbTextStyleTableRecord
  2
textstyle0
 70
0
 40
0.0
 41
1.0
 50
0.0
 71
0
 42
3.5
  3

  4

1001
ACAD
1000
Arial
1071
0
  0
STYLE
  5
69
100
AcDbSymbolTableRecord
100
AcDbTextStyleTableRecord
  2
textstyle1
 70
0
 40
0.0
 41
1.0
 50
0.0
 71
0
 42
3.5
  3

  4

1001
ACAD
1000
Arial
1071
0
  0
STYLE
  5
6A
100
AcDbSymbolTableRecord
100
AcDbTextStyleTableRecord
  2
textstyle2
 70
0
 40
0.0
 41
1.0
 50
0.0
 71
0
 42
3.5
  3

  4

1001
ACAD
1000
Arial
1071
0
  0
STYLE
  5
6B
100
AcDbSymbolTableRecord
100
AcDbTextStyleTableRecord
  2
textstyle3
 70
0
 40
0.0
 41
1.0
 50
0.0
 71
0
 42
3.5
  3

  4

1001
ACAD
1000
Arial
1071
0
  0
STYLE
  5
6C
100
AcDbSymbolTableRecord
100
AcDbTextStyleTableRecord
  2
textstyle4
 70
0
 40
0.0
 41
1.0
 50
0.0
 71
0
 42
3.5
  3

  4

1001
ACAD
1000
Arial
1071
0
  0
STYLE
  5
6D
100
AcDbSymbolTableRecord
100
AcDbTextStyleTableRecord
  2
textstyle5
 70
0
 40
0.0
 41
1.0
 50
0.0
 71
0
 42
3.5
  3

  4

1001
ACAD
1000
Arial
1071
0
  0
STYLE
  5
6E
100
AcDbSymbolTableRecord
100
AcDbTextStyleTableRecord
  2
textstyle6
 70
0
 40
0.0
 41
1.0
 50
0.0
 71
0
 42
3.5
  3

  4

1001
ACAD
1000
Arial
1071
0
  0
STYLE
  5
6F
100
AcDbSymbolTableRecord
100
AcDbTextStyleTableRecord
  2
textstyle7
 70
0
 40
0.0
 41
1.0
 50
0.0
 71
0
 42
3.5
  3

  4

1001
ACAD
1000
Arial
1071
0
  0
STYLE
  5
70
100
AcDbSymbolTableRecord
100
AcDbTextStyleTableRecord
  2
textstyle8
 70
0
 40
0.0
 41
1.0
 50
0.0
 71
0
 42
3.5
  3

  4

1001
ACAD
1000
Arial Narrow
1071
0
  0
STYLE
  5
71
100
AcDbSymbolTableRecord
100
AcDbTextStyleTableRecord
  2
textstyle9
 70
0
 40
0.0
 41
1.0
 50
0.0
 71
0
 42
3.5
  3

  4

1001
ACAD
1000
Arial
1071
0
  0
STYLE
  5
72
100
AcDbSymbolTableRecord
100
AcDbTextStyleTableRecord
  2
textstyle10
 70
0
 40
0.0
 41
1.0
 50
0.0
 71
0
 42
3.5
  3

  4

1001
ACAD
1000
Arial
1071
0
  0
STYLE
  5
73
100
AcDbSymbolTableRecord
100
AcDbTextStyleTableRecord
  2
textstyle11
 70
0
 40
0.0
 41
1.0
 50
0.0
 71
0
 42
3.5
  3

  4

1001
ACAD
1000
Arial
1071
0
  0
STYLE
  5
74
100
AcDbSymbolTableRecord
100
AcDbTextStyleTableRecord
  2
textstyle12
 70
0
 40
0.0
 41
1.0
 50
0.0
 71
0
 42
3.5
  3

  4

1001
ACAD
1000
Arial
1071
0
  0
STYLE
  5
75
100
AcDbSymbolTableRecord
100
AcDbTextStyleTableRecord
  2
textstyle13
 70
0
 40
0.0
 41
1.0
 50
0.0
 71
0
 42
3.5
  3

  4

1001
ACAD
1000
Arial
1071
0
  0
STYLE
  5
76
100
AcDbSymbolTableRecord
100
AcDbTextStyleTableRecord
  2
textstyle14
 70
0
 40
0.0
 41
1.0
 50
0.0
 71
0
 42
3.5
  3

  4

1001
ACAD
1000
Arial
1071
0
  0
ENDTAB
  0
TABLE
  2
VIEW
  5
6
100
AcDbSymbolTable
 70
0
  0
ENDTAB
  0
TABLE
  2
UCS
  5
7
100
AcDbSymbolTable
 70
0
  0
ENDTAB
  0
TABLE
  2
APPID
  5
9
100
AcDbSymbolTable
 70
1
  0
APPID
  5
12
100
AcDbSymbolTableRecord
100
AcDbRegAppTableRecord
  2
ACAD
 70
0
  0
APPID
  5
77
100
AcDbSymbolTableRecord
100
AcDbRegAppTableRecord
  2
QCAD
 70
0
  0
ENDTAB
  0
TABLE
  2
DIMSTYLE
  5
A
100
AcDbSymbolTable
 70
1
100
AcDbDimStyleTable
 71
0
  0
DIMSTYLE
105
27
100
AcDbSymbolTableRecord
100
AcDbDimStyleTableRecord
  2
Standard
 41
2.5
 42
0.625
 43
3.75
 44
1.25
 70
0
 73
0
 74
0
 77
1
 78
8
140
2.5
141
2.5
143
0.03937007874016
147
0.625
171
3
172
1
271
2
272
2
274
3
278
44
283
0
284
8
340
67
  0
ENDTAB
  0
TABLE
  2
BLOCK_RECORD
  5
1
100
AcDbSymbolTable
 70
1
  0
BLOCK_RECORD
  5
1F
100
AcDbSymbolTableRecord
100
AcDbBlockTableRecord
  2
*Model_Space
340
22
  0
BLOCK_RECORD
  5
1B
100
AcDbSymbolTableRecord
100
AcDbBlockTableRecord
  2
*Paper_Space
340
1E
  0
BLOCK_RECORD
  5
23
100
AcDbSymbolTableRecord
100
AcDbBlockTableRecord
  2
*Paper_Space0
340
26
  0
ENDTAB
  0
ENDSEC
  0
SECTION
  2
BLOCKS
  0
BLOCK
  5
20
100
AcDbEntity
  8
0
100
AcDbBlockBegin
  2
*Model_Space
 70
0
 10
0.0
 20
0.0
 30
0.0
  3
*Model_Space
  1

  0
ENDBLK
  5
21
100
AcDbEntity
  8
0
100
AcDbBlockEnd
  0
BLOCK
  5
1C
100
AcDbEntity
 67
1
  8
0
100
AcDbBlockBegin
  2
*Paper_Space
 70
0
 10
0.0
 20
0.0
 30
0.0
  3
*Paper_Space
  1

  0
ENDBLK
  5
1D
100
AcDbEntity
 67
1
  8
0
100
AcDbBlockEnd
  0
BLOCK
  5
24
100
AcDbEntity
  8
0
100
AcDbBlockBegin
  2
*Paper_Space0
 70
0
 10
0.0
 20
0.0
 30
0.0
  3
*Paper_Space0
  1

  0
ENDBLK
  5
25
100
AcDbEntity
  8
0
100
AcDbBlockEnd
  0
ENDSEC
  0
SECTION
  2
ENTITIES
  0
SPLINE
  5
78
  8
Cut
 62
256
370
-1
 48
1.0
  6
BYLAYER
100
AcDbEntity
100
AcDbSpline
 70
8
 71
3
 72
8
 73
4
 74
0
 40
0.0
 40
0.0
 40
0.0
 40
0.0
 40
1.0
 40
1.0
 40
1.0
 40
1.0
 10
20.6783795838951789
 20
39.6224106684485662
 30
0.0
 10
20.9304095838951696
 20
38.1752506684485695
 30
0.0
 10
21.3882995838951615
 20
36.5465106684485477
 30
0.0
 10
22.4980495838951811
 20
35.5747806684485681
 30
0.0
  0
SPLINE
  5
79
  8
Cut
 62
256
370
-1
 48
1.0
  6
BYLAYER
100
AcDbEntity
100
AcDbSpline
 70
8
 71
3
 72
8
 73
4
 74
0
 40
0.0
 40
0.0
 40
0.0
 40
0.0
 40
1.0
 40
1.0
 40
1.0
 40
1.0
 10
22.4980495838951811
 20
35.5747806684485681
 30
0.0
 10
24.5209495838951739
 20
33.8030106684485645
 30
0.0
 10
27.7525595838951631
 20
34.6912006684485448
 30
0.0
 10
29.4587495838951838
 20
32.7587006684485686
 30
0.0
  0
SPLINE
  5
7A
  8
Cut
 62
256
370
-1
 48
1.0
  6
BYLAYER
100
AcDbEntity
100
AcDbSpline
 70
8
 71
3
 72
8
 73
4
 74
0
 40
0.0
 40
0.0
 40
0.0
 40
0.0
 40
1.0
 40
1.0
 40
1.0
 40
1.0
 10
29.4587495838951838
 20
32.7587006684485686
 30
0.0
 10
30.6951895838951714
 20
31.3594406684485705
 30
0.0
 10
32.9635195838951631
 20
26.7118006684485465
 30
0.0
 10
29.7503795838951817
 20
26.0756406684485569
 30
0.0
  0
SPLINE
  5
7B
  8
Cut
 62
256
370
-1
 48
1.0
  6
BYLAYER
100
AcDbEntity
100
AcDbSpline
 70
8
 71
3
 72
8
 73
4
 74
0
 40
0.0
 40
0.0
 40
0.0
 40
0.0
 40
1.0
 40
1.0
 40
1.0
 40
1.0
 10
29.7503795838951817
 20
26.0756406684485569
 30
0.0
 10
26.6005795838951826
 20
25.4520106684485654
 30
0.0
 10
23.7582395838951754
 20
26.5435606684485492
 30
0.0
 10
20.6453895838951667
 20
26.5586006684485483
 30
0.0
  0
SPLINE
  5
7C
  8
Cut
 62
256
370
-1
 48
1.0
  6
BYLAYER
100
AcDbEntity
100
AcDbSpline
 70
8
 71
3
 72
8
 73
4
 74
0
 40
0.0
 40
0.0
 40
0.0
 40
0.0
 40
1.0
 40
1.0
 40
1.0
 40
1.0
 10
20.6453895838951667
 20
26.5586006684485483
 30
0.0
 10
18.4667895838951779
 20
26.5692006684485591
 30
0.0
 10
16.3488895838951862
 20
26.0859306684485546
 30
0.0
 10
14.1795195838951713
 20
26.0328906684485446
 30
0.0
  0
SPLINE
  5
7D
  8
Cut
 62
256
370
-1
 48
1.0
  6
BYLAYER
100
AcDbEntity
100
AcDbSpline
 70
8
 71
3
 72
8
 73
4
 74
0
 40
0.0
 40
0.0
 40
0.0
 40
0.0
 40
1.0
 40
1.0
 40
1.0
 40
1.0
 10
14.1795195838951713
 20
26.0328906684485446
 30
0.0
 10
12.2753895838951621
 20
25.9861906684485575
 30
0.0
 10
10.3897395838951638
 20
26.4745406684485545
 30
0.0
 10
8.5053995838951835
 20
26.2727806684485472
 30
0.0
  0
SPLINE
  5
7E
  8
Cut
 62
256
370
-1
 48
1.0
  6
BYLAYER
100
AcDbEntity
100
AcDbSpline
 70
8
 71
3
 72
8
 73
4
 74
0
 40
0.0
 40
0.0
 40
0.0
 40
0.0
 40
1.0
 40
1.0
 40
1.0
 40
1.0
 10
8.5053995838951835
 20
26.2727806684485472
 30
0.0
 10
7.1079795838951725
 20
26.1230106684485577
 30
0.0
 10
5.8068895838951846
 20
25.4159906684485577
 30
0.0
 10
4.4147495838951727
 20
25.2620006684485645
 30
0.0
  0
SPLINE
  5
7F
  8
Cut
 62
256
370
-1
 48
1.0
  6
BYLAYER
100
AcDbEntity
100
AcDbSpline
 70
8
 71
3
 72
8
 73
4
 74
0
 40
0.0
 40
0.0
 40
0.0
 40
0.0
 40
1.0
 40
1.0
 40
1.0
 40
1.0
 10
4.4147495838951727
 20
25.2620006684485645
 30
0.0
 10
2.3100495838951645
 20
25.0290906684485606
 30
0.0
 10
0.5471095838951783
 20
25.9122806684485454
 30
0.0
 10
0.6051695838951616
 20
28.2741606684485589
 30
0.0
  0
SPLINE
  5
80
  8
Cut
 62
256
370
-1
 48
1.0
  6
BYLAYER
100
AcDbEntity
100
AcDbSpline
 70
8
 71
3
 72
8
 73
4
 74
0
 40
0.0
 40
0.0
 40
0.0
 40
0.0
 40
1.0
 40
1.0
 40
1.0
 40
1.0
 10
0.6051695838951616
 20
28.2741606684485589
 30
0.0
 10
0.6473695838951699
 20
29.999230668448547
 30
0.0
 10
1.6159495838951727
 20
30.9635706684485683
 30
0.0
 10
2.1239895838951668
 20
32.496770668448562
 30
0.0
  0
SPLINE
  5
81
  8
Cut
 62
256
370
-1
 48
1.0
  6
BYLAYER
100
AcDbEntity
100
AcDbSpline
 70
8
 71
3
 72
8
 73
4
 74
0
 40
0.0
 40
0.0
 40
0.0
 40
0.0
 40
1.0
 40
1.0
 40
1.0
 40
1.0
 10
2.1239895838951668
 20
32.496770668448562
 30
0.0
 10
2.3021295838951801
 20
33.0351506684485514
 30
0.0
 10
2.3179595838951741
 20
33.747320668448566
 30
0.0
 10
2.9685095838951838
 20
33.9043506684485578
 30
0.0
  0
SPLINE
  5
82
  8
Cut
 62
256
370
-1
 48
1.0
  6
BYLAYER
100
AcDbEntity
100
AcDbSpline
 70
8
 71
3
 72
8
 73
4
 74
0
 40
0.0
 40
0.0
 40
0.0
 40
0.0
 40
1.0
 40
1.0
 40
1.0
 40
1.0
 10
2.9685095838951838
 20
33.9043506684485578
 30
0.0
 10
3.6362095838951802
 20
34.0654706684485689
 30
0.0
 10
4.5189995838951802
 20
33.778590668448544
 30
0.0
 10
5.206489583895177
 20
33.6843806684485685
 30
0.0
  0
SPLINE
  5
83
  8
Cut
 62
256
370
-1
 48
1.0
  6
BYLAYER
100
AcDbEntity
100
AcDbSpline
 70
8
 71
3
 72
8
 73
4
 74
0
 40
0.0
 40
0.0
 40
0.0
 40
0.0
 40
1.0
 40
1.0
 40
1.0
 40
1.0
 10
5.206489583895177
 20
33.6843806684485685
 30
0.0
 10
6.8651795838951841
 20
33.4572806684485613
 30
0.0
 10
8.551579583895176
 20
33.1506106684485644
 30
0.0
 10
10.2208295838951813
 20
33.0363406684485597
 30
0.0
  0
SPLINE
  5
84
  8
Cut
 62
256
370
-1
 48
1.0
  6
BYLAYER
100
AcDbEntity
100
AcDbSpline
 70
8
 71
3
 72
8
 73
4
 74
0
 40
0.0
 40
0.0
 40
0.0
 40
0.0
 40
1.0
 40
1.0
 40
1.0
 40
1.0
 10
10.2208295838951813
 20
33.0363406684485597
 30
0.0
 10
10.7987995838951747
 20
32.9968406684485558
 30
0.0
 10
11.4519795838951666
 20
32.9443406684485467
 30
0.0
 10
11.8913995838951791
 20
33.3457806684485547
 30
0.0
  0
SPLINE
  5
85
  8
Cut
 62
256
370
-1
 48
1.0
  6
BYLAYER
100
AcDbEntity
100
AcDbSpline
 70
8
 71
3
 72
8
 73
4
 74
0
 40
0.0
 40
0.0
 40
0.0
 40
0.0
 40
1.0
 40
1.0
 40
1.0
 40
1.0
 10
11.8913995838951791
 20
33.3457806684485547
 30
0.0
 10
12.2423995838951782
 20
33.6672206684485502
 30
0.0
 10
12.3796395838951696
 20
34.1393606684485462
 30
0.0
 10
12.3017795838951827
 20
34.6075406684485642
 30
0.0
  0
SPLINE
  5
86
  8
Cut
 62
256
370
-1
 48
1.0
  6
BYLAYER
100
AcDbEntity
100
AcDbSpline
 70
8
 71
3
 72
8
 73
4
 74
0
 40
0.0
 40
0.0
 40
0.0
 40
0.0
 40
1.0
 40
1.0
 40
1.0
 40
1.0
 10
12.3017795838951827
 20
34.6075406684485642
 30
0.0
 10
12.1605895838951596
 20
35.4475806684485519
 30
0.0
 10
11.3596095838951783
 20
35.7081906684485659
 30
0.0
 10
10.6166995838951834
 20
35.8017506684485625
 30
0.0
  0
SPLINE
  5
87
  8
Cut
 62
256
370
-1
 48
1.0
  6
BYLAYER
100
AcDbEntity
100
AcDbSpline
 70
8
 71
3
 72
8
 73
4
 74
0
 40
0.0
 40
0.0
 40
0.0
 40
0.0
 40
1.0
 40
1.0
 40
1.0
 40
1.0
 10
10.6166995838951834
 20
35.8017506684485625
 30
0.0
 10
9.0358595838951601
 20
36.0007406684485716
 30
0.0
 10
7.4444695838951702
 20
36.1943206684485688
 30
0.0
 10
5.8662695838951606
 20
36.41970066844857
 30
0.0
  0
SPLINE
  5
88
  8
Cut
 62
256
370
-1
 48
1.0
  6
BYLAYER
100
AcDbEntity
100
AcDbSpline
 70
8
 71
3
 72
8
 73
4
 74
0
 40
0.0
 40
0.0
 40
0.0
 40
0.0
 40
1.0
 40
1.0
 40
1.0
 40
1.0
 10
5.8662695838951606
 20
36.41970066844857
 30
0.0
 10
5.2487095838951632
 20
36.5080006684485454
 30
0.0
 10
3.9410295838951868
 20
36.5702606684485545
 30
0.0
 10
3.7985095838951679
 20
37.1296306684485558
 30
0.0
  0
SPLINE
  5
89
  8
Cut
 62
256
370
-1
 48
1.0
  6
BYLAYER
100
AcDbEntity
100
AcDbSpline
 70
8
 71
3
 72
8
 73
4
 74
0
 40
0.0
 40
0.0
 40
0.0
 40
0.0
 40
1.0
 40
1.0
 40
1.0
 40
1.0
 10
3.7985095838951679
 20
37.1296306684485558
 30
0.0
 10
3.509529583895187
 20
38.2684106684485528
 30
0.0
 10
4.4266295838951635
 20
40.4786806684485612
 30
0.0
 10
4.6456695838951703
 20
41.7337206684485693
 30
0.0
  0
SPLINE
  5
8A
  8
Cut
 62
256
370
-1
 48
1.0
  6
BYLAYER
100
AcDbEntity
100
AcDbSpline
 70
8
 71
3
 72
8
 73
4
 74
0
 40
0.0
 40
0.0
 40
0.0
 40
0.0
 40
1.0
 40
1.0
 40
1.0
 40
1.0
 10
42.836374080705923
 20
26.436566887572539
 30
0.0
 10
43.36499108070592
 20
26.7128838875725449
 30
0.0
 10
44.0856050807059177
 20
26.5722178875725348
 30
0.0
 10
44.6812560807059214
 20
26.5722178875725348
 30
0.0
  0
SPLINE
  5
8B
  8
Cut
 62
256
370
-1
 48
1.0
  6
BYLAYER
100
AcDbEntity
100
AcDbSpline
 70
8
 71
3
 72
8
 73
4
 74
0
 40
0.0
 40
0.0
 40
0.0
 40
0.0
 40
1.0
 40
1.0
 40
1.0
 40
1.0
 10
48.7719050807059205
 20
26.5722178875725348
 30
0.0
 10
49.3864250807059193
 20
26.5722178875725348
 30
0.0
 10
50.0900170807059197
 20
26.6953338875725734
 30
0.0
 10
50.6115090807059147
 20
26.3423498875725812
 30
0.0
  0
SPLINE
  5
8C
  8
Cut
 62
256
370
-1
 48
1.0
  6
BYLAYER
100
AcDbEntity
100
AcDbSpline
 70
8
 71
3
 72
8
 73
4
 74
0
 40
0.0
 40
0.0
 40
0.0
 40
0.0
 40
1.0
 40
1.0
 40
1.0
 40
1.0
 10
50.6115090807059147
 20
26.3423498875725812
 30
0.0
 10
51.0608200807059234
 20
26.0381908875725543
 30
0.0
 10
51.1279860807059237
 20
25.6288618875725405
 30
0.0
 10
51.1471200807059176
 20
25.1206978875725753
 30
0.0
  0
SPLINE
  5
8D
  8
Cut
 62
256
370
-1
 48
1.0
  6
BYLAYER
100
AcDbEntity
100
AcDbSpline
 70
8
 71
3
 72
8
 73
4
 74
0
 40
0.0
 40
0.0
 40
0.0
 40
0.0
 40
1.0
 40
1.0
 40
1.0
 40
1.0
 10
51.1471200807059176
 20
25.1206978875725753
 30
0.0
 10
51.1596500807059158
 20
24.788958887572548
 30
0.0
 10
51.1383200807059239
 20
24.4106398875725716
 30
0.0
 10
51.452995080705918
 20
24.2006978875725594
 30
0.0
  0
SPLINE
  5
8E
  8
Cut
 62
256
370
-1
 48
1.0
  6
BYLAYER
100
AcDbEntity
100
AcDbSpline
 70
8
 71
3
 72
8
 73
4
 74
0
 40
0.0
 40
0.0
 40
0.0
 40
0.0
 40
1.0
 40
1.0
 40
1.0
 40
1.0
 10
51.452995080705918
 20
24.2006978875725594
 30
0.0
 10
52.6134190807059241
 20
23.4262458875725628
 30
0.0
 10
54.9460120807059198
 20
24.4915298875725824
 30
0.0
 10
56.2927590807059204
 20
23.9854768875725739
 30
0.0
  0
SPLINE
  5
8F
  8
Cut
 62
256
370
-1
 48
1.0
  6
BYLAYER
100
AcDbEntity
100
AcDbSpline
 70
8
 71
3
 72
8
 73
4
 74
0
 40
0.0
 40
0.0
 40
0.0
 40
0.0
 40
1.0
 40
1.0
 40
1.0
 40
1.0
 10
56.2927590807059204
 20
23.9854768875725739
 30
0.0
 10
56.8160980807059204
 20
23.7887298875725577
 30
0.0
 10
57.0289440807059194
 20
23.3932568875725764
 30
0.0
 10
57.0775040807059213
 20
22.8774388875725521
 30
0.0
  0
SPLINE
  5
90
  8
Cut
 62
256
370
-1
 48
1.0
  6
BYLAYER
100
AcDbEntity
100
AcDbSpline
 70
8
 71
3
 72
8
 73
4
 74
0
 40
0.0
 40
0.0
 40
0.0
 40
0.0
 40
1.0
 40
1.0
 40
1.0
 40
1.0
 10
57.0775040807059213
 20
22.8774388875725521
 30
0.0
 10
57.1083840807059175
 20
22.5504508875725804
 30
0.0
 10
57.0177240807059178
 20
22.0626078875725824
 30
0.0
 10
57.3910320807059193
 20
21.9132338875725594
 30
0.0
  0
SPLINE
  5
91
  8
Cut
 62
256
370
-1
 48
1.0
  6
BYLAYER
100
AcDbEntity
100
AcDbSpline
 70
8
 71
3
 72
8
 73
4
 74
0
 40
0.0
 40
0.0
 40
0.0
 40
0.0
 40
1.0
 40
1.0
 40
1.0
 40
1.0
 10
57.3910320807059193
 20
21.9132338875725594
 30
0.0
 10
58.2740850807059161
 20
21.5598538875725438
 30
0.0
 10
59.0312500807059166
 20
22.5235318875725596
 30
0.0
 10
59.7989730807059203
 20
21.6597448875725576
 30
0.0
  0
SPLINE
  5
92
  8
Cut
 62
256
370
-1
 48
1.0
  6
BYLAYER
100
AcDbEntity
100
AcDbSpline
 70
8
 71
3
 72
8
 73
4
 74
0
 40
0.0
 40
0.0
 40
0.0
 40
0.0
 40
1.0
 40
1.0
 40
1.0
 40
1.0
 10
59.7989730807059203
 20
21.6597448875725576
 30
0.0
 10
60.4268210807059205
 20
20.9533828875725447
 30
0.0
 10
60.1201550807059206
 20
19.3041918875725713
 30
0.0
 10
60.1201550807059206
 20
18.39092188757256
 30
0.0
  0
LWPOLYLINE
  5
93
  8
Cut
 62
256
370
-1
 48
1.0
  6
BYLAYER
100
AcDbEntity
100
AcDbPolyline
 90
2
 70
0
 10
44.6812560807059214
 20
26.5722178875725348
 30
0.0
 10
48.7719050807059205
 20
26.5722178875725348
 30
0.0
  0
SPLINE
  5
94
  8
Cut
 62
256
370
-1
 48
1.0
  6
BYLAYER
100
AcDbEntity
100
AcDbSpline
 70
8
 71
3
 72
8
 73
4
 74
0
 40
0.0
 40
0.0
 40
0.0
 40
0.0
 40
1.0
 40
1.0
 40
1.0
 40
1.0
 10
60.1201550807059206
 20
10.8694068875725378
 30
0.0
 10
60.1201550807059206
 20
9.9475598875725808
 30
0.0
 10
60.388950080705925
 20
8.5246738875725754
 30
0.0
 10
59.9462360807059156
 20
7.716836887572569
 30
0.0
  0
SPLINE
  5
95
  8
Cut
 62
256
370
-1
 48
1.0
  6
BYLAYER
100
AcDbEntity
100
AcDbSpline
 70
8
 71
3
 72
8
 73
4
 74
0
 40
0.0
 40
0.0
 40
0.0
 40
0.0
 40
1.0
 40
1.0
 40
1.0
 40
1.0
 10
59.9462360807059156
 20
7.716836887572569
 30
0.0
 10
59.67862808070592
 20
7.228333887572532
 30
0.0
 10
59.176270080705919
 20
7.159320887572548
 30
0.0
 10
58.668634080705921
 20
7.1868998875725509
 30
0.0
  0
SPLINE
  5
96
  8
Cut
 62
256
370
-1
 48
1.0
  6
BYLAYER
100
AcDbEntity
100
AcDbSpline
 70
8
 71
3
 72
8
 73
4
 74
0
 40
0.0
 40
0.0
 40
0.0
 40
0.0
 40
1.0
 40
1.0
 40
1.0
 40
1.0
 10
58.668634080705921
 20
7.1868998875725509
 30
0.0
 10
58.2540270807059244
 20
7.2095998875725371
 30
0.0
 10
57.6509860807059198
 20
7.44883288757255
 30
0.0
 10
57.2966840807059157
 20
7.1709298875725693
 30
0.0
  0
SPLINE
  5
97
  8
Cut
 62
256
370
-1
 48
1.0
  6
BYLAYER
100
AcDbEntity
100
AcDbSpline
 70
8
 71
3
 72
8
 73
4
 74
0
 40
0.0
 40
0.0
 40
0.0
 40
0.0
 40
1.0
 40
1.0
 40
1.0
 40
1.0
 10
57.2966840807059157
 20
7.1709298875725693
 30
0.0
 10
56.7493280807059222
 20
6.7415438875725471
 30
0.0
 10
57.2274040807059237
 20
5.64973688757253
 30
0.0
 10
56.4195690807059194
 20
5.2188988875725357
 30
0.0
  0
SPLINE
  5
98
  8
Cut
 62
256
370
-1
 48
1.0
  6
BYLAYER
100
AcDbEntity
100
AcDbSpline
 70
8
 71
3
 72
8
 73
4
 74
0
 40
0.0
 40
0.0
 40
0.0
 40
0.0
 40
1.0
 40
1.0
 40
1.0
 40
1.0
 10
56.4195690807059194
 20
5.2188988875725357
 30
0.0
 10
55.0927480807059169
 20
4.5112168875725587
 30
0.0
 10
52.9057030807059192
 20
5.5701668875725403
 30
0.0
 10
51.5625180807059209
 20
4.9837528875725496
 30
0.0
  0
SPLINE
  5
99
  8
Cut
 62
256
370
-1
 48
1.0
  6
BYLAYER
100
AcDbEntity
100
AcDbSpline
 70
8
 71
3
 72
8
 73
4
 74
0
 40
0.0
 40
0.0
 40
0.0
 40
0.0
 40
1.0
 40
1.0
 40
1.0
 40
1.0
 10
51.5625180807059209
 20
4.9837528875725496
 30
0.0
 10
51.0493400807059174
 20
4.7596908875725461
 30
0.0
 10
51.1126790807059166
 20
3.1838678875725606
 30
0.0
 10
50.5910550807059209
 20
2.8318078875725661
 30
0.0
  0
SPLINE
  5
9A
  8
Cut
 62
256
370
-1
 48
1.0
  6
BYLAYER
100
AcDbEntity
100
AcDbSpline
 70
8
 71
3
 72
8
 73
4
 74
0
 40
0.0
 40
0.0
 40
0.0
 40
0.0
 40
1.0
 40
1.0
 40
1.0
 40
1.0
 10
50.5910550807059209
 20
2.8318078875725661
 30
0.0
 10
50.0250940807059195
 20
2.449793887572568
 30
0.0
 10
49.307252080705922
 20
2.5561508875725707
 30
0.0
 10
48.6399480807059206
 20
2.5561508875725707
 30
0.0
  0
SPLINE
  5
9B
  8
Cut
 62
256
370
-1
 48
1.0
  6
BYLAYER
100
AcDbEntity
100
AcDbSpline
 70
8
 71
3
 72
8
 73
4
 74
0
 40
0.0
 40
0.0
 40
0.0
 40
0.0
 40
1.0
 40
1.0
 40
1.0
 40
1.0
 10
47.6852200474879453
 20
2.5235682288876689
 30
0.0
 10
47.0290240807059234
 20
2.5561508875725707
 30
0.0
 10
44.6158060807059229
 20
2.1932708875725524
 30
0.0
 10
43.09791108070592
 20
2.631760887572554
 30
0.0
  0
SPLINE
  5
9C
  8
Cut
 62
256
370
-1
 48
1.0
  6
BYLAYER
100
AcDbEntity
100
AcDbSpline
 70
8
 71
3
 72
8
 73
4
 74
0
 40
0.0
 40
0.0
 40
0.0
 40
0.0
 40
1.0
 40
1.0
 40
1.0
 40
1.0
 10
43.09791108070592
 20
2.631760887572554
 30
0.0
 10
42.1686750807059241
 20
2.9001598875725705
 30
0.0
 10
42.2379520807059237
 20
3.5968898875725444
 30
0.0
 10
42.159701080705922
 20
4.2709228875725529
 30
0.0
  0
SPLINE
  5
9D
  8
Cut
 62
256
370
-1
 48
1.0
  6
BYLAYER
100
AcDbEntity
100
AcDbSpline
 70
8
 71
3
 72
8
 73
4
 74
0
 40
0.0
 40
0.0
 40
0.0
 40
0.0
 40
1.0
 40
1.0
 40
1.0
 40
1.0
 10
42.159701080705922
 20
4.2709228875725529
 30
0.0
 10
42.1239410807059187
 20
4.5797008875725709
 30
0.0
 10
42.0873910807059204
 20
4.8306818875725384
 30
0.0
 10
41.7480770807059187
 20
4.9837518875725522
 30
0.0
  0
SPLINE
  5
9E
  8
Cut
 62
256
370
-1
 48
1.0
  6
BYLAYER
100
AcDbEntity
100
AcDbSpline
 70
8
 71
3
 72
8
 73
4
 74
0
 40
0.0
 40
0.0
 40
0.0
 40
0.0
 40
1.0
 40
1.0
 40
1.0
 40
1.0
 10
41.7480770807059187
 20
4.9837518875725522
 30
0.0
 10
40.4418270807059201
 20
5.5726768875725696
 30
0.0
 10
38.4664140807059169
 20
4.6592748875725505
 30
0.0
 10
37.0283920807059204
 20
5.1995038875725612
 30
0.0
  0
SPLINE
  5
9F
  8
Cut
 62
256
370
-1
 48
1.0
  6
BYLAYER
100
AcDbEntity
100
AcDbSpline
 70
8
 71
3
 72
8
 73
4
 74
0
 40
0.0
 40
0.0
 40
0.0
 40
0.0
 40
1.0
 40
1.0
 40
1.0
 40
1.0
 10
37.0283920807059204
 20
5.1995038875725612
 30
0.0
 10
36.2048260807059208
 20
5.5090738875725691
 30
0.0
 10
36.4265130807059165
 20
6.9657408875725508
 30
0.0
 10
35.8206350807059195
 20
7.2268828875725575
 30
0.0
  0
SPLINE
  5
A0
  8
Cut
 62
256
370
-1
 48
1.0
  6
BYLAYER
100
AcDbEntity
100
AcDbSpline
 70
8
 71
3
 72
8
 73
4
 74
0
 40
0.0
 40
0.0
 40
0.0
 40
0.0
 40
1.0
 40
1.0
 40
1.0
 40
1.0
 10
35.8206350807059195
 20
7.2268828875725575
 30
0.0
 10
34.9917110807059188
 20
7.5840888875725767
 30
0.0
 10
34.2263250807059194
 20
6.7916898875725309
 30
0.0
 10
33.5221790807059179
 20
7.4958098875725767
 30
0.0
  0
SPLINE
  5
A1
  8
Cut
 62
256
370
-1
 48
1.0
  6
BYLAYER
100
AcDbEntity
100
AcDbSpline
 70
8
 71
3
 72
8
 73
4
 74
0
 40
0.0
 40
0.0
 40
0.0
 40
0.0
 40
1.0
 40
1.0
 40
1.0
 40
1.0
 10
33.5221790807059179
 20
7.4958098875725767
 30
0.0
 10
32.8849090807059241
 20
8.1330268875725409
 30
0.0
 10
33.2010500807059188
 20
9.8629758875725742
 30
0.0
 10
33.2010500807059188
 20
10.7374508875725354
 30
0.0
  0
LWPOLYLINE
  5
A2
  8
Cut
 62
256
370
-1
 48
1.0
  6
BYLAYER
100
AcDbEntity
100
AcDbPolyline
 90
2
 70
0
 10
60.1201550807059206
 20
18.39092188757256
 30
0.0
 10
60.1201550807059206
 20
10.8694068875725378
 30
0.0
  0
SPLINE
  5
A3
  8
Cut
 62
256
370
-1
 48
1.0
  6
BYLAYER
100
AcDbEntity
100
AcDbSpline
 70
8
 71
3
 72
8
 73
4
 74
0
 40
0.0
 40
0.0
 40
0.0
 40
0.0
 40
1.0
 40
1.0
 40
1.0
 40
1.0
 10
33.2010500807059188
 20
18.1270088875725577
 30
0.0
 10
33.2010500807059188
 20
19.0438418875725546
 30
0.0
 10
32.9708920807059229
 20
20.450628887572563
 30
0.0
 10
33.2990010807059207
 20
21.2933028875725512
 30
0.0
  0
SPLINE
  5
A4
  8
Cut
 62
256
370
-1
 48
1.0
  6
BYLAYER
100
AcDbEntity
100
AcDbSpline
 70
8
 71
3
 72
8
 73
4
 74
0
 40
0.0
 40
0.0
 40
0.0
 40
0.0
 40
1.0
 40
1.0
 40
1.0
 40
1.0
 10
33.2990010807059207
 20
21.2933028875725512
 30
0.0
 10
33.8162440807059212
 20
22.621971887572542
 30
0.0
 10
34.9985330807059185
 20
21.5205308875725763
 30
0.0
 10
35.9301850807059182
 20
21.9950468875725704
 30
0.0
  0
SPLINE
  5
A5
  8
Cut
 62
256
370
-1
 48
1.0
  6
BYLAYER
100
AcDbEntity
100
AcDbSpline
 70
8
 71
3
 72
8
 73
4
 74
0
 40
0.0
 40
0.0
 40
0.0
 40
0.0
 40
1.0
 40
1.0
 40
1.0
 40
1.0
 10
35.9301850807059182
 20
21.9950468875725704
 30
0.0
 10
36.2269550807059204
 20
22.146268887572532
 30
0.0
 10
36.2132180807059214
 20
22.4698258875725827
 30
0.0
 10
36.2359410807059206
 20
22.7456148875725574
 30
0.0
  0
SPLINE
  5
A6
  8
Cut
 62
256
370
-1
 48
1.0
  6
BYLAYER
100
AcDbEntity
100
AcDbSpline
 70
8
 71
3
 72
8
 73
4
 74
0
 40
0.0
 40
0.0
 40
0.0
 40
0.0
 40
1.0
 40
1.0
 40
1.0
 40
1.0
 10
36.2359410807059206
 20
22.7456148875725574
 30
0.0
 10
36.2777050807059211
 20
23.252062887572535
 30
0.0
 10
36.3541610807059214
 20
23.7351558875725317
 30
0.0
 10
36.9082460807059221
 20
23.9671348875725556
 30
0.0
  0
SPLINE
  5
A7
  8
Cut
 62
256
370
-1
 48
1.0
  6
BYLAYER
100
AcDbEntity
100
AcDbSpline
 70
8
 71
3
 72
8
 73
4
 74
0
 40
0.0
 40
0.0
 40
0.0
 40
0.0
 40
1.0
 40
1.0
 40
1.0
 40
1.0
 10
36.9082460807059221
 20
23.9671348875725556
 30
0.0
 10
38.1543230807059217
 20
24.488626887572579
 30
0.0
 10
40.524867080705917
 20
23.6059698875725843
 30
0.0
 10
41.7586730807059183
 20
24.1446158875725558
 30
0.0
  0
SPLINE
  5
A8
  8
Cut
 62
256
370
-1
 48
1.0
  6
BYLAYER
100
AcDbEntity
100
AcDbSpline
 70
8
 71
3
 72
8
 73
4
 74
0
 40
0.0
 40
0.0
 40
0.0
 40
0.0
 40
1.0
 40
1.0
 40
1.0
 40
1.0
 10
41.7586730807059183
 20
24.1446158875725558
 30
0.0
 10
42.2167070807059162
 20
24.344661887572542
 30
0.0
 10
42.1554790807059163
 20
24.8321088875725735
 30
0.0
 10
42.176592080705916
 20
25.2526538875725777
 30
0.0
  0
SPLINE
  5
A9
  8
Cut
 62
256
370
-1
 48
1.0
  6
BYLAYER
100
AcDbEntity
100
AcDbSpline
 70
8
 71
3
 72
8
 73
4
 74
0
 40
0.0
 40
0.0
 40
0.0
 40
0.0
 40
1.0
 40
1.0
 40
1.0
 40
1.0
 10
42.176592080705916
 20
25.2526538875725777
 30
0.0
 10
42.2020620807059217
 20
25.7616098875725328
 30
0.0
 10
42.3428570807059188
 20
26.1787238875725592
 30
0.0
 10
42.836374080705923
 20
26.436566887572539
 30
0.0
  0
LWPOLYLINE
  5
AA
  8
Cut
 62
256
370
-1
 48
1.0
  6
BYLAYER
100
AcDbEntity
100
AcDbPolyline
 90
2
 70
0
 10
33.2010500807059188
 20
10.7374508875725354
 30
0.0
 10
33.2010500807059188
 20
18.1270088875725577
 30
0.0
  0
SPLINE
  5
AB
  8
Cut
 62
256
370
-1
 48
1.0
  6
BYLAYER
100
AcDbEntity
100
AcDbSpline
 70
8
 71
3
 72
8
 73
4
 74
0
 40
0.0
 40
0.0
 40
0.0
 40
0.0
 40
1.0
 40
1.0
 40
1.0
 40
1.0
 10
22.6110711909744424
 20
23.0310276828068936
 30
0.0
 10
24.209061190974424
 20
23.2409696828069059
 30
0.0
 10
26.584281190974437
 20
23.3953586828069149
 30
0.0
 10
28.1532411909744411
 20
23.0350276828069127
 30
0.0
  0
SPLINE
  5
AC
  8
Cut
 62
256
370
-1
 48
1.0
  6
BYLAYER
100
AcDbEntity
100
AcDbSpline
 70
8
 71
3
 72
8
 73
4
 74
0
 40
0.0
 40
0.0
 40
0.0
 40
0.0
 40
1.0
 40
1.0
 40
1.0
 40
1.0
 10
28.1532411909744411
 20
23.0350276828069127
 30
0.0
 10
28.8935111909744222
 20
22.8648046828068914
 30
0.0
 10
29.4411311909744171
 20
22.3423886828068987
 30
0.0
 10
29.7353911909744255
 20
21.6354986828069116
 30
0.0
  0
SPLINE
  5
AD
  8
Cut
 62
256
370
-1
 48
1.0
  6
BYLAYER
100
AcDbEntity
100
AcDbSpline
 70
8
 71
3
 72
8
 73
4
 74
0
 40
0.0
 40
0.0
 40
0.0
 40
0.0
 40
1.0
 40
1.0
 40
1.0
 40
1.0
 10
29.7353911909744255
 20
21.6354986828069116
 30
0.0
 10
30.4176111909744264
 20
20.0001626828069163
 30
0.0
 10
30.4453211909744397
 20
17.2252516828069133
 30
0.0
 10
30.5231711909744234
 20
15.4335476828069034
 30
0.0
  0
SPLINE
  5
AE
  8
Cut
 62
256
370
-1
 48
1.0
  6
BYLAYER
100
AcDbEntity
100
AcDbSpline
 70
8
 71
3
 72
8
 73
4
 74
0
 40
0.0
 40
0.0
 40
0.0
 40
0.0
 40
1.0
 40
1.0
 40
1.0
 40
1.0
 10
30.5231711909744234
 20
15.4335476828069034
 30
0.0
 10
30.542971190974427
 20
14.9806736828068949
 30
0.0
 10
30.616871190974436
 20
13.8230196828069154
 30
0.0
 10
30.3173211909744253
 20
13.5745456828068995
 30
0.0
  0
SPLINE
  5
AF
  8
Cut
 62
256
370
-1
 48
1.0
  6
BYLAYER
100
AcDbEntity
100
AcDbSpline
 70
8
 71
3
 72
8
 73
4
 74
0
 40
0.0
 40
0.0
 40
0.0
 40
0.0
 40
1.0
 40
1.0
 40
1.0
 40
1.0
 10
30.3173211909744253
 20
13.5745456828068995
 30
0.0
 10
30.0494511909744375
 20
13.352991682806902
 30
0.0
 10
28.4567411909744266
 20
13.3566856828068978
 30
0.0
 10
28.1532411909744411
 20
13.3717286828068893
 30
0.0
  0
SPLINE
  5
B0
  8
Cut
 62
256
370
-1
 48
1.0
  6
BYLAYER
100
AcDbEntity
100
AcDbSpline
 70
8
 71
3
 72
8
 73
4
 74
0
 40
0.0
 40
0.0
 40
0.0
 40
0.0
 40
1.0
 40
1.0
 40
1.0
 40
1.0
 10
28.1532411909744411
 20
13.3717286828068893
 30
0.0
 10
24.9928811909744439
 20
13.5282296828069093
 30
0.0
 10
21.3211911909744316
 20
13.45419868280689
 30
0.0
 10
17.9925911909744372
 20
13.45419868280689
 30
0.0
  0
SPLINE
  5
B1
  8
Cut
 62
256
370
-1
 48
1.0
  6
BYLAYER
100
AcDbEntity
100
AcDbSpline
 70
8
 71
3
 72
8
 73
4
 74
0
 40
0.0
 40
0.0
 40
0.0
 40
0.0
 40
1.0
 40
1.0
 40
1.0
 40
1.0
 10
17.9925911909744372
 20
13.45419868280689
 30
0.0
 10
16.6934811909744241
 20
13.45419868280689
 30
0.0
 10
14.2863411909744258
 20
13.884112682806915
 30
0.0
 10
14.0641211909744328
 20
12.1345076828069125
 30
0.0
  0
SPLINE
  5
B2
  8
Cut
 62
256
370
-1
 48
1.0
  6
BYLAYER
100
AcDbEntity
100
AcDbSpline
 70
8
 71
3
 72
8
 73
4
 74
0
 40
0.0
 40
0.0
 40
0.0
 40
0.0
 40
1.0
 40
1.0
 40
1.0
 40
1.0
 10
14.0641211909744328
 20
12.1345076828069125
 30
0.0
 10
14.0095211909744251
 20
11.7040576828069049
 30
0.0
 10
14.1311211909744259
 20
11.3136076828068894
 30
0.0
 10
14.4598611909744363
 20
11.0221076828069044
 30
0.0
  0
SPLINE
  5
B3
  8
Cut
 62
256
370
-1
 48
1.0
  6
BYLAYER
100
AcDbEntity
100
AcDbSpline
 70
8
 71
3
 72
8
 73
4
 74
0
 40
0.0
 40
0.0
 40
0.0
 40
0.0
 40
1.0
 40
1.0
 40
1.0
 40
1.0
 10
14.4598611909744363
 20
11.0221076828069044
 30
0.0
 10
15.2296911909744352
 20
10.3394976828068934
 30
0.0
 10
16.8143611909744237
 20
10.5511576828069167
 30
0.0
 10
17.7286811909744273
 20
10.5511576828069167
 30
0.0
  0
SPLINE
  5
B4
  8
Cut
 62
256
370
-1
 48
1.0
  6
BYLAYER
100
AcDbEntity
100
AcDbSpline
 70
8
 71
3
 72
8
 73
4
 74
0
 40
0.0
 40
0.0
 40
0.0
 40
0.0
 40
1.0
 40
1.0
 40
1.0
 40
1.0
 10
17.7286811909744273
 20
10.5511576828069167
 30
0.0
 10
18.5361211909744412
 20
10.5511576828069167
 30
0.0
 10
19.8519911909744309
 20
10.3558676828069167
 30
0.0
 10
20.6317211909744316
 20
10.7010576828068906
 30
0.0
  0
SPLINE
  5
B5
  8
Cut
 62
256
370
-1
 48
1.0
  6
BYLAYER
100
AcDbEntity
100
AcDbSpline
 70
8
 71
3
 72
8
 73
4
 74
0
 40
0.0
 40
0.0
 40
0.0
 40
0.0
 40
1.0
 40
1.0
 40
1.0
 40
1.0
 10
20.6317211909744316
 20
10.7010576828068906
 30
0.0
 10
21.4019511909744296
 20
11.041907682806908
 30
0.0
 10
21.9627711909744363
 20
11.5639276828069058
 30
0.0
 10
22.8749811909744238
 20
11.5896576828069158
 30
0.0
  0
SPLINE
  5
B6
  8
Cut
 62
256
370
-1
 48
1.0
  6
BYLAYER
100
AcDbEntity
100
AcDbSpline
 70
8
 71
3
 72
8
 73
4
 74
0
 40
0.0
 40
0.0
 40
0.0
 40
0.0
 40
1.0
 40
1.0
 40
1.0
 40
1.0
 10
22.8749811909744238
 20
11.5896576828069158
 30
0.0
 10
24.1232911909744274
 20
11.6248576828068906
 30
0.0
 10
24.962531190974417
 20
10.6118576828069138
 30
0.0
 10
26.1738911909744303
 20
10.5563076828069029
 30
0.0
  0
SPLINE
  5
B7
  8
Cut
 62
256
370
-1
 48
1.0
  6
BYLAYER
100
AcDbEntity
100
AcDbSpline
 70
8
 71
3
 72
8
 73
4
 74
0
 40
0.0
 40
0.0
 40
0.0
 40
0.0
 40
1.0
 40
1.0
 40
1.0
 40
1.0
 10
26.1738911909744303
 20
10.5563076828069029
 30
0.0
 10
27.2110711909744367
 20
10.5088076828068893
 30
0.0
 10
29.3566811909744416
 20
10.9936076828068963
 30
0.0
 10
30.2223111909744233
 20
10.41550768280689
 30
0.0
  0
SPLINE
  5
B8
  8
Cut
 62
256
370
-1
 48
1.0
  6
BYLAYER
100
AcDbEntity
100
AcDbSpline
 70
8
 71
3
 72
8
 73
4
 74
0
 40
0.0
 40
0.0
 40
0.0
 40
0.0
 40
1.0
 40
1.0
 40
1.0
 40
1.0
 10
30.2223111909744233
 20
10.41550768280689
 30
0.0
 10
30.8161211909744424
 20
10.0191076828068901
 30
0.0
 10
30.4756711909744382
 20
8.6463676828068969
 30
0.0
 10
30.4189311909744191
 20
8.0439876828069146
 30
0.0
  0
SPLINE
  5
B9
  8
Cut
 62
256
370
-1
 48
1.0
  6
BYLAYER
100
AcDbEntity
100
AcDbSpline
 70
8
 71
3
 72
8
 73
4
 74
0
 40
0.0
 40
0.0
 40
0.0
 40
0.0
 40
1.0
 40
1.0
 40
1.0
 40
1.0
 10
30.4189311909744191
 20
8.0439876828069146
 30
0.0
 10
30.2355111909744352
 20
6.1166276828068931
 30
0.0
 10
30.5350511909744426
 20
2.0963176828068981
 30
0.0
 10
28.5491111909744433
 20
1.1517776828069088
 30
0.0
  0
SPLINE
  5
BA
  8
Cut
 62
256
370
-1
 48
1.0
  6
BYLAYER
100
AcDbEntity
100
AcDbSpline
 70
8
 71
3
 72
8
 73
4
 74
0
 40
0.0
 40
0.0
 40
0.0
 40
0.0
 40
1.0
 40
1.0
 40
1.0
 40
1.0
 10
28.5491111909744433
 20
1.1517776828069088
 30
0.0
 10
26.9537511909744438
 20
0.3924976828068907
 30
0.0
 10
24.1998211909744185
 20
0.9178176828069127
 30
0.0
 10
22.4791111909744217
 20
1.0385576828068963
 30
0.0
  0
SPLINE
  5
BB
  8
Cut
 62
256
370
-1
 48
1.0
  6
BYLAYER
100
AcDbEntity
100
AcDbSpline
 70
8
 71
3
 72
8
 73
4
 74
0
 40
0.0
 40
0.0
 40
0.0
 40
0.0
 40
1.0
 40
1.0
 40
1.0
 40
1.0
 10
22.4791111909744217
 20
1.0385576828068963
 30
0.0
 10
16.1962711909744286
 20
1.4788976828069167
 30
0.0
 10
10.084051190974435
 20
3.6210776828069129
 30
0.0
 10
4.7969511909744256
 20
6.9124576828069166
 30
0.0
  0
SPLINE
  5
BC
  8
Cut
 62
256
370
-1
 48
1.0
  6
BYLAYER
100
AcDbEntity
100
AcDbSpline
 70
8
 71
3
 72
8
 73
4
 74
0
 40
0.0
 40
0.0
 40
0.0
 40
0.0
 40
1.0
 40
1.0
 40
1.0
 40
1.0
 10
4.7969511909744256
 20
6.9124576828069166
 30
0.0
 10
3.9253811909744343
 20
7.4550676828069129
 30
0.0
 10
2.7018811909744329
 20
8.1645976828069138
 30
0.0
 10
2.0811611909744272
 20
8.9696576828069112
 30
0.0
  0
SPLINE
  5
BD
  8
Cut
 62
256
370
-1
 48
1.0
  6
BYLAYER
100
AcDbEntity
100
AcDbSpline
 70
8
 71
3
 72
8
 73
4
 74
0
 40
0.0
 40
0.0
 40
0.0
 40
0.0
 40
1.0
 40
1.0
 40
1.0
 40
1.0
 10
2.0811611909744272
 20
8.9696576828069112
 30
0.0
 10
1.3369311909744255
 20
9.9347876828068991
 30
0.0
 10
1.3329711909744333
 20
13.2255186828068929
 30
0.0
 10
1.5761945350060529
 20
13.4919951645979665
 30
0.0
  0
SPLINE
  5
BE
  8
Cut
 62
256
370
-1
 48
1.0
  6
BYLAYER
100
AcDbEntity
100
AcDbSpline
 70
8
 71
3
 72
8
 73
4
 74
0
 40
0.0
 40
0.0
 40
0.0
 40
0.0
 40
1.0
 40
1.0
 40
1.0
 40
1.0
 10
1.7227711909744272
 20
14.3778936828068993
 30
0.0
 10
2.3437511909744302
 20
16.2138026828069144
 30
0.0
 10
5.3133011909744283
 20
17.4307046828068906
 30
0.0
 10
6.9082611909744287
 20
18.3365856828069127
 30
0.0
  0
SPLINE
  5
BF
  8
Cut
 62
256
370
-1
 48
1.0
  6
BYLAYER
100
AcDbEntity
100
AcDbSpline
 70
8
 71
3
 72
8
 73
4
 74
0
 40
0.0
 40
0.0
 40
0.0
 40
0.0
 40
1.0
 40
1.0
 40
1.0
 40
1.0
 10
6.9082611909744287
 20
18.3365856828069127
 30
0.0
 10
11.7730911909744265
 20
21.099488682806907
 30
0.0
 10
17.098851190974429
 20
22.3068896828069114
 30
0.0
 10
22.6110711909744424
 20
23.0310666828069088
 30
0.0
  0
SPLINE
  5
C0
  8
Cut
 62
256
370
-1
 48
1.0
  6
BYLAYER
100
AcDbEntity
100
AcDbSpline
 70
8
 71
3
 72
8
 73
4
 74
0
 40
0.0
 40
0.0
 40
0.0
 40
0.0
 40
1.0
 40
1.0
 40
1.0
 40
1.0
 10
37.2700408120507021
 20
49.30832976421366
 30
0.0
 10
38.6013008120507024
 20
49.7257807642136314
 30
0.0
 10
39.2399268120507045
 20
48.6627227642136759
 30
0.0
 10
39.2457228120507011
 20
47.5501337642136619
 30
0.0
  0
SPLINE
  5
C1
  8
Cut
 62
256
370
-1
 48
1.0
  6
BYLAYER
100
AcDbEntity
100
AcDbSpline
 70
8
 71
3
 72
8
 73
4
 74
0
 40
0.0
 40
0.0
 40
0.0
 40
0.0
 40
1.0
 40
1.0
 40
1.0
 40
1.0
 10
39.2457228120507011
 20
47.5501337642136619
 30
0.0
 10
39.2623228120507051
 20
44.4008727642136378
 30
0.0
 10
39.2458548120507018
 20
41.2180207642136693
 30
0.0
 10
39.2458548120507018
 20
38.0655977642136705
 30
0.0
  0
SPLINE
  5
C2
  8
Cut
 62
256
370
-1
 48
1.0
  6
BYLAYER
100
AcDbEntity
100
AcDbSpline
 70
8
 71
3
 72
8
 73
4
 74
0
 40
0.0
 40
0.0
 40
0.0
 40
0.0
 40
1.0
 40
1.0
 40
1.0
 40
1.0
 10
39.2458548120507018
 20
38.0655977642136705
 30
0.0
 10
39.2458548120507018
 20
36.9375967642136303
 30
0.0
 10
39.5770228120506999
 20
34.9799617642136482
 30
0.0
 10
38.1914898120507047
 20
34.5843777642136629
 30
0.0
  0
SPLINE
  5
C3
  8
Cut
 62
256
370
-1
 48
1.0
  6
BYLAYER
100
AcDbEntity
100
AcDbSpline
 70
8
 71
3
 72
8
 73
4
 74
0
 40
0.0
 40
0.0
 40
0.0
 40
0.0
 40
1.0
 40
1.0
 40
1.0
 40
1.0
 10
38.1914898120507047
 20
34.5843777642136629
 30
0.0
 10
36.8025328120506998
 20
34.1878717642136465
 30
0.0
 10
36.1152988120507032
 20
35.449709764213658
 30
0.0
 10
36.086318812050699
 20
36.616571764213667
 30
0.0
  0
SPLINE
  5
C4
  8
Cut
 62
256
370
-1
 48
1.0
  6
BYLAYER
100
AcDbEntity
100
AcDbSpline
 70
8
 71
3
 72
8
 73
4
 74
0
 40
0.0
 40
0.0
 40
0.0
 40
0.0
 40
1.0
 40
1.0
 40
1.0
 40
1.0
 10
36.086318812050699
 20
36.616571764213667
 30
0.0
 10
36.0039888120507001
 20
39.9208787642136613
 30
0.0
 10
36.0274388120507041
 20
43.9386337642136837
 30
0.0
 10
36.1886718120506998
 20
46.891485764213634
 30
0.0
  0
SPLINE
  5
C5
  8
Cut
 62
256
370
-1
 48
1.0
  6
BYLAYER
100
AcDbEntity
100
AcDbSpline
 70
8
 71
3
 72
8
 73
4
 74
0
 40
0.0
 40
0.0
 40
0.0
 40
0.0
 40
1.0
 40
1.0
 40
1.0
 40
1.0
 10
36.1886718120506998
 20
46.891485764213634
 30
0.0
 10
36.2077718120507015
 20
47.2433357642136471
 30
0.0
 10
36.1436218120507036
 20
47.5040287642136505
 30
0.0
 10
36.1647018120507013
 20
47.8135927642136735
 30
0.0
  0
SPLINE
  5
C6
  8
Cut
 62
256
370
-1
 48
1.0
  6
BYLAYER
100
AcDbEntity
100
AcDbSpline
 70
8
 71
3
 72
8
 73
4
 74
0
 40
0.0
 40
0.0
 40
0.0
 40
0.0
 40
1.0
 40
1.0
 40
1.0
 40
1.0
 10
36.1647018120507013
 20
47.8135927642136735
 30
0.0
 10
36.2121218120507038
 20
48.513077764213655
 30
0.0
 10
36.5760928120507032
 20
49.0908437642136519
 30
0.0
 10
37.2700448120506991
 20
49.30832976421366
 30
0.0
  0
SPLINE
  5
C7
  8
Cut
 62
256
370
-1
 48
1.0
  6
BYLAYER
100
AcDbEntity
100
AcDbSpline
 70
8
 71
3
 72
8
 73
4
 74
0
 40
0.0
 40
0.0
 40
0.0
 40
0.0
 40
1.0
 40
1.0
 40
1.0
 40
1.0
 10
46.7963790621155056
 20
54.4174748655469784
 30
0.0
 10
48.9545060621154988
 20
55.0840268655469458
 30
0.0
 10
48.7723240621155014
 20
52.2324748655469477
 30
0.0
 10
48.7723240621155014
 20
50.9469248655469471
 30
0.0
  0
SPLINE
  5
C8
  8
Cut
 62
256
370
-1
 48
1.0
  6
BYLAYER
100
AcDbEntity
100
AcDbSpline
 70
8
 71
3
 72
8
 73
4
 74
0
 40
0.0
 40
0.0
 40
0.0
 40
0.0
 40
1.0
 40
1.0
 40
1.0
 40
1.0
 10
48.7723240621155014
 20
38.5643368655469487
 30
0.0
 10
48.7723240621155014
 20
37.3010488655469601
 30
0.0
 10
49.1572380621154963
 20
35.0918108655469609
 30
0.0
 10
47.5867570621154954
 20
34.6696168655469705
 30
0.0
  0
SPLINE
  5
C9
  8
Cut
 62
256
370
-1
 48
1.0
  6
BYLAYER
100
AcDbEntity
100
AcDbSpline
 70
8
 71
3
 72
8
 73
4
 74
0
 40
0.0
 40
0.0
 40
0.0
 40
0.0
 40
1.0
 40
1.0
 40
1.0
 40
1.0
 10
47.5867570621154954
 20
34.6696168655469705
 30
0.0
 10
45.512805062115504
 20
34.1122688655469517
 30
0.0
 10
45.6108120621154995
 20
36.7570048655469463
 30
0.0
 10
45.6108120621154995
 20
38.0374178655469564
 30
0.0
  0
LWPOLYLINE
  5
CA
  8
Cut
 62
256
370
-1
 48
1.0
  6
BYLAYER
100
AcDbEntity
100
AcDbPolyline
 90
2
 70
0
 10
48.7723240621155014
 20
50.9469248655469471
 30
0.0
 10
48.7723240621155014
 20
38.5643368655469487
 30
0.0
  0
SPLINE
  5
CB
  8
Cut
 62
256
370
-1
 48
1.0
  6
BYLAYER
100
AcDbEntity
100
AcDbSpline
 70
8
 71
3
 72
8
 73
4
 74
0
 40
0.0
 40
0.0
 40
0.0
 40
0.0
 40
1.0
 40
1.0
 40
1.0
 40
1.0
 10
45.6108120621154995
 20
50.4200068655469522
 30
0.0
 10
45.6108120621154995
 20
51.7286088655469598
 30
0.0
 10
45.1675410621155038
 20
53.9143998655469545
 30
0.0
 10
46.7963790621155056
 20
54.4174748655469784
 30
0.0
  0
LWPOLYLINE
  5
CC
  8
Cut
 62
256
370
-1
 48
1.0
  6
BYLAYER
100
AcDbEntity
100
AcDbPolyline
 90
2
 70
0
 10
45.6108120621154995
 20
38.0374178655469564
 30
0.0
 10
45.6108120621154995
 20
50.4200068655469522
 30
0.0
  0
SPLINE
  5
CD
  8
Cut
 62
256
370
-1
 48
1.0
  6
BYLAYER
100
AcDbEntity
100
AcDbSpline
 70
8
 71
3
 72
8
 73
4
 74
0
 40
0.0
 40
0.0
 40
0.0
 40
0.0
 40
1.0
 40
1.0
 40
1.0
 40
1.0
 10
3.2031774835558018
 20
60.498683554268581
 30
0.0
 10
5.2381269061680573
 20
61.03965966005795
 30
0.0
 10
8.2323343639886506
 20
60.5240700608993194
 30
0.0
 10
10.3603623209887772
 20
60.4493054160336811
 30
0.0
  0
SPLINE
  5
CE
  8
Cut
 62
256
370
-1
 48
1.0
  6
BYLAYER
100
AcDbEntity
100
AcDbSpline
 70
8
 71
3
 72
8
 73
4
 74
0
 40
0.0
 40
0.0
 40
0.0
 40
0.0
 40
1.0
 40
1.0
 40
1.0
 40
1.0
 10
10.3603623209887772
 20
60.4493054160336811
 30
0.0
 10
14.9225250526427367
 20
60.2907808636650202
 30
0.0
 10
19.5531785647987562
 20
60.3289943236763406
 30
0.0
 10
24.1517888048983025
 20
60.2716815222465669
 30
0.0
  0
SPLINE
  5
CF
  8
Cut
 62
256
370
-1
 48
1.0
  6
BYLAYER
100
AcDbEntity
100
AcDbSpline
 70
8
 71
3
 72
8
 73
4
 74
0
 40
0.0
 40
0.0
 40
0.0
 40
0.0
 40
1.0
 40
1.0
 40
1.0
 40
1.0
 10
24.1517888048983025
 20
60.2716815222465669
 30
0.0
 10
25.3251479472033267
 20
60.2577735859072163
 30
0.0
 10
26.8538105566298313
 20
60.1570620733313888
 30
0.0
 10
26.9204733163573771
 20
58.6819890173543115
 30
0.0
  0
SPLINE
  5
D0
  8
Cut
 62
256
370
-1
 48
1.0
  6
BYLAYER
100
AcDbEntity
100
AcDbSpline
 70
8
 71
3
 72
8
 73
4
 74
0
 40
0.0
 40
0.0
 40
0.0
 40
0.0
 40
1.0
 40
1.0
 40
1.0
 40
1.0
 10
26.9204733163573771
 20
58.6819890173543115
 30
0.0
 10
26.9421077461790333
 20
58.2030520825222766
 30
0.0
 10
26.7610086694450011
 20
57.7249188165492058
 30
0.0
 10
26.3753517399561943
 20
57.4077095232848578
 30
0.0
  0
SPLINE
  5
D1
  8
Cut
 62
256
370
-1
 48
1.0
  6
BYLAYER
100
AcDbEntity
100
AcDbSpline
 70
8
 71
3
 72
8
 73
4
 74
0
 40
0.0
 40
0.0
 40
0.0
 40
0.0
 40
1.0
 40
1.0
 40
1.0
 40
1.0
 10
26.3753517399561943
 20
57.4077095232848578
 30
0.0
 10
25.2182331263071902
 20
56.45475370647695
 30
0.0
 10
22.2978887000195556
 20
57.0920339626999649
 30
0.0
 10
20.8535842546178714
 20
57.0915225900800323
 30
0.0
  0
SPLINE
  5
D2
  8
Cut
 62
256
370
-1
 48
1.0
  6
BYLAYER
100
AcDbEntity
100
AcDbSpline
 70
8
 71
3
 72
8
 73
4
 74
0
 40
0.0
 40
0.0
 40
0.0
 40
0.0
 40
1.0
 40
1.0
 40
1.0
 40
1.0
 10
20.8535842546178714
 20
57.0915225900800323
 30
0.0
 10
16.6258889274375505
 20
57.0925284914873643
 30
0.0
 10
12.3379720050129826
 20
57.320087839293663
 30
0.0
 10
8.1200032897292314
 20
57.2901537347214642
 30
0.0
  0
SPLINE
  5
D3
  8
Cut
 62
256
370
-1
 48
1.0
  6
BYLAYER
100
AcDbEntity
100
AcDbSpline
 70
8
 71
3
 72
8
 73
4
 74
0
 40
0.0
 40
0.0
 40
0.0
 40
0.0
 40
1.0
 40
1.0
 40
1.0
 40
1.0
 10
8.1200032897292314
 20
57.2901537347214642
 30
0.0
 10
6.6712462477740164
 20
57.2799775150809438
 30
0.0
 10
4.4122457644435773
 20
56.9607478849683133
 30
0.0
 10
3.0712790670855341
 20
57.4657164944735186
 30
0.0
  0
SPLINE
  5
D4
  8
Cut
 62
256
370
-1
 48
1.0
  6
BYLAYER
100
AcDbEntity
100
AcDbSpline
 70
8
 71
3
 72
8
 73
4
 74
0
 40
0.0
 40
0.0
 40
0.0
 40
0.0
 40
1.0
 40
1.0
 40
1.0
 40
1.0
 10
3.0712790670855341
 20
57.4657164944735186
 30
0.0
 10
1.6936953135282344
 20
57.9849781064379997
 30
0.0
 10
1.5829518312037099
 20
60.0668382824822231
 30
0.0
 10
3.2031774835558018
 20
60.498683554268581
 30
0.0
  0
TEXT
  5
D5
100
AcDbEntity
100
AcDbText
  8
Text
 62
256
370
-1
 48
1.0
  6
BYLAYER
 10
-57.286954001841778
 20
-53.5599362679068633
 30
0.0
 40
3.5
  1
7
 50
95.0
 41
1.0
  7
textstyle2
 71
0
 72
1
 11
30.2797344673011963
 21
58.4984193801574577
 31
0.0
100
AcDbText
 73
2
  0
TEXT
  5
D6
100
AcDbEntity
100
AcDbText
  8
Text
 62
256
370
-1
 48
1.0
  6
BYLAYER
 10
28.5825760807058664
 20
-252.2177991124274286
 30
0.0
 40
3.5
  1
4
 50
0.0
 41
1.0
  7
textstyle14
 71
0
 72
1
 11
34.5825760807059197
 21
16.7822008875725572
 31
0.0
100
AcDbText
 73
2
  0
TEXT
  5
D7
100
AcDbEntity
100
AcDbText
  8
Text
 62
256
370
-1
 48
1.0
  6
BYLAYER
 10
28.5825760807058664
 20
-252.2177991124274286
 30
0.0
 40
3.5
  1
5
 50
0.0
 41
1.0
  7
textstyle13
 71
0
 72
1
 11
37.5825760807059481
 21
19.7822008875725572
 31
0.0
100
AcDbText
 73
2
  0
TEXT
  5
D8
100
AcDbEntity
100
AcDbText
  8
Text
 62
256
370
-1
 48
1.0
  6
BYLAYER
 10
28.5825760807058664
 20
-252.2177991124274286
 30
0.0
 40
3.5
  1
6
 50
0.0
 41
1.0
  7
textstyle12
 71
0
 72
1
 11
40.5825760807059268
 21
21.7822008875725572
 31
0.0
100
AcDbText
 73
2
  0
TEXT
  5
D9
100
AcDbEntity
100
AcDbText
  8
Text
 62
256
370
-1
 48
1.0
  6
BYLAYER
 10
28.5825760807058664
 20
-252.2177991124274286
 30
0.0
 40
3.5
  1
7
 50
0.0
 41
1.0
  7
textstyle11
 71
0
 72
1
 11
43.5825760807059339
 21
23.7822008875725572
 31
0.0
100
AcDbText
 73
2
  0
TEXT
  5
DA
100
AcDbEntity
100
AcDbText
  8
Text
 62
256
370
-1
 48
1.0
  6
BYLAYER
 10
28.5825760807058664
 20
-252.2177991124274286
 30
0.0
 40
3.5
  1
8
 50
0.0
 41
1.0
  7
textstyle10
 71
0
 72
1
 11
46.5825760807059197
 21
21.7822008875725572
 31
0.0
100
AcDbText
 73
2
  0
TEXT
  5
DB
100
AcDbEntity
100
AcDbText
  8
Text
 62
256
370
-1
 48
1.0
  6
BYLAYER
 10
28.5825760807058664
 20
-252.2177991124274286
 30
0.0
 40
3.5
  1
9
 50
0.0
 41
1.0
  7
textstyle9
 71
0
 72
1
 11
49.5825760807059623
 21
23.7822008875725572
 31
0.0
100
AcDbText
 73
2
  0
TEXT
  5
DC
100
AcDbEntity
100
AcDbText
  8
Text
 62
256
370
-1
 48
1.0
  6
BYLAYER
 10
28.5825760807058664
 20
-252.2177991124274286
 30
0.0
 40
3.5
  1
10
 50
90.0
 41
1.0
  7
textstyle8
 71
0
 72
1
 11
52.5825760807059339
 21
16.7822008875725572
 31
0.0
100
AcDbText
 73
2
  0
TEXT
  5
DD
100
AcDbEntity
100
AcDbText
  8
Text
 62
256
370
-1
 48
1.0
  6
BYLAYER
 10
28.5825760807058664
 20
-252.2177991124274286
 30
0.0
 40
3.5
  1
11
 50
90.0
 41
1.0
  7
textstyle7
 71
0
 72
1
 11
54.6974035556618787
 21
21.2568693228494539
 31
0.0
100
AcDbText
 73
2
  0
TEXT
  5
DE
100
AcDbEntity
100
AcDbText
  8
Text
 62
256
370
-1
 48
1.0
  6
BYLAYER
 10
28.5825760807058664
 20
-252.2177991124274286
 30
0.0
 40
3.5
  1
12
 50
90.0
 41
1.0
  7
textstyle6
 71
0
 72
1
 11
58.0405430205212269
 21
16.8668882073775244
 31
0.0
100
AcDbText
 73
2
  0
TEXT
  5
DF
100
AcDbEntity
100
AcDbText
  8
Text
 62
256
370
-1
 48
1.0
  6
BYLAYER
 10
-144.9598904161048836
 20
-147.3259493315513851
 30
0.0
 40
3.5
  1
16
 50
0.0
 41
1.0
  7
textstyle0
 71
0
 72
1
 11
16.0401095838951733
 21
34.6740506684485581
 31
0.0
100
AcDbText
 73
2
  0
TEXT
  5
E0
100
AcDbEntity
100
AcDbText
  8
Text
 62
256
370
-1
 48
1.0
  6
BYLAYER
 10
-109.609238809025527
 20
-184.5785423171931257
 30
0.0
 40
3.5
  1
16
 50
0.0
 41
1.0
  7
textstyle1
 71
0
 72
1
 11
10.3907611909744446
 21
11.4214576828068726
 31
0.0
100
AcDbText
 73
2
  0
LINE
  5
E1
100
AcDbEntity
100
AcDbLine
  8
Steg
 62
256
370
-1
 48
1.0
  6
BYLAYER
 10
4.8401095838951562
 20
42.7740506684485524
 30
0.0
 11
4.6456695838951703
 21
41.7337206684485693
 31
0.0
  0
LINE
  5
E2
100
AcDbEntity
100
AcDbLine
  8
Steg
 62
256
370
-1
 48
1.0
  6
BYLAYER
 10
1.7227711909744272
 20
14.3778936828068993
 30
0.0
 11
1.5761945350060529
 21
13.4919951645979665
 31
0.0
  0
LINE
  5
E3
100
AcDbEntity
100
AcDbLine
  8
Steg
 62
256
370
-1
 48
1.0
  6
BYLAYER
 10
47.6852200474879453
 20
2.5235682288876689
 30
0.0
 11
48.6399480807059206
 21
2.5561508875725707
 31
0.0
  0
LINE
  5
E4
100
AcDbEntity
100
AcDbLine
  8
Cut
 62
256
370
-1
 48
1.0
  6
BYLAYER
 10
4.8401095838951562
 20
42.7740506684485524
 30
0.0
 11
21.0
 21
43.0
 31
0.0
  0
LINE
  5
E5
100
AcDbEntity
100
AcDbLine
  8
Cut
 62
256
370
-1
 48
1.0
  6
BYLAYER
 10
21.0
 20
43.0
 30
0.0
 11
20.6783795838951789
 21
39.6224106684485662
 31
0.0
  0
SPLINE
  5
E6
  8
Cut
 62
256
370
-1
 48
1.0
  6
BYLAYER
100
AcDbEntity
100
AcDbSpline
 70
8
 71
3
 72
8
 73
4
 74
0
 40
0.0
 40
0.0
 40
0.0
 40
0.0
 40
1.0
 40
1.0
 40
1.0
 40
1.0
 10
55.0240700770597897
 20
57.7658618818835237
 30
0.0
 10
54.9822882967349074
 20
59.5107177702974894
 30
0.0
 10
57.3027736157829395
 20
60.5932311272971376
 30
0.0
 10
58.0603830842753581
 20
58.7655873499568031
 30
0.0
  0
SPLINE
  5
E7
  8
Cut
 62
256
370
-1
 48
1.0
  6
BYLAYER
100
AcDbEntity
100
AcDbSpline
 70
8
 71
3
 72
8
 73
4
 74
0
 40
0.0
 40
0.0
 40
0.0
 40
0.0
 40
1.0
 40
1.0
 40
1.0
 40
1.0
 10
58.0603830842753581
 20
58.7655873499568031
 30
0.0
 10
58.6235913889245381
 20
57.4071343034461705
 30
0.0
 10
58.2222523938396748
 20
55.4159979988391029
 30
0.0
 10
58.2412699878813811
 20
53.9838848533031523
 30
0.0
  0
SPLINE
  5
E8
  8
Cut
 62
256
370
-1
 48
1.0
  6
BYLAYER
100
AcDbEntity
100
AcDbSpline
 70
8
 71
3
 72
8
 73
4
 74
0
 40
0.0
 40
0.0
 40
0.0
 40
0.0
 40
1.0
 40
1.0
 40
1.0
 40
1.0
 10
58.2412699878813811
 20
53.9838848533031523
 30
0.0
 10
58.2995835951405681
 20
49.6615612807662359
 30
0.0
 10
58.0552134076067361
 20
45.2445681705220437
 30
0.0
 10
58.1711466894966591
 20
40.8781803131792785
 30
0.0
  0
SPLINE
  5
E9
  8
Cut
 62
256
370
-1
 48
1.0
  6
BYLAYER
100
AcDbEntity
100
AcDbSpline
 70
8
 71
3
 72
8
 73
4
 74
0
 40
0.0
 40
0.0
 40
0.0
 40
0.0
 40
1.0
 40
1.0
 40
1.0
 40
1.0
 10
58.1711466894966591
 20
40.8781803131792785
 30
0.0
 10
58.2097741894491421
 20
39.3805585110384939
 30
0.0
 10
58.7471972446950943
 20
36.0628879585287834
 30
0.0
 10
57.2324311429804595
 20
35.2235179747551044
 30
0.0
  0
SPLINE
  5
EA
  8
Cut
 62
256
370
-1
 48
1.0
  6
BYLAYER
100
AcDbEntity
100
AcDbSpline
 70
8
 71
3
 72
8
 73
4
 74
0
 40
0.0
 40
0.0
 40
0.0
 40
0.0
 40
1.0
 40
1.0
 40
1.0
 40
1.0
 10
57.2324311429804595
 20
35.2235179747551044
 30
0.0
 10
54.551578791243152
 20
33.736876373085849
 30
0.0
 10
54.93919379666076
 20
38.6346008192032642
 30
0.0
 10
54.953446870535501
 20
39.8918181352966883
 30
0.0
  0
SPLINE
  5
EB
  8
Cut
 62
256
370
-1
 48
1.0
  6
BYLAYER
100
AcDbEntity
100
AcDbSpline
 70
8
 71
3
 72
8
 73
4
 74
0
 40
0.0
 40
0.0
 40
0.0
 40
0.0
 40
1.0
 40
1.0
 40
1.0
 40
1.0
 10
54.953446870535501
 20
39.8918181352966883
 30
0.0
 10
55.0076295227301131
 20
44.301390605298856
 30
0.0
 10
54.8403635267420526
 20
48.6078760406261523
 30
0.0
 10
55.0
 20
53.0
 30
0.0
  0
SPLINE
  5
EC
  8
Cut
 62
256
370
-1
 48
1.0
  6
BYLAYER
100
AcDbEntity
100
AcDbSpline
 70
8
 71
3
 72
8
 73
4
 74
0
 40
0.0
 40
0.0
 40
0.0
 40
0.0
 40
1.0
 40
1.0
 40
1.0
 40
1.0
 10
55.0
 20
53.0
 30
0.0
 10
55.0601414329234444
 20
54.6182383876443893
 30
0.0
 10
55.0644165351033195
 20
56.1081835935165216
 30
0.0
 10
55.0240700770597897
 20
57.7658618818835237
 30
0.0
  0
TEXT
  5
ED
100
AcDbEntity
100
AcDbText
  8
Text
 62
256
370
-1
 48
1.0
  6
BYLAYER
 10
2.229818812050766
 20
-220.4693392357863502
 30
0.0
 40
3.5
  1
4
 50
0.0
 41
1.0
  7
textstyle5
 71
0
 72
1
 11
37.5880066414012575
 21
31.0085128690039724
 31
0.0
100
AcDbText
 73
2
  0
TEXT
  5
EE
100
AcDbEntity
100
AcDbText
  8
Text
 62
256
370
-1
 48
1.0
  6
BYLAYER
 10
-33.690452937884416
 20
-203.5043921344530702
 30
0.0
 40
3.5
  1
5
 50
0.0
 41
1.0
  7
textstyle4
 71
0
 72
1
 11
46.9190423349485926
 21
31.3949028889412887
 31
0.0
100
AcDbText
 73
2
  0
TEXT
  5
EF
100
AcDbEntity
100
AcDbText
  8
Text
 62
256
370
-1
 48
1.0
  6
BYLAYER
 10
150.1052209938972908
 20
-75.0136045190625822
 30
0.0
 40
3.5
  1
9
 50
174.0000000000000284
 41
1.0
  7
textstyle3
 71
0
 72
1
 11
56.6265613802590906
 21
31.7620615445243217
 31
0.0
100
AcDbText
 73
2
  0
LINE
  5
F0
100
AcDbEntity
100
AcDbLine
  8
0
 62
256
370
-1
 48
1.0
  6
BYLAYER
 10
33.0
 20
53.0
 30
0.0
 11
42.0
 21
53.0
 31
0.0
  0
LINE
  5
F1
100
AcDbEntity
100
AcDbLine
  8
0
 62
256
370
-1
 48
1.0
  6
BYLAYER
 10
42.0
 20
53.0
 30
0.0
 11
42.0
 21
28.0
 31
0.0
  0
LINE
  5
F2
100
AcDbEntity
100
AcDbLine
  8
0
 62
256
370
-1
 48
1.0
  6
BYLAYER
 10
42.0
 20
28.0
 30
0.0
 11
33.0
 21
28.0
 31
0.0
  0
LINE
  5
F3
100
AcDbEntity
100
AcDbLine
  8
0
 62
256
370
-1
 48
1.0
  6
BYLAYER
 10
33.0
 20
28.0
 30
0.0
 11
33.0
 21
53.0
 31
0.0
  0
LINE
  5
F4
100
AcDbEntity
100
AcDbLine
  8
0
 62
256
370
-1
 48
1.0
  6
BYLAYER
 10
42.0
 20
28.0
 30
0.0
 11
52.0
 21
28.0
 31
0.0
  0
LINE
  5
F5
100
AcDbEntity
100
AcDbLine
  8
0
 62
256
370
-1
 48
1.0
  6
BYLAYER
 10
52.0
 20
28.0
 30
0.0
 11
52.0
 21
58.0
 31
0.0
  0
LINE
  5
F6
100
AcDbEntity
100
AcDbLine
  8
0
 62
256
370
-1
 48
1.0
  6
BYLAYER
 10
52.0
 20
58.0
 30
0.0
 11
42.0
 21
58.0
 31
0.0
  0
LINE
  5
F7
100
AcDbEntity
100
AcDbLine
  8
0
 62
256
370
-1
 48
1.0
  6
BYLAYER
 10
42.0
 20
58.0
 30
0.0
 11
42.0
 21
28.0
 31
0.0
  0
LINE
  5
F8
100
AcDbEntity
100
AcDbLine
  8
0
 62
256
370
-1
 48
1.0
  6
BYLAYER
 10
52.0
 20
28.0
 30
0.0
 11
62.0
 21
28.0
 31
0.0
  0
LINE
  5
F9
100
AcDbEntity
100
AcDbLine
  8
0
 62
256
370
-1
 48
1.0
  6
BYLAYER
 10
62.0
 20
28.0
 30
0.0
 11
62.0
 21
63.0
 31
0.0
  0
LINE
  5
FA
100
AcDbEntity
100
AcDbLine
  8
0
 62
256
370
-1
 48
1.0
  6
BYLAYER
 10
62.0
 20
63.0
 30
0.0
 11
52.0
 21
63.0
 31
0.0
  0
LINE
  5
FB
100
AcDbEntity
100
AcDbLine
  8
0
 62
256
370
-1
 48
1.0
  6
BYLAYER
 10
52.0
 20
63.0
 30
0.0
 11
52.0
 21
28.0
 31
0.0
  0
LINE
  5
FC
100
AcDbEntity
100
AcDbLine
  8
0
 62
256
370
-1
 48
1.0
  6
BYLAYER
 10
0.0
 20
64.0
 30
0.0
 11
34.0
 21
64.0
 31
0.0
  0
LINE
  5
FD
100
AcDbEntity
100
AcDbLine
  8
0
 62
256
370
-1
 48
1.0
  6
BYLAYER
 10
34.0
 20
64.0
 30
0.0
 11
34.0
 21
54.0
 31
0.0
  0
LINE
  5
FE
100
AcDbEntity
100
AcDbLine
  8
0
 62
256
370
-1
 48
1.0
  6
BYLAYER
 10
34.0
 20
54.0
 30
0.0
 11
0.0
 21
54.0
 31
0.0
  0
LINE
  5
FF
100
AcDbEntity
100
AcDbLine
  8
0
 62
256
370
-1
 48
1.0
  6
BYLAYER
 10
0.0
 20
54.0
 30
0.0
 11
0.0
 21
64.0
 31
0.0
  0
ENDSEC
  0
SECTION
  2
OBJECTS
  0
DICTIONARY
  5
C
100
AcDbDictionary
280
0
281
1
  3
ACAD_GROUP
350
D
  3
ACAD_LAYOUT
350
1A
  3
ACAD_MLINESTYLE
350
17
  3
ACAD_PLOTSETTINGS
350
19
  3
ACAD_PLOTSTYLENAME
350
E
  3
AcDbVariableDictionary
350
100
  3
QCAD_OBJECTS
350
101
  0
DICTIONARY
  5
D
100
AcDbDictionary
280
0
281
1
  0
ACDBDICTIONARYWDFLT
  5
E
100
AcDbDictionary
281
1
  3
Normal
350
F
100
AcDbDictionaryWithDefault
340
F
  0
ACDBPLACEHOLDER
  5
F
  0
DICTIONARY
  5
17
100
AcDbDictionary
280
0
281
1
  3
Standard
350
18
  0
MLINESTYLE
  5
18
100
AcDbMlineStyle
  2
STANDARD
 70
0
  3

 62
256
 51
90.0
 52
90.0
 71
2
 49
0.5
 62
256
  6
BYLAYER
 49
-0.5
 62
256
  6
BYLAYER
  0
DICTIONARY
  5
19
100
AcDbDictionary
280
0
281
1
  0
DICTIONARY
  5
1A
100
AcDbDictionary
281
1
  3
Layout1
350
1E
  3
Layout2
350
26
  3
Model
350
22
  0
LAYOUT
  5
1E
100
AcDbPlotSettings
  1

  2
none_device
  4

  6

 40
0.0
 41
0.0
 42
0.0
 43
0.0
 44
0.0
 45
0.0
 46
0.0
 47
0.0
 48
0.0
 49
0.0
140
0.0
141
0.0
142
1.0
143
1.0
 70
688
 72
0
 73
0
 74
5
  7

 75
16
147
1.0
148
0.0
149
0.0
100
AcDbLayout
  1
Layout1
 70
1
 71
1
 10
0.0
 20
0.0
 11
420.0
 21
297.0
 12
0.0
 22
0.0
 32
0.0
 14
100000000000000000000.0
 24
100000000000000000000.0
 34
100000000000000000000.0
 15
-100000000000000000000.0
 25
-100000000000000000000.0
 35
-100000000000000000000.0
146
0.0
 13
0.0
 23
0.0
 33
0.0
 16
1.0
 26
0.0
 36
0.0
 17
0.0
 27
1.0
 37
0.0
 76
0
330
1B
  0
LAYOUT
  5
22
100
AcDbPlotSettings
  1

  2
none_device
  4

  6

 40
0.0
 41
0.0
 42
0.0
 43
0.0
 44
0.0
 45
0.0
 46
0.0
 47
0.0
 48
0.0
 49
0.0
140
0.0
141
0.0
142
1.0
143
1.0
 70
1712
 72
0
 73
0
 74
0
  7

 75
0
147
1.0
148
0.0
149
0.0
100
AcDbLayout
  1
Model
 70
1
 71
0
 10
0.0
 20
0.0
 11
12.0
 21
9.0
 12
0.0
 22
0.0
 32
0.0
 14
0.0
 24
0.0
 34
0.0
 15
0.0
 25
0.0
 35
0.0
146
0.0
 13
0.0
 23
0.0
 33
0.0
 16
1.0
 26
0.0
 36
0.0
 17
0.0
 27
1.0
 37
0.0
 76
0
330
1F
  0
LAYOUT
  5
26
100
AcDbPlotSettings
  1

  2
none_device
  4

  6

 40
0.0
 41
0.0
 42
0.0
 43
0.0
 44
0.0
 45
0.0
 46
0.0
 47
0.0
 48
0.0
 49
0.0
140
0.0
141
0.0
142
1.0
143
1.0
 70
688
 72
0
 73
0
 74
5
  7

 75
16
147
1.0
148
0.0
149
0.0
100
AcDbLayout
  1
Layout2
 70
1
 71
2
 10
0.0
 20
0.0
 11
12.0
 21
9.0
 12
0.0
 22
0.0
 32
0.0
 14
0.0
 24
0.0
 34
0.0
 15
0.0
 25
0.0
 35
0.0
146
0.0
 13
0.0
 23
0.0
 33
0.0
 16
1.0
 26
0.0
 36
0.0
 17
0.0
 27
1.0
 37
0.0
 76
0
330
23
  0
DICTIONARY
  5
100
100
AcDbDictionary
281
1
  3
DIMASSOC
350
103
  3
HIDETEXT
350
102
  0
DICTIONARYVAR
  5
102
100
DictionaryVariables
280
0
  1
2
  0
DICTIONARYVAR
  5
103
100
DictionaryVariables
280
0
  1
1
  0
DICTIONARY
  5
101
100
AcDbDictionary
281
1
  3
ColorSettings/BackgroundColor
350
104
  3
ColorSettings/ColorMode
350
105
  3
Grid/DisplayGrid00
350
106
  3
Grid/DisplayGrid01
350
107
  3
Grid/DisplayGrid02
350
108
  3
Grid/DisplayGrid03
350
109
  3
Grid/GridSpacingX00
350
10A
  3
Grid/GridSpacingX01
350
10B
  3
Grid/GridSpacingX02
350
10C
  3
Grid/GridSpacingX03
350
10D
  3
Grid/GridSpacingY00
350
10E
  3
Grid/GridSpacingY01
350
10F
  3
Grid/GridSpacingY02
350
110
  3
Grid/GridSpacingY03
350
111
  3
Grid/IsometricGrid00
350
112
  3
Grid/IsometricGrid01
350
113
  3
Grid/IsometricGrid02
350
114
  3
Grid/IsometricGrid03
350
115
  3
Grid/IsometricProjection00
350
116
  3
Grid/IsometricProjection01
350
117
  3
Grid/IsometricProjection02
350
118
  3
Grid/IsometricProjection03
350
119
  3
Grid/MetaGridSpacingX00
350
11A
  3
Grid/MetaGridSpacingX01
350
11B
  3
Grid/MetaGridSpacingX02
350
11C
  3
Grid/MetaGridSpacingX03
350
11D
  3
Grid/MetaGridSpacingY00
350
11E
  3
Grid/MetaGridSpacingY01
350
11F
  3
Grid/MetaGridSpacingY02
350
120
  3
Grid/MetaGridSpacingY03
350
121
  3
MultiPageSettings/Columns
350
122
  3
MultiPageSettings/GlueMarginsBottom
350
123
  3
MultiPageSettings/GlueMarginsLeft
350
124
  3
MultiPageSettings/GlueMarginsRight
350
125
  3
MultiPageSettings/GlueMarginsTop
350
126
  3
MultiPageSettings/PrintCropMarks
350
127
  3
MultiPageSettings/Rows
350
128
  3
PageSettings/OffsetX
350
129
  3
PageSettings/OffsetY
350
12A
  3
PageSettings/PageOrientation
350
12B
  3
PageSettings/PaperHeight
350
12C
  3
PageSettings/PaperWidth
350
12D
  3
PageSettings/Scale
350
12E
  3
PageSettings/ShowPaperBorders
350
12F
  3
QCADVersion
350
130
  3
UnitSettings/PaperUnit
350
131
  3
ViewportCenter
350
132
  3
ViewportHeight
350
133
  3
ViewportWidth
350
134
  0
XRECORD
  5
104
330
101
100
AcDbXrecord
280
1
1000
Weiss
  0
XRECORD
  5
105
330
101
100
AcDbXrecord
280
1
1000
FullColor
  0
XRECORD
  5
106
330
101
100
AcDbXrecord
280
1
290
1
  0
XRECORD
  5
107
330
101
100
AcDbXrecord
280
1
290
1
  0
XRECORD
  5
108
330
101
100
AcDbXrecord
280
1
290
1
  0
XRECORD
  5
109
330
101
100
AcDbXrecord
280
1
290
1
  0
XRECORD
  5
10A
330
101
100
AcDbXrecord
280
1
1000
auto
  0
XRECORD
  5
10B
330
101
100
AcDbXrecord
280
1
1000
auto
  0
XRECORD
  5
10C
330
101
100
AcDbXrecord
280
1
1000
auto
  0
XRECORD
  5
10D
330
101
100
AcDbXrecord
280
1
1000
auto
  0
XRECORD
  5
10E
330
101
100
AcDbXrecord
280
1
1000
auto
  0
XRECORD
  5
10F
330
101
100
AcDbXrecord
280
1
1000
auto
  0
XRECORD
  5
110
330
101
100
AcDbXrecord
280
1
1000
auto
  0
XRECORD
  5
111
330
101
100
AcDbXrecord
280
1
1000
auto
  0
XRECORD
  5
112
330
101
100
AcDbXrecord
280
1
290
0
  0
XRECORD
  5
113
330
101
100
AcDbXrecord
280
1
290
0
  0
XRECORD
  5
114
330
101
100
AcDbXrecord
280
1
290
0
  0
XRECORD
  5
115
330
101
100
AcDbXrecord
280
1
290
0
  0
XRECORD
  5
116
330
101
100
AcDbXrecord
280
1
 90
0
  0
XRECORD
  5
117
330
101
100
AcDbXrecord
280
1
 90
0
  0
XRECORD
  5
118
330
101
100
AcDbXrecord
280
1
 90
0
  0
XRECORD
  5
119
330
101
100
AcDbXrecord
280
1
 90
0
  0
XRECORD
  5
11A
330
101
100
AcDbXrecord
280
1
1000
auto
  0
XRECORD
  5
11B
330
101
100
AcDbXrecord
280
1
1000
auto
  0
XRECORD
  5
11C
330
101
100
AcDbXrecord
280
1
1000
auto
  0
XRECORD
  5
11D
330
101
100
AcDbXrecord
280
1
1000
auto
  0
XRECORD
  5
11E
330
101
100
AcDbXrecord
280
1
1000
auto
  0
XRECORD
  5
11F
330
101
100
AcDbXrecord
280
1
1000
auto
  0
XRECORD
  5
120
330
101
100
AcDbXrecord
280
1
1000
auto
  0
XRECORD
  5
121
330
101
100
AcDbXrecord
280
1
1000
auto
  0
XRECORD
  5
122
330
101
100
AcDbXrecord
280
1
 90
1
  0
XRECORD
  5
123
330
101
100
AcDbXrecord
280
1
 40
10.0
  0
XRECORD
  5
124
330
101
100
AcDbXrecord
280
1
 40
10.0
  0
XRECORD
  5
125
330
101
100
AcDbXrecord
280
1
 40
10.0
  0
XRECORD
  5
126
330
101
100
AcDbXrecord
280
1
 40
10.0
  0
XRECORD
  5
127
330
101
100
AcDbXrecord
280
1
290
0
  0
XRECORD
  5
128
330
101
100
AcDbXrecord
280
1
 90
1
  0
XRECORD
  5
129
330
101
100
AcDbXrecord
280
1
 40
0.0
  0
XRECORD
  5
12A
330
101
100
AcDbXrecord
280
1
 40
0.0
  0
XRECORD
  5
12B
330
101
100
AcDbXrecord
280
1
1000
Portrait
  0
XRECORD
  5
12C
330
101
100
AcDbXrecord
280
1
 40
297.0
  0
XRECORD
  5
12D
330
101
100
AcDbXrecord
280
1
 40
210.0
  0
XRECORD
  5
12E
330
101
100
AcDbXrecord
280
1
1000
1:1
  0
XRECORD
  5
12F
330
101
100
AcDbXrecord
280
1
290
1
  0
XRECORD
  5
130
330
101
100
AcDbXrecord
280
1
1000
3.15.4
  0
XRECORD
  5
131
330
101
100
AcDbXrecord
280
1
 90
4
  0
XRECORD
  5
133
330
101
100
AcDbXrecord
280
1
 40
99.8437165100910278
  0
XRECORD
  5
134
330
101
100
AcDbXrecord
280
1
 40
180.8561497796712274
  0
ENDSEC
  0
EOF
