<?xml version="1.0" encoding="UTF-8"?>
<!DOCTYPE svg PUBLIC "-//W3C//DTD SVG 1.1//EN" "http://www.w3.org/Graphics/SVG/1.1/DTD/svg11.dtd">
<!-- Creator: CorelDRAW 2019 (64-Bit) -->
<svg xmlns="http://www.w3.org/2000/svg" xml:space="preserve" width="105.023mm" height="148.055mm" version="1.1" style="shape-rendering:geometricPrecision; text-rendering:geometricPrecision; image-rendering:optimizeQuality; fill-rule:evenodd; clip-rule:evenodd"
viewBox="0 0 10502.34 14805.48"
 xmlns:xlink="http://www.w3.org/1999/xlink"
 xmlns:xodm="http://www.corel.com/coreldraw/odm/2003">
 <defs>
  <style type="text/css">
   <![CDATA[
    .str0 {stroke:black;stroke-width:7.62;stroke-linecap:round;stroke-linejoin:round;stroke-miterlimit:22.9256}
    .fil0 {fill:none}
   ]]>
  </style>
 </defs>
 <g id="Layer_x0020_1">
  <metadata id="CorelCorpID_0Corel-Layer"/>
  <g id="_1345958927072">
   <line class="fil0 str0" x1="3498.56" y1="2876.83" x2="3485.74" y2= "2966.53" />
   <line class="fil0 str0" x1="3485.74" y1="2966.53" x2="3447.28" y2= "3043.83" />
   <line class="fil0 str0" x1="3447.28" y1="3043.83" x2="3385.65" y2= "3105.87" />
   <line class="fil0 str0" x1="3385.65" y1="3105.87" x2="3303.41" y2= "3149.77" />
   <line class="fil0 str0" x1="3303.41" y1="3149.77" x2="3201.46" y2= "3175.95" />
   <line class="fil0 str0" x1="3201.46" y1="3175.95" x2="3080.72" y2= "3184.69" />
   <line class="fil0 str0" x1="3080.72" y1="3184.69" x2="2936.19" y2= "3171.91" />
   <line class="fil0 str0" x1="2936.19" y1="3171.91" x2="2804.4" y2= "3133.69" />
   <line class="fil0 str0" x1="2804.4" y1="3133.69" x2="2804.4" y2= "2870.11" />
   <line class="fil0 str0" x1="2804.4" y1="2870.11" x2="2867.97" y2= "2910.1" />
   <line class="fil0 str0" x1="2867.97" y1="2910.1" x2="2937.88" y2= "2941.55" />
   <line class="fil0 str0" x1="2937.88" y1="2941.55" x2="3008.46" y2= "2961.92" />
   <line class="fil0 str0" x1="3008.46" y1="2961.92" x2="3074.04" y2= "2968.72" />
   <line class="fil0 str0" x1="3074.04" y1="2968.72" x2="3116.3" y2= "2964.43" />
   <line class="fil0 str0" x1="3116.3" y1="2964.43" x2="3147.79" y2= "2951.61" />
   <line class="fil0 str0" x1="3147.79" y1="2951.61" x2="3167.41" y2= "2930.54" />
   <line class="fil0 str0" x1="3167.41" y1="2930.54" x2="3173.97" y2= "2901.65" />
   <line class="fil0 str0" x1="3173.97" y1="2901.65" x2="3160.9" y2= "2860.38" />
   <line class="fil0 str0" x1="3160.9" y1="2860.38" x2="3121.33" y2= "2827.2" />
   <line class="fil0 str0" x1="3121.33" y1="2827.2" x2="3023.05" y2= "2784.94" />
   <line class="fil0 str0" x1="3023.05" y1="2784.94" x2="2921.52" y2= "2733.46" />
   <line class="fil0 str0" x1="2921.52" y1="2733.46" x2="2849" y2= "2668.24" />
   <line class="fil0 str0" x1="2849" y1="2668.24" x2="2823.61" y2= "2630.48" />
   <line class="fil0 str0" x1="2823.61" y1="2630.48" x2="2805.51" y2= "2589.26" />
   <line class="fil0 str0" x1="2805.51" y1="2589.26" x2="2794.63" y2= "2544.61" />
   <line class="fil0 str0" x1="2794.63" y1="2544.61" x2="2791" y2= "2496.55" />
   <line class="fil0 str0" x1="2791" y1="2496.55" x2="2797.6" y2= "2430.3" />
   <line class="fil0 str0" x1="2797.6" y1="2430.3" x2="2817.47" y2= "2371.02" />
   <line class="fil0 str0" x1="2817.47" y1="2371.02" x2="2850.61" y2= "2318.79" />
   <line class="fil0 str0" x1="2850.61" y1="2318.79" x2="2896.95" y2= "2273.53" />
   <line class="fil0 str0" x1="2896.95" y1="2273.53" x2="2954.5" y2= "2237" />
   <line class="fil0 str0" x1="2954.5" y1="2237" x2="3021.03" y2= "2210.91" />
   <line class="fil0 str0" x1="3021.03" y1="2210.91" x2="3096.67" y2= "2195.24" />
   <line class="fil0 str0" x1="3096.67" y1="2195.24" x2="3181.35" y2= "2190.01" />
   <line class="fil0 str0" x1="3181.35" y1="2190.01" x2="3273.89" y2= "2194.05" />
   <line class="fil0 str0" x1="3273.89" y1="2194.05" x2="3350.69" y2= "2204.11" />
   <line class="fil0 str0" x1="3350.69" y1="2204.11" x2="3447.61" y2= "2226.9" />
   <line class="fil0 str0" x1="3447.61" y1="2226.9" x2="3447.61" y2= "2471.73" />
   <line class="fil0 str0" x1="3447.61" y1="2471.73" x2="3327.24" y2= "2421.93" />
   <line class="fil0 str0" x1="3327.24" y1="2421.93" x2="3267.79" y2= "2409.48" />
   <line class="fil0 str0" x1="3267.79" y1="2409.48" x2="3208.84" y2= "2405.32" />
   <line class="fil0 str0" x1="3208.84" y1="2405.32" x2="3165.23" y2= "2409.85" />
   <line class="fil0 str0" x1="3165.23" y1="2409.85" x2="3131.05" y2= "2423.46" />
   <line class="fil0 str0" x1="3131.05" y1="2423.46" x2="3108.92" y2= "2444.89" />
   <line class="fil0 str0" x1="3108.92" y1="2444.89" x2="3101.54" y2= "2473.05" />
   <line class="fil0 str0" x1="3101.54" y1="2473.05" x2="3107.48" y2= "2500.63" />
   <line class="fil0 str0" x1="3107.48" y1="2500.63" x2="3125.32" y2= "2523.01" />
   <line class="fil0 str0" x1="3125.32" y1="2523.01" x2="3224.92" y2= "2574.33" />
   <line class="fil0 str0" x1="3224.92" y1="2574.33" x2="3352.63" y2= "2637.53" />
   <line class="fil0 str0" x1="3352.63" y1="2637.53" x2="3400.04" y2= "2671.29" />
   <line class="fil0 str0" x1="3400.04" y1="2671.29" x2="3436.52" y2= "2706.46" />
   <line class="fil0 str0" x1="3436.52" y1="2706.46" x2="3463.69" y2= "2744.01" />
   <line class="fil0 str0" x1="3463.69" y1="2744.01" x2="3483.06" y2= "2784.94" />
   <line class="fil0 str0" x1="3483.06" y1="2784.94" x2="3494.69" y2= "2829.18" />
   <line class="fil0 str0" x1="3494.69" y1="2829.18" x2="3498.56" y2= "2876.83" />
   <line class="fil0 str0" x1="4073.34" y1="3158.51" x2="4009.65" y2= "3176.28" />
   <line class="fil0 str0" x1="4009.65" y1="3176.28" x2="3903" y2= "3184.69" />
   <line class="fil0 str0" x1="3903" y1="3184.69" x2="3846.57" y2= "3180.56" />
   <line class="fil0 str0" x1="3846.57" y1="3180.56" x2="3796.61" y2= "3168.24" />
   <line class="fil0 str0" x1="3796.61" y1="3168.24" x2="3753.16" y2= "3147.71" />
   <line class="fil0 str0" x1="3753.16" y1="3147.71" x2="3716.22" y2= "3118.94" />
   <line class="fil0 str0" x1="3716.22" y1="3118.94" x2="3686.75" y2= "3082.58" />
   <line class="fil0 str0" x1="3686.75" y1="3082.58" x2="3665.64" y2= "3039.29" />
   <line class="fil0 str0" x1="3665.64" y1="3039.29" x2="3653.02" y2= "2989.04" />
   <line class="fil0 str0" x1="3653.02" y1="2989.04" x2="3648.82" y2= "2931.82" />
   <line class="fil0 str0" x1="3648.82" y1="2931.82" x2="3648.82" y2= "2678.96" />
   <line class="fil0 str0" x1="3648.82" y1="2678.96" x2="3540.81" y2= "2678.96" />
   <line class="fil0 str0" x1="3540.81" y1="2678.96" x2="3540.81" y2= "2481.09" />
   <line class="fil0 str0" x1="3540.81" y1="2481.09" x2="3648.82" y2= "2481.09" />
   <line class="fil0 str0" x1="3648.82" y1="2481.09" x2="3648.82" y2= "2346.33" />
   <line class="fil0 str0" x1="3648.82" y1="2346.33" x2="3930.5" y2= "2268.5" />
   <line class="fil0 str0" x1="3930.5" y1="2268.5" x2="3930.5" y2= "2481.09" />
   <line class="fil0 str0" x1="3930.5" y1="2481.09" x2="4073.34" y2= "2481.09" />
   <line class="fil0 str0" x1="4073.34" y1="2481.09" x2="4073.34" y2= "2678.96" />
   <line class="fil0 str0" x1="4073.34" y1="2678.96" x2="3930.5" y2= "2678.96" />
   <line class="fil0 str0" x1="3930.5" y1="2678.96" x2="3930.5" y2= "2884.87" />
   <line class="fil0 str0" x1="3930.5" y1="2884.87" x2="3934.99" y2= "2924.48" />
   <line class="fil0 str0" x1="3934.99" y1="2924.48" x2="3948.43" y2= "2952.76" />
   <line class="fil0 str0" x1="3948.43" y1="2952.76" x2="3970.86" y2= "2969.75" />
   <line class="fil0 str0" x1="3970.86" y1="2969.75" x2="4002.27" y2= "2975.4" />
   <line class="fil0 str0" x1="4002.27" y1="2975.4" x2="4073.34" y2= "2960.64" />
   <line class="fil0 str0" x1="4073.34" y1="2960.64" x2="4073.34" y2= "3158.51" />
   <line class="fil0 str0" x1="4678.99" y1="2725.91" x2="4635.38" y2= "2712.51" />
   <line class="fil0 str0" x1="4635.38" y1="2712.51" x2="4589.78" y2= "2706.46" />
   <line class="fil0 str0" x1="4589.78" y1="2706.46" x2="4527.87" y2= "2716.68" />
   <line class="fil0 str0" x1="4527.87" y1="2716.68" x2="4483.67" y2= "2747.39" />
   <line class="fil0 str0" x1="4483.67" y1="2747.39" x2="4457.13" y2= "2798.51" />
   <line class="fil0 str0" x1="4457.13" y1="2798.51" x2="4448.26" y2= "2870.11" />
   <line class="fil0 str0" x1="4448.26" y1="2870.11" x2="4448.26" y2= "3167.91" />
   <line class="fil0 str0" x1="4448.26" y1="3167.91" x2="4162.54" y2= "3167.91" />
   <line class="fil0 str0" x1="4162.54" y1="3167.91" x2="4162.54" y2= "2481.09" />
   <line class="fil0 str0" x1="4162.54" y1="2481.09" x2="4448.26" y2= "2481.09" />
   <line class="fil0 str0" x1="4448.26" y1="2481.09" x2="4448.26" y2= "2601.83" />
   <line class="fil0 str0" x1="4448.26" y1="2601.83" x2="4450.94" y2= "2601.83" />
   <line class="fil0 str0" x1="4450.94" y1="2601.83" x2="4482.64" y2= "2544.57" />
   <line class="fil0 str0" x1="4482.64" y1="2544.57" x2="4525.39" y2= "2502.89" />
   <line class="fil0 str0" x1="4525.39" y1="2502.89" x2="4577.7" y2= "2477.5" />
   <line class="fil0 str0" x1="4577.7" y1="2477.5" x2="4638.06" y2= "2469.05" />
   <line class="fil0 str0" x1="4638.06" y1="2469.05" x2="4678.99" y2= "2477.09" />
   <line class="fil0 str0" x1="4678.99" y1="2477.09" x2="4678.99" y2= "2725.91" />
   <line class="fil0 str0" x1="5142.42" y1="3167.91" x2="5142.42" y2= "3063.28" />
   <line class="fil0 str0" x1="5142.42" y1="3063.28" x2="5139.74" y2= "3063.28" />
   <line class="fil0 str0" x1="5139.74" y1="3063.28" x2="5101.03" y2= "3116.38" />
   <line class="fil0 str0" x1="5101.03" y1="3116.38" x2="5053.22" y2= "3154.31" />
   <line class="fil0 str0" x1="5053.22" y1="3154.31" x2="4996.41" y2= "3177.06" />
   <line class="fil0 str0" x1="4996.41" y1="3177.06" x2="4930.49" y2= "3184.69" />
   <line class="fil0 str0" x1="4930.49" y1="3184.69" x2="4884.53" y2= "3181.06" />
   <line class="fil0 str0" x1="4884.53" y1="3181.06" x2="4843.8" y2= "3170.26" />
   <line class="fil0 str0" x1="4843.8" y1="3170.26" x2="4808.39" y2= "3152.2" />
   <line class="fil0 str0" x1="4808.39" y1="3152.2" x2="4778.26" y2= "3126.97" />
   <line class="fil0 str0" x1="4778.26" y1="3126.97" x2="4754.18" y2= "3095.73" />
   <line class="fil0 str0" x1="4754.18" y1="3095.73" x2="4736.99" y2= "3059.57" />
   <line class="fil0 str0" x1="4736.99" y1="3059.57" x2="4726.69" y2= "3018.6" />
   <line class="fil0 str0" x1="4726.69" y1="3018.6" x2="4723.26" y2= "2972.72" />
   <line class="fil0 str0" x1="4723.26" y1="2972.72" x2="4727.14" y2= "2924.77" />
   <line class="fil0 str0" x1="4727.14" y1="2924.77" x2="4738.81" y2= "2882.11" />
   <line class="fil0 str0" x1="4738.81" y1="2882.11" x2="4758.26" y2= "2844.76" />
   <line class="fil0 str0" x1="4758.26" y1="2844.76" x2="4785.47" y2= "2812.77" />
   <line class="fil0 str0" x1="4785.47" y1="2812.77" x2="4820.47" y2= "2786.1" />
   <line class="fil0 str0" x1="4820.47" y1="2786.1" x2="4863.22" y2= "2764.74" />
   <line class="fil0 str0" x1="4863.22" y1="2764.74" x2="4972.09" y2= "2737.99" />
   <line class="fil0 str0" x1="4972.09" y1="2737.99" x2="5142.42" y2= "2715.85" />
   <line class="fil0 str0" x1="5142.42" y1="2715.85" x2="5134.88" y2= "2685.35" />
   <line class="fil0 str0" x1="5134.88" y1="2685.35" x2="5112.25" y2= "2660.86" />
   <line class="fil0 str0" x1="5112.25" y1="2660.86" x2="5076.88" y2= "2644.74" />
   <line class="fil0 str0" x1="5076.88" y1="2644.74" x2="5031.12" y2= "2639.38" />
   <line class="fil0 str0" x1="5031.12" y1="2639.38" x2="4972.62" y2= "2643.51" />
   <line class="fil0 str0" x1="4972.62" y1="2643.51" x2="4912.56" y2= "2655.83" />
   <line class="fil0 str0" x1="4912.56" y1="2655.83" x2="4787.66" y2= "2705.14" />
   <line class="fil0 str0" x1="4787.66" y1="2705.14" x2="4787.66" y2= "2519.34" />
   <line class="fil0 str0" x1="4787.66" y1="2519.34" x2="4850.36" y2= "2497.37" />
   <line class="fil0 str0" x1="4850.36" y1="2497.37" x2="4927.15" y2= "2479.77" />
   <line class="fil0 str0" x1="4927.15" y1="2479.77" x2="5070.69" y2= "2464.35" />
   <line class="fil0 str0" x1="5070.69" y1="2464.35" x2="5152.19" y2= "2469.01" />
   <line class="fil0 str0" x1="5152.19" y1="2469.01" x2="5221.65" y2= "2483.02" />
   <line class="fil0 str0" x1="5221.65" y1="2483.02" x2="5279.12" y2= "2506.4" />
   <line class="fil0 str0" x1="5279.12" y1="2506.4" x2="5324.51" y2= "2539.13" />
   <line class="fil0 str0" x1="5324.51" y1="2539.13" x2="5359.01" y2= "2582.79" />
   <line class="fil0 str0" x1="5359.01" y1="2582.79" x2="5383.62" y2= "2638.97" />
   <line class="fil0 str0" x1="5383.62" y1="2638.97" x2="5398.42" y2= "2707.69" />
   <line class="fil0 str0" x1="5398.42" y1="2707.69" x2="5403.33" y2= "2788.94" />
   <line class="fil0 str0" x1="5403.33" y1="2788.94" x2="5403.33" y2= "3167.91" />
   <line class="fil0 str0" x1="5403.33" y1="3167.91" x2="5142.42" y2= "3167.91" />
   <line class="fil0 str0" x1="4973.41" y1="2934.5" x2="4977.86" y2= "2960.14" />
   <line class="fil0 str0" x1="4977.86" y1="2960.14" x2="4991.17" y2= "2980.8" />
   <line class="fil0 str0" x1="4991.17" y1="2980.8" x2="5012.73" y2= "2994.36" />
   <line class="fil0 str0" x1="5012.73" y1="2994.36" x2="5041.84" y2= "2998.89" />
   <line class="fil0 str0" x1="5041.84" y1="2998.89" x2="5082.48" y2= "2990.48" />
   <line class="fil0 str0" x1="5082.48" y1="2990.48" x2="5114.6" y2= "2965.34" />
   <line class="fil0 str0" x1="5114.6" y1="2965.34" x2="5135.46" y2= "2927.12" />
   <line class="fil0 str0" x1="5135.46" y1="2927.12" x2="5142.42" y2= "2879.51" />
   <line class="fil0 str0" x1="5142.42" y1="2879.51" x2="5142.42" y2= "2853.33" />
   <line class="fil0 str0" x1="5142.42" y1="2853.33" x2="5045.84" y2= "2866.77" />
   <line class="fil0 str0" x1="5045.84" y1="2866.77" x2="5014.18" y2= "2875.51" />
   <line class="fil0 str0" x1="5014.18" y1="2875.51" x2="4991.55" y2= "2889.73" />
   <line class="fil0 str0" x1="4991.55" y1="2889.73" x2="4977.94" y2= "2909.4" />
   <line class="fil0 str0" x1="4977.94" y1="2909.4" x2="4973.41" y2= "2934.5" />
   <line class="fil0 str0" x1="5834.56" y1="2295.99" x2="5823.6" y2= "2350.66" />
   <line class="fil0 str0" x1="5823.6" y1="2350.66" x2="5790.66" y2= "2393.9" />
   <line class="fil0 str0" x1="5790.66" y1="2393.9" x2="5739.79" y2= "2422.1" />
   <line class="fil0 str0" x1="5739.79" y1="2422.1" x2="5674.95" y2= "2431.5" />
   <line class="fil0 str0" x1="5674.95" y1="2431.5" x2="5611.5" y2= "2421.77" />
   <line class="fil0 str0" x1="5611.5" y1="2421.77" x2="5560.63" y2= "2392.58" />
   <line class="fil0 str0" x1="5560.63" y1="2392.58" x2="5527.16" y2= "2349.01" />
   <line class="fil0 str0" x1="5527.16" y1="2349.01" x2="5516.03" y2= "2295.99" />
   <line class="fil0 str0" x1="5516.03" y1="2295.99" x2="5526.83" y2= "2242.61" />
   <line class="fil0 str0" x1="5526.83" y1="2242.61" x2="5559.27" y2= "2200.44" />
   <line class="fil0 str0" x1="5559.27" y1="2200.44" x2="5609.81" y2= "2173.03" />
   <line class="fil0 str0" x1="5609.81" y1="2173.03" x2="5674.95" y2= "2163.87" />
   <line class="fil0 str0" x1="5674.95" y1="2163.87" x2="5739.79" y2= "2173.03" />
   <line class="fil0 str0" x1="5739.79" y1="2173.03" x2="5790.66" y2= "2200.44" />
   <line class="fil0 str0" x1="5790.66" y1="2200.44" x2="5823.6" y2= "2242.61" />
   <line class="fil0 str0" x1="5823.6" y1="2242.61" x2="5834.56" y2= "2295.99" />
   <line class="fil0 str0" x1="5532.11" y1="3167.91" x2="5532.11" y2= "2481.09" />
   <line class="fil0 str0" x1="5532.11" y1="2481.09" x2="5817.83" y2= "2481.09" />
   <line class="fil0 str0" x1="5817.83" y1="2481.09" x2="5817.83" y2= "3167.91" />
   <line class="fil0 str0" x1="5817.83" y1="3167.91" x2="5532.11" y2= "3167.91" />
   <line class="fil0 str0" x1="6699.8" y1="3071.98" x2="6692.01" y2= "3165.44" />
   <line class="fil0 str0" x1="6692.01" y1="3165.44" x2="6668.68" y2= "3247.96" />
   <line class="fil0 str0" x1="6668.68" y1="3247.96" x2="6629.8" y2= "3319.53" />
   <line class="fil0 str0" x1="6629.8" y1="3319.53" x2="6575.35" y2= "3380.17" />
   <line class="fil0 str0" x1="6575.35" y1="3380.17" x2="6506.01" y2= "3428.44" />
   <line class="fil0 str0" x1="6506.01" y1="3428.44" x2="6422.37" y2= "3462.9" />
   <line class="fil0 str0" x1="6422.37" y1="3462.9" x2="6324.42" y2= "3483.6" />
   <line class="fil0 str0" x1="6324.42" y1="3483.6" x2="6212.17" y2= "3490.48" />
   <line class="fil0 str0" x1="6212.17" y1="3490.48" x2="6087.43" y2= "3480.42" />
   <line class="fil0 str0" x1="6087.43" y1="3480.42" x2="6000.94" y2= "3457.63" />
   <line class="fil0 str0" x1="6000.94" y1="3457.63" x2="6000.94" y2= "3233.62" />
   <line class="fil0 str0" x1="6000.94" y1="3233.62" x2="6047.52" y2= "3257.78" />
   <line class="fil0 str0" x1="6047.52" y1="3257.78" x2="6101.52" y2= "3276.53" />
   <line class="fil0 str0" x1="6101.52" y1="3276.53" x2="6204.13" y2= "3292.65" />
   <line class="fil0 str0" x1="6204.13" y1="3292.65" x2="6290.49" y2= "3281.07" />
   <line class="fil0 str0" x1="6290.49" y1="3281.07" x2="6357.73" y2= "3246.36" />
   <line class="fil0 str0" x1="6357.73" y1="3246.36" x2="6382.96" y2= "3221.33" />
   <line class="fil0 str0" x1="6382.96" y1="3221.33" x2="6400.97" y2= "3192.56" />
   <line class="fil0 str0" x1="6400.97" y1="3192.56" x2="6411.81" y2= "3159.99" />
   <line class="fil0 str0" x1="6411.81" y1="3159.99" x2="6415.4" y2= "3123.63" />
   <line class="fil0 str0" x1="6415.4" y1="3123.63" x2="6415.4" y2= "3081.38" />
   <line class="fil0 str0" x1="6415.4" y1="3081.38" x2="6412.72" y2= "3081.38" />
   <line class="fil0 str0" x1="6412.72" y1="3081.38" x2="6376.07" y2= "3123.63" />
   <line class="fil0 str0" x1="6376.07" y1="3123.63" x2="6327.88" y2= "3156.49" />
   <line class="fil0 str0" x1="6327.88" y1="3156.49" x2="6271.94" y2= "3177.64" />
   <line class="fil0 str0" x1="6271.94" y1="3177.64" x2="6212.17" y2= "3184.69" />
   <line class="fil0 str0" x1="6212.17" y1="3184.69" x2="6149.26" y2= "3178.92" />
   <line class="fil0 str0" x1="6149.26" y1="3178.92" x2="6093.32" y2= "3161.6" />
   <line class="fil0 str0" x1="6093.32" y1="3161.6" x2="6044.31" y2= "3132.79" />
   <line class="fil0 str0" x1="6044.31" y1="3132.79" x2="6002.26" y2= "3092.43" />
   <line class="fil0 str0" x1="6002.26" y1="3092.43" x2="5968.5" y2= "3041.97" />
   <line class="fil0 str0" x1="5968.5" y1="3041.97" x2="5944.42" y2= "2982.69" />
   <line class="fil0 str0" x1="5944.42" y1="2982.69" x2="5929.95" y2= "2914.72" />
   <line class="fil0 str0" x1="5929.95" y1="2914.72" x2="5925.13" y2= "2837.92" />
   <line class="fil0 str0" x1="5925.13" y1="2837.92" x2="5935.19" y2= "2733.13" />
   <line class="fil0 str0" x1="5935.19" y1="2733.13" x2="5965.36" y2= "2641.4" />
   <line class="fil0 str0" x1="5965.36" y1="2641.4" x2="6013.51" y2= "2566.05" />
   <line class="fil0 str0" x1="6013.51" y1="2566.05" x2="6077.37" y2= "2510.27" />
   <line class="fil0 str0" x1="6077.37" y1="2510.27" x2="6152.85" y2= "2475.81" />
   <line class="fil0 str0" x1="6152.85" y1="2475.81" x2="6235.67" y2= "2464.35" />
   <line class="fil0 str0" x1="6235.67" y1="2464.35" x2="6291.23" y2= "2469.83" />
   <line class="fil0 str0" x1="6291.23" y1="2469.83" x2="6339.3" y2= "2486.32" />
   <line class="fil0 str0" x1="6339.3" y1="2486.32" x2="6379.78" y2= "2513.78" />
   <line class="fil0 str0" x1="6379.78" y1="2513.78" x2="6412.72" y2= "2552.2" />
   <line class="fil0 str0" x1="6412.72" y1="2552.2" x2="6415.4" y2= "2552.2" />
   <line class="fil0 str0" x1="6415.4" y1="2552.2" x2="6415.4" y2= "2481.09" />
   <line class="fil0 str0" x1="6415.4" y1="2481.09" x2="6699.8" y2= "2481.09" />
   <line class="fil0 str0" x1="6699.8" y1="2481.09" x2="6699.8" y2= "3071.98" />
   <line class="fil0 str0" x1="6420.1" y1="2805.06" x2="6413.3" y2= "2750.89" />
   <line class="fil0 str0" x1="6413.3" y1="2750.89" x2="6392.93" y2= "2709.13" />
   <line class="fil0 str0" x1="6392.93" y1="2709.13" x2="6361.31" y2= "2682.5" />
   <line class="fil0 str0" x1="6361.31" y1="2682.5" x2="6320.83" y2= "2673.6" />
   <line class="fil0 str0" x1="6320.83" y1="2673.6" x2="6277.42" y2= "2684.32" />
   <line class="fil0 str0" x1="6277.42" y1="2684.32" x2="6243.7" y2= "2716.51" />
   <line class="fil0 str0" x1="6243.7" y1="2716.51" x2="6222.1" y2= "2766.64" />
   <line class="fil0 str0" x1="6222.1" y1="2766.64" x2="6214.89" y2= "2831.2" />
   <line class="fil0 str0" x1="6214.89" y1="2831.2" x2="6220.91" y2= "2890.72" />
   <line class="fil0 str0" x1="6220.91" y1="2890.72" x2="6239" y2= "2936.52" />
   <line class="fil0 str0" x1="6239" y1="2936.52" x2="6270.21" y2= "2965.67" />
   <line class="fil0 str0" x1="6270.21" y1="2965.67" x2="6315.47" y2= "2975.4" />
   <line class="fil0 str0" x1="6315.47" y1="2975.4" x2="6359.17" y2= "2965.42" />
   <line class="fil0 str0" x1="6359.17" y1="2965.42" x2="6392.27" y2= "2935.49" />
   <line class="fil0 str0" x1="6392.27" y1="2935.49" x2="6413.13" y2= "2888.83" />
   <line class="fil0 str0" x1="6413.13" y1="2888.83" x2="6420.1" y2= "2828.52" />
   <line class="fil0 str0" x1="6420.1" y1="2828.52" x2="6420.1" y2= "2805.06" />
   <line class="fil0 str0" x1="7279.93" y1="3167.91" x2="7279.93" y2= "2776.2" />
   <line class="fil0 str0" x1="7279.93" y1="2776.2" x2="7275.03" y2= "2731.31" />
   <line class="fil0 str0" x1="7275.03" y1="2731.31" x2="7260.31" y2= "2699.24" />
   <line class="fil0 str0" x1="7260.31" y1="2699.24" x2="7235.78" y2= "2680.03" />
   <line class="fil0 str0" x1="7235.78" y1="2680.03" x2="7201.45" y2= "2673.6" />
   <line class="fil0 str0" x1="7201.45" y1="2673.6" x2="7167.77" y2= "2680.9" />
   <line class="fil0 str0" x1="7167.77" y1="2680.9" x2="7143.11" y2= "2702.79" />
   <line class="fil0 str0" x1="7143.11" y1="2702.79" x2="7128.03" y2= "2736.05" />
   <line class="fil0 str0" x1="7128.03" y1="2736.05" x2="7123" y2= "2777.57" />
   <line class="fil0 str0" x1="7123" y1="2777.57" x2="7123" y2= "3167.91" />
   <line class="fil0 str0" x1="7123" y1="3167.91" x2="6837.28" y2= "3167.91" />
   <line class="fil0 str0" x1="6837.28" y1="3167.91" x2="6837.28" y2= "2151.14" />
   <line class="fil0 str0" x1="6837.28" y1="2151.14" x2="7123" y2= "2151.14" />
   <line class="fil0 str0" x1="7123" y1="2151.14" x2="7123" y2= "2574.33" />
   <line class="fil0 str0" x1="7123" y1="2574.33" x2="7125.68" y2= "2574.33" />
   <line class="fil0 str0" x1="7125.68" y1="2574.33" x2="7166.49" y2= "2527.46" />
   <line class="fil0 str0" x1="7166.49" y1="2527.46" x2="7215.21" y2= "2492.84" />
   <line class="fil0 str0" x1="7215.21" y1="2492.84" x2="7269.79" y2= "2471.48" />
   <line class="fil0 str0" x1="7269.79" y1="2471.48" x2="7328.21" y2= "2464.35" />
   <line class="fil0 str0" x1="7328.21" y1="2464.35" x2="7380.56" y2= "2468.8" />
   <line class="fil0 str0" x1="7380.56" y1="2468.8" x2="7426.32" y2= "2482.2" />
   <line class="fil0 str0" x1="7426.32" y1="2482.2" x2="7465.4" y2= "2504.54" />
   <line class="fil0 str0" x1="7465.4" y1="2504.54" x2="7497.88" y2= "2535.79" />
   <line class="fil0 str0" x1="7497.88" y1="2535.79" x2="7523.44" y2= "2575.69" />
   <line class="fil0 str0" x1="7523.44" y1="2575.69" x2="7541.66" y2= "2624.05" />
   <line class="fil0 str0" x1="7541.66" y1="2624.05" x2="7552.59" y2= "2680.81" />
   <line class="fil0 str0" x1="7552.59" y1="2680.81" x2="7556.25" y2= "2746.03" />
   <line class="fil0 str0" x1="7556.25" y1="2746.03" x2="7556.25" y2= "3167.91" />
   <line class="fil0 str0" x1="7556.25" y1="3167.91" x2="7279.93" y2= "3167.91" />
   <line class="fil0 str0" x1="8168.59" y1="3158.51" x2="8104.85" y2= "3176.28" />
   <line class="fil0 str0" x1="8104.85" y1="3176.28" x2="7998.25" y2= "3184.69" />
   <line class="fil0 str0" x1="7998.25" y1="3184.69" x2="7941.78" y2= "3180.56" />
   <line class="fil0 str0" x1="7941.78" y1="3180.56" x2="7891.85" y2= "3168.24" />
   <line class="fil0 str0" x1="7891.85" y1="3168.24" x2="7848.4" y2= "3147.71" />
   <line class="fil0 str0" x1="7848.4" y1="3147.71" x2="7811.47" y2= "3118.94" />
   <line class="fil0 str0" x1="7811.47" y1="3118.94" x2="7781.95" y2= "3082.58" />
   <line class="fil0 str0" x1="7781.95" y1="3082.58" x2="7760.89" y2= "3039.29" />
   <line class="fil0 str0" x1="7760.89" y1="3039.29" x2="7748.23" y2= "2989.04" />
   <line class="fil0 str0" x1="7748.23" y1="2989.04" x2="7744.03" y2= "2931.82" />
   <line class="fil0 str0" x1="7744.03" y1="2931.82" x2="7744.03" y2= "2678.96" />
   <line class="fil0 str0" x1="7744.03" y1="2678.96" x2="7636.06" y2= "2678.96" />
   <line class="fil0 str0" x1="7636.06" y1="2678.96" x2="7636.06" y2= "2481.09" />
   <line class="fil0 str0" x1="7636.06" y1="2481.09" x2="7744.03" y2= "2481.09" />
   <line class="fil0 str0" x1="7744.03" y1="2481.09" x2="7744.03" y2= "2346.33" />
   <line class="fil0 str0" x1="7744.03" y1="2346.33" x2="8025.75" y2= "2268.5" />
   <line class="fil0 str0" x1="8025.75" y1="2268.5" x2="8025.75" y2= "2481.09" />
   <line class="fil0 str0" x1="8025.75" y1="2481.09" x2="8168.59" y2= "2481.09" />
   <line class="fil0 str0" x1="8168.59" y1="2481.09" x2="8168.59" y2= "2678.96" />
   <line class="fil0 str0" x1="8168.59" y1="2678.96" x2="8025.75" y2= "2678.96" />
   <line class="fil0 str0" x1="8025.75" y1="2678.96" x2="8025.75" y2= "2884.87" />
   <line class="fil0 str0" x1="8025.75" y1="2884.87" x2="8030.24" y2= "2924.48" />
   <line class="fil0 str0" x1="8030.24" y1="2924.48" x2="8043.68" y2= "2952.76" />
   <line class="fil0 str0" x1="8043.68" y1="2952.76" x2="8066.1" y2= "2969.75" />
   <line class="fil0 str0" x1="8066.1" y1="2969.75" x2="8097.52" y2= "2975.4" />
   <line class="fil0 str0" x1="8097.52" y1="2975.4" x2="8168.59" y2= "2960.64" />
   <line class="fil0 str0" x1="8168.59" y1="2960.64" x2="8168.59" y2= "3158.51" />
   <line class="fil0 str0" x1="3.81" y1="3.81" x2="10498.53" y2= "3.81" />
   <line class="fil0 str0" x1="6.29" y1="7601.68" x2="2477.62" y2= "7601.68" />
   <line class="fil0 str0" x1="8024.84" y1="7201.69" x2="10498.53" y2= "7201.69" />
   <line class="fil0 str0" x1="3077.59" y1="7601.68" x2="7424.83" y2= "7601.68" />
   <line class="fil0 str0" x1="6.29" y1="4801.67" x2="2477.62" y2= "4801.67" />
   <line class="fil0 str0" x1="5551.15" y1="4601.7" x2="9898.52" y2= "4601.7" />
   <line class="fil0 str0" x1="6.29" y1="4401.68" x2="2477.62" y2= "4401.68" />
   <line class="fil0 str0" x1="3077.59" y1="4801.67" x2="7424.83" y2= "4801.67" />
   <line class="fil0 str0" x1="8024.84" y1="4801.67" x2="10498.53" y2= "4801.67" />
   <line class="fil0 str0" x1="3077.59" y1="4401.68" x2="7424.83" y2= "4401.68" />
   <line class="fil0 str0" x1="603.82" y1="4601.7" x2="4951.15" y2= "4601.7" />
   <line class="fil0 str0" x1="5551.15" y1="5001.69" x2="9898.52" y2= "5001.69" />
   <line class="fil0 str0" x1="8024.84" y1="5201.7" x2="10498.53" y2= "5201.7" />
   <line class="fil0 str0" x1="3077.59" y1="5201.7" x2="7424.83" y2= "5201.7" />
   <line class="fil0 str0" x1="603.82" y1="5001.69" x2="4951.15" y2= "5001.69" />
   <line class="fil0 str0" x1="6.29" y1="5201.7" x2="2477.62" y2= "5201.7" />
   <line class="fil0 str0" x1="8024.84" y1="4401.68" x2="10498.53" y2= "4401.68" />
   <line class="fil0 str0" x1="3077.59" y1="5601.69" x2="7424.83" y2= "5601.69" />
   <line class="fil0 str0" x1="5551.15" y1="5401.68" x2="9898.52" y2= "5401.68" />
   <line class="fil0 str0" x1="5551.15" y1="4201.67" x2="9898.52" y2= "4201.67" />
   <line class="fil0 str0" x1="6.29" y1="5601.69" x2="2477.62" y2= "5601.69" />
   <line class="fil0 str0" x1="8024.84" y1="5601.69" x2="10498.53" y2= "5601.69" />
   <line class="fil0 str0" x1="603.82" y1="5401.68" x2="4951.15" y2= "5401.68" />
   <line class="fil0 str0" x1="603.82" y1="4201.67" x2="4951.15" y2= "4201.67" />
   <line class="fil0 str0" x1="6.29" y1="14401.68" x2="6.29" y2= "14801.67" />
   <line class="fil0 str0" x1="603.82" y1="8201.69" x2="4951.15" y2= "8201.69" />
   <line class="fil0 str0" x1="8024.84" y1="8801.69" x2="10498.53" y2= "8801.69" />
   <line class="fil0 str0" x1="6.29" y1="11201.67" x2="2477.62" y2= "11201.67" />
   <line class="fil0 str0" x1="8024.84" y1="10801.68" x2="10498.53" y2= "10801.68" />
   <line class="fil0 str0" x1="3077.59" y1="11201.67" x2="7424.83" y2= "11201.67" />
   <line class="fil0 str0" x1="6.29" y1="8401.66" x2="2477.62" y2= "8401.66" />
   <line class="fil0 str0" x1="3077.59" y1="8401.66" x2="7424.83" y2= "8401.66" />
   <line class="fil0 str0" x1="8024.84" y1="8401.66" x2="10498.53" y2= "8401.66" />
   <line class="fil0 str0" x1="5551.15" y1="8601.68" x2="9898.52" y2= "8601.68" />
   <line class="fil0 str0" x1="5551.15" y1="8201.69" x2="9898.52" y2= "8201.69" />
   <line class="fil0 str0" x1="8024.84" y1="10001.66" x2="10498.53" y2= "10001.66" />
   <line class="fil0 str0" x1="3077.59" y1="10001.66" x2="7424.83" y2= "10001.66" />
   <line class="fil0 str0" x1="603.82" y1="9001.67" x2="4951.15" y2= "9001.67" />
   <line class="fil0 str0" x1="6.29" y1="9201.68" x2="2477.62" y2= "9201.68" />
   <line class="fil0 str0" x1="8024.84" y1="10401.69" x2="10498.53" y2= "10401.69" />
   <line class="fil0 str0" x1="603.82" y1="11001.66" x2="4951.15" y2= "11001.66" />
   <line class="fil0 str0" x1="3077.59" y1="10801.68" x2="7424.83" y2= "10801.68" />
   <line class="fil0 str0" x1="3077.59" y1="9601.67" x2="7424.83" y2= "9601.67" />
   <line class="fil0 str0" x1="3077.59" y1="9201.68" x2="7424.83" y2= "9201.68" />
   <line class="fil0 str0" x1="6.29" y1="10001.66" x2="2477.62" y2= "10001.66" />
   <line class="fil0 str0" x1="5551.15" y1="11001.66" x2="9898.52" y2= "11001.66" />
   <line class="fil0 str0" x1="8024.84" y1="11601.66" x2="10498.53" y2= "11601.66" />
   <line class="fil0 str0" x1="603.82" y1="9401.7" x2="4951.15" y2= "9401.7" />
   <line class="fil0 str0" x1="603.82" y1="10201.68" x2="4951.15" y2= "10201.68" />
   <line class="fil0 str0" x1="603.82" y1="9801.69" x2="4951.15" y2= "9801.69" />
   <line class="fil0 str0" x1="5551.15" y1="10201.68" x2="9898.52" y2= "10201.68" />
   <line class="fil0 str0" x1="5551.15" y1="11401.69" x2="9898.52" y2= "11401.69" />
   <line class="fil0 str0" x1="5551.15" y1="9001.67" x2="9898.52" y2= "9001.67" />
   <line class="fil0 str0" x1="3077.59" y1="10401.69" x2="7424.83" y2= "10401.69" />
   <line class="fil0 str0" x1="6.29" y1="10401.69" x2="2477.62" y2= "10401.69" />
   <line class="fil0 str0" x1="6.29" y1="9601.67" x2="2477.62" y2= "9601.67" />
   <line class="fil0 str0" x1="5551.15" y1="9401.7" x2="9898.52" y2= "9401.7" />
   <line class="fil0 str0" x1="8024.84" y1="9601.67" x2="10498.53" y2= "9601.67" />
   <line class="fil0 str0" x1="5551.15" y1="9801.69" x2="9898.52" y2= "9801.69" />
   <line class="fil0 str0" x1="603.82" y1="8601.68" x2="4951.15" y2= "8601.68" />
   <line class="fil0 str0" x1="3077.59" y1="8801.69" x2="7424.83" y2= "8801.69" />
   <line class="fil0 str0" x1="6.29" y1="8801.69" x2="2477.62" y2= "8801.69" />
   <line class="fil0 str0" x1="8024.84" y1="9201.68" x2="10498.53" y2= "9201.68" />
   <line class="fil0 str0" x1="3077.59" y1="12801.68" x2="7424.83" y2= "12801.68" />
   <line class="fil0 str0" x1="603.82" y1="11401.69" x2="4951.15" y2= "11401.69" />
   <line class="fil0 str0" x1="6.29" y1="12801.68" x2="2477.62" y2= "12801.68" />
   <line class="fil0 str0" x1="6.29" y1="11601.66" x2="2477.62" y2= "11601.66" />
   <line class="fil0 str0" x1="603.82" y1="14601.69" x2="4951.15" y2= "14601.69" />
   <line class="fil0 str0" x1="5551.15" y1="14601.69" x2="9898.52" y2= "14601.69" />
   <line class="fil0 str0" x1="3077.59" y1="14401.68" x2="7424.83" y2= "14401.68" />
   <line class="fil0 str0" x1="3077.59" y1="12001.69" x2="7424.83" y2= "12001.69" />
   <line class="fil0 str0" x1="603.82" y1="13001.69" x2="4951.15" y2= "13001.69" />
   <line class="fil0 str0" x1="603.82" y1="13801.67" x2="4951.15" y2= "13801.67" />
   <line class="fil0 str0" x1="3077.59" y1="14801.67" x2="7424.83" y2= "14801.67" />
   <line class="fil0 str0" x1="603.82" y1="13401.68" x2="4951.15" y2= "13401.68" />
   <line class="fil0 str0" x1="603.82" y1="11801.68" x2="4951.15" y2= "11801.68" />
   <line class="fil0 str0" x1="5551.15" y1="12201.67" x2="9898.52" y2= "12201.67" />
   <line class="fil0 str0" x1="8024.84" y1="13601.66" x2="10498.53" y2= "13601.66" />
   <line class="fil0 str0" x1="8024.84" y1="14401.68" x2="10498.53" y2= "14401.68" />
   <line class="fil0 str0" x1="8024.84" y1="12401.68" x2="10498.53" y2= "12401.68" />
   <line class="fil0 str0" x1="6.29" y1="14801.67" x2="2477.62" y2= "14801.67" />
   <line class="fil0 str0" x1="3077.59" y1="13601.66" x2="7424.83" y2= "13601.66" />
   <line class="fil0 str0" x1="603.82" y1="10601.67" x2="4951.15" y2= "10601.67" />
   <line class="fil0 str0" x1="8024.84" y1="12001.69" x2="10498.53" y2= "12001.69" />
   <line class="fil0 str0" x1="603.82" y1="12601.66" x2="4951.15" y2= "12601.66" />
   <line class="fil0 str0" x1="8024.84" y1="11201.67" x2="10498.53" y2= "11201.67" />
   <line class="fil0 str0" x1="8024.84" y1="14001.69" x2="10498.53" y2= "14001.69" />
   <line class="fil0 str0" x1="5551.15" y1="10601.67" x2="9898.52" y2= "10601.67" />
   <line class="fil0 str0" x1="3077.59" y1="13201.67" x2="7424.83" y2= "13201.67" />
   <line class="fil0 str0" x1="6.29" y1="12001.69" x2="2477.62" y2= "12001.69" />
   <line class="fil0 str0" x1="3077.59" y1="11601.66" x2="7424.83" y2= "11601.66" />
   <line class="fil0 str0" x1="5551.15" y1="11801.68" x2="9898.52" y2= "11801.68" />
   <line class="fil0 str0" x1="6.29" y1="10801.68" x2="2477.62" y2= "10801.68" />
   <line class="fil0 str0" x1="6.29" y1="13601.66" x2="2477.62" y2= "13601.66" />
   <line class="fil0 str0" x1="6.29" y1="5601.69" x2="6.29" y2= "6001.68" />
   <line class="fil0 str0" x1="5551.15" y1="13801.67" x2="9898.52" y2= "13801.67" />
   <line class="fil0 str0" x1="3077.59" y1="12401.68" x2="7424.83" y2= "12401.68" />
   <line class="fil0 str0" x1="8024.84" y1="12801.68" x2="10498.53" y2= "12801.68" />
   <line class="fil0 str0" x1="5551.15" y1="14201.66" x2="9898.52" y2= "14201.66" />
   <line class="fil0 str0" x1="6.29" y1="4801.67" x2="6.29" y2= "5201.7" />
   <line class="fil0 str0" x1="6.29" y1="5201.7" x2="6.29" y2= "5601.69" />
   <line class="fil0 str0" x1="5551.15" y1="13401.68" x2="9898.52" y2= "13401.68" />
   <line class="fil0 str0" x1="3077.59" y1="14001.69" x2="7424.83" y2= "14001.69" />
   <line class="fil0 str0" x1="6.29" y1="14001.69" x2="2477.62" y2= "14001.69" />
   <line class="fil0 str0" x1="6.29" y1="13201.67" x2="2477.62" y2= "13201.67" />
   <line class="fil0 str0" x1="5551.15" y1="12601.66" x2="9898.52" y2= "12601.66" />
   <line class="fil0 str0" x1="603.82" y1="12201.67" x2="4951.15" y2= "12201.67" />
   <line class="fil0 str0" x1="6.29" y1="12401.68" x2="2477.62" y2= "12401.68" />
   <line class="fil0 str0" x1="603.82" y1="14201.66" x2="4951.15" y2= "14201.66" />
   <line class="fil0 str0" x1="8024.84" y1="14801.67" x2="10498.53" y2= "14801.67" />
   <line class="fil0 str0" x1="6.29" y1="14401.68" x2="2477.62" y2= "14401.68" />
   <line class="fil0 str0" x1="3.81" y1="3.81" x2="6.29" y2= "4401.68" />
   <line class="fil0 str0" x1="5551.15" y1="13001.69" x2="9898.52" y2= "13001.69" />
   <line class="fil0 str0" x1="8024.84" y1="13201.67" x2="10498.53" y2= "13201.67" />
   <line class="fil0 str0" x1="6.29" y1="4401.68" x2="6.29" y2= "4801.67" />
   <line class="fil0 str0" x1="6.29" y1="10001.66" x2="6.29" y2= "10401.69" />
   <line class="fil0 str0" x1="6.29" y1="6801.66" x2="6.29" y2= "7201.69" />
   <line class="fil0 str0" x1="6.29" y1="6401.67" x2="6.29" y2= "6801.66" />
   <line class="fil0 str0" x1="6.29" y1="6001.68" x2="6.29" y2= "6401.67" />
   <line class="fil0 str0" x1="6.29" y1="7201.69" x2="6.29" y2= "7601.68" />
   <line class="fil0 str0" x1="6.29" y1="11601.66" x2="6.29" y2= "12001.69" />
   <line class="fil0 str0" x1="6.29" y1="7601.68" x2="6.29" y2= "8001.67" />
   <line class="fil0 str0" x1="6.29" y1="11201.67" x2="6.29" y2= "11601.66" />
   <line class="fil0 str0" x1="6.29" y1="8401.66" x2="6.29" y2= "8801.69" />
   <line class="fil0 str0" x1="6.29" y1="8801.69" x2="6.29" y2= "9201.68" />
   <line class="fil0 str0" x1="6.29" y1="12801.68" x2="6.29" y2= "13201.67" />
   <line class="fil0 str0" x1="6.29" y1="12001.69" x2="6.29" y2= "12401.68" />
   <line class="fil0 str0" x1="6.29" y1="8001.67" x2="6.29" y2= "8401.66" />
   <line class="fil0 str0" x1="6.29" y1="9201.68" x2="6.29" y2= "9601.67" />
   <line class="fil0 str0" x1="6.29" y1="9601.67" x2="6.29" y2= "10001.66" />
   <line class="fil0 str0" x1="6.29" y1="13601.66" x2="6.29" y2= "14001.69" />
   <line class="fil0 str0" x1="6.29" y1="13201.67" x2="6.29" y2= "13601.66" />
   <line class="fil0 str0" x1="6.29" y1="12401.68" x2="6.29" y2= "12801.68" />
   <line class="fil0 str0" x1="6.29" y1="10401.69" x2="6.29" y2= "10801.68" />
   <line class="fil0 str0" x1="6.29" y1="14001.69" x2="6.29" y2= "14401.68" />
   <line class="fil0 str0" x1="6.29" y1="10801.68" x2="6.29" y2= "11201.67" />
   <line class="fil0 str0" x1="603.82" y1="5801.67" x2="4951.15" y2= "5801.67" />
   <line class="fil0 str0" x1="8024.84" y1="6401.67" x2="10498.53" y2= "6401.67" />
   <line class="fil0 str0" x1="3077.59" y1="6801.66" x2="7424.83" y2= "6801.66" />
   <line class="fil0 str0" x1="5551.15" y1="6601.69" x2="9898.52" y2= "6601.69" />
   <line class="fil0 str0" x1="8024.84" y1="6801.66" x2="10498.53" y2= "6801.66" />
   <line class="fil0 str0" x1="603.82" y1="6601.69" x2="4951.15" y2= "6601.69" />
   <line class="fil0 str0" x1="6.29" y1="6001.68" x2="2477.62" y2= "6001.68" />
   <line class="fil0 str0" x1="6.29" y1="6801.66" x2="2477.62" y2= "6801.66" />
   <line class="fil0 str0" x1="603.82" y1="6201.7" x2="4951.15" y2= "6201.7" />
   <line class="fil0 str0" x1="5551.15" y1="5801.67" x2="9898.52" y2= "5801.67" />
   <line class="fil0 str0" x1="3077.59" y1="6001.68" x2="7424.83" y2= "6001.68" />
   <line class="fil0 str0" x1="5551.15" y1="6201.7" x2="9898.52" y2= "6201.7" />
   <line class="fil0 str0" x1="6.29" y1="6401.67" x2="2477.62" y2= "6401.67" />
   <line class="fil0 str0" x1="3077.59" y1="6401.67" x2="7424.83" y2= "6401.67" />
   <line class="fil0 str0" x1="8024.84" y1="6001.68" x2="10498.53" y2= "6001.68" />
   <line class="fil0 str0" x1="603.82" y1="7401.67" x2="4951.15" y2= "7401.67" />
   <line class="fil0 str0" x1="3077.59" y1="7201.69" x2="7424.83" y2= "7201.69" />
   <line class="fil0 str0" x1="5551.15" y1="7401.67" x2="9898.52" y2= "7401.67" />
   <line class="fil0 str0" x1="8024.84" y1="8001.67" x2="10498.53" y2= "8001.67" />
   <line class="fil0 str0" x1="5551.15" y1="7801.7" x2="9898.52" y2= "7801.7" />
   <line class="fil0 str0" x1="5551.15" y1="7001.68" x2="9898.52" y2= "7001.68" />
   <line class="fil0 str0" x1="603.82" y1="7001.68" x2="4951.15" y2= "7001.68" />
   <line class="fil0 str0" x1="8024.84" y1="7601.68" x2="10498.53" y2= "7601.68" />
   <line class="fil0 str0" x1="3077.59" y1="8001.67" x2="7424.83" y2= "8001.67" />
   <line class="fil0 str0" x1="603.82" y1="7801.7" x2="4951.15" y2= "7801.7" />
   <line class="fil0 str0" x1="6.29" y1="7201.69" x2="2477.62" y2= "7201.69" />
   <line class="fil0 str0" x1="6.29" y1="8001.67" x2="2477.62" y2= "8001.67" />
   <line class="fil0 str0" x1="10498.53" y1="6801.66" x2="10498.53" y2= "7201.69" />
   <line class="fil0 str0" x1="10498.53" y1="7201.69" x2="10498.53" y2= "7601.68" />
   <line class="fil0 str0" x1="10498.53" y1="7601.68" x2="10498.53" y2= "8001.67" />
   <line class="fil0 str0" x1="10498.53" y1="6001.68" x2="10498.53" y2= "6401.67" />
   <line class="fil0 str0" x1="10498.53" y1="12801.68" x2="10498.53" y2= "13201.67" />
   <line class="fil0 str0" x1="10498.53" y1="8001.67" x2="10498.53" y2= "8401.66" />
   <line class="fil0 str0" x1="10498.53" y1="5601.69" x2="10498.53" y2= "6001.68" />
   <line class="fil0 str0" x1="10498.53" y1="8401.66" x2="10498.53" y2= "8801.69" />
   <line class="fil0 str0" x1="10498.53" y1="6401.67" x2="10498.53" y2= "6801.66" />
   <line class="fil0 str0" x1="10498.53" y1="8801.69" x2="10498.53" y2= "9201.68" />
   <line class="fil0 str0" x1="10498.53" y1="4401.68" x2="10498.53" y2= "4801.67" />
   <line class="fil0 str0" x1="10498.53" y1="14401.68" x2="10498.53" y2= "14801.67" />
   <line class="fil0 str0" x1="10498.53" y1="14001.69" x2="10498.53" y2= "14401.68" />
   <line class="fil0 str0" x1="10498.53" y1="5201.7" x2="10498.53" y2= "5601.69" />
   <line class="fil0 str0" x1="10498.53" y1="4801.67" x2="10498.53" y2= "5201.7" />
   <line class="fil0 str0" x1="10498.53" y1="10401.69" x2="10498.53" y2= "10801.68" />
   <line class="fil0 str0" x1="10498.53" y1="13201.67" x2="10498.53" y2= "13601.66" />
   <line class="fil0 str0" x1="7424.83" y1="14801.67" x2="8024.84" y2= "14801.67" />
   <line class="fil0 str0" x1="10498.53" y1="12401.68" x2="10498.53" y2= "12801.68" />
   <line class="fil0 str0" x1="10498.53" y1="12001.69" x2="10498.53" y2= "12401.68" />
   <line class="fil0 str0" x1="10498.53" y1="10001.66" x2="10498.53" y2= "10401.69" />
   <line class="fil0 str0" x1="10498.53" y1="9601.67" x2="10498.53" y2= "10001.66" />
   <line class="fil0 str0" x1="10498.53" y1="9201.68" x2="10498.53" y2= "9601.67" />
   <line class="fil0 str0" x1="10498.53" y1="10801.68" x2="10498.53" y2= "11201.67" />
   <line class="fil0 str0" x1="10498.53" y1="13601.66" x2="10498.53" y2= "14001.69" />
   <line class="fil0 str0" x1="10498.53" y1="3.81" x2="10498.53" y2= "4401.68" />
   <line class="fil0 str0" x1="10498.53" y1="11601.66" x2="10498.53" y2= "12001.69" />
   <line class="fil0 str0" x1="10498.53" y1="11201.67" x2="10498.53" y2= "11601.66" />
   <line class="fil0 str0" x1="2477.62" y1="14801.67" x2="3077.59" y2= "14801.67" />
   <line class="fil0 str0" x1="894.32" y1="2835.4" x2="1937.64" y2= "2835.4" />
   <line class="fil0 str0" x1="894.32" y1="2435.41" x2="1937.64" y2= "2435.41" />
   <line class="fil0 str0" x1="300.58" y1="2635.39" x2="1343.94" y2= "2635.39" />
   <line class="fil0 str0" x1="1487.98" y1="2635.39" x2="2531.34" y2= "2635.39" />
   <line class="fil0 str0" x1="661.37" y1="511.73" x2="624.43" y2= "532.79" />
   <line class="fil0 str0" x1="741.79" y1="484.81" x2="700.69" y2= "495.61" />
   <line class="fil0 str0" x1="1049.11" y1="590.63" x2="1019.18" y2= "560.41" />
   <line class="fil0 str0" x1="826.51" y1="479.61" x2="784" y2= "479.45" />
   <line class="fil0 str0" x1="624.43" y1="532.79" x2="590.63" y2= "558.56" />
   <line class="fil0 str0" x1="496.55" y1="698.01" x2="485.34" y2= "739.03" />
   <line class="fil0 str0" x1="784" y1="479.45" x2="741.79" y2= "484.81" />
   <line class="fil0 str0" x1="534.4" y1="622.08" x2="512.96" y2= "658.81" />
   <line class="fil0 str0" x1="700.69" y1="495.61" x2="661.37" y2= "511.73" />
   <line class="fil0 str0" x1="1122.86" y1="741.79" x2="1112.02" y2= "700.69" />
   <line class="fil0 str0" x1="1074.84" y1="624.43" x2="1049.11" y2= "590.63" />
   <line class="fil0 str0" x1="1095.94" y1="661.37" x2="1074.84" y2= "624.43" />
   <line class="fil0 str0" x1="560.41" y1="588.48" x2="534.4" y2= "622.08" />
   <line class="fil0 str0" x1="590.63" y1="558.56" x2="560.41" y2= "588.48" />
   <line class="fil0 str0" x1="511.72" y1="946.3" x2="532.83" y2= "983.2" />
   <line class="fil0 str0" x1="868.64" y1="485.34" x2="826.51" y2= "479.61" />
   <line class="fil0 str0" x1="1019.18" y1="560.41" x2="985.59" y2= "534.4" />
   <line class="fil0 str0" x1="909.65" y1="496.51" x2="868.64" y2= "485.34" />
   <line class="fil0 str0" x1="823.66" y1="1128.22" x2="865.83" y2= "1122.86" />
   <line class="fil0 str0" x1="985.59" y1="534.4" x2="948.86" y2= "512.96" />
   <line class="fil0 str0" x1="512.96" y1="658.81" x2="496.55" y2= "698.01" />
   <line class="fil0 str0" x1="1128.05" y1="826.51" x2="1128.22" y2= "783.96" />
   <line class="fil0 str0" x1="781.16" y1="1128.01" x2="823.66" y2= "1128.22" />
   <line class="fil0 str0" x1="1047.26" y1="1019.18" x2="1073.27" y2= "985.55" />
   <line class="fil0 str0" x1="658.81" y1="1094.66" x2="698.01" y2= "1111.11" />
   <line class="fil0 str0" x1="1112.02" y1="700.69" x2="1095.94" y2= "661.37" />
   <line class="fil0 str0" x1="532.83" y1="983.2" x2="558.55" y2= "1017.04" />
   <line class="fil0 str0" x1="948.86" y1="512.96" x2="909.65" y2= "496.51" />
   <line class="fil0 str0" x1="739.03" y1="1122.28" x2="781.16" y2= "1128.01" />
   <line class="fil0 str0" x1="479.61" y1="781.16" x2="479.45" y2= "823.66" />
   <line class="fil0 str0" x1="1017.04" y1="1049.11" x2="1047.26" y2= "1019.18" />
   <line class="fil0 str0" x1="1073.27" y1="985.55" x2="1094.66" y2= "948.86" />
   <line class="fil0 str0" x1="484.81" y1="865.83" x2="495.61" y2= "906.93" />
   <line class="fil0 str0" x1="1094.66" y1="948.86" x2="1111.11" y2= "909.61" />
   <line class="fil0 str0" x1="588.48" y1="1047.26" x2="622.08" y2= "1073.27" />
   <line class="fil0 str0" x1="558.55" y1="1017.04" x2="588.48" y2= "1047.26" />
   <line class="fil0 str0" x1="1128.22" y1="783.96" x2="1122.86" y2= "741.79" />
   <line class="fil0 str0" x1="1111.11" y1="909.61" x2="1122.28" y2= "868.64" />
   <line class="fil0 str0" x1="983.2" y1="1074.84" x2="1017.04" y2= "1049.11" />
   <line class="fil0 str0" x1="485.34" y1="739.03" x2="479.61" y2= "781.16" />
   <line class="fil0 str0" x1="865.83" y1="1122.86" x2="906.93" y2= "1112.02" />
   <line class="fil0 str0" x1="1122.28" y1="868.64" x2="1128.05" y2= "826.51" />
   <line class="fil0 str0" x1="946.3" y1="1095.94" x2="983.2" y2= "1074.84" />
   <line class="fil0 str0" x1="495.61" y1="906.93" x2="511.72" y2= "946.3" />
   <line class="fil0 str0" x1="906.93" y1="1112.02" x2="946.3" y2= "1095.94" />
   <line class="fil0 str0" x1="479.45" y1="823.66" x2="484.81" y2= "865.83" />
   <line class="fil0 str0" x1="622.08" y1="1073.27" x2="658.81" y2= "1094.66" />
   <line class="fil0 str0" x1="698.01" y1="1111.11" x2="739.03" y2= "1122.28" />
  </g>
 </g>
</svg>
