<?xml version="1.0" encoding="UTF-8"?>
<!DOCTYPE svg PUBLIC "-//W3C//DTD SVG 1.1//EN" "http://www.w3.org/Graphics/SVG/1.1/DTD/svg11.dtd">
<!-- Creator: CorelDRAW 2019 (64-Bit) -->
<svg xmlns="http://www.w3.org/2000/svg" xml:space="preserve" width="105.023mm" height="147.001mm" version="1.1" style="shape-rendering:geometricPrecision; text-rendering:geometricPrecision; image-rendering:optimizeQuality; fill-rule:evenodd; clip-rule:evenodd"
viewBox="0 0 10502.3 14700.13"
 xmlns:xlink="http://www.w3.org/1999/xlink"
 xmlns:xodm="http://www.corel.com/coreldraw/odm/2003">
 <defs>
  <style type="text/css">
   <![CDATA[
    .str0 {stroke:black;stroke-width:7.62;stroke-miterlimit:22.9256}
    .fil0 {fill:none}
   ]]>
  </style>
 </defs>
 <g id="Layer_x0020_1">
  <metadata id="CorelCorpID_0Corel-Layer"/>
  <path class="fil0 str0" d="M1128.19 783.96l-0.18 42.51 -5.74 42.13 -11.18 41.01 -16.44 39.21 -21.42 36.72 -26.02 33.62 -30.19 29.93 -33.84 25.73 -36.91 21.09 -39.35 16.1 -41.11 10.82 -42.17 5.37 -42.51 -0.19 -42.13 -5.73 -41.01 -11.18 -39.21 -16.44 -36.72 -21.42 -33.61 -26.02 -29.93 -30.19 -25.74 -33.84 -21.09 -36.91 -16.1 -39.35 -10.82 -41.11 -5.37 -42.17 0.19 -42.51 5.73 -42.13 11.18 -41.01 16.44 -39.21 21.42 -36.72 26.03 -33.62 30.19 -29.92 33.84 -25.74 36.9 -21.09 39.35 -16.1 41.11 -10.82 42.17 -5.37 42.52 0.19 42.12 5.73 41.02 11.18 39.2 16.44 36.72 21.42 33.62 26.02 29.93 30.2 25.73 33.83 21.09 36.91 16.1 39.35 10.83 41.11 5.36 42.17zm-468.38 1951.47l916.94 -139.8 916.94 139.8 -916.94 139.79 -916.94 -139.79zm5494.26 -97.98l54.32 -37.81 63.72 -23.4 70.42 -7.79 50.85 4.4 44.56 13.2 38.27 22.01 31.98 30.81 25.24 39.11 18.02 46.91 10.82 54.7 3.6 62.5 0 429.91 -285.04 0 0 -395.7 -4.44 -43.35 -13.33 -30.77 -23.39 -18.36 -34.63 -6.12 -35.21 7.47 -26.49 22.38 -16.6 35.63 -5.54 47.2 0 381.62 -285.71 0 0 -389 -4.49 -46.07 -13.45 -32.9 -22.43 -19.75 -31.39 -6.58 -38.23 7.63 -27.5 22.89 -16.6 37.14 -5.53 50.39 0 376.25 -285.72 0 0 -686.78 285.72 0 0 108.65 2.68 0 51.31 -58.69 79.47 -48.29 46.11 -13.83 49.8 -4.61 67.32 7.21 55.75 21.63 45.86 37.22 37.64 53.99 42.26 -51.05zm511.07 287.12l12.24 -102.11 36.72 -87.69 59.36 -71.09 80.15 -52.32 97.42 -32.19 111.16 -10.73 113.93 11.23 97.67 33.7 79.14 53.66 58.35 71.09 35.96 84.51 11.99 93.9 -6.56 82.2 -19.68 72.89 -32.8 63.59 -45.92 54.29 -57.7 43.42 -68.14 31.02 -78.56 18.62 -89.02 6.2 -88.38 -6.06 -78.03 -18.17 -67.68 -30.28 -57.32 -42.4 -45.63 -53.05 -32.59 -62.23 -19.56 -71.41 -6.52 -80.59zm900.73 347.43l0 -686.78 285.72 0 0 107.31 2.68 0 40.07 -52.4 51.81 -39.15 60.2 -24.4 65.22 -8.13 52.82 4.44 45.77 13.33 38.74 22.22 31.69 31.1 24.65 39.99 17.6 48.88 10.56 57.76 3.53 66.65 0 419.18 -285.72 0 0 -374.91 -4.78 -54.75 -14.33 -36.8 -25.07 -20.88 -36.97 -6.96 -32.87 7.21 -24.81 21.63 -15.6 32.87 -5.19 40.91 0 391.68 -285.72 0zm1620.77 929.65l1311.84 0 0 -4197.85 -10494.68 0 0 4197.85 1311.83 0 -983.87 150 -327.96 -50 0 241.93 327.96 -50 1311.83 200 -1311.83 200 -327.96 -50 0 241.93 327.96 -50 1311.83 200 -1311.83 200 -327.96 -50 0 241.92 327.96 -49.99 1311.83 199.99 -1311.83 200 -327.96 -50 0 241.93 327.96 -50 1311.83 200 -1311.83 200 -327.96 -50 0 241.93 327.96 -50 1311.83 200 -1311.83 200 -327.96 -50 0 241.93 327.96 -50 1311.83 200 -1311.83 200 -327.96 -50 0 241.93 327.96 -50 1311.83 200 -1311.83 200 -327.96 -50 0 241.93 327.96 -50 1311.83 200 -1311.83 200 -327.96 -50 0 241.93 327.96 -50 1311.83 200 -1311.83 200 -327.96 -50 0 241.92 327.96 -50 1311.83 200 -1311.83 200 -327.96 -50 0 241.93 327.96 -50 1311.83 200 -1311.83 200 -327.96 -50 0 241.93 327.96 -50 1311.83 200 -1311.83 200 -327.96 -50 0 241.93 327.96 -50 1311.83 200 -1311.83 200 -327.96 -50 0 241.93 327.96 -50 1311.83 200 -1311.83 200 -327.96 -50 0 241.93 327.96 -50 1311.83 200 -1311.83 200 -327.96 -50 0 241.93 327.96 -50 1311.83 200 -1311.83 200 -327.96 -50.01 0 241.92 327.96 -49.99 1311.83 200 -1311.83 200 -327.96 -50.01 0 241.93 327.96 -50 1311.83 200 -1311.83 200 -327.96 -50 0 241.93 327.96 -50 1311.83 200 -1311.83 200 -327.96 -50 0 98.01 669.01 0 1298.74 -198.01 1298.74 198.01 682.1 0 1298.74 -198.01 1298.74 198.01 682.1 0 1298.73 -198.01 1298.75 198.01 669.01 0 0 -98.01 -327.96 50 -1311.84 -200 1311.84 -200 327.96 50 0 -241.93 -327.96 50 -1311.84 -200 1311.84 -200 327.96 50 0 -241.93 -327.96 50.01 -1311.84 -200 1311.84 -200 327.96 49.99 0 -241.92 -327.96 50.01 -1311.84 -200 1311.84 -200 327.96 50 0 -241.93 -327.96 50 -1311.84 -200 1311.84 -200 327.96 50 0 -241.93 -327.96 50 -1311.84 -200 1311.84 -200 327.96 50 0 -241.93 -327.96 50 -1311.84 -200 1311.84 -200 327.96 50 0 -241.93 -327.96 50 -1311.84 -200 1311.84 -200 327.96 50 0 -241.93 -327.96 50 -1311.84 -200 1311.84 -200 327.96 50 0 -241.93 -327.96 50 -1311.84 -200 1311.84 -200 327.96 50 0 -241.92 -327.96 50 -1311.84 -200 1311.84 -200 327.96 50 0 -241.93 -327.96 50 -1311.84 -200 1311.84 -200 327.96 50 0 -241.93 -327.96 50 -1311.84 -200 1311.84 -200 327.96 50 0 -241.93 -327.96 50 -1311.84 -200 1311.84 -200 327.96 50 0 -241.93 -327.96 50 -1311.84 -200 1311.84 -200 327.96 50 0 -241.93 -327.96 50 -1311.84 -200 1311.84 -200 327.96 50 0 -241.93 -327.96 50 -1311.84 -200 1311.84 -199.99 327.96 49.99 0 -241.92 -327.96 50 -1311.84 -200 1311.84 -200 327.96 50 0 -241.93 -327.96 50 -1311.84 -200 1311.84 -200 327.96 50 0 -241.93 -327.96 50 -983.88 -150zm-4912.59 -1924.53l65.14 -9.14 64.8 9.14 50.89 27.41 32.95 42.17 10.98 53.4 -10.98 54.67 -32.95 43.26 -50.89 28.16 -64.8 9.39 -63.47 -9.72 -50.88 -29.18 -33.45 -43.59 -11.15 -52.99 10.81 -53.4 32.44 -42.17 50.56 -27.41zm371.64 346.32l62.71 -21.96 76.8 -17.61 143.53 -15.42 81.51 4.67 69.48 14.02 57.44 23.37 45.42 32.72 34.47 43.66 24.63 56.19 14.78 68.72 4.93 81.26 0 378.94 -260.9 0 0 -104.63 -2.68 0 -38.74 53.12 -47.78 37.93 -56.84 22.76 -65.9 7.59 -45.98 -3.6 -40.71 -10.82 -35.42 -18.02 -30.14 -25.24 -24.06 -31.27 -17.18 -36.13 -10.31 -41 -3.44 -45.86 3.89 -47.97 11.66 -42.66 19.44 -37.32 27.21 -32.01 35 -26.68 42.76 -21.36 108.86 -26.74 170.36 -22.13 -7.55 -30.52 -22.63 -24.48 -35.38 -16.1 -45.77 -5.36 -58.48 4.11 -60.07 12.32 -124.92 49.3 0 -185.79zm1261.36 1578.21l1967.75 0 -983.87 150 -983.88 -150zm-2726.81 -929.65l0 -961.77 398.38 0 119.15 7.33 103.26 21.97 87.38 36.63 71.49 51.28 55.61 65.92 39.72 80.58 23.83 95.23 7.94 109.87 -3.84 70.99 -11.5 66.76 -19.18 62.52 -26.85 58.29 -33.97 52.96 -40.56 46.55 -47.14 40.14 -53.71 33.72 -59.19 26.7 -63.55 19.07 -67.91 11.45 -72.27 3.81 -407.09 0zm-552.77 929.65l1967.74 0 -983.87 150 -983.87 -150zm5777.94 -1364.09l29.68 -90.71 47.62 -75.12 63.71 -56.33 76.13 -35.21 84.84 -11.74 78.13 12.07 62.38 32.53 33.87 40.58 2.68 0 0 -398.39 285.71 0 0 1016.76 -285.71 0 0 -79.81 -2.68 0 -39.41 40.16 -49.79 30.6 -54.67 19.36 -53.99 6.46 -82.66 -10.81 -72.27 -32.45 -58.6 -51.89 -41.66 -69.17 -24.9 -84.84 -8.3 -98.93 9.89 -103.12zm-4209.08 434.44l0 -686.78 285.72 0 0 686.78 -285.72 0zm3022.56 1129.65l1311.83 -200 1311.84 200 -1311.84 200 -1311.83 -200zm-5247.33 -200l1311.84 200 -1311.84 200 -1311.84 -200 1311.84 -200zm327.97 491.92l1311.83 -200 1311.83 200 -1311.83 200 -1311.83 -200zm-327.97 50l1311.84 200 -1311.84 200 -1311.84 -200 1311.84 -200zm327.97 491.93l1311.83 -200 1311.83 200 -1311.83 200 -1311.83 -200zm-327.97 50l1311.84 200 -1311.84 199.99 -1311.84 -199.99 1311.84 -200zm327.97 491.91l1311.83 -199.99 1311.83 199.99 -1311.83 200 -1311.83 -200zm-327.97 50l1311.84 200 -1311.84 200 -1311.84 -200 1311.84 -200zm327.97 491.93l1311.83 -200 1311.83 200 -1311.83 200 -1311.83 -200zm-327.97 50l1311.84 200 -1311.84 200 -1311.84 -200 1311.84 -200zm327.97 491.92l1311.83 -200 1311.83 200 -1311.83 200 -1311.83 -200zm-327.97 50l1311.84 200 -1311.84 200 -1311.84 -200 1311.84 -200zm327.97 491.93l1311.83 -200 1311.83 200 -1311.83 200 -1311.83 -200zm-327.97 49.99l1311.84 200 -1311.84 200 -1311.84 -200 1311.84 -200zm327.97 491.93l1311.83 -200 1311.83 200 -1311.83 200 -1311.83 -200zm-327.97 50l1311.84 200 -1311.84 200 -1311.84 -200 1311.84 -200zm327.97 491.93l1311.83 -200 1311.83 200 -1311.83 200 -1311.83 -200zm-327.97 49.99l1311.84 200 -1311.84 200 -1311.84 -200 1311.84 -200zm327.97 491.93l1311.83 -200 1311.83 200 -1311.83 200 -1311.83 -200zm-327.97 50l1311.84 200 -1311.84 199.99 -1311.84 -199.99 1311.84 -200zm327.97 491.92l1311.83 -200 1311.83 200 -1311.83 200 -1311.83 -200zm-327.97 49.99l1311.84 200 -1311.84 200 -1311.84 -200 1311.84 -200zm327.97 491.93l1311.83 -200 1311.83 200 -1311.83 200 -1311.83 -200zm-327.97 50l1311.84 200 -1311.84 200 -1311.84 -200 1311.84 -200zm327.97 491.93l1311.83 -200 1311.83 200 -1311.83 200 -1311.83 -200zm-327.97 49.99l1311.84 200 -1311.84 200 -1311.84 -200 1311.84 -200zm327.97 491.93l1311.83 -200 1311.83 200 -1311.83 200 -1311.83 -200zm-327.97 50l1311.84 200 -1311.84 200 -1311.84 -200 1311.84 -200zm327.97 491.93l1311.83 -200 1311.83 200 -1311.83 200 -1311.83 -200zm-327.97 49.99l1311.84 200 -1311.84 200 -1311.84 -200 1311.84 -200zm327.97 491.93l1311.83 -200 1311.83 200 -1311.83 200 -1311.83 -200zm-327.97 50l1311.84 200 -1311.84 200 -1311.84 -200 1311.84 -200zm327.97 491.92l1311.83 -200 1311.83 200 -1311.83 200 -1311.83 -200zm-327.97 49.99l1311.84 200 -1311.84 199.99 -1311.84 -199.99 1311.84 -200zm327.97 491.93l1311.83 -200 1311.83 200 -1311.83 200 -1311.83 -200zm-327.97 49.99l1311.84 200 -1311.84 200 -1311.84 -200 1311.84 -200zm327.97 491.92l1311.83 -200 1311.83 200 -1311.83 200 -1311.83 -200zm-327.97 50l1311.84 200 -1311.84 200 -1311.84 -200 1311.84 -200zm1967.75 -1425.77l1311.83 -200 1311.83 200 -1311.83 200 -1311.83 -200zm0 541.92l1311.83 -200 1311.83 200 -1311.83 199.99 -1311.83 -199.99zm0 541.93l1311.83 -200 1311.83 200 -1311.83 200 -1311.83 -200zm0 541.93l1311.83 -200 1311.83 200 -1311.83 200 -1311.83 -200zm-1639.79 291.93l1311.83 -200 1311.83 200 -1311.83 200 -1311.83 -200zm1639.79 -10046.65l1311.83 -200 1311.83 200 -1311.83 200 -1311.83 -200zm0 541.93l1311.83 -200 1311.83 200 -1311.83 200 -1311.83 -200zm0 541.94l1311.83 -200 1311.83 200 -1311.83 199.99 -1311.83 -199.99zm0 541.92l1311.83 -200 1311.83 200 -1311.83 200 -1311.83 -200zm0 541.94l1311.83 -200 1311.83 200 -1311.83 200 -1311.83 -200zm0 541.93l1311.83 -200 1311.83 200 -1311.83 200 -1311.83 -200zm0 541.94l1311.83 -200 1311.83 200 -1311.83 200 -1311.83 -200zm0 541.93l1311.83 -200 1311.83 200 -1311.83 200 -1311.83 -200zm1311.83 341.93l1311.83 200 -1311.83 200 -1311.83 -200 1311.83 -200zm327.95 491.93l1311.84 -200 1311.82 200 -1311.82 200 -1311.84 -200zm-327.95 50l1311.83 200 -1311.83 199.99 -1311.83 -199.99 1311.83 -200zm327.95 491.92l1311.84 -200 1311.82 200 -1311.82 200 -1311.84 -200zm-327.95 49.99l1311.83 200 -1311.83 200 -1311.83 -200 1311.83 -200zm327.95 491.93l1311.84 -200 1311.82 200 -1311.82 200 -1311.84 -200zm-327.95 50l1311.83 200 -1311.83 200 -1311.83 -200 1311.83 -200zm327.95 491.93l1311.84 -200 1311.82 200 -1311.82 200 -1311.84 -200zm-327.95 49.99l1311.83 200 -1311.83 200 -1311.83 -200 1311.83 -200zm327.95 491.93l1311.84 -200 1311.82 200 -1311.82 200 -1311.84 -200zm-327.95 50l1311.83 200 -1311.83 200 -1311.83 -200 1311.83 -200zm327.95 491.93l1311.84 -200 1311.82 200 -1311.82 200 -1311.84 -200zm0 541.93l1311.84 -200 1311.82 200 -1311.82 200 -1311.84 -200zm0 541.93l1311.84 -200 1311.82 200 -1311.82 200 -1311.84 -200zm1311.84 341.93l1311.82 200 -1311.82 200 -1311.84 -200 1311.84 -200zm0 541.92l1311.82 200 -1311.82 200 -1311.84 -200 1311.84 -200zm327.96 450l1311.83 -200 1311.84 200 -1311.84 200 -1311.83 -200zm-1967.74 -2367.7l1311.83 200 -1311.83 200 -1311.83 -200 1311.83 -200zm327.95 2659.64l1311.84 -200 1311.82 200 -1311.82 200 -1311.84 -200zm0 -7587l1311.84 -200 1311.82 200 -1311.82 200 -1311.84 -200zm0 541.94l1311.84 -200 1311.82 200 -1311.82 200 -1311.84 -200zm0 541.93l1311.84 -200 1311.82 200 -1311.82 200 -1311.84 -200zm0 541.94l1311.84 -200 1311.82 200 -1311.82 200 -1311.84 -200zm1639.8 1333.85l1311.83 -200 1311.84 200 -1311.84 200 -1311.83 -200zm0 541.93l1311.83 -200 1311.84 200 -1311.84 200 -1311.83 -200zm0 541.93l1311.83 -200 1311.84 200 -1311.84 200 -1311.83 -200zm0 541.94l1311.83 -200 1311.84 200 -1311.84 200 -1311.83 -200zm0 541.93l1311.83 -200 1311.84 200 -1311.84 200 -1311.83 -200zm1311.83 341.94l1311.84 200 -1311.84 200 -1311.83 -200 1311.83 -200zm0 541.92l1311.84 200 -1311.84 199.99 -1311.83 -199.99 1311.83 -200zm0 541.93l1311.84 200 -1311.84 200 -1311.83 -200 1311.83 -200zm-2951.64 -8720.86l1311.84 -200 1311.82 200 -1311.82 200 -1311.84 -200zm0 541.94l1311.84 -200 1311.82 200 -1311.82 200 -1311.84 -200zm0 541.92l1311.84 -199.99 1311.82 199.99 -1311.82 200 -1311.84 -200zm0 541.94l1311.84 -200 1311.82 200 -1311.82 200 -1311.84 -200zm1639.8 791.93l1311.83 -200 1311.84 200 -1311.84 200 -1311.83 -200zm0 541.94l1311.83 -200 1311.84 200 -1311.84 200 -1311.83 -200zm0 541.93l1311.83 -200 1311.84 200 -1311.84 200 -1311.83 -200zm1311.83 341.93l1311.84 200 -1311.84 200 -1311.83 -200 1311.83 -200zm0 541.94l1311.84 200 -1311.84 199.99 -1311.83 -199.99 1311.83 -200zm-1311.83 -4135.44l1311.83 -200 1311.84 200 -1311.84 200 -1311.83 -200zm0 541.94l1311.83 -200 1311.84 200 -1311.84 199.99 -1311.83 -199.99zm0 541.92l1311.83 -200 1311.84 200 -1311.84 200 -1311.83 -200zm1311.83 341.94l1311.84 200 -1311.84 200 -1311.83 -200 1311.83 -200z"/>
 </g>
</svg>
