<?xml version="1.0" encoding="UTF-8"?>
<!DOCTYPE svg PUBLIC "-//W3C//DTD SVG 1.1//EN" "http://www.w3.org/Graphics/SVG/1.1/DTD/svg11.dtd">
<!-- Creator: CorelDRAW X7 -->
<svg xmlns="http://www.w3.org/2000/svg" xml:space="preserve" width="210mm" height="297mm" version="1.1" style="shape-rendering:geometricPrecision; text-rendering:geometricPrecision; image-rendering:optimizeQuality; fill-rule:evenodd; clip-rule:evenodd"
viewBox="0 0 21000 29700"
 xmlns:xlink="http://www.w3.org/1999/xlink">
 <defs>
  <style type="text/css">
   <![CDATA[
    .str2 {stroke:lime;stroke-width:9;stroke-linejoin:bevel}
    .str1 {stroke:aqua;stroke-width:9;stroke-linejoin:bevel}
    .str0 {stroke:red;stroke-width:9;stroke-linejoin:bevel}
    .fil0 {fill:none}
   ]]>
  </style>
 </defs>
 <g id="_0">
  <metadata id="CorelCorpID_0Corel-Layer"/>
  <path class="fil0 str0" d="M1600 23750c0,0 0,400 0,400 0,0 -400,0 -400,0 0,0 0,-800 0,-800 0,0 1600,0 1600,0 0,0 0,-800 0,-800 0,0 -400,0 -400,0 0,0 0,400 0,400"/>
  <path class="fil0 str0" d="M2400 23750c0,0 400,0 400,0 0,0 0,400 0,400 0,0 -800,0 -800,0 0,0 0,-1600 0,-1600 0,0 -800,0 -800,0 0,0 0,400 0,400 0,0 400,0 400,0"/>
  <path class="fil0 str0" d="M1600 21750c0,0 0,400 0,400 0,0 -400,0 -400,0 0,0 0,-800 0,-800 0,0 1600,0 1600,0 0,0 0,-800 0,-800 0,0 -400,0 -400,0 0,0 0,400 0,400"/>
  <path class="fil0 str0" d="M2400 21750c0,0 400,0 400,0 0,0 0,400 0,400 0,0 -800,0 -800,0 0,0 0,-1600 0,-1600 0,0 -800,0 -800,0 0,0 0,400 0,400 0,0 400,0 400,0"/>
  <path class="fil0 str0" d="M1600 19750c0,0 0,400 0,400 0,0 -400,0 -400,0 0,0 0,-800 0,-800 0,0 1600,0 1600,0 0,0 0,-800 0,-800 0,0 -400,0 -400,0 0,0 0,400 0,400"/>
  <path class="fil0 str0" d="M2400 19750c0,0 400,0 400,0 0,0 0,400 0,400 0,0 -800,0 -800,0 0,0 0,-1600 0,-1600 0,0 -800,0 -800,0 0,0 0,400 0,400 0,0 400,0 400,0"/>
  <path class="fil0 str0" d="M1600 17750c0,0 0,400 0,400 0,0 -400,0 -400,0 0,0 0,-800 0,-800 0,0 1600,0 1600,0 0,0 0,-800 0,-800 0,0 -400,0 -400,0 0,0 0,400 0,400"/>
  <path class="fil0 str0" d="M2400 17750c0,0 400,0 400,0 0,0 0,400 0,400 0,0 -800,0 -800,0 0,0 0,-1600 0,-1600 0,0 -800,0 -800,0 0,0 0,400 0,400 0,0 400,0 400,0"/>
  <path class="fil0 str0" d="M1600 15750c0,0 0,400 0,400 0,0 -400,0 -400,0 0,0 0,-800 0,-800 0,0 1600,0 1600,0 0,0 0,-800 0,-800 0,0 -400,0 -400,0 0,0 0,400 0,400"/>
  <path class="fil0 str0" d="M2400 15750c0,0 400,0 400,0 0,0 0,400 0,400 0,0 -800,0 -800,0 0,0 0,-1600 0,-1600 0,0 -800,0 -800,0 0,0 0,400 0,400 0,0 400,0 400,0"/>
  <path class="fil0 str0" d="M1600 13750c0,0 0,400 0,400 0,0 -400,0 -400,0 0,0 0,-800 0,-800 0,0 1600,0 1600,0 0,0 0,-800 0,-800 0,0 -400,0 -400,0 0,0 0,400 0,400"/>
  <path class="fil0 str0" d="M2400 13750c0,0 400,0 400,0 0,0 0,400 0,400 0,0 -800,0 -800,0 0,0 0,-1600 0,-1600 0,0 -800,0 -800,0 0,0 0,400 0,400 0,0 400,0 400,0"/>
  <path class="fil0 str0" d="M1600 11750c0,0 0,400 0,400 0,0 -400,0 -400,0 0,0 0,-800 0,-800 0,0 1600,0 1600,0 0,0 0,-800 0,-800 0,0 -400,0 -400,0 0,0 0,400 0,400"/>
  <path class="fil0 str0" d="M2400 11750c0,0 400,0 400,0 0,0 0,400 0,400 0,0 -800,0 -800,0 0,0 0,-1600 0,-1600 0,0 -800,0 -800,0 0,0 0,400 0,400 0,0 400,0 400,0"/>
  <path class="fil0 str0" d="M1600 9750c0,0 0,400 0,400 0,0 -400,0 -400,0 0,0 0,-800 0,-800 0,0 1600,0 1600,0 0,0 0,-800 0,-800 0,0 -400,0 -400,0 0,0 0,400 0,400"/>
  <path class="fil0 str0" d="M2400 9750c0,0 400,0 400,0 0,0 0,400 0,400 0,0 -800,0 -800,0 0,0 0,-1600 0,-1600 0,0 -800,0 -800,0 0,0 0,400 0,400 0,0 400,0 400,0"/>
  <path class="fil0 str0" d="M1600 7750c0,0 0,400 0,400 0,0 -400,0 -400,0 0,0 0,-800 0,-800 0,0 1600,0 1600,0 0,0 0,-800 0,-800 0,0 -400,0 -400,0 0,0 0,400 0,400"/>
  <path class="fil0 str0" d="M2400 7750c0,0 400,0 400,0 0,0 0,400 0,400 0,0 -800,0 -800,0 0,0 0,-1600 0,-1600 0,0 -800,0 -800,0 0,0 0,400 0,400 0,0 400,0 400,0"/>
  <path class="fil0 str0" d="M1600 5750c0,0 0,400 0,400 0,0 -400,0 -400,0 0,0 0,-800 0,-800 0,0 1600,0 1600,0"/>
  <path class="fil0 str0" d="M2400 5750c0,0 400,0 400,0 0,0 0,400 0,400 0,0 -800,0 -800,0 0,0 0,-800 0,-800"/>
  <path class="fil0 str0" d="M3600 23750c0,0 0,400 0,400 0,0 -400,0 -400,0 0,0 0,-800 0,-800 0,0 1600,0 1600,0 0,0 0,-800 0,-800 0,0 -400,0 -400,0 0,0 0,400 0,400"/>
  <path class="fil0 str0" d="M4400 23750c0,0 400,0 400,0 0,0 0,400 0,400 0,0 -800,0 -800,0 0,0 0,-1600 0,-1600 0,0 -800,0 -800,0 0,0 0,400 0,400 0,0 400,0 400,0"/>
  <path class="fil0 str0" d="M3600 21750c0,0 0,400 0,400 0,0 -400,0 -400,0 0,0 0,-800 0,-800 0,0 1600,0 1600,0 0,0 0,-800 0,-800 0,0 -400,0 -400,0 0,0 0,400 0,400"/>
  <path class="fil0 str0" d="M4400 21750c0,0 400,0 400,0 0,0 0,400 0,400 0,0 -800,0 -800,0 0,0 0,-1600 0,-1600 0,0 -800,0 -800,0 0,0 0,400 0,400 0,0 400,0 400,0"/>
  <path class="fil0 str0" d="M3600 19750c0,0 0,400 0,400 0,0 -400,0 -400,0 0,0 0,-800 0,-800 0,0 1600,0 1600,0 0,0 0,-800 0,-800 0,0 -400,0 -400,0 0,0 0,400 0,400"/>
  <path class="fil0 str0" d="M4400 19750c0,0 400,0 400,0 0,0 0,400 0,400 0,0 -800,0 -800,0 0,0 0,-1600 0,-1600 0,0 -800,0 -800,0 0,0 0,400 0,400 0,0 400,0 400,0"/>
  <path class="fil0 str0" d="M3600 17750c0,0 0,400 0,400 0,0 -400,0 -400,0 0,0 0,-800 0,-800 0,0 1600,0 1600,0 0,0 0,-800 0,-800 0,0 -400,0 -400,0 0,0 0,400 0,400"/>
  <path class="fil0 str0" d="M4400 17750c0,0 400,0 400,0 0,0 0,400 0,400 0,0 -800,0 -800,0 0,0 0,-1600 0,-1600 0,0 -800,0 -800,0 0,0 0,400 0,400 0,0 400,0 400,0"/>
  <path class="fil0 str0" d="M3600 15750c0,0 0,400 0,400 0,0 -400,0 -400,0 0,0 0,-800 0,-800 0,0 1600,0 1600,0 0,0 0,-800 0,-800 0,0 -400,0 -400,0 0,0 0,400 0,400"/>
  <path class="fil0 str0" d="M4400 15750c0,0 400,0 400,0 0,0 0,400 0,400 0,0 -800,0 -800,0 0,0 0,-1600 0,-1600 0,0 -800,0 -800,0 0,0 0,400 0,400 0,0 400,0 400,0"/>
  <path class="fil0 str0" d="M3600 13750c0,0 0,400 0,400 0,0 -400,0 -400,0 0,0 0,-800 0,-800 0,0 1600,0 1600,0 0,0 0,-800 0,-800 0,0 -400,0 -400,0 0,0 0,400 0,400"/>
  <path class="fil0 str0" d="M4400 13750c0,0 400,0 400,0 0,0 0,400 0,400 0,0 -800,0 -800,0 0,0 0,-1600 0,-1600 0,0 -800,0 -800,0 0,0 0,400 0,400 0,0 400,0 400,0"/>
  <path class="fil0 str0" d="M3600 11750c0,0 0,400 0,400 0,0 -400,0 -400,0 0,0 0,-800 0,-800 0,0 1600,0 1600,0 0,0 0,-800 0,-800 0,0 -400,0 -400,0 0,0 0,400 0,400"/>
  <path class="fil0 str0" d="M4400 11750c0,0 400,0 400,0 0,0 0,400 0,400 0,0 -800,0 -800,0 0,0 0,-1600 0,-1600 0,0 -800,0 -800,0 0,0 0,400 0,400 0,0 400,0 400,0"/>
  <path class="fil0 str0" d="M3600 9750c0,0 0,400 0,400 0,0 -400,0 -400,0 0,0 0,-800 0,-800 0,0 1600,0 1600,0 0,0 0,-800 0,-800 0,0 -400,0 -400,0 0,0 0,400 0,400"/>
  <path class="fil0 str0" d="M4400 9750c0,0 400,0 400,0 0,0 0,400 0,400 0,0 -800,0 -800,0 0,0 0,-1600 0,-1600 0,0 -800,0 -800,0 0,0 0,400 0,400 0,0 400,0 400,0"/>
  <path class="fil0 str0" d="M3600 7750c0,0 0,400 0,400 0,0 -400,0 -400,0 0,0 0,-800 0,-800 0,0 1600,0 1600,0 0,0 0,-800 0,-800 0,0 -400,0 -400,0 0,0 0,400 0,400"/>
  <path class="fil0 str0" d="M4400 7750c0,0 400,0 400,0 0,0 0,400 0,400 0,0 -800,0 -800,0 0,0 0,-1600 0,-1600 0,0 -800,0 -800,0 0,0 0,400 0,400 0,0 400,0 400,0"/>
  <path class="fil0 str0" d="M3600 5750c0,0 0,400 0,400 0,0 -400,0 -400,0 0,0 0,-800 0,-800 0,0 1600,0 1600,0"/>
  <path class="fil0 str0" d="M4400 5750c0,0 400,0 400,0 0,0 0,400 0,400 0,0 -800,0 -800,0 0,0 0,-800 0,-800"/>
  <path class="fil0 str0" d="M5600 23750c0,0 0,400 0,400 0,0 -400,0 -400,0 0,0 0,-800 0,-800 0,0 1600,0 1600,0 0,0 0,-800 0,-800 0,0 -400,0 -400,0 0,0 0,400 0,400"/>
  <path class="fil0 str0" d="M6400 23750c0,0 400,0 400,0 0,0 0,400 0,400 0,0 -800,0 -800,0 0,0 0,-1600 0,-1600 0,0 -800,0 -800,0 0,0 0,400 0,400 0,0 400,0 400,0"/>
  <path class="fil0 str0" d="M5600 21750c0,0 0,400 0,400 0,0 -400,0 -400,0 0,0 0,-800 0,-800 0,0 1600,0 1600,0 0,0 0,-800 0,-800 0,0 -400,0 -400,0 0,0 0,400 0,400"/>
  <path class="fil0 str0" d="M6400 21750c0,0 400,0 400,0 0,0 0,400 0,400 0,0 -800,0 -800,0 0,0 0,-1600 0,-1600 0,0 -800,0 -800,0 0,0 0,400 0,400 0,0 400,0 400,0"/>
  <path class="fil0 str0" d="M5600 19750c0,0 0,400 0,400 0,0 -400,0 -400,0 0,0 0,-800 0,-800 0,0 1600,0 1600,0 0,0 0,-800 0,-800 0,0 -400,0 -400,0 0,0 0,400 0,400"/>
  <path class="fil0 str0" d="M6400 19750c0,0 400,0 400,0 0,0 0,400 0,400 0,0 -800,0 -800,0 0,0 0,-1600 0,-1600 0,0 -800,0 -800,0 0,0 0,400 0,400 0,0 400,0 400,0"/>
  <path class="fil0 str0" d="M5600 17750c0,0 0,400 0,400 0,0 -400,0 -400,0 0,0 0,-800 0,-800 0,0 1600,0 1600,0 0,0 0,-800 0,-800 0,0 -400,0 -400,0 0,0 0,400 0,400"/>
  <path class="fil0 str0" d="M6400 17750c0,0 400,0 400,0 0,0 0,400 0,400 0,0 -800,0 -800,0 0,0 0,-1600 0,-1600 0,0 -800,0 -800,0 0,0 0,400 0,400 0,0 400,0 400,0"/>
  <path class="fil0 str0" d="M5600 15750c0,0 0,400 0,400 0,0 -400,0 -400,0 0,0 0,-800 0,-800 0,0 1600,0 1600,0 0,0 0,-800 0,-800 0,0 -400,0 -400,0 0,0 0,400 0,400"/>
  <path class="fil0 str0" d="M6400 15750c0,0 400,0 400,0 0,0 0,400 0,400 0,0 -800,0 -800,0 0,0 0,-1600 0,-1600 0,0 -800,0 -800,0 0,0 0,400 0,400 0,0 400,0 400,0"/>
  <path class="fil0 str0" d="M5600 13750c0,0 0,400 0,400 0,0 -400,0 -400,0 0,0 0,-800 0,-800 0,0 1600,0 1600,0 0,0 0,-800 0,-800 0,0 -400,0 -400,0 0,0 0,400 0,400"/>
  <path class="fil0 str0" d="M6400 13750c0,0 400,0 400,0 0,0 0,400 0,400 0,0 -800,0 -800,0 0,0 0,-1600 0,-1600 0,0 -800,0 -800,0 0,0 0,400 0,400 0,0 400,0 400,0"/>
  <path class="fil0 str0" d="M5600 11750c0,0 0,400 0,400 0,0 -400,0 -400,0 0,0 0,-800 0,-800 0,0 1600,0 1600,0 0,0 0,-800 0,-800 0,0 -400,0 -400,0 0,0 0,400 0,400"/>
  <path class="fil0 str0" d="M6400 11750c0,0 400,0 400,0 0,0 0,400 0,400 0,0 -800,0 -800,0 0,0 0,-1600 0,-1600 0,0 -800,0 -800,0 0,0 0,400 0,400 0,0 400,0 400,0"/>
  <path class="fil0 str0" d="M5600 9750c0,0 0,400 0,400 0,0 -400,0 -400,0 0,0 0,-800 0,-800 0,0 1600,0 1600,0 0,0 0,-800 0,-800 0,0 -400,0 -400,0 0,0 0,400 0,400"/>
  <path class="fil0 str0" d="M6400 9750c0,0 400,0 400,0 0,0 0,400 0,400 0,0 -800,0 -800,0 0,0 0,-1600 0,-1600 0,0 -800,0 -800,0 0,0 0,400 0,400 0,0 400,0 400,0"/>
  <path class="fil0 str0" d="M5600 7750c0,0 0,400 0,400 0,0 -400,0 -400,0 0,0 0,-800 0,-800 0,0 1600,0 1600,0 0,0 0,-800 0,-800 0,0 -400,0 -400,0 0,0 0,400 0,400"/>
  <path class="fil0 str0" d="M6400 7750c0,0 400,0 400,0 0,0 0,400 0,400 0,0 -800,0 -800,0 0,0 0,-1600 0,-1600 0,0 -800,0 -800,0 0,0 0,400 0,400 0,0 400,0 400,0"/>
  <path class="fil0 str0" d="M5600 5750c0,0 0,400 0,400 0,0 -400,0 -400,0 0,0 0,-800 0,-800 0,0 1600,0 1600,0"/>
  <path class="fil0 str0" d="M6400 5750c0,0 400,0 400,0 0,0 0,400 0,400 0,0 -800,0 -800,0 0,0 0,-800 0,-800"/>
  <path class="fil0 str0" d="M7600 23750c0,0 0,400 0,400 0,0 -400,0 -400,0 0,0 0,-800 0,-800 0,0 1600,0 1600,0 0,0 0,-800 0,-800 0,0 -400,0 -400,0 0,0 0,400 0,400"/>
  <path class="fil0 str0" d="M8400 23750c0,0 400,0 400,0 0,0 0,400 0,400 0,0 -800,0 -800,0 0,0 0,-1600 0,-1600 0,0 -800,0 -800,0 0,0 0,400 0,400 0,0 400,0 400,0"/>
  <path class="fil0 str0" d="M7600 21750c0,0 0,400 0,400 0,0 -400,0 -400,0 0,0 0,-800 0,-800 0,0 1600,0 1600,0 0,0 0,-800 0,-800 0,0 -400,0 -400,0 0,0 0,400 0,400"/>
  <path class="fil0 str0" d="M8400 21750c0,0 400,0 400,0 0,0 0,400 0,400 0,0 -800,0 -800,0 0,0 0,-1600 0,-1600 0,0 -800,0 -800,0 0,0 0,400 0,400 0,0 400,0 400,0"/>
  <path class="fil0 str0" d="M7600 19750c0,0 0,400 0,400 0,0 -400,0 -400,0 0,0 0,-800 0,-800 0,0 1600,0 1600,0 0,0 0,-800 0,-800 0,0 -400,0 -400,0 0,0 0,400 0,400"/>
  <path class="fil0 str0" d="M8400 19750c0,0 400,0 400,0 0,0 0,400 0,400 0,0 -800,0 -800,0 0,0 0,-1600 0,-1600 0,0 -800,0 -800,0 0,0 0,400 0,400 0,0 400,0 400,0"/>
  <path class="fil0 str0" d="M7600 17750c0,0 0,400 0,400 0,0 -400,0 -400,0 0,0 0,-800 0,-800 0,0 1600,0 1600,0 0,0 0,-800 0,-800 0,0 -400,0 -400,0 0,0 0,400 0,400"/>
  <path class="fil0 str0" d="M8400 17750c0,0 400,0 400,0 0,0 0,400 0,400 0,0 -800,0 -800,0 0,0 0,-1600 0,-1600 0,0 -800,0 -800,0 0,0 0,400 0,400 0,0 400,0 400,0"/>
  <path class="fil0 str0" d="M7600 15750c0,0 0,400 0,400 0,0 -400,0 -400,0 0,0 0,-800 0,-800 0,0 1600,0 1600,0 0,0 0,-800 0,-800 0,0 -400,0 -400,0 0,0 0,400 0,400"/>
  <path class="fil0 str0" d="M8400 15750c0,0 400,0 400,0 0,0 0,400 0,400 0,0 -800,0 -800,0 0,0 0,-1600 0,-1600 0,0 -800,0 -800,0 0,0 0,400 0,400 0,0 400,0 400,0"/>
  <path class="fil0 str0" d="M7600 13750c0,0 0,400 0,400 0,0 -400,0 -400,0 0,0 0,-800 0,-800 0,0 1600,0 1600,0 0,0 0,-800 0,-800 0,0 -400,0 -400,0 0,0 0,400 0,400"/>
  <path class="fil0 str0" d="M8400 13750c0,0 400,0 400,0 0,0 0,400 0,400 0,0 -800,0 -800,0 0,0 0,-1600 0,-1600 0,0 -800,0 -800,0 0,0 0,400 0,400 0,0 400,0 400,0"/>
  <path class="fil0 str0" d="M7600 11750c0,0 0,400 0,400 0,0 -400,0 -400,0 0,0 0,-800 0,-800 0,0 1600,0 1600,0 0,0 0,-800 0,-800 0,0 -400,0 -400,0 0,0 0,400 0,400"/>
  <path class="fil0 str0" d="M8400 11750c0,0 400,0 400,0 0,0 0,400 0,400 0,0 -800,0 -800,0 0,0 0,-1600 0,-1600 0,0 -800,0 -800,0 0,0 0,400 0,400 0,0 400,0 400,0"/>
  <path class="fil0 str0" d="M7600 9750c0,0 0,400 0,400 0,0 -400,0 -400,0 0,0 0,-800 0,-800 0,0 1600,0 1600,0 0,0 0,-800 0,-800 0,0 -400,0 -400,0 0,0 0,400 0,400"/>
  <path class="fil0 str0" d="M8400 9750c0,0 400,0 400,0 0,0 0,400 0,400 0,0 -800,0 -800,0 0,0 0,-1600 0,-1600 0,0 -800,0 -800,0 0,0 0,400 0,400 0,0 400,0 400,0"/>
  <path class="fil0 str0" d="M7600 7750c0,0 0,400 0,400 0,0 -400,0 -400,0 0,0 0,-800 0,-800 0,0 1600,0 1600,0 0,0 0,-800 0,-800 0,0 -400,0 -400,0 0,0 0,400 0,400"/>
  <path class="fil0 str0" d="M8400 7750c0,0 400,0 400,0 0,0 0,400 0,400 0,0 -800,0 -800,0 0,0 0,-1600 0,-1600 0,0 -800,0 -800,0 0,0 0,400 0,400 0,0 400,0 400,0"/>
  <path class="fil0 str0" d="M7600 5750c0,0 0,400 0,400 0,0 -400,0 -400,0 0,0 0,-800 0,-800 0,0 1600,0 1600,0"/>
  <path class="fil0 str0" d="M8400 5750c0,0 400,0 400,0 0,0 0,400 0,400 0,0 -800,0 -800,0 0,0 0,-800 0,-800"/>
  <path class="fil0 str0" d="M9600 23750c0,0 0,400 0,400 0,0 -400,0 -400,0 0,0 0,-800 0,-800 0,0 1600,0 1600,0 0,0 0,-800 0,-800 0,0 -400,0 -400,0 0,0 0,400 0,400"/>
  <path class="fil0 str0" d="M10400 23750c0,0 400,0 400,0 0,0 0,400 0,400 0,0 -800,0 -800,0 0,0 0,-1600 0,-1600 0,0 -800,0 -800,0 0,0 0,400 0,400 0,0 400,0 400,0"/>
  <path class="fil0 str0" d="M9600 21750c0,0 0,400 0,400 0,0 -400,0 -400,0 0,0 0,-800 0,-800 0,0 1600,0 1600,0 0,0 0,-800 0,-800 0,0 -400,0 -400,0 0,0 0,400 0,400"/>
  <path class="fil0 str0" d="M10400 21750c0,0 400,0 400,0 0,0 0,400 0,400 0,0 -800,0 -800,0 0,0 0,-1600 0,-1600 0,0 -800,0 -800,0 0,0 0,400 0,400 0,0 400,0 400,0"/>
  <path class="fil0 str0" d="M9600 19750c0,0 0,400 0,400 0,0 -400,0 -400,0 0,0 0,-800 0,-800 0,0 1600,0 1600,0 0,0 0,-800 0,-800 0,0 -400,0 -400,0 0,0 0,400 0,400"/>
  <path class="fil0 str0" d="M10400 19750c0,0 400,0 400,0 0,0 0,400 0,400 0,0 -800,0 -800,0 0,0 0,-1600 0,-1600 0,0 -800,0 -800,0 0,0 0,400 0,400 0,0 400,0 400,0"/>
  <path class="fil0 str0" d="M9600 17750c0,0 0,400 0,400 0,0 -400,0 -400,0 0,0 0,-800 0,-800 0,0 1600,0 1600,0 0,0 0,-800 0,-800 0,0 -400,0 -400,0 0,0 0,400 0,400"/>
  <path class="fil0 str0" d="M10400 17750c0,0 400,0 400,0 0,0 0,400 0,400 0,0 -800,0 -800,0 0,0 0,-1600 0,-1600 0,0 -800,0 -800,0 0,0 0,400 0,400 0,0 400,0 400,0"/>
  <path class="fil0 str0" d="M9600 15750c0,0 0,400 0,400 0,0 -400,0 -400,0 0,0 0,-800 0,-800 0,0 1600,0 1600,0 0,0 0,-800 0,-800 0,0 -400,0 -400,0 0,0 0,400 0,400"/>
  <path class="fil0 str0" d="M10400 15750c0,0 400,0 400,0 0,0 0,400 0,400 0,0 -800,0 -800,0 0,0 0,-1600 0,-1600 0,0 -800,0 -800,0 0,0 0,400 0,400 0,0 400,0 400,0"/>
  <path class="fil0 str0" d="M9600 13750c0,0 0,400 0,400 0,0 -400,0 -400,0 0,0 0,-800 0,-800 0,0 1600,0 1600,0 0,0 0,-800 0,-800 0,0 -400,0 -400,0 0,0 0,400 0,400"/>
  <path class="fil0 str0" d="M10400 13750c0,0 400,0 400,0 0,0 0,400 0,400 0,0 -800,0 -800,0 0,0 0,-1600 0,-1600 0,0 -800,0 -800,0 0,0 0,400 0,400 0,0 400,0 400,0"/>
  <path class="fil0 str0" d="M9600 11750c0,0 0,400 0,400 0,0 -400,0 -400,0 0,0 0,-800 0,-800 0,0 1600,0 1600,0 0,0 0,-800 0,-800 0,0 -400,0 -400,0 0,0 0,400 0,400"/>
  <path class="fil0 str0" d="M10400 11750c0,0 400,0 400,0 0,0 0,400 0,400 0,0 -800,0 -800,0 0,0 0,-1600 0,-1600 0,0 -800,0 -800,0 0,0 0,400 0,400 0,0 400,0 400,0"/>
  <path class="fil0 str0" d="M9600 9750c0,0 0,400 0,400 0,0 -400,0 -400,0 0,0 0,-800 0,-800 0,0 1600,0 1600,0 0,0 0,-800 0,-800 0,0 -400,0 -400,0 0,0 0,400 0,400"/>
  <path class="fil0 str0" d="M10400 9750c0,0 400,0 400,0 0,0 0,400 0,400 0,0 -800,0 -800,0 0,0 0,-1600 0,-1600 0,0 -800,0 -800,0 0,0 0,400 0,400 0,0 400,0 400,0"/>
  <path class="fil0 str0" d="M9600 7750c0,0 0,400 0,400 0,0 -400,0 -400,0 0,0 0,-800 0,-800 0,0 1600,0 1600,0 0,0 0,-800 0,-800 0,0 -400,0 -400,0 0,0 0,400 0,400"/>
  <path class="fil0 str0" d="M10400 7750c0,0 400,0 400,0 0,0 0,400 0,400 0,0 -800,0 -800,0 0,0 0,-1600 0,-1600 0,0 -800,0 -800,0 0,0 0,400 0,400 0,0 400,0 400,0"/>
  <path class="fil0 str0" d="M9600 5750c0,0 0,400 0,400 0,0 -400,0 -400,0 0,0 0,-800 0,-800 0,0 1600,0 1600,0"/>
  <path class="fil0 str0" d="M10400 5750c0,0 400,0 400,0 0,0 0,400 0,400 0,0 -800,0 -800,0 0,0 0,-800 0,-800"/>
  <path class="fil0 str0" d="M11600 23750c0,0 0,400 0,400 0,0 -400,0 -400,0 0,0 0,-800 0,-800 0,0 1600,0 1600,0 0,0 0,-800 0,-800 0,0 -400,0 -400,0 0,0 0,400 0,400"/>
  <path class="fil0 str0" d="M12400 23750c0,0 400,0 400,0 0,0 0,400 0,400 0,0 -800,0 -800,0 0,0 0,-1600 0,-1600 0,0 -800,0 -800,0 0,0 0,400 0,400 0,0 400,0 400,0"/>
  <path class="fil0 str0" d="M11600 21750c0,0 0,400 0,400 0,0 -400,0 -400,0 0,0 0,-800 0,-800 0,0 1600,0 1600,0 0,0 0,-800 0,-800 0,0 -400,0 -400,0 0,0 0,400 0,400"/>
  <path class="fil0 str0" d="M12400 21750c0,0 400,0 400,0 0,0 0,400 0,400 0,0 -800,0 -800,0 0,0 0,-1600 0,-1600 0,0 -800,0 -800,0 0,0 0,400 0,400 0,0 400,0 400,0"/>
  <path class="fil0 str0" d="M11600 19750c0,0 0,400 0,400 0,0 -400,0 -400,0 0,0 0,-800 0,-800 0,0 1600,0 1600,0 0,0 0,-800 0,-800 0,0 -400,0 -400,0 0,0 0,400 0,400"/>
  <path class="fil0 str0" d="M12400 19750c0,0 400,0 400,0 0,0 0,400 0,400 0,0 -800,0 -800,0 0,0 0,-1600 0,-1600 0,0 -800,0 -800,0 0,0 0,400 0,400 0,0 400,0 400,0"/>
  <path class="fil0 str0" d="M11600 17750c0,0 0,400 0,400 0,0 -400,0 -400,0 0,0 0,-800 0,-800 0,0 1600,0 1600,0 0,0 0,-800 0,-800 0,0 -400,0 -400,0 0,0 0,400 0,400"/>
  <path class="fil0 str0" d="M12400 17750c0,0 400,0 400,0 0,0 0,400 0,400 0,0 -800,0 -800,0 0,0 0,-1600 0,-1600 0,0 -800,0 -800,0 0,0 0,400 0,400 0,0 400,0 400,0"/>
  <path class="fil0 str0" d="M11600 15750c0,0 0,400 0,400 0,0 -400,0 -400,0 0,0 0,-800 0,-800 0,0 1600,0 1600,0 0,0 0,-800 0,-800 0,0 -400,0 -400,0 0,0 0,400 0,400"/>
  <path class="fil0 str0" d="M12400 15750c0,0 400,0 400,0 0,0 0,400 0,400 0,0 -800,0 -800,0 0,0 0,-1600 0,-1600 0,0 -800,0 -800,0 0,0 0,400 0,400 0,0 400,0 400,0"/>
  <path class="fil0 str0" d="M11600 13750c0,0 0,400 0,400 0,0 -400,0 -400,0 0,0 0,-800 0,-800 0,0 1600,0 1600,0 0,0 0,-800 0,-800 0,0 -400,0 -400,0 0,0 0,400 0,400"/>
  <path class="fil0 str0" d="M12400 13750c0,0 400,0 400,0 0,0 0,400 0,400 0,0 -800,0 -800,0 0,0 0,-1600 0,-1600 0,0 -800,0 -800,0 0,0 0,400 0,400 0,0 400,0 400,0"/>
  <path class="fil0 str0" d="M11600 11750c0,0 0,400 0,400 0,0 -400,0 -400,0 0,0 0,-800 0,-800 0,0 1600,0 1600,0 0,0 0,-800 0,-800 0,0 -400,0 -400,0 0,0 0,400 0,400"/>
  <path class="fil0 str0" d="M12400 11750c0,0 400,0 400,0 0,0 0,400 0,400 0,0 -800,0 -800,0 0,0 0,-1600 0,-1600 0,0 -800,0 -800,0 0,0 0,400 0,400 0,0 400,0 400,0"/>
  <path class="fil0 str0" d="M11600 9750c0,0 0,400 0,400 0,0 -400,0 -400,0 0,0 0,-800 0,-800 0,0 1600,0 1600,0 0,0 0,-800 0,-800 0,0 -400,0 -400,0 0,0 0,400 0,400"/>
  <path class="fil0 str0" d="M12400 9750c0,0 400,0 400,0 0,0 0,400 0,400 0,0 -800,0 -800,0 0,0 0,-1600 0,-1600 0,0 -800,0 -800,0 0,0 0,400 0,400 0,0 400,0 400,0"/>
  <path class="fil0 str0" d="M11600 7750c0,0 0,400 0,400 0,0 -400,0 -400,0 0,0 0,-800 0,-800 0,0 1600,0 1600,0 0,0 0,-800 0,-800 0,0 -400,0 -400,0 0,0 0,400 0,400"/>
  <path class="fil0 str0" d="M12400 7750c0,0 400,0 400,0 0,0 0,400 0,400 0,0 -800,0 -800,0 0,0 0,-1600 0,-1600 0,0 -800,0 -800,0 0,0 0,400 0,400 0,0 400,0 400,0"/>
  <path class="fil0 str0" d="M11600 5750c0,0 0,400 0,400 0,0 -400,0 -400,0 0,0 0,-800 0,-800 0,0 1600,0 1600,0"/>
  <path class="fil0 str0" d="M12400 5750c0,0 400,0 400,0 0,0 0,400 0,400 0,0 -800,0 -800,0 0,0 0,-800 0,-800"/>
  <path class="fil0 str0" d="M13600 23750c0,0 0,400 0,400 0,0 -400,0 -400,0 0,0 0,-800 0,-800 0,0 1600,0 1600,0 0,0 0,-800 0,-800 0,0 -400,0 -400,0 0,0 0,400 0,400"/>
  <path class="fil0 str0" d="M14400 23750c0,0 400,0 400,0 0,0 0,400 0,400 0,0 -800,0 -800,0 0,0 0,-1600 0,-1600 0,0 -800,0 -800,0 0,0 0,400 0,400 0,0 400,0 400,0"/>
  <path class="fil0 str0" d="M13600 21750c0,0 0,400 0,400 0,0 -400,0 -400,0 0,0 0,-800 0,-800 0,0 1600,0 1600,0 0,0 0,-800 0,-800 0,0 -400,0 -400,0 0,0 0,400 0,400"/>
  <path class="fil0 str0" d="M14400 21750c0,0 400,0 400,0 0,0 0,400 0,400 0,0 -800,0 -800,0 0,0 0,-1600 0,-1600 0,0 -800,0 -800,0 0,0 0,400 0,400 0,0 400,0 400,0"/>
  <path class="fil0 str0" d="M13600 19750c0,0 0,400 0,400 0,0 -400,0 -400,0 0,0 0,-800 0,-800 0,0 1600,0 1600,0 0,0 0,-800 0,-800 0,0 -400,0 -400,0 0,0 0,400 0,400"/>
  <path class="fil0 str0" d="M14400 19750c0,0 400,0 400,0 0,0 0,400 0,400 0,0 -800,0 -800,0 0,0 0,-1600 0,-1600 0,0 -800,0 -800,0 0,0 0,400 0,400 0,0 400,0 400,0"/>
  <path class="fil0 str0" d="M13600 17750c0,0 0,400 0,400 0,0 -400,0 -400,0 0,0 0,-800 0,-800 0,0 1600,0 1600,0 0,0 0,-800 0,-800 0,0 -400,0 -400,0 0,0 0,400 0,400"/>
  <path class="fil0 str0" d="M14400 17750c0,0 400,0 400,0 0,0 0,400 0,400 0,0 -800,0 -800,0 0,0 0,-1600 0,-1600 0,0 -800,0 -800,0 0,0 0,400 0,400 0,0 400,0 400,0"/>
  <path class="fil0 str0" d="M13600 15750c0,0 0,400 0,400 0,0 -400,0 -400,0 0,0 0,-800 0,-800 0,0 1600,0 1600,0 0,0 0,-800 0,-800 0,0 -400,0 -400,0 0,0 0,400 0,400"/>
  <path class="fil0 str0" d="M14400 15750c0,0 400,0 400,0 0,0 0,400 0,400 0,0 -800,0 -800,0 0,0 0,-1600 0,-1600 0,0 -800,0 -800,0 0,0 0,400 0,400 0,0 400,0 400,0"/>
  <path class="fil0 str0" d="M13600 13750c0,0 0,400 0,400 0,0 -400,0 -400,0 0,0 0,-800 0,-800 0,0 1600,0 1600,0 0,0 0,-800 0,-800 0,0 -400,0 -400,0 0,0 0,400 0,400"/>
  <path class="fil0 str0" d="M14400 13750c0,0 400,0 400,0 0,0 0,400 0,400 0,0 -800,0 -800,0 0,0 0,-1600 0,-1600 0,0 -800,0 -800,0 0,0 0,400 0,400 0,0 400,0 400,0"/>
  <path class="fil0 str0" d="M13600 11750c0,0 0,400 0,400 0,0 -400,0 -400,0 0,0 0,-800 0,-800 0,0 1600,0 1600,0 0,0 0,-800 0,-800 0,0 -400,0 -400,0 0,0 0,400 0,400"/>
  <path class="fil0 str0" d="M14400 11750c0,0 400,0 400,0 0,0 0,400 0,400 0,0 -800,0 -800,0 0,0 0,-1600 0,-1600 0,0 -800,0 -800,0 0,0 0,400 0,400 0,0 400,0 400,0"/>
  <path class="fil0 str0" d="M13600 9750c0,0 0,400 0,400 0,0 -400,0 -400,0 0,0 0,-800 0,-800 0,0 1600,0 1600,0 0,0 0,-800 0,-800 0,0 -400,0 -400,0 0,0 0,400 0,400"/>
  <path class="fil0 str0" d="M14400 9750c0,0 400,0 400,0 0,0 0,400 0,400 0,0 -800,0 -800,0 0,0 0,-1600 0,-1600 0,0 -800,0 -800,0 0,0 0,400 0,400 0,0 400,0 400,0"/>
  <path class="fil0 str0" d="M13600 7750c0,0 0,400 0,400 0,0 -400,0 -400,0 0,0 0,-800 0,-800 0,0 1600,0 1600,0 0,0 0,-800 0,-800 0,0 -400,0 -400,0 0,0 0,400 0,400"/>
  <path class="fil0 str0" d="M14400 7750c0,0 400,0 400,0 0,0 0,400 0,400 0,0 -800,0 -800,0 0,0 0,-1600 0,-1600 0,0 -800,0 -800,0 0,0 0,400 0,400 0,0 400,0 400,0"/>
  <path class="fil0 str0" d="M13600 5750c0,0 0,400 0,400 0,0 -400,0 -400,0 0,0 0,-800 0,-800 0,0 1600,0 1600,0"/>
  <path class="fil0 str0" d="M14400 5750c0,0 400,0 400,0 0,0 0,400 0,400 0,0 -800,0 -800,0 0,0 0,-800 0,-800"/>
  <path class="fil0 str0" d="M15600 23750c0,0 0,400 0,400 0,0 -400,0 -400,0 0,0 0,-800 0,-800 0,0 1600,0 1600,0 0,0 0,-800 0,-800 0,0 -400,0 -400,0 0,0 0,400 0,400"/>
  <path class="fil0 str0" d="M16400 23750c0,0 400,0 400,0 0,0 0,400 0,400 0,0 -800,0 -800,0 0,0 0,-1600 0,-1600 0,0 -800,0 -800,0 0,0 0,400 0,400 0,0 400,0 400,0"/>
  <path class="fil0 str0" d="M15600 21750c0,0 0,400 0,400 0,0 -400,0 -400,0 0,0 0,-800 0,-800 0,0 1600,0 1600,0 0,0 0,-800 0,-800 0,0 -400,0 -400,0 0,0 0,400 0,400"/>
  <path class="fil0 str0" d="M16400 21750c0,0 400,0 400,0 0,0 0,400 0,400 0,0 -800,0 -800,0 0,0 0,-1600 0,-1600 0,0 -800,0 -800,0 0,0 0,400 0,400 0,0 400,0 400,0"/>
  <path class="fil0 str0" d="M15600 19750c0,0 0,400 0,400 0,0 -400,0 -400,0 0,0 0,-800 0,-800 0,0 1600,0 1600,0 0,0 0,-800 0,-800 0,0 -400,0 -400,0 0,0 0,400 0,400"/>
  <path class="fil0 str0" d="M16400 19750c0,0 400,0 400,0 0,0 0,400 0,400 0,0 -800,0 -800,0 0,0 0,-1600 0,-1600 0,0 -800,0 -800,0 0,0 0,400 0,400 0,0 400,0 400,0"/>
  <path class="fil0 str0" d="M15600 17750c0,0 0,400 0,400 0,0 -400,0 -400,0 0,0 0,-800 0,-800 0,0 1600,0 1600,0 0,0 0,-800 0,-800 0,0 -400,0 -400,0 0,0 0,400 0,400"/>
  <path class="fil0 str0" d="M16400 17750c0,0 400,0 400,0 0,0 0,400 0,400 0,0 -800,0 -800,0 0,0 0,-1600 0,-1600 0,0 -800,0 -800,0 0,0 0,400 0,400 0,0 400,0 400,0"/>
  <path class="fil0 str0" d="M15600 15750c0,0 0,400 0,400 0,0 -400,0 -400,0 0,0 0,-800 0,-800 0,0 1600,0 1600,0 0,0 0,-800 0,-800 0,0 -400,0 -400,0 0,0 0,400 0,400"/>
  <path class="fil0 str0" d="M16400 15750c0,0 400,0 400,0 0,0 0,400 0,400 0,0 -800,0 -800,0 0,0 0,-1600 0,-1600 0,0 -800,0 -800,0 0,0 0,400 0,400 0,0 400,0 400,0"/>
  <path class="fil0 str0" d="M15600 13750c0,0 0,400 0,400 0,0 -400,0 -400,0 0,0 0,-800 0,-800 0,0 1600,0 1600,0 0,0 0,-800 0,-800 0,0 -400,0 -400,0 0,0 0,400 0,400"/>
  <path class="fil0 str0" d="M16400 13750c0,0 400,0 400,0 0,0 0,400 0,400 0,0 -800,0 -800,0 0,0 0,-1600 0,-1600 0,0 -800,0 -800,0 0,0 0,400 0,400 0,0 400,0 400,0"/>
  <path class="fil0 str0" d="M15600 11750c0,0 0,400 0,400 0,0 -400,0 -400,0 0,0 0,-800 0,-800 0,0 1600,0 1600,0 0,0 0,-800 0,-800 0,0 -400,0 -400,0 0,0 0,400 0,400"/>
  <path class="fil0 str0" d="M16400 11750c0,0 400,0 400,0 0,0 0,400 0,400 0,0 -800,0 -800,0 0,0 0,-1600 0,-1600 0,0 -800,0 -800,0 0,0 0,400 0,400 0,0 400,0 400,0"/>
  <path class="fil0 str0" d="M15600 9750c0,0 0,400 0,400 0,0 -400,0 -400,0 0,0 0,-800 0,-800 0,0 1600,0 1600,0 0,0 0,-800 0,-800 0,0 -400,0 -400,0 0,0 0,400 0,400"/>
  <path class="fil0 str0" d="M16400 9750c0,0 400,0 400,0 0,0 0,400 0,400 0,0 -800,0 -800,0 0,0 0,-1600 0,-1600 0,0 -800,0 -800,0 0,0 0,400 0,400 0,0 400,0 400,0"/>
  <path class="fil0 str0" d="M15600 7750c0,0 0,400 0,400 0,0 -400,0 -400,0 0,0 0,-800 0,-800 0,0 1600,0 1600,0 0,0 0,-800 0,-800 0,0 -400,0 -400,0 0,0 0,400 0,400"/>
  <path class="fil0 str0" d="M16400 7750c0,0 400,0 400,0 0,0 0,400 0,400 0,0 -800,0 -800,0 0,0 0,-1600 0,-1600 0,0 -800,0 -800,0 0,0 0,400 0,400 0,0 400,0 400,0"/>
  <path class="fil0 str0" d="M15600 5750c0,0 0,400 0,400 0,0 -400,0 -400,0 0,0 0,-800 0,-800 0,0 1600,0 1600,0"/>
  <path class="fil0 str0" d="M16400 5750c0,0 400,0 400,0 0,0 0,400 0,400 0,0 -800,0 -800,0 0,0 0,-800 0,-800"/>
  <path class="fil0 str0" d="M17600 23750c0,0 0,400 0,400 0,0 -400,0 -400,0 0,0 0,-800 0,-800 0,0 1600,0 1600,0 0,0 0,-800 0,-800 0,0 -400,0 -400,0 0,0 0,400 0,400"/>
  <path class="fil0 str0" d="M18400 23750c0,0 400,0 400,0 0,0 0,400 0,400 0,0 -800,0 -800,0 0,0 0,-1600 0,-1600 0,0 -800,0 -800,0 0,0 0,400 0,400 0,0 400,0 400,0"/>
  <path class="fil0 str0" d="M17600 21750c0,0 0,400 0,400 0,0 -400,0 -400,0 0,0 0,-800 0,-800 0,0 1600,0 1600,0 0,0 0,-800 0,-800 0,0 -400,0 -400,0 0,0 0,400 0,400"/>
  <path class="fil0 str0" d="M18400 21750c0,0 400,0 400,0 0,0 0,400 0,400 0,0 -800,0 -800,0 0,0 0,-1600 0,-1600 0,0 -800,0 -800,0 0,0 0,400 0,400 0,0 400,0 400,0"/>
  <path class="fil0 str0" d="M17600 19750c0,0 0,400 0,400 0,0 -400,0 -400,0 0,0 0,-800 0,-800 0,0 1600,0 1600,0 0,0 0,-800 0,-800 0,0 -400,0 -400,0 0,0 0,400 0,400"/>
  <path class="fil0 str0" d="M18400 19750c0,0 400,0 400,0 0,0 0,400 0,400 0,0 -800,0 -800,0 0,0 0,-1600 0,-1600 0,0 -800,0 -800,0 0,0 0,400 0,400 0,0 400,0 400,0"/>
  <path class="fil0 str0" d="M17600 17750c0,0 0,400 0,400 0,0 -400,0 -400,0 0,0 0,-800 0,-800 0,0 1600,0 1600,0 0,0 0,-800 0,-800 0,0 -400,0 -400,0 0,0 0,400 0,400"/>
  <path class="fil0 str0" d="M18400 17750c0,0 400,0 400,0 0,0 0,400 0,400 0,0 -800,0 -800,0 0,0 0,-1600 0,-1600 0,0 -800,0 -800,0 0,0 0,400 0,400 0,0 400,0 400,0"/>
  <path class="fil0 str0" d="M17600 15750c0,0 0,400 0,400 0,0 -400,0 -400,0 0,0 0,-800 0,-800 0,0 1600,0 1600,0 0,0 0,-800 0,-800 0,0 -400,0 -400,0 0,0 0,400 0,400"/>
  <path class="fil0 str0" d="M18400 15750c0,0 400,0 400,0 0,0 0,400 0,400 0,0 -800,0 -800,0 0,0 0,-1600 0,-1600 0,0 -800,0 -800,0 0,0 0,400 0,400 0,0 400,0 400,0"/>
  <path class="fil0 str0" d="M17600 13750c0,0 0,400 0,400 0,0 -400,0 -400,0 0,0 0,-800 0,-800 0,0 1600,0 1600,0 0,0 0,-800 0,-800 0,0 -400,0 -400,0 0,0 0,400 0,400"/>
  <path class="fil0 str0" d="M18400 13750c0,0 400,0 400,0 0,0 0,400 0,400 0,0 -800,0 -800,0 0,0 0,-1600 0,-1600 0,0 -800,0 -800,0 0,0 0,400 0,400 0,0 400,0 400,0"/>
  <path class="fil0 str0" d="M17600 11750c0,0 0,400 0,400 0,0 -400,0 -400,0 0,0 0,-800 0,-800 0,0 1600,0 1600,0 0,0 0,-800 0,-800 0,0 -400,0 -400,0 0,0 0,400 0,400"/>
  <path class="fil0 str0" d="M18400 11750c0,0 400,0 400,0 0,0 0,400 0,400 0,0 -800,0 -800,0 0,0 0,-1600 0,-1600 0,0 -800,0 -800,0 0,0 0,400 0,400 0,0 400,0 400,0"/>
  <path class="fil0 str0" d="M17600 9750c0,0 0,400 0,400 0,0 -400,0 -400,0 0,0 0,-800 0,-800 0,0 1600,0 1600,0 0,0 0,-800 0,-800 0,0 -400,0 -400,0 0,0 0,400 0,400"/>
  <path class="fil0 str0" d="M18400 9750c0,0 400,0 400,0 0,0 0,400 0,400 0,0 -800,0 -800,0 0,0 0,-1600 0,-1600 0,0 -800,0 -800,0 0,0 0,400 0,400 0,0 400,0 400,0"/>
  <path class="fil0 str0" d="M17600 7750c0,0 0,400 0,400 0,0 -400,0 -400,0 0,0 0,-800 0,-800 0,0 1600,0 1600,0 0,0 0,-800 0,-800 0,0 -400,0 -400,0 0,0 0,400 0,400"/>
  <path class="fil0 str0" d="M18400 7750c0,0 400,0 400,0 0,0 0,400 0,400 0,0 -800,0 -800,0 0,0 0,-1600 0,-1600 0,0 -800,0 -800,0 0,0 0,400 0,400 0,0 400,0 400,0"/>
  <path class="fil0 str0" d="M17600 5750c0,0 0,400 0,400 0,0 -400,0 -400,0 0,0 0,-800 0,-800 0,0 1600,0 1600,0"/>
  <path class="fil0 str0" d="M18400 5750c0,0 400,0 400,0 0,0 0,400 0,400 0,0 -800,0 -800,0 0,0 0,-800 0,-800"/>
  <path class="fil0 str0" d="M19600 23750c0,0 0,400 0,400 0,0 -400,0 -400,0 0,0 0,-800 0,-800 0,0 800,0 800,0"/>
  <path class="fil0 str0" d="M20000 24150c0,0 0,-1600 0,-1600 0,0 -800,0 -800,0 0,0 0,400 0,400 0,0 400,0 400,0"/>
  <path class="fil0 str0" d="M19600 21750c0,0 0,400 0,400 0,0 -400,0 -400,0 0,0 0,-800 0,-800 0,0 800,0 800,0"/>
  <path class="fil0 str0" d="M20000 22150c0,0 0,-1600 0,-1600 0,0 -800,0 -800,0 0,0 0,400 0,400 0,0 400,0 400,0"/>
  <path class="fil0 str0" d="M19600 19750c0,0 0,400 0,400 0,0 -400,0 -400,0 0,0 0,-800 0,-800 0,0 800,0 800,0"/>
  <path class="fil0 str0" d="M20000 20150c0,0 0,-1600 0,-1600 0,0 -800,0 -800,0 0,0 0,400 0,400 0,0 400,0 400,0"/>
  <path class="fil0 str0" d="M19600 17750c0,0 0,400 0,400 0,0 -400,0 -400,0 0,0 0,-800 0,-800 0,0 800,0 800,0"/>
  <path class="fil0 str0" d="M20000 18150c0,0 0,-1600 0,-1600 0,0 -800,0 -800,0 0,0 0,400 0,400 0,0 400,0 400,0"/>
  <path class="fil0 str0" d="M19600 15750c0,0 0,400 0,400 0,0 -400,0 -400,0 0,0 0,-800 0,-800 0,0 800,0 800,0"/>
  <path class="fil0 str0" d="M20000 16150c0,0 0,-1600 0,-1600 0,0 -800,0 -800,0 0,0 0,400 0,400 0,0 400,0 400,0"/>
  <path class="fil0 str0" d="M19600 13750c0,0 0,400 0,400 0,0 -400,0 -400,0 0,0 0,-800 0,-800 0,0 800,0 800,0"/>
  <path class="fil0 str0" d="M20000 14150c0,0 0,-1600 0,-1600 0,0 -800,0 -800,0 0,0 0,400 0,400 0,0 400,0 400,0"/>
  <path class="fil0 str0" d="M19600 11750c0,0 0,400 0,400 0,0 -400,0 -400,0 0,0 0,-800 0,-800 0,0 800,0 800,0"/>
  <path class="fil0 str0" d="M20000 12150c0,0 0,-1600 0,-1600 0,0 -800,0 -800,0 0,0 0,400 0,400 0,0 400,0 400,0"/>
  <path class="fil0 str0" d="M19600 9750c0,0 0,400 0,400 0,0 -400,0 -400,0 0,0 0,-800 0,-800 0,0 800,0 800,0"/>
  <path class="fil0 str0" d="M20000 10150c0,0 0,-1600 0,-1600 0,0 -800,0 -800,0 0,0 0,400 0,400 0,0 400,0 400,0"/>
  <path class="fil0 str0" d="M19600 7750c0,0 0,400 0,400 0,0 -400,0 -400,0 0,0 0,-800 0,-800 0,0 800,0 800,0"/>
  <path class="fil0 str0" d="M20000 8150c0,0 0,-1600 0,-1600 0,0 -800,0 -800,0 0,0 0,400 0,400 0,0 400,0 400,0"/>
  <path class="fil0 str0" d="M19600 5750c0,0 0,400 0,400 0,0 -400,0 -400,0 0,0 0,-800 0,-800 0,0 800,0 800,0"/>
  <path class="fil0 str0" d="M20000 6150c0,0 0,-800 0,-800"/>
  <path class="fil0 str1" d="M1000 24350c0,0 800,0 800,0 0,0 0,-800 0,-800 0,0 -400,0 -400,0 0,0 0,400 0,400"/>
  <path class="fil0 str1" d="M1000 24350c0,0 0,-800 0,-800"/>
  <path class="fil0 str1" d="M1000 22350c0,0 800,0 800,0 0,0 0,-800 0,-800 0,0 -400,0 -400,0 0,0 0,400 0,400"/>
  <path class="fil0 str1" d="M1400 22750c0,0 400,0 400,0 0,0 0,400 0,400 0,0 -800,0 -800,0 0,0 0,-1600 0,-1600"/>
  <path class="fil0 str1" d="M1000 20350c0,0 800,0 800,0 0,0 0,-800 0,-800 0,0 -400,0 -400,0 0,0 0,400 0,400"/>
  <path class="fil0 str1" d="M1400 20750c0,0 400,0 400,0 0,0 0,400 0,400 0,0 -800,0 -800,0 0,0 0,-1600 0,-1600"/>
  <path class="fil0 str1" d="M1000 18350c0,0 800,0 800,0 0,0 0,-800 0,-800 0,0 -400,0 -400,0 0,0 0,400 0,400"/>
  <path class="fil0 str1" d="M1400 18750c0,0 400,0 400,0 0,0 0,400 0,400 0,0 -800,0 -800,0 0,0 0,-1600 0,-1600"/>
  <path class="fil0 str1" d="M1000 16350c0,0 800,0 800,0 0,0 0,-800 0,-800 0,0 -400,0 -400,0 0,0 0,400 0,400"/>
  <path class="fil0 str1" d="M1400 16750c0,0 400,0 400,0 0,0 0,400 0,400 0,0 -800,0 -800,0 0,0 0,-1600 0,-1600"/>
  <path class="fil0 str1" d="M1000 14350c0,0 800,0 800,0 0,0 0,-800 0,-800 0,0 -400,0 -400,0 0,0 0,400 0,400"/>
  <path class="fil0 str1" d="M1400 14750c0,0 400,0 400,0 0,0 0,400 0,400 0,0 -800,0 -800,0 0,0 0,-1600 0,-1600"/>
  <path class="fil0 str1" d="M1000 12350c0,0 800,0 800,0 0,0 0,-800 0,-800 0,0 -400,0 -400,0 0,0 0,400 0,400"/>
  <path class="fil0 str1" d="M1400 12750c0,0 400,0 400,0 0,0 0,400 0,400 0,0 -800,0 -800,0 0,0 0,-1600 0,-1600"/>
  <path class="fil0 str1" d="M1000 10350c0,0 800,0 800,0 0,0 0,-800 0,-800 0,0 -400,0 -400,0 0,0 0,400 0,400"/>
  <path class="fil0 str1" d="M1400 10750c0,0 400,0 400,0 0,0 0,400 0,400 0,0 -800,0 -800,0 0,0 0,-1600 0,-1600"/>
  <path class="fil0 str1" d="M1000 8350c0,0 800,0 800,0 0,0 0,-800 0,-800 0,0 -400,0 -400,0 0,0 0,400 0,400"/>
  <path class="fil0 str1" d="M1400 8750c0,0 400,0 400,0 0,0 0,400 0,400 0,0 -800,0 -800,0 0,0 0,-1600 0,-1600"/>
  <path class="fil0 str1" d="M1000 6350c0,0 800,0 800,0 0,0 0,-800 0,-800 0,0 -400,0 -400,0 0,0 0,400 0,400"/>
  <path class="fil0 str1" d="M1400 6750c0,0 400,0 400,0 0,0 0,400 0,400 0,0 -800,0 -800,0 0,0 0,-1600 0,-1600"/>
  <path class="fil0 str1" d="M2200 24350c0,0 1600,0 1600,0 0,0 0,-800 0,-800 0,0 -400,0 -400,0 0,0 0,400 0,400"/>
  <path class="fil0 str1" d="M3000 24350c0,0 0,-800 0,-800 0,0 -800,0 -800,0 0,0 0,400 0,400 0,0 400,0 400,0"/>
  <path class="fil0 str1" d="M2600 22750c0,0 0,400 0,400 0,0 -400,0 -400,0 0,0 0,-800 0,-800 0,0 1600,0 1600,0 0,0 0,-800 0,-800 0,0 -400,0 -400,0 0,0 0,400 0,400"/>
  <path class="fil0 str1" d="M3400 22750c0,0 400,0 400,0 0,0 0,400 0,400 0,0 -800,0 -800,0 0,0 0,-1600 0,-1600 0,0 -800,0 -800,0 0,0 0,400 0,400 0,0 400,0 400,0"/>
  <path class="fil0 str1" d="M2600 20750c0,0 0,400 0,400 0,0 -400,0 -400,0 0,0 0,-800 0,-800 0,0 1600,0 1600,0 0,0 0,-800 0,-800 0,0 -400,0 -400,0 0,0 0,400 0,400"/>
  <path class="fil0 str1" d="M3400 20750c0,0 400,0 400,0 0,0 0,400 0,400 0,0 -800,0 -800,0 0,0 0,-1600 0,-1600 0,0 -800,0 -800,0 0,0 0,400 0,400 0,0 400,0 400,0"/>
  <path class="fil0 str1" d="M2600 18750c0,0 0,400 0,400 0,0 -400,0 -400,0 0,0 0,-800 0,-800 0,0 1600,0 1600,0 0,0 0,-800 0,-800 0,0 -400,0 -400,0 0,0 0,400 0,400"/>
  <path class="fil0 str1" d="M3400 18750c0,0 400,0 400,0 0,0 0,400 0,400 0,0 -800,0 -800,0 0,0 0,-1600 0,-1600 0,0 -800,0 -800,0 0,0 0,400 0,400 0,0 400,0 400,0"/>
  <path class="fil0 str1" d="M2600 16750c0,0 0,400 0,400 0,0 -400,0 -400,0 0,0 0,-800 0,-800 0,0 1600,0 1600,0 0,0 0,-800 0,-800 0,0 -400,0 -400,0 0,0 0,400 0,400"/>
  <path class="fil0 str1" d="M3400 16750c0,0 400,0 400,0 0,0 0,400 0,400 0,0 -800,0 -800,0 0,0 0,-1600 0,-1600 0,0 -800,0 -800,0 0,0 0,400 0,400 0,0 400,0 400,0"/>
  <path class="fil0 str1" d="M2600 14750c0,0 0,400 0,400 0,0 -400,0 -400,0 0,0 0,-800 0,-800 0,0 1600,0 1600,0 0,0 0,-800 0,-800 0,0 -400,0 -400,0 0,0 0,400 0,400"/>
  <path class="fil0 str1" d="M3400 14750c0,0 400,0 400,0 0,0 0,400 0,400 0,0 -800,0 -800,0 0,0 0,-1600 0,-1600 0,0 -800,0 -800,0 0,0 0,400 0,400 0,0 400,0 400,0"/>
  <path class="fil0 str1" d="M2600 12750c0,0 0,400 0,400 0,0 -400,0 -400,0 0,0 0,-800 0,-800 0,0 1600,0 1600,0 0,0 0,-800 0,-800 0,0 -400,0 -400,0 0,0 0,400 0,400"/>
  <path class="fil0 str1" d="M3400 12750c0,0 400,0 400,0 0,0 0,400 0,400 0,0 -800,0 -800,0 0,0 0,-1600 0,-1600 0,0 -800,0 -800,0 0,0 0,400 0,400 0,0 400,0 400,0"/>
  <path class="fil0 str1" d="M2600 10750c0,0 0,400 0,400 0,0 -400,0 -400,0 0,0 0,-800 0,-800 0,0 1600,0 1600,0 0,0 0,-800 0,-800 0,0 -400,0 -400,0 0,0 0,400 0,400"/>
  <path class="fil0 str1" d="M3400 10750c0,0 400,0 400,0 0,0 0,400 0,400 0,0 -800,0 -800,0 0,0 0,-1600 0,-1600 0,0 -800,0 -800,0 0,0 0,400 0,400 0,0 400,0 400,0"/>
  <path class="fil0 str1" d="M2600 8750c0,0 0,400 0,400 0,0 -400,0 -400,0 0,0 0,-800 0,-800 0,0 1600,0 1600,0 0,0 0,-800 0,-800 0,0 -400,0 -400,0 0,0 0,400 0,400"/>
  <path class="fil0 str1" d="M3400 8750c0,0 400,0 400,0 0,0 0,400 0,400 0,0 -800,0 -800,0 0,0 0,-1600 0,-1600 0,0 -800,0 -800,0 0,0 0,400 0,400 0,0 400,0 400,0"/>
  <path class="fil0 str1" d="M2600 6750c0,0 0,400 0,400 0,0 -400,0 -400,0 0,0 0,-800 0,-800 0,0 1600,0 1600,0 0,0 0,-800 0,-800 0,0 -400,0 -400,0 0,0 0,400 0,400"/>
  <path class="fil0 str1" d="M3400 6750c0,0 400,0 400,0 0,0 0,400 0,400 0,0 -800,0 -800,0 0,0 0,-1600 0,-1600 0,0 -800,0 -800,0 0,0 0,400 0,400 0,0 400,0 400,0"/>
  <path class="fil0 str1" d="M4200 24350c0,0 1600,0 1600,0 0,0 0,-800 0,-800 0,0 -400,0 -400,0 0,0 0,400 0,400"/>
  <path class="fil0 str1" d="M5000 24350c0,0 0,-800 0,-800 0,0 -800,0 -800,0 0,0 0,400 0,400 0,0 400,0 400,0"/>
  <path class="fil0 str1" d="M4600 22750c0,0 0,400 0,400 0,0 -400,0 -400,0 0,0 0,-800 0,-800 0,0 1600,0 1600,0 0,0 0,-800 0,-800 0,0 -400,0 -400,0 0,0 0,400 0,400"/>
  <path class="fil0 str1" d="M5400 22750c0,0 400,0 400,0 0,0 0,400 0,400 0,0 -800,0 -800,0 0,0 0,-1600 0,-1600 0,0 -800,0 -800,0 0,0 0,400 0,400 0,0 400,0 400,0"/>
  <path class="fil0 str1" d="M4600 20750c0,0 0,400 0,400 0,0 -400,0 -400,0 0,0 0,-800 0,-800 0,0 1600,0 1600,0 0,0 0,-800 0,-800 0,0 -400,0 -400,0 0,0 0,400 0,400"/>
  <path class="fil0 str1" d="M5400 20750c0,0 400,0 400,0 0,0 0,400 0,400 0,0 -800,0 -800,0 0,0 0,-1600 0,-1600 0,0 -800,0 -800,0 0,0 0,400 0,400 0,0 400,0 400,0"/>
  <path class="fil0 str1" d="M4600 18750c0,0 0,400 0,400 0,0 -400,0 -400,0 0,0 0,-800 0,-800 0,0 1600,0 1600,0 0,0 0,-800 0,-800 0,0 -400,0 -400,0 0,0 0,400 0,400"/>
  <path class="fil0 str1" d="M5400 18750c0,0 400,0 400,0 0,0 0,400 0,400 0,0 -800,0 -800,0 0,0 0,-1600 0,-1600 0,0 -800,0 -800,0 0,0 0,400 0,400 0,0 400,0 400,0"/>
  <path class="fil0 str1" d="M4600 16750c0,0 0,400 0,400 0,0 -400,0 -400,0 0,0 0,-800 0,-800 0,0 1600,0 1600,0 0,0 0,-800 0,-800 0,0 -400,0 -400,0 0,0 0,400 0,400"/>
  <path class="fil0 str1" d="M5400 16750c0,0 400,0 400,0 0,0 0,400 0,400 0,0 -800,0 -800,0 0,0 0,-1600 0,-1600 0,0 -800,0 -800,0 0,0 0,400 0,400 0,0 400,0 400,0"/>
  <path class="fil0 str1" d="M4600 14750c0,0 0,400 0,400 0,0 -400,0 -400,0 0,0 0,-800 0,-800 0,0 1600,0 1600,0 0,0 0,-800 0,-800 0,0 -400,0 -400,0 0,0 0,400 0,400"/>
  <path class="fil0 str1" d="M5400 14750c0,0 400,0 400,0 0,0 0,400 0,400 0,0 -800,0 -800,0 0,0 0,-1600 0,-1600 0,0 -800,0 -800,0 0,0 0,400 0,400 0,0 400,0 400,0"/>
  <path class="fil0 str1" d="M4600 12750c0,0 0,400 0,400 0,0 -400,0 -400,0 0,0 0,-800 0,-800 0,0 1600,0 1600,0 0,0 0,-800 0,-800 0,0 -400,0 -400,0 0,0 0,400 0,400"/>
  <path class="fil0 str1" d="M5400 12750c0,0 400,0 400,0 0,0 0,400 0,400 0,0 -800,0 -800,0 0,0 0,-1600 0,-1600 0,0 -800,0 -800,0 0,0 0,400 0,400 0,0 400,0 400,0"/>
  <path class="fil0 str1" d="M4600 10750c0,0 0,400 0,400 0,0 -400,0 -400,0 0,0 0,-800 0,-800 0,0 1600,0 1600,0 0,0 0,-800 0,-800 0,0 -400,0 -400,0 0,0 0,400 0,400"/>
  <path class="fil0 str1" d="M5400 10750c0,0 400,0 400,0 0,0 0,400 0,400 0,0 -800,0 -800,0 0,0 0,-1600 0,-1600 0,0 -800,0 -800,0 0,0 0,400 0,400 0,0 400,0 400,0"/>
  <path class="fil0 str1" d="M4600 8750c0,0 0,400 0,400 0,0 -400,0 -400,0 0,0 0,-800 0,-800 0,0 1600,0 1600,0 0,0 0,-800 0,-800 0,0 -400,0 -400,0 0,0 0,400 0,400"/>
  <path class="fil0 str1" d="M5400 8750c0,0 400,0 400,0 0,0 0,400 0,400 0,0 -800,0 -800,0 0,0 0,-1600 0,-1600 0,0 -800,0 -800,0 0,0 0,400 0,400 0,0 400,0 400,0"/>
  <path class="fil0 str1" d="M4600 6750c0,0 0,400 0,400 0,0 -400,0 -400,0 0,0 0,-800 0,-800 0,0 1600,0 1600,0 0,0 0,-800 0,-800 0,0 -400,0 -400,0 0,0 0,400 0,400"/>
  <path class="fil0 str1" d="M5400 6750c0,0 400,0 400,0 0,0 0,400 0,400 0,0 -800,0 -800,0 0,0 0,-1600 0,-1600 0,0 -800,0 -800,0 0,0 0,400 0,400 0,0 400,0 400,0"/>
  <path class="fil0 str1" d="M6200 24350c0,0 1600,0 1600,0 0,0 0,-800 0,-800 0,0 -400,0 -400,0 0,0 0,400 0,400"/>
  <path class="fil0 str1" d="M7000 24350c0,0 0,-800 0,-800 0,0 -800,0 -800,0 0,0 0,400 0,400 0,0 400,0 400,0"/>
  <path class="fil0 str1" d="M6600 22750c0,0 0,400 0,400 0,0 -400,0 -400,0 0,0 0,-800 0,-800 0,0 1600,0 1600,0 0,0 0,-800 0,-800 0,0 -400,0 -400,0 0,0 0,400 0,400"/>
  <path class="fil0 str1" d="M7400 22750c0,0 400,0 400,0 0,0 0,400 0,400 0,0 -800,0 -800,0 0,0 0,-1600 0,-1600 0,0 -800,0 -800,0 0,0 0,400 0,400 0,0 400,0 400,0"/>
  <path class="fil0 str1" d="M6600 20750c0,0 0,400 0,400 0,0 -400,0 -400,0 0,0 0,-800 0,-800 0,0 1600,0 1600,0 0,0 0,-800 0,-800 0,0 -400,0 -400,0 0,0 0,400 0,400"/>
  <path class="fil0 str1" d="M7400 20750c0,0 400,0 400,0 0,0 0,400 0,400 0,0 -800,0 -800,0 0,0 0,-1600 0,-1600 0,0 -800,0 -800,0 0,0 0,400 0,400 0,0 400,0 400,0"/>
  <path class="fil0 str1" d="M6600 18750c0,0 0,400 0,400 0,0 -400,0 -400,0 0,0 0,-800 0,-800 0,0 1600,0 1600,0 0,0 0,-800 0,-800 0,0 -400,0 -400,0 0,0 0,400 0,400"/>
  <path class="fil0 str1" d="M7400 18750c0,0 400,0 400,0 0,0 0,400 0,400 0,0 -800,0 -800,0 0,0 0,-1600 0,-1600 0,0 -800,0 -800,0 0,0 0,400 0,400 0,0 400,0 400,0"/>
  <path class="fil0 str1" d="M6600 16750c0,0 0,400 0,400 0,0 -400,0 -400,0 0,0 0,-800 0,-800 0,0 1600,0 1600,0 0,0 0,-800 0,-800 0,0 -400,0 -400,0 0,0 0,400 0,400"/>
  <path class="fil0 str1" d="M7400 16750c0,0 400,0 400,0 0,0 0,400 0,400 0,0 -800,0 -800,0 0,0 0,-1600 0,-1600 0,0 -800,0 -800,0 0,0 0,400 0,400 0,0 400,0 400,0"/>
  <path class="fil0 str1" d="M6600 14750c0,0 0,400 0,400 0,0 -400,0 -400,0 0,0 0,-800 0,-800 0,0 1600,0 1600,0 0,0 0,-800 0,-800 0,0 -400,0 -400,0 0,0 0,400 0,400"/>
  <path class="fil0 str1" d="M7400 14750c0,0 400,0 400,0 0,0 0,400 0,400 0,0 -800,0 -800,0 0,0 0,-1600 0,-1600 0,0 -800,0 -800,0 0,0 0,400 0,400 0,0 400,0 400,0"/>
  <path class="fil0 str1" d="M6600 12750c0,0 0,400 0,400 0,0 -400,0 -400,0 0,0 0,-800 0,-800 0,0 1600,0 1600,0 0,0 0,-800 0,-800 0,0 -400,0 -400,0 0,0 0,400 0,400"/>
  <path class="fil0 str1" d="M7400 12750c0,0 400,0 400,0 0,0 0,400 0,400 0,0 -800,0 -800,0 0,0 0,-1600 0,-1600 0,0 -800,0 -800,0 0,0 0,400 0,400 0,0 400,0 400,0"/>
  <path class="fil0 str1" d="M6600 10750c0,0 0,400 0,400 0,0 -400,0 -400,0 0,0 0,-800 0,-800 0,0 1600,0 1600,0 0,0 0,-800 0,-800 0,0 -400,0 -400,0 0,0 0,400 0,400"/>
  <path class="fil0 str1" d="M7400 10750c0,0 400,0 400,0 0,0 0,400 0,400 0,0 -800,0 -800,0 0,0 0,-1600 0,-1600 0,0 -800,0 -800,0 0,0 0,400 0,400 0,0 400,0 400,0"/>
  <path class="fil0 str1" d="M6600 8750c0,0 0,400 0,400 0,0 -400,0 -400,0 0,0 0,-800 0,-800 0,0 1600,0 1600,0 0,0 0,-800 0,-800 0,0 -400,0 -400,0 0,0 0,400 0,400"/>
  <path class="fil0 str1" d="M7400 8750c0,0 400,0 400,0 0,0 0,400 0,400 0,0 -800,0 -800,0 0,0 0,-1600 0,-1600 0,0 -800,0 -800,0 0,0 0,400 0,400 0,0 400,0 400,0"/>
  <path class="fil0 str1" d="M6600 6750c0,0 0,400 0,400 0,0 -400,0 -400,0 0,0 0,-800 0,-800 0,0 1600,0 1600,0 0,0 0,-800 0,-800 0,0 -400,0 -400,0 0,0 0,400 0,400"/>
  <path class="fil0 str1" d="M7400 6750c0,0 400,0 400,0 0,0 0,400 0,400 0,0 -800,0 -800,0 0,0 0,-1600 0,-1600 0,0 -800,0 -800,0 0,0 0,400 0,400 0,0 400,0 400,0"/>
  <path class="fil0 str1" d="M8200 24350c0,0 1600,0 1600,0 0,0 0,-800 0,-800 0,0 -400,0 -400,0 0,0 0,400 0,400"/>
  <path class="fil0 str1" d="M9000 24350c0,0 0,-800 0,-800 0,0 -800,0 -800,0 0,0 0,400 0,400 0,0 400,0 400,0"/>
  <path class="fil0 str1" d="M8600 22750c0,0 0,400 0,400 0,0 -400,0 -400,0 0,0 0,-800 0,-800 0,0 1600,0 1600,0 0,0 0,-800 0,-800 0,0 -400,0 -400,0 0,0 0,400 0,400"/>
  <path class="fil0 str1" d="M9400 22750c0,0 400,0 400,0 0,0 0,400 0,400 0,0 -800,0 -800,0 0,0 0,-1600 0,-1600 0,0 -800,0 -800,0 0,0 0,400 0,400 0,0 400,0 400,0"/>
  <path class="fil0 str1" d="M8600 20750c0,0 0,400 0,400 0,0 -400,0 -400,0 0,0 0,-800 0,-800 0,0 1600,0 1600,0 0,0 0,-800 0,-800 0,0 -400,0 -400,0 0,0 0,400 0,400"/>
  <path class="fil0 str1" d="M9400 20750c0,0 400,0 400,0 0,0 0,400 0,400 0,0 -800,0 -800,0 0,0 0,-1600 0,-1600 0,0 -800,0 -800,0 0,0 0,400 0,400 0,0 400,0 400,0"/>
  <path class="fil0 str1" d="M8600 18750c0,0 0,400 0,400 0,0 -400,0 -400,0 0,0 0,-800 0,-800 0,0 1600,0 1600,0 0,0 0,-800 0,-800 0,0 -400,0 -400,0 0,0 0,400 0,400"/>
  <path class="fil0 str1" d="M9400 18750c0,0 400,0 400,0 0,0 0,400 0,400 0,0 -800,0 -800,0 0,0 0,-1600 0,-1600 0,0 -800,0 -800,0 0,0 0,400 0,400 0,0 400,0 400,0"/>
  <path class="fil0 str1" d="M8600 16750c0,0 0,400 0,400 0,0 -400,0 -400,0 0,0 0,-800 0,-800 0,0 1600,0 1600,0 0,0 0,-800 0,-800 0,0 -400,0 -400,0 0,0 0,400 0,400"/>
  <path class="fil0 str1" d="M9400 16750c0,0 400,0 400,0 0,0 0,400 0,400 0,0 -800,0 -800,0 0,0 0,-1600 0,-1600 0,0 -800,0 -800,0 0,0 0,400 0,400 0,0 400,0 400,0"/>
  <path class="fil0 str1" d="M8600 14750c0,0 0,400 0,400 0,0 -400,0 -400,0 0,0 0,-800 0,-800 0,0 1600,0 1600,0 0,0 0,-800 0,-800 0,0 -400,0 -400,0 0,0 0,400 0,400"/>
  <path class="fil0 str1" d="M9400 14750c0,0 400,0 400,0 0,0 0,400 0,400 0,0 -800,0 -800,0 0,0 0,-1600 0,-1600 0,0 -800,0 -800,0 0,0 0,400 0,400 0,0 400,0 400,0"/>
  <path class="fil0 str1" d="M8600 12750c0,0 0,400 0,400 0,0 -400,0 -400,0 0,0 0,-800 0,-800 0,0 1600,0 1600,0 0,0 0,-800 0,-800 0,0 -400,0 -400,0 0,0 0,400 0,400"/>
  <path class="fil0 str1" d="M9400 12750c0,0 400,0 400,0 0,0 0,400 0,400 0,0 -800,0 -800,0 0,0 0,-1600 0,-1600 0,0 -800,0 -800,0 0,0 0,400 0,400 0,0 400,0 400,0"/>
  <path class="fil0 str1" d="M8600 10750c0,0 0,400 0,400 0,0 -400,0 -400,0 0,0 0,-800 0,-800 0,0 1600,0 1600,0 0,0 0,-800 0,-800 0,0 -400,0 -400,0 0,0 0,400 0,400"/>
  <path class="fil0 str1" d="M9400 10750c0,0 400,0 400,0 0,0 0,400 0,400 0,0 -800,0 -800,0 0,0 0,-1600 0,-1600 0,0 -800,0 -800,0 0,0 0,400 0,400 0,0 400,0 400,0"/>
  <path class="fil0 str1" d="M8600 8750c0,0 0,400 0,400 0,0 -400,0 -400,0 0,0 0,-800 0,-800 0,0 1600,0 1600,0 0,0 0,-800 0,-800 0,0 -400,0 -400,0 0,0 0,400 0,400"/>
  <path class="fil0 str1" d="M9400 8750c0,0 400,0 400,0 0,0 0,400 0,400 0,0 -800,0 -800,0 0,0 0,-1600 0,-1600 0,0 -800,0 -800,0 0,0 0,400 0,400 0,0 400,0 400,0"/>
  <path class="fil0 str1" d="M8600 6750c0,0 0,400 0,400 0,0 -400,0 -400,0 0,0 0,-800 0,-800 0,0 1600,0 1600,0 0,0 0,-800 0,-800 0,0 -400,0 -400,0 0,0 0,400 0,400"/>
  <path class="fil0 str1" d="M9400 6750c0,0 400,0 400,0 0,0 0,400 0,400 0,0 -800,0 -800,0 0,0 0,-1600 0,-1600 0,0 -800,0 -800,0 0,0 0,400 0,400 0,0 400,0 400,0"/>
  <path class="fil0 str1" d="M10200 24350c0,0 1600,0 1600,0 0,0 0,-800 0,-800 0,0 -400,0 -400,0 0,0 0,400 0,400"/>
  <path class="fil0 str1" d="M11000 24350c0,0 0,-800 0,-800 0,0 -800,0 -800,0 0,0 0,400 0,400 0,0 400,0 400,0"/>
  <path class="fil0 str1" d="M10600 22750c0,0 0,400 0,400 0,0 -400,0 -400,0 0,0 0,-800 0,-800 0,0 1600,0 1600,0 0,0 0,-800 0,-800 0,0 -400,0 -400,0 0,0 0,400 0,400"/>
  <path class="fil0 str1" d="M11400 22750c0,0 400,0 400,0 0,0 0,400 0,400 0,0 -800,0 -800,0 0,0 0,-1600 0,-1600 0,0 -800,0 -800,0 0,0 0,400 0,400 0,0 400,0 400,0"/>
  <path class="fil0 str1" d="M10600 20750c0,0 0,400 0,400 0,0 -400,0 -400,0 0,0 0,-800 0,-800 0,0 1600,0 1600,0 0,0 0,-800 0,-800 0,0 -400,0 -400,0 0,0 0,400 0,400"/>
  <path class="fil0 str1" d="M11400 20750c0,0 400,0 400,0 0,0 0,400 0,400 0,0 -800,0 -800,0 0,0 0,-1600 0,-1600 0,0 -800,0 -800,0 0,0 0,400 0,400 0,0 400,0 400,0"/>
  <path class="fil0 str1" d="M10600 18750c0,0 0,400 0,400 0,0 -400,0 -400,0 0,0 0,-800 0,-800 0,0 1600,0 1600,0 0,0 0,-800 0,-800 0,0 -400,0 -400,0 0,0 0,400 0,400"/>
  <path class="fil0 str1" d="M11400 18750c0,0 400,0 400,0 0,0 0,400 0,400 0,0 -800,0 -800,0 0,0 0,-1600 0,-1600 0,0 -800,0 -800,0 0,0 0,400 0,400 0,0 400,0 400,0"/>
  <path class="fil0 str1" d="M10600 16750c0,0 0,400 0,400 0,0 -400,0 -400,0 0,0 0,-800 0,-800 0,0 1600,0 1600,0 0,0 0,-800 0,-800 0,0 -400,0 -400,0 0,0 0,400 0,400"/>
  <path class="fil0 str1" d="M11400 16750c0,0 400,0 400,0 0,0 0,400 0,400 0,0 -800,0 -800,0 0,0 0,-1600 0,-1600 0,0 -800,0 -800,0 0,0 0,400 0,400 0,0 400,0 400,0"/>
  <path class="fil0 str1" d="M10600 14750c0,0 0,400 0,400 0,0 -400,0 -400,0 0,0 0,-800 0,-800 0,0 1600,0 1600,0 0,0 0,-800 0,-800 0,0 -400,0 -400,0 0,0 0,400 0,400"/>
  <path class="fil0 str1" d="M11400 14750c0,0 400,0 400,0 0,0 0,400 0,400 0,0 -800,0 -800,0 0,0 0,-1600 0,-1600 0,0 -800,0 -800,0 0,0 0,400 0,400 0,0 400,0 400,0"/>
  <path class="fil0 str1" d="M10600 12750c0,0 0,400 0,400 0,0 -400,0 -400,0 0,0 0,-800 0,-800 0,0 1600,0 1600,0 0,0 0,-800 0,-800 0,0 -400,0 -400,0 0,0 0,400 0,400"/>
  <path class="fil0 str1" d="M11400 12750c0,0 400,0 400,0 0,0 0,400 0,400 0,0 -800,0 -800,0 0,0 0,-1600 0,-1600 0,0 -800,0 -800,0 0,0 0,400 0,400 0,0 400,0 400,0"/>
  <path class="fil0 str1" d="M10600 10750c0,0 0,400 0,400 0,0 -400,0 -400,0 0,0 0,-800 0,-800 0,0 1600,0 1600,0 0,0 0,-800 0,-800 0,0 -400,0 -400,0 0,0 0,400 0,400"/>
  <path class="fil0 str1" d="M11400 10750c0,0 400,0 400,0 0,0 0,400 0,400 0,0 -800,0 -800,0 0,0 0,-1600 0,-1600 0,0 -800,0 -800,0 0,0 0,400 0,400 0,0 400,0 400,0"/>
  <path class="fil0 str1" d="M10600 8750c0,0 0,400 0,400 0,0 -400,0 -400,0 0,0 0,-800 0,-800 0,0 1600,0 1600,0 0,0 0,-800 0,-800 0,0 -400,0 -400,0 0,0 0,400 0,400"/>
  <path class="fil0 str1" d="M11400 8750c0,0 400,0 400,0 0,0 0,400 0,400 0,0 -800,0 -800,0 0,0 0,-1600 0,-1600 0,0 -800,0 -800,0 0,0 0,400 0,400 0,0 400,0 400,0"/>
  <path class="fil0 str1" d="M10600 6750c0,0 0,400 0,400 0,0 -400,0 -400,0 0,0 0,-800 0,-800 0,0 1600,0 1600,0 0,0 0,-800 0,-800 0,0 -400,0 -400,0 0,0 0,400 0,400"/>
  <path class="fil0 str1" d="M11400 6750c0,0 400,0 400,0 0,0 0,400 0,400 0,0 -800,0 -800,0 0,0 0,-1600 0,-1600 0,0 -800,0 -800,0 0,0 0,400 0,400 0,0 400,0 400,0"/>
  <path class="fil0 str1" d="M12200 24350c0,0 1600,0 1600,0 0,0 0,-800 0,-800 0,0 -400,0 -400,0 0,0 0,400 0,400"/>
  <path class="fil0 str1" d="M13000 24350c0,0 0,-800 0,-800 0,0 -800,0 -800,0 0,0 0,400 0,400 0,0 400,0 400,0"/>
  <path class="fil0 str1" d="M12600 22750c0,0 0,400 0,400 0,0 -400,0 -400,0 0,0 0,-800 0,-800 0,0 1600,0 1600,0 0,0 0,-800 0,-800 0,0 -400,0 -400,0 0,0 0,400 0,400"/>
  <path class="fil0 str1" d="M13400 22750c0,0 400,0 400,0 0,0 0,400 0,400 0,0 -800,0 -800,0 0,0 0,-1600 0,-1600 0,0 -800,0 -800,0 0,0 0,400 0,400 0,0 400,0 400,0"/>
  <path class="fil0 str1" d="M12600 20750c0,0 0,400 0,400 0,0 -400,0 -400,0 0,0 0,-800 0,-800 0,0 1600,0 1600,0 0,0 0,-800 0,-800 0,0 -400,0 -400,0 0,0 0,400 0,400"/>
  <path class="fil0 str1" d="M13400 20750c0,0 400,0 400,0 0,0 0,400 0,400 0,0 -800,0 -800,0 0,0 0,-1600 0,-1600 0,0 -800,0 -800,0 0,0 0,400 0,400 0,0 400,0 400,0"/>
  <path class="fil0 str1" d="M12600 18750c0,0 0,400 0,400 0,0 -400,0 -400,0 0,0 0,-800 0,-800 0,0 1600,0 1600,0 0,0 0,-800 0,-800 0,0 -400,0 -400,0 0,0 0,400 0,400"/>
  <path class="fil0 str1" d="M13400 18750c0,0 400,0 400,0 0,0 0,400 0,400 0,0 -800,0 -800,0 0,0 0,-1600 0,-1600 0,0 -800,0 -800,0 0,0 0,400 0,400 0,0 400,0 400,0"/>
  <path class="fil0 str1" d="M12600 16750c0,0 0,400 0,400 0,0 -400,0 -400,0 0,0 0,-800 0,-800 0,0 1600,0 1600,0 0,0 0,-800 0,-800 0,0 -400,0 -400,0 0,0 0,400 0,400"/>
  <path class="fil0 str1" d="M13400 16750c0,0 400,0 400,0 0,0 0,400 0,400 0,0 -800,0 -800,0 0,0 0,-1600 0,-1600 0,0 -800,0 -800,0 0,0 0,400 0,400 0,0 400,0 400,0"/>
  <path class="fil0 str1" d="M12600 14750c0,0 0,400 0,400 0,0 -400,0 -400,0 0,0 0,-800 0,-800 0,0 1600,0 1600,0 0,0 0,-800 0,-800 0,0 -400,0 -400,0 0,0 0,400 0,400"/>
  <path class="fil0 str1" d="M13400 14750c0,0 400,0 400,0 0,0 0,400 0,400 0,0 -800,0 -800,0 0,0 0,-1600 0,-1600 0,0 -800,0 -800,0 0,0 0,400 0,400 0,0 400,0 400,0"/>
  <path class="fil0 str1" d="M12600 12750c0,0 0,400 0,400 0,0 -400,0 -400,0 0,0 0,-800 0,-800 0,0 1600,0 1600,0 0,0 0,-800 0,-800 0,0 -400,0 -400,0 0,0 0,400 0,400"/>
  <path class="fil0 str1" d="M13400 12750c0,0 400,0 400,0 0,0 0,400 0,400 0,0 -800,0 -800,0 0,0 0,-1600 0,-1600 0,0 -800,0 -800,0 0,0 0,400 0,400 0,0 400,0 400,0"/>
  <path class="fil0 str1" d="M12600 10750c0,0 0,400 0,400 0,0 -400,0 -400,0 0,0 0,-800 0,-800 0,0 1600,0 1600,0 0,0 0,-800 0,-800 0,0 -400,0 -400,0 0,0 0,400 0,400"/>
  <path class="fil0 str1" d="M13400 10750c0,0 400,0 400,0 0,0 0,400 0,400 0,0 -800,0 -800,0 0,0 0,-1600 0,-1600 0,0 -800,0 -800,0 0,0 0,400 0,400 0,0 400,0 400,0"/>
  <path class="fil0 str1" d="M12600 8750c0,0 0,400 0,400 0,0 -400,0 -400,0 0,0 0,-800 0,-800 0,0 1600,0 1600,0 0,0 0,-800 0,-800 0,0 -400,0 -400,0 0,0 0,400 0,400"/>
  <path class="fil0 str1" d="M13400 8750c0,0 400,0 400,0 0,0 0,400 0,400 0,0 -800,0 -800,0 0,0 0,-1600 0,-1600 0,0 -800,0 -800,0 0,0 0,400 0,400 0,0 400,0 400,0"/>
  <path class="fil0 str1" d="M12600 6750c0,0 0,400 0,400 0,0 -400,0 -400,0 0,0 0,-800 0,-800 0,0 1600,0 1600,0 0,0 0,-800 0,-800 0,0 -400,0 -400,0 0,0 0,400 0,400"/>
  <path class="fil0 str1" d="M13400 6750c0,0 400,0 400,0 0,0 0,400 0,400 0,0 -800,0 -800,0 0,0 0,-1600 0,-1600 0,0 -800,0 -800,0 0,0 0,400 0,400 0,0 400,0 400,0"/>
  <path class="fil0 str1" d="M14200 24350c0,0 1600,0 1600,0 0,0 0,-800 0,-800 0,0 -400,0 -400,0 0,0 0,400 0,400"/>
  <path class="fil0 str1" d="M15000 24350c0,0 0,-800 0,-800 0,0 -800,0 -800,0 0,0 0,400 0,400 0,0 400,0 400,0"/>
  <path class="fil0 str1" d="M14600 22750c0,0 0,400 0,400 0,0 -400,0 -400,0 0,0 0,-800 0,-800 0,0 1600,0 1600,0 0,0 0,-800 0,-800 0,0 -400,0 -400,0 0,0 0,400 0,400"/>
  <path class="fil0 str1" d="M15400 22750c0,0 400,0 400,0 0,0 0,400 0,400 0,0 -800,0 -800,0 0,0 0,-1600 0,-1600 0,0 -800,0 -800,0 0,0 0,400 0,400 0,0 400,0 400,0"/>
  <path class="fil0 str1" d="M14600 20750c0,0 0,400 0,400 0,0 -400,0 -400,0 0,0 0,-800 0,-800 0,0 1600,0 1600,0 0,0 0,-800 0,-800 0,0 -400,0 -400,0 0,0 0,400 0,400"/>
  <path class="fil0 str1" d="M15400 20750c0,0 400,0 400,0 0,0 0,400 0,400 0,0 -800,0 -800,0 0,0 0,-1600 0,-1600 0,0 -800,0 -800,0 0,0 0,400 0,400 0,0 400,0 400,0"/>
  <path class="fil0 str1" d="M14600 18750c0,0 0,400 0,400 0,0 -400,0 -400,0 0,0 0,-800 0,-800 0,0 1600,0 1600,0 0,0 0,-800 0,-800 0,0 -400,0 -400,0 0,0 0,400 0,400"/>
  <path class="fil0 str1" d="M15400 18750c0,0 400,0 400,0 0,0 0,400 0,400 0,0 -800,0 -800,0 0,0 0,-1600 0,-1600 0,0 -800,0 -800,0 0,0 0,400 0,400 0,0 400,0 400,0"/>
  <path class="fil0 str1" d="M14600 16750c0,0 0,400 0,400 0,0 -400,0 -400,0 0,0 0,-800 0,-800 0,0 1600,0 1600,0 0,0 0,-800 0,-800 0,0 -400,0 -400,0 0,0 0,400 0,400"/>
  <path class="fil0 str1" d="M15400 16750c0,0 400,0 400,0 0,0 0,400 0,400 0,0 -800,0 -800,0 0,0 0,-1600 0,-1600 0,0 -800,0 -800,0 0,0 0,400 0,400 0,0 400,0 400,0"/>
  <path class="fil0 str1" d="M14600 14750c0,0 0,400 0,400 0,0 -400,0 -400,0 0,0 0,-800 0,-800 0,0 1600,0 1600,0 0,0 0,-800 0,-800 0,0 -400,0 -400,0 0,0 0,400 0,400"/>
  <path class="fil0 str1" d="M15400 14750c0,0 400,0 400,0 0,0 0,400 0,400 0,0 -800,0 -800,0 0,0 0,-1600 0,-1600 0,0 -800,0 -800,0 0,0 0,400 0,400 0,0 400,0 400,0"/>
  <path class="fil0 str1" d="M14600 12750c0,0 0,400 0,400 0,0 -400,0 -400,0 0,0 0,-800 0,-800 0,0 1600,0 1600,0 0,0 0,-800 0,-800 0,0 -400,0 -400,0 0,0 0,400 0,400"/>
  <path class="fil0 str1" d="M15400 12750c0,0 400,0 400,0 0,0 0,400 0,400 0,0 -800,0 -800,0 0,0 0,-1600 0,-1600 0,0 -800,0 -800,0 0,0 0,400 0,400 0,0 400,0 400,0"/>
  <path class="fil0 str1" d="M14600 10750c0,0 0,400 0,400 0,0 -400,0 -400,0 0,0 0,-800 0,-800 0,0 1600,0 1600,0 0,0 0,-800 0,-800 0,0 -400,0 -400,0 0,0 0,400 0,400"/>
  <path class="fil0 str1" d="M15400 10750c0,0 400,0 400,0 0,0 0,400 0,400 0,0 -800,0 -800,0 0,0 0,-1600 0,-1600 0,0 -800,0 -800,0 0,0 0,400 0,400 0,0 400,0 400,0"/>
  <path class="fil0 str1" d="M14600 8750c0,0 0,400 0,400 0,0 -400,0 -400,0 0,0 0,-800 0,-800 0,0 1600,0 1600,0 0,0 0,-800 0,-800 0,0 -400,0 -400,0 0,0 0,400 0,400"/>
  <path class="fil0 str1" d="M15400 8750c0,0 400,0 400,0 0,0 0,400 0,400 0,0 -800,0 -800,0 0,0 0,-1600 0,-1600 0,0 -800,0 -800,0 0,0 0,400 0,400 0,0 400,0 400,0"/>
  <path class="fil0 str1" d="M14600 6750c0,0 0,400 0,400 0,0 -400,0 -400,0 0,0 0,-800 0,-800 0,0 1600,0 1600,0 0,0 0,-800 0,-800 0,0 -400,0 -400,0 0,0 0,400 0,400"/>
  <path class="fil0 str1" d="M15400 6750c0,0 400,0 400,0 0,0 0,400 0,400 0,0 -800,0 -800,0 0,0 0,-1600 0,-1600 0,0 -800,0 -800,0 0,0 0,400 0,400 0,0 400,0 400,0"/>
  <path class="fil0 str1" d="M16200 24350c0,0 1600,0 1600,0 0,0 0,-800 0,-800 0,0 -400,0 -400,0 0,0 0,400 0,400"/>
  <path class="fil0 str1" d="M17000 24350c0,0 0,-800 0,-800 0,0 -800,0 -800,0 0,0 0,400 0,400 0,0 400,0 400,0"/>
  <path class="fil0 str1" d="M16600 22750c0,0 0,400 0,400 0,0 -400,0 -400,0 0,0 0,-800 0,-800 0,0 1600,0 1600,0 0,0 0,-800 0,-800 0,0 -400,0 -400,0 0,0 0,400 0,400"/>
  <path class="fil0 str1" d="M17400 22750c0,0 400,0 400,0 0,0 0,400 0,400 0,0 -800,0 -800,0 0,0 0,-1600 0,-1600 0,0 -800,0 -800,0 0,0 0,400 0,400 0,0 400,0 400,0"/>
  <path class="fil0 str1" d="M16600 20750c0,0 0,400 0,400 0,0 -400,0 -400,0 0,0 0,-800 0,-800 0,0 1600,0 1600,0 0,0 0,-800 0,-800 0,0 -400,0 -400,0 0,0 0,400 0,400"/>
  <path class="fil0 str1" d="M17400 20750c0,0 400,0 400,0 0,0 0,400 0,400 0,0 -800,0 -800,0 0,0 0,-1600 0,-1600 0,0 -800,0 -800,0 0,0 0,400 0,400 0,0 400,0 400,0"/>
  <path class="fil0 str1" d="M16600 18750c0,0 0,400 0,400 0,0 -400,0 -400,0 0,0 0,-800 0,-800 0,0 1600,0 1600,0 0,0 0,-800 0,-800 0,0 -400,0 -400,0 0,0 0,400 0,400"/>
  <path class="fil0 str1" d="M17400 18750c0,0 400,0 400,0 0,0 0,400 0,400 0,0 -800,0 -800,0 0,0 0,-1600 0,-1600 0,0 -800,0 -800,0 0,0 0,400 0,400 0,0 400,0 400,0"/>
  <path class="fil0 str1" d="M16600 16750c0,0 0,400 0,400 0,0 -400,0 -400,0 0,0 0,-800 0,-800 0,0 1600,0 1600,0 0,0 0,-800 0,-800 0,0 -400,0 -400,0 0,0 0,400 0,400"/>
  <path class="fil0 str1" d="M17400 16750c0,0 400,0 400,0 0,0 0,400 0,400 0,0 -800,0 -800,0 0,0 0,-1600 0,-1600 0,0 -800,0 -800,0 0,0 0,400 0,400 0,0 400,0 400,0"/>
  <path class="fil0 str1" d="M16600 14750c0,0 0,400 0,400 0,0 -400,0 -400,0 0,0 0,-800 0,-800 0,0 1600,0 1600,0 0,0 0,-800 0,-800 0,0 -400,0 -400,0 0,0 0,400 0,400"/>
  <path class="fil0 str1" d="M17400 14750c0,0 400,0 400,0 0,0 0,400 0,400 0,0 -800,0 -800,0 0,0 0,-1600 0,-1600 0,0 -800,0 -800,0 0,0 0,400 0,400 0,0 400,0 400,0"/>
  <path class="fil0 str1" d="M16600 12750c0,0 0,400 0,400 0,0 -400,0 -400,0 0,0 0,-800 0,-800 0,0 1600,0 1600,0 0,0 0,-800 0,-800 0,0 -400,0 -400,0 0,0 0,400 0,400"/>
  <path class="fil0 str1" d="M17400 12750c0,0 400,0 400,0 0,0 0,400 0,400 0,0 -800,0 -800,0 0,0 0,-1600 0,-1600 0,0 -800,0 -800,0 0,0 0,400 0,400 0,0 400,0 400,0"/>
  <path class="fil0 str1" d="M16600 10750c0,0 0,400 0,400 0,0 -400,0 -400,0 0,0 0,-800 0,-800 0,0 1600,0 1600,0 0,0 0,-800 0,-800 0,0 -400,0 -400,0 0,0 0,400 0,400"/>
  <path class="fil0 str1" d="M17400 10750c0,0 400,0 400,0 0,0 0,400 0,400 0,0 -800,0 -800,0 0,0 0,-1600 0,-1600 0,0 -800,0 -800,0 0,0 0,400 0,400 0,0 400,0 400,0"/>
  <path class="fil0 str1" d="M16600 8750c0,0 0,400 0,400 0,0 -400,0 -400,0 0,0 0,-800 0,-800 0,0 1600,0 1600,0 0,0 0,-800 0,-800 0,0 -400,0 -400,0 0,0 0,400 0,400"/>
  <path class="fil0 str1" d="M17400 8750c0,0 400,0 400,0 0,0 0,400 0,400 0,0 -800,0 -800,0 0,0 0,-1600 0,-1600 0,0 -800,0 -800,0 0,0 0,400 0,400 0,0 400,0 400,0"/>
  <path class="fil0 str1" d="M16600 6750c0,0 0,400 0,400 0,0 -400,0 -400,0 0,0 0,-800 0,-800 0,0 1600,0 1600,0 0,0 0,-800 0,-800 0,0 -400,0 -400,0 0,0 0,400 0,400"/>
  <path class="fil0 str1" d="M17400 6750c0,0 400,0 400,0 0,0 0,400 0,400 0,0 -800,0 -800,0 0,0 0,-1600 0,-1600 0,0 -800,0 -800,0 0,0 0,400 0,400 0,0 400,0 400,0"/>
  <path class="fil0 str1" d="M18200 24350c0,0 1600,0 1600,0 0,0 0,-800 0,-800 0,0 -400,0 -400,0 0,0 0,400 0,400"/>
  <path class="fil0 str1" d="M19000 24350c0,0 0,-800 0,-800 0,0 -800,0 -800,0 0,0 0,400 0,400 0,0 400,0 400,0"/>
  <path class="fil0 str1" d="M18600 22750c0,0 0,400 0,400 0,0 -400,0 -400,0 0,0 0,-800 0,-800 0,0 1600,0 1600,0 0,0 0,-800 0,-800 0,0 -400,0 -400,0 0,0 0,400 0,400"/>
  <path class="fil0 str1" d="M19400 22750c0,0 400,0 400,0 0,0 0,400 0,400 0,0 -800,0 -800,0 0,0 0,-1600 0,-1600 0,0 -800,0 -800,0 0,0 0,400 0,400 0,0 400,0 400,0"/>
  <path class="fil0 str1" d="M18600 20750c0,0 0,400 0,400 0,0 -400,0 -400,0 0,0 0,-800 0,-800 0,0 1600,0 1600,0 0,0 0,-800 0,-800 0,0 -400,0 -400,0 0,0 0,400 0,400"/>
  <path class="fil0 str1" d="M19400 20750c0,0 400,0 400,0 0,0 0,400 0,400 0,0 -800,0 -800,0 0,0 0,-1600 0,-1600 0,0 -800,0 -800,0 0,0 0,400 0,400 0,0 400,0 400,0"/>
  <path class="fil0 str1" d="M18600 18750c0,0 0,400 0,400 0,0 -400,0 -400,0 0,0 0,-800 0,-800 0,0 1600,0 1600,0 0,0 0,-800 0,-800 0,0 -400,0 -400,0 0,0 0,400 0,400"/>
  <path class="fil0 str1" d="M19400 18750c0,0 400,0 400,0 0,0 0,400 0,400 0,0 -800,0 -800,0 0,0 0,-1600 0,-1600 0,0 -800,0 -800,0 0,0 0,400 0,400 0,0 400,0 400,0"/>
  <path class="fil0 str1" d="M18600 16750c0,0 0,400 0,400 0,0 -400,0 -400,0 0,0 0,-800 0,-800 0,0 1600,0 1600,0 0,0 0,-800 0,-800 0,0 -400,0 -400,0 0,0 0,400 0,400"/>
  <path class="fil0 str1" d="M19400 16750c0,0 400,0 400,0 0,0 0,400 0,400 0,0 -800,0 -800,0 0,0 0,-1600 0,-1600 0,0 -800,0 -800,0 0,0 0,400 0,400 0,0 400,0 400,0"/>
  <path class="fil0 str1" d="M18600 14750c0,0 0,400 0,400 0,0 -400,0 -400,0 0,0 0,-800 0,-800 0,0 1600,0 1600,0 0,0 0,-800 0,-800 0,0 -400,0 -400,0 0,0 0,400 0,400"/>
  <path class="fil0 str1" d="M19400 14750c0,0 400,0 400,0 0,0 0,400 0,400 0,0 -800,0 -800,0 0,0 0,-1600 0,-1600 0,0 -800,0 -800,0 0,0 0,400 0,400 0,0 400,0 400,0"/>
  <path class="fil0 str1" d="M18600 12750c0,0 0,400 0,400 0,0 -400,0 -400,0 0,0 0,-800 0,-800 0,0 1600,0 1600,0 0,0 0,-800 0,-800 0,0 -400,0 -400,0 0,0 0,400 0,400"/>
  <path class="fil0 str1" d="M19400 12750c0,0 400,0 400,0 0,0 0,400 0,400 0,0 -800,0 -800,0 0,0 0,-1600 0,-1600 0,0 -800,0 -800,0 0,0 0,400 0,400 0,0 400,0 400,0"/>
  <path class="fil0 str1" d="M18600 10750c0,0 0,400 0,400 0,0 -400,0 -400,0 0,0 0,-800 0,-800 0,0 1600,0 1600,0 0,0 0,-800 0,-800 0,0 -400,0 -400,0 0,0 0,400 0,400"/>
  <path class="fil0 str1" d="M19400 10750c0,0 400,0 400,0 0,0 0,400 0,400 0,0 -800,0 -800,0 0,0 0,-1600 0,-1600 0,0 -800,0 -800,0 0,0 0,400 0,400 0,0 400,0 400,0"/>
  <path class="fil0 str1" d="M18600 8750c0,0 0,400 0,400 0,0 -400,0 -400,0 0,0 0,-800 0,-800 0,0 1600,0 1600,0 0,0 0,-800 0,-800 0,0 -400,0 -400,0 0,0 0,400 0,400"/>
  <path class="fil0 str1" d="M19400 8750c0,0 400,0 400,0 0,0 0,400 0,400 0,0 -800,0 -800,0 0,0 0,-1600 0,-1600 0,0 -800,0 -800,0 0,0 0,400 0,400 0,0 400,0 400,0"/>
  <path class="fil0 str1" d="M18600 6750c0,0 0,400 0,400 0,0 -400,0 -400,0 0,0 0,-800 0,-800 0,0 1600,0 1600,0 0,0 0,-800 0,-800 0,0 -400,0 -400,0 0,0 0,400 0,400"/>
  <path class="fil0 str1" d="M19400 6750c0,0 400,0 400,0 0,0 0,400 0,400 0,0 -800,0 -800,0 0,0 0,-1600 0,-1600 0,0 -800,0 -800,0 0,0 0,400 0,400 0,0 400,0 400,0"/>
  <path class="fil0 str2" d="M1000 24350c0,0 19000,0 19000,0 0,0 0,-19000 0,-19000 0,0 -19000,0 -19000,0 0,0 0,19000 0,19000z"/>
 </g>
</svg>
