999
dxflib 3.12.2.0
  0
SECTION
  2
HEADER
  9
$ACADVER
  1
AC1015
  9
$HANDSEED
  5
FFFF
  9
$DIMADEC
 70
0
  9
$DIMASZ
 40
2.5
  9
$DIMAUNIT
 70
0
  9
$DIMAZIN
 70
2
  9
$DIMDEC
 70
4
  9
$DIMEXE
 40
1.25
  9
$DIMEXO
 40
0.625
  9
$DIMGAP
 40
0.625
  9
$DIMLUNIT
 70
2
  9
$DIMSCALE
 40
1.0
  9
$DIMTSZ
 40
0.0
  9
$DIMTXT
 40
2.5
  9
$DIMZIN
 70
8
  9
$DWGCODEPAGE
  3
ANSI_1252
  9
$INSUNITS
 70
4
  9
$LTSCALE
 40
1.0
  9
$MEASUREMENT
 70
1
  9
$PDMODE
 70
0
  9
$PDSIZE
 40
0
  0
ENDSEC
  0
SECTION
  2
TABLES
  0
TABLE
  2
VPORT
  5
8
100
AcDbSymbolTable
 70
1
  0
VPORT
  5
30
100
AcDbSymbolTableRecord
100
AcDbViewportTableRecord
  2
*Active
 70
0
 10
0.0
 20
0.0
 11
1.0
 21
1.0
 12
286.3055555555554861
 22
148.5
 13
0.0
 23
0.0
 14
10.0
 24
10.0
 15
10.0
 25
10.0
 16
0.0
 26
0.0
 36
1.0
 17
0.0
 27
0.0
 37
0.0
 40
297.0
 41
1.92798353909465
 42
50.0
 43
0.0
 44
0.0
 50
0.0
 51
0.0
 71
0
 72
100
 73
1
 74
3
 75
1
 76
1
 77
0
 78
0
281
0
 65
1
110
0.0
120
0.0
130
0.0
111
1.0
121
0.0
131
0.0
112
0.0
122
1.0
132
0.0
 79
0
146
0.0
  0
ENDTAB
  0
TABLE
  2
LTYPE
  5
5
100
AcDbSymbolTable
 70
54
  0
LTYPE
  5
16
100
AcDbSymbolTableRecord
100
AcDbLinetypeTableRecord
  2
Continuous
 70
0
  3
Solid line
 72
65
 73
0
 40
0.0
  0
LTYPE
  5
31
100
AcDbSymbolTableRecord
100
AcDbLinetypeTableRecord
  2
DOTX2
 70
0
  3
Dot (2x) .  .  .  .  .  .  .  .  .  .  .  .  .  .
 72
65
 73
2
 40
12.6999999999999993
 49
0.0
 74
0
 49
-12.6999999999999993
 74
0
  0
LTYPE
  5
32
100
AcDbSymbolTableRecord
100
AcDbLinetypeTableRecord
  2
ACAD_ISO04W100
 70
0
  3
ISO long-dash dot ____ . ____ . ____ . ____ . _
 72
65
 73
4
 40
30.0
 49
24.0
 74
0
 49
-3.0
 74
0
 49
0.0
 74
0
 49
-3.0
 74
0
  0
LTYPE
  5
33
100
AcDbSymbolTableRecord
100
AcDbLinetypeTableRecord
  2
HIDDENX2
 70
0
  3
Hidden (2x) ____ ____ ____ ____ ____ ____ ____ 
 72
65
 73
2
 40
19.0499999999999972
 49
12.6999999999999993
 74
0
 49
-6.3499999999999996
 74
0
  0
LTYPE
  5
34
100
AcDbSymbolTableRecord
100
AcDbLinetypeTableRecord
  2
DRAINAGE2
 70
0
  3
Drainage reversed----<----<----<----
 72
65
 73
2
 40
10.1600000000000001
 49
5.0800000000000001
 74
0
 49
5.0800000000000001
 74
0
  0
LTYPE
  5
35
100
AcDbSymbolTableRecord
100
AcDbLinetypeTableRecord
  2
PHANTOMX2
 70
0
  3
Phantom (2x) ____________    ____    ____   _
 72
65
 73
6
 40
127.0000000000000142
 49
63.5
 74
0
 49
-12.6999999999999993
 74
0
 49
12.6999999999999993
 74
0
 49
-12.6999999999999993
 74
0
 49
12.6999999999999993
 74
0
 49
-12.6999999999999993
 74
0
  0
LTYPE
  5
36
100
AcDbSymbolTableRecord
100
AcDbLinetypeTableRecord
  2
ACAD_ISO11W100
 70
0
  3
ISO double-dash dot __ __ . __ __ . __ __ . __ _
 72
65
 73
6
 40
33.0
 49
12.0
 74
0
 49
-3.0
 74
0
 49
12.0
 74
0
 49
-3.0
 74
0
 49
0.0
 74
0
 49
-3.0
 74
0
  0
LTYPE
  5
15
100
AcDbSymbolTableRecord
100
AcDbLinetypeTableRecord
  2
BYLAYER
 70
0
  3

 72
65
 73
0
 40
0.0
  0
LTYPE
  5
37
100
AcDbSymbolTableRecord
100
AcDbLinetypeTableRecord
  2
DASHEDX2
 70
0
  3
Dashed (2x) ____  ____  ____  ____  ____  ___
 72
65
 73
2
 40
38.0999999999999943
 49
25.3999999999999986
 74
0
 49
-12.6999999999999993
 74
0
  0
LTYPE
  5
38
100
AcDbSymbolTableRecord
100
AcDbLinetypeTableRecord
  2
ACAD_ISO03W100
 70
0
  3
ISO dash space __    __    __    __    __    __
 72
65
 73
2
 40
30.0
 49
12.0
 74
0
 49
-18.0
 74
0
  0
LTYPE
  5
39
100
AcDbSymbolTableRecord
100
AcDbLinetypeTableRecord
  2
CENTER
 70
0
  3
Center ____ _ ____ _ ____ _ ____ _ ____ _ ____
 72
65
 73
4
 40
50.8000000000000043
 49
31.75
 74
0
 49
-6.3499999999999996
 74
0
 49
6.3499999999999996
 74
0
 49
-6.3499999999999996
 74
0
  0
LTYPE
  5
3A
100
AcDbSymbolTableRecord
100
AcDbLinetypeTableRecord
  2
DRAINAGE
 70
0
  3
Drainage ---->---->---->----
 72
65
 73
2
 40
10.1600000000000001
 49
5.0800000000000001
 74
0
 49
5.0800000000000001
 74
0
  0
LTYPE
  5
3B
100
AcDbSymbolTableRecord
100
AcDbLinetypeTableRecord
  2
CENTER2
 70
0
  3
Center (.5x) ___ _ ___ _ ___ _ ___ _ ___ _ ___
 72
65
 73
4
 40
28.5750000000000028
 49
19.0500000000000007
 74
0
 49
-3.1749999999999998
 74
0
 49
3.1749999999999998
 74
0
 49
-3.1749999999999998
 74
0
  0
LTYPE
  5
3C
100
AcDbSymbolTableRecord
100
AcDbLinetypeTableRecord
  2
DIVIDE
 70
0
  3
Divide ____ . . ____ . . ____ . . ____ . . ____
 72
65
 73
6
 40
31.75
 49
12.6999999999999993
 74
0
 49
-6.3499999999999996
 74
0
 49
0.0
 74
0
 49
-6.3499999999999996
 74
0
 49
0.0
 74
0
 49
-6.3499999999999996
 74
0
  0
LTYPE
  5
3D
100
AcDbSymbolTableRecord
100
AcDbLinetypeTableRecord
  2
DASHED
 70
0
  3
Dashed __ __ __ __ __ __ __ __ __ __ __ __ __ _
 72
65
 73
2
 40
19.0499999999999972
 49
12.6999999999999993
 74
0
 49
-6.3499999999999996
 74
0
  0
LTYPE
  5
3E
100
AcDbSymbolTableRecord
100
AcDbLinetypeTableRecord
  2
ACAD_ISO10W100
 70
0
  3
ISO dash dot __ . __ . __ . __ . __ . __ . __ . 
 72
65
 73
4
 40
18.0
 49
12.0
 74
0
 49
-3.0
 74
0
 49
0.0
 74
0
 49
-3.0
 74
0
  0
LTYPE
  5
3F
100
AcDbSymbolTableRecord
100
AcDbLinetypeTableRecord
  2
CUTLEFT2
 70
0
  3
G41 reversed----/----/----/----
 72
65
 73
2
 40
10.1600000000000001
 49
5.0800000000000001
 74
0
 49
5.0800000000000001
 74
0
  0
LTYPE
  5
40
100
AcDbSymbolTableRecord
100
AcDbLinetypeTableRecord
  2
ACAD_ISO02W100
 70
0
  3
ISO dash __ __ __ __ __ __ __ __ __ __ __ __ __
 72
65
 73
2
 40
15.0
 49
12.0
 74
0
 49
-3.0
 74
0
  0
LTYPE
  5
41
100
AcDbSymbolTableRecord
100
AcDbLinetypeTableRecord
  2
DOT2
 70
0
  3
Dot (.5x) ........................................
 72
65
 73
2
 40
3.1749999999999998
 49
0.0
 74
0
 49
-3.1749999999999998
 74
0
  0
LTYPE
  5
42
100
AcDbSymbolTableRecord
100
AcDbLinetypeTableRecord
  2
DOT
 70
0
  3
Dot . . . . . . . . . . . . . . . . . . . . . . . .
 72
65
 73
2
 40
6.3499999999999996
 49
0.0
 74
0
 49
-6.3499999999999996
 74
0
  0
LTYPE
  5
43
100
AcDbSymbolTableRecord
100
AcDbLinetypeTableRecord
  2
DASHDOT
 70
0
  3
Dash dot __ . __ . __ . __ . __ . __ . __ . __
 72
65
 73
4
 40
25.3999999999999986
 49
12.6999999999999993
 74
0
 49
-6.3499999999999996
 74
0
 49
0.0
 74
0
 49
-6.3499999999999996
 74
0
  0
LTYPE
  5
44
100
AcDbSymbolTableRecord
100
AcDbLinetypeTableRecord
  2
DIVIDEX2
 70
0
  3
Divide (2x) ________  .  .  ________  .  .  _
 72
65
 73
6
 40
63.5
 49
25.3999999999999986
 74
0
 49
-12.6999999999999993
 74
0
 49
0.0
 74
0
 49
-12.6999999999999993
 74
0
 49
0.0
 74
0
 49
-12.6999999999999993
 74
0
  0
LTYPE
  5
45
100
AcDbSymbolTableRecord
100
AcDbLinetypeTableRecord
  2
TRACKS
 70
0
  3
Tracks -|-|-|-|-|-|-|-|-|-|-|-|-|-|-|-|-|-|-|-|-|-|-|-|-
 72
65
 73
2
 40
7.6200000000000001
 49
3.8100000000000001
 74
0
 49
3.8100000000000001
 74
0
  0
LTYPE
  5
46
100
AcDbSymbolTableRecord
100
AcDbLinetypeTableRecord
  2
FENCELINE1
 70
0
  3
Fenceline circle ----0-----0----0-----0----0-----0--
 72
65
 73
4
 40
36.8299999999999983
 49
6.3499999999999996
 74
0
 49
-2.54
 74
0
 49
-2.54
 74
0
 49
25.3999999999999986
 74
0
  0
LTYPE
  5
47
100
AcDbSymbolTableRecord
100
AcDbLinetypeTableRecord
  2
FENCELINE2
 70
0
  3
Fenceline square ----[]-----[]----[]-----[]----[]---
 72
65
 73
4
 40
36.8299999999999983
 49
6.3499999999999996
 74
0
 49
-2.54
 74
0
 49
-2.54
 74
0
 49
25.3999999999999986
 74
0
  0
LTYPE
  5
48
100
AcDbSymbolTableRecord
100
AcDbLinetypeTableRecord
  2
HOT_WATER_SUPPLY
 70
0
  3
Hot water supply ---- HW ---- HW ---- HW ----
 72
65
 73
3
 40
22.8599999999999994
 49
12.6999999999999993
 74
0
 49
-5.0800000000000001
 74
0
 49
-5.0800000000000001
 74
0
  0
LTYPE
  5
49
100
AcDbSymbolTableRecord
100
AcDbLinetypeTableRecord
  2
PHANTOM
 70
0
  3
Phantom ______  __  __  ______  __  __  ______ 
 72
65
 73
6
 40
63.5000000000000071
 49
31.75
 74
0
 49
-6.3499999999999996
 74
0
 49
6.3499999999999996
 74
0
 49
-6.3499999999999996
 74
0
 49
6.3499999999999996
 74
0
 49
-6.3499999999999996
 74
0
  0
LTYPE
  5
4A
100
AcDbSymbolTableRecord
100
AcDbLinetypeTableRecord
  2
DASHDOT2
 70
0
  3
Dash dot (.5x) _._._._._._._._._._._._._._._.
 72
65
 73
4
 40
12.6999999999999993
 49
6.3499999999999996
 74
0
 49
-3.1749999999999998
 74
0
 49
0.0
 74
0
 49
-3.1749999999999998
 74
0
  0
LTYPE
  5
4B
100
AcDbSymbolTableRecord
100
AcDbLinetypeTableRecord
  2
BORDER
 70
0
  3
Border __ __ . __ __ . __ __ . __ __ . __ __ .
 72
65
 73
6
 40
44.4499999999999957
 49
12.6999999999999993
 74
0
 49
-6.3499999999999996
 74
0
 49
12.6999999999999993
 74
0
 49
-6.3499999999999996
 74
0
 49
0.0
 74
0
 49
-6.3499999999999996
 74
0
  0
LTYPE
  5
4C
100
AcDbSymbolTableRecord
100
AcDbLinetypeTableRecord
  2
CUTRIGHT2
 70
0
  3
G42 reversed----\----\----\----
 72
65
 73
2
 40
10.1600000000000001
 49
5.0800000000000001
 74
0
 49
5.0800000000000001
 74
0
  0
LTYPE
  5
4D
100
AcDbSymbolTableRecord
100
AcDbLinetypeTableRecord
  2
CUTRIGHT
 70
0
  3
G42 ----/----/-----/---
 72
65
 73
2
 40
10.1600000000000001
 49
5.0800000000000001
 74
0
 49
5.0800000000000001
 74
0
  0
LTYPE
  5
4E
100
AcDbSymbolTableRecord
100
AcDbLinetypeTableRecord
  2
BORDER2
 70
0
  3
Border (.5x) __.__.__.__.__.__.__.__.__.__.__.
 72
65
 73
6
 40
22.2249999999999979
 49
6.3499999999999996
 74
0
 49
-3.1749999999999998
 74
0
 49
6.3499999999999996
 74
0
 49
-3.1749999999999998
 74
0
 49
0.0
 74
0
 49
-3.1749999999999998
 74
0
  0
LTYPE
  5
4F
100
AcDbSymbolTableRecord
100
AcDbLinetypeTableRecord
  2
ACAD_ISO09W100
 70
0
  3
ISO long-dash double-short-dash ____ __ __ ____
 72
65
 73
6
 40
45.0
 49
24.0
 74
0
 49
-3.0
 74
0
 49
6.0
 74
0
 49
-3.0
 74
0
 49
6.0
 74
0
 49
-3.0
 74
0
  0
LTYPE
  5
50
100
AcDbSymbolTableRecord
100
AcDbLinetypeTableRecord
  2
CUTLEFT
 70
0
  3
G41 ----\----\----\----
 72
65
 73
2
 40
10.1600000000000001
 49
5.0800000000000001
 74
0
 49
5.0800000000000001
 74
0
  0
LTYPE
  5
51
100
AcDbSymbolTableRecord
100
AcDbLinetypeTableRecord
  2
DIVIDE2
 70
0
  3
Divide (.5x) __..__..__..__..__..__..__..__.._
 72
65
 73
6
 40
15.875
 49
6.3499999999999996
 74
0
 49
-3.1749999999999998
 74
0
 49
0.0
 74
0
 49
-3.1749999999999998
 74
0
 49
0.0
 74
0
 49
-3.1749999999999998
 74
0
  0
LTYPE
  5
52
100
AcDbSymbolTableRecord
100
AcDbLinetypeTableRecord
  2
HIDDEN
 70
0
  3
Hidden __ __ __ __ __ __ __ __ __ __ __ __ __ __
 72
65
 73
2
 40
9.5249999999999986
 49
6.3499999999999996
 74
0
 49
-3.1749999999999998
 74
0
  0
LTYPE
  5
53
100
AcDbSymbolTableRecord
100
AcDbLinetypeTableRecord
  2
ACAD_ISO08W100
 70
0
  3
ISO long-dash short-dash ____ __ ____ __ ____ _
 72
65
 73
4
 40
36.0
 49
24.0
 74
0
 49
-3.0
 74
0
 49
6.0
 74
0
 49
-3.0
 74
0
  0
LTYPE
  5
54
100
AcDbSymbolTableRecord
100
AcDbLinetypeTableRecord
  2
HIDDEN2
 70
0
  3
Hidden (.5x) _ _ _ _ _ _ _ _ _ _ _ _ _ _ _ _ _ 
 72
65
 73
2
 40
4.7624999999999993
 49
3.1749999999999998
 74
0
 49
-1.5874999999999999
 74
0
  0
LTYPE
  5
55
100
AcDbSymbolTableRecord
100
AcDbLinetypeTableRecord
  2
ACAD_ISO15W100
 70
0
  3
ISO double-dash triple-dot __ __ . . . __ __ . .
 72
65
 73
10
 40
39.0
 49
12.0
 74
0
 49
-3.0
 74
0
 49
12.0
 74
0
 49
-3.0
 74
0
 49
0.0
 74
0
 49
-3.0
 74
0
 49
0.0
 74
0
 49
-3.0
 74
0
 49
0.0
 74
0
 49
-3.0
 74
0
  0
LTYPE
  5
56
100
AcDbSymbolTableRecord
100
AcDbLinetypeTableRecord
  2
CENTERX2
 70
0
  3
Center (2x) ________  __  ________  __  _____
 72
65
 73
4
 40
101.6000000000000085
 49
63.5
 74
0
 49
-12.6999999999999993
 74
0
 49
12.6999999999999993
 74
0
 49
-12.6999999999999993
 74
0
  0
LTYPE
  5
57
100
AcDbSymbolTableRecord
100
AcDbLinetypeTableRecord
  2
ACAD_ISO07W100
 70
0
  3
ISO dot . . . . . . . . . . . . . . . . . . . . 
 72
65
 73
2
 40
3.0
 49
0.0
 74
0
 49
-3.0
 74
0
  0
LTYPE
  5
58
100
AcDbSymbolTableRecord
100
AcDbLinetypeTableRecord
  2
BATTING
 70
0
  3
Batting SSSSSSSSSSSSSSSSSSSSSSSSSSSSSSSSSSSSSSSSSSSSSSS
 72
65
 73
4
 40
10.1625399999999999
 49
0.00254
 74
0
 49
-2.54
 74
0
 49
-5.0800000000000001
 74
0
 49
-2.54
 74
0
  0
LTYPE
  5
59
100
AcDbSymbolTableRecord
100
AcDbLinetypeTableRecord
  2
GAS_LINE
 70
0
  3
Gas line ----GAS----GAS----GAS----GAS----GAS----GAS--
 72
65
 73
3
 40
24.1300000000000026
 49
12.6999999999999993
 74
0
 49
-5.0800000000000001
 74
0
 49
-6.3499999999999996
 74
0
  0
LTYPE
  5
14
100
AcDbSymbolTableRecord
100
AcDbLinetypeTableRecord
  2
BYBLOCK
 70
0
  3

 72
65
 73
0
 40
0.0
  0
LTYPE
  5
5A
100
AcDbSymbolTableRecord
100
AcDbLinetypeTableRecord
  2
ZIGZAG
 70
0
  3
Zig zag /\/\/\/\/\/\/\/\/\/\/\/\/\/\/\/\/\/\/\/\/\/\/\/
 72
65
 73
4
 40
20.32254
 49
0.00254
 74
0
 49
-5.0800000000000001
 74
0
 49
-10.1600000000000001
 74
0
 49
-5.0800000000000001
 74
0
  0
LTYPE
  5
5B
100
AcDbSymbolTableRecord
100
AcDbLinetypeTableRecord
  2
ACAD_ISO14W100
 70
0
  3
ISO dash triple-dot __ . . . __ . . . __ . . . _
 72
65
 73
8
 40
24.0
 49
12.0
 74
0
 49
-3.0
 74
0
 49
0.0
 74
0
 49
-3.0
 74
0
 49
0.0
 74
0
 49
-3.0
 74
0
 49
0.0
 74
0
 49
-3.0
 74
0
  0
LTYPE
  5
5C
100
AcDbSymbolTableRecord
100
AcDbLinetypeTableRecord
  2
ACAD_ISO06W100
 70
0
  3
ISO long-dash triple-dot ____ ... ____ ... ____
 72
65
 73
8
 40
36.0
 49
24.0
 74
0
 49
-3.0
 74
0
 49
0.0
 74
0
 49
-3.0
 74
0
 49
0.0
 74
0
 49
-3.0
 74
0
 49
0.0
 74
0
 49
-3.0
 74
0
  0
LTYPE
  5
5D
100
AcDbSymbolTableRecord
100
AcDbLinetypeTableRecord
  2
BORDERX2
 70
0
  3
Border (2x) ____  ____  .  ____  ____  .  ___
 72
65
 73
6
 40
88.8999999999999915
 49
25.3999999999999986
 74
0
 49
-12.6999999999999993
 74
0
 49
25.3999999999999986
 74
0
 49
-12.6999999999999993
 74
0
 49
0.0
 74
0
 49
-12.6999999999999993
 74
0
  0
LTYPE
  5
5E
100
AcDbSymbolTableRecord
100
AcDbLinetypeTableRecord
  2
ACAD_ISO13W100
 70
0
  3
ISO double-dash double-dot __ __ . . __ __ . . _
 72
65
 73
8
 40
36.0
 49
12.0
 74
0
 49
-3.0
 74
0
 49
12.0
 74
0
 49
-3.0
 74
0
 49
0.0
 74
0
 49
-3.0
 74
0
 49
0.0
 74
0
 49
-3.0
 74
0
  0
LTYPE
  5
5F
100
AcDbSymbolTableRecord
100
AcDbLinetypeTableRecord
  2
ACAD_ISO05W100
 70
0
  3
ISO long-dash double-dot ____ .. ____ .. ____ . 
 72
65
 73
6
 40
33.0
 49
24.0
 74
0
 49
-3.0
 74
0
 49
0.0
 74
0
 49
-3.0
 74
0
 49
0.0
 74
0
 49
-3.0
 74
0
  0
LTYPE
  5
60
100
AcDbSymbolTableRecord
100
AcDbLinetypeTableRecord
  2
DASHDOTX2
 70
0
  3
Dash dot (2x) ____  .  ____  .  ____  .  ___
 72
65
 73
4
 40
50.7999999999999972
 49
25.3999999999999986
 74
0
 49
-12.6999999999999993
 74
0
 49
0.0
 74
0
 49
-12.6999999999999993
 74
0
  0
LTYPE
  5
61
100
AcDbSymbolTableRecord
100
AcDbLinetypeTableRecord
  2
PHANTOM2
 70
0
  3
Phantom (.5x) ___ _ _ ___ _ _ ___ _ _ ___ _ _
 72
65
 73
6
 40
31.7500000000000036
 49
15.875
 74
0
 49
-3.1749999999999998
 74
0
 49
3.1749999999999998
 74
0
 49
-3.1749999999999998
 74
0
 49
3.1749999999999998
 74
0
 49
-3.1749999999999998
 74
0
  0
LTYPE
  5
62
100
AcDbSymbolTableRecord
100
AcDbLinetypeTableRecord
  2
DASHED2
 70
0
  3
Dashed (.5x) _ _ _ _ _ _ _ _ _ _ _ _ _ _ _ _ _ 
 72
65
 73
2
 40
9.5249999999999986
 49
6.3499999999999996
 74
0
 49
-3.1749999999999998
 74
0
  0
LTYPE
  5
63
100
AcDbSymbolTableRecord
100
AcDbLinetypeTableRecord
  2
ACAD_ISO12W100
 70
0
  3
ISO dash double-dot __ . . __ . . __ . . __ . . 
 72
65
 73
6
 40
21.0
 49
12.0
 74
0
 49
-3.0
 74
0
 49
0.0
 74
0
 49
-3.0
 74
0
 49
0.0
 74
0
 49
-3.0
 74
0
  0
ENDTAB
  0
TABLE
  2
LAYER
  5
2
100
AcDbSymbolTable
 70
4
  0
LAYER
  5
64
100
AcDbSymbolTableRecord
100
AcDbLayerTableRecord
  2
STEGE
 70
0
 62
5
420
255
  6
Continuous
370
-3
390
F
  0
LAYER
  5
65
100
AcDbSymbolTableRecord
100
AcDbLayerTableRecord
  2
CUT
 70
0
 62
7
420
16777215
  6
Continuous
370
-3
390
F
  0
LAYER
  5
10
100
AcDbSymbolTableRecord
100
AcDbLayerTableRecord
  2
0
 70
0
 62
7
420
16777215
  6
Continuous
370
25
390
F
  0
LAYER
  5
66
100
AcDbSymbolTableRecord
100
AcDbLayerTableRecord
  2
Text
 70
0
 62
1
420
16711680
  6
Continuous
370
25
390
F
  0
ENDTAB
  0
TABLE
  2
STYLE
  5
3
100
AcDbSymbolTable
 70
11
  0
STYLE
  5
67
100
AcDbSymbolTableRecord
100
AcDbTextStyleTableRecord
  2
Standard
 70
0
 40
0.0
 41
1.0
 50
0.0
 71
0
 42
2.5
  3

  4

1001
ACAD
1000
txt
1071
0
  0
STYLE
  5
68
100
AcDbSymbolTableRecord
100
AcDbTextStyleTableRecord
  2
textstyle0
 70
0
 40
0.0
 41
1.0
 50
0.0
 71
0
 42
3.0
  3

  4

1001
ACAD
1000
Arial
1071
0
  0
STYLE
  5
69
100
AcDbSymbolTableRecord
100
AcDbTextStyleTableRecord
  2
textstyle1
 70
0
 40
0.0
 41
1.0
 50
0.0
 71
0
 42
3.0
  3

  4

1001
ACAD
1000
Arial
1071
0
  0
STYLE
  5
6A
100
AcDbSymbolTableRecord
100
AcDbTextStyleTableRecord
  2
textstyle2
 70
0
 40
0.0
 41
1.0
 50
0.0
 71
0
 42
3.0
  3

  4

1001
ACAD
1000
Arial
1071
0
  0
STYLE
  5
6B
100
AcDbSymbolTableRecord
100
AcDbTextStyleTableRecord
  2
textstyle3
 70
0
 40
0.0
 41
1.0
 50
0.0
 71
0
 42
3.0
  3

  4

1001
ACAD
1000
Arial
1071
0
  0
STYLE
  5
6C
100
AcDbSymbolTableRecord
100
AcDbTextStyleTableRecord
  2
textstyle4
 70
0
 40
0.0
 41
1.0
 50
0.0
 71
0
 42
3.0
  3

  4

1001
ACAD
1000
Arial
1071
0
  0
STYLE
  5
6D
100
AcDbSymbolTableRecord
100
AcDbTextStyleTableRecord
  2
textstyle5
 70
0
 40
0.0
 41
1.0
 50
0.0
 71
0
 42
3.0
  3

  4

1001
ACAD
1000
Arial
1071
0
  0
STYLE
  5
6E
100
AcDbSymbolTableRecord
100
AcDbTextStyleTableRecord
  2
textstyle6
 70
0
 40
0.0
 41
1.0
 50
0.0
 71
0
 42
3.0
  3

  4

1001
ACAD
1000
Arial
1071
0
  0
STYLE
  5
6F
100
AcDbSymbolTableRecord
100
AcDbTextStyleTableRecord
  2
textstyle7
 70
0
 40
0.0
 41
1.0
 50
0.0
 71
0
 42
3.0
  3

  4

1001
ACAD
1000
Arial
1071
0
  0
STYLE
  5
70
100
AcDbSymbolTableRecord
100
AcDbTextStyleTableRecord
  2
textstyle8
 70
0
 40
0.0
 41
1.0
 50
0.0
 71
0
 42
3.0
  3

  4

1001
ACAD
1000
Arial
1071
0
  0
STYLE
  5
71
100
AcDbSymbolTableRecord
100
AcDbTextStyleTableRecord
  2
textstyle9
 70
0
 40
0.0
 41
1.0
 50
0.0
 71
0
 42
3.0
  3

  4

1001
ACAD
1000
Arial
1071
0
  0
ENDTAB
  0
TABLE
  2
VIEW
  5
6
100
AcDbSymbolTable
 70
0
  0
ENDTAB
  0
TABLE
  2
UCS
  5
7
100
AcDbSymbolTable
 70
0
  0
ENDTAB
  0
TABLE
  2
APPID
  5
9
100
AcDbSymbolTable
 70
1
  0
APPID
  5
12
100
AcDbSymbolTableRecord
100
AcDbRegAppTableRecord
  2
ACAD
 70
0
  0
APPID
  5
72
100
AcDbSymbolTableRecord
100
AcDbRegAppTableRecord
  2
QCAD
 70
0
  0
ENDTAB
  0
TABLE
  2
DIMSTYLE
  5
A
100
AcDbSymbolTable
 70
1
100
AcDbDimStyleTable
 71
0
  0
DIMSTYLE
105
27
100
AcDbSymbolTableRecord
100
AcDbDimStyleTableRecord
  2
Standard
 41
2.5
 42
0.625
 43
3.75
 44
1.25
 70
0
 73
0
 74
0
 77
1
 78
8
140
2.5
141
2.5
143
0.03937007874016
147
0.625
171
3
172
1
271
2
272
2
274
3
278
44
283
0
284
8
340
67
  0
ENDTAB
  0
TABLE
  2
BLOCK_RECORD
  5
1
100
AcDbSymbolTable
 70
1
  0
BLOCK_RECORD
  5
1F
100
AcDbSymbolTableRecord
100
AcDbBlockTableRecord
  2
*Model_Space
340
22
  0
BLOCK_RECORD
  5
1B
100
AcDbSymbolTableRecord
100
AcDbBlockTableRecord
  2
*Paper_Space
340
1E
  0
BLOCK_RECORD
  5
23
100
AcDbSymbolTableRecord
100
AcDbBlockTableRecord
  2
*Paper_Space0
340
26
  0
ENDTAB
  0
ENDSEC
  0
SECTION
  2
BLOCKS
  0
BLOCK
  5
20
100
AcDbEntity
  8
0
100
AcDbBlockBegin
  2
*Model_Space
 70
0
 10
0.0
 20
0.0
 30
0.0
  3
*Model_Space
  1

  0
ENDBLK
  5
21
100
AcDbEntity
  8
0
100
AcDbBlockEnd
  0
BLOCK
  5
1C
100
AcDbEntity
 67
1
  8
0
100
AcDbBlockBegin
  2
*Paper_Space
 70
0
 10
0.0
 20
0.0
 30
0.0
  3
*Paper_Space
  1

  0
ENDBLK
  5
1D
100
AcDbEntity
 67
1
  8
0
100
AcDbBlockEnd
  0
BLOCK
  5
24
100
AcDbEntity
  8
0
100
AcDbBlockBegin
  2
*Paper_Space0
 70
0
 10
0.0
 20
0.0
 30
0.0
  3
*Paper_Space0
  1

  0
ENDBLK
  5
25
100
AcDbEntity
  8
0
100
AcDbBlockEnd
  0
ENDSEC
  0
SECTION
  2
ENTITIES
  0
SPLINE
  5
73
  8
CUT
 62
256
370
-1
 48
1.0
  6
BYLAYER
100
AcDbEntity
100
AcDbSpline
 70
8
 71
3
 72
8
 73
4
 74
0
 40
0.0
 40
0.0
 40
0.0
 40
0.0
 40
1.0
 40
1.0
 40
1.0
 40
1.0
 10
23.3543652461521845
 20
20.5578252894859546
 30
0.0
 10
24.2880899708128268
 20
21.1281337818783186
 30
0.0
 10
25.5548236641002475
 20
20.2904201993769817
 30
0.0
 10
25.6985793017027824
 20
19.3525257108155913
 30
0.0
  0
SPLINE
  5
74
  8
CUT
 62
256
370
-1
 48
1.0
  6
BYLAYER
100
AcDbEntity
100
AcDbSpline
 70
8
 71
3
 72
8
 73
4
 74
0
 40
0.0
 40
0.0
 40
0.0
 40
0.0
 40
1.0
 40
1.0
 40
1.0
 40
1.0
 10
25.6985793017027824
 20
19.3525257108155913
 30
0.0
 10
26.2102687048481435
 20
16.0168841119918426
 30
0.0
 10
25.7250682372463189
 20
12.2491698607647415
 30
0.0
 10
25.8395344136439249
 20
8.863842121511027
 30
0.0
  0
SPLINE
  5
75
  8
CUT
 62
256
370
-1
 48
1.0
  6
BYLAYER
100
AcDbEntity
100
AcDbSpline
 70
8
 71
3
 72
8
 73
4
 74
0
 40
0.0
 40
0.0
 40
0.0
 40
0.0
 40
1.0
 40
1.0
 40
1.0
 40
1.0
 10
25.8395344136439249
 20
8.863842121511027
 30
0.0
 10
25.8791998404714114
 20
7.6933069430572338
 30
0.0
 10
26.1547151355731522
 20
5.9361769902409556
 30
0.0
 10
24.9021626953154147
 20
5.2913560149592609
 30
0.0
  0
SPLINE
  5
76
  8
CUT
 62
256
370
-1
 48
1.0
  6
BYLAYER
100
AcDbEntity
100
AcDbSpline
 70
8
 71
3
 72
8
 73
4
 74
0
 40
0.0
 40
0.0
 40
0.0
 40
0.0
 40
1.0
 40
1.0
 40
1.0
 40
1.0
 10
24.9021626953154147
 20
5.2913560149592609
 30
0.0
 10
23.5965214701419548
 20
4.6190479910093156
 30
0.0
 10
22.7571407703780011
 20
5.9954825946246135
 30
0.0
 10
22.6699693908139963
 20
7.0921229566028892
 30
0.0
  0
SPLINE
  5
77
  8
CUT
 62
256
370
-1
 48
1.0
  6
BYLAYER
100
AcDbEntity
100
AcDbSpline
 70
8
 71
3
 72
8
 73
4
 74
0
 40
0.0
 40
0.0
 40
0.0
 40
0.0
 40
1.0
 40
1.0
 40
1.0
 40
1.0
 10
22.6699693908139963
 20
7.0921229566028892
 30
0.0
 10
22.4768018026696268
 20
9.5214317231325794
 30
0.0
 10
22.5577134824858874
 20
12.0383108392457814
 30
0.0
 10
22.5605947982823452
 20
14.4752347610496841
 30
0.0
  0
SPLINE
  5
78
  8
CUT
 62
256
370
-1
 48
1.0
  6
BYLAYER
100
AcDbEntity
100
AcDbSpline
 70
8
 71
3
 72
8
 73
4
 74
0
 40
0.0
 40
0.0
 40
0.0
 40
0.0
 40
1.0
 40
1.0
 40
1.0
 40
1.0
 10
22.5605947982823452
 20
14.4752347610496841
 30
0.0
 10
22.5619716965351174
 20
15.5559859754609313
 30
0.0
 10
22.543162184297433
 20
16.5111829858358199
 30
0.0
 10
22.5361274207695104
 20
17.5831177458118333
 30
0.0
  0
SPLINE
  5
79
  8
CUT
 62
256
370
-1
 48
1.0
  6
BYLAYER
100
AcDbEntity
100
AcDbSpline
 70
8
 71
3
 72
8
 73
4
 74
0
 40
0.0
 40
0.0
 40
0.0
 40
0.0
 40
1.0
 40
1.0
 40
1.0
 40
1.0
 10
22.5361274207695104
 20
17.5831177458118333
 30
0.0
 10
22.5302448239579078
 20
18.4893976175609751
 30
0.0
 10
22.3256851998464114
 20
19.9295118235200199
 30
0.0
 10
23.3543652461521845
 20
20.5578252894859546
 30
0.0
  0
SPLINE
  5
7A
  8
CUT
 62
256
370
-1
 48
1.0
  6
BYLAYER
100
AcDbEntity
100
AcDbSpline
 70
8
 71
3
 72
8
 73
4
 74
0
 40
0.0
 40
0.0
 40
0.0
 40
0.0
 40
1.0
 40
1.0
 40
1.0
 40
1.0
 10
2.3614628362212784
 20
17.8298071635110773
 30
0.0
 10
3.4075068362212733
 20
18.1303711635110858
 30
0.0
 10
4.8033788362213699
 20
17.9106631635111171
 30
0.0
 10
5.8892428362212712
 20
17.9106631635111171
 30
0.0
  0
SPLINE
  5
7B
  8
CUT
 62
256
370
-1
 48
1.0
  6
BYLAYER
100
AcDbEntity
100
AcDbSpline
 70
8
 71
3
 72
8
 73
4
 74
0
 40
0.0
 40
0.0
 40
0.0
 40
0.0
 40
1.0
 40
1.0
 40
1.0
 40
1.0
 10
13.0859068362212696
 20
17.9106631635111171
 30
0.0
 10
14.2379388362212751
 20
17.9106631635111171
 30
0.0
 10
15.8689028362212809
 20
18.2036071635110943
 30
0.0
 10
16.6935548362212813
 20
17.1898663635111006
 30
0.0
  0
SPLINE
  5
7C
  8
CUT
 62
256
370
-1
 48
1.0
  6
BYLAYER
100
AcDbEntity
100
AcDbSpline
 70
8
 71
3
 72
8
 73
4
 74
0
 40
0.0
 40
0.0
 40
0.0
 40
0.0
 40
1.0
 40
1.0
 40
1.0
 40
1.0
 10
16.6935548362212813
 20
17.1898663635111006
 30
0.0
 10
17.3444988362212769
 20
16.3897663635111144
 30
0.0
 10
17.0370188362212787
 20
14.7890019635111116
 30
0.0
 10
17.0370188362212787
 20
13.8184399635110822
 30
0.0
  0
LWPOLYLINE
  5
7D
  8
CUT
 62
256
370
-1
 48
1.0
  6
BYLAYER
100
AcDbEntity
100
AcDbPolyline
 90
2
 70
0
 10
5.8892428362212712
 20
17.9106631635111171
 30
0.0
 10
13.0859068362212696
 20
17.9106631635111171
 30
0.0
  0
SPLINE
  5
7E
  8
CUT
 62
256
370
-1
 48
1.0
  6
BYLAYER
100
AcDbEntity
100
AcDbSpline
 70
8
 71
3
 72
8
 73
4
 74
0
 40
0.0
 40
0.0
 40
0.0
 40
0.0
 40
1.0
 40
1.0
 40
1.0
 40
1.0
 10
17.0370188362212787
 20
5.3517735635110739
 30
0.0
 10
17.0370188362212787
 20
4.2132891635110923
 30
0.0
 10
17.2071988362212807
 20
2.7107379635111215
 30
0.0
 10
15.9079868362212693
 20
2.210922363511088
 30
0.0
  0
SPLINE
  5
7F
  8
CUT
 62
256
370
-1
 48
1.0
  6
BYLAYER
100
AcDbEntity
100
AcDbSpline
 70
8
 71
3
 72
8
 73
4
 74
0
 40
0.0
 40
0.0
 40
0.0
 40
0.0
 40
1.0
 40
1.0
 40
1.0
 40
1.0
 10
15.9079868362212693
 20
2.210922363511088
 30
0.0
 10
14.9317828362212737
 20
1.8354259635111134
 30
0.0
 10
13.4192108362212679
 20
2.1065003635110884
 30
0.0
 10
12.3803508362212682
 20
2.1062179635110851
 30
0.0
  0
LWPOLYLINE
  5
80
  8
CUT
 62
256
370
-1
 48
1.0
  6
BYLAYER
100
AcDbEntity
100
AcDbPolyline
 90
2
 70
0
 10
17.0370188362212787
 20
13.8184399635110822
 30
0.0
 10
17.0370188362212787
 20
5.3517735635110739
 30
0.0
  0
SPLINE
  5
81
  8
CUT
 62
256
370
-1
 48
1.0
  6
BYLAYER
100
AcDbEntity
100
AcDbSpline
 70
8
 71
3
 72
8
 73
4
 74
0
 40
0.0
 40
0.0
 40
0.0
 40
0.0
 40
1.0
 40
1.0
 40
1.0
 40
1.0
 10
4.7603508362212779
 20
2.1062179635110851
 30
0.0
 10
3.6519508362212747
 20
2.1062179635110851
 30
0.0
 10
2.0618548362212721
 20
1.8180691635110975
 30
0.0
 10
1.331762836221273
 20
2.8250379635110789
 30
0.0
  0
SPLINE
  5
82
  8
CUT
 62
256
370
-1
 48
1.0
  6
BYLAYER
100
AcDbEntity
100
AcDbSpline
 70
8
 71
3
 72
8
 73
4
 74
0
 40
0.0
 40
0.0
 40
0.0
 40
0.0
 40
1.0
 40
1.0
 40
1.0
 40
1.0
 10
1.331762836221273
 20
2.8250379635110789
 30
0.0
 10
0.6672148362212766
 20
3.7416959635111198
 30
0.0
 10
0.9503508362212756
 20
5.2599103635110964
 30
0.0
 10
0.9503508362212756
 20
6.3395511635110893
 30
0.0
  0
SPLINE
  5
83
  8
CUT
 62
256
370
-1
 48
1.0
  6
BYLAYER
100
AcDbEntity
100
AcDbSpline
 70
8
 71
3
 72
8
 73
4
 74
0
 40
0.0
 40
0.0
 40
0.0
 40
0.0
 40
1.0
 40
1.0
 40
1.0
 40
1.0
 10
0.9503508362212756
 20
6.3395511635110893
 30
0.0
 10
0.9503508362212756
 20
9.1610679635111296
 30
0.0
 10
0.9173508362212743
 20
11.9848423635111203
 30
0.0
 10
0.9507508362212747
 20
14.8062175635110975
 30
0.0
  0
SPLINE
  5
84
  8
CUT
 62
256
370
-1
 48
1.0
  6
BYLAYER
100
AcDbEntity
100
AcDbSpline
 70
8
 71
3
 72
8
 73
4
 74
0
 40
0.0
 40
0.0
 40
0.0
 40
0.0
 40
1.0
 40
1.0
 40
1.0
 40
1.0
 10
0.9507508362212747
 20
14.8062175635110975
 30
0.0
 10
0.9647508362212704
 20
15.982943163511095
 30
0.0
 10
1.0396788362212703
 20
17.4500751635110873
 30
0.0
 10
2.3613108362212785
 20
17.8298071635110773
 30
0.0
  0
LWPOLYLINE
  5
85
  8
CUT
 62
256
370
-1
 48
1.0
  6
BYLAYER
100
AcDbEntity
100
AcDbPolyline
 90
2
 70
128
 10
12.3803508362212682
 20
2.1062179635110851
 30
0.0
 10
10.0987253682773623
 20
2.1062179635110851
 30
0.0
  0
LWPOLYLINE
  5
86
  8
CUT
 62
256
370
-1
 48
1.0
  6
BYLAYER
100
AcDbEntity
100
AcDbPolyline
 90
2
 70
128
 10
6.2498506122463908
 20
2.1062179635110851
 30
0.0
 10
4.7603508362212779
 20
2.1062179635110851
 30
0.0
  0
SPLINE
  5
87
  8
CUT
 62
256
370
-1
 48
1.0
  6
BYLAYER
100
AcDbEntity
100
AcDbSpline
 70
8
 71
3
 72
8
 73
4
 74
0
 40
0.0
 40
0.0
 40
0.0
 40
0.0
 40
1.0
 40
1.0
 40
1.0
 40
1.0
 10
2.9277830178077622
 20
34.4536291091954467
 30
0.0
 10
2.9051938781317617
 20
36.0467911381147914
 30
0.0
 10
4.492481645908498
 20
36.0882946119834358
 30
0.0
 10
5.6993288979002301
 20
36.1118268713964525
 30
0.0
  0
SPLINE
  5
88
  8
CUT
 62
256
370
-1
 48
1.0
  6
BYLAYER
100
AcDbEntity
100
AcDbSpline
 70
8
 71
3
 72
8
 73
4
 74
0
 40
0.0
 40
0.0
 40
0.0
 40
0.0
 40
1.0
 40
1.0
 40
1.0
 40
1.0
 10
5.6993288979002301
 20
36.1118268713964525
 30
0.0
 10
8.9876060770204624
 20
36.1748285402306138
 30
0.0
 10
12.2883951622606062
 20
36.0982448661192308
 30
0.0
 10
15.5773492928728032
 20
36.0843067090214262
 30
0.0
  0
SPLINE
  5
89
  8
CUT
 62
256
370
-1
 48
1.0
  6
BYLAYER
100
AcDbEntity
100
AcDbSpline
 70
8
 71
3
 72
8
 73
4
 74
0
 40
0.0
 40
0.0
 40
0.0
 40
0.0
 40
1.0
 40
1.0
 40
1.0
 40
1.0
 10
15.5773492928728032
 20
36.0843067090214262
 30
0.0
 10
16.8135150310358092
 20
36.0796974208639938
 30
0.0
 10
18.700768792415424
 20
35.9748902463372531
 30
0.0
 10
18.6396259463526874
 20
34.368963315315689
 30
0.0
  0
SPLINE
  5
8A
  8
CUT
 62
256
370
-1
 48
1.0
  6
BYLAYER
100
AcDbEntity
100
AcDbSpline
 70
8
 71
3
 72
8
 73
4
 74
0
 40
0.0
 40
0.0
 40
0.0
 40
0.0
 40
1.0
 40
1.0
 40
1.0
 40
1.0
 10
18.6396259463526874
 20
34.368963315315689
 30
0.0
 10
18.5797021586798863
 20
32.7892242513566288
 30
0.0
 10
16.6168580857329609
 20
32.887623916448355
 30
0.0
 10
15.4917458749368535
 20
32.9084530244818367
 30
0.0
  0
SPLINE
  5
8B
  8
CUT
 62
256
370
-1
 48
1.0
  6
BYLAYER
100
AcDbEntity
100
AcDbSpline
 70
8
 71
3
 72
8
 73
4
 74
0
 40
0.0
 40
0.0
 40
0.0
 40
0.0
 40
1.0
 40
1.0
 40
1.0
 40
1.0
 10
15.4917458749368535
 20
32.9084530244818367
 30
0.0
 10
12.2554753823920421
 20
32.9682602360350359
 30
0.0
 10
9.0
 20
33.0
 30
0.0
 10
5.7639357205689805
 20
32.9446469656244076
 30
0.0
  0
SPLINE
  5
8C
  8
CUT
 62
256
370
-1
 48
1.0
  6
BYLAYER
100
AcDbEntity
100
AcDbSpline
 70
8
 71
3
 72
8
 73
4
 74
0
 40
0.0
 40
0.0
 40
0.0
 40
0.0
 40
1.0
 40
1.0
 40
1.0
 40
1.0
 10
5.7639357205689805
 20
32.9446469656244076
 30
0.0
 10
4.6464496125026393
 20
32.9247802009113428
 30
0.0
 10
2.9490196503912429
 20
32.9376092615152061
 30
0.0
 10
2.9277830178077622
 20
34.4536291091954467
 30
0.0
  0
SPLINE
  5
8D
  8
CUT
 62
256
370
-1
 48
1.0
  6
BYLAYER
100
AcDbEntity
100
AcDbSpline
 70
8
 71
3
 72
8
 73
4
 74
0
 40
0.0
 40
0.0
 40
0.0
 40
0.0
 40
1.0
 40
1.0
 40
1.0
 40
1.0
 10
44.8981556541326654
 20
21.0014611767724091
 30
0.0
 10
46.771249017036034
 20
21.4197661100536365
 30
0.0
 10
46.8047617418040645
 20
19.4875606585432735
 30
0.0
 10
46.8605136698407065
 20
18.2304980551219415
 30
0.0
  0
SPLINE
  5
8E
  8
CUT
 62
256
370
-1
 48
1.0
  6
BYLAYER
100
AcDbEntity
100
AcDbSpline
 70
8
 71
3
 72
8
 73
4
 74
0
 40
0.0
 40
0.0
 40
0.0
 40
0.0
 40
1.0
 40
1.0
 40
1.0
 40
1.0
 10
46.8605136698407065
 20
18.2304980551219415
 30
0.0
 10
47.0
 20
15.0
 30
0.0
 10
46.7063394505979446
 20
11.7082480934875708
 30
0.0
 10
46.6458973986153609
 20
8.4754140558888444
 30
0.0
  0
SPLINE
  5
8F
  8
CUT
 62
256
370
-1
 48
1.0
  6
BYLAYER
100
AcDbEntity
100
AcDbSpline
 70
8
 71
3
 72
8
 73
4
 74
0
 40
0.0
 40
0.0
 40
0.0
 40
0.0
 40
1.0
 40
1.0
 40
1.0
 40
1.0
 10
46.6458973986153609
 20
8.4754140558888444
 30
0.0
 10
46.6228375549954706
 20
7.2889851334446085
 30
0.0
 10
46.7968689560054116
 20
5.70002683136914
 30
0.0
 10
45.2343895526679205
 20
5.4401048025026277
 30
0.0
  0
SPLINE
  5
90
  8
CUT
 62
256
370
-1
 48
1.0
  6
BYLAYER
100
AcDbEntity
100
AcDbSpline
 70
8
 71
3
 72
8
 73
4
 74
0
 40
0.0
 40
0.0
 40
0.0
 40
0.0
 40
1.0
 40
1.0
 40
1.0
 40
1.0
 10
45.2343895526679205
 20
5.4401048025026277
 30
0.0
 10
43.984972008035605
 20
5.23211926885892
 30
0.0
 10
43.4061606023373585
 20
6.6128561274360607
 30
0.0
 10
43.4477050713474711
 20
7.6220194595359096
 30
0.0
  0
SPLINE
  5
91
  8
CUT
 62
256
370
-1
 48
1.0
  6
BYLAYER
100
AcDbEntity
100
AcDbSpline
 70
8
 71
3
 72
8
 73
4
 74
0
 40
0.0
 40
0.0
 40
0.0
 40
0.0
 40
1.0
 40
1.0
 40
1.0
 40
1.0
 10
43.4477050713474711
 20
7.6220194595359096
 30
0.0
 10
43.5869062665503222
 20
11.0037758801370646
 30
0.0
 10
43.6744460798786278
 20
14.4183838970892886
 30
0.0
 10
43.6487539188350979
 20
17.8032395140060515
 30
0.0
  0
SPLINE
  5
92
  8
CUT
 62
256
370
-1
 48
1.0
  6
BYLAYER
100
AcDbEntity
100
AcDbSpline
 70
8
 71
3
 72
8
 73
4
 74
0
 40
0.0
 40
0.0
 40
0.0
 40
0.0
 40
1.0
 40
1.0
 40
1.0
 40
1.0
 10
43.6487539188350979
 20
17.8032395140060515
 30
0.0
 10
43.6404483370745879
 20
18.8805067201085421
 30
0.0
 10
43.5709282682559618
 20
20.7039605858169651
 30
0.0
 10
44.8981556541326654
 20
21.0014611767724091
 30
0.0
  0
SPLINE
  5
93
  8
CUT
 62
256
370
-1
 48
1.0
  6
BYLAYER
100
AcDbEntity
100
AcDbSpline
 70
8
 71
3
 72
8
 73
4
 74
0
 40
0.0
 40
0.0
 40
0.0
 40
0.0
 40
1.0
 40
1.0
 40
1.0
 40
1.0
 10
54.4558109122200946
 20
21.1777873050741476
 30
0.0
 10
56.1568655654763802
 20
21.6438682018410589
 30
0.0
 10
56.3305848225608869
 20
19.5445711117373264
 30
0.0
 10
56.3794218818083976
 20
18.4238098465840352
 30
0.0
  0
SPLINE
  5
94
  8
CUT
 62
256
370
-1
 48
1.0
  6
BYLAYER
100
AcDbEntity
100
AcDbSpline
 70
8
 71
3
 72
8
 73
4
 74
0
 40
0.0
 40
0.0
 40
0.0
 40
0.0
 40
1.0
 40
1.0
 40
1.0
 40
1.0
 10
56.3794218818083976
 20
18.4238098465840352
 30
0.0
 10
56.5196711850930029
 20
15.1987740796281301
 30
0.0
 10
56.687458434741707
 20
11.9857760296506086
 30
0.0
 10
56.7904298777613263
 20
8.7556458565409034
 30
0.0
  0
SPLINE
  5
95
  8
CUT
 62
256
370
-1
 48
1.0
  6
BYLAYER
100
AcDbEntity
100
AcDbSpline
 70
8
 71
3
 72
8
 73
4
 74
0
 40
0.0
 40
0.0
 40
0.0
 40
0.0
 40
1.0
 40
1.0
 40
1.0
 40
1.0
 10
56.7904298777613263
 20
8.7556458565409034
 30
0.0
 10
56.8287666550212549
 20
7.5553450794065657
 30
0.0
 10
57.0938568661891708
 20
5.972586069275545
 30
0.0
 10
55.6389890537239467
 20
5.5616022365074986
 30
0.0
  0
SPLINE
  5
96
  8
CUT
 62
256
370
-1
 48
1.0
  6
BYLAYER
100
AcDbEntity
100
AcDbSpline
 70
8
 71
3
 72
8
 73
4
 74
0
 40
0.0
 40
0.0
 40
0.0
 40
0.0
 40
1.0
 40
1.0
 40
1.0
 40
1.0
 10
55.6389890537239467
 20
5.5616022365074986
 30
0.0
 10
54.0535662341005576
 20
5.1138772110270185
 30
0.0
 10
53.6911973082476663
 20
6.9091231968842006
 30
0.0
 10
53.6280142396856903
 20
8.0407682151010693
 30
0.0
  0
SPLINE
  5
97
  8
CUT
 62
256
370
-1
 48
1.0
  6
BYLAYER
100
AcDbEntity
100
AcDbSpline
 70
8
 71
3
 72
8
 73
4
 74
0
 40
0.0
 40
0.0
 40
0.0
 40
0.0
 40
1.0
 40
1.0
 40
1.0
 40
1.0
 10
53.6280142396856903
 20
8.0407682151010693
 30
0.0
 10
53.44507215354907
 20
11.3104789048251213
 30
0.0
 10
53.3578636029385223
 20
14.5831410985182721
 30
0.0
 10
53.1916332148232982
 20
17.8528070977278652
 30
0.0
  0
SPLINE
  5
98
  8
CUT
 62
256
370
-1
 48
1.0
  6
BYLAYER
100
AcDbEntity
100
AcDbSpline
 70
8
 71
3
 72
8
 73
4
 74
0
 40
0.0
 40
0.0
 40
0.0
 40
0.0
 40
1.0
 40
1.0
 40
1.0
 40
1.0
 10
53.1916332148232982
 20
17.8528070977278652
 30
0.0
 10
53.128709134804545
 20
19.0926492664290635
 30
0.0
 10
52.9159823938506193
 20
20.7558184845385227
 30
0.0
 10
54.4558109122200946
 20
21.1777873050741476
 30
0.0
  0
SPLINE
  5
99
  8
CUT
 62
256
370
-1
 48
1.0
  6
BYLAYER
100
AcDbEntity
100
AcDbSpline
 70
8
 71
3
 72
8
 73
4
 74
0
 40
0.0
 40
0.0
 40
0.0
 40
0.0
 40
1.0
 40
1.0
 40
1.0
 40
1.0
 10
34.3900876166121634
 20
20.865401469214774
 30
0.0
 10
35.3796284704652066
 20
21.3627622452215107
 30
0.0
 10
36.4659394510358439
 20
20.48041488750399
 30
0.0
 10
36.5852401698109091
 20
19.4794717393876056
 30
0.0
  0
SPLINE
  5
9A
  8
CUT
 62
256
370
-1
 48
1.0
  6
BYLAYER
100
AcDbEntity
100
AcDbSpline
 70
8
 71
3
 72
8
 73
4
 74
0
 40
0.0
 40
0.0
 40
0.0
 40
0.0
 40
1.0
 40
1.0
 40
1.0
 40
1.0
 10
36.5852401698109091
 20
19.4794717393876056
 30
0.0
 10
37.0
 20
16.0
 30
0.0
 10
36.5016768928553006
 20
12.3684049639477909
 30
0.0
 10
36.7162062230496389
 20
8.8671671601660353
 30
0.0
  0
SPLINE
  5
9B
  8
CUT
 62
256
370
-1
 48
1.0
  6
BYLAYER
100
AcDbEntity
100
AcDbSpline
 70
8
 71
3
 72
8
 73
4
 74
0
 40
0.0
 40
0.0
 40
0.0
 40
0.0
 40
1.0
 40
1.0
 40
1.0
 40
1.0
 10
36.7162062230496389
 20
8.8671671601660353
 30
0.0
 10
36.7912940822449315
 20
7.6413830195762333
 30
0.0
 10
37.0488597806143005
 20
5.9910272473546211
 30
0.0
 10
35.7416206925278885
 20
5.4092118705198473
 30
0.0
  0
SPLINE
  5
9C
  8
CUT
 62
256
370
-1
 48
1.0
  6
BYLAYER
100
AcDbEntity
100
AcDbSpline
 70
8
 71
3
 72
8
 73
4
 74
0
 40
0.0
 40
0.0
 40
0.0
 40
0.0
 40
1.0
 40
1.0
 40
1.0
 40
1.0
 10
35.7416206925278885
 20
5.4092118705198473
 30
0.0
 10
34.252793953938415
 20
4.7463536948147151
 30
0.0
 10
33.6395767662322527
 20
6.4789132073738394
 30
0.0
 10
33.569091691393858
 20
7.6002811719792422
 30
0.0
  0
SPLINE
  5
9D
  8
CUT
 62
256
370
-1
 48
1.0
  6
BYLAYER
100
AcDbEntity
100
AcDbSpline
 70
8
 71
3
 72
8
 73
4
 74
0
 40
0.0
 40
0.0
 40
0.0
 40
0.0
 40
1.0
 40
1.0
 40
1.0
 40
1.0
 10
33.569091691393858
 20
7.6002811719792422
 30
0.0
 10
33.3624143702557845
 20
10.8854812346136836
 30
0.0
 10
33.4066802646732555
 20
14.2393778507133906
 30
0.0
 10
33.4328463057844658
 20
17.503868744890319
 30
0.0
  0
SPLINE
  5
9E
  8
CUT
 62
256
370
-1
 48
1.0
  6
BYLAYER
100
AcDbEntity
100
AcDbSpline
 70
8
 71
3
 72
8
 73
4
 74
0
 40
0.0
 40
0.0
 40
0.0
 40
0.0
 40
1.0
 40
1.0
 40
1.0
 40
1.0
 10
33.4328463057844658
 20
17.503868744890319
 30
0.0
 10
33.4418909861984091
 20
18.6406950078776035
 30
0.0
 10
33.1601818319672006
 20
20.2464407847707548
 30
0.0
 10
34.3900876166121634
 20
20.865401469214774
 30
0.0
  0
TEXT
  5
9F
100
AcDbEntity
100
AcDbText
  8
Text
 62
256
370
-1
 48
1.0
  6
BYLAYER
 10
-3.5425940860486893
 20
-186.915097742925866
 30
0.0
 40
3.0
  1
5
 50
0.0
 41
1.0
  7
textstyle9
 71
0
 72
1
 11
2.9189585777777323
 21
13.2406047914741691
 31
0.0
100
AcDbText
 73
2
  0
TEXT
  5
A0
100
AcDbEntity
100
AcDbText
  8
Text
 62
256
370
-1
 48
1.0
  6
BYLAYER
 10
-3.5425940860486893
 20
-186.915097742925866
 30
0.0
 40
3.0
  1
4
 50
0.0
 41
1.0
  7
textstyle5
 71
0
 72
1
 11
5.8993565674106758
 21
13.2406047914741691
 31
0.0
100
AcDbText
 73
2
  0
TEXT
  5
A1
100
AcDbEntity
100
AcDbText
  8
Text
 62
256
370
-1
 48
1.0
  6
BYLAYER
 10
-3.5425940860486893
 20
-186.915097742925866
 30
0.0
 40
3.0
  1
3
 50
0.0
 41
1.0
  7
textstyle6
 71
0
 72
1
 11
9.0190254911386241
 21
13.1291880441981448
 31
0.0
100
AcDbText
 73
2
  0
TEXT
  5
A2
100
AcDbEntity
100
AcDbText
  8
Text
 62
256
370
-1
 48
1.0
  6
BYLAYER
 10
-3.5425940860486893
 20
-186.915097742925866
 30
0.0
 40
3.0
  1
2
 50
0.0
 41
1.0
  7
textstyle7
 71
0
 72
1
 11
12.4574059139514191
 21
13.084902257074134
 31
0.0
100
AcDbText
 73
2
  0
TEXT
  5
A3
100
AcDbEntity
100
AcDbText
  8
Text
 62
256
370
-1
 48
1.0
  6
BYLAYER
 10
-3.5425940860486893
 20
-186.915097742925866
 30
0.0
 40
3.0
  1
1
 50
0.0
 41
1.0
  7
textstyle8
 71
0
 72
1
 11
15.4574059139514119
 21
13.084902257074134
 31
0.0
100
AcDbText
 73
2
  0
TEXT
  5
A4
100
AcDbEntity
100
AcDbText
  8
Text
 62
256
370
-1
 48
1.0
  6
BYLAYER
 10
-188.1699943595772027
 20
-131.2048002486574489
 30
0.0
 40
3.0
  1
1
 50
0.0
 41
1.0
  7
textstyle4
 71
0
 72
1
 11
24.0
 21
2.0
 31
0.0
100
AcDbText
 73
2
  0
TEXT
  5
A5
100
AcDbEntity
100
AcDbText
  8
Text
 62
256
370
-1
 48
1.0
  6
BYLAYER
 10
-44.1418131484734175
 20
-58.6981758421701016
 30
0.0
 40
3.0
  1
2
 50
0.0
 41
1.0
  7
textstyle3
 71
0
 72
1
 11
34.0
 21
2.0
 31
0.0
100
AcDbText
 73
2
  0
TEXT
  5
A6
100
AcDbEntity
100
AcDbText
  8
Text
 62
256
370
-1
 48
1.0
  6
BYLAYER
 10
-251.2354256554023664
 20
-108.3891038467602073
 30
0.0
 40
3.0
  1
3
 50
0.0
 41
1.0
  7
textstyle0
 71
0
 72
1
 11
45.0
 21
2.0
 31
0.0
100
AcDbText
 73
2
  0
TEXT
  5
A7
100
AcDbEntity
100
AcDbText
  8
Text
 62
256
370
-1
 48
1.0
  6
BYLAYER
 10
6.2953943360550184
 20
-68.8876754125015367
 30
0.0
 40
3.0
  1
4
 50
0.0
 41
1.0
  7
textstyle1
 71
0
 72
1
 11
55.0
 21
2.0
 31
0.0
100
AcDbText
 73
2
  0
TEXT
  5
A8
100
AcDbEntity
100
AcDbText
  8
Text
 62
256
370
-1
 48
1.0
  6
BYLAYER
 10
-148.0000000000000284
 20
-145.9999999999999432
 30
0.0
 40
3.0
  1
5
 50
0.0
 41
1.0
  7
textstyle2
 71
0
 72
1
 11
22.0
 21
34.0
 31
0.0
100
AcDbText
 73
2
  0
LINE
  5
A9
100
AcDbEntity
100
AcDbLine
  8
STEGE
 62
256
370
-1
 48
1.0
  6
BYLAYER
 10
6.2498506122463908
 20
2.1062179635110851
 30
0.0
 11
10.0987253682773623
 21
2.1062179635110851
 31
0.0
  0
LINE
  5
AA
100
AcDbEntity
100
AcDbLine
  8
CUT
 62
256
370
-1
 48
1.0
  6
BYLAYER
 10
20.0
 20
0.0
 30
0.0
 11
60.0
 21
0.0
 31
0.0
  0
LINE
  5
AB
100
AcDbEntity
100
AcDbLine
  8
CUT
 62
256
370
-1
 48
1.0
  6
BYLAYER
 10
60.0
 20
0.0
 30
0.0
 11
60.0
 21
30.0
 31
0.0
  0
LINE
  5
AC
100
AcDbEntity
100
AcDbLine
  8
CUT
 62
256
370
-1
 48
1.0
  6
BYLAYER
 10
30.0
 20
30.0
 30
0.0
 11
-0.0
 21
30.0
 31
0.0
  0
LINE
  5
AD
100
AcDbEntity
100
AcDbLine
  8
CUT
 62
256
370
-1
 48
1.0
  6
BYLAYER
 10
20.0
 20
24.0
 30
0.0
 11
20.0
 21
0.0
 31
0.0
  0
LINE
  5
AE
100
AcDbEntity
100
AcDbLine
  8
CUT
 62
256
370
-1
 48
1.0
  6
BYLAYER
 10
20.0
 20
0.0
 30
0.0
 11
0.0
 21
0.0
 31
0.0
  0
LINE
  5
AF
100
AcDbEntity
100
AcDbLine
  8
CUT
 62
256
370
-1
 48
1.0
  6
BYLAYER
 10
0.0
 20
0.0
 30
0.0
 11
0.0
 21
40.0
 31
0.0
  0
LINE
  5
B0
100
AcDbEntity
100
AcDbLine
  8
CUT
 62
256
370
-1
 48
1.0
  6
BYLAYER
 10
0.0
 20
40.0
 30
0.0
 11
60.0
 21
40.0
 31
0.0
  0
LINE
  5
B1
100
AcDbEntity
100
AcDbLine
  8
CUT
 62
256
370
-1
 48
1.0
  6
BYLAYER
 10
60.0
 20
40.0
 30
0.0
 11
60.0
 21
30.0
 31
0.0
  0
LINE
  5
B2
100
AcDbEntity
100
AcDbLine
  8
CUT
 62
256
370
-1
 48
1.0
  6
BYLAYER
 10
30.0
 20
34.0
 30
0.0
 11
30.0
 21
30.0
 31
0.0
  0
LINE
  5
B3
100
AcDbEntity
100
AcDbLine
  8
CUT
 62
256
370
-1
 48
1.0
  6
BYLAYER
 10
30.0
 20
40.0
 30
0.0
 11
30.0
 21
36.0
 31
0.0
  0
LINE
  5
B4
100
AcDbEntity
100
AcDbLine
  8
CUT
 62
256
370
-1
 48
1.0
  6
BYLAYER
 10
20.0
 20
30.0
 30
0.0
 11
0.0
 21
30.0
 31
0.0
  0
LINE
  5
B5
100
AcDbEntity
100
AcDbLine
  8
CUT
 62
256
370
-1
 48
1.0
  6
BYLAYER
 10
56.0
 20
24.0
 30
0.0
 11
60.0
 21
24.0
 31
0.0
  0
LINE
  5
B6
100
AcDbEntity
100
AcDbLine
  8
CUT
 62
256
370
-1
 48
1.0
  6
BYLAYER
 10
47.0
 20
24.0
 30
0.0
 11
53.5
 21
24.0
 31
0.0
  0
LINE
  5
B7
100
AcDbEntity
100
AcDbLine
  8
CUT
 62
256
370
-1
 48
1.0
  6
BYLAYER
 10
20.0
 20
24.0
 30
0.0
 11
24.0
 21
24.0
 31
0.0
  0
LINE
  5
B8
100
AcDbEntity
100
AcDbLine
  8
CUT
 62
256
370
-1
 48
1.0
  6
BYLAYER
 10
36.0
 20
24.0
 30
0.0
 11
45.0
 21
24.0
 31
0.0
  0
LINE
  5
B9
100
AcDbEntity
100
AcDbLine
  8
CUT
 62
256
370
-1
 48
1.0
  6
BYLAYER
 10
26.0
 20
24.0
 30
0.0
 11
34.0
 21
24.0
 31
0.0
  0
LINE
  5
BA
100
AcDbEntity
100
AcDbLine
  8
CUT
 62
256
370
-1
 48
1.0
  6
BYLAYER
 10
30.0
 20
24.0
 30
0.0
 11
30.0
 21
0.0
 31
0.0
  0
LINE
  5
BB
100
AcDbEntity
100
AcDbLine
  8
CUT
 62
256
370
-1
 48
1.0
  6
BYLAYER
 10
40.0
 20
24.0
 30
0.0
 11
40.0
 21
0.0
 31
0.0
  0
LINE
  5
BC
100
AcDbEntity
100
AcDbLine
  8
CUT
 62
256
370
-1
 48
1.0
  6
BYLAYER
 10
50.0
 20
0.0
 30
0.0
 11
50.0
 21
24.0
 31
0.0
  0
LINE
  5
BD
100
AcDbEntity
100
AcDbLine
  8
STEGE
 62
256
370
-1
 48
1.0
  6
BYLAYER
 10
30.0
 20
36.0
 30
0.0
 11
30.0
 21
34.0
 31
0.0
  0
LINE
  5
BE
100
AcDbEntity
100
AcDbLine
  8
STEGE
 62
256
370
-1
 48
1.0
  6
BYLAYER
 10
24.0
 20
24.0
 30
0.0
 11
26.0
 21
24.0
 31
0.0
  0
LINE
  5
BF
100
AcDbEntity
100
AcDbLine
  8
STEGE
 62
256
370
-1
 48
1.0
  6
BYLAYER
 10
34.0
 20
24.0
 30
0.0
 11
36.0
 21
24.0
 31
0.0
  0
LINE
  5
C0
100
AcDbEntity
100
AcDbLine
  8
STEGE
 62
256
370
-1
 48
1.0
  6
BYLAYER
 10
45.0
 20
24.0
 30
0.0
 11
47.0
 21
24.0
 31
0.0
  0
LINE
  5
C1
100
AcDbEntity
100
AcDbLine
  8
STEGE
 62
256
370
-1
 48
1.0
  6
BYLAYER
 10
53.5
 20
24.0
 30
0.0
 11
56.0
 21
24.0
 31
0.0
  0
ENDSEC
  0
SECTION
  2
OBJECTS
  0
DICTIONARY
  5
C
100
AcDbDictionary
280
0
281
1
  3
ACAD_GROUP
350
D
  3
ACAD_LAYOUT
350
1A
  3
ACAD_MLINESTYLE
350
17
  3
ACAD_PLOTSETTINGS
350
19
  3
ACAD_PLOTSTYLENAME
350
E
  3
AcDbVariableDictionary
350
C2
  3
QCAD_OBJECTS
350
C3
  0
DICTIONARY
  5
D
100
AcDbDictionary
280
0
281
1
  0
ACDBDICTIONARYWDFLT
  5
E
100
AcDbDictionary
281
1
  3
Normal
350
F
100
AcDbDictionaryWithDefault
340
F
  0
ACDBPLACEHOLDER
  5
F
  0
DICTIONARY
  5
17
100
AcDbDictionary
280
0
281
1
  3
Standard
350
18
  0
MLINESTYLE
  5
18
100
AcDbMlineStyle
  2
STANDARD
 70
0
  3

 62
256
 51
90.0
 52
90.0
 71
2
 49
0.5
 62
256
  6
BYLAYER
 49
-0.5
 62
256
  6
BYLAYER
  0
DICTIONARY
  5
19
100
AcDbDictionary
280
0
281
1
  0
DICTIONARY
  5
1A
100
AcDbDictionary
281
1
  3
Layout1
350
1E
  3
Layout2
350
26
  3
Model
350
22
  0
LAYOUT
  5
1E
100
AcDbPlotSettings
  1

  2
none_device
  4

  6

 40
0.0
 41
0.0
 42
0.0
 43
0.0
 44
0.0
 45
0.0
 46
0.0
 47
0.0
 48
0.0
 49
0.0
140
0.0
141
0.0
142
1.0
143
1.0
 70
688
 72
0
 73
0
 74
5
  7

 75
16
147
1.0
148
0.0
149
0.0
100
AcDbLayout
  1
Layout1
 70
1
 71
1
 10
0.0
 20
0.0
 11
420.0
 21
297.0
 12
0.0
 22
0.0
 32
0.0
 14
100000000000000000000.0
 24
100000000000000000000.0
 34
100000000000000000000.0
 15
-100000000000000000000.0
 25
-100000000000000000000.0
 35
-100000000000000000000.0
146
0.0
 13
0.0
 23
0.0
 33
0.0
 16
1.0
 26
0.0
 36
0.0
 17
0.0
 27
1.0
 37
0.0
 76
0
330
1B
  0
LAYOUT
  5
22
100
AcDbPlotSettings
  1

  2
none_device
  4

  6

 40
0.0
 41
0.0
 42
0.0
 43
0.0
 44
0.0
 45
0.0
 46
0.0
 47
0.0
 48
0.0
 49
0.0
140
0.0
141
0.0
142
1.0
143
1.0
 70
1712
 72
0
 73
0
 74
0
  7

 75
0
147
1.0
148
0.0
149
0.0
100
AcDbLayout
  1
Model
 70
1
 71
0
 10
0.0
 20
0.0
 11
12.0
 21
9.0
 12
0.0
 22
0.0
 32
0.0
 14
0.0
 24
0.0
 34
0.0
 15
0.0
 25
0.0
 35
0.0
146
0.0
 13
0.0
 23
0.0
 33
0.0
 16
1.0
 26
0.0
 36
0.0
 17
0.0
 27
1.0
 37
0.0
 76
0
330
1F
  0
LAYOUT
  5
26
100
AcDbPlotSettings
  1

  2
none_device
  4

  6

 40
0.0
 41
0.0
 42
0.0
 43
0.0
 44
0.0
 45
0.0
 46
0.0
 47
0.0
 48
0.0
 49
0.0
140
0.0
141
0.0
142
1.0
143
1.0
 70
688
 72
0
 73
0
 74
5
  7

 75
16
147
1.0
148
0.0
149
0.0
100
AcDbLayout
  1
Layout2
 70
1
 71
2
 10
0.0
 20
0.0
 11
12.0
 21
9.0
 12
0.0
 22
0.0
 32
0.0
 14
0.0
 24
0.0
 34
0.0
 15
0.0
 25
0.0
 35
0.0
146
0.0
 13
0.0
 23
0.0
 33
0.0
 16
1.0
 26
0.0
 36
0.0
 17
0.0
 27
1.0
 37
0.0
 76
0
330
23
  0
DICTIONARY
  5
C2
100
AcDbDictionary
281
1
  3
DIMASSOC
350
C5
  3
HIDETEXT
350
C4
  0
DICTIONARYVAR
  5
C4
100
DictionaryVariables
280
0
  1
2
  0
DICTIONARYVAR
  5
C5
100
DictionaryVariables
280
0
  1
1
  0
DICTIONARY
  5
C3
100
AcDbDictionary
281
1
  3
ColorSettings/BackgroundColor
350
C6
  3
ColorSettings/ColorMode
350
C7
  3
Grid/DisplayGrid00
350
C8
  3
Grid/DisplayGrid01
350
C9
  3
Grid/DisplayGrid02
350
CA
  3
Grid/DisplayGrid03
350
CB
  3
Grid/GridSpacingX00
350
CC
  3
Grid/GridSpacingX01
350
CD
  3
Grid/GridSpacingX02
350
CE
  3
Grid/GridSpacingX03
350
CF
  3
Grid/GridSpacingY00
350
D0
  3
Grid/GridSpacingY01
350
D1
  3
Grid/GridSpacingY02
350
D2
  3
Grid/GridSpacingY03
350
D3
  3
Grid/IsometricGrid00
350
D4
  3
Grid/IsometricGrid01
350
D5
  3
Grid/IsometricGrid02
350
D6
  3
Grid/IsometricGrid03
350
D7
  3
Grid/IsometricProjection00
350
D8
  3
Grid/IsometricProjection01
350
D9
  3
Grid/IsometricProjection02
350
DA
  3
Grid/IsometricProjection03
350
DB
  3
Grid/MetaGridSpacingX00
350
DC
  3
Grid/MetaGridSpacingX01
350
DD
  3
Grid/MetaGridSpacingX02
350
DE
  3
Grid/MetaGridSpacingX03
350
DF
  3
Grid/MetaGridSpacingY00
350
E0
  3
Grid/MetaGridSpacingY01
350
E1
  3
Grid/MetaGridSpacingY02
350
E2
  3
Grid/MetaGridSpacingY03
350
E3
  3
MultiPageSettings/Columns
350
E4
  3
MultiPageSettings/GlueMarginsBottom
350
E5
  3
MultiPageSettings/GlueMarginsLeft
350
E6
  3
MultiPageSettings/GlueMarginsRight
350
E7
  3
MultiPageSettings/GlueMarginsTop
350
E8
  3
MultiPageSettings/PrintCropMarks
350
E9
  3
MultiPageSettings/Rows
350
EA
  3
PageSettings/OffsetX
350
EB
  3
PageSettings/OffsetY
350
EC
  3
PageSettings/PageOrientation
350
ED
  3
PageSettings/PaperHeight
350
EE
  3
PageSettings/PaperWidth
350
EF
  3
PageSettings/Scale
350
F0
  3
PageSettings/ShowPaperBorders
350
F1
  3
QCADVersion
350
F2
  3
UnitSettings/PaperUnit
350
F3
  3
ViewportCenter
350
F4
  3
ViewportHeight
350
F5
  3
ViewportWidth
350
F6
  0
XRECORD
  5
C6
330
C3
100
AcDbXrecord
280
1
1000
Weiss
  0
XRECORD
  5
C7
330
C3
100
AcDbXrecord
280
1
1000
FullColor
  0
XRECORD
  5
C8
330
C3
100
AcDbXrecord
280
1
290
1
  0
XRECORD
  5
C9
330
C3
100
AcDbXrecord
280
1
290
1
  0
XRECORD
  5
CA
330
C3
100
AcDbXrecord
280
1
290
1
  0
XRECORD
  5
CB
330
C3
100
AcDbXrecord
280
1
290
1
  0
XRECORD
  5
CC
330
C3
100
AcDbXrecord
280
1
1000
auto
  0
XRECORD
  5
CD
330
C3
100
AcDbXrecord
280
1
1000
auto
  0
XRECORD
  5
CE
330
C3
100
AcDbXrecord
280
1
1000
auto
  0
XRECORD
  5
CF
330
C3
100
AcDbXrecord
280
1
1000
auto
  0
XRECORD
  5
D0
330
C3
100
AcDbXrecord
280
1
1000
auto
  0
XRECORD
  5
D1
330
C3
100
AcDbXrecord
280
1
1000
auto
  0
XRECORD
  5
D2
330
C3
100
AcDbXrecord
280
1
1000
auto
  0
XRECORD
  5
D3
330
C3
100
AcDbXrecord
280
1
1000
auto
  0
XRECORD
  5
D4
330
C3
100
AcDbXrecord
280
1
290
0
  0
XRECORD
  5
D5
330
C3
100
AcDbXrecord
280
1
290
0
  0
XRECORD
  5
D6
330
C3
100
AcDbXrecord
280
1
290
0
  0
XRECORD
  5
D7
330
C3
100
AcDbXrecord
280
1
290
0
  0
XRECORD
  5
D8
330
C3
100
AcDbXrecord
280
1
 90
0
  0
XRECORD
  5
D9
330
C3
100
AcDbXrecord
280
1
 90
0
  0
XRECORD
  5
DA
330
C3
100
AcDbXrecord
280
1
 90
0
  0
XRECORD
  5
DB
330
C3
100
AcDbXrecord
280
1
 90
0
  0
XRECORD
  5
DC
330
C3
100
AcDbXrecord
280
1
1000
auto
  0
XRECORD
  5
DD
330
C3
100
AcDbXrecord
280
1
1000
auto
  0
XRECORD
  5
DE
330
C3
100
AcDbXrecord
280
1
1000
auto
  0
XRECORD
  5
DF
330
C3
100
AcDbXrecord
280
1
1000
auto
  0
XRECORD
  5
E0
330
C3
100
AcDbXrecord
280
1
1000
auto
  0
XRECORD
  5
E1
330
C3
100
AcDbXrecord
280
1
1000
auto
  0
XRECORD
  5
E2
330
C3
100
AcDbXrecord
280
1
1000
auto
  0
XRECORD
  5
E3
330
C3
100
AcDbXrecord
280
1
1000
auto
  0
XRECORD
  5
E4
330
C3
100
AcDbXrecord
280
1
 90
1
  0
XRECORD
  5
E5
330
C3
100
AcDbXrecord
280
1
 40
10.0
  0
XRECORD
  5
E6
330
C3
100
AcDbXrecord
280
1
 40
10.0
  0
XRECORD
  5
E7
330
C3
100
AcDbXrecord
280
1
 40
10.0
  0
XRECORD
  5
E8
330
C3
100
AcDbXrecord
280
1
 40
10.0
  0
XRECORD
  5
E9
330
C3
100
AcDbXrecord
280
1
290
0
  0
XRECORD
  5
EA
330
C3
100
AcDbXrecord
280
1
 90
1
  0
XRECORD
  5
EB
330
C3
100
AcDbXrecord
280
1
 40
0.0
  0
XRECORD
  5
EC
330
C3
100
AcDbXrecord
280
1
 40
0.0
  0
XRECORD
  5
ED
330
C3
100
AcDbXrecord
280
1
1000
Portrait
  0
XRECORD
  5
EE
330
C3
100
AcDbXrecord
280
1
 40
297.0
  0
XRECORD
  5
EF
330
C3
100
AcDbXrecord
280
1
 40
210.0
  0
XRECORD
  5
F0
330
C3
100
AcDbXrecord
280
1
1000
1:1
  0
XRECORD
  5
F1
330
C3
100
AcDbXrecord
280
1
290
1
  0
XRECORD
  5
F2
330
C3
100
AcDbXrecord
280
1
1000
3.15.4
  0
XRECORD
  5
F3
330
C3
100
AcDbXrecord
280
1
 90
4
  0
XRECORD
  5
F5
330
C3
100
AcDbXrecord
280
1
 40
54.0479146487817985
  0
XRECORD
  5
F6
330
C3
100
AcDbXrecord
280
1
 40
97.9019821043123386
  0
ENDSEC
  0
EOF
