999
dxflib 3.12.2.0
  0
SECTION
  2
HEADER
  9
$ACADVER
  1
AC1015
  9
$HANDSEED
  5
FFFF
  9
$ANGBASE
 50
0.0
  9
$ANGDIR
 70
0
  9
$ATTMODE
 70
1
  9
$AUNITS
 70
0
  9
$AUPREC
 70
0
  9
$CECOLOR
 62
178
  9
$CELTSCALE
 40
1.0
  9
$CHAMFERA
 40
0.0
  9
$CHAMFERB
 40
0.0
  9
$CHAMFERC
 40
0.0
  9
$CHAMFERD
 40
0.0
  9
$CMLJUST
 70
0
  9
$CMLSCALE
 40
1.0
  9
$DIMADEC
 70
0
  9
$DIMALT
 70
0
  9
$DIMALTD
 70
2
  9
$DIMALTF
 40
25.3999999999999986
  9
$DIMALTRND
 40
0.0
  9
$DIMALTTD
 70
2
  9
$DIMALTTZ
 70
0
  9
$DIMALTU
 70
2
  9
$DIMALTZ
 70
0
  9
$DIMAPOST
  1

  9
$DIMASZ
 40
0.18
  9
$DIMATFIT
 70
3
  9
$DIMAUNIT
 70
0
  9
$DIMAZIN
 70
0
  9
$DIMBLK
  1

  9
$DIMBLK1
  1

  9
$DIMBLK2
  1

  9
$DIMCEN
 40
0.09
  9
$DIMCLRD
 70
178
  9
$DIMCLRE
 70
178
  9
$DIMCLRT
 70
178
  9
$DIMDEC
 70
4
  9
$DIMDLE
 40
0.0
  9
$DIMDLI
 40
0.38
  9
$DIMDSEP
 70
46
  9
$DIMEXE
 40
0.18
  9
$DIMEXO
 40
0.0625
  9
$DIMFRAC
 70
0
  9
$DIMGAP
 40
0.09
  9
$DIMJUST
 70
0
  9
$DIMLDRBLK
  1

  9
$DIMLFAC
 40
1.0
  9
$DIMLIM
 70
0
  9
$DIMLUNIT
 70
2
  9
$DIMLWD
 70
-2
  9
$DIMLWE
 70
-2
  9
$DIMPOST
  1

  9
$DIMRND
 40
0.0
  9
$DIMSAH
 70
0
  9
$DIMSCALE
 40
1.0
  9
$DIMSD1
 70
0
  9
$DIMSD2
 70
0
  9
$DIMSE1
 70
0
  9
$DIMSE2
 70
0
  9
$DIMSOXD
 70
0
  9
$DIMTAD
 70
0
  9
$DIMTDEC
 70
4
  9
$DIMTFAC
 40
1.0
  9
$DIMTIH
 70
1
  9
$DIMTIX
 70
0
  9
$DIMTM
 40
0.0
  9
$DIMTOFL
 70
0
  9
$DIMTOH
 70
1
  9
$DIMTOL
 70
0
  9
$DIMTOLJ
 70
1
  9
$DIMTP
 40
0.0
  9
$DIMTSZ
 40
0.0
  9
$DIMTVP
 40
0.0
  9
$DIMTXSTY
  7
Standard
  9
$DIMTXT
 40
0.18
  9
$DIMTZIN
 70
0
  9
$DIMUPT
 70
0
  9
$DIMZIN
 70
0
  9
$DISPSILH
 70
0
  9
$DWGCODEPAGE
  3
ANSI_1252
  9
$ELEVATION
 40
0.0
  9
$EXTMAX
 10
-100000000000000000000.0
 20
-100000000000000000000.0
 30
-100000000000000000000.0
  9
$EXTMIN
 10
100000000000000000000.0
 20
100000000000000000000.0
 30
100000000000000000000.0
  9
$FILLETRAD
 40
0.5
  9
$FILLMODE
 70
1
  9
$INSBASE
 10
0.0
 20
0.0
 30
0.0
  9
$INSUNITS
 70
4
  9
$LIMCHECK
 70
0
  9
$LIMMAX
 10
12.0
 20
9.0
  9
$LIMMIN
 10
0.0
 20
0.0
  9
$LTSCALE
 40
1.0
  9
$LUNITS
 70
2
  9
$LUPREC
 70
4
  9
$MAXACTVP
 70
2
  9
$MEASUREMENT
 70
0
  9
$MIRRTEXT
 70
1
  9
$ORTHOMODE
 70
0
  9
$PDMODE
 70
0
  9
$PDSIZE
 40
0
  9
$PELEVATION
 40
0.0
  9
$PEXTMAX
 10
-100000000000000000000.0
 20
-100000000000000000000.0
 30
-100000000000000000000.0
  9
$PEXTMIN
 10
100000000000000000000.0
 20
100000000000000000000.0
 30
100000000000000000000.0
  9
$PINSBASE
 10
0.0
 20
0.0
 30
0.0
  9
$PLIMCHECK
 70
0
  9
$PLIMMAX
 10
10.75
 20
8.25
  9
$PLIMMIN
 10
-0.25
 20
-0.25
  9
$PLINEGEN
 70
0
  9
$PLINEWID
 40
0.0
  9
$PROXYGRAPHICS
 70
1
  9
$PSLTSCALE
 70
1
  9
$PUCSNAME
  2

  9
$PUCSORG
 10
0.0
 20
0.0
 30
0.0
  9
$PUCSXDIR
 10
1.0
 20
0.0
 30
0.0
  9
$PUCSYDIR
 10
0.0
 20
1.0
 30
0.0
  9
$QTEXTMODE
 70
0
  9
$REGENMODE
 70
1
  9
$SHADEDGE
 70
3
  9
$SHADEDIF
 70
70
  9
$SKETCHINC
 40
0.1
  9
$SKPOLY
 70
0
  9
$SPLFRAME
 70
0
  9
$SPLINESEGS
 70
8
  9
$SPLINETYPE
 70
6
  9
$SURFTAB1
 70
6
  9
$SURFTAB2
 70
6
  9
$SURFTYPE
 70
6
  9
$SURFU
 70
6
  9
$SURFV
 70
6
  9
$TEXTSIZE
 40
0.2
  9
$TEXTSTYLE
  7
Standard
  9
$THICKNESS
 40
0.0
  9
$TILEMODE
 70
1
  9
$TRACEWID
 40
0.05
  9
$TREEDEPTH
 70
3020
  9
$UCSNAME
  2

  9
$UCSORG
 10
0.0
 20
0.0
 30
0.0
  9
$UCSXDIR
 10
1.0
 20
0.0
 30
0.0
  9
$UCSYDIR
 10
0.0
 20
1.0
 30
0.0
  9
$UNITMODE
 70
0
  9
$USERI1
 70
0
  9
$USERI2
 70
0
  9
$USERI3
 70
0
  9
$USERI4
 70
0
  9
$USERI5
 70
0
  9
$USERR1
 40
0.0
  9
$USERR2
 40
0.0
  9
$USERR3
 40
0.0
  9
$USERR4
 40
0.0
  9
$USERR5
 40
0.0
  9
$USRTIMER
 70
1
  9
$VISRETAIN
 70
1
  0
ENDSEC
  0
SECTION
  2
TABLES
  0
TABLE
  2
VPORT
  5
8
100
AcDbSymbolTable
 70
1
  0
VPORT
  5
30
100
AcDbSymbolTableRecord
100
AcDbViewportTableRecord
  2
*Active
 70
0
 10
0.0
 20
0.0
 11
1.0
 21
1.0
 12
286.3055555555554861
 22
148.5
 13
0.0
 23
0.0
 14
10.0
 24
10.0
 15
10.0
 25
10.0
 16
0.0
 26
0.0
 36
1.0
 17
0.0
 27
0.0
 37
0.0
 40
297.0
 41
1.92798353909465
 42
50.0
 43
0.0
 44
0.0
 50
0.0
 51
0.0
 71
0
 72
100
 73
1
 74
3
 75
1
 76
1
 77
0
 78
0
281
0
 65
1
110
0.0
120
0.0
130
0.0
111
1.0
121
0.0
131
0.0
112
0.0
122
1.0
132
0.0
 79
0
146
0.0
  0
ENDTAB
  0
TABLE
  2
LTYPE
  5
5
100
AcDbSymbolTable
 70
54
  0
LTYPE
  5
16
100
AcDbSymbolTableRecord
100
AcDbLinetypeTableRecord
  2
Continuous
 70
0
  3
Solid line
 72
65
 73
0
 40
0.0
  0
LTYPE
  5
31
100
AcDbSymbolTableRecord
100
AcDbLinetypeTableRecord
  2
CENTERX2
 70
0
  3
Center (2x) ________  __  ________  __  _____
 72
65
 73
4
 40
101.6000000000000085
 49
63.5
 74
0
 49
-12.6999999999999993
 74
0
 49
12.6999999999999993
 74
0
 49
-12.6999999999999993
 74
0
  0
LTYPE
  5
32
100
AcDbSymbolTableRecord
100
AcDbLinetypeTableRecord
  2
ACAD_ISO06W100
 70
0
  3
ISO long-dash triple-dot ____ ... ____ ... ____
 72
65
 73
8
 40
36.0000000000000071
 49
24.0
 74
0
 49
-2.9500000000000002
 74
0
 49
0.1
 74
0
 49
-2.9000000000000004
 74
0
 49
0.1
 74
0
 49
-2.9000000000000004
 74
0
 49
0.1
 74
0
 49
-2.9500000000000002
 74
0
  0
LTYPE
  5
33
100
AcDbSymbolTableRecord
100
AcDbLinetypeTableRecord
  2
CUTLEFT2
 70
0
  3
G41 reversed----/----/----/----
 72
65
 73
1
 40
5.0800000000000001
 49
5.0800000000000001
 74
0
  0
LTYPE
  5
34
100
AcDbSymbolTableRecord
100
AcDbLinetypeTableRecord
  2
TRACKS
 70
0
  3
Tracks -|-|-|-|-|-|-|-|-|-|-|-|-|-|-|-|-|-|-|-|-|-|-|-|-
 72
65
 73
1
 40
3.8100000000000001
 49
3.8100000000000001
 74
0
  0
LTYPE
  5
35
100
AcDbSymbolTableRecord
100
AcDbLinetypeTableRecord
  2
GAS_LINE
 70
0
  3
Gas line ----GAS----GAS----GAS----GAS----GAS----GAS--
 72
65
 73
2
 40
17.7800000000000011
 49
12.6999999999999993
 74
0
 49
-5.0800000000000001
 74
0
  0
LTYPE
  5
36
100
AcDbSymbolTableRecord
100
AcDbLinetypeTableRecord
  2
PHANTOM
 70
0
  3
Phantom ______  __  __  ______  __  __  ______ 
 72
65
 73
6
 40
63.5000000000000071
 49
31.75
 74
0
 49
-6.3499999999999996
 74
0
 49
6.3499999999999996
 74
0
 49
-6.3499999999999996
 74
0
 49
6.3499999999999996
 74
0
 49
-6.3499999999999996
 74
0
  0
LTYPE
  5
37
100
AcDbSymbolTableRecord
100
AcDbLinetypeTableRecord
  2
DIVIDEX2
 70
0
  3
Divide (2x) ________  .  .  ________  .  .  _
 72
65
 73
6
 40
63.5
 49
25.3999999999999986
 74
0
 49
-12.6499999999999986
 74
0
 49
0.1
 74
0
 49
-12.5999999999999979
 74
0
 49
0.1
 74
0
 49
-12.6499999999999986
 74
0
  0
LTYPE
  5
38
100
AcDbSymbolTableRecord
100
AcDbLinetypeTableRecord
  2
ACAD_ISO13W100
 70
0
  3
ISO double-dash double-dot __ __ . . __ __ . . _
 72
65
 73
8
 40
36.0000000000000071
 49
12.0
 74
0
 49
-3.0
 74
0
 49
12.0
 74
0
 49
-2.9500000000000002
 74
0
 49
0.1
 74
0
 49
-2.9000000000000004
 74
0
 49
0.1
 74
0
 49
-2.9500000000000002
 74
0
  0
LTYPE
  5
39
100
AcDbSymbolTableRecord
100
AcDbLinetypeTableRecord
  2
ACAD_ISO05W100
 70
0
  3
ISO long-dash double-dot ____ .. ____ .. ____ . 
 72
65
 73
6
 40
33.0000000000000071
 49
24.0
 74
0
 49
-2.9500000000000002
 74
0
 49
0.1
 74
0
 49
-2.9000000000000004
 74
0
 49
0.1
 74
0
 49
-2.9500000000000002
 74
0
  0
LTYPE
  5
3A
100
AcDbSymbolTableRecord
100
AcDbLinetypeTableRecord
  2
BORDER
 70
0
  3
Border __ __ . __ __ . __ __ . __ __ . __ __ .
 72
65
 73
6
 40
44.4499999999999957
 49
12.6999999999999993
 74
0
 49
-6.3499999999999996
 74
0
 49
12.6999999999999993
 74
0
 49
-6.2999999999999998
 74
0
 49
0.1
 74
0
 49
-6.2999999999999998
 74
0
  0
LTYPE
  5
3B
100
AcDbSymbolTableRecord
100
AcDbLinetypeTableRecord
  2
BORDER2
 70
0
  3
Border (.5x) __.__.__.__.__.__.__.__.__.__.__.
 72
65
 73
6
 40
22.2250000000000014
 49
6.3499999999999996
 74
0
 49
-3.1749999999999998
 74
0
 49
6.3499999999999996
 74
0
 49
-3.125
 74
0
 49
0.1
 74
0
 49
-3.125
 74
0
  0
LTYPE
  5
3C
100
AcDbSymbolTableRecord
100
AcDbLinetypeTableRecord
  2
BORDERX2
 70
0
  3
Border (2x) ____  ____  .  ____  ____  .  ___
 72
65
 73
6
 40
88.8999999999999773
 49
25.3999999999999986
 74
0
 49
-12.6999999999999993
 74
0
 49
25.3999999999999986
 74
0
 49
-12.6499999999999986
 74
0
 49
0.1
 74
0
 49
-12.6499999999999986
 74
0
  0
LTYPE
  5
3D
100
AcDbSymbolTableRecord
100
AcDbLinetypeTableRecord
  2
DASHED2
 70
0
  3
Dashed (.5x) _ _ _ _ _ _ _ _ _ _ _ _ _ _ _ _ _ 
 72
65
 73
2
 40
9.5249999999999986
 49
6.3499999999999996
 74
0
 49
-3.1749999999999998
 74
0
  0
LTYPE
  5
3E
100
AcDbSymbolTableRecord
100
AcDbLinetypeTableRecord
  2
CUTLEFT
 70
0
  3
G41 ----\----\----\----
 72
65
 73
1
 40
5.0800000000000001
 49
5.0800000000000001
 74
0
  0
LTYPE
  5
3F
100
AcDbSymbolTableRecord
100
AcDbLinetypeTableRecord
  2
ACAD_ISO12W100
 70
0
  3
ISO dash double-dot __ . . __ . . __ . . __ . . 
 72
65
 73
6
 40
21.0
 49
12.0
 74
0
 49
-2.9500000000000002
 74
0
 49
0.1
 74
0
 49
-2.9000000000000004
 74
0
 49
0.1
 74
0
 49
-2.9500000000000002
 74
0
  0
LTYPE
  5
40
100
AcDbSymbolTableRecord
100
AcDbLinetypeTableRecord
  2
DASHDOTX2
 70
0
  3
Dash dot (2x) ____  .  ____  .  ____  .  ___
 72
65
 73
4
 40
50.7999999999999972
 49
25.3999999999999986
 74
0
 49
-12.6499999999999986
 74
0
 49
0.1
 74
0
 49
-12.6499999999999986
 74
0
  0
LTYPE
  5
41
100
AcDbSymbolTableRecord
100
AcDbLinetypeTableRecord
  2
ACAD_ISO04W100
 70
0
  3
ISO long-dash dot ____ . ____ . ____ . ____ . _
 72
65
 73
4
 40
30.0
 49
24.0
 74
0
 49
-2.9500000000000002
 74
0
 49
0.1
 74
0
 49
-2.9500000000000002
 74
0
  0
LTYPE
  5
42
100
AcDbSymbolTableRecord
100
AcDbLinetypeTableRecord
  2
CUTRIGHT
 70
0
  3
G42 ----/----/-----/---
 72
65
 73
1
 40
5.0800000000000001
 49
5.0800000000000001
 74
0
  0
LTYPE
  5
43
100
AcDbSymbolTableRecord
100
AcDbLinetypeTableRecord
  2
PHANTOM2
 70
0
  3
Phantom (.5x) ___ _ _ ___ _ _ ___ _ _ ___ _ _
 72
65
 73
6
 40
31.7500000000000036
 49
15.875
 74
0
 49
-3.1749999999999998
 74
0
 49
3.1749999999999998
 74
0
 49
-3.1749999999999998
 74
0
 49
3.1749999999999998
 74
0
 49
-3.1749999999999998
 74
0
  0
LTYPE
  5
44
100
AcDbSymbolTableRecord
100
AcDbLinetypeTableRecord
  2
HIDDEN
 70
0
  3
Hidden __ __ __ __ __ __ __ __ __ __ __ __ __ __
 72
65
 73
2
 40
9.5249999999999986
 49
6.3499999999999996
 74
0
 49
-3.1749999999999998
 74
0
  0
LTYPE
  5
45
100
AcDbSymbolTableRecord
100
AcDbLinetypeTableRecord
  2
HIDDEN2
 70
0
  3
Hidden (.5x) _ _ _ _ _ _ _ _ _ _ _ _ _ _ _ _ _ 
 72
65
 73
2
 40
4.7624999999999993
 49
3.1749999999999998
 74
0
 49
-1.5874999999999999
 74
0
  0
LTYPE
  5
46
100
AcDbSymbolTableRecord
100
AcDbLinetypeTableRecord
  2
ACAD_ISO11W100
 70
0
  3
ISO double-dash dot __ __ . __ __ . __ __ . __ _
 72
65
 73
6
 40
33.0
 49
12.0
 74
0
 49
-3.0
 74
0
 49
12.0
 74
0
 49
-2.9500000000000002
 74
0
 49
0.1
 74
0
 49
-2.9500000000000002
 74
0
  0
LTYPE
  5
47
100
AcDbSymbolTableRecord
100
AcDbLinetypeTableRecord
  2
ACAD_ISO03W100
 70
0
  3
ISO dash space __    __    __    __    __    __
 72
65
 73
2
 40
30.0
 49
12.0
 74
0
 49
-18.0
 74
0
  0
LTYPE
  5
48
100
AcDbSymbolTableRecord
100
AcDbLinetypeTableRecord
  2
HIDDENX2
 70
0
  3
Hidden (2x) ____ ____ ____ ____ ____ ____ ____ 
 72
65
 73
2
 40
19.0499999999999972
 49
12.6999999999999993
 74
0
 49
-6.3499999999999996
 74
0
  0
LTYPE
  5
49
100
AcDbSymbolTableRecord
100
AcDbLinetypeTableRecord
  2
BATTING
 70
0
  3
Batting SSSSSSSSSSSSSSSSSSSSSSSSSSSSSSSSSSSSSSSSSSSSSSS
 72
65
 73
2
 40
2.5425400000000002
 49
0.00254
 74
0
 49
-2.54
 74
0
  0
LTYPE
  5
4A
100
AcDbSymbolTableRecord
100
AcDbLinetypeTableRecord
  2
PHANTOMX2
 70
0
  3
Phantom (2x) ____________    ____    ____   _
 72
65
 73
6
 40
127.0000000000000142
 49
63.5
 74
0
 49
-12.6999999999999993
 74
0
 49
12.6999999999999993
 74
0
 49
-12.6999999999999993
 74
0
 49
12.6999999999999993
 74
0
 49
-12.6999999999999993
 74
0
  0
LTYPE
  5
4B
100
AcDbSymbolTableRecord
100
AcDbLinetypeTableRecord
  2
ACAD_ISO10W100
 70
0
  3
ISO dash dot __ . __ . __ . __ . __ . __ . __ . 
 72
65
 73
4
 40
18.0
 49
12.0
 74
0
 49
-2.9500000000000002
 74
0
 49
0.1
 74
0
 49
-2.9500000000000002
 74
0
  0
LTYPE
  5
4C
100
AcDbSymbolTableRecord
100
AcDbLinetypeTableRecord
  2
DOT2
 70
0
  3
Dot (.5x) ........................................
 72
65
 73
2
 40
3.1749999999999998
 49
0.1
 74
0
 49
-3.0749999999999997
 74
0
  0
LTYPE
  5
4D
100
AcDbSymbolTableRecord
100
AcDbLinetypeTableRecord
  2
DASHDOT
 70
0
  3
Dash dot __ . __ . __ . __ . __ . __ . __ . __
 72
65
 73
4
 40
25.4000000000000021
 49
12.6999999999999993
 74
0
 49
-6.2999999999999998
 74
0
 49
0.1
 74
0
 49
-6.2999999999999998
 74
0
  0
LTYPE
  5
4E
100
AcDbSymbolTableRecord
100
AcDbLinetypeTableRecord
  2
DASHEDX2
 70
0
  3
Dashed (2x) ____  ____  ____  ____  ____  ___
 72
65
 73
2
 40
38.0999999999999943
 49
25.3999999999999986
 74
0
 49
-12.6999999999999993
 74
0
  0
LTYPE
  5
4F
100
AcDbSymbolTableRecord
100
AcDbLinetypeTableRecord
  2
ACAD_ISO02W100
 70
0
  3
ISO dash __ __ __ __ __ __ __ __ __ __ __ __ __
 72
65
 73
2
 40
15.0
 49
12.0
 74
0
 49
-3.0
 74
0
  0
LTYPE
  5
50
100
AcDbSymbolTableRecord
100
AcDbLinetypeTableRecord
  2
DRAINAGE
 70
0
  3
Drainage ---->---->---->----
 72
65
 73
1
 40
5.0800000000000001
 49
5.0800000000000001
 74
0
  0
LTYPE
  5
51
100
AcDbSymbolTableRecord
100
AcDbLinetypeTableRecord
  2
ZIGZAG
 70
0
  3
Zig zag /\/\/\/\/\/\/\/\/\/\/\/\/\/\/\/\/\/\/\/\/\/\/\/
 72
65
 73
2
 40
5.0825399999999998
 49
0.00254
 74
0
 49
-5.0800000000000001
 74
0
  0
LTYPE
  5
52
100
AcDbSymbolTableRecord
100
AcDbLinetypeTableRecord
  2
FENCELINE1
 70
0
  3
Fenceline circle ----0-----0----0-----0----0-----0--
 72
65
 73
2
 40
8.8900000000000006
 49
6.3499999999999996
 74
0
 49
-2.54
 74
0
  0
LTYPE
  5
53
100
AcDbSymbolTableRecord
100
AcDbLinetypeTableRecord
  2
FENCELINE2
 70
0
  3
Fenceline square ----[]-----[]----[]-----[]----[]---
 72
65
 73
2
 40
8.8900000000000006
 49
6.3499999999999996
 74
0
 49
-2.54
 74
0
  0
LTYPE
  5
14
100
AcDbSymbolTableRecord
100
AcDbLinetypeTableRecord
  2
ByBlock
 70
0
  3

 72
65
 73
0
 40
0.0
  0
LTYPE
  5
54
100
AcDbSymbolTableRecord
100
AcDbLinetypeTableRecord
  2
DOT
 70
0
  3
Dot . . . . . . . . . . . . . . . . . . . . . . . .
 72
65
 73
2
 40
6.3499999999999996
 49
0.1
 74
0
 49
-6.25
 74
0
  0
LTYPE
  5
55
100
AcDbSymbolTableRecord
100
AcDbLinetypeTableRecord
  2
CUTRIGHT2
 70
0
  3
G42 reversed----\----\----\----
 72
65
 73
1
 40
5.0800000000000001
 49
5.0800000000000001
 74
0
  0
LTYPE
  5
56
100
AcDbSymbolTableRecord
100
AcDbLinetypeTableRecord
  2
ACAD_ISO09W100
 70
0
  3
ISO long-dash double-short-dash ____ __ __ ____
 72
65
 73
6
 40
45.0
 49
24.0
 74
0
 49
-3.0
 74
0
 49
6.0
 74
0
 49
-3.0
 74
0
 49
6.0
 74
0
 49
-3.0
 74
0
  0
LTYPE
  5
57
100
AcDbSymbolTableRecord
100
AcDbLinetypeTableRecord
  2
DIVIDE2
 70
0
  3
Divide (.5x) __..__..__..__..__..__..__..__.._
 72
65
 73
6
 40
15.8749999999999982
 49
6.3499999999999996
 74
0
 49
-3.125
 74
0
 49
0.1
 74
0
 49
-3.0750000000000002
 74
0
 49
0.1
 74
0
 49
-3.125
 74
0
  0
LTYPE
  5
58
100
AcDbSymbolTableRecord
100
AcDbLinetypeTableRecord
  2
DASHDOT2
 70
0
  3
Dash dot (.5x) _._._._._._._._._._._._._._._.
 72
65
 73
4
 40
12.6999999999999993
 49
6.3499999999999996
 74
0
 49
-3.125
 74
0
 49
0.1
 74
0
 49
-3.125
 74
0
  0
LTYPE
  5
59
100
AcDbSymbolTableRecord
100
AcDbLinetypeTableRecord
  2
HOT_WATER_SUPPLY
 70
0
  3
Hot water supply ---- HW ---- HW ---- HW ----
 72
65
 73
2
 40
17.7800000000000011
 49
12.6999999999999993
 74
0
 49
-5.0800000000000001
 74
0
  0
LTYPE
  5
5A
100
AcDbSymbolTableRecord
100
AcDbLinetypeTableRecord
  2
ACAD_ISO08W100
 70
0
  3
ISO long-dash short-dash ____ __ ____ __ ____ _
 72
65
 73
4
 40
36.0
 49
24.0
 74
0
 49
-3.0
 74
0
 49
6.0
 74
0
 49
-3.0
 74
0
  0
LTYPE
  5
5B
100
AcDbSymbolTableRecord
100
AcDbLinetypeTableRecord
  2
CENTER2
 70
0
  3
Center (.5x) ___ _ ___ _ ___ _ ___ _ ___ _ ___
 72
65
 73
4
 40
28.5750000000000028
 49
19.0500000000000007
 74
0
 49
-3.1749999999999998
 74
0
 49
3.1749999999999998
 74
0
 49
-3.1749999999999998
 74
0
  0
LTYPE
  5
5C
100
AcDbSymbolTableRecord
100
AcDbLinetypeTableRecord
  2
CENTER
 70
0
  3
Center ____ _ ____ _ ____ _ ____ _ ____ _ ____
 72
65
 73
4
 40
50.8000000000000043
 49
31.75
 74
0
 49
-6.3499999999999996
 74
0
 49
6.3499999999999996
 74
0
 49
-6.3499999999999996
 74
0
  0
LTYPE
  5
5D
100
AcDbSymbolTableRecord
100
AcDbLinetypeTableRecord
  2
DRAINAGE2
 70
0
  3
Drainage reversed----<----<----<----
 72
65
 73
1
 40
5.0800000000000001
 49
5.0800000000000001
 74
0
  0
LTYPE
  5
5E
100
AcDbSymbolTableRecord
100
AcDbLinetypeTableRecord
  2
ACAD_ISO15W100
 70
0
  3
ISO double-dash triple-dot __ __ . . . __ __ . .
 72
65
 73
10
 40
39.0000000000000071
 49
12.0
 74
0
 49
-3.0
 74
0
 49
12.0
 74
0
 49
-2.9500000000000002
 74
0
 49
0.1
 74
0
 49
-2.9000000000000004
 74
0
 49
0.1
 74
0
 49
-2.9000000000000004
 74
0
 49
0.1
 74
0
 49
-2.9500000000000002
 74
0
  0
LTYPE
  5
5F
100
AcDbSymbolTableRecord
100
AcDbLinetypeTableRecord
  2
DOTX2
 70
0
  3
Dot (2x) .  .  .  .  .  .  .  .  .  .  .  .  .  .
 72
65
 73
2
 40
12.6999999999999993
 49
0.1
 74
0
 49
-12.5999999999999996
 74
0
  0
LTYPE
  5
60
100
AcDbSymbolTableRecord
100
AcDbLinetypeTableRecord
  2
DIVIDE
 70
0
  3
Divide ____ . . ____ . . ____ . . ____ . . ____
 72
65
 73
6
 40
31.7500000000000036
 49
12.6999999999999993
 74
0
 49
-6.2999999999999998
 74
0
 49
0.1
 74
0
 49
-6.25
 74
0
 49
0.1
 74
0
 49
-6.2999999999999998
 74
0
  0
LTYPE
  5
61
100
AcDbSymbolTableRecord
100
AcDbLinetypeTableRecord
  2
ACAD_ISO07W100
 70
0
  3
ISO dot . . . . . . . . . . . . . . . . . . . . 
 72
65
 73
2
 40
3.0
 49
0.1
 74
0
 49
-2.8999999999999999
 74
0
  0
LTYPE
  5
62
100
AcDbSymbolTableRecord
100
AcDbLinetypeTableRecord
  2
DASHED
 70
0
  3
Dashed __ __ __ __ __ __ __ __ __ __ __ __ __ _
 72
65
 73
2
 40
19.0499999999999972
 49
12.6999999999999993
 74
0
 49
-6.3499999999999996
 74
0
  0
LTYPE
  5
15
100
AcDbSymbolTableRecord
100
AcDbLinetypeTableRecord
  2
ByLayer
 70
0
  3

 72
65
 73
0
 40
0.0
  0
LTYPE
  5
63
100
AcDbSymbolTableRecord
100
AcDbLinetypeTableRecord
  2
ACAD_ISO14W100
 70
0
  3
ISO dash triple-dot __ . . . __ . . . __ . . . _
 72
65
 73
8
 40
24.0000000000000036
 49
12.0
 74
0
 49
-2.9500000000000002
 74
0
 49
0.1
 74
0
 49
-2.9000000000000004
 74
0
 49
0.1
 74
0
 49
-2.9000000000000004
 74
0
 49
0.1
 74
0
 49
-2.9500000000000002
 74
0
  0
ENDTAB
  0
TABLE
  2
LAYER
  5
2
100
AcDbSymbolTable
 70
2
  0
LAYER
  5
64
100
AcDbSymbolTableRecord
100
AcDbLayerTableRecord
  2
layer 2
 70
0
 62
1
420
16711680
  6
Continuous
370
25
390
F
  0
LAYER
  5
10
100
AcDbSymbolTableRecord
100
AcDbLayerTableRecord
  2
0
 70
0
 62
7
420
16777215
  6
Continuous
370
-3
390
F
  0
ENDTAB
  0
TABLE
  2
STYLE
  5
3
100
AcDbSymbolTable
 70
1
  0
STYLE
  5
65
100
AcDbSymbolTableRecord
100
AcDbTextStyleTableRecord
  2
Standard
 70
0
 40
0.0
 41
1.0
 50
0.0
 71
0
 42
2.5
  3

  4

1001
ACAD
1000
txt
1071
0
  0
ENDTAB
  0
TABLE
  2
VIEW
  5
6
100
AcDbSymbolTable
 70
0
  0
ENDTAB
  0
TABLE
  2
UCS
  5
7
100
AcDbSymbolTable
 70
0
  0
ENDTAB
  0
TABLE
  2
APPID
  5
9
100
AcDbSymbolTable
 70
1
  0
APPID
  5
12
100
AcDbSymbolTableRecord
100
AcDbRegAppTableRecord
  2
ACAD
 70
0
  0
APPID
  5
66
100
AcDbSymbolTableRecord
100
AcDbRegAppTableRecord
  2
QCAD
 70
0
  0
ENDTAB
  0
TABLE
  2
DIMSTYLE
  5
A
100
AcDbSymbolTable
 70
1
100
AcDbDimStyleTable
 71
0
  0
DIMSTYLE
105
27
100
AcDbSymbolTableRecord
100
AcDbDimStyleTableRecord
  2
Standard
 41
0.18
 42
0.0625
 43
3.75
 44
0.18
 70
0
 73
0
 74
0
 77
1
 78
8
140
0.18
141
2.5
143
0.03937007874016
147
0.09
171
3
172
1
271
2
272
2
274
3
278
44
283
0
284
8
340
65
  0
ENDTAB
  0
TABLE
  2
BLOCK_RECORD
  5
1
100
AcDbSymbolTable
 70
1
  0
BLOCK_RECORD
  5
1F
100
AcDbSymbolTableRecord
100
AcDbBlockTableRecord
  2
*Model_Space
340
22
  0
BLOCK_RECORD
  5
1B
100
AcDbSymbolTableRecord
100
AcDbBlockTableRecord
  2
*Paper_Space
340
1E
  0
BLOCK_RECORD
  5
23
100
AcDbSymbolTableRecord
100
AcDbBlockTableRecord
  2
*Paper_Space0
340
26
  0
ENDTAB
  0
ENDSEC
  0
SECTION
  2
BLOCKS
  0
BLOCK
  5
20
100
AcDbEntity
  8
0
100
AcDbBlockBegin
  2
*Model_Space
 70
0
 10
0.0
 20
0.0
 30
0.0
  3
*Model_Space
  1

  0
ENDBLK
  5
21
100
AcDbEntity
  8
0
100
AcDbBlockEnd
  0
BLOCK
  5
1C
100
AcDbEntity
 67
1
  8
0
100
AcDbBlockBegin
  2
*Paper_Space
 70
0
 10
0.0
 20
0.0
 30
0.0
  3
*Paper_Space
  1

  0
ENDBLK
  5
1D
100
AcDbEntity
 67
1
  8
0
100
AcDbBlockEnd
  0
BLOCK
  5
24
100
AcDbEntity
  8
0
100
AcDbBlockBegin
  2
*Paper_Space0
 70
0
 10
0.0
 20
0.0
 30
0.0
  3
*Paper_Space0
  1

  0
ENDBLK
  5
25
100
AcDbEntity
  8
0
100
AcDbBlockEnd
  0
ENDSEC
  0
SECTION
  2
ENTITIES
  0
LWPOLYLINE
  5
67
  8
0
 62
256
370
-1
 48
1.0
  6
ByLayer
100
AcDbEntity
100
AcDbPolyline
 90
4
 70
1
 10
18.5000002756714785
 20
71.0000010579824448
 30
0.0
 10
18.5000002756714785
 20
76.0000011324882507
 30
0.0
 10
33.5000002756714821
 20
76.0000011324882507
 30
0.0
 10
33.5000002756714821
 20
71.0000010579824448
 30
0.0
  0
CIRCLE
  5
68
100
AcDbEntity
100
AcDbCircle
  8
0
 62
256
370
-1
 48
1.0
  6
ByLayer
 10
44.0000000000005826
 20
73.5
 30
0.0
 40
3.5355339059327582
  0
CIRCLE
  5
69
100
AcDbEntity
100
AcDbCircle
  8
0
 62
256
370
-1
 48
1.0
  6
ByLayer
 10
14.0000000000005898
 20
13.0
 30
0.0
 40
3.5355339059327582
  0
LWPOLYLINE
  5
6A
  8
0
 62
256
370
-1
 48
1.0
  6
ByLayer
100
AcDbEntity
100
AcDbPolyline
 90
4
 70
1
 10
3.000000044703484
 20
72.5000010803341866
 30
0.0
 10
3.000000044703484
 20
87.5000013038516045
 30
0.0
 10
8.0000001192092896
 20
87.5000013038516045
 30
0.0
 10
8.0000001192092896
 20
72.5000010803341866
 30
0.0
  0
LWPOLYLINE
  5
6B
  8
0
 62
256
370
-1
 48
1.0
  6
ByLayer
100
AcDbEntity
100
AcDbPolyline
 90
4
 70
1
 10
3.000000044703484
 20
19.5000002905726397
 30
0.0
 10
3.000000044703484
 20
37.5000005587935377
 30
0.0
 10
8.0000001192092896
 20
37.5000005587935377
 30
0.0
 10
8.0000001192092896
 20
19.5000002905726397
 30
0.0
  0
LWPOLYLINE
  5
6C
  8
0
 62
256
370
-1
 48
1.0
  6
ByLayer
100
AcDbEntity
100
AcDbPolyline
 90
29
 70
1
 10
42.2092259902405686
 20
65.9999999999999716
 30
0.0
 10
46.0207259421641979
 20
65.9999999999999289
 30
0.0
 42
0.2679491924311241
 10
49.4848275573019976
 20
67.9999999999999147
 30
0.0
 10
51.5055534994656483
 20
71.5000000000000711
 30
0.0
 42
0.2679491924311024
 10
51.5055534994658331
 20
75.4999999999998153
 30
0.0
 10
49.4848275573019976
 20
79.0000000000001421
 30
0.0
 42
0.2679491924311134
 10
46.0207259421642974
 20
81.0
 30
0.0
 10
41.2515241612573504
 20
81.0
 30
0.0
 42
-0.1905293704003037
 10
38.5159347091474373
 20
82.0816870713535565
 30
0.0
 10
14.1539382719315192
 20
104.9183129286464009
 30
0.0
 42
0.1905293704002902
 10
11.4183488198219507
 20
106.0000000000002984
 30
0.0
 10
8.0000000000005489
 20
106.0
 30
0.0
 10
3.0000000000005489
 20
106.0
 30
0.0
 42
0.4142135623730951
 10
0.0000000000005596
 20
103.0
 30
0.0
 10
0.000000000000608
 20
68.9999999999998579
 30
0.0
 42
0.4142135623730556
 10
1.000000000000598
 20
67.9999999999999858
 30
0.0
 42
-0.4142135623731041
 10
3.00000000000058
 20
65.9999999999999147
 30
0.0
 10
3.0000000000005862
 20
44.9999999999999929
 30
0.0
 42
-0.4142135623730948
 10
1.000000000000586
 20
42.9999999999999929
 30
0.0
 42
0.414213562373104
 10
0.0000000000005587
 20
41.9999999999999929
 30
0.0
 10
-0.0000000000000383
 20
9.0
 30
0.0
 42
0.414213562373095
 10
2.9999999999999631
 20
6.0
 30
0.0
 10
15.7320508075695091
 20
6.0
 30
0.0
 42
0.2679491924312081
 10
19.1961524227080211
 20
8.0000000000009042
 30
0.0
 10
20.9282032302759688
 20
10.9999999999997797
 30
0.0
 42
0.2679491924311236
 10
20.9282032302758303
 20
14.9999999999997904
 30
0.0
 10
19.0866291862460713
 20
18.1896998101600786
 30
0.0
 42
-0.2455408144173749
 10
18.9308911394599413
 20
21.8916871256128793
 30
0.0
 10
38.5893863283160883
 20
63.7019873154517384
 30
0.0
 42
-0.2906114830321713
  0
LWPOLYLINE
  5
6D
  8
0
 62
256
370
-1
 48
1.0
  6
ByLayer
100
AcDbEntity
100
AcDbPolyline
 90
4
 70
1
 10
40.0052633491527274
 20
-5.2509697711396441
 30
0.0
 10
40.0052633491527274
 20
-0.2509696966338382
 30
0.0
 10
25.0052633491525
 20
-0.2509696966338382
 30
0.0
 10
25.0052633491525107
 20
-5.2509697711396432
 30
0.0
  0
CIRCLE
  5
6E
100
AcDbEntity
100
AcDbCircle
  8
0
 62
256
370
-1
 48
1.0
  6
ByLayer
 10
14.5052636248232591
 20
-2.7509686386513992
 30
0.0
 40
3.53553390593274
  0
CIRCLE
  5
6F
100
AcDbEntity
100
AcDbCircle
  8
0
 62
256
370
-1
 48
1.0
  6
ByLayer
 10
44.5052636248236979
 20
57.7490313613485995
 30
0.0
 40
3.53553390593274
  0
LWPOLYLINE
  5
70
  8
0
 62
256
370
-1
 48
1.0
  6
ByLayer
100
AcDbEntity
100
AcDbPolyline
 90
4
 70
1
 10
55.5052635801209533
 20
-16.7509699425030014
 30
0.0
 10
55.5052635801209533
 20
-1.75096971898558
 30
0.0
 10
50.5052635056150621
 20
-1.75096971898558
 30
0.0
 10
50.5052635056150621
 20
-16.7509699425030014
 30
0.0
  0
LWPOLYLINE
  5
71
  8
0
 62
256
370
-1
 48
1.0
  6
ByLayer
100
AcDbEntity
100
AcDbPolyline
 90
4
 70
1
 10
55.5052635801209533
 20
33.2490308025550618
 30
0.0
 10
55.5052635801209604
 20
51.2490310707759633
 30
0.0
 10
50.5052635056150905
 20
51.2490310707759633
 30
0.0
 10
50.5052635056150834
 20
33.2490308025550476
 30
0.0
  0
LINE
  5
72
100
AcDbEntity
100
AcDbLine
  8
0
 62
256
370
-1
 48
1.0
  6
ByLayer
 10
16.2960376345832998
 20
4.7490313613486279
 30
0.0
 11
12.4845376826595995
 21
4.7490313613486812
 31
0.0
  0
ARC
  5
73
100
AcDbEntity
  8
0
 62
256
370
-1
 48
1.0
  6
ByLayer
100
AcDbCircle
 10
12.48453768265958
 20
0.7490313613486776
 30
0.0
 40
4.0000000000000044
100
AcDbArc
 50
89.9999999999996163
 51
150.0000000000003126
  0
LINE
  5
74
100
AcDbEntity
100
AcDbLine
  8
0
 62
256
370
-1
 48
1.0
  6
ByLayer
 10
9.020436067521775
 20
2.749031361348683
 30
0.0
 11
6.9997101253580896
 21
-0.750968638651468
 31
0.0
  0
ARC
  5
75
100
AcDbEntity
  8
0
 62
256
370
-1
 48
1.0
  6
ByLayer
100
AcDbCircle
 10
10.4638117404958706
 20
-2.750968638651496
 30
0.0
 40
4.0000000000000426
100
AcDbArc
 50
150.0000000000005969
 51
209.9999999999955094
  0
LINE
  5
76
100
AcDbEntity
100
AcDbLine
  8
0
 62
256
370
-1
 48
1.0
  6
ByLayer
 10
6.999710125357927
 20
-4.7509686386512477
 30
0.0
 11
9.0204360675217572
 21
-8.2509686386515391
 31
0.0
  0
ARC
  5
77
100
AcDbEntity
  8
0
 62
256
370
-1
 48
1.0
  6
ByLayer
100
AcDbCircle
 10
12.4845376826594805
 20
-6.2509686386513952
 30
0.0
 40
4.0000000000000462
100
AcDbArc
 50
210.000000000001279
 51
269.9999999999996021
  0
LINE
  5
78
100
AcDbEntity
100
AcDbLine
  8
0
 62
256
370
-1
 48
1.0
  6
ByLayer
 10
12.4845376826594592
 20
-10.2509686386514005
 30
0.0
 11
17.2537394635665393
 21
-10.2509686386513899
 31
0.0
  0
ARC
  5
79
100
AcDbEntity
  8
0
 62
256
370
-1
 48
1.0
  6
ByLayer
100
AcDbCircle
 10
17.2537394635667987
 20
-14.2509686386508108
 30
0.0
 40
3.9999999999994071
100
AcDbArc
 50
46.8510474151700933
 51
90.0000000000038796
  0
LINE
  5
7A
100
AcDbEntity
100
AcDbLine
  8
0
 62
256
370
-1
 48
1.0
  6
ByLayer
 10
19.9893289156764702
 20
-11.3326557100049499
 30
0.0
 11
44.3513253528927365
 21
-34.1692815672978298
 31
0.0
  0
ARC
  5
7B
100
AcDbEntity
  8
0
 62
256
370
-1
 48
1.0
  6
ByLayer
100
AcDbCircle
 10
47.0869148050030333
 20
-31.2509686386517096
 30
0.0
 40
4.000000000000024
100
AcDbArc
 50
226.8510474151653398
 51
269.9999999999894271
  0
LINE
  5
7C
100
AcDbEntity
100
AcDbLine
  8
0
 62
256
370
-1
 48
1.0
  6
ByLayer
 10
47.0869148050022872
 20
-35.2509686386517131
 30
0.0
 11
50.5052636248237974
 21
-35.2509686386514076
 31
0.0
  0
LINE
  5
7D
100
AcDbEntity
100
AcDbLine
  8
0
 62
256
370
-1
 48
1.0
  6
ByLayer
 10
50.5052636248237974
 20
-35.2509686386514076
 30
0.0
 11
55.5052636248238684
 21
-35.2509686386514076
 31
0.0
  0
ARC
  5
7E
100
AcDbEntity
  8
0
 62
256
370
-1
 48
1.0
  6
ByLayer
100
AcDbCircle
 10
55.5052636248238827
 20
-32.2509686386514005
 30
0.0
 40
2.9999999999999889
100
AcDbArc
 50
270.0
 51
0.0
  0
LINE
  5
7F
100
AcDbEntity
100
AcDbLine
  8
0
 62
256
370
-1
 48
1.0
  6
ByLayer
 10
58.5052636248239111
 20
-32.2509686386514005
 30
0.0
 11
58.5052636248238827
 21
1.7490313613487449
 31
0.0
  0
ARC
  5
80
100
AcDbEntity
  8
0
 62
256
370
-1
 48
1.0
  6
ByLayer
100
AcDbCircle
 10
57.5052636248238471
 20
1.749031361348621
 30
0.0
 40
1.000000000000014
100
AcDbArc
 50
0.0
 51
89.9999999999995737
  0
ARC
  5
81
100
AcDbEntity
  8
0
 62
256
370
-1
 48
1.0
  6
ByLayer
100
AcDbCircle
 10
57.5052636248238329
 20
4.7490313613486004
 30
0.0
 40
1.999999999999984
100
AcDbArc
 50
180.0
 51
270.0000000000006821
  0
LINE
  5
82
100
AcDbEntity
100
AcDbLine
  8
0
 62
256
370
-1
 48
1.0
  6
ByLayer
 10
55.5052636248238471
 20
4.749031361348699
 30
0.0
 11
55.5052636248238471
 21
25.7490313613486101
 31
0.0
  0
ARC
  5
83
100
AcDbEntity
  8
0
 62
256
370
-1
 48
1.0
  6
ByLayer
100
AcDbCircle
 10
57.5052636248238329
 20
25.7490313613486492
 30
0.0
 40
1.9999999999999709
100
AcDbArc
 50
89.999999999998181
 51
180.0
  0
ARC
  5
84
100
AcDbEntity
  8
0
 62
256
370
-1
 48
1.0
  6
ByLayer
100
AcDbCircle
 10
57.5052636248239111
 20
28.7490313613486101
 30
0.0
 40
0.9999999999999964
100
AcDbArc
 50
269.9999999999986926
 51
0.0
  0
LINE
  5
85
100
AcDbEntity
100
AcDbLine
  8
0
 62
256
370
-1
 48
1.0
  6
ByLayer
 10
58.5052636248239324
 20
28.7490313613486208
 30
0.0
 11
58.5052636248245221
 21
61.7490313613485995
 31
0.0
  0
ARC
  5
86
100
AcDbEntity
  8
0
 62
256
370
-1
 48
1.0
  6
ByLayer
100
AcDbCircle
 10
55.5052636248244866
 20
61.7490313613485995
 30
0.0
 40
3.0000000000000431
100
AcDbArc
 50
0.0
 51
90.0
  0
LINE
  5
87
100
AcDbEntity
100
AcDbLine
  8
0
 62
256
370
-1
 48
1.0
  6
ByLayer
 10
55.5052636248244866
 20
64.7490313613485995
 30
0.0
 11
42.773212817254759
 21
64.7490313613486137
 31
0.0
  0
ARC
  5
88
100
AcDbEntity
  8
0
 62
256
370
-1
 48
1.0
  6
ByLayer
100
AcDbCircle
 10
42.7732128172545174
 20
60.7490313613486066
 30
0.0
 40
4.0000000000000044
100
AcDbArc
 50
89.9999999999966462
 51
150.0000000000152056
  0
LINE
  5
89
100
AcDbEntity
100
AcDbLine
  8
0
 62
256
370
-1
 48
1.0
  6
ByLayer
 10
39.309111202116199
 20
62.7490313613477113
 30
0.0
 11
37.5770603945482122
 21
59.7490313613488269
 31
0.0
  0
ARC
  5
8A
100
AcDbEntity
  8
0
 62
256
370
-1
 48
1.0
  6
ByLayer
100
AcDbCircle
 10
41.0411620096860901
 20
57.7490313613489477
 30
0.0
 40
4.0000000000000382
100
AcDbArc
 50
150.000000000003098
 51
210.000000000002359
  0
LINE
  5
8B
100
AcDbEntity
100
AcDbLine
  8
0
 62
256
370
-1
 48
1.0
  6
ByLayer
 10
37.5770603945483899
 20
55.7490313613487771
 30
0.0
 11
39.4186344385781311
 21
52.559331551188528
 31
0.0
  0
ARC
  5
8C
100
AcDbEntity
  8
0
 62
256
370
-1
 48
1.0
  6
ByLayer
100
AcDbCircle
 10
35.9545328234402675
 20
50.5593315511885919
 30
0.0
 40
4.0000000000000657
100
AcDbArc
 50
334.8178848901461038
 51
29.9999999999975486
  0
LINE
  5
8D
100
AcDbEntity
100
AcDbLine
  8
0
 62
256
370
-1
 48
1.0
  6
ByLayer
 10
39.5743724853642505
 20
48.8573442357357024
 30
0.0
 11
19.9158772965078406
 21
7.0470440458968664
 31
0.0
  0
ARC
  5
8E
100
AcDbEntity
  8
0
 62
256
370
-1
 48
1.0
  6
ByLayer
100
AcDbCircle
 10
16.2960376345834383
 20
8.749031361348532
 30
0.0
 40
3.999999999999905
100
AcDbArc
 50
269.9999999999980105
 51
334.8178848901645779
  0
LWPOLYLINE
  5
8F
  8
0
 62
256
370
-1
 48
1.0
  6
ByLayer
100
AcDbEntity
100
AcDbPolyline
 90
10
 70
1
 10
-30.7016624977234187
 20
46.5422825517871814
 30
0.0
 10
-16.3164413594920212
 20
46.542282551787153
 30
0.0
 42
0.4696034901166748
 10
-13.3678247986891598
 20
50.0951481569376895
 30
0.0
 10
-15.2428247986888703
 20
60.0951481569377322
 30
0.0
 42
0.3609113025726429
 10
-18.1914413594918791
 20
62.5422825517872312
 30
0.0
 10
-30.7016624977232802
 20
62.5422825517872027
 30
0.0
 10
-43.2118836359548908
 20
62.5422825517872027
 30
0.0
 42
0.3609113025726396
 10
-46.1605001967578801
 20
60.0951481569377393
 30
0.0
 10
-48.0355001967577024
 20
50.0951481569376682
 30
0.0
 42
0.4696034901166778
 10
-45.0868836359548126
 20
46.5422825517871388
 30
0.0
  0
LWPOLYLINE
  5
90
  8
0
 62
256
370
-1
 48
1.0
  6
ByLayer
100
AcDbEntity
100
AcDbPolyline
 90
4
 70
1
 10
-42.2016600911856798
 20
36.5422834160543673
 30
0.0
 10
-42.2016600911856798
 20
41.5422834905601803
 30
0.0
 10
-19.2016597484589688
 20
41.5422834905601803
 30
0.0
 10
-19.2016597484589688
 20
36.5422834160543673
 30
0.0
  0
LWPOLYLINE
  5
91
  8
0
 62
256
370
-1
 48
1.0
  6
ByLayer
100
AcDbEntity
100
AcDbPolyline
 90
32
 70
1
 10
-55.701660292351022
 20
106.5422862969455053
 30
0.0
 10
-55.7016624977235324
 20
94.5422825517871246
 30
0.0
 10
-55.7016602923513631
 20
93.0422842579699534
 30
0.0
 10
-60.7016582508919669
 20
93.0422842579699534
 30
0.0
 10
-60.7016603668571619
 20
75.0422839897490803
 30
0.0
 10
-55.7016602923513631
 20
75.0422839897490803
 30
0.0
 10
-55.7016579882311973
 20
40.0422834682084385
 30
0.0
 10
-60.7016603668571619
 20
40.0422834682084385
 30
0.0
 10
-60.7016603668571619
 20
25.0422832446910206
 30
0.0
 10
-55.7016602923513631
 20
25.0422832446910206
 30
0.0
 10
-55.7016602923513631
 20
6.5422825517871646
 30
0.0
 10
-5.7016624977233832
 20
6.5422825517871663
 30
0.0
 10
-5.7016624977233832
 20
25.0422832446910206
 30
0.0
 10
-0.7016594727874899
 20
25.0422832446910206
 30
0.0
 10
-0.7016594727875258
 20
40.0422834682084527
 30
0.0
 10
-5.7016595472932776
 20
40.0422830509760601
 30
0.0
 10
-5.7016595472932963
 20
75.042283572516709
 30
0.0
 10
-0.7016594727875253
 20
75.0422835725166806
 30
0.0
 10
-0.7016594727875258
 20
93.0422842579699534
 30
0.0
 10
-5.7016624977233832
 20
93.0422842579699534
 30
0.0
 10
-5.7016624977233832
 20
94.5422825517872241
 30
0.0
 10
-5.717843289254283
 20
106.5422826243000998
 30
0.0
 10
-13.7016578584950803
 20
106.5422840915732934
 30
0.0
 42
0.4142135623730951
 10
-15.7016582260570008
 20
104.5422844591353027
 30
0.0
 10
-15.7016594990551503
 20
97.6155714112658046
 30
0.0
 42
-0.2513676740596978
 10
-16.5960367107122195
 20
95.9489589713955979
 30
0.0
 10
-29.5960395193680483
 20
87.3248206654401713
 30
0.0
 42
-0.3015379601686866
 10
-31.8072853599429486
 20
87.3248208405029231
 30
0.0
 10
-44.8072829983218028
 20
95.9489586808115149
 30
0.0
 42
-0.2513677296705267
 10
-45.7016599460897908
 20
97.6155716807428746
 30
0.0
 10
-45.7016586730916785
 20
104.5422844591354021
 30
0.0
 42
0.4142135623730977
 10
-47.7016583055296834
 20
106.5422848266972977
 30
0.0
  0
LINE
  5
92
100
AcDbEntity
100
AcDbLine
  8
0
 62
256
370
-1
 48
1.0
  6
ByLayer
 10
-2.716109287277737
 20
5.4440435245241758
 30
0.0
 11
-0.1384005232779645
 21
4.2893548634965981
 31
0.0
  0
LINE
  5
93
100
AcDbEntity
100
AcDbLine
  8
0
 62
256
370
-1
 48
1.0
  6
ByLayer
 10
-0.1384005232779645
 20
4.2893548634965981
 30
0.0
 11
4.8615994767220467
 21
4.2893548634965946
 31
0.0
  0
SPLINE
  5
94
  8
0
 62
256
370
-1
 48
1.0
  6
ByLayer
100
AcDbEntity
100
AcDbSpline
 70
8
 71
2
 72
6
 73
3
 74
0
 40
-112.2149133782696993
 40
-112.2149133782696993
 40
-112.2149133782696993
 40
-110.6441170514747938
 40
-110.6441170514747938
 40
-110.6441170514747938
 10
5.8615994767220414
 20
3.3934517442970602
 30
0.0
 10
5.8615994767220414
 20
4.2893548634965839
 30
0.0
 10
4.861599476722045
 20
4.2893548634965839
 30
0.0
  0
LINE
  5
95
100
AcDbEntity
100
AcDbLine
  8
0
 62
256
370
-1
 48
1.0
  6
ByLayer
 10
5.8615994767220414
 20
3.3934517442970602
 30
0.0
 11
5.8615994767220378
 21
0.7057423866987722
 31
0.0
  0
SPLINE
  5
96
  8
0
 62
256
370
-1
 48
1.0
  6
ByLayer
100
AcDbEntity
100
AcDbSpline
 70
8
 71
2
 72
6
 73
3
 74
0
 40
-116.7857097050646047
 40
-116.7857097050646047
 40
-116.7857097050646047
 40
-115.2149133782696993
 40
-115.2149133782696993
 40
-115.2149133782696993
 10
4.8615994767220361
 20
-0.190160732500626
 30
0.0
 10
5.8615994767220334
 20
-0.1901607325006261
 30
0.0
 10
5.8615994767220334
 20
0.7057423866987733
 30
0.0
  0
LINE
  5
97
100
AcDbEntity
100
AcDbLine
  8
0
 62
256
370
-1
 48
1.0
  6
ByLayer
 10
4.8615994767220361
 20
-0.190160732500626
 30
0.0
 11
-0.1384005232779661
 21
-0.1901607325006193
 31
0.0
  0
LINE
  5
98
100
AcDbEntity
100
AcDbLine
  8
0
 62
256
370
-1
 48
1.0
  6
ByLayer
 10
-0.1384005232779661
 20
-0.1901607325006193
 30
0.0
 11
-2.7161092872777401
 21
-1.34484939352818
 31
0.0
  0
SPLINE
  5
99
  8
0
 62
256
370
-1
 48
1.0
  6
ByLayer
100
AcDbEntity
100
AcDbSpline
 70
8
 71
2
 72
6
 73
3
 74
0
 40
-125.5949709343162937
 40
-125.5949709343162937
 40
-125.5949709343162937
 40
-124.6676757163149034
 40
-124.6676757163149034
 40
-124.6676757163149034
 10
-3.6105364782774352
 20
-1.534015411299805
 30
0.0
 10
-3.1384005232778378
 20
-1.534015411299805
 30
0.0
 10
-2.7161092872777459
 20
-1.344849393528182
 30
0.0
  0
LINE
  5
9A
100
AcDbEntity
100
AcDbLine
  8
0
 62
256
370
-1
 48
1.0
  6
ByLayer
 10
-3.6105364782774352
 20
-1.534015411299805
 30
0.0
 11
-11.1384005232779195
 21
-1.534015411299813
 31
0.0
  0
SPLINE
  5
9B
  8
0
 62
256
370
-1
 48
1.0
  6
ByLayer
100
AcDbEntity
100
AcDbSpline
 70
8
 71
2
 72
6
 73
3
 74
0
 40
-136.2644276329066031
 40
-136.2644276329066031
 40
-136.2644276329066031
 40
-133.1228349793167922
 40
-133.1228349793167922
 40
-133.1228349793167922
 10
-13.1384005232779302
 20
-3.325821649698586
 30
0.0
 10
-13.1384005232779302
 20
-1.534015411299805
 30
0.0
 10
-11.1384005232779195
 20
-1.534015411299805
 30
0.0
  0
LINE
  5
9C
100
AcDbEntity
100
AcDbLine
  8
0
 62
256
370
-1
 48
1.0
  6
ByLayer
 10
-13.1384005232779302
 20
-3.325821649698586
 30
0.0
 11
-13.1384005232779302
 21
-8.7012403648952859
 31
0.0
  0
SPLINE
  5
9D
  8
0
 62
256
370
-1
 48
1.0
  6
ByLayer
100
AcDbEntity
100
AcDbSpline
 70
8
 71
2
 72
6
 73
3
 74
0
 40
-145.406020286496414
 40
-145.406020286496414
 40
-145.406020286496414
 40
-142.2644276329066031
 40
-142.2644276329066031
 40
-142.2644276329066031
 10
-15.13840052327782
 20
-10.4930466032940704
 30
0.0
 10
-13.1384005232779497
 20
-10.4930466032941894
 30
0.0
 10
-13.1384005232779408
 20
-8.7012403648952841
 30
0.0
  0
LINE
  5
9E
100
AcDbEntity
100
AcDbLine
  8
0
 62
256
370
-1
 48
1.0
  6
ByLayer
 10
-15.13840052327782
 20
-10.4930466032940704
 30
0.0
 11
-35.1384005232778165
 21
-10.4930466032940402
 31
0.0
  0
SPLINE
  5
9F
  8
0
 62
256
370
-1
 48
1.0
  6
ByLayer
100
AcDbEntity
100
AcDbSpline
 70
8
 71
2
 72
6
 73
3
 74
0
 40
-9.7831853071795862
 40
-9.7831853071795862
 40
-9.7831853071795862
 40
-6.6415926535897931
 40
-6.6415926535897931
 40
-6.6415926535897931
 10
-37.1384005232778165
 20
-8.7012403648952663
 30
0.0
 10
-37.1384005232778307
 20
-10.4930466032941698
 30
0.0
 10
-35.1384005232778307
 20
-10.4930466032940508
 30
0.0
  0
LINE
  5
A0
100
AcDbEntity
100
AcDbLine
  8
0
 62
256
370
-1
 48
1.0
  6
ByLayer
 10
-37.1384005232778165
 20
-8.7012403648952663
 30
0.0
 11
-37.1384005232778165
 21
-3.325821649698566
 31
0.0
  0
SPLINE
  5
A1
  8
0
 62
256
370
-1
 48
1.0
  6
ByLayer
100
AcDbEntity
100
AcDbSpline
 70
8
 71
2
 72
6
 73
3
 74
0
 40
-18.9247779607693687
 40
-18.9247779607693687
 40
-18.9247779607693687
 40
-15.7831853071795898
 40
-15.7831853071795898
 40
-15.7831853071795898
 10
-39.1384005232778023
 20
-1.534015411299769
 30
0.0
 10
-37.1384005232778378
 20
-1.5340154112998581
 30
0.0
 10
-37.1384005232778094
 20
-3.3258216496985682
 30
0.0
  0
LINE
  5
A2
100
AcDbEntity
100
AcDbLine
  8
0
 62
256
370
-1
 48
1.0
  6
ByLayer
 10
-39.1384005232778023
 20
-1.534015411299769
 30
0.0
 11
-46.6662645682783435
 21
-1.534015411299759
 31
0.0
  0
SPLINE
  5
A3
  8
0
 62
256
370
-1
 48
1.0
  6
ByLayer
100
AcDbEntity
100
AcDbSpline
 70
8
 71
2
 72
6
 73
3
 74
0
 40
-27.379937223771261
 40
-27.379937223771261
 40
-27.379937223771261
 40
-26.4526420057698992
 40
-26.4526420057698992
 40
-26.4526420057698992
 10
-47.5606917592780007
 20
-1.3448493935282539
 30
0.0
 10
-47.1384005232777383
 20
-1.534015411299769
 30
0.0
 10
-46.6662645682783435
 20
-1.534015411299769
 30
0.0
  0
LINE
  5
A4
100
AcDbEntity
100
AcDbLine
  8
0
 62
256
370
-1
 48
1.0
  6
ByLayer
 10
-47.5606917592780007
 20
-1.3448493935282539
 30
0.0
 11
-50.1384005232778094
 21
-0.1901607325006753
 31
0.0
  0
LINE
  5
A5
100
AcDbEntity
100
AcDbLine
  8
0
 62
256
370
-1
 48
1.0
  6
ByLayer
 10
-50.1384005232778094
 20
-0.1901607325006753
 30
0.0
 11
-55.138400523277781
 21
-0.1901607325006726
 31
0.0
  0
SPLINE
  5
A6
  8
0
 62
256
370
-1
 48
1.0
  6
ByLayer
100
AcDbEntity
100
AcDbSpline
 70
8
 71
2
 72
6
 73
3
 74
0
 40
-36.8326995618164332
 40
-36.8326995618164332
 40
-36.8326995618164332
 40
-35.2619032350215278
 40
-35.2619032350215278
 40
-35.2619032350215278
 10
-56.1384005232777668
 20
0.7057423866988444
 30
0.0
 10
-56.138400523277781
 20
-0.1901607325006438
 30
0.0
 10
-55.1384005232778023
 20
-0.1901607325006616
 30
0.0
  0
LINE
  5
A7
100
AcDbEntity
100
AcDbLine
  8
0
 62
256
370
-1
 48
1.0
  6
ByLayer
 10
-56.1384005232777668
 20
0.7057423866988444
 30
0.0
 11
-56.1384005232777668
 21
3.3934517442971321
 31
0.0
  0
SPLINE
  5
A8
  8
0
 62
256
370
-1
 48
1.0
  6
ByLayer
100
AcDbEntity
100
AcDbSpline
 70
8
 71
2
 72
6
 73
3
 74
0
 40
-41.4034958886113174
 40
-41.4034958886113174
 40
-41.4034958886113174
 40
-39.8326995618164332
 40
-39.8326995618164332
 40
-39.8326995618164332
 10
-55.1384005232778023
 20
4.2893548634965306
 30
0.0
 10
-56.138400523277781
 20
4.2893548634965297
 30
0.0
 10
-56.1384005232777668
 20
3.3934517442971308
 30
0.0
  0
LINE
  5
A9
100
AcDbEntity
100
AcDbLine
  8
0
 62
256
370
-1
 48
1.0
  6
ByLayer
 10
-55.1384005232778023
 20
4.2893548634965306
 30
0.0
 11
-50.1384005232778307
 21
4.2893548634965244
 31
0.0
  0
LINE
  5
AA
100
AcDbEntity
100
AcDbLine
  8
0
 62
256
370
-1
 48
1.0
  6
ByLayer
 10
-50.1384005232778307
 20
4.2893548634965244
 30
0.0
 11
-47.5606917592780434
 21
5.4440435245242078
 31
0.0
  0
SPLINE
  5
AB
  8
0
 62
256
370
-1
 48
1.0
  6
ByLayer
100
AcDbEntity
100
AcDbSpline
 70
8
 71
2
 72
6
 73
3
 74
0
 40
-50.2127571178629282
 40
-50.2127571178629282
 40
-50.2127571178629282
 40
-49.2854618998616019
 40
-49.2854618998616019
 40
-49.2854618998616019
 10
-46.6662645682783506
 20
5.6332095422957096
 30
0.0
 10
-47.1384005232777881
 20
5.6332095422957096
 30
0.0
 10
-47.5606917592780221
 20
5.4440435245242114
 30
0.0
  0
LINE
  5
AC
100
AcDbEntity
100
AcDbLine
  8
0
 62
256
370
-1
 48
1.0
  6
ByLayer
 10
-46.6662645682783506
 20
5.6332095422957096
 30
0.0
 11
-34.1384005232778378
 21
5.6332095422956927
 31
0.0
  0
SPLINE
  5
AD
  8
0
 62
256
370
-1
 48
1.0
  6
ByLayer
100
AcDbEntity
100
AcDbSpline
 70
8
 71
2
 72
6
 73
3
 74
0
 40
-65.8822138164532873
 40
-65.8822138164532873
 40
-65.8822138164532873
 40
-62.7406211628634907
 40
-62.7406211628634907
 40
-62.7406211628634907
 10
-32.1384005232778378
 20
3.8414033038968931
 30
0.0
 10
-32.1384005232778307
 20
5.6332095422957806
 30
0.0
 10
-34.138400523277852
 20
5.6332095422956918
 30
0.0
  0
LINE
  5
AE
100
AcDbEntity
100
AcDbLine
  8
0
 62
256
370
-1
 48
1.0
  6
ByLayer
 10
-32.1384005232778378
 20
3.8414033038968931
 30
0.0
 11
-32.1383991374697473
 21
0.2577908270989743
 31
0.0
  0
LINE
  5
AF
100
AcDbEntity
100
AcDbLine
  8
0
 62
256
370
-1
 48
1.0
  6
ByLayer
 10
-32.1383991374697473
 20
0.2577908270989743
 30
0.0
 11
-18.1383989288536185
 21
0.2577908270989216
 31
0.0
  0
LINE
  5
B0
100
AcDbEntity
100
AcDbLine
  8
0
 62
256
370
-1
 48
1.0
  6
ByLayer
 10
-18.1383989288536185
 20
0.2577908270989216
 30
0.0
 11
-18.1384005232779195
 21
3.8414033038968771
 31
0.0
  0
SPLINE
  5
B1
  8
0
 62
256
370
-1
 48
1.0
  6
ByLayer
100
AcDbEntity
100
AcDbSpline
 70
8
 71
2
 72
6
 73
3
 74
0
 40
-89.3069917772226916
 40
-89.3069917772226916
 40
-89.3069917772226916
 40
-86.1653991236328665
 40
-86.1653991236328665
 40
-86.1653991236328665
 10
-16.1384005232779089
 20
5.6332095422956741
 30
0.0
 10
-18.1384005232779089
 20
5.6332095422957629
 30
0.0
 10
-18.1384005232779195
 20
3.8414033038968749
 30
0.0
  0
LINE
  5
B2
100
AcDbEntity
100
AcDbLine
  8
0
 62
256
370
-1
 48
1.0
  6
ByLayer
 10
-16.1384005232779089
 20
5.6332095422956741
 30
0.0
 11
-3.610536478277349
 21
5.6332095422956749
 31
0.0
  0
SPLINE
  5
B3
  8
0
 62
256
370
-1
 48
1.0
  6
ByLayer
100
AcDbEntity
100
AcDbSpline
 70
8
 71
2
 72
6
 73
3
 74
0
 40
-102.7621510402245946
 40
-102.7621510402245946
 40
-102.7621510402245946
 40
-101.8348558222232043
 40
-101.8348558222232043
 40
-101.8348558222232043
 10
-2.716109287277737
 20
5.4440435245241758
 30
0.0
 10
-3.1384005232779528
 20
5.6332095422956741
 30
0.0
 10
-3.6105364782773548
 20
5.6332095422956741
 30
0.0
  0
LWPOLYLINE
  5
B4
  8
0
 62
256
370
-1
 48
1.0
  6
ByLayer
100
AcDbEntity
100
AcDbPolyline
 90
22
 70
1
 10
-38.5208582959271268
 20
-18.8326478970450815
 30
0.0
 42
-0.2289476619159725
 10
-40.8713513331960527
 20
-17.6968320300515707
 30
0.0
 10
-49.8825778729799367
 20
-2.4969971125469428
 30
0.0
 10
-51.4705317630714632
 20
-2.4969971125471111
 30
0.0
 10
-51.4705317630712429
 20
-4.3326458257854474
 30
0.0
 10
-56.4705318375771128
 20
-4.3326475394196606
 30
0.0
 10
-56.4705318375751375
 20
-19.3326460493034702
 30
0.0
 10
-51.4705318524764976
 20
-19.3326478970467583
 30
0.0
 10
-51.4705318524752329
 20
-29.8326462057649913
 30
0.0
 10
-37.9705318822775908
 20
-29.8326478970450388
 30
0.0
 10
-37.970531615297773
 20
-34.8326462802691381
 30
0.0
 10
-14.9705312191753297
 20
-34.8326478821410817
 30
0.0
 10
-14.9705376094201004
 20
-29.8326462057597688
 30
0.0
 10
-1.470531018010357
 20
-29.8326478970406299
 30
0.0
 10
-1.470531852476799
 20
-19.3326460492968586
 30
0.0
 10
3.5294690564941469
 20
-19.3326460492962013
 30
0.0
 10
3.5294681326202761
 20
-4.3326478821391126
 30
0.0
 10
-1.470531018013443
 20
-4.3326478821397414
 30
0.0
 10
-1.4705310180136659
 20
-2.4969971125411021
 30
0.0
 10
-2.8825771726256582
 20
-2.4969971125412531
 30
0.0
 10
-12.0697123717575092
 20
-17.696832030048089
 30
0.0
 42
-0.228947661915971
 10
-14.4202054090261491
 20
-18.8326478970421682
 30
0.0
  0
LWPOLYLINE
  5
B5
  8
0
 62
256
370
-1
 48
1.0
  6
ByLayer
100
AcDbEntity
100
AcDbPolyline
 90
6
 70
1
 10
32.3069510986985478
 20
-41.9316861863343533
 30
0.0
 10
24.5846080972258711
 20
-33.7493845287546534
 30
0.0
 42
0.6786844872236932
 10
21.1301039171211009
 20
-35.1221254329524228
 30
0.0
 10
21.1301039171210689
 20
-43.3044270905320872
 30
0.0
 42
0.4142135623730989
 10
23.1301039171210903
 20
-45.3044270905321014
 30
0.0
 10
30.8524469185937811
 20
-45.3044270905321227
 30
0.0
 42
0.6577737796173542
  0
LWPOLYLINE
  5
B6
  8
0
 62
256
370
-1
 48
1.0
  6
ByLayer
100
AcDbEntity
100
AcDbPolyline
 90
6
 70
1
 10
-11.1225451224307292
 20
-45.3044270905320516
 30
0.0
 42
-0.8018233772672819
 10
-11.9711394476759203
 20
-41.4933810747826826
 30
0.0
 10
-8.271140906490988
 20
-39.7596880939525974
 30
0.0
 42
-0.1988727940313287
 10
-6.7422768384892056
 20
-39.6899807826838327
 30
0.0
 10
-1.949106369799456
 20
-41.423673763513932
 30
0.0
 42
-0.8399543925030278
 10
-2.6293761125560788
 20
-45.3044270905320516
 30
0.0
  0
LWPOLYLINE
  5
B7
  8
0
 62
256
370
-1
 48
1.0
  6
ByLayer
100
AcDbEntity
100
AcDbPolyline
 90
6
 70
1
 10
3.4243653209877172
 20
-38.0502437107502729
 30
0.0
 10
13.44983417436449
 20
-41.6764625348391888
 30
0.0
 42
0.5199299633794227
 10
16.1301039171210689
 20
-39.7957092078210408
 30
0.0
 10
16.1301039171210903
 20
-31.4718979962866605
 30
0.0
 42
0.549221705966938
 10
13.2815095918759098
 20
-29.6608519805372595
 30
0.0
 10
3.256040738499157
 20
-34.3584443679827629
 30
0.0
 42
0.6682337024888225
  0
LWPOLYLINE
  5
B8
  8
0
 62
256
370
-1
 48
1.0
  6
ByLayer
100
AcDbEntity
100
AcDbPolyline
 90
6
 70
1
 10
-11.9711394476759398
 20
-54.1154731062814065
 30
0.0
 10
-8.2711409064910058
 20
-55.8491660871114775
 30
0.0
 42
0.1988727940313204
 10
-6.7422768384892384
 20
-55.9188733983802635
 30
0.0
 10
-1.9491063697994271
 20
-54.1851804175501996
 30
0.0
 42
0.8399543925030256
 10
-2.629376112556042
 20
-50.3044270905320374
 30
0.0
 10
-11.1225451224307204
 20
-50.3044270905320374
 30
0.0
 42
0.8018233772672755
  0
LWPOLYLINE
  5
B9
  8
0
 62
256
370
-1
 48
1.0
  6
ByLayer
100
AcDbEntity
100
AcDbPolyline
 90
6
 70
1
 10
16.1301039171210512
 20
-64.13695618477756
 30
0.0
 42
-0.549221705966937
 10
13.2815095918758601
 20
-65.9480022005269291
 30
0.0
 10
3.2560407384991392
 20
-61.2504098130813617
 30
0.0
 42
-0.668233702488826
 10
3.4243653209877101
 20
-57.5586104703138872
 30
0.0
 10
13.4498341743644705
 20
-53.9323916462249713
 30
0.0
 42
-0.5199299633794283
 10
16.1301039171210903
 20
-55.8131449732431335
 30
0.0
  0
LWPOLYLINE
  5
BA
  8
0
 62
256
370
-1
 48
1.0
  6
ByLayer
100
AcDbEntity
100
AcDbPolyline
 90
6
 70
1
 10
21.1301039171210583
 20
-52.3044270905321227
 30
0.0
 10
21.1301039171210583
 20
-60.4867287481117515
 30
0.0
 42
0.6786844872236893
 10
24.5846080972258392
 20
-61.8594696523095422
 30
0.0
 10
32.3069510986985335
 20
-53.6771679947298992
 30
0.0
 42
0.6577737796173585
 10
30.8524469185937598
 20
-50.3044270905321227
 30
0.0
 10
23.1301039171210796
 20
-50.3044270905321014
 30
0.0
 42
0.4142135623731035
  0
CIRCLE
  5
BB
100
AcDbEntity
100
AcDbCircle
  8
0
 62
256
370
-1
 48
1.0
  6
ByLayer
 10
-35.1347076475834115
 20
-47.8044270905320232
 30
0.0
 40
0.3749999999999964
  0
SPLINE
  5
BC
  8
0
 62
256
370
-1
 48
1.0
  6
ByLayer
100
AcDbEntity
100
AcDbSpline
 70
8
 71
2
 72
8
 73
5
 74
0
 40
-186.8641467921779054
 40
-186.8641467921779054
 40
-186.8641467921779054
 40
-185.2933504653944965
 40
-185.2933504653944965
 40
-180.2933504653944965
 40
-180.2933504653944965
 40
-180.2933504653944965
 10
20.1301039171314393
 20
-78.804427090532073
 30
0.0
 10
21.1301039171210512
 20
-78.8044270905217275
 30
0.0
 10
21.1301039171210299
 20
-77.804427090532073
 30
0.0
 10
21.1301039171210512
 20
-75.304427090532073
 30
0.0
 10
21.1301039171210405
 20
-72.804427090532073
 30
0.0
  0
LINE
  5
BD
100
AcDbEntity
100
AcDbLine
  8
0
 62
256
370
-1
 48
1.0
  6
ByLayer
 10
20.1301039171314393
 20
-78.804427090532073
 30
0.0
 11
17.1769553468408702
 21
-78.804427090532073
 31
0.0
  0
LINE
  5
BE
100
AcDbEntity
100
AcDbLine
  8
0
 62
256
370
-1
 48
1.0
  6
ByLayer
 10
17.1301034643690606
 20
-78.804427090532073
 30
0.0
 11
17.1769553468408702
 21
-78.804427090532073
 31
0.0
  0
SPLINE
  5
BF
  8
0
 62
256
370
-1
 48
1.0
  6
ByLayer
100
AcDbEntity
100
AcDbSpline
 70
8
 71
2
 72
8
 73
5
 74
0
 40
-57.7294201162865335
 40
-57.7294201162865335
 40
-57.7294201162865335
 40
-56.1586240381848683
 40
-56.1586240381848683
 40
-51.1586240381848611
 40
-51.1586240381848611
 40
-51.1586240381848611
 10
17.1301036684280206
 20
-16.8044270905321014
 30
0.0
 10
16.1301039171210903
 20
-16.8044273392251107
 30
0.0
 10
16.13010391712114
 20
-17.8044270905321191
 30
0.0
 10
16.1301039171211293
 20
-20.3044270905321191
 30
0.0
 10
16.1301039171210903
 20
-22.8044270905321191
 30
0.0
  0
LINE
  5
C0
100
AcDbEntity
100
AcDbLine
  8
0
 62
256
370
-1
 48
1.0
  6
ByLayer
 10
20.13010391713064
 20
-16.8044270905321191
 30
0.0
 11
17.1301036684280206
 21
-16.8044270905321014
 31
0.0
  0
SPLINE
  5
C1
  8
0
 62
256
370
-1
 48
1.0
  6
ByLayer
100
AcDbEntity
100
AcDbSpline
 70
8
 71
2
 72
8
 73
5
 74
0
 40
-67.3002164429073559
 40
-67.3002164429073559
 40
-67.3002164429073559
 40
-62.300216442907363
 40
-62.300216442907363
 40
-60.7294201161229878
 40
-60.7294201161229878
 40
-60.7294201161229878
 10
21.1301039171211009
 20
-22.8044270905321191
 30
0.0
 10
21.1301039171211293
 20
-20.3044270905321191
 30
0.0
 10
21.13010391712114
 20
-17.8044270905321191
 30
0.0
 10
21.1301039171211293
 20
-16.8044270905415516
 30
0.0
 10
20.13010391713064
 20
-16.8044270905321191
 30
0.0
  0
SPLINE
  5
C2
  8
0
 62
256
370
-1
 48
1.0
  6
ByLayer
100
AcDbEntity
100
AcDbSpline
 70
8
 71
2
 72
50
 73
47
 74
0
 40
-180.2933504653944965
 40
-180.2933504653944965
 40
-180.2933504653944965
 40
-154.3879750215380966
 40
-154.3879750215380966
 40
-152.0028688202706064
 40
-152.0028688202706064
 40
-149.6177626190030026
 40
-149.6177626190030026
 40
-147.1507650880641052
 40
-147.1507650880641052
 40
-145.5799687612692139
 40
-145.5799687612692139
 40
-142.5799687613302922
 40
-142.5799687613302922
 40
-141.0091724345354862
 40
-141.0091724345354862
 40
-135.5091724345354862
 40
-135.5091724345354862
 40
-132.3675797809437995
 40
-132.3675797809437995
 40
-126.8675797809456043
 40
-126.8675797809456043
 40
-125.2967834541508978
 40
-125.2967834541508978
 40
-122.2967834541508978
 40
-122.2967834541508978
 40
-120.725987127356106
 40
-120.725987127356106
 40
-115.2259871273579961
 40
-115.2259871273579961
 40
-112.0843944737662952
 40
-112.0843944737662952
 40
-106.5843944737662952
 40
-106.5843944737662952
 40
-105.0135981469714039
 40
-105.0135981469714039
 40
-102.0135981470325959
 40
-102.0135981470325959
 40
-100.4428018202377046
 40
-100.4428018202377046
 40
-97.9758042892987788
 40
-97.9758042892987788
 40
-95.5906980880312318
 40
-95.5906980880312318
 40
-93.2055918867637274
 40
-93.2055918867637274
 40
-67.3002164429073559
 40
-67.3002164429073559
 40
-67.3002164429073559
 10
21.1301039171210405
 20
-72.804427090532073
 30
0.0
 10
30.0204460447166106
 20
-63.3845578729639172
 30
0.0
 10
38.9107881723122375
 20
-53.9646886553957614
 30
0.0
 10
39.8424461289685894
 20
-52.9775392317567366
 30
0.0
 10
41.1038692406926671
 20
-53.4787999084513288
 30
0.0
 10
42.3652923524167377
 20
-53.9800605851459423
 30
0.0
 10
42.3652923524169722
 20
-55.3374295595932324
 30
0.0
 10
42.3652923524167875
 20
-56.5709283250626882
 30
0.0
 10
42.3652923524165601
 20
-57.8044270905321298
 30
0.0
 10
42.3652923524166027
 20
-58.8044270905321298
 30
0.0
 10
43.3652923524165601
 20
-58.8044270905321369
 30
0.0
 10
44.8652923524165601
 20
-58.8044270905321369
 30
0.0
 10
46.3652923524165672
 20
-58.8044270905321369
 30
0.0
 10
47.365292352416553
 20
-58.8044270905321014
 30
0.0
 10
47.3652923524165672
 20
-57.8044270905321298
 30
0.0
 10
47.3652923524165672
 20
-55.0544270905321298
 30
0.0
 10
47.3652923524166312
 20
-52.3044270905321369
 30
0.0
 10
47.3652923524166027
 20
-50.3044270905303321
 30
0.0
 10
49.3652923524184502
 20
-50.3044270905321369
 30
0.0
 10
52.1152923524175478
 20
-50.3044270905321511
 30
0.0
 10
54.8652923524166098
 20
-50.3044270905321795
 30
0.0
 10
55.8652923524164322
 20
-50.3044270905321511
 30
0.0
 10
55.8652923524166312
 20
-49.3044270905323287
 30
0.0
 10
55.8652923524166383
 20
-47.8044270905321724
 30
0.0
 10
55.8652923524166383
 20
-46.3044270905320019
 30
0.0
 10
55.8652923524164535
 20
-45.3044270905321085
 30
0.0
 10
54.8652923524166098
 20
-45.3044270905321511
 30
0.0
 10
52.1152923524175193
 20
-45.3044270905321511
 30
0.0
 10
49.3652923524184573
 20
-45.3044270905321369
 30
0.0
 10
47.3652923524166169
 20
-45.3044270905339985
 30
0.0
 10
47.3652923524166169
 20
-43.3044270905321227
 30
0.0
 10
47.3652923524166169
 20
-40.5544270905321369
 30
0.0
 10
47.3652923524166169
 20
-37.8044270905321369
 30
0.0
 10
47.3652923524166169
 20
-36.8044270905321298
 30
0.0
 10
46.3652923524166169
 20
-36.8044270905321724
 30
0.0
 10
44.8652923524166098
 20
-36.8044270905321724
 30
0.0
 10
43.3652923524166169
 20
-36.8044270905321724
 30
0.0
 10
42.3652923524166312
 20
-36.8044270905321298
 30
0.0
 10
42.3652923524166098
 20
-37.8044270905321582
 30
0.0
 10
42.3652923524168017
 20
-39.0379258560015927
 30
0.0
 10
42.3652923524170077
 20
-40.2714246214710627
 30
0.0
 10
42.3652923524167591
 20
-41.6287935959182818
 30
0.0
 10
41.1038692406926671
 20
-42.1300542726129166
 30
0.0
 10
39.8424461289685965
 20
-42.6313149493075372
 30
0.0
 10
38.9107881723122233
 20
-41.6441655256684982
 30
0.0
 10
30.020446044716671
 20
-32.2242963081002785
 30
0.0
 10
21.1301039171211009
 20
-22.8044270905321191
 30
0.0
  0
LINE
  5
C3
100
AcDbEntity
100
AcDbLine
  8
0
 62
256
370
-1
 48
1.0
  6
ByLayer
 10
-47.8995192122878706
 20
-42.8044266434971732
 30
0.0
 11
-45.3836105974513089
 21
-42.8044266434971732
 31
0.0
  0
LINE
  5
C4
100
AcDbEntity
100
AcDbLine
  8
0
 62
256
370
-1
 48
1.0
  6
ByLayer
 10
-44.4197730979069974
 20
-42.5568584608504565
 30
0.0
 11
-35.8865708887356405
 21
-37.8635972458062184
 31
0.0
  0
LINE
  5
C5
100
AcDbEntity
100
AcDbLine
  8
0
 62
256
370
-1
 48
1.0
  6
ByLayer
 10
-33.8798333702833716
 20
-37.9094653958555909
 30
0.0
 11
-26.7944212880089303
 21
-42.2394394461344334
 31
0.0
  0
LINE
  5
C6
100
AcDbEntity
100
AcDbLine
  8
0
 62
256
370
-1
 48
1.0
  6
ByLayer
 10
-24.89165413567126
 20
-42.33859682950456
 30
0.0
 11
16.1301039171210903
 21
-22.8044270905321191
 31
0.0
  0
SPLINE
  5
C7
  8
0
 62
256
370
-1
 48
1.0
  6
ByLayer
100
AcDbEntity
100
AcDbSpline
 70
8
 71
2
 72
8
 73
5
 74
0
 40
-196.4349428701169984
 40
-196.4349428701169984
 40
-196.4349428701169984
 40
-191.4349428701169984
 40
-191.4349428701169984
 40
-189.8641469960741119
 40
-189.8641469960741119
 40
-189.8641469960741119
 10
16.1301039171210405
 20
-72.8044270905321014
 30
0.0
 10
16.1301039171210512
 20
-75.3044270905321014
 30
0.0
 10
16.1301039171210299
 20
-77.8044270905321014
 30
0.0
 10
16.1301039171210299
 20
-78.8044266581216561
 30
0.0
 10
17.1301034847104887
 20
-78.8044270905320161
 30
0.0
  0
LINE
  5
C8
100
AcDbEntity
100
AcDbLine
  8
0
 62
256
370
-1
 48
1.0
  6
ByLayer
 10
-24.8916541255198602
 20
-53.2702566286889478
 30
0.0
 11
16.1301039171210405
 21
-72.8044270905321014
 31
0.0
  0
LINE
  5
C9
100
AcDbEntity
100
AcDbLine
  8
0
 62
256
370
-1
 48
1.0
  6
ByLayer
 10
-33.8798333702834071
 20
-57.6993880401503816
 30
0.0
 11
-26.7944213039691093
 21
-53.3694139996249888
 31
0.0
  0
LINE
  5
CA
100
AcDbEntity
100
AcDbLine
  8
0
 62
256
370
-1
 48
1.0
  6
ByLayer
 10
-44.4197730979070187
 20
-53.0519949751554876
 30
0.0
 11
-35.8865708887356476
 21
-57.745256190199747
 31
0.0
  0
LINE
  5
CB
100
AcDbEntity
100
AcDbLine
  8
0
 62
256
370
-1
 48
1.0
  6
ByLayer
 10
-47.8995192122878706
 20
-52.804426792508778
 30
0.0
 11
-45.3836105974513231
 21
-52.8044267925087922
 31
0.0
  0
LINE
  5
CC
100
AcDbEntity
100
AcDbLine
  8
0
 62
256
370
-1
 48
1.0
  6
ByLayer
 10
-49.8995192122878635
 20
-44.804426643497159
 30
0.0
 11
-49.8995192122878635
 21
-50.804426792508778
 31
0.0
  0
ARC
  5
CD
100
AcDbEntity
  8
0
 62
256
370
-1
 48
1.0
  6
ByLayer
100
AcDbCircle
 10
-45.3836105974513515
 20
-54.804426792508842
 30
0.0
 40
2.00000000000006
100
AcDbArc
 50
61.1892062570272373
 51
89.99999999999919
  0
ARC
  5
CE
100
AcDbEntity
  8
0
 62
256
370
-1
 48
1.0
  6
ByLayer
100
AcDbCircle
 10
-45.3836105974512876
 20
-40.8044266434971377
 30
0.0
 40
2.0000000000000369
100
AcDbArc
 50
269.9999999999993179
 51
298.8107937429720664
  0
ARC
  5
CF
100
AcDbEntity
  8
0
 62
256
370
-1
 48
1.0
  6
ByLayer
100
AcDbCircle
 10
-47.8995192122878706
 20
-44.804426643497159
 30
0.0
 40
1.9999999999999929
100
AcDbArc
 50
90.0
 51
180.0
  0
ARC
  5
D0
100
AcDbEntity
  8
0
 62
256
370
-1
 48
1.0
  6
ByLayer
100
AcDbCircle
 10
-34.922733389191329
 20
-39.6160290631595231
 30
0.0
 40
2.0000000000000049
100
AcDbArc
 50
58.5704343851614126
 51
118.8107937429729759
  0
ARC
  5
D1
100
AcDbEntity
  8
0
 62
256
370
-1
 48
1.0
  6
ByLayer
100
AcDbCircle
 10
-25.75152126910098
 20
-40.5328757788305012
 30
0.0
 40
2.000000000000008
100
AcDbArc
 50
238.5704343851616045
 51
295.4633441938942156
  0
ARC
  5
D2
100
AcDbEntity
  8
0
 62
256
370
-1
 48
1.0
  6
ByLayer
100
AcDbCircle
 10
-25.7515212850611306
 20
-55.0759776669289209
 30
0.0
 40
2.000000000000004
100
AcDbArc
 50
64.5366549775825149
 51
121.4295656148389071
  0
ARC
  5
D3
100
AcDbEntity
  8
0
 62
256
370
-1
 48
1.0
  6
ByLayer
100
AcDbCircle
 10
-34.9227333891913432
 20
-55.9928243728464565
 30
0.0
 40
1.9999999999999949
100
AcDbArc
 50
241.1892062570269104
 51
301.429565614838225
  0
ARC
  5
D4
100
AcDbEntity
  8
0
 62
256
370
-1
 48
1.0
  6
ByLayer
100
AcDbCircle
 10
-47.8995192122878706
 20
-50.804426792508778
 30
0.0
 40
1.9999999999999929
100
AcDbArc
 50
180.0
 51
270.0
  0
LWPOLYLINE
  5
D5
  8
0
 62
256
370
-1
 48
1.0
  6
ByLayer
100
AcDbEntity
100
AcDbPolyline
 90
6
 70
1
 10
-48.7016601880432276
 20
14.5422826411941308
 30
0.0
 10
-48.7016601880432276
 20
18.4805567183816386
 30
0.0
 42
-0.6222550571399615
 10
-45.4822386663438607
 20
20.0658046965908383
 30
0.0
 10
-40.3624823660000729
 20
16.1275306194033305
 30
0.0
 42
-0.7161369887166518
 10
-41.5819038876994469
 20
12.5422826411941308
 30
0.0
 10
-46.7016601880432276
 20
12.5422826411941308
 30
0.0
 42
-0.4142135623730947
  0
LWPOLYLINE
  5
D6
  8
0
 62
256
370
-1
 48
1.0
  6
ByLayer
100
AcDbEntity
100
AcDbPolyline
 90
8
 70
1
 10
-47.7016624977234471
 20
69.5422834607579716
 30
0.0
 10
-47.7016624977234471
 20
83.6559054861278071
 30
0.0
 42
-0.6100293905536772
 10
-44.5391862380953683
 20
85.2833725198342307
 30
0.0
 10
-34.5391837048977166
 20
78.1405147535611633
 30
0.0
 42
-0.2422133482372086
 10
-33.7016599645258097
 20
76.5130477198547823
 30
0.0
 10
-33.7016599645258026
 20
69.542283460758
 30
0.0
 42
-0.4142135623730918
 10
-35.7016599645258026
 20
67.542283460758
 30
0.0
 10
-45.7016624977234471
 20
67.5422834607579858
 30
0.0
 42
-0.4142135623730898
  0
LWPOLYLINE
  5
D7
  8
0
 62
256
370
-1
 48
1.0
  6
ByLayer
100
AcDbEntity
100
AcDbPolyline
 90
6
 70
1
 10
-25.7016598453165201
 20
21.6315614381424588
 30
0.0
 10
-25.7016598453165201
 20
29.54228292431619
 30
0.0
 42
-0.4142135623730957
 10
-23.7016598453165308
 20
31.5422829243162006
 30
0.0
 10
-13.5307322202360094
 20
31.54228292431619
 30
0.0
 42
-0.7141164116174828
 10
-12.3028509932061798
 20
27.9635784895635418
 30
0.0
 10
-22.4737786182866905
 20
20.0528570033898106
 30
0.0
 42
-0.6241111318741851
  0
LWPOLYLINE
  5
D8
  8
0
 62
256
370
-1
 48
1.0
  6
ByLayer
100
AcDbEntity
100
AcDbPolyline
 90
6
 70
1
 10
-21.0408374736445616
 20
16.1275306194033412
 30
0.0
 10
-15.9210811733007898
 20
20.0658046965908383
 30
0.0
 42
-0.6222550571399561
 10
-12.7016596516014193
 20
18.4805567183816386
 30
0.0
 10
-12.7016596516014193
 20
14.5422826411941308
 30
0.0
 42
-0.4142135623730947
 10
-14.7016596516014193
 20
12.5422826411941308
 30
0.0
 10
-19.8214159519451805
 20
12.5422826411941397
 30
0.0
 42
-0.716136988716654
  0
LWPOLYLINE
  5
D9
  8
0
 62
256
370
-1
 48
1.0
  6
ByLayer
100
AcDbEntity
100
AcDbPolyline
 90
8
 70
1
 10
-27.701659875118839
 20
69.5422834607579858
 30
0.0
 10
-27.7016598751188496
 20
76.5130479401663166
 30
0.0
 42
-0.2422133021368706
 10
-26.864136418223211
 20
78.1405147713896469
 30
0.0
 10
-16.8641390408276699
 20
85.2833714854581473
 30
0.0
 42
-0.6100294503041936
 10
-13.7016624977233192
 20
83.6559046542348312
 30
0.0
 10
-13.7016624977233104
 20
69.542283460758
 30
0.0
 42
-0.4142135623730947
 10
-15.7016624977233104
 20
67.542283460758
 30
0.0
 10
-25.7016598751188496
 20
67.5422834607579858
 30
0.0
 42
-0.4142135623730918
  0
LWPOLYLINE
  5
DA
  8
0
 62
256
370
-1
 48
1.0
  6
ByLayer
100
AcDbEntity
100
AcDbPolyline
 90
6
 70
1
 10
-38.9295412213579723
 20
20.0528570033897999
 30
0.0
 10
-49.10046884643846
 20
27.9635784895635489
 30
0.0
 42
-0.7141164116174786
 10
-47.8725876194086197
 20
31.5422829243162006
 30
0.0
 10
-37.7016599943281179
 20
31.54228292431619
 30
0.0
 42
-0.4142135623730957
 10
-35.7016599943281321
 20
29.54228292431619
 30
0.0
 10
-35.7016599943281321
 20
21.6315614381424588
 30
0.0
 42
-0.6241111318741845
  0
LWPOLYLINE
  5
DB
  8
0
 62
256
370
-1
 48
1.0
  6
ByLayer
100
AcDbEntity
100
AcDbPolyline
 90
6
 70
1
 10
12.0000001788139308
 20
52.6921603783947035
 30
0.0
 42
-0.7668516530613504
 10
16.6635658925167505
 20
53.9447510547489628
 30
0.0
 10
22.3391853440447612
 20
44.141408365746031
 30
0.0
 42
-0.2476071776168955
 10
22.4309551844310597
 20
41.8101789461317566
 30
0.0
 10
16.755335732903049
 20
29.9429746383913695
 30
0.0
 42
-0.7985755577611759
 10
12.0000001788139308
 20
31.0216133816513917
 30
0.0
  0
LWPOLYLINE
  5
DC
  8
0
 62
256
370
-1
 48
1.0
  6
ByLayer
100
AcDbEntity
100
AcDbPolyline
 90
6
 70
1
 10
27.9833529379273891
 20
52.4625439538744018
 30
0.0
 42
-0.6114875925961093
 10
23.539376814130641
 20
52.2182125551978231
 30
0.0
 10
17.6931454765239486
 20
62.2403234196664172
 30
0.0
 42
-0.5788431251518087
 10
19.8525927287700412
 20
66.0000009834766388
 30
0.0
 10
30.1530955616961194
 20
66.0000009834766388
 30
0.0
 42
-0.5427437948777961
 10
32.4376244332467607
 20
62.4846548183430173
 30
0.0
  0
LWPOLYLINE
  5
DD
  8
0
 62
256
370
-1
 48
1.0
  6
ByLayer
100
AcDbEntity
100
AcDbPolyline
 90
6
 70
1
 10
14.5000001788139308
 20
81.0000012069940567
 30
0.0
 42
-0.414213562373094
 10
12.0000001788139308
 20
83.5000012069940567
 30
0.0
 10
12.0000001788139397
 20
94.2742881097810823
 30
0.0
 42
-0.6545390637090192
 10
16.1994118417137614
 20
96.1078638513309045
 30
0.0
 10
27.8243003420892485
 20
85.3335769485438789
 30
0.0
 42
-0.6819922823307661
 10
26.1248886791894108
 20
81.0000012069940567
 30
0.0
  0
LWPOLYLINE
  5
DE
  8
0
 62
256
370
-1
 48
1.0
  6
ByLayer
100
AcDbEntity
100
AcDbPolyline
 90
6
 70
1
 10
36.1660782807794021
 20
26.6076229956025792
 30
0.0
 10
41.8416977323074875
 20
16.8042803065996509
 30
0.0
 42
0.7668516530613518
 10
46.5052634460103675
 20
18.0568709829539102
 30
0.0
 10
46.5052634460103675
 20
39.727417979697222
 30
0.0
 42
0.7985755577611783
 10
41.7499278919211889
 20
40.8060567229572371
 30
0.0
 10
36.0743084403930823
 20
28.9388524152168216
 30
0.0
 42
0.2476071776168879
  0
LWPOLYLINE
  5
DF
  8
0
 62
256
370
-1
 48
1.0
  6
ByLayer
100
AcDbEntity
100
AcDbPolyline
 90
6
 70
1
 10
40.8121181483002573
 20
8.5087079416821787
 30
0.0
 10
34.9658868106934904
 20
18.5308188061507906
 30
0.0
 42
0.6114875925961104
 10
30.5219106868966996
 20
18.2864874074742012
 30
0.0
 10
26.0676391915772392
 20
8.2643765430055627
 30
0.0
 42
0.5427437948777906
 10
28.3521680631279303
 20
4.7490303778719687
 30
0.0
 10
38.652670896054147
 20
4.7490303778719687
 30
0.0
 42
0.5788431251518065
  0
LWPOLYLINE
  5
E0
  8
0
 62
256
370
-1
 48
1.0
  6
ByLayer
100
AcDbEntity
100
AcDbPolyline
 90
6
 70
1
 10
46.5052634460103675
 20
-23.5252567484324793
 30
0.0
 10
46.5052634460103675
 20
-12.7509698456454501
 30
0.0
 42
0.4142135623730951
 10
44.005263446010332
 20
-10.2509698456454501
 30
0.0
 10
32.3803749456346779
 20
-10.2509698456454501
 30
0.0
 42
0.6819922823307646
 10
30.6809632827348295
 20
-14.5845455871952705
 30
0.0
 10
42.3058517831104481
 20
-25.3588324899822908
 30
0.0
 42
0.654539063709021
  0
LWPOLYLINE
  5
E1
  8
layer 2
 62
256
370
-1
 48
1.0
  6
ByLayer
100
AcDbEntity
100
AcDbPolyline
 90
46
 70
1
 10
-1.587681928491244
 20
-47.8677802428819916
 30
0.0
 10
-1.5502059284912479
 20
-47.9712802428819813
 30
0.0
 10
-1.667205928491251
 20
-47.9595802428819766
 30
0.0
 10
-1.6631019284912369
 20
-48.0683722428820488
 30
0.0
 10
-1.772289928491233
 20
-48.0281242428820434
 30
0.0
 10
-1.7999739284912339
 20
-48.1335682428820135
 30
0.0
 10
-1.893357928491231
 20
-48.0675802428819878
 30
0.0
 10
-1.9507779284912381
 20
-48.1624762428820077
 30
0.0
 10
-2.0216979284912391
 20
-48.0757882428819769
 30
0.0
 10
-2.1044979284912388
 20
-48.1527202428819976
 30
0.0
 10
-2.1473019284912378
 20
-48.0517762428819708
 30
0.0
 10
-2.2495779284912309
 20
-48.1054882428819965
 30
0.0
 10
-2.2611339284912302
 20
-47.9970562428820031
 30
0.0
 10
-2.37557792849123
 20
-48.0232282428819985
 30
0.0
 10
-2.3552739284912261
 20
-47.9164162428819935
 30
0.0
 10
-2.4730299284912229
 20
-47.9130682428820194
 30
0.0
 10
-2.4220899284912289
 20
-47.815220242881999
 30
0.0
 10
-2.5345899284912301
 20
-47.7826402428820529
 30
0.0
 10
-2.4570459284912278
 20
-47.701172242881988
 30
0.0
 10
-2.555685928491219
 20
-47.6419882428820429
 30
0.0
 10
-2.4570459284912269
 20
-47.5826242428820123
 30
0.0
 10
-2.5345899284912292
 20
-47.5009762428819826
 30
0.0
 10
-2.4220899284912281
 20
-47.4687202428820072
 30
0.0
 10
-2.4730299284912221
 20
-47.3708722428820295
 30
0.0
 10
-2.3552739284912239
 20
-47.3673802428820423
 30
0.0
 10
-2.3755779284912379
 20
-47.2605322428820074
 30
0.0
 10
-2.2611339284912368
 20
-47.2865242428820309
 30
0.0
 10
-2.2495779284912292
 20
-47.1785242428820268
 30
0.0
 10
-2.147301928491236
 20
-47.2320202428820224
 30
0.0
 10
-2.1044979284912371
 20
-47.1308602428820222
 30
0.0
 10
-2.021697928491236
 20
-47.2080082428820376
 30
0.0
 10
-1.950777928491235
 20
-47.121464242882027
 30
0.0
 10
-1.893357928491229
 20
-47.2160362428820335
 30
0.0
 10
-1.7999739284912319
 20
-47.1503722428819927
 30
0.0
 10
-1.7722899284912399
 20
-47.2556722428819924
 30
0.0
 10
-1.6631019284912441
 20
-47.2156402428820172
 30
0.0
 10
-1.667205928491249
 20
-47.3240362428820305
 30
0.0
 10
-1.5502059284912491
 20
-47.3126602428819965
 30
0.0
 10
-1.5876819284912429
 20
-47.4158362428820368
 30
0.0
 10
-1.471905928491247
 20
-47.4337642428820416
 30
0.0
 10
-1.536741928491246
 20
-47.5246282428820095
 30
0.0
 10
-1.43028992849125
 20
-47.5706722428820328
 30
0.0
 10
-1.5191379284912441
 20
-47.6419882428820429
 30
0.0
 10
-1.43028992849125
 20
-47.7128722428820069
 30
0.0
 10
-1.536741928491246
 20
-47.7593842428819926
 30
0.0
 10
-1.4719059284912479
 20
-47.8496362428820206
 30
0.0
  0
LWPOLYLINE
  5
E2
  8
layer 2
 62
256
370
-1
 48
1.0
  6
ByLayer
100
AcDbEntity
100
AcDbPolyline
 90
55
 70
1
 10
-2.2019499284912318
 20
-46.9132762428819987
 30
0.0
 10
-2.251953928491242
 20
-46.9203322428820329
 30
0.0
 10
-2.3975019284912258
 20
-46.9726762428820521
 30
0.0
 10
-2.561949928491229
 20
-47.085716242881972
 30
0.0
 10
-2.684997928491236
 20
-47.2429642428820173
 30
0.0
 10
-2.7458739284912248
 20
-47.3849842428820267
 30
0.0
 10
-2.7558459284912211
 20
-47.4341602428819797
 30
0.0
 10
-2.7695259284912228
 20
-47.479268242881993
 30
0.0
 10
-2.7872739284912291
 20
-47.6210722428820432
 30
0.0
 10
-2.7706779284912288
 20
-47.8066162428819865
 30
0.0
 10
-2.7083979284912272
 20
-47.9824402428820065
 30
0.0
 10
-2.633193928491222
 20
-48.1040842428820383
 30
0.0
 10
-2.602125928491219
 20
-48.1392922428820427
 30
0.0
 10
-2.5872939284912242
 20
-48.1580122428820232
 30
0.0
 10
-2.4074379284912251
 20
-48.3115162428819787
 30
0.0
 10
-2.3865219284912249
 20
-48.3232162428819976
 30
0.0
 10
-2.368557928491231
 20
-48.3333682428820168
 30
0.0
 10
-2.175777928491236
 20
-48.4048642428820273
 30
0.0
 10
-2.1554739284912379
 20
-48.4087882428820322
 30
0.0
 10
-2.1307059284912331
 20
-48.4134682428819616
 30
0.0
 10
-1.880289928491238
 20
-48.4134682428819616
 30
0.0
 10
-1.8554859284912339
 20
-48.4087882428820322
 30
0.0
 10
-1.8230499284912469
 20
-48.4021282428820285
 30
0.0
 10
-1.6662339284912411
 20
-48.349820242881961
 30
0.0
 10
-1.519137928491245
 20
-48.274040242882009
 30
0.0
 10
-1.49138192849124
 20
-48.2554642428819989
 30
0.0
 10
-1.4740299284912479
 20
-48.2429722428819971
 30
0.0
 10
-1.281825928491251
 20
-48.1490122428819802
 30
0.0
 10
-1.2611259284912451
 20
-48.1429642428820301
 30
0.0
 10
-1.2579939284912449
 20
-48.1429642428820301
 30
0.0
 10
-1.249425928491243
 20
-48.1396162428819778
 30
0.0
 10
-1.2486339284912511
 20
-48.1392922428820427
 30
0.0
 10
-1.216053928491249
 20
-48.1304722428819574
 30
0.0
 10
-0.8822259284912531
 20
-48.0794602428819786
 30
0.0
 10
-0.8482419284912577
 20
-48.078128242882002
 30
0.0
 10
-0.5755779284912608
 20
-48.0802882428819913
 30
0.0
 10
-0.5755779284912546
 20
-47.285336242882039
 30
0.0
 10
-0.7867539284912632
 20
-47.2812322428820409
 30
0.0
 10
-0.8792739284912536
 20
-47.2812322428820409
 30
0.0
 10
-0.9056979284912581
 20
-47.2800802428820077
 30
0.0
 10
-1.1623059284912609
 20
-47.2287082428820071
 30
0.0
 10
-1.186929928491258
 20
-47.2197082428820281
 30
0.0
 10
-1.2007899284912511
 20
-47.2148122428820116
 30
0.0
 10
-1.241577928491254
 20
-47.1982162428820118
 30
0.0
 10
-1.287873928491249
 20
-47.1749602428820225
 30
0.0
 10
-1.345149928491242
 20
-47.1435682428820613
 30
0.0
 10
-1.41113792849124
 20
-47.108360242881993
 30
0.0
 10
-1.433205928491238
 20
-47.0970562428820116
 30
0.0
 10
-1.4746059284912441
 20
-47.0761762428820489
 30
0.0
 10
-1.630485928491245
 20
-46.9992082428820268
 30
0.0
 10
-1.748457928491236
 20
-46.9507882428819983
 30
0.0
 10
-1.770705928491241
 20
-46.9441282428820088
 30
0.0
 10
-1.8054819284912449
 20
-46.9328242428819991
 30
0.0
 10
-1.9845819284912409
 20
-46.9019362428820301
 30
0.0
 10
-2.166021928491233
 20
-46.9070122428820184
 30
0.0
  0
LWPOLYLINE
  5
E3
  8
layer 2
 62
256
370
-1
 48
1.0
  6
ByLayer
100
AcDbEntity
100
AcDbPolyline
 90
50
 70
1
 10
-0.2954979284912609
 20
-49.8216802428819889
 30
0.0
 10
-0.2472939284912634
 20
-49.8931762428819425
 30
0.0
 10
-0.1757979284912714
 20
-49.9414162428819566
 30
0.0
 10
-0.1101339284912618
 20
-49.9589842428819892
 30
0.0
 10
0.2119220715087259
 20
-49.9589842428819892
 30
0.0
 10
0.2326220715087245
 20
-49.9591642428819966
 30
0.0
 10
0.2951180715087277
 20
-49.9433602428819796
 30
0.0
 10
0.3648500715087185
 20
-49.8998362428819604
 30
0.0
 10
0.4140620715087187
 20
-49.8343882428819569
 30
0.0
 10
0.4351580715087167
 20
-49.7734402428819607
 30
0.0
 10
0.4369220715087163
 20
-49.752524242881961
 30
0.0
 10
-0.0881019284912732
 20
-49.752524242881961
 30
0.0
 10
-0.0881019284912731
 20
-49.7150122428819614
 30
0.0
 10
0.4369220715087156
 20
-49.7150122428819685
 30
0.0
 10
0.4369220715087208
 20
-49.0775242428819922
 30
0.0
 10
0.174410071508726
 20
-49.0775242428819922
 30
0.0
 10
0.1744100715087216
 20
-49.0400122428819927
 30
0.0
 10
0.4369220715087156
 20
-49.0400122428819927
 30
0.0
 10
0.4369220715087208
 20
-48.4025242428819666
 30
0.0
 10
0.174410071508726
 20
-48.4025242428819666
 30
0.0
 10
0.1744100715087216
 20
-48.3650122428819671
 30
0.0
 10
0.4369220715087156
 20
-48.3650122428819671
 30
0.0
 10
0.4369220715087163
 20
-47.7462802428820083
 30
0.0
 10
-0.0881019284912732
 20
-47.7462802428820083
 30
0.0
 10
-0.0881019284912731
 20
-47.7087682428820088
 30
0.0
 10
0.4369220715087156
 20
-47.7087682428820088
 30
0.0
 10
0.4369220715087208
 20
-47.0525242428820079
 30
0.0
 10
0.174410071508726
 20
-47.0525242428820079
 30
0.0
 10
0.1744100715087216
 20
-47.0150122428820083
 30
0.0
 10
0.4369220715087155
 20
-47.0150122428820225
 30
0.0
 10
0.4369220715087119
 20
-46.3400122428819969
 30
0.0
 10
0.1744100715087171
 20
-46.3400122428819969
 30
0.0
 10
0.1744100715087127
 20
-46.3025362428820273
 30
0.0
 10
0.4369220715087068
 20
-46.3025362428820273
 30
0.0
 10
0.4369220715087074
 20
-45.7400362428820628
 30
0.0
 10
-0.0881019284912821
 20
-45.7400362428820628
 30
0.0
 10
-0.088101928491282
 20
-45.7025242428820633
 30
0.0
 10
0.4369220715087074
 20
-45.7025242428820633
 30
0.0
 10
0.4349420715087056
 20
-45.6822202428820319
 30
0.0
 10
0.4138460715087158
 20
-45.6220642428820184
 30
0.0
 10
0.3649940715087207
 20
-45.557228242882033
 30
0.0
 10
0.296270071508723
 20
-45.5138842428820496
 30
0.0
 10
0.2347460715087287
 20
-45.4978282428820435
 30
0.0
 10
0.2142620715087185
 20
-45.4976842428820589
 30
0.0
 10
-0.1099899284912731
 20
-45.4976842428820589
 30
0.0
 10
-0.1755819284912719
 20
-45.5152162428820475
 30
0.0
 10
-0.2468979284912728
 20
-45.5632762428820399
 30
0.0
 10
-0.2951379284912738
 20
-45.6343762428820128
 30
0.0
 10
-0.3131019284912684
 20
-45.6998242428820234
 30
0.0
 10
-0.3131019284912636
 20
-49.7560882428819724
 30
0.0
  0
LWPOLYLINE
  5
E4
  8
layer 2
 62
256
370
-1
 48
1.0
  6
ByLayer
100
AcDbEntity
100
AcDbPolyline
 90
9
 70
1
 10
2.476178071508687
 20
-47.3439082428820228
 30
0.0
 10
2.415014071508681
 20
-47.3423602428820232
 30
0.0
 10
0.699398071508722
 20
-47.3097802428820202
 30
0.0
 10
0.6993980715087157
 20
-48.0912322428819934
 30
0.0
 10
0.9036980715087134
 20
-48.0931762428820093
 30
0.0
 10
2.946122071508682
 20
-48.1105282428819976
 30
0.0
 10
3.1504220715086801
 20
-48.1121122428819703
 30
0.0
 10
3.1504220715086801
 20
-47.3595682428819913
 30
0.0
 10
3.0890420715086702
 20
-47.3581642428820331
 30
0.0
  0
LWPOLYLINE
  5
E5
  8
layer 2
 62
256
370
-1
 48
1.0
  6
ByLayer
100
AcDbEntity
100
AcDbPolyline
 90
98
 70
1
 10
7.8945380715085722
 20
-48.8449282428820126
 30
0.0
 10
7.9146620715085714
 20
-48.850184242881987
 30
0.0
 10
8.0841860715085563
 20
-48.8757802428820227
 30
0.0
 10
8.1408140715085686
 20
-48.8757802428820227
 30
0.0
 10
8.1640700715085615
 20
-48.8761762428819821
 30
0.0
 10
8.3952980715085523
 20
-48.8505802428820033
 30
0.0
 10
8.4179780715085606
 20
-48.8449282428820126
 30
0.0
 10
8.439254071508552
 20
-48.8398162428820228
 30
0.0
 10
8.6449184715085448
 20
-48.7632802428819829
 30
0.0
 10
8.6644484715085497
 20
-48.7531282428819566
 30
0.0
 10
8.7019496715085438
 20
-48.7335802428820273
 30
0.0
 10
8.8525340715085505
 20
-48.6248242428820205
 30
0.0
 10
8.9773388715085378
 20
-48.5033242428820017
 30
0.0
 10
9.0019484715085607
 20
-48.4775122428820211
 30
0.0
 10
9.0158156715085553
 20
-48.4632922428819697
 30
0.0
 10
9.1439396715085497
 20
-48.3097882428820071
 30
0.0
 10
9.1556612715085528
 20
-48.2933722428820218
 30
0.0
 10
9.1624940715085419
 20
-48.2839762428820265
 30
0.0
 10
9.2206988715085458
 20
-48.1902322428820113
 30
0.0
 10
9.2257748715085341
 20
-48.180872242881982
 30
0.0
 10
9.2247992715085303
 20
-48.1812322428819968
 30
0.0
 10
9.2160116715085394
 20
-48.1839682428820026
 30
0.0
 10
9.215230471508546
 20
-48.1841842428819973
 30
0.0
 10
8.3033180715085564
 20
-48.3687202428820413
 30
0.0
 10
8.2872980715085536
 20
-48.3724642428819891
 30
0.0
 10
8.2365380715085639
 20
-48.3710602428820025
 30
0.0
 10
8.1757700715085573
 20
-48.3492082428819998
 30
0.0
 10
8.1273500715085678
 20
-48.3068362428819782
 30
0.0
 10
8.1015740715085638
 20
-48.2630602428819984
 30
0.0
 10
8.0970740715085512
 20
-48.2472562428820169
 30
0.0
 10
7.8802820715085797
 20
-47.3378602428820088
 30
0.0
 10
7.8769340715085701
 20
-47.322272242882029
 30
0.0
 10
7.8804620715085694
 20
-47.2724842428819869
 30
0.0
 10
7.9054820715085858
 20
-47.2146322428820113
 30
0.0
 10
7.9509860715085798
 20
-47.1708562428820315
 30
0.0
 10
7.9964900715085729
 20
-47.1501562428820336
 30
0.0
 10
8.0122940715085704
 20
-47.1476722428820807
 30
0.0
 10
8.9242136715085518
 20
-46.9632802428820497
 30
0.0
 10
8.9273384715085502
 20
-46.9626682428820033
 30
0.0
 10
8.953121671508546
 20
-46.9593562428820519
 30
0.0
 10
8.961714871508546
 20
-46.9593562428820519
 30
0.0
 10
8.9499968715085458
 20
-46.9371082428820188
 30
0.0
 10
8.8898408715085502
 20
-46.8830362428820067
 30
0.0
 10
8.7691364715085545
 20
-46.8093802428820069
 30
0.0
 10
8.6240204715085671
 20
-46.7451202428820025
 30
0.0
 10
8.51543007150857
 20
-46.7070322428820504
 30
0.0
 10
8.478710071508571
 20
-46.6968802428820524
 30
0.0
 10
8.415422071508555
 20
-46.6802842428820384
 30
0.0
 10
8.0929700715085531
 20
-46.6554802428820068
 30
0.0
 10
7.7734340715085617
 20
-46.7074282428820311
 30
0.0
 10
7.7119100715085853
 20
-46.7292802428820266
 30
0.0
 10
7.7103620715085954
 20
-46.7277322428820625
 30
0.0
 10
7.6570100715085916
 20
-46.7472802428820629
 30
0.0
 10
7.5031100715085994
 20
-46.8224842428820622
 30
0.0
 10
7.3035260715085979
 20
-46.942580242882002
 30
0.0
 10
7.1222660715085944
 20
-47.0703082428820068
 30
0.0
 10
7.0083980715086094
 20
-47.1580402428820378
 30
0.0
 10
6.9712460715086078
 20
-47.1878842428819993
 30
0.0
 10
6.9564500715086002
 20
-47.1990082428820017
 30
0.0
 10
6.8025140715086074
 20
-47.3009602428819775
 30
0.0
 10
6.7867100715085993
 20
-47.310176242882001
 30
0.0
 10
6.7605740715086062
 20
-47.3255842428820372
 30
0.0
 10
6.6802580715086082
 20
-47.3681722428820322
 30
0.0
 10
6.5970620715086072
 20
-47.404280242882038
 30
0.0
 10
6.531650071508607
 20
-47.4238282428820028
 30
0.0
 10
6.4920140715086214
 20
-47.4312082428820219
 30
0.0
 10
6.4789100715086079
 20
-47.4326122428820227
 30
0.0
 10
6.4685780715086043
 20
-47.4339802428820079
 30
0.0
 10
6.3656180715086208
 20
-47.4339802428820079
 30
0.0
 10
6.3554660715086166
 20
-47.4326122428820227
 30
0.0
 10
6.2644580715086136
 20
-47.4306682428819997
 30
0.0
 10
5.3562500715086339
 20
-47.4097882428820299
 30
0.0
 10
5.2654220715086373
 20
-47.4076282428820406
 30
0.0
 10
5.2654220715086364
 20
-48.1302562428820124
 30
0.0
 10
6.3243980715086154
 20
-48.1400122428820083
 30
0.0
 10
6.3345500715086107
 20
-48.1390762428820125
 30
0.0
 10
6.437510071508612
 20
-48.1390762428820125
 30
0.0
 10
6.447878071508617
 20
-48.1400122428820083
 30
0.0
 10
6.466202071508599
 20
-48.1429642428820372
 30
0.0
 10
6.6456980715086011
 20
-48.1941202428820077
 30
0.0
 10
6.6630500715085983
 20
-48.2013562428820066
 30
0.0
 10
6.6798620715086008
 20
-48.2074402428819866
 30
0.0
 10
6.7310540715086118
 20
-48.2248282428820403
 30
0.0
 10
6.7716620715086071
 20
-48.2374642428819769
 30
0.0
 10
6.8040980715086006
 20
-48.2476882428819778
 30
0.0
 10
6.8368940715085991
 20
-48.2587762428820284
 30
0.0
 10
6.8478740715085982
 20
-48.2624842428819818
 30
0.0
 10
6.882614071508609
 20
-48.2746162428819972
 30
0.0
 10
7.2161900715085912
 20
-48.4281202428820308
 30
0.0
 10
7.2480500715086027
 20
-48.446660242882011
 30
0.0
 10
7.2755900715085984
 20
-48.4634722428819771
 30
0.0
 10
7.3545020715086027
 20
-48.5199202428819873
 30
0.0
 10
7.4238380715086034
 20
-48.5804722428820099
 30
0.0
 10
7.497458071508599
 20
-48.6429682428819774
 30
0.0
 10
7.586522071508579
 20
-48.7040602428819867
 30
0.0
 10
7.617374071508598
 20
-48.7222762428819891
 30
0.0
 10
7.6386860715085847
 20
-48.7359202428819884
 30
0.0
 10
7.8699140715085836
 20
-48.838268242882009
 30
0.0
  0
LWPOLYLINE
  5
E6
  8
layer 2
 62
256
370
-1
 48
1.0
  6
ByLayer
100
AcDbEntity
100
AcDbPolyline
 90
41
 70
1
 10
8.8249940715085611
 20
-44.7019402428820598
 30
0.0
 10
8.1759860715085697
 20
-44.1665842428821094
 30
0.0
 10
7.4310380715085991
 20
-43.7623402428821322
 30
0.0
 10
6.6080060715086191
 20
-43.5068122428820914
 30
0.0
 10
5.9453180715086287
 20
-43.4175682428821119
 30
0.0
 10
5.6380580715086204
 20
-43.4175682428821119
 30
0.0
 10
5.6380580715086248
 20
-43.9222882428820611
 30
0.0
 10
5.9199020715086279
 20
-43.9222882428820611
 30
0.0
 10
6.5064500715085982
 20
-44.0011642428820977
 30
0.0
 10
7.2351620715085936
 20
-44.2273162428820683
 30
0.0
 10
7.8943220715085802
 20
-44.5851922428820373
 30
0.0
 10
8.4687380715085681
 20
-45.0591682428820732
 30
0.0
 10
8.9427716715085452
 20
-45.6335842428820371
 30
0.0
 10
9.3005792715085569
 20
-46.2927802428820598
 30
0.0
 10
9.5267564715085502
 20
-47.021492242882033
 30
0.0
 10
9.6056612715085521
 20
-47.6080402428819909
 30
0.0
 10
9.6056612715085503
 20
-47.9992162428819924
 30
0.0
 10
9.5267564715085449
 20
-48.5857282428819701
 30
0.0
 10
9.3005792715085569
 20
-49.3144402428819433
 30
0.0
 10
8.9427716715085488
 20
-49.9736362428819803
 30
0.0
 10
8.4687380715085681
 20
-50.5480162428819497
 30
0.0
 10
7.8943220715085687
 20
-51.0220642428819673
 30
0.0
 10
7.2351620715085971
 20
-51.3798682428819333
 30
0.0
 10
6.5064500715086018
 20
-51.6060562428819196
 30
0.0
 10
5.9199020715086226
 20
-51.6847522428819133
 30
0.0
 10
5.6380580715086204
 20
-51.6847522428819133
 30
0.0
 10
5.6380580715086257
 20
-52.186520242881933
 30
0.0
 10
5.9453180715086269
 20
-52.186520242881933
 30
0.0
 10
6.6080060715086164
 20
-52.097459842881932
 30
0.0
 10
7.4308580715085828
 20
-51.8421802428819589
 30
0.0
 10
8.1757700715085608
 20
-51.4379002428819803
 30
0.0
 10
8.8246052715085543
 20
-50.9025442428819588
 30
0.0
 10
9.360148471508543
 20
-50.2537162428819784
 30
0.0
 10
9.7644500715085361
 20
-49.5091642428819583
 30
0.0
 10
10.0199204715085308
 20
-48.6861322428820031
 30
0.0
 10
10.1091752715085299
 20
-48.0234082428819775
 30
0.0
 10
10.1093696715085404
 20
-47.8025122428820097
 30
0.0
 10
10.1093696715085404
 20
-47.5816162428820491
 30
0.0
 10
10.0201148715085306
 20
-46.9189282428819965
 30
0.0
 10
9.7646444715085252
 20
-46.0956802428820467
 30
0.0
 10
9.3603464715085565
 20
-45.3509842428820775
 30
0.0
  0
LWPOLYLINE
  5
E7
  8
layer 2
 62
256
370
-1
 48
1.0
  6
ByLayer
100
AcDbEntity
100
AcDbPolyline
 90
175
 70
1
 10
5.6470580715086172
 20
-41.2972762428821625
 30
0.0
 10
5.6400020715086274
 20
-41.2972762428821625
 30
0.0
 10
5.6410100715086209
 20
-41.3123242428821413
 30
0.0
 10
5.6394620715086319
 20
-41.4617242428820987
 30
0.0
 10
5.6380580715086213
 20
-41.4765562428821326
 30
0.0
 10
5.6380580715086239
 20
-42.716036242882133
 30
0.0
 10
5.8543100715086176
 20
-42.716036242882133
 30
0.0
 10
6.24451407150862
 20
-42.7423882428821003
 30
0.0
 10
6.7495940715086089
 20
-42.8195362428821085
 30
0.0
 10
7.2372860715085956
 20
-42.9449242428820881
 30
0.0
 10
7.7046740715085784
 20
-43.1158162428820617
 30
0.0
 10
8.1494180715085722
 20
-43.3300882428821126
 30
0.0
 10
8.5689260715085673
 20
-43.5849682428821126
 30
0.0
 10
8.9605448715085583
 20
-43.8779362428820718
 30
0.0
 10
9.3218696715085478
 20
-44.2062202428820612
 30
0.0
 10
9.6501896715085476
 20
-44.5675882428821026
 30
0.0
 10
9.9431612715085329
 20
-44.9591602428820565
 30
0.0
 10
10.1978468715085206
 20
-45.378524242882051
 30
0.0
 10
10.4121044715085294
 20
-45.8232322428820424
 30
0.0
 10
10.5832016715085206
 20
-46.2908362428820723
 30
0.0
 10
10.7085896715085198
 20
-46.7783122428820377
 30
0.0
 10
10.7857412715085204
 20
-47.2833562428820073
 30
0.0
 10
10.8121040715085304
 20
-47.67363224288205
 30
0.0
 10
10.8121040715085304
 20
-47.933588242882017
 30
0.0
 10
10.7857412715085292
 20
-48.3238282428819872
 30
0.0
 10
10.7085896715085305
 20
-48.8289082428819867
 30
0.0
 10
10.58320167150851
 20
-49.3165642428819808
 30
0.0
 10
10.4121044715085294
 20
-49.7839882428820033
 30
0.0
 10
10.1978468715085206
 20
-50.2287322428819394
 30
0.0
 10
9.9431612715085436
 20
-50.6482402428819469
 30
0.0
 10
9.6501896715085369
 20
-51.0398482428819591
 30
0.0
 10
9.3218696715085372
 20
-51.4011802428819635
 30
0.0
 10
8.9605448715085529
 20
-51.7295002428819473
 30
0.0
 10
8.5689260715085531
 20
-52.022461042881929
 30
0.0
 10
8.149418071508558
 20
-52.2773374428819366
 30
0.0
 10
7.7046740715085802
 20
-52.4915986428819465
 30
0.0
 10
7.2372860715085983
 20
-52.6624942428819196
 30
0.0
 10
6.7495940715086089
 20
-52.7878858428819484
 30
0.0
 10
6.2445140715086218
 20
-52.8650338428818998
 30
0.0
 10
5.8543100715086158
 20
-52.8912094428819373
 30
0.0
 10
5.6380580715086124
 20
-52.8912094428819373
 30
0.0
 10
5.638058071508615
 20
-54.3060490428818667
 30
0.0
 10
5.8087700715086044
 20
-54.306049042881881
 30
0.0
 10
5.8015700715086096
 20
-54.2105446428819278
 30
0.0
 10
5.8523660715086141
 20
-53.9185486428819232
 30
0.0
 10
6.0273620715086063
 20
-53.5831978428819227
 30
0.0
 10
6.3095660715086099
 20
-53.331439042881911
 30
0.0
 10
6.5802500715085994
 20
-53.2105438428819468
 30
0.0
 10
6.674822071508598
 20
-53.1939406428819623
 30
0.0
 10
6.7691420715086146
 20
-53.1775354428819327
 30
0.0
 10
7.0648460715085886
 20
-53.1992146428818984
 30
0.0
 10
7.4158100715085826
 20
-53.3402302428819013
 30
0.0
 10
7.69434207150859
 20
-53.5960894428818975
 30
0.0
 10
7.8414020715085719
 20
-53.8535110428819124
 30
0.0
 10
7.8671780715085582
 20
-53.945699842881929
 30
0.0
 10
7.8806420715085697
 20
-53.9410090428819089
 30
0.0
 10
8.0156060715085609
 20
-53.8919878428819388
 30
0.0
 10
8.0291060715085631
 20
-53.8865194428819194
 30
0.0
 10
7.9894340715085654
 20
-53.7992158428819067
 30
0.0
 10
7.9369100715085761
 20
-53.5074178428818996
 30
0.0
 10
7.9861220715085697
 20
-53.1324202428819135
 30
0.0
 10
8.164646071508578
 20
-52.7990206428819278
 30
0.0
 10
8.3775500715085567
 20
-52.5923806428819276
 30
0.0
 10
8.4605300715085736
 20
-52.5443350428819329
 30
0.0
 10
8.5433660715085544
 20
-52.4964802428819084
 30
0.0
 10
8.8285112715085461
 20
-52.4152282428819589
 30
0.0
 10
9.2066336715085555
 20
-52.427144242881937
 30
0.0
 10
9.5558552715085341
 20
-52.5718678428819288
 30
0.0
 10
9.782421271508543
 20
-52.7632798428819285
 30
0.0
 10
9.8384696715085429
 20
-52.8410074428819527
 30
0.0
 10
9.8496044715085525
 20
-52.8320290428819419
 30
0.0
 10
9.9599552715085427
 20
-52.7396458428819273
 30
0.0
 10
9.9708956715085399
 20
-52.7302678428819434
 30
0.0
 10
9.9038996715085457
 20
-52.6617130428819635
 30
0.0
 10
9.7548812715085358
 20
-52.4054650428819286
 30
0.0
 10
9.6732404715085263
 20
-52.0361302428819172
 30
0.0
 10
9.7271432715085311
 20
-51.6618922428819616
 30
0.0
 10
9.8568296715085353
 20
-51.3953122428819569
 30
0.0
 10
9.9185516715085527
 20
-51.3218722428819589
 30
0.0
 10
9.9800756715085406
 20
-51.2486122428819471
 30
0.0
 10
10.2203108715085307
 20
-51.0748042428819673
 30
0.0
 10
10.5796844715085196
 20
-50.9570122428819801
 30
0.0
 10
10.9574216715085093
 20
-50.9738242428819532
 30
0.0
 10
11.2357412715085108
 20
-51.0763522428819527
 30
0.0
 10
11.3148404715085107
 20
-51.1302802428819376
 30
0.0
 10
11.3222600715085004
 20
-51.1179682428819433
 30
0.0
 10
11.3941340715085104
 20
-50.9931562428819802
 30
0.0
 10
11.4011684715085106
 20
-50.9802682428819693
 30
0.0
 10
11.3146460715085198
 20
-50.9388682428819379
 30
0.0
 10
11.0867156715085002
 20
-50.7490042428819521
 30
0.0
 10
10.8833948715085107
 20
-50.4298642428819477
 30
0.0
 10
10.8060488715085192
 20
-50.0595682428819799
 30
0.0
 10
10.8367136715085195
 20
-49.7646202428820033
 30
0.0
 10
10.8695240715085308
 20
-49.6744402428820422
 30
0.0
 10
10.9021436715085294
 20
-49.584368242881979
 30
0.0
 10
11.0687444715085093
 20
-49.3388842428819672
 30
0.0
 10
11.3662052715085196
 20
-49.1050642428820012
 30
0.0
 10
11.7271448715085196
 20
-48.9917722428819786
 30
0.0
 10
12.0236286315084993
 20
-48.9929602428820132
 30
0.0
 10
12.1165975515084892
 20
-49.0167562428820176
 30
0.0
 10
12.1191366315084998
 20
-49.0027162428819665
 30
0.0
 10
12.1439409915085097
 20
-48.8613082428819823
 30
0.0
 10
12.1462849515085001
 20
-48.846872242881993
 30
0.0
 10
12.0509724315084892
 20
-48.8373322428820273
 30
0.0
 10
11.7722600715085104
 20
-48.7369282428820227
 30
0.0
 10
11.47245567150852
 20
-48.506636242882017
 30
0.0
 10
11.2732388715085197
 20
-48.185336242882002
 30
0.0
 10
11.2011704715085205
 20
-47.8980202428820405
 30
0.0
 10
11.2011704715085099
 20
-47.7064282428820334
 30
0.0
 10
11.2732388715085108
 20
-47.4189322428820219
 30
0.0
 10
11.47245567150852
 20
-47.0976682428820226
 30
0.0
 10
11.7722600715085104
 20
-46.8675562428820172
 30
0.0
 10
12.0509724315084998
 20
-46.7669722428820407
 30
0.0
 10
12.1462849515085001
 20
-46.7574322428819968
 30
0.0
 10
12.1439409915085097
 20
-46.7431762428820576
 30
0.0
 10
12.1191366315084998
 20
-46.6015882428820589
 30
0.0
 10
12.1165975515084803
 20
-46.5871162428820114
 30
0.0
 10
12.0236286315085099
 20
-46.6109122428820584
 30
0.0
 10
11.7271448715085107
 20
-46.6121362428820376
 30
0.0
 10
11.3663996715085105
 20
-46.4982322428820467
 30
0.0
 10
11.0689388715085109
 20
-46.2644122428820666
 30
0.0
 10
10.9025360715085196
 20
-46.0189282428820832
 30
0.0
 10
10.8699200715085205
 20
-45.9287122428820709
 30
0.0
 10
10.8371060715085097
 20
-45.8386762428820305
 30
0.0
 10
10.8068300715085197
 20
-45.5437282428820183
 30
0.0
 10
10.8843704715085092
 20
-45.1734322428821002
 30
0.0
 10
11.0878856715085305
 20
-44.8544722428820677
 30
0.0
 10
11.3158160715085199
 20
-44.6648242428820481
 30
0.0
 10
11.4023384715085196
 20
-44.6232082428820505
 30
0.0
 10
11.3953112715085005
 20
-44.6107162428820487
 30
0.0
 10
11.3234336715085195
 20
-44.48594024288208
 30
0.0
 10
11.3160104715085303
 20
-44.4732322428820765
 30
0.0
 10
11.2367132715085205
 20
-44.5273402428820404
 30
0.0
 10
10.9583936715085208
 20
-44.6298682428820399
 30
0.0
 10
10.5806600715085306
 20
-44.6464642428821108
 30
0.0
 10
10.2212864715085399
 20
-44.5285282428820679
 30
0.0
 10
9.9808532715085345
 20
-44.3544682428820565
 30
0.0
 10
9.9193292715085395
 20
-44.2810642428820529
 30
0.0
 10
9.8576144715085317
 20
-44.2076242428820905
 30
0.0
 10
9.7281188715085491
 20
-43.9408282428820414
 30
0.0
 10
9.6744104715085495
 20
-43.5664282428820826
 30
0.0
 10
9.7564400715085338
 20
-43.1972842428821124
 30
0.0
 10
9.9056600715085548
 20
-42.9410362428820918
 30
0.0
 10
9.9728468715085583
 20
-42.8722762428820729
 30
0.0
 10
9.9619100715085356
 20
-42.862880242882099
 30
0.0
 10
9.8519516715085409
 20
-42.7691362428821122
 30
0.0
 10
9.8408132715085532
 20
-42.7597762428820829
 30
0.0
 10
9.7847612715085628
 20
-42.8376802428820795
 30
0.0
 10
9.5580044715085535
 20
-43.0287322428821
 30
0.0
 10
9.2085884715085626
 20
-43.1730202428821102
 30
0.0
 10
8.8306604715085548
 20
-43.1845762428820805
 30
0.0
 10
8.5454900715085707
 20
-43.1031082428821293
 30
0.0
 10
8.4626900715085789
 20
-43.0550842428820673
 30
0.0
 10
8.3796740715085658
 20
-43.0072402428821334
 30
0.0
 10
8.1669860715085782
 20
-42.8005642428820892
 30
0.0
 10
7.9886780715085761
 20
-42.4671682428820816
 30
0.0
 10
7.9398260715085742
 20
-42.0923722428821208
 30
0.0
 10
7.9925660715085742
 20
-41.8005922428821108
 30
0.0
 10
8.0322020715085785
 20
-41.7132562428821174
 30
0.0
 10
8.0185580715085774
 20
-41.7081802428821575
 30
0.0
 10
7.883198071508577
 20
-41.6587882428821388
 30
0.0
 10
7.8697340715085851
 20
-41.6539282428821522
 30
0.0
 10
7.8437420715085766
 20
-41.7462682428821097
 30
0.0
 10
7.6964660715085884
 20
-42.0035242428821221
 30
0.0
 10
7.4179700715085994
 20
-42.2587642428821084
 30
0.0
 10
7.0670060715085938
 20
-42.3994162428820829
 30
0.0
 10
6.7714460715086124
 20
-42.4206922428820974
 30
0.0
 10
6.677342071508602
 20
-42.4040602428821387
 30
0.0
 10
6.583022071508613
 20
-42.3876802428821193
 30
0.0
 10
6.3123020715086167
 20
-42.2667922428821115
 30
0.0
 10
6.0302420715086189
 20
-42.0150082428820966
 30
0.0
 10
5.8554620715086161
 20
-41.6798842428821033
 30
0.0
 10
5.8046660715086151
 20
-41.3878882428821271
 30
0.0
 10
5.8117220715086297
 20
-41.2923802428821034
 30
0.0
 10
5.7027140715086313
 20
-41.2923802428821034
 30
0.0
  0
LWPOLYLINE
  5
E8
  8
layer 2
 62
256
370
-1
 48
1.0
  6
ByLayer
100
AcDbEntity
100
AcDbPolyline
 90
21
 70
1
 10
3.9573980715086599
 20
-40.8867322428821183
 30
0.0
 10
3.983606071508659
 20
-40.875392242882107
 30
0.0
 10
4.2372980715086506
 20
-40.7447122428821586
 30
0.0
 10
4.2619220715086588
 20
-40.7298802428821176
 30
0.0
 10
4.9125140715086504
 20
-40.3261762428821626
 30
0.0
 10
4.9125140715086522
 20
-39.9578242428821468
 30
0.0
 10
3.4369100715086809
 20
-39.9570322428821569
 30
0.0
 10
3.436910071508672
 20
-40.3253842428821798
 30
0.0
 10
3.9618980715086631
 20
-40.3253842428821798
 30
0.0
 10
4.2279020715086446
 20
-40.296656242882122
 30
0.0
 10
4.2599420715086458
 20
-40.2908242428821382
 30
0.0
 10
4.2353540715086488
 20
-40.3019122428821532
 30
0.0
 10
3.9994100715086569
 20
-40.4318362428821274
 30
0.0
 10
3.9769460715086602
 20
-40.4464882428821468
 30
0.0
 10
3.4369100715086809
 20
-40.7900362428821097
 30
0.0
 10
3.43691007150868
 20
-41.2167802428821588
 30
0.0
 10
4.911722071508632
 20
-41.2167802428821517
 30
0.0
 10
4.9117220715086294
 20
-40.8492202428821187
 30
0.0
 10
4.1992100715086513
 20
-40.8492202428821187
 30
0.0
 10
4.1787260715086436
 20
-40.8499762428821427
 30
0.0
 10
3.977162071508662
 20
-40.8812242428821619
 30
0.0
  0
LWPOLYLINE
  5
E9
  8
layer 2
 62
256
370
-1
 48
1.0
  6
ByLayer
100
AcDbEntity
100
AcDbPolyline
 90
12
 70
1
 10
3.7769660715086761
 20
-42.2201362428821199
 30
0.0
 10
3.7769660715086761
 20
-41.5548922428821399
 30
0.0
 10
3.4369100715086822
 20
-41.5548922428821399
 30
0.0
 10
3.43691007150868
 20
-42.66502424288214
 30
0.0
 10
4.9140620715086394
 20
-42.66502424288214
 30
0.0
 10
4.9140620715086341
 20
-41.5548922428821399
 30
0.0
 10
4.5619100715086436
 20
-41.5548922428821399
 30
0.0
 10
4.561910071508648
 20
-42.2201362428821199
 30
0.0
 10
4.3185500715086436
 20
-42.2201362428821199
 30
0.0
 10
4.3185500715086391
 20
-41.6824402428821017
 30
0.0
 10
3.991202071508662
 20
-41.6824402428821017
 30
0.0
 10
3.991202071508666
 20
-42.2201362428821199
 30
0.0
  0
LWPOLYLINE
  5
EA
  8
layer 2
 62
256
370
-1
 48
1.0
  6
ByLayer
100
AcDbEntity
100
AcDbPolyline
 90
10
 70
1
 10
3.43691007150868
 20
-44.0314402428820912
 30
0.0
 10
4.9125140715086513
 20
-44.0314402428820912
 30
0.0
 10
4.9125140715086504
 20
-43.5908362428820695
 30
0.0
 10
4.3605620715086424
 20
-43.5908362428820695
 30
0.0
 10
4.3605620715086371
 20
-43.1101642428820924
 30
0.0
 10
4.0279220715086703
 20
-43.1101642428820924
 30
0.0
 10
4.0279220715086748
 20
-43.5908362428820695
 30
0.0
 10
3.7879100715086711
 20
-43.5908362428820695
 30
0.0
 10
3.7879100715086742
 20
-42.9650122428820822
 30
0.0
 10
3.4369100715086822
 20
-42.9650122428820822
 30
0.0
  0
LWPOLYLINE
  5
EB
  8
layer 2
 62
256
370
-1
 48
1.0
  6
ByLayer
100
AcDbEntity
100
AcDbPolyline
 90
3
 70
1
 10
4.2993980715086444
 20
-44.949008242882023
 30
0.0
 10
4.2993980715086444
 20
-45.187472242882059
 30
0.0
 10
3.871466071508658
 20
-45.0683842428820185
 30
0.0
  0
LWPOLYLINE
  5
EC
  8
layer 2
 62
256
370
-1
 48
1.0
  6
ByLayer
100
AcDbEntity
100
AcDbPolyline
 90
8
 70
1
 10
4.6218500715086517
 20
-44.8695202428820608
 30
0.0
 10
4.9125140715086513
 20
-44.7863242428820598
 30
0.0
 10
4.9113260715086433
 20
-44.3244082428821002
 30
0.0
 10
3.436910071508672
 20
-44.786720242882069
 30
0.0
 10
3.4369100715086711
 20
-45.2656282428820731
 30
0.0
 10
4.9125140715086406
 20
-45.7208842428820716
 30
0.0
 10
4.9125140715086371
 20
-45.3533242428820387
 30
0.0
 10
4.6218500715086446
 20
-45.2648362428820121
 30
0.0
  0
LWPOLYLINE
  5
ED
  8
layer 2
 62
256
370
-1
 48
1.0
  6
ByLayer
100
AcDbEntity
100
AcDbPolyline
 90
12
 70
1
 10
3.436910071508672
 20
-46.4652202428820473
 30
0.0
 10
3.9791060715086508
 20
-46.4652202428820473
 30
0.0
 10
3.9791060715086601
 20
-46.8109282428820634
 30
0.0
 10
3.4369100715086809
 20
-46.8109282428820634
 30
0.0
 10
3.43691007150868
 20
-47.2636642428820224
 30
0.0
 10
4.9125140715086504
 20
-47.2636642428820224
 30
0.0
 10
4.9125140715086504
 20
-46.8109282428820634
 30
0.0
 10
4.3392500715086593
 20
-46.8109282428820634
 30
0.0
 10
4.339250071508661
 20
-46.4652202428820473
 30
0.0
 10
4.9113260715086406
 20
-46.4652202428820402
 30
0.0
 10
4.9113260715086344
 20
-46.0124842428820386
 30
0.0
 10
3.436910071508672
 20
-46.0124842428820529
 30
0.0
  0
LWPOLYLINE
  5
EE
  8
layer 2
 62
256
370
-1
 48
1.0
  6
ByLayer
100
AcDbEntity
100
AcDbPolyline
 90
13
 70
1
 10
4.003910071508666
 20
-48.1742122428819926
 30
0.0
 10
4.0337540715086639
 20
-48.2892682428820166
 30
0.0
 10
4.0332140715086506
 20
-48.3011842428820088
 30
0.0
 10
4.0332140715086542
 20
-48.4943242428820227
 30
0.0
 10
3.75115407150866
 20
-48.4943242428820227
 30
0.0
 10
3.75115407150866
 20
-48.2533402428819898
 30
0.0
 10
3.78650607150866
 20
-48.1556722428819768
 30
0.0
 10
3.8662100715086649
 20
-48.1121122428819632
 30
0.0
 10
3.892958071508676
 20
-48.1121122428819632
 30
0.0
 10
3.9033260715086739
 20
-48.1117162428820322
 30
0.0
 10
3.9519620715086661
 20
-48.1244242428820286
 30
0.0
 10
3.991598071508653
 20
-48.1552762428820387
 30
0.0
 10
3.9974660715086601
 20
-48.163880242881973
 30
0.0
  0
LWPOLYLINE
  5
EF
  8
layer 2
 62
256
370
-1
 48
1.0
  6
ByLayer
100
AcDbEntity
100
AcDbPolyline
 90
22
 70
1
 10
3.4666100715086752
 20
-47.9513722428820017
 30
0.0
 10
3.4369100715086809
 20
-48.1210762428819834
 30
0.0
 10
3.43691007150868
 20
-48.9468802428820169
 30
0.0
 10
4.9125140715086504
 20
-48.9468802428820169
 30
0.0
 10
4.9125140715086504
 20
-48.4943242428820227
 30
0.0
 10
4.3500140715086566
 20
-48.4943242428820227
 30
0.0
 10
4.3500140715086566
 20
-48.3517642428819912
 30
0.0
 10
4.9125140715086504
 20
-48.1361242428819835
 30
0.0
 10
4.9125140715086486
 20
-47.6343562428819993
 30
0.0
 10
4.2683660715086447
 20
-47.9021242428820315
 30
0.0
 10
4.2558740715086421
 20
-47.8759882428819878
 30
0.0
 10
4.1879060715086496
 20
-47.7708682428820097
 30
0.0
 10
4.1123060715086606
 20
-47.7013882428820324
 30
0.0
 10
4.096106071508653
 20
-47.6925682428819897
 30
0.0
 10
4.0787180715086588
 20
-47.683784242882048
 30
0.0
 10
3.8906180715086691
 20
-47.6404402428820006
 30
0.0
 10
3.8711060715086538
 20
-47.6408362428820098
 30
0.0
 10
3.840794071508673
 20
-47.6398282428819897
 30
0.0
 10
3.6972620715086602
 20
-47.6748202428820278
 30
0.0
 10
3.575546071508668
 20
-47.7585922428820098
 30
0.0
 10
3.5562500715086638
 20
-47.7818122428819976
 30
0.0
 10
3.536306071508672
 20
-47.8054642428820387
 30
0.0
  0
LWPOLYLINE
  5
F0
  8
layer 2
 62
256
370
-1
 48
1.0
  6
ByLayer
100
AcDbEntity
100
AcDbPolyline
 90
12
 70
1
 10
4.3185500715086391
 20
-49.4111362428819731
 30
0.0
 10
3.991202071508662
 20
-49.4111362428819731
 30
0.0
 10
3.991202071508666
 20
-49.9490122428819916
 30
0.0
 10
3.7769660715086761
 20
-49.9490122428819916
 30
0.0
 10
3.7769660715086801
 20
-49.2837682428819406
 30
0.0
 10
3.4369100715086822
 20
-49.2837682428819406
 30
0.0
 10
3.43691007150868
 20
-50.3929642428819875
 30
0.0
 10
4.9140620715086394
 20
-50.3929642428819875
 30
0.0
 10
4.9140620715086341
 20
-49.2837682428819406
 30
0.0
 10
4.5619100715086436
 20
-49.2837682428819406
 30
0.0
 10
4.561910071508648
 20
-49.9490122428819916
 30
0.0
 10
4.3185500715086436
 20
-49.9490122428819916
 30
0.0
  0
LWPOLYLINE
  5
F1
  8
layer 2
 62
256
370
-1
 48
1.0
  6
ByLayer
100
AcDbEntity
100
AcDbPolyline
 90
12
 70
1
 10
4.9125140715086504
 20
-52.0025350428819522
 30
0.0
 10
4.9125140715086513
 20
-51.5741962428819605
 30
0.0
 10
4.5724580715086516
 20
-51.5741962428819605
 30
0.0
 10
4.3552700715086621
 20
-51.4212682428819505
 30
0.0
 10
4.9125140715086504
 20
-51.1666042428819878
 30
0.0
 10
4.9125140715086442
 20
-50.6712802428819771
 30
0.0
 10
3.9765500715086679
 20
-51.1331962428819935
 30
0.0
 10
3.4369100715086809
 20
-50.7607402428819867
 30
0.0
 10
3.4369100715086738
 20
-51.167756242881957
 30
0.0
 10
4.0466780715086763
 20
-51.5757802428819332
 30
0.0
 10
3.4369100715086809
 20
-51.5757802428819332
 30
0.0
 10
3.43691007150868
 20
-52.0025350428819522
 30
0.0
  0
LWPOLYLINE
  5
F2
  8
layer 2
 62
256
370
-1
 48
1.0
  6
ByLayer
100
AcDbEntity
100
AcDbPolyline
 90
3
 70
1
 10
4.2993980715086533
 20
-52.9185478428819209
 30
0.0
 10
4.2993980715086533
 20
-53.1574186428819431
 30
0.0
 10
3.871466071508658
 20
-53.0378842428819368
 30
0.0
  0
LWPOLYLINE
  5
F3
  8
layer 2
 62
256
370
-1
 48
1.0
  6
ByLayer
100
AcDbEntity
100
AcDbPolyline
 90
8
 70
1
 10
4.6218500715086446
 20
-53.2343686428819112
 30
0.0
 10
4.6218500715086464
 20
-52.8390598428819516
 30
0.0
 10
4.9125140715086504
 20
-52.7558530428819097
 30
0.0
 10
4.9113260715086433
 20
-52.2937426428819592
 30
0.0
 10
3.4369100715086809
 20
-52.7566342428819723
 30
0.0
 10
3.4369100715086711
 20
-53.2351534428819093
 30
0.0
 10
4.9125140715086406
 20
-53.6900350428819095
 30
0.0
 10
4.9125140715086459
 20
-53.3228494428819175
 30
0.0
  0
LWPOLYLINE
  5
F4
  8
layer 2
 62
256
370
-1
 48
1.0
  6
ByLayer
100
AcDbEntity
100
AcDbPolyline
 90
13
 70
1
 10
4.9125140715086406
 20
-54.6749950428819105
 30
0.0
 10
3.8583980715086601
 20
-54.4025326428819085
 30
0.0
 10
4.9113260715086318
 20
-54.4025326428819085
 30
0.0
 10
4.9113260715086344
 20
-53.9831974428819095
 30
0.0
 10
3.436910071508672
 20
-53.9831974428819095
 30
0.0
 10
3.436910071508668
 20
-54.5767546428818875
 30
0.0
 10
4.2203060715086371
 20
-54.7808530428819225
 30
0.0
 10
3.436910071508672
 20
-54.9949198428818988
 30
0.0
 10
3.4369100715086711
 20
-55.5863242428818864
 30
0.0
 10
4.9125140715086406
 20
-55.5863242428818864
 30
0.0
 10
4.9125140715086424
 20
-55.2488242428818808
 30
0.0
 10
3.8583980715086601
 20
-55.2488242428818666
 30
0.0
 10
4.9125140715086406
 20
-54.9650326428818801
 30
0.0
  0
LINE
  5
F5
100
AcDbEntity
100
AcDbLine
  8
layer 2
 62
256
370
-1
 48
1.0
  6
ByLayer
 10
-53.4243725270952368
 20
7.0133517175877333
 30
0.0
 11
-53.4222629249409735
 21
10.6354520525325693
 31
0.0
  0
LINE
  5
F6
100
AcDbEntity
100
AcDbLine
  8
layer 2
 62
256
370
-1
 48
1.0
  6
ByLayer
 10
-53.4222629249409735
 20
10.6354520525325693
 30
0.0
 11
-52.8731498636644517
 21
10.6351322352992099
 31
0.0
  0
LINE
  5
F7
100
AcDbEntity
100
AcDbLine
  8
layer 2
 62
256
370
-1
 48
1.0
  6
ByLayer
 10
-52.8731498636644517
 20
10.6351322352992099
 30
0.0
 11
-52.8734458436783825
 21
10.1269466964160006
 31
0.0
  0
SPLINE
  5
F8
  8
layer 2
 62
256
370
-1
 48
1.0
  6
ByLayer
100
AcDbEntity
100
AcDbSpline
 70
8
 71
2
 72
6
 73
3
 74
0
 40
0.0
 40
0.0
 40
0.0
 40
1.0
 40
1.0
 40
1.0
 10
-52.8734458436783825
 20
10.1269466964160006
 30
0.0
 10
-52.7027587630436614
 20
10.3928774618666093
 30
0.0
 10
-52.4195824266095727
 20
10.55301269565952
 30
0.0
  0
SPLINE
  5
F9
  8
layer 2
 62
256
370
-1
 48
1.0
  6
ByLayer
100
AcDbEntity
100
AcDbSpline
 70
8
 71
2
 72
6
 73
3
 74
0
 40
0.0
 40
0.0
 40
0.0
 40
1.0
 40
1.0
 40
1.0
 10
-52.4195824266095727
 20
10.55301269565952
 30
0.0
 10
-52.1364038057465322
 20
10.7165585064744402
 30
0.0
 10
-51.7748757684818912
 20
10.7163479434687208
 30
0.0
  0
SPLINE
  5
FA
  8
layer 2
 62
256
370
-1
 48
1.0
  6
ByLayer
100
AcDbEntity
100
AcDbSpline
 70
8
 71
2
 72
6
 73
3
 74
0
 40
0.0
 40
0.0
 40
0.0
 40
1.0
 40
1.0
 40
1.0
 10
-51.7748757684818912
 20
10.7163479434687208
 30
0.0
 10
-51.3724202088239323
 20
10.7161135432464008
 30
0.0
 10
-51.1167194864029426
 20
10.5488432972198893
 30
0.0
  0
SPLINE
  5
FB
  8
layer 2
 62
256
370
-1
 48
1.0
  6
ByLayer
100
AcDbEntity
100
AcDbSpline
 70
8
 71
2
 72
6
 73
3
 74
0
 40
0.0
 40
0.0
 40
0.0
 40
1.0
 40
1.0
 40
1.0
 10
-51.1167194864029426
 20
10.5488432972198893
 30
0.0
 10
-50.8576081869599577
 20
10.3815707667644297
 30
0.0
 10
-50.7520533125898865
 20
10.0813730295152606
 30
0.0
  0
SPLINE
  5
FC
  8
layer 2
 62
256
370
-1
 48
1.0
  6
ByLayer
100
AcDbEntity
100
AcDbSpline
 70
8
 71
2
 72
6
 73
3
 74
0
 40
0.0
 40
0.0
 40
0.0
 40
1.0
 40
1.0
 40
1.0
 10
-50.7520533125898865
 20
10.0813730295152606
 30
0.0
 10
-50.3219430610785281
 20
10.7155017189814199
 30
0.0
 10
-49.6329939505977578
 20
10.7151004577221602
 30
0.0
  0
SPLINE
  5
FD
  8
layer 2
 62
256
370
-1
 48
1.0
  6
ByLayer
100
AcDbEntity
100
AcDbSpline
 70
8
 71
2
 72
6
 73
3
 74
0
 40
0.0
 40
0.0
 40
0.0
 40
1.0
 40
1.0
 40
1.0
 10
-49.6329939505977578
 20
10.7151004577221602
 30
0.0
 10
-49.0941120248616301
 20
10.7147865993589999
 30
0.0
 10
-48.8043830018719973
 20
10.4144812964383799
 30
0.0
  0
SPLINE
  5
FE
  8
layer 2
 62
256
370
-1
 48
1.0
  6
ByLayer
100
AcDbEntity
100
AcDbSpline
 70
8
 71
2
 72
6
 73
3
 74
0
 40
0.0
 40
0.0
 40
0.0
 40
1.0
 40
1.0
 40
1.0
 10
-48.8043830018719973
 20
10.4144812964383799
 30
0.0
 10
-48.5146513962566601
 20
10.1175868683893508
 30
0.0
 10
-48.5150129288759828
 20
9.496850195889742
 30
0.0
  0
LINE
  5
FF
100
AcDbEntity
100
AcDbLine
  8
layer 2
 62
256
370
-1
 48
1.0
  6
ByLayer
 10
-48.5150129288759828
 20
9.496850195889742
 30
0.0
 11
-48.5164610455854728
 21
7.0104932267188813
 31
0.0
  0
LINE
  5
100
100
AcDbEntity
100
AcDbLine
  8
layer 2
 62
256
370
-1
 48
1.0
  6
ByLayer
 10
-48.5164610455854728
 20
7.0104932267188813
 30
0.0
 11
-49.1269656884751527
 21
7.0108487999507263
 31
0.0
  0
LINE
  5
101
100
AcDbEntity
100
AcDbLine
  8
layer 2
 62
256
370
-1
 48
1.0
  6
ByLayer
 10
-49.1269656884751527
 20
7.0108487999507263
 30
0.0
 11
-49.1256367583682589
 21
9.2925672630854361
 31
0.0
  0
SPLINE
  5
102
  8
layer 2
 62
256
370
-1
 48
1.0
  6
ByLayer
100
AcDbEntity
100
AcDbSpline
 70
8
 71
2
 72
6
 73
3
 74
0
 40
0.0
 40
0.0
 40
0.0
 40
1.0
 40
1.0
 40
1.0
 10
-49.1256367583682731
 20
9.2925672630854361
 30
0.0
 10
-49.125422222553027
 20
9.6609164547412369
 30
0.0
 10
-49.1867204413593129
 20
9.8212523191637846
 30
0.0
  0
SPLINE
  5
103
  8
layer 2
 62
256
370
-1
 48
1.0
  6
ByLayer
100
AcDbEntity
100
AcDbSpline
 70
8
 71
2
 72
6
 73
3
 74
0
 40
0.0
 40
0.0
 40
0.0
 40
1.0
 40
1.0
 40
1.0
 10
-49.1867204413593129
 20
9.8212523191637846
 30
0.0
 10
-49.2446060963906689
 20
9.9849970723992989
 30
0.0
 10
-49.4014374247640689
 20
10.0839969752650394
 30
0.0
  0
SPLINE
  5
104
  8
layer 2
 62
256
370
-1
 48
1.0
  6
ByLayer
100
AcDbEntity
100
AcDbSpline
 70
8
 71
2
 72
6
 73
3
 74
0
 40
0.0
 40
0.0
 40
0.0
 40
1.0
 40
1.0
 40
1.0
 10
-49.4014374247640689
 20
10.0839969752650394
 30
0.0
 10
-49.55826934918381
 20
10.1829968784779297
 30
0.0
 10
-49.7697293076343001
 20
10.1831200380668108
 30
0.0
  0
SPLINE
  5
105
  8
layer 2
 62
256
370
-1
 48
1.0
  6
ByLayer
100
AcDbEntity
100
AcDbSpline
 70
8
 71
2
 72
6
 73
3
 74
0
 40
0.0
 40
0.0
 40
0.0
 40
1.0
 40
1.0
 40
1.0
 10
-49.7697293076343001
 20
10.1831200380668108
 30
0.0
 10
-50.1517211060956072
 20
10.1833425196808296
 30
0.0
 10
-50.4042575701492623
 20
9.9276914584469313
 30
0.0
  0
SPLINE
  5
106
  8
layer 2
 62
256
370
-1
 48
1.0
  6
ByLayer
100
AcDbEntity
100
AcDbSpline
 70
8
 71
2
 72
6
 73
3
 74
0
 40
0.0
 40
0.0
 40
0.0
 40
1.0
 40
1.0
 40
1.0
 10
-50.4042575701492623
 20
9.9276914584469313
 30
0.0
 10
-50.6567917497739799
 20
9.6754509742350319
 30
0.0
 10
-50.6571175262215831
 20
9.1161061813717552
 30
0.0
  0
LINE
  5
107
100
AcDbEntity
100
AcDbLine
  8
layer 2
 62
256
370
-1
 48
1.0
  6
ByLayer
 10
-50.6571175262215974
 20
9.1161061813717552
 30
0.0
 11
-50.658343161492752
 21
7.0117407126390221
 31
0.0
  0
LINE
  5
108
100
AcDbEntity
100
AcDbLine
  8
layer 2
 62
256
370
-1
 48
1.0
  6
ByLayer
 10
-50.658343161492752
 20
7.0117407126390221
 30
0.0
 11
-51.2722583815780411
 21
7.0120982722766536
 31
0.0
  0
LINE
  5
109
100
AcDbEntity
100
AcDbLine
  8
layer 2
 62
256
370
-1
 48
1.0
  6
ByLayer
 10
-51.2722583815780411
 20
7.0120982722766536
 30
0.0
 11
-51.2708877360821376
 21
9.3654403466344451
 31
0.0
  0
SPLINE
  5
10A
  8
layer 2
 62
256
370
-1
 48
1.0
  6
ByLayer
100
AcDbEntity
100
AcDbSpline
 70
8
 71
2
 72
6
 73
3
 74
0
 40
0.0
 40
0.0
 40
0.0
 40
1.0
 40
1.0
 40
1.0
 10
-51.2708877360821305
 20
9.3654403466344434
 30
0.0
 10
-51.2706493630505094
 20
9.7747170606835709
 30
0.0
 10
-51.4205982552620711
 20
9.979442970136553
 30
0.0
  0
SPLINE
  5
10B
  8
layer 2
 62
256
370
-1
 48
1.0
  6
ByLayer
100
AcDbEntity
100
AcDbSpline
 70
8
 71
2
 72
6
 73
3
 74
0
 40
0.0
 40
0.0
 40
0.0
 40
1.0
 40
1.0
 40
1.0
 10
-51.4205982552620711
 20
9.979442970136553
 30
0.0
 10
-51.5705474454967927
 20
10.18416887976311
 30
0.0
 10
-51.9116114235416006
 20
10.1843675239869604
 30
0.0
  0
SPLINE
  5
10C
  8
layer 2
 62
256
370
-1
 48
1.0
  6
ByLayer
100
AcDbEntity
100
AcDbSpline
 70
8
 71
2
 72
6
 73
3
 74
0
 40
0.0
 40
0.0
 40
0.0
 40
1.0
 40
1.0
 40
1.0
 10
-51.9116114235416006
 20
10.1843675239869604
 30
0.0
 10
-52.1708203567997373
 20
10.1845184937776008
 30
0.0
 10
-52.392591206606717
 20
10.0482218423784406
 30
0.0
  0
SPLINE
  5
10D
  8
layer 2
 62
256
370
-1
 48
1.0
  6
ByLayer
100
AcDbEntity
100
AcDbSpline
 70
8
 71
2
 72
6
 73
3
 74
0
 40
0.0
 40
0.0
 40
0.0
 40
1.0
 40
1.0
 40
1.0
 10
-52.392591206606717
 20
10.0482218423784406
 30
0.0
 10
-52.6109514790445516
 20
9.9119235025966805
 30
0.0
 10
-52.7100132599000091
 20
9.6493618971489923
 30
0.0
  0
SPLINE
  5
10E
  8
layer 2
 62
256
370
-1
 48
1.0
  6
ByLayer
100
AcDbEntity
100
AcDbSpline
 70
8
 71
2
 72
6
 73
3
 74
0
 40
0.0
 40
0.0
 40
0.0
 40
1.0
 40
1.0
 40
1.0
 10
-52.7100132599000091
 20
9.6493618971489923
 30
0.0
 10
-52.809074742905878
 20
9.3867999935045532
 30
0.0
 10
-52.809362776949591
 20
8.8922573594500207
 30
0.0
  0
LINE
  5
10F
100
AcDbEntity
100
AcDbLine
  8
layer 2
 62
256
370
-1
 48
1.0
  6
ByLayer
 10
-52.8093627769495981
 20
8.8922573594500207
 30
0.0
 11
-52.8104573070099832
 21
7.0129941579501001
 31
0.0
  0
LINE
  5
110
100
AcDbEntity
100
AcDbLine
  8
layer 2
 62
256
370
-1
 48
1.0
  6
ByLayer
 10
-52.8104573070099832
 20
7.0129941579501001
 30
0.0
 11
-53.4243725270952368
 21
7.0133517175877333
 31
0.0
  0
SPLINE
  5
111
  8
layer 2
 62
256
370
-1
 48
1.0
  6
ByLayer
100
AcDbEntity
100
AcDbSpline
 70
8
 71
2
 72
6
 73
3
 74
0
 40
0.0
 40
0.0
 40
0.0
 40
1.0
 40
1.0
 40
1.0
 10
-45.2419853210376317
 20
7.4553801986762958
 30
0.0
 10
-45.5832184447202877
 20
7.1656744170321582
 30
0.0
 10
-45.9004770139169977
 20
7.046486569864018
 30
0.0
  0
SPLINE
  5
112
  8
layer 2
 62
256
370
-1
 48
1.0
  6
ByLayer
100
AcDbEntity
100
AcDbSpline
 70
8
 71
2
 72
6
 73
3
 74
0
 40
0.0
 40
0.0
 40
0.0
 40
1.0
 40
1.0
 40
1.0
 10
-45.9004770139169977
 20
7.046486569864018
 30
0.0
 10
-46.2143256019644824
 20
6.927296736637242
 30
0.0
 10
-46.5758539372522833
 20
6.9275072998165381
 30
0.0
  0
SPLINE
  5
113
  8
layer 2
 62
256
370
-1
 48
1.0
  6
ByLayer
100
AcDbEntity
100
AcDbSpline
 70
8
 71
2
 72
6
 73
3
 74
0
 40
0.0
 40
0.0
 40
0.0
 40
1.0
 40
1.0
 40
1.0
 10
-46.5758539372522833
 20
6.9275072998165381
 30
0.0
 10
-47.172715675313313
 20
6.9278549270780809
 30
0.0
 10
-47.4931470445467596
 20
7.2179460787351806
 30
0.0
  0
SPLINE
  5
114
  8
layer 2
 62
256
370
-1
 48
1.0
  6
ByLayer
100
AcDbEntity
100
AcDbSpline
 70
8
 71
2
 72
6
 73
3
 74
0
 40
0.0
 40
0.0
 40
0.0
 40
1.0
 40
1.0
 40
1.0
 10
-47.4931470445467596
 20
7.2179460787351806
 30
0.0
 10
-47.8135764270272929
 20
7.5114484036342084
 30
0.0
 10
-47.8133122301999478
 20
7.965063515295415
 30
0.0
  0
SPLINE
  5
115
  8
layer 2
 62
256
370
-1
 48
1.0
  6
ByLayer
100
AcDbEntity
100
AcDbSpline
 70
8
 71
2
 72
6
 73
3
 74
0
 40
0.0
 40
0.0
 40
0.0
 40
1.0
 40
1.0
 40
1.0
 10
-47.8133122301999478
 20
7.965063515295415
 30
0.0
 10
-47.8131572877728033
 20
8.2310933049215542
 30
0.0
 10
-47.6936581653891523
 20
8.4493048925191871
 30
0.0
  0
SPLINE
  5
116
  8
layer 2
 62
256
370
-1
 48
1.0
  6
ByLayer
100
AcDbEntity
100
AcDbSpline
 70
8
 71
2
 72
6
 73
3
 74
0
 40
0.0
 40
0.0
 40
0.0
 40
1.0
 40
1.0
 40
1.0
 10
-47.6936581653891523
 20
8.4493048925191871
 30
0.0
 10
-47.5707458833578229
 20
8.6709250705594609
 30
0.0
 10
-47.3762619357180128
 20
8.8038267381597315
 30
0.0
  0
SPLINE
  5
117
  8
layer 2
 62
256
370
-1
 48
1.0
  6
ByLayer
100
AcDbEntity
100
AcDbSpline
 70
8
 71
2
 72
6
 73
3
 74
0
 40
0.0
 40
0.0
 40
0.0
 40
1.0
 40
1.0
 40
1.0
 10
-47.3762619357180128
 20
8.8038267381597315
 30
0.0
 10
-47.1783668148362665
 20
8.9367264190070639
 30
0.0
 10
-46.9327613556203005
 20
9.0047961313646283
 30
0.0
  0
SPLINE
  5
118
  8
layer 2
 62
256
370
-1
 48
1.0
  6
ByLayer
100
AcDbEntity
100
AcDbSpline
 70
8
 71
2
 72
6
 73
3
 74
0
 40
0.0
 40
0.0
 40
0.0
 40
1.0
 40
1.0
 40
1.0
 10
-46.9327613556203005
 20
9.0047961313646283
 30
0.0
 10
-46.751969377601327
 20
9.052440122605816
 30
0.0
 10
-46.3870052375421409
 20
9.0965656729567925
 30
0.0
  0
SPLINE
  5
119
  8
layer 2
 62
256
370
-1
 48
1.0
  6
ByLayer
100
AcDbEntity
100
AcDbSpline
 70
8
 71
2
 72
6
 73
3
 74
0
 40
0.0
 40
0.0
 40
0.0
 40
1.0
 40
1.0
 40
1.0
 10
-46.3870052375421409
 20
9.0965656729567925
 30
0.0
 10
-45.6434334562015991
 20
9.1848094233876374
 30
0.0
 10
-45.2920665325969622
 20
9.3073879833463327
 30
0.0
  0
SPLINE
  5
11A
  8
layer 2
 62
256
370
-1
 48
1.0
  6
ByLayer
100
AcDbEntity
100
AcDbSpline
 70
8
 71
2
 72
6
 73
3
 74
0
 40
0.0
 40
0.0
 40
0.0
 40
1.0
 40
1.0
 40
1.0
 10
-45.2920665325969622
 20
9.3073879833463327
 30
0.0
 10
-45.2885824569993289
 20
9.4335797373624501
 30
0.0
 10
-45.2885625925945021
 20
9.4676861053646135
 30
0.0
  0
SPLINE
  5
11B
  8
layer 2
 62
256
370
-1
 48
1.0
  6
ByLayer
100
AcDbEntity
100
AcDbSpline
 70
8
 71
2
 72
6
 73
3
 74
0
 40
0.0
 40
0.0
 40
0.0
 40
1.0
 40
1.0
 40
1.0
 10
-45.2885625925945021
 20
9.4676861053646135
 30
0.0
 10
-45.2883440841413005
 20
9.8428561533884036
 30
0.0
 10
-45.4621971113523529
 20
9.9964364158522301
 30
0.0
  0
SPLINE
  5
11C
  8
layer 2
 62
256
370
-1
 48
1.0
  6
ByLayer
100
AcDbEntity
100
AcDbSpline
 70
8
 71
2
 72
6
 73
3
 74
0
 40
0.0
 40
0.0
 40
0.0
 40
1.0
 40
1.0
 40
1.0
 10
-45.4621971113523529
 20
9.9964364158522301
 30
0.0
 10
-45.6974099371635418
 20
10.2046225635133592
 30
0.0
 10
-46.16125737645784
 20
10.2048927199077397
 30
0.0
  0
SPLINE
  5
11D
  8
layer 2
 62
256
370
-1
 48
1.0
  6
ByLayer
100
AcDbEntity
100
AcDbSpline
 70
8
 71
2
 72
6
 73
3
 74
0
 40
0.0
 40
0.0
 40
0.0
 40
1.0
 40
1.0
 40
1.0
 10
-46.16125737645784
 20
10.2048927199077397
 30
0.0
 10
-46.5944084288992073
 20
10.2051449979557205
 30
0.0
 10
-46.8025472001494478
 20
10.0517872171059199
 30
0.0
  0
SPLINE
  5
11E
  8
layer 2
 62
256
370
-1
 48
1.0
  6
ByLayer
100
AcDbEntity
100
AcDbSpline
 70
8
 71
2
 72
6
 73
3
 74
0
 40
0.0
 40
0.0
 40
0.0
 40
1.0
 40
1.0
 40
1.0
 10
-46.8025472001494478
 20
10.0517872171059199
 30
0.0
 10
-47.0072728115784173
 20
9.9018383247219273
 30
0.0
 10
-47.1064058064069968
 20
9.5164935558743373
 30
0.0
  0
LINE
  5
11F
100
AcDbEntity
100
AcDbLine
  8
layer 2
 62
256
370
-1
 48
1.0
  6
ByLayer
 10
-47.1064058064069968
 20
9.5164935558743373
 30
0.0
 11
-47.70663104310362
 21
9.598698512698645
 31
0.0
  0
SPLINE
  5
120
  8
layer 2
 62
256
370
-1
 48
1.0
  6
ByLayer
100
AcDbEntity
100
AcDbSpline
 70
8
 71
2
 72
6
 73
3
 74
0
 40
0.0
 40
0.0
 40
0.0
 40
1.0
 40
1.0
 40
1.0
 10
-47.70663104310362
 20
9.5986985126986468
 30
0.0
 10
-47.6245509342529587
 20
9.9840532135751729
 30
0.0
 10
-47.4368291436625711
 20
10.2192782563638307
 30
0.0
  0
SPLINE
  5
121
  8
layer 2
 62
256
370
-1
 48
1.0
  6
ByLayer
100
AcDbEntity
100
AcDbSpline
 70
8
 71
2
 72
6
 73
3
 74
0
 40
0.0
 40
0.0
 40
0.0
 40
1.0
 40
1.0
 40
1.0
 10
-47.4368291436625711
 20
10.2192782563638307
 30
0.0
 10
-47.2491047706200717
 20
10.4579138760009194
 30
0.0
 10
-46.8943246873677424
 20
10.5839010264022608
 30
0.0
  0
SPLINE
  5
122
  8
layer 2
 62
256
370
-1
 48
1.0
  6
ByLayer
100
AcDbEntity
100
AcDbSpline
 70
8
 71
2
 72
6
 73
3
 74
0
 40
0.0
 40
0.0
 40
0.0
 40
1.0
 40
1.0
 40
1.0
 10
-46.8943246873677424
 20
10.5839010264022608
 30
0.0
 10
-46.53954202166328
 20
10.7132987536520297
 30
0.0
 10
-46.0722846012197422
 20
10.7130266111990107
 30
0.0
  0
SPLINE
  5
123
  8
layer 2
 62
256
370
-1
 48
1.0
  6
ByLayer
100
AcDbEntity
100
AcDbSpline
 70
8
 71
2
 72
6
 73
3
 74
0
 40
0.0
 40
0.0
 40
0.0
 40
1.0
 40
1.0
 40
1.0
 10
-46.0722846012197422
 20
10.7130266111990107
 30
0.0
 10
-45.6084377579717994
 20
10.7127564551517906
 30
0.0
 10
-45.3185963020835203
 20
10.6034470507675103
 30
0.0
  0
SPLINE
  5
124
  8
layer 2
 62
256
370
-1
 48
1.0
  6
ByLayer
100
AcDbEntity
100
AcDbSpline
 70
8
 71
2
 72
6
 73
3
 74
0
 40
0.0
 40
0.0
 40
0.0
 40
1.0
 40
1.0
 40
1.0
 10
-45.3185963020835203
 20
10.6034470507675103
 30
0.0
 10
-45.0287560382879235
 20
10.4941376470775296
 30
0.0
 10
-44.8924279018976975
 20
10.3269369266421904
 30
0.0
  0
SPLINE
  5
125
  8
layer 2
 62
256
370
-1
 48
1.0
  6
ByLayer
100
AcDbEntity
100
AcDbSpline
 70
8
 71
2
 72
6
 73
3
 74
0
 40
0.0
 40
0.0
 40
0.0
 40
1.0
 40
1.0
 40
1.0
 10
-44.8924279018976975
 20
10.3269369266421904
 30
0.0
 10
-44.7560977791016867
 20
10.1631467834024392
 30
0.0
 10
-44.7016731565910774
 20
9.9107275186774189
 30
0.0
  0
SPLINE
  5
126
  8
layer 2
 62
256
370
-1
 48
1.0
  6
ByLayer
100
AcDbEntity
100
AcDbSpline
 70
8
 71
2
 72
6
 73
3
 74
0
 40
0.0
 40
0.0
 40
0.0
 40
1.0
 40
1.0
 40
1.0
 10
-44.7016731565910774
 20
9.9107275186774189
 30
0.0
 10
-44.6710693382319519
 20
9.7538201097968429
 30
0.0
 10
-44.671307711263573
 20
9.3445433957477171
 30
0.0
  0
LINE
  5
127
100
AcDbEntity
100
AcDbLine
  8
layer 2
 62
256
370
-1
 48
1.0
  6
ByLayer
 10
-44.671307711263573
 20
9.3445433957477171
 30
0.0
 11
-44.6717844575003724
 21
8.5259896696262913
 31
0.0
  0
SPLINE
  5
128
  8
layer 2
 62
256
370
-1
 48
1.0
  6
ByLayer
100
AcDbEntity
100
AcDbSpline
 70
8
 71
2
 72
6
 73
3
 74
0
 40
0.0
 40
0.0
 40
0.0
 40
1.0
 40
1.0
 40
1.0
 10
-44.6717844575003724
 20
8.5259896696262913
 30
0.0
 10
-44.6722830545477834
 20
7.6699189983071214
 30
0.0
 10
-44.6348997970129275
 20
7.441384303415064
 30
0.0
  0
SPLINE
  5
129
  8
layer 2
 62
256
370
-1
 48
1.0
  6
ByLayer
100
AcDbEntity
100
AcDbSpline
 70
8
 71
2
 72
6
 73
3
 74
0
 40
0.0
 40
0.0
 40
0.0
 40
1.0
 40
1.0
 40
1.0
 10
-44.6348997970129275
 20
7.441384303415064
 30
0.0
 10
-44.5941027841312021
 20
7.2162576025721501
 30
0.0
 10
-44.4782619481308217
 20
7.0081412781782104
 30
0.0
  0
LINE
  5
12A
100
AcDbEntity
100
AcDbLine
  8
layer 2
 62
256
370
-1
 48
1.0
  6
ByLayer
 10
-44.4782619481308217
 20
7.0081412781782104
 30
0.0
 11
-45.1194623818270912
 21
7.0085147294092964
 31
0.0
  0
SPLINE
  5
12B
  8
layer 2
 62
256
370
-1
 48
1.0
  6
ByLayer
100
AcDbEntity
100
AcDbSpline
 70
8
 71
2
 72
6
 73
3
 74
0
 40
0.0
 40
0.0
 40
0.0
 40
1.0
 40
1.0
 40
1.0
 10
-45.1194623818270983
 20
7.0085147294092938
 30
0.0
 10
-45.2148484945901288
 20
7.1995662486962972
 30
0.0
 10
-45.2419853210376317
 20
7.4553801986762958
 30
0.0
  0
SPLINE
  5
12C
  8
layer 2
 62
256
370
-1
 48
1.0
  6
ByLayer
100
AcDbEntity
100
AcDbSpline
 70
8
 71
2
 72
6
 73
3
 74
0
 40
0.0
 40
0.0
 40
0.0
 40
1.0
 40
1.0
 40
1.0
 10
-45.2923466210175931
 20
8.8264876580741252
 30
0.0
 10
-45.6266686044409724
 20
8.6902565592809928
 30
0.0
 10
-46.2952098721512328
 20
8.5951479524902048
 30
0.0
  0
SPLINE
  5
12D
  8
layer 2
 62
256
370
-1
 48
1.0
  6
ByLayer
100
AcDbEntity
100
AcDbSpline
 70
8
 71
2
 72
6
 73
3
 74
0
 40
0.0
 40
0.0
 40
0.0
 40
1.0
 40
1.0
 40
1.0
 10
-46.2952098721512328
 20
8.5951479524902048
 30
0.0
 10
-46.6738228764299521
 20
8.5407983184996112
 30
0.0
 10
-46.8307521364681207
 20
8.4726769588972708
 30
0.0
  0
SPLINE
  5
12E
  8
layer 2
 62
256
370
-1
 48
1.0
  6
ByLayer
100
AcDbEntity
100
AcDbSpline
 70
8
 71
2
 72
6
 73
3
 74
0
 40
0.0
 40
0.0
 40
0.0
 40
1.0
 40
1.0
 40
1.0
 10
-46.8307521364681207
 20
8.4726769588972708
 30
0.0
 10
-46.9876808006335125
 20
8.4045553009246028
 30
0.0
 10
-47.0730244897020924
 20
8.2715903653208507
 30
0.0
  0
SPLINE
  5
12F
  8
layer 2
 62
256
370
-1
 48
1.0
  6
ByLayer
100
AcDbEntity
100
AcDbSpline
 70
8
 71
2
 72
6
 73
3
 74
0
 40
0.0
 40
0.0
 40
0.0
 40
1.0
 40
1.0
 40
1.0
 10
-47.0730244897020924
 20
8.2715903653208507
 30
0.0
 10
-47.1583661928856301
 20
8.142035112843157
 30
0.0
 10
-47.1584595556925095
 20
7.9817350044190896
 30
0.0
  0
SPLINE
  5
130
  8
layer 2
 62
256
370
-1
 48
1.0
  6
ByLayer
100
AcDbEntity
100
AcDbSpline
 70
8
 71
2
 72
6
 73
3
 74
0
 40
0.0
 40
0.0
 40
0.0
 40
1.0
 40
1.0
 40
1.0
 10
-47.1584595556925095
 20
7.9817350044190896
 30
0.0
 10
-47.1586025793379022
 20
7.7361692740127861
 30
0.0
 10
-46.9745231837110566
 20
7.5723513203977006
 30
0.0
  0
SPLINE
  5
131
  8
layer 2
 62
256
370
-1
 48
1.0
  6
ByLayer
100
AcDbEntity
100
AcDbSpline
 70
8
 71
2
 72
6
 73
3
 74
0
 40
0.0
 40
0.0
 40
0.0
 40
1.0
 40
1.0
 40
1.0
 10
-46.9745231837110566
 20
7.5723513203977006
 30
0.0
 10
-46.7870332112357872
 20
7.4085307843304804
 30
0.0
 10
-46.4289160491899082
 20
7.4083222079041242
 30
0.0
  0
SPLINE
  5
132
  8
layer 2
 62
256
370
-1
 48
1.0
  6
ByLayer
100
AcDbEntity
100
AcDbSpline
 70
8
 71
2
 72
6
 73
3
 74
0
 40
0.0
 40
0.0
 40
0.0
 40
1.0
 40
1.0
 40
1.0
 10
-46.4289160491899082
 20
7.4083222079041242
 30
0.0
 10
-46.0742094643396101
 20
7.4081156178835554
 30
0.0
 10
-45.7978585531313911
 20
7.5614336702704588
 30
0.0
  0
SPLINE
  5
133
  8
layer 2
 62
256
370
-1
 48
1.0
  6
ByLayer
100
AcDbEntity
100
AcDbSpline
 70
8
 71
2
 72
6
 73
3
 74
0
 40
0.0
 40
0.0
 40
0.0
 40
1.0
 40
1.0
 40
1.0
 10
-45.7978585531313911
 20
7.5614336702704588
 30
0.0
 10
-45.5215050594710533
 20
7.7181622995057939
 30
0.0
 10
-45.3917432166271411
 20
7.9875277772181761
 30
0.0
  0
SPLINE
  5
134
  8
layer 2
 62
256
370
-1
 48
1.0
  6
ByLayer
100
AcDbEntity
100
AcDbSpline
 70
8
 71
2
 72
6
 73
3
 74
0
 40
0.0
 40
0.0
 40
0.0
 40
1.0
 40
1.0
 40
1.0
 10
-45.3917432166271411
 20
7.9875277772181761
 30
0.0
 10
-45.2927141130277917
 20
8.1955189559645945
 30
0.0
 10
-45.2924777262283698
 20
8.6013853908413118
 30
0.0
  0
LINE
  5
135
100
AcDbEntity
100
AcDbLine
  8
layer 2
 62
256
370
-1
 48
1.0
  6
ByLayer
 10
-45.2924777262283698
 20
8.6013853908413118
 30
0.0
 11
-45.2923466210175931
 21
8.8264876580741252
 31
0.0
  0
LWPOLYLINE
  5
136
  8
layer 2
 62
256
370
-1
 48
1.0
  6
ByLayer
100
AcDbEntity
100
AcDbPolyline
 90
12
 70
1
 10
-43.7147768033915369
 20
12.0076974533086709
 30
0.0
 10
-43.7176889284038026
 20
7.0076983013559557
 30
0.0
 10
-43.1037743043648831
 20
7.0073407420654741
 30
0.0
 10
-43.1029380119145173
 20
8.4432205634909323
 30
0.0
 10
-42.6695440174100824
 20
8.8590664515592579
 30
0.0
 10
-41.4734886025595415
 20
7.0063912227414633
 30
0.0
 10
-40.7163261600281032
 20
7.0059502323249951
 30
0.0
 10
-42.2395546408839095
 20
9.2851460576201141
 30
0.0
 10
-40.8540526070780601
 20
10.6281320112957296
 30
0.0
 10
-41.6487313987608871
 20
10.6285948521758602
 30
0.0
 10
-43.1025228454715688
 20
9.1560443103871147
 30
0.0
 10
-43.1008621793526174
 20
12.0073398940181892
 30
0.0
  0
LINE
  5
137
100
AcDbEntity
100
AcDbLine
  8
layer 2
 62
256
370
-1
 48
1.0
  6
ByLayer
 10
-37.7483886082452429
 20
8.170660885214998
 30
0.0
 11
-37.1140550169671073
 21
8.0918469392044159
 31
0.0
  0
SPLINE
  5
138
  8
layer 2
 62
256
370
-1
 48
1.0
  6
ByLayer
100
AcDbEntity
100
AcDbSpline
 70
8
 71
2
 72
6
 73
3
 74
0
 40
0.0
 40
0.0
 40
0.0
 40
1.0
 40
1.0
 40
1.0
 10
-37.1140550169671073
 20
8.0918469392044159
 30
0.0
 10
-37.2644465877999309
 20
7.5360001267799781
 30
0.0
 10
-37.6704923987136766
 20
7.2292786058630041
 30
0.0
  0
SPLINE
  5
139
  8
layer 2
 62
256
370
-1
 48
1.0
  6
ByLayer
100
AcDbEntity
100
AcDbSpline
 70
8
 71
2
 72
6
 73
3
 74
0
 40
0.0
 40
0.0
 40
0.0
 40
1.0
 40
1.0
 40
1.0
 10
-37.6704923987136766
 20
7.2292786058630041
 30
0.0
 10
-38.0765370175347329
 20
6.922557084251725
 30
0.0
 10
-38.70750571964426
 20
6.9229245762654479
 30
0.0
  0
SPLINE
  5
13A
  8
layer 2
 62
256
370
-1
 48
1.0
  6
ByLayer
100
AcDbEntity
100
AcDbSpline
 70
8
 71
2
 72
6
 73
3
 74
0
 40
0.0
 40
0.0
 40
0.0
 40
1.0
 40
1.0
 40
1.0
 10
-38.70750571964426
 20
6.9229245762654479
 30
0.0
 10
-39.5021845113270871
 20
6.9233874171455767
 30
0.0
 10
-39.9691590622839925
 20
7.411381636002611
 30
0.0
  0
SPLINE
  5
13B
  8
layer 2
 62
256
370
-1
 48
1.0
  6
ByLayer
100
AcDbEntity
100
AcDbSpline
 70
8
 71
2
 72
6
 73
3
 74
0
 40
0.0
 40
0.0
 40
0.0
 40
1.0
 40
1.0
 40
1.0
 10
-39.9691590622839925
 20
7.411381636002611
 30
0.0
 10
-40.432719857894007
 20
7.9027838489087863
 30
0.0
 10
-40.4322053692533032
 20
8.7861397338389562
 30
0.0
  0
SPLINE
  5
13C
  8
layer 2
 62
256
370
-1
 48
1.0
  6
ByLayer
100
AcDbEntity
100
AcDbSpline
 70
8
 71
2
 72
6
 73
3
 74
0
 40
0.0
 40
0.0
 40
0.0
 40
1.0
 40
1.0
 40
1.0
 10
-40.4322053692533032
 20
8.7861397338389562
 30
0.0
 10
-40.4316730026135218
 20
9.7001914095757069
 30
0.0
 10
-39.9607098194471178
 20
10.2046919436870507
 30
0.0
  0
SPLINE
  5
13D
  8
layer 2
 62
256
370
-1
 48
1.0
  6
ByLayer
100
AcDbEntity
100
AcDbSpline
 70
8
 71
2
 72
6
 73
3
 74
0
 40
0.0
 40
0.0
 40
0.0
 40
1.0
 40
1.0
 40
1.0
 10
-39.9607098194471178
 20
10.2046919436870507
 30
0.0
 10
-39.4897478281998531
 20
10.7091927765158808
 30
0.0
 10
-38.7394065400595835
 20
10.7087557589109892
 30
0.0
  0
SPLINE
  5
13E
  8
layer 2
 62
256
370
-1
 48
1.0
  6
ByLayer
100
AcDbEntity
100
AcDbSpline
 70
8
 71
2
 72
6
 73
3
 74
0
 40
0.0
 40
0.0
 40
0.0
 40
1.0
 40
1.0
 40
1.0
 10
-38.7394065400595835
 20
10.7087557589109892
 30
0.0
 10
-38.012940484381069
 20
10.7083326468409208
 30
0.0
 10
-37.5527922525459772
 20
10.21352154512177
 30
0.0
  0
SPLINE
  5
13F
  8
layer 2
 62
256
370
-1
 48
1.0
  6
ByLayer
100
AcDbEntity
100
AcDbSpline
 70
8
 71
2
 72
6
 73
3
 74
0
 40
0.0
 40
0.0
 40
0.0
 40
1.0
 40
1.0
 40
1.0
 10
-37.5527922525459772
 20
10.21352154512177
 30
0.0
 10
-37.0926440207108925
 20
9.7187104434026281
 30
0.0
 10
-37.0931664549746785
 20
8.8217122496901297
 30
0.0
  0
SPLINE
  5
140
  8
layer 2
 62
256
370
-1
 48
1.0
  6
ByLayer
100
AcDbEntity
100
AcDbSpline
 70
8
 71
2
 72
6
 73
3
 74
0
 40
0.0
 40
0.0
 40
0.0
 40
1.0
 40
1.0
 40
1.0
 10
-37.0931664549746785
 20
8.8217122496901297
 30
0.0
 10
-37.0931982381612784
 20
8.7671418224681315
 30
0.0
 10
-37.0966723813829091
 20
8.658003550476268
 30
0.0
  0
LINE
  5
141
100
AcDbEntity
100
AcDbLine
  8
layer 2
 62
256
370
-1
 48
1.0
  6
ByLayer
 10
-37.096672381382902
 20
8.658003550476268
 30
0.0
 11
-39.7978995881766622
 21
8.6595768130207134
 31
0.0
  0
SPLINE
  5
142
  8
layer 2
 62
256
370
-1
 48
1.0
  6
ByLayer
100
AcDbEntity
100
AcDbSpline
 70
8
 71
2
 72
6
 73
3
 74
0
 40
0.0
 40
0.0
 40
0.0
 40
1.0
 40
1.0
 40
1.0
 10
-39.7978995881766622
 20
8.6595768130207134
 30
0.0
 10
-39.7641402517335081
 20
8.0626946141611651
 30
0.0
 10
-39.460778852163962
 20
7.7453281816163084
 30
0.0
  0
SPLINE
  5
143
  8
layer 2
 62
256
370
-1
 48
1.0
  6
ByLayer
100
AcDbEntity
100
AcDbSpline
 70
8
 71
2
 72
6
 73
3
 74
0
 40
0.0
 40
0.0
 40
0.0
 40
1.0
 40
1.0
 40
1.0
 10
-39.460778852163962
 20
7.7453281816163084
 30
0.0
 10
-39.1574162605017193
 20
7.4279617483771467
 30
0.0
 10
-38.7038011488405118
 20
7.4276975515472854
 30
0.0
  0
SPLINE
  5
144
  8
layer 2
 62
256
370
-1
 48
1.0
  6
ByLayer
100
AcDbEntity
100
AcDbSpline
 70
8
 71
2
 72
6
 73
3
 74
0
 40
0.0
 40
0.0
 40
0.0
 40
1.0
 40
1.0
 40
1.0
 10
-38.7038011488405118
 20
7.4276975515472854
 30
0.0
 10
-38.366148046014473
 20
7.4275008939028053
 30
0.0
 10
-38.1272995787701134
 20
7.6047154331687903
 30
0.0
  0
SPLINE
  5
145
  8
layer 2
 62
256
370
-1
 48
1.0
  6
ByLayer
100
AcDbEntity
100
AcDbSpline
 70
8
 71
2
 72
6
 73
3
 74
0
 40
0.0
 40
0.0
 40
0.0
 40
1.0
 40
1.0
 40
1.0
 10
-38.1272995787701134
 20
7.6047154331687903
 30
0.0
 10
-37.8884511118729108
 20
7.7819293763884279
 30
0.0
 10
-37.7483886082452429
 20
8.170660885214998
 30
0.0
  0
LINE
  5
146
100
AcDbEntity
100
AcDbLine
  8
layer 2
 62
256
370
-1
 48
1.0
  6
ByLayer
 10
-39.7634986306935474
 20
9.164331611932985
 30
0.0
 11
-37.7409893988401706
 21
9.1631536517775913
 31
0.0
  0
SPLINE
  5
147
  8
layer 2
 62
256
370
-1
 48
1.0
  6
ByLayer
100
AcDbEntity
100
AcDbSpline
 70
8
 71
2
 72
6
 73
3
 74
0
 40
0.0
 40
0.0
 40
0.0
 40
1.0
 40
1.0
 40
1.0
 10
-37.7409893988401706
 20
9.1631536517775913
 30
0.0
 10
-37.7816513340467424
 20
9.6202031781981354
 30
0.0
 10
-37.9725129495681486
 20
9.848827262739233
 30
0.0
  0
SPLINE
  5
148
  8
layer 2
 62
256
370
-1
 48
1.0
  6
ByLayer
100
AcDbEntity
100
AcDbSpline
 70
8
 71
2
 72
6
 73
3
 74
0
 40
0.0
 40
0.0
 40
0.0
 40
1.0
 40
1.0
 40
1.0
 10
-37.9725129495681486
 20
9.848827262739233
 30
0.0
 10
-38.2656219588330373
 20
10.2037046819587793
 30
0.0
 10
-38.7328793792765822
 20
10.2039768244117894
 30
0.0
  0
SPLINE
  5
149
  8
layer 2
 62
256
370
-1
 48
1.0
  6
ByLayer
100
AcDbEntity
100
AcDbSpline
 70
8
 71
2
 72
6
 73
3
 74
0
 40
0.0
 40
0.0
 40
0.0
 40
1.0
 40
1.0
 40
1.0
 10
-38.7328793792765822
 20
10.2039768244117894
 30
0.0
 10
-39.1557992961775483
 20
10.2042231435895605
 30
0.0
 10
-39.4458680008023421
 20
9.9213090172314935
 30
0.0
  0
SPLINE
  5
14A
  8
layer 2
 62
256
370
-1
 48
1.0
  6
ByLayer
100
AcDbEntity
100
AcDbSpline
 70
8
 71
2
 72
6
 73
3
 74
0
 40
0.0
 40
0.0
 40
0.0
 40
1.0
 40
1.0
 40
1.0
 10
-39.4458680008023421
 20
9.9213090172314935
 30
0.0
 10
-39.7325273204978018
 20
9.6383926071387691
 30
0.0
 10
-39.7634986306935474
 20
9.164331611932985
 30
0.0
  0
LINE
  5
14B
100
AcDbEntity
100
AcDbLine
  8
layer 2
 62
256
370
-1
 48
1.0
  6
ByLayer
 10
-36.3507050952878217
 20
7.0034075850100557
 30
0.0
 11
-36.3485954931335371
 21
10.6255079199549005
 31
0.0
  0
LINE
  5
14C
100
AcDbEntity
100
AcDbLine
  8
layer 2
 62
256
370
-1
 48
1.0
  6
ByLayer
 10
-36.3485954931335371
 20
10.6255079199549005
 30
0.0
 11
-35.7960712586150933
 21
10.6251861159685905
 31
0.0
  0
LINE
  5
14D
100
AcDbEntity
100
AcDbLine
  8
layer 2
 62
256
370
-1
 48
1.0
  6
ByLayer
 10
-35.7960712586150933
 20
10.6251861159685905
 30
0.0
 11
-35.796391075845392
 21
10.0760730546920598
 31
0.0
  0
SPLINE
  5
14E
  8
layer 2
 62
256
370
-1
 48
1.0
  6
ByLayer
100
AcDbEntity
100
AcDbSpline
 70
8
 71
2
 72
6
 73
3
 74
0
 40
0.0
 40
0.0
 40
0.0
 40
1.0
 40
1.0
 40
1.0
 10
-35.796391075845392
 20
10.0760730546920598
 30
0.0
 10
-35.5847072454235871
 20
10.4613522711072093
 30
0.0
 10
-35.4072821429789926
 20
10.5840321391496701
 30
0.0
  0
SPLINE
  5
14F
  8
layer 2
 62
256
370
-1
 48
1.0
  6
ByLayer
100
AcDbEntity
100
AcDbSpline
 70
8
 71
2
 72
6
 73
3
 74
0
 40
0.0
 40
0.0
 40
0.0
 40
1.0
 40
1.0
 40
1.0
 10
-35.4072821429789926
 20
10.5840321391496701
 30
0.0
 10
-35.2264464635124028
 20
10.7067097227631702
 30
0.0
 10
-35.0115765239126731
 20
10.7065845771156507
 30
0.0
  0
SPLINE
  5
150
  8
layer 2
 62
256
370
-1
 48
1.0
  6
ByLayer
100
AcDbEntity
100
AcDbSpline
 70
8
 71
2
 72
6
 73
3
 74
0
 40
0.0
 40
0.0
 40
0.0
 40
1.0
 40
1.0
 40
1.0
 10
-35.0115765239126731
 20
10.7065845771156507
 30
0.0
 10
-34.7012080386512807
 20
10.7064038107174699
 30
0.0
 10
-34.3807242275133191
 20
10.5084000321744195
 30
0.0
  0
LINE
  5
151
100
AcDbEntity
100
AcDbLine
  8
layer 2
 62
256
370
-1
 48
1.0
  6
ByLayer
 10
-34.3807242275133191
 20
10.5084000321744195
 30
0.0
 11
-34.5925141338368434
 21
9.9389460702254802
 31
0.0
  0
SPLINE
  5
152
  8
layer 2
 62
256
370
-1
 48
1.0
  6
ByLayer
100
AcDbEntity
100
AcDbSpline
 70
8
 71
2
 72
6
 73
3
 74
0
 40
0.0
 40
0.0
 40
0.0
 40
1.0
 40
1.0
 40
1.0
 10
-34.5925141338368434
 20
9.9389460702254802
 30
0.0
 10
-34.81753952572884
 20
10.0720923686209094
 30
0.0
 10
-35.0426423890080017
 20
10.0722234741801007
 30
0.0
  0
SPLINE
  5
153
  8
layer 2
 62
256
370
-1
 48
1.0
  6
ByLayer
100
AcDbEntity
100
AcDbSpline
 70
8
 71
2
 72
6
 73
3
 74
0
 40
0.0
 40
0.0
 40
0.0
 40
1.0
 40
1.0
 40
1.0
 10
-35.0426423890080017
 20
10.0722234741801007
 30
0.0
 10
-35.243867635640008
 20
10.0723406728158693
 30
0.0
 10
-35.4042422362920775
 20
9.9496508741330736
 30
0.0
  0
SPLINE
  5
154
  8
layer 2
 62
256
370
-1
 48
1.0
  6
ByLayer
100
AcDbEntity
100
AcDbSpline
 70
8
 71
2
 72
6
 73
3
 74
0
 40
0.0
 40
0.0
 40
0.0
 40
1.0
 40
1.0
 40
1.0
 10
-35.4042422362920775
 20
9.9496508741330736
 30
0.0
 10
-35.5646100821676114
 20
9.8303716498686455
 30
0.0
 10
-35.6329479639918389
 20
9.6155411410558038
 30
0.0
  0
SPLINE
  5
155
  8
layer 2
 62
256
370
-1
 48
1.0
  6
ByLayer
100
AcDbEntity
100
AcDbSpline
 70
8
 71
2
 72
6
 73
3
 74
0
 40
0.0
 40
0.0
 40
0.0
 40
1.0
 40
1.0
 40
1.0
 10
-35.6329479639918389
 20
9.6155411410558038
 30
0.0
 10
-35.7354583626435414
 20
9.2881790653555623
 30
0.0
 10
-35.7356848170669679
 20
8.8993661125030972
 30
0.0
  0
LINE
  5
156
100
AcDbEntity
100
AcDbLine
  8
layer 2
 62
256
370
-1
 48
1.0
  6
ByLayer
 10
-35.7356848170669679
 20
8.8993661125030972
 30
0.0
 11
-35.7367892791561985
 21
7.003050025025269
 31
0.0
  0
LINE
  5
157
100
AcDbEntity
100
AcDbLine
  8
layer 2
 62
256
370
-1
 48
1.0
  6
ByLayer
 10
-35.7367892791561985
 20
7.003050025025269
 30
0.0
 11
-36.3507050952878217
 21
7.0034075850100557
 31
0.0
  0
LINE
  5
158
100
AcDbEntity
100
AcDbLine
  8
layer 2
 62
256
370
-1
 48
1.0
  6
ByLayer
 10
-34.0178285702657419
 20
7.0020488591507846
 30
0.0
 11
-34.0149164452534833
 21
12.0020480111035095
 31
0.0
  0
LINE
  5
159
100
AcDbEntity
100
AcDbLine
  8
layer 2
 62
256
370
-1
 48
1.0
  6
ByLayer
 10
-34.0149164452534833
 20
12.0020480111035095
 30
0.0
 11
-33.4010006291218531
 21
12.0016904511187192
 31
0.0
  0
LINE
  5
15A
100
AcDbEntity
100
AcDbLine
  8
layer 2
 62
256
370
-1
 48
1.0
  6
ByLayer
 10
-33.4010006291218531
 20
12.0016904511187192
 30
0.0
 11
-33.4020454979965677
 21
10.2076934676473794
 31
0.0
  0
SPLINE
  5
15B
  8
layer 2
 62
256
370
-1
 48
1.0
  6
ByLayer
100
AcDbEntity
100
AcDbSpline
 70
8
 71
2
 72
6
 73
3
 74
0
 40
0.0
 40
0.0
 40
0.0
 40
1.0
 40
1.0
 40
1.0
 10
-33.4020454979965677
 20
10.2076934676473794
 30
0.0
 10
-32.9720132139886886
 20
10.7053966842370105
 30
0.0
 10
-32.3171704715100887
 20
10.7050152873827802
 30
0.0
  0
SPLINE
  5
15C
  8
layer 2
 62
256
370
-1
 48
1.0
  6
ByLayer
100
AcDbEntity
100
AcDbSpline
 70
8
 71
2
 72
6
 73
3
 74
0
 40
0.0
 40
0.0
 40
0.0
 40
1.0
 40
1.0
 40
1.0
 10
-32.3171704715100887
 20
10.7050152873827802
 30
0.0
 10
-31.9147152098753004
 20
10.7047808873340298
 30
0.0
 10
-31.6180823962031106
 20
10.5443079581349295
 30
0.0
  0
SPLINE
  5
15D
  8
layer 2
 62
256
370
-1
 48
1.0
  6
ByLayer
100
AcDbEntity
100
AcDbSpline
 70
8
 71
2
 72
6
 73
3
 74
0
 40
0.0
 40
0.0
 40
0.0
 40
1.0
 40
1.0
 40
1.0
 10
-31.6180823962031106
 20
10.5443079581349295
 30
0.0
 10
-31.3214475961251608
 20
10.3872456061314207
 30
0.0
 10
-31.1954179360197514
 20
10.1074997119913395
 30
0.0
  0
SPLINE
  5
15E
  8
layer 2
 62
256
370
-1
 48
1.0
  6
ByLayer
100
AcDbEntity
100
AcDbSpline
 70
8
 71
2
 72
6
 73
3
 74
0
 40
0.0
 40
0.0
 40
0.0
 40
1.0
 40
1.0
 40
1.0
 10
-31.1954179360197514
 20
10.1074997119913395
 30
0.0
 10
-31.0659765067996503
 20
9.8277515327279943
 30
0.0
 10
-31.0662863916539607
 20
9.2956919534757159
 30
0.0
  0
LINE
  5
15F
100
AcDbEntity
100
AcDbLine
  8
layer 2
 62
256
370
-1
 48
1.0
  6
ByLayer
 10
-31.0662863916539607
 20
9.2956919534757176
 30
0.0
 11
-31.0676232677310793
 21
7.0003305855123337
 31
0.0
  0
LINE
  5
160
100
AcDbEntity
100
AcDbLine
  8
layer 2
 62
256
370
-1
 48
1.0
  6
ByLayer
 10
-31.0676232677310793
 20
7.0003305855123337
 30
0.0
 11
-31.6815390838626882
 21
7.0006881454971186
 31
0.0
  0
LINE
  5
161
100
AcDbEntity
100
AcDbLine
  8
layer 2
 62
256
370
-1
 48
1.0
  6
ByLayer
 10
-31.6815390838626882
 20
7.0006881454971186
 30
0.0
 11
-31.6802022077855803
 21
9.2960495134605026
 31
0.0
  0
SPLINE
  5
162
  8
layer 2
 62
256
370
-1
 48
1.0
  6
ByLayer
100
AcDbEntity
100
AcDbSpline
 70
8
 71
2
 72
6
 73
3
 74
0
 40
0.0
 40
0.0
 40
0.0
 40
1.0
 40
1.0
 40
1.0
 10
-31.6802022077855803
 20
9.2960495134605008
 30
0.0
 10
-31.6799340381467083
 20
9.7564857795128717
 30
0.0
 10
-31.881040495955741
 20
9.9646520627689767
 30
0.0
  0
SPLINE
  5
163
  8
layer 2
 62
256
370
-1
 48
1.0
  6
ByLayer
100
AcDbEntity
100
AcDbSpline
 70
8
 71
2
 72
6
 73
3
 74
0
 40
0.0
 40
0.0
 40
0.0
 40
1.0
 40
1.0
 40
1.0
 10
-31.881040495955741
 20
9.9646520627689767
 30
0.0
 10
-32.0787331980707222
 20
10.1762269361205693
 30
0.0
 10
-32.4436733026468076
 20
10.1764394863999605
 30
0.0
  0
SPLINE
  5
164
  8
layer 2
 62
256
370
-1
 48
1.0
  6
ByLayer
100
AcDbEntity
100
AcDbSpline
 70
8
 71
2
 72
6
 73
3
 74
0
 40
0.0
 40
0.0
 40
0.0
 40
1.0
 40
1.0
 40
1.0
 10
-32.4436733026468076
 20
10.1764394863999605
 30
0.0
 10
-32.7165242466641075
 20
10.1765984016401703
 30
0.0
 10
-32.9587622344329532
 20
10.0334925141110105
 30
0.0
  0
SPLINE
  5
165
  8
layer 2
 62
256
370
-1
 48
1.0
  6
ByLayer
100
AcDbEntity
100
AcDbSpline
 70
8
 71
2
 72
6
 73
3
 74
0
 40
0.0
 40
0.0
 40
0.0
 40
1.0
 40
1.0
 40
1.0
 10
-32.9587622344329532
 20
10.0334925141110105
 30
0.0
 10
-33.1975888505195371
 20
9.8937955160891136
 30
0.0
 10
-33.3000495881591476
 20
9.6516993603942787
 30
0.0
  0
SPLINE
  5
166
  8
layer 2
 62
256
370
-1
 48
1.0
  6
ByLayer
100
AcDbEntity
100
AcDbSpline
 70
8
 71
2
 72
6
 73
3
 74
0
 40
0.0
 40
0.0
 40
0.0
 40
1.0
 40
1.0
 40
1.0
 10
-33.3000495881591476
 20
9.6516993603942787
 30
0.0
 10
-33.4025103256251867
 20
9.4096035027226161
 30
0.0
 10
-33.4027586308592177
 20
8.9832736046724087
 30
0.0
  0
LINE
  5
167
100
AcDbEntity
100
AcDbLine
  8
layer 2
 62
256
370
-1
 48
1.0
  6
ByLayer
 10
-33.4027586308592177
 20
8.9832736046724087
 30
0.0
 11
-33.4039127541341188
 21
7.0016912991659996
 31
0.0
  0
LINE
  5
168
100
AcDbEntity
100
AcDbLine
  8
layer 2
 62
256
370
-1
 48
1.0
  6
ByLayer
 10
-33.4039127541341188
 20
7.0016912991659996
 30
0.0
 11
-34.0178285702657419
 21
7.0020488591507846
 31
0.0
  0
SPLINE
  5
169
  8
layer 2
 62
256
370
-1
 48
1.0
  6
ByLayer
100
AcDbEntity
100
AcDbSpline
 70
8
 71
2
 72
6
 73
3
 74
0
 40
0.0
 40
0.0
 40
0.0
 40
1.0
 40
1.0
 40
1.0
 10
-27.7692740988605102
 20
7.4452036529763888
 30
0.0
 10
-28.1105078185895216
 20
7.1554978716794029
 30
0.0
 10
-28.4277669838325693
 20
7.0363100248584152
 30
0.0
  0
SPLINE
  5
16A
  8
layer 2
 62
256
370
-1
 48
1.0
  6
ByLayer
100
AcDbEntity
100
AcDbSpline
 70
8
 71
2
 72
6
 73
3
 74
0
 40
0.0
 40
0.0
 40
0.0
 40
1.0
 40
1.0
 40
1.0
 10
-28.4277669838325693
 20
7.0363100248584152
 30
0.0
 10
-28.7416143797873609
 20
6.917120190937335
 30
0.0
 10
-29.1031427150751689
 20
6.9173307541166302
 30
0.0
  0
SPLINE
  5
16B
  8
layer 2
 62
256
370
-1
 48
1.0
  6
ByLayer
100
AcDbEntity
100
AcDbSpline
 70
8
 71
2
 72
6
 73
3
 74
0
 40
0.0
 40
0.0
 40
0.0
 40
1.0
 40
1.0
 40
1.0
 10
-29.1031427150751689
 20
6.9173307541166302
 30
0.0
 10
-29.7000044531361915
 20
6.9176783813781739
 30
0.0
 10
-30.0204370144623311
 20
7.2077695337295786
 30
0.0
  0
SPLINE
  5
16C
  8
layer 2
 62
256
370
-1
 48
1.0
  6
ByLayer
100
AcDbEntity
100
AcDbSpline
 70
8
 71
2
 72
6
 73
3
 74
0
 40
0.0
 40
0.0
 40
0.0
 40
1.0
 40
1.0
 40
1.0
 10
-30.0204370144623311
 20
7.2077695337295786
 30
0.0
 10
-30.3408652048501715
 20
7.5012718579343014
 30
0.0
 10
-30.3406010080228405
 20
7.954886969595508
 30
0.0
  0
SPLINE
  5
16D
  8
layer 2
 62
256
370
-1
 48
1.0
  6
ByLayer
100
AcDbEntity
100
AcDbSpline
 70
8
 71
2
 72
6
 73
3
 74
0
 40
0.0
 40
0.0
 40
0.0
 40
1.0
 40
1.0
 40
1.0
 10
-30.3406010080228405
 20
7.954886969595508
 30
0.0
 10
-30.3404460655956782
 20
8.2209167592216463
 30
0.0
 10
-30.2209475392583897
 20
8.4391283471664309
 30
0.0
  0
SPLINE
  5
16E
  8
layer 2
 62
256
370
-1
 48
1.0
  6
ByLayer
100
AcDbEntity
100
AcDbSpline
 70
8
 71
2
 72
6
 73
3
 74
0
 40
0.0
 40
0.0
 40
0.0
 40
1.0
 40
1.0
 40
1.0
 10
-30.2209475392583897
 20
8.4391283471664309
 30
0.0
 10
-30.0980352572270498
 20
8.6607485252067065
 30
0.0
 10
-29.9035513095872396
 20
8.793650192806977
 30
0.0
  0
SPLINE
  5
16F
  8
layer 2
 62
256
370
-1
 48
1.0
  6
ByLayer
100
AcDbEntity
100
AcDbSpline
 70
8
 71
2
 72
6
 73
3
 74
0
 40
0.0
 40
0.0
 40
0.0
 40
1.0
 40
1.0
 40
1.0
 10
-29.9035513095872396
 20
8.793650192806977
 30
0.0
 10
-29.7056555926591592
 20
8.926549873307156
 30
0.0
 10
-29.4600495373968307
 20
8.9946195853175688
 30
0.0
  0
SPLINE
  5
170
  8
layer 2
 62
256
370
-1
 48
1.0
  6
ByLayer
100
AcDbEntity
100
AcDbSpline
 70
8
 71
2
 72
6
 73
3
 74
0
 40
0.0
 40
0.0
 40
0.0
 40
1.0
 40
1.0
 40
1.0
 10
-29.4600495373968307
 20
8.9946195853175688
 30
0.0
 10
-29.2792575593778714
 20
9.0422635765587565
 30
0.0
 10
-28.9142940153650301
 20
9.0863891272568846
 30
0.0
  0
SPLINE
  5
171
  8
layer 2
 62
256
370
-1
 48
1.0
  6
ByLayer
100
AcDbEntity
100
AcDbSpline
 70
8
 71
2
 72
6
 73
3
 74
0
 40
0.0
 40
0.0
 40
0.0
 40
1.0
 40
1.0
 40
1.0
 10
-28.9142940153650301
 20
9.0863891272568846
 30
0.0
 10
-28.1707222340244812
 20
9.1746328776877295
 30
0.0
 10
-27.8193553104198408
 20
9.2972114376464248
 30
0.0
  0
SPLINE
  5
172
  8
layer 2
 62
256
370
-1
 48
1.0
  6
ByLayer
100
AcDbEntity
100
AcDbSpline
 70
8
 71
2
 72
6
 73
3
 74
0
 40
0.0
 40
0.0
 40
0.0
 40
1.0
 40
1.0
 40
1.0
 10
-27.8193553104198408
 20
9.2972114376464248
 30
0.0
 10
-27.8158700427295287
 20
9.423403190968239
 30
0.0
 10
-27.8158501783246912
 20
9.4575095589704024
 30
0.0
  0
SPLINE
  5
173
  8
layer 2
 62
256
370
-1
 48
1.0
  6
ByLayer
100
AcDbEntity
100
AcDbSpline
 70
8
 71
2
 72
6
 73
3
 74
0
 40
0.0
 40
0.0
 40
0.0
 40
1.0
 40
1.0
 40
1.0
 10
-27.8158501783246912
 20
9.4575095589704024
 30
0.0
 10
-27.8156316698714896
 20
9.8326796069941924
 30
0.0
 10
-27.9894852931288796
 20
9.9862598698051723
 30
0.0
  0
SPLINE
  5
174
  8
layer 2
 62
256
370
-1
 48
1.0
  6
ByLayer
100
AcDbEntity
100
AcDbSpline
 70
8
 71
2
 72
6
 73
3
 74
0
 40
0.0
 40
0.0
 40
0.0
 40
1.0
 40
1.0
 40
1.0
 10
-27.9894852931288796
 20
9.9862598698051723
 30
0.0
 10
-28.2246999070791205
 20
10.1944460185077599
 30
0.0
 10
-28.6885455582343809
 20
10.1947161738606802
 30
0.0
  0
SPLINE
  5
175
  8
layer 2
 62
256
370
-1
 48
1.0
  6
ByLayer
100
AcDbEntity
100
AcDbSpline
 70
8
 71
2
 72
6
 73
3
 74
0
 40
0.0
 40
0.0
 40
0.0
 40
1.0
 40
1.0
 40
1.0
 10
-28.6885455582343809
 20
10.1947161738606802
 30
0.0
 10
-29.1216972067221
 20
10.1949684522558197
 30
0.0
 10
-29.3298353819259887
 20
10.0416106710588604
 30
0.0
  0
SPLINE
  5
176
  8
layer 2
 62
256
370
-1
 48
1.0
  6
ByLayer
100
AcDbEntity
100
AcDbSpline
 70
8
 71
2
 72
6
 73
3
 74
0
 40
0.0
 40
0.0
 40
0.0
 40
1.0
 40
1.0
 40
1.0
 10
-29.3298353819259887
 20
10.0416106710588604
 30
0.0
 10
-29.5345621854476583
 20
9.8916617793691728
 30
0.0
 10
-29.6336945842298789
 20
9.5063170101744294
 30
0.0
  0
LINE
  5
177
100
AcDbEntity
100
AcDbLine
  8
layer 2
 62
256
370
-1
 48
1.0
  6
ByLayer
 10
-29.6336945842298789
 20
9.5063170101744312
 30
0.0
 11
-30.2339204169728504
 21
9.5885219673458906
 31
0.0
  0
SPLINE
  5
178
  8
layer 2
 62
256
370
-1
 48
1.0
  6
ByLayer
100
AcDbEntity
100
AcDbSpline
 70
8
 71
2
 72
6
 73
3
 74
0
 40
0.0
 40
0.0
 40
0.0
 40
1.0
 40
1.0
 40
1.0
 10
-30.2339204169728504
 20
9.5885219673458906
 30
0.0
 10
-30.1518397120758408
 20
9.9738766678752651
 30
0.0
 10
-29.9641173254391084
 20
10.2091017103167694
 30
0.0
  0
SPLINE
  5
179
  8
layer 2
 62
256
370
-1
 48
1.0
  6
ByLayer
100
AcDbEntity
100
AcDbSpline
 70
8
 71
2
 72
6
 73
3
 74
0
 40
0.0
 40
0.0
 40
0.0
 40
1.0
 40
1.0
 40
1.0
 10
-29.9641173254391084
 20
10.2091017103167694
 30
0.0
 10
-29.7763929523966091
 20
10.4477373299538598
 30
0.0
 10
-29.4216122730979208
 20
10.5737244800080497
 30
0.0
  0
SPLINE
  5
17A
  8
layer 2
 62
256
370
-1
 48
1.0
  6
ByLayer
100
AcDbEntity
100
AcDbSpline
 70
8
 71
2
 72
6
 73
3
 74
0
 40
0.0
 40
0.0
 40
0.0
 40
1.0
 40
1.0
 40
1.0
 10
-29.4216122730979208
 20
10.5737244800080497
 30
0.0
 10
-29.0668319915788587
 20
10.7031222086464197
 30
0.0
 10
-28.5995721869499384
 20
10.7028500648047995
 30
0.0
  0
SPLINE
  5
17B
  8
layer 2
 62
256
370
-1
 48
1.0
  6
ByLayer
100
AcDbEntity
100
AcDbSpline
 70
8
 71
2
 72
6
 73
3
 74
0
 40
0.0
 40
0.0
 40
0.0
 40
1.0
 40
1.0
 40
1.0
 10
-28.5995721869499384
 20
10.7028500648047995
 30
0.0
 10
-28.1357265357946815
 20
10.7025799094518792
 30
0.0
 10
-27.8458850799063988
 20
10.5932705050676006
 30
0.0
  0
SPLINE
  5
17C
  8
layer 2
 62
256
370
-1
 48
1.0
  6
ByLayer
100
AcDbEntity
100
AcDbSpline
 70
8
 71
2
 72
6
 73
3
 74
0
 40
0.0
 40
0.0
 40
0.0
 40
1.0
 40
1.0
 40
1.0
 10
-27.8458850799063988
 20
10.5932705050676006
 30
0.0
 10
-27.5560436240181197
 20
10.4839611006833202
 30
0.0
 10
-27.4197154876278795
 20
10.3167603802479793
 30
0.0
  0
SPLINE
  5
17D
  8
layer 2
 62
256
370
-1
 48
1.0
  6
ByLayer
100
AcDbEntity
100
AcDbSpline
 70
8
 71
2
 72
6
 73
3
 74
0
 40
0.0
 40
0.0
 40
0.0
 40
1.0
 40
1.0
 40
1.0
 10
-27.4197154876278795
 20
10.3167603802479793
 30
0.0
 10
-27.2833853648318794
 20
10.1529702370082298
 30
0.0
 10
-27.228963126506649
 20
9.9005509736718142
 30
0.0
  0
SPLINE
  5
17E
  8
layer 2
 62
256
370
-1
 48
1.0
  6
ByLayer
100
AcDbEntity
100
AcDbSpline
 70
8
 71
2
 72
6
 73
3
 74
0
 40
0.0
 40
0.0
 40
0.0
 40
1.0
 40
1.0
 40
1.0
 10
-27.228963126506649
 20
9.9005509736718142
 30
0.0
 10
-27.1983581160548304
 20
9.743643564096935
 30
0.0
 10
-27.1985964890864516
 20
9.3343668500478074
 30
0.0
  0
LINE
  5
17F
100
AcDbEntity
100
AcDbLine
  8
layer 2
 62
256
370
-1
 48
1.0
  6
ByLayer
 10
-27.1985964890864516
 20
9.3343668500478074
 30
0.0
 11
-27.1990732353232509
 21
8.5158131239263817
 31
0.0
  0
SPLINE
  5
180
  8
layer 2
 62
256
370
-1
 48
1.0
  6
ByLayer
100
AcDbEntity
100
AcDbSpline
 70
8
 71
2
 72
6
 73
3
 74
0
 40
0.0
 40
0.0
 40
0.0
 40
1.0
 40
1.0
 40
1.0
 10
-27.1990732353232509
 20
8.5158131239263835
 30
0.0
 10
-27.199571832370669
 20
7.6597424526072118
 30
0.0
 10
-27.1621873827431308
 20
7.431207757020851
 30
0.0
  0
SPLINE
  5
181
  8
layer 2
 62
256
370
-1
 48
1.0
  6
ByLayer
100
AcDbEntity
100
AcDbSpline
 70
8
 71
2
 72
6
 73
3
 74
0
 40
0.0
 40
0.0
 40
0.0
 40
1.0
 40
1.0
 40
1.0
 10
-27.1621873827431308
 20
7.431207757020851
 30
0.0
 10
-27.1213915619540806
 20
7.2060810568722422
 30
0.0
 10
-27.0055507259537109
 20
6.9979647324783034
 30
0.0
  0
LINE
  5
182
100
AcDbEntity
100
AcDbLine
  8
layer 2
 62
256
370
-1
 48
1.0
  6
ByLayer
 10
-27.0055507259537109
 20
6.9979647324783034
 30
0.0
 11
-27.6467511596499804
 21
6.9983381837093876
 31
0.0
  0
SPLINE
  5
183
  8
layer 2
 62
256
370
-1
 48
1.0
  6
ByLayer
100
AcDbEntity
100
AcDbSpline
 70
8
 71
2
 72
6
 73
3
 74
0
 40
0.0
 40
0.0
 40
0.0
 40
1.0
 40
1.0
 40
1.0
 10
-27.6467511596499804
 20
6.9983381837093876
 30
0.0
 10
-27.742138464505711
 20
7.1893897036906944
 30
0.0
 10
-27.7692740988605102
 20
7.4452036529763888
 30
0.0
  0
SPLINE
  5
184
  8
layer 2
 62
256
370
-1
 48
1.0
  6
ByLayer
100
AcDbEntity
100
AcDbSpline
 70
8
 71
2
 72
6
 73
3
 74
0
 40
0.0
 40
0.0
 40
0.0
 40
1.0
 40
1.0
 40
1.0
 10
-27.8196353988404717
 20
8.8163111123742173
 30
0.0
 10
-28.153958574356551
 20
8.68008001427539
 30
0.0
 10
-28.822499246020449
 20
8.5849714071374486
 30
0.0
  0
SPLINE
  5
185
  8
layer 2
 62
256
370
-1
 48
1.0
  6
ByLayer
100
AcDbEntity
100
AcDbSpline
 70
8
 71
2
 72
6
 73
3
 74
0
 40
0.0
 40
0.0
 40
0.0
 40
1.0
 40
1.0
 40
1.0
 10
-28.822499246020449
 20
8.5849714071374486
 30
0.0
 10
-29.2011110582065001
 20
8.5306217724525535
 30
0.0
 10
-29.3580397221983098
 20
8.4625004125030578
 30
0.0
  0
SPLINE
  5
186
  8
layer 2
 62
256
370
-1
 48
1.0
  6
ByLayer
100
AcDbEntity
100
AcDbSpline
 70
8
 71
2
 72
6
 73
3
 74
0
 40
0.0
 40
0.0
 40
0.0
 40
1.0
 40
1.0
 40
1.0
 10
-29.3580397221983098
 20
8.4625004125030578
 30
0.0
 10
-29.5149707705490805
 20
8.394378755919
 30
0.0
 10
-29.6003138635713192
 20
8.2614138199680944
 30
0.0
  0
SPLINE
  5
187
  8
layer 2
 62
256
370
-1
 48
1.0
  6
ByLayer
100
AcDbEntity
100
AcDbSpline
 70
8
 71
2
 72
6
 73
3
 74
0
 40
0.0
 40
0.0
 40
0.0
 40
1.0
 40
1.0
 40
1.0
 10
-29.6003138635713192
 20
8.2614138199680944
 30
0.0
 10
-29.6856549707085193
 20
8.1318585671432508
 30
0.0
 10
-29.6857483335153987
 20
7.9715584587191826
 30
0.0
  0
SPLINE
  5
188
  8
layer 2
 62
256
370
-1
 48
1.0
  6
ByLayer
100
AcDbEntity
100
AcDbSpline
 70
8
 71
2
 72
6
 73
3
 74
0
 40
0.0
 40
0.0
 40
0.0
 40
1.0
 40
1.0
 40
1.0
 10
-29.6857483335153987
 20
7.9715584587191826
 30
0.0
 10
-29.6858913571607808
 20
7.7259927283128791
 30
0.0
 10
-29.5018131536266388
 20
7.5621747753920978
 30
0.0
  0
SPLINE
  5
189
  8
layer 2
 62
256
370
-1
 48
1.0
  6
ByLayer
100
AcDbEntity
100
AcDbSpline
 70
8
 71
2
 72
6
 73
3
 74
0
 40
0.0
 40
0.0
 40
0.0
 40
1.0
 40
1.0
 40
1.0
 10
-29.5018131536266388
 20
7.5621747753920978
 30
0.0
 10
-29.3143231811513694
 20
7.3983542393248776
 30
0.0
 10
-28.9562042309664491
 20
7.3981456618570638
 30
0.0
  0
SPLINE
  5
18A
  8
layer 2
 62
256
370
-1
 48
1.0
  6
ByLayer
100
AcDbEntity
100
AcDbSpline
 70
8
 71
2
 72
6
 73
3
 74
0
 40
0.0
 40
0.0
 40
0.0
 40
1.0
 40
1.0
 40
1.0
 10
-28.9562042309664491
 20
7.3981456618570638
 30
0.0
 10
-28.6014970500697991
 20
7.3979390714893434
 30
0.0
 10
-28.3251473309542696
 20
7.5512571245705518
 30
0.0
  0
SPLINE
  5
18B
  8
layer 2
 62
256
370
-1
 48
1.0
  6
ByLayer
100
AcDbEntity
100
AcDbSpline
 70
8
 71
2
 72
6
 73
3
 74
0
 40
0.0
 40
0.0
 40
0.0
 40
1.0
 40
1.0
 40
1.0
 10
-28.3251473309542696
 20
7.5512571245705518
 30
0.0
 10
-28.0487932412475907
 20
7.7079857534587326
 30
0.0
 10
-27.9190319944500196
 20
7.9773512315182691
 30
0.0
  0
SPLINE
  5
18C
  8
layer 2
 62
256
370
-1
 48
1.0
  6
ByLayer
100
AcDbEntity
100
AcDbSpline
 70
8
 71
2
 72
6
 73
3
 74
0
 40
0.0
 40
0.0
 40
0.0
 40
1.0
 40
1.0
 40
1.0
 10
-27.9190319944500196
 20
7.9773512315182691
 30
0.0
 10
-27.8200028908506702
 20
8.1853424102646866
 30
0.0
 10
-27.8197665040512483
 20
8.5912088451414057
 30
0.0
  0
LINE
  5
18D
100
AcDbEntity
100
AcDbLine
  8
layer 2
 62
256
370
-1
 48
1.0
  6
ByLayer
 10
-27.8197665040512483
 20
8.5912088451414057
 30
0.0
 11
-27.8196353988404717
 21
8.8163111123742173
 31
0.0
  0
LINE
  5
18E
100
AcDbEntity
100
AcDbLine
  8
layer 2
 62
256
370
-1
 48
1.0
  6
ByLayer
 10
-26.1017298877341801
 20
6.9974383245300622
 30
0.0
 11
-26.0998983875947701
 21
10.1420489113982804
 31
0.0
  0
LINE
  5
18F
100
AcDbEntity
100
AcDbLine
  8
layer 2
 62
256
370
-1
 48
1.0
  6
ByLayer
 10
-26.0998983875947701
 20
10.1420489113982804
 30
0.0
 11
-26.6421908905264893
 21
10.1423647561672201
 31
0.0
  0
LINE
  5
190
100
AcDbEntity
100
AcDbLine
  8
layer 2
 62
256
370
-1
 48
1.0
  6
ByLayer
 10
-26.6421908905264893
 20
10.1423647561672201
 30
0.0
 11
-26.6419127885116183
 21
10.6198545042438504
 31
0.0
  0
LINE
  5
191
100
AcDbEntity
100
AcDbLine
  8
layer 2
 62
256
370
-1
 48
1.0
  6
ByLayer
 10
-26.6419127885116183
 20
10.6198545042438504
 30
0.0
 11
-26.0996202855799098
 21
10.6195386594748999
 31
0.0
  0
LINE
  5
192
100
AcDbEntity
100
AcDbLine
  8
layer 2
 62
256
370
-1
 48
1.0
  6
ByLayer
 10
-26.0996202855799098
 20
10.6195386594748999
 30
0.0
 11
-26.0993958175622502
 21
11.0049410351317896
 31
0.0
  0
SPLINE
  5
193
  8
layer 2
 62
256
370
-1
 48
1.0
  6
ByLayer
100
AcDbEntity
100
AcDbSpline
 70
8
 71
2
 72
6
 73
3
 74
0
 40
0.0
 40
0.0
 40
0.0
 40
1.0
 40
1.0
 40
1.0
 10
-26.0993958175622502
 20
11.0049410351317896
 30
0.0
 10
-26.0991832681527711
 20
11.3698796495920007
 30
0.0
 10
-26.0342778143347395
 20
11.5471951996128901
 30
0.0
  0
SPLINE
  5
194
  8
layer 2
 62
256
370
-1
 48
1.0
  6
ByLayer
100
AcDbEntity
100
AcDbSpline
 70
8
 71
2
 72
6
 73
3
 74
0
 40
0.0
 40
0.0
 40
0.0
 40
1.0
 40
1.0
 40
1.0
 10
-26.0342778143347395
 20
11.5471951996128901
 30
0.0
 10
-25.9454613720567906
 20
11.7858884257121197
 30
0.0
 10
-25.7236848610556805
 20
11.9324168088715901
 30
0.0
  0
SPLINE
  5
195
  8
layer 2
 62
256
370
-1
 48
1.0
  6
ByLayer
100
AcDbEntity
100
AcDbSpline
 70
8
 71
2
 72
6
 73
3
 74
0
 40
0.0
 40
0.0
 40
0.0
 40
1.0
 40
1.0
 40
1.0
 10
-25.7236848610556805
 20
11.9324168088715901
 30
0.0
 10
-25.4984945941869512
 20
12.0823540801497291
 30
0.0
 10
-25.09603933255217
 20
12.0821196801009805
 30
0.0
  0
SPLINE
  5
196
  8
layer 2
 62
256
370
-1
 48
1.0
  6
ByLayer
100
AcDbEntity
100
AcDbSpline
 70
8
 71
2
 72
6
 73
3
 74
0
 40
0.0
 40
0.0
 40
0.0
 40
1.0
 40
1.0
 40
1.0
 10
-25.09603933255217
 20
12.0821196801009805
 30
0.0
 10
-24.8368306973171897
 20
12.0819687104839204
 30
0.0
 10
-24.5230885829510505
 20
12.0203943767610895
 30
0.0
  0
LINE
  5
197
100
AcDbEntity
100
AcDbLine
  8
layer 2
 62
256
370
-1
 48
1.0
  6
ByLayer
 10
-24.5230885829510505
 20
12.0203943767610895
 30
0.0
 11
-24.6154872309316808
 21
11.4849772579174498
 31
0.0
  0
SPLINE
  5
198
  8
layer 2
 62
256
370
-1
 48
1.0
  6
ByLayer
100
AcDbEntity
100
AcDbSpline
 70
8
 71
2
 72
6
 73
3
 74
0
 40
0.0
 40
0.0
 40
0.0
 40
1.0
 40
1.0
 40
1.0
 10
-24.6154872309316808
 20
11.4849772579174498
 30
0.0
 10
-24.8064620736648003
 20
11.5191948660323202
 30
0.0
 10
-24.9769957018146407
 20
11.5192941890989093
 30
0.0
  0
SPLINE
  5
199
  8
layer 2
 62
256
370
-1
 48
1.0
  6
ByLayer
100
AcDbEntity
100
AcDbSpline
 70
8
 71
2
 72
6
 73
3
 74
0
 40
0.0
 40
0.0
 40
0.0
 40
1.0
 40
1.0
 40
1.0
 10
-24.9769957018146407
 20
11.5192941890989093
 30
0.0
 10
-25.2566678002231093
 20
11.5194570771506992
 30
0.0
 10
-25.3726993344752003
 20
11.4001523283285096
 30
0.0
  0
SPLINE
  5
19A
  8
layer 2
 62
256
370
-1
 48
1.0
  6
ByLayer
100
AcDbEntity
100
AcDbSpline
 70
8
 71
2
 72
6
 73
3
 74
0
 40
0.0
 40
0.0
 40
0.0
 40
1.0
 40
1.0
 40
1.0
 10
-25.3726993344752003
 20
11.4001523283285096
 30
0.0
 10
-25.4887308689008698
 20
11.2808472814831493
 30
0.0
 10
-25.4889215673261589
 20
10.9534259102438494
 30
0.0
  0
LINE
  5
19B
100
AcDbEntity
100
AcDbLine
  8
layer 2
 62
256
370
-1
 48
1.0
  6
ByLayer
 10
-25.4889215673261589
 20
10.9534259102438494
 30
0.0
 11
-25.4891162387365604
 21
10.6191830865902102
 31
0.0
  0
LINE
  5
19C
100
AcDbEntity
100
AcDbLine
  8
layer 2
 62
256
370
-1
 48
1.0
  6
ByLayer
 10
-25.4891162387365604
 20
10.6191830865902102
 30
0.0
 11
-24.7831136462315413
 21
10.6187718929548591
 31
0.0
  0
LINE
  5
19D
100
AcDbEntity
100
AcDbLine
  8
layer 2
 62
256
370
-1
 48
1.0
  6
ByLayer
 10
-24.7831136462315413
 20
10.6187718929548591
 30
0.0
 11
-24.7833917482464088
 21
10.1412821448782307
 31
0.0
  0
LINE
  5
19E
100
AcDbEntity
100
AcDbLine
  8
layer 2
 62
256
370
-1
 48
1.0
  6
ByLayer
 10
-24.7833917482464088
 20
10.1412821448782307
 30
0.0
 11
-25.4893943407514207
 21
10.1416933385135799
 31
0.0
  0
LINE
  5
19F
100
AcDbEntity
100
AcDbLine
  8
layer 2
 62
256
370
-1
 48
1.0
  6
ByLayer
 10
-25.4893943407514207
 20
10.1416933385135799
 30
0.0
 11
-25.4912258408908308
 21
6.9970827516453671
 31
0.0
  0
LINE
  5
1A0
100
AcDbEntity
100
AcDbLine
  8
layer 2
 62
256
370
-1
 48
1.0
  6
ByLayer
 10
-25.4912258408908308
 20
6.9970827516453671
 30
0.0
 11
-26.1017298877341801
 21
6.9974383245300622
 31
0.0
  0
LINE
  5
1A1
100
AcDbEntity
100
AcDbLine
  8
layer 2
 62
256
370
-1
 48
1.0
  6
ByLayer
 10
-21.8275174281897009
 20
8.161388170117382
 30
0.0
 11
-21.1931838369115688
 21
8.0825742241068017
 31
0.0
  0
SPLINE
  5
1A2
  8
layer 2
 62
256
370
-1
 48
1.0
  6
ByLayer
100
AcDbEntity
100
AcDbSpline
 70
8
 71
2
 72
6
 73
3
 74
0
 40
0.0
 40
0.0
 40
0.0
 40
1.0
 40
1.0
 40
1.0
 10
-21.1931838369115688
 20
8.0825742241067999
 30
0.0
 10
-21.3435777919297784
 20
7.5267274130709714
 30
0.0
 10
-21.749621218658131
 20
7.220005890765389
 30
0.0
  0
SPLINE
  5
1A3
  8
layer 2
 62
256
370
-1
 48
1.0
  6
ByLayer
100
AcDbEntity
100
AcDbSpline
 70
8
 71
2
 72
6
 73
3
 74
0
 40
0.0
 40
0.0
 40
0.0
 40
1.0
 40
1.0
 40
1.0
 10
-21.749621218658131
 20
7.220005890765389
 30
0.0
 10
-22.1556670295718803
 20
6.9132843698484141
 30
0.0
 10
-22.7866345395887215
 20
6.913651861167831
 30
0.0
  0
SPLINE
  5
1A4
  8
layer 2
 62
256
370
-1
 48
1.0
  6
ByLayer
100
AcDbEntity
100
AcDbSpline
 70
8
 71
2
 72
6
 73
3
 74
0
 40
0.0
 40
0.0
 40
0.0
 40
1.0
 40
1.0
 40
1.0
 10
-22.7866345395887215
 20
6.913651861167831
 30
0.0
 10
-23.5813145233642416
 20
6.914114702742264
 30
0.0
 10
-24.0482878822284505
 20
7.4021089209049942
 30
0.0
  0
SPLINE
  5
1A5
  8
layer 2
 62
256
370
-1
 48
1.0
  6
ByLayer
100
AcDbEntity
100
AcDbSpline
 70
8
 71
2
 72
6
 73
3
 74
0
 40
0.0
 40
0.0
 40
0.0
 40
1.0
 40
1.0
 40
1.0
 10
-24.0482878822284505
 20
7.4021089209049942
 30
0.0
 10
-24.5118498699311615
 20
7.8935111345054736
 30
0.0
 10
-24.5113353812904506
 20
8.7768670194356435
 30
0.0
  0
SPLINE
  5
1A6
  8
layer 2
 62
256
370
-1
 48
1.0
  6
ByLayer
100
AcDbEntity
100
AcDbSpline
 70
8
 71
2
 72
6
 73
3
 74
0
 40
0.0
 40
0.0
 40
0.0
 40
1.0
 40
1.0
 40
1.0
 10
-24.5113353812904506
 20
8.7768670194356435
 30
0.0
 10
-24.5108030146506692
 20
9.6909186951723942
 30
0.0
 10
-24.0398398314842794
 20
10.1954192292837398
 30
0.0
  0
SPLINE
  5
1A7
  8
layer 2
 62
256
370
-1
 48
1.0
  6
ByLayer
100
AcDbEntity
100
AcDbSpline
 70
8
 71
2
 72
6
 73
3
 74
0
 40
0.0
 40
0.0
 40
0.0
 40
1.0
 40
1.0
 40
1.0
 10
-24.0398398314842794
 20
10.1954192292837398
 30
0.0
 10
-23.5688790323296899
 20
10.6999200628068696
 30
0.0
 10
-22.8185377441894204
 20
10.6994830452019798
 30
0.0
  0
SPLINE
  5
1A8
  8
layer 2
 62
256
370
-1
 48
1.0
  6
ByLayer
100
AcDbEntity
100
AcDbSpline
 70
8
 71
2
 72
6
 73
3
 74
0
 40
0.0
 40
0.0
 40
0.0
 40
1.0
 40
1.0
 40
1.0
 10
-22.8185377441894204
 20
10.6994830452019798
 30
0.0
 10
-22.0920716885109094
 20
10.6990599331319096
 30
0.0
 10
-21.6319210724904387
 20
10.2042488300241505
 30
0.0
  0
SPLINE
  5
1A9
  8
layer 2
 62
256
370
-1
 48
1.0
  6
ByLayer
100
AcDbEntity
100
AcDbSpline
 70
8
 71
2
 72
6
 73
3
 74
0
 40
0.0
 40
0.0
 40
0.0
 40
1.0
 40
1.0
 40
1.0
 10
-21.6319210724904387
 20
10.2042488300241505
 30
0.0
 10
-21.1717728406553505
 20
9.7094377283050104
 30
0.0
 10
-21.1722952749191293
 20
8.8124395345925137
 30
0.0
  0
SPLINE
  5
1AA
  8
layer 2
 62
256
370
-1
 48
1.0
  6
ByLayer
100
AcDbEntity
100
AcDbSpline
 70
8
 71
2
 72
6
 73
3
 74
0
 40
0.0
 40
0.0
 40
0.0
 40
1.0
 40
1.0
 40
1.0
 10
-21.1722952749191293
 20
8.8124395345925137
 30
0.0
 10
-21.1723270581057399
 20
8.7578691073705155
 30
0.0
 10
-21.1758023934200601
 20
8.6487308360729553
 30
0.0
  0
LINE
  5
1AB
100
AcDbEntity
100
AcDbLine
  8
layer 2
 62
256
370
-1
 48
1.0
  6
ByLayer
 10
-21.1758023934200601
 20
8.6487308360729571
 30
0.0
 11
-23.8770296002137989
 21
8.6503040986174007
 31
0.0
  0
SPLINE
  5
1AC
  8
layer 2
 62
256
370
-1
 48
1.0
  6
ByLayer
100
AcDbEntity
100
AcDbSpline
 70
8
 71
2
 72
6
 73
3
 74
0
 40
0.0
 40
0.0
 40
0.0
 40
1.0
 40
1.0
 40
1.0
 10
-23.8770296002137989
 20
8.6503040986174007
 30
0.0
 10
-23.8432714558633485
 20
8.0534219004521592
 30
0.0
 10
-23.5399088642011094
 20
7.7360554672129966
 30
0.0
  0
SPLINE
  5
1AD
  8
layer 2
 62
256
370
-1
 48
1.0
  6
ByLayer
100
AcDbEntity
100
AcDbSpline
 70
8
 71
2
 72
6
 73
3
 74
0
 40
0.0
 40
0.0
 40
0.0
 40
1.0
 40
1.0
 40
1.0
 10
-23.5399088642011094
 20
7.7360554672129966
 30
0.0
 10
-23.2365462725388703
 20
7.4186890339738358
 30
0.0
 10
-22.7829311608776592
 20
7.4184248371439736
 30
0.0
  0
SPLINE
  5
1AE
  8
layer 2
 62
256
370
-1
 48
1.0
  6
ByLayer
100
AcDbEntity
100
AcDbSpline
 70
8
 71
2
 72
6
 73
3
 74
0
 40
0.0
 40
0.0
 40
0.0
 40
1.0
 40
1.0
 40
1.0
 10
-22.7829311608776592
 20
7.4184248371439736
 30
0.0
 10
-22.4452780580516205
 20
7.4182281794994944
 30
0.0
 10
-22.2064295908072609
 20
7.5954427187654776
 30
0.0
  0
SPLINE
  5
1AF
  8
layer 2
 62
256
370
-1
 48
1.0
  6
ByLayer
100
AcDbEntity
100
AcDbSpline
 70
8
 71
2
 72
6
 73
3
 74
0
 40
0.0
 40
0.0
 40
0.0
 40
1.0
 40
1.0
 40
1.0
 10
-22.2064295908072609
 20
7.5954427187654776
 30
0.0
 10
-21.9675811239100582
 20
7.7726566619851152
 30
0.0
 10
-21.8275174281897009
 20
8.161388170117382
 30
0.0
  0
LINE
  5
1B0
100
AcDbEntity
100
AcDbLine
  8
layer 2
 62
256
370
-1
 48
1.0
  6
ByLayer
 10
-23.8426298348233985
 20
9.1550588982239773
 30
0.0
 11
-21.8201182187846285
 21
9.1538809366799736
 31
0.0
  0
SPLINE
  5
1B1
  8
layer 2
 62
256
370
-1
 48
1.0
  6
ByLayer
100
AcDbEntity
100
AcDbSpline
 70
8
 71
2
 72
6
 73
3
 74
0
 40
0.0
 40
0.0
 40
0.0
 40
1.0
 40
1.0
 40
1.0
 10
-21.8201182187846285
 20
9.1538809366799754
 30
0.0
 10
-21.8607813460839004
 20
9.6109304637948227
 30
0.0
 10
-22.0516429616052996
 20
9.8395545483359221
 30
0.0
  0
SPLINE
  5
1B2
  8
layer 2
 62
256
370
-1
 48
1.0
  6
ByLayer
100
AcDbEntity
100
AcDbSpline
 70
8
 71
2
 72
6
 73
3
 74
0
 40
0.0
 40
0.0
 40
0.0
 40
1.0
 40
1.0
 40
1.0
 10
-22.0516429616052996
 20
9.8395545483359221
 30
0.0
 10
-22.3447507787774988
 20
10.1944319668611598
 30
0.0
 10
-22.8120105834064191
 20
10.19470411070278
 30
0.0
  0
SPLINE
  5
1B3
  8
layer 2
 62
256
370
-1
 48
1.0
  6
ByLayer
100
AcDbEntity
100
AcDbSpline
 70
8
 71
2
 72
6
 73
3
 74
0
 40
0.0
 40
0.0
 40
0.0
 40
1.0
 40
1.0
 40
1.0
 10
-22.8120105834064191
 20
10.19470411070278
 30
0.0
 10
-23.2349293082146993
 20
10.1949504291862496
 30
0.0
 10
-23.524999204932179
 20
9.9120363035224877
 30
0.0
  0
SPLINE
  5
1B4
  8
layer 2
 62
256
370
-1
 48
1.0
  6
ByLayer
100
AcDbEntity
100
AcDbSpline
 70
8
 71
2
 72
6
 73
3
 74
0
 40
0.0
 40
0.0
 40
0.0
 40
1.0
 40
1.0
 40
1.0
 10
-23.524999204932179
 20
9.9120363035224877
 30
0.0
 10
-23.8116573325349599
 20
9.6291198927354564
 30
0.0
 10
-23.8426298348233985
 20
9.1550588982239773
 30
0.0
  0
LINE
  5
1B5
100
AcDbEntity
100
AcDbLine
  8
layer 2
 62
256
370
-1
 48
1.0
  6
ByLayer
 10
-20.4230127608411109
 20
6.994130897100864
 30
0.0
 11
-20.4209031586868406
 21
10.6162312320457097
 31
0.0
  0
LINE
  5
1B6
100
AcDbEntity
100
AcDbLine
  8
layer 2
 62
256
370
-1
 48
1.0
  6
ByLayer
 10
-20.4209031586868406
 20
10.6162312320457097
 30
0.0
 11
-19.8683801162610791
 21
10.6159094287536995
 31
0.0
  0
LINE
  5
1B7
100
AcDbEntity
100
AcDbLine
  8
layer 2
 62
256
370
-1
 48
1.0
  6
ByLayer
 10
-19.8683801162610791
 20
10.6159094287536995
 30
0.0
 11
-19.8686800690865404
 21
10.1009027354793393
 31
0.0
  0
SPLINE
  5
1B8
  8
layer 2
 62
256
370
-1
 48
1.0
  6
ByLayer
100
AcDbEntity
100
AcDbSpline
 70
8
 71
2
 72
6
 73
3
 74
0
 40
0.0
 40
0.0
 40
0.0
 40
1.0
 40
1.0
 40
1.0
 10
-19.8686800690865404
 20
10.1009027354793393
 30
0.0
 10
-19.4692865651228502
 20
10.6975323572262706
 30
0.0
 10
-18.7155358918796892
 20
10.6970933539098905
 30
0.0
  0
SPLINE
  5
1B9
  8
layer 2
 62
256
370
-1
 48
1.0
  6
ByLayer
100
AcDbEntity
100
AcDbSpline
 70
8
 71
2
 72
6
 73
3
 74
0
 40
0.0
 40
0.0
 40
0.0
 40
1.0
 40
1.0
 40
1.0
 10
-18.7155358918796892
 20
10.6970933539098905
 30
0.0
 10
-18.3881157127330788
 20
10.6969026561770804
 30
0.0
 10
-18.1153319099473293
 20
10.5773714515406905
 30
0.0
  0
SPLINE
  5
1BA
  8
layer 2
 62
256
370
-1
 48
1.0
  6
ByLayer
100
AcDbEntity
100
AcDbSpline
 70
8
 71
2
 72
6
 73
3
 74
0
 40
0.0
 40
0.0
 40
0.0
 40
1.0
 40
1.0
 40
1.0
 10
-18.1153319099473293
 20
10.5773714515406905
 30
0.0
 10
-17.8391391198382898
 20
10.4612488397769994
 30
0.0
 10
-17.7028248886355897
 20
10.2701734829262499
 30
0.0
  0
SPLINE
  5
1BB
  8
layer 2
 62
256
370
-1
 48
1.0
  6
ByLayer
100
AcDbEntity
100
AcDbSpline
 70
8
 71
2
 72
6
 73
3
 74
0
 40
0.0
 40
0.0
 40
0.0
 40
1.0
 40
1.0
 40
1.0
 10
-17.7028248886355897
 20
10.2701734829262499
 30
0.0
 10
-17.5665106574328789
 20
10.0790981260754897
 30
0.0
 10
-17.5120919943131597
 20
9.8164468317405493
 30
0.0
  0
SPLINE
  5
1BC
  8
layer 2
 62
256
370
-1
 48
1.0
  6
ByLayer
100
AcDbEntity
100
AcDbSpline
 70
8
 71
2
 72
6
 73
3
 74
0
 40
0.0
 40
0.0
 40
0.0
 40
1.0
 40
1.0
 40
1.0
 10
-17.5120919943131597
 20
9.8164468317405493
 30
0.0
 10
-17.4780855443815213
 20
9.6458951276718619
 30
0.0
 10
-17.4783338497891307
 20
9.2195649315984802
 30
0.0
  0
LINE
  5
1BD
100
AcDbEntity
100
AcDbLine
  8
layer 2
 62
256
370
-1
 48
1.0
  6
ByLayer
 10
-17.4783338497891307
 20
9.2195649315984802
 30
0.0
 11
-17.4796309968829995
 21
6.9924165976625963
 31
0.0
  0
LINE
  5
1BE
100
AcDbEntity
100
AcDbLine
  8
layer 2
 62
256
370
-1
 48
1.0
  6
ByLayer
 10
-17.4796309968829995
 20
6.9924165976625963
 30
0.0
 11
-18.0935468130146084
 21
6.9927741576473812
 31
0.0
  0
LINE
  5
1BF
100
AcDbEntity
100
AcDbLine
  8
layer 2
 62
256
370
-1
 48
1.0
  6
ByLayer
 10
-18.0935468130146084
 20
6.9927741576473812
 30
0.0
 11
-18.0922635709347013
 21
9.1960481531910219
 31
0.0
  0
SPLINE
  5
1C0
  8
layer 2
 62
256
370
-1
 48
1.0
  6
ByLayer
100
AcDbEntity
100
AcDbSpline
 70
8
 71
2
 72
6
 73
3
 74
0
 40
0.0
 40
0.0
 40
0.0
 40
1.0
 40
1.0
 40
1.0
 10
-18.0922635709347013
 20
9.1960481531910219
 30
0.0
 10
-18.0920450623079212
 20
9.5712184992379843
 30
0.0
 10
-18.1635611076869985
 20
9.7554346612701401
 30
0.0
  0
SPLINE
  5
1C1
  8
layer 2
 62
256
370
-1
 48
1.0
  6
ByLayer
100
AcDbEntity
100
AcDbSpline
 70
8
 71
2
 72
6
 73
3
 74
0
 40
0.0
 40
0.0
 40
0.0
 40
1.0
 40
1.0
 40
1.0
 10
-18.1635611076869985
 20
9.7554346612701401
 30
0.0
 10
-18.2350751664867303
 20
9.9430616985210492
 30
0.0
 10
-18.4191851530339008
 20
10.0523095222430001
 30
0.0
  0
SPLINE
  5
1C2
  8
layer 2
 62
256
370
-1
 48
1.0
  6
ByLayer
100
AcDbEntity
100
AcDbSpline
 70
8
 71
2
 72
6
 73
3
 74
0
 40
0.0
 40
0.0
 40
0.0
 40
1.0
 40
1.0
 40
1.0
 10
-18.4191851530339008
 20
10.0523095222430001
 30
0.0
 10
-18.5998837680724094
 20
10.1649659374490593
 30
0.0
 10
-18.8454500945250594
 20
10.1651089614429697
 30
0.0
  0
SPLINE
  5
1C3
  8
layer 2
 62
256
370
-1
 48
1.0
  6
ByLayer
100
AcDbEntity
100
AcDbSpline
 70
8
 71
2
 72
6
 73
3
 74
0
 40
0.0
 40
0.0
 40
0.0
 40
1.0
 40
1.0
 40
1.0
 10
-18.8454500945250594
 20
10.1651089614429697
 30
0.0
 10
-19.2376748166657983
 20
10.1653374029686603
 30
0.0
 10
-19.5243130798637416
 20
9.9165273601837924
 30
0.0
  0
SPLINE
  5
1C4
  8
layer 2
 62
256
370
-1
 48
1.0
  6
ByLayer
100
AcDbEntity
100
AcDbSpline
 70
8
 71
2
 72
6
 73
3
 74
0
 40
0.0
 40
0.0
 40
0.0
 40
1.0
 40
1.0
 40
1.0
 10
-19.5243130798637416
 20
9.9165273601837924
 30
0.0
 10
-19.8075419577852188
 20
9.6677156297106155
 30
0.0
 10
-19.8079471920257504
 20
8.9719450668155147
 30
0.0
  0
LINE
  5
1C5
100
AcDbEntity
100
AcDbLine
  8
layer 2
 62
256
370
-1
 48
1.0
  6
ByLayer
 10
-19.8079471920257504
 20
8.9719450668155147
 30
0.0
 11
-19.8090993288948809
 21
6.9937733385046874
 31
0.0
  0
LINE
  5
1C6
100
AcDbEntity
100
AcDbLine
  8
layer 2
 62
256
370
-1
 48
1.0
  6
ByLayer
 10
-19.8090993288948809
 20
6.9937733385046874
 30
0.0
 11
-20.4230127608411109
 21
6.994130897100864
 31
0.0
  0
LWPOLYLINE
  5
1C7
  8
layer 2
 62
256
370
-1
 48
1.0
  6
ByLayer
100
AcDbEntity
100
AcDbPolyline
 90
4
 70
1
 10
-16.3639471517175288
 20
7.6909484706693911
 30
0.0
 10
-16.3643543725374094
 20
6.9917670325555354
 30
0.0
 10
-15.6651729344235608
 20
6.9913598117317584
 30
0.0
 10
-15.6647657136036802
 20
7.6905412498456149
 30
0.0
  0
LINE
  5
1C8
100
AcDbEntity
100
AcDbLine
  8
layer 2
 62
256
370
-1
 48
1.0
  6
ByLayer
 10
-12.2477078272599709
 20
6.9893693942516864
 30
0.0
 11
-12.2474416440268694
 21
7.4463950831084764
 31
0.0
  0
SPLINE
  5
1C9
  8
layer 2
 62
256
370
-1
 48
1.0
  6
ByLayer
100
AcDbEntity
100
AcDbSpline
 70
8
 71
2
 72
6
 73
3
 74
0
 40
0.0
 40
0.0
 40
0.0
 40
1.0
 40
1.0
 40
1.0
 10
-12.2474416440268694
 20
7.4463950831084746
 30
0.0
 10
-12.5922321434424607
 20
6.9077143852633496
 30
0.0
 10
-13.2607195788887697
 20
6.9081037291293441
 30
0.0
  0
SPLINE
  5
1CA
  8
layer 2
 62
256
370
-1
 48
1.0
  6
ByLayer
100
AcDbEntity
100
AcDbSpline
 70
8
 71
2
 72
6
 73
3
 74
0
 40
0.0
 40
0.0
 40
0.0
 40
1.0
 40
1.0
 40
1.0
 10
-13.2607195788887697
 20
6.9081037291293441
 30
0.0
 10
-13.6938688431910993
 20
6.9083560061358718
 30
0.0
 10
-14.0586627440300198
 20
7.1473137243109184
 30
0.0
  0
SPLINE
  5
1CB
  8
layer 2
 62
256
370
-1
 48
1.0
  6
ByLayer
100
AcDbEntity
100
AcDbSpline
 70
8
 71
2
 72
6
 73
3
 74
0
 40
0.0
 40
0.0
 40
0.0
 40
1.0
 40
1.0
 40
1.0
 10
-14.0586627440300198
 20
7.1473137243109184
 30
0.0
 10
-14.4200520284839797
 20
7.3862688635053537
 30
0.0
 10
-14.6210337379055701
 20
7.8127165590148904
 30
0.0
  0
SPLINE
  5
1CC
  8
layer 2
 62
256
370
-1
 48
1.0
  6
ByLayer
100
AcDbEntity
100
AcDbSpline
 70
8
 71
2
 72
6
 73
3
 74
0
 40
0.0
 40
0.0
 40
0.0
 40
1.0
 40
1.0
 40
1.0
 10
-14.6210337379055701
 20
7.8127165590148904
 30
0.0
 10
-14.8185993077948908
 20
8.2425722471849614
 30
0.0
 10
-14.8182755174058904
 20
8.7985070588990038
 30
0.0
  0
SPLINE
  5
1CD
  8
layer 2
 62
256
370
-1
 48
1.0
  6
ByLayer
100
AcDbEntity
100
AcDbSpline
 70
8
 71
2
 72
6
 73
3
 74
0
 40
0.0
 40
0.0
 40
0.0
 40
1.0
 40
1.0
 40
1.0
 10
-14.8182755174058904
 20
8.7985070588990038
 30
0.0
 10
-14.8179596729871204
 20
9.3407989657843711
 30
0.0
 10
-14.6369440226833198
 20
9.7806661918276507
 30
0.0
  0
SPLINE
  5
1CE
  8
layer 2
 62
256
370
-1
 48
1.0
  6
ByLayer
100
AcDbEntity
100
AcDbSpline
 70
8
 71
2
 72
6
 73
3
 74
0
 40
0.0
 40
0.0
 40
0.0
 40
1.0
 40
1.0
 40
1.0
 10
-14.6369440226833198
 20
9.7806661918276507
 30
0.0
 10
-14.4559168492321799
 20
10.2239439895120707
 30
0.0
 10
-14.0942514493427105
 20
10.4590677231755098
 30
0.0
  0
SPLINE
  5
1CF
  8
layer 2
 62
256
370
-1
 48
1.0
  6
ByLayer
100
AcDbEntity
100
AcDbSpline
 70
8
 71
2
 72
6
 73
3
 74
0
 40
0.0
 40
0.0
 40
0.0
 40
1.0
 40
1.0
 40
1.0
 10
-14.0942514493427105
 20
10.4590677231755098
 30
0.0
 10
-13.7325860494532392
 20
10.69419145683894
 30
0.0
 10
-13.2857992447393602
 20
10.6939312369864794
 30
0.0
  0
SPLINE
  5
1D0
  8
layer 2
 62
256
370
-1
 48
1.0
  6
ByLayer
100
AcDbEntity
100
AcDbSpline
 70
8
 71
2
 72
6
 73
3
 74
0
 40
0.0
 40
0.0
 40
0.0
 40
1.0
 40
1.0
 40
1.0
 10
-13.2857992447393602
 20
10.6939312369864794
 30
0.0
 10
-12.9583742972219795
 20
10.6937405364764508
 30
0.0
 10
-12.7026612596593491
 20
10.5537552081206805
 30
0.0
  0
SPLINE
  5
1D1
  8
layer 2
 62
256
370
-1
 48
1.0
  6
ByLayer
100
AcDbEntity
100
AcDbSpline
 70
8
 71
2
 72
6
 73
3
 74
0
 40
0.0
 40
0.0
 40
0.0
 40
1.0
 40
1.0
 40
1.0
 10
-12.7026612596593491
 20
10.5537552081206805
 30
0.0
 10
-12.4469366987758292
 20
10.4171807494292299
 30
0.0
 10
-12.2867627289250496
 20
10.1953956948484699
 30
0.0
  0
LINE
  5
1D2
100
AcDbEntity
100
AcDbLine
  8
layer 2
 62
256
370
-1
 48
1.0
  6
ByLayer
 10
-12.2867627289250496
 20
10.1953956948484699
 30
0.0
 11
-12.2857178598767494
 21
11.9893929763429803
 31
0.0
  0
LINE
  5
1D3
100
AcDbEntity
100
AcDbLine
  8
layer 2
 62
256
370
-1
 48
1.0
  6
ByLayer
 10
-12.2857178598767494
 20
11.9893929763429803
 30
0.0
 11
-11.6752138130334107
 21
11.9890374034582905
 31
0.0
  0
LINE
  5
1D4
100
AcDbEntity
100
AcDbLine
  8
layer 2
 62
256
370
-1
 48
1.0
  6
ByLayer
 10
-11.6752138130334107
 20
11.9890374034582905
 30
0.0
 11
-11.6781259383928298
 21
6.9890376554592226
 31
0.0
  0
LINE
  5
1D5
100
AcDbEntity
100
AcDbLine
  8
layer 2
 62
256
370
-1
 48
1.0
  6
ByLayer
 10
-11.6781259383928298
 20
6.9890376554592226
 30
0.0
 11
-12.2477078272599709
 21
6.9893693942516864
 31
0.0
  0
SPLINE
  5
1D6
  8
layer 2
 62
256
370
-1
 48
1.0
  6
ByLayer
100
AcDbEntity
100
AcDbSpline
 70
8
 71
2
 72
6
 73
3
 74
0
 40
0.0
 40
0.0
 40
0.0
 40
1.0
 40
1.0
 40
1.0
 10
-14.1873056232036703
 20
8.7981395661909758
 30
0.0
 10
-14.1877108576177804
 20
8.1023687052727009
 30
0.0
 10
-13.8945994654136697
 20
7.7577230197228166
 30
0.0
  0
SPLINE
  5
1D7
  8
layer 2
 62
256
370
-1
 48
1.0
  6
ByLayer
100
AcDbEntity
100
AcDbSpline
 70
8
 71
2
 72
6
 73
3
 74
0
 40
0.0
 40
0.0
 40
0.0
 40
1.0
 40
1.0
 40
1.0
 10
-13.8945994654136697
 20
7.7577230197228166
 30
0.0
 10
-13.6014880732095502
 20
7.4130773341729306
 30
0.0
 10
-13.2024421966776497
 20
7.4128449198356687
 30
0.0
  0
SPLINE
  5
1D8
  8
layer 2
 62
256
370
-1
 48
1.0
  6
ByLayer
100
AcDbEntity
100
AcDbSpline
 70
8
 71
2
 72
6
 73
3
 74
0
 40
0.0
 40
0.0
 40
0.0
 40
1.0
 40
1.0
 40
1.0
 10
-13.2024421966776497
 20
7.4128449198356687
 30
0.0
 10
-12.7999821666720894
 20
7.4126105170097043
 30
0.0
 10
-12.5201169853057905
 20
7.7398695948549543
 30
0.0
  0
SPLINE
  5
1D9
  8
layer 2
 62
256
370
-1
 48
1.0
  6
ByLayer
100
AcDbEntity
100
AcDbSpline
 70
8
 71
2
 72
6
 73
3
 74
0
 40
0.0
 40
0.0
 40
0.0
 40
1.0
 40
1.0
 40
1.0
 10
-12.5201169853057905
 20
7.7398695948549543
 30
0.0
 10
-12.2368452011487605
 20
8.0705366709151765
 30
0.0
 10
-12.2364518855164093
 20
8.7458434726136147
 30
0.0
  0
SPLINE
  5
1DA
  8
layer 2
 62
256
370
-1
 48
1.0
  6
ByLayer
100
AcDbEntity
100
AcDbSpline
 70
8
 71
2
 72
6
 73
3
 74
0
 40
0.0
 40
0.0
 40
0.0
 40
1.0
 40
1.0
 40
1.0
 10
-12.2364518855164093
 20
8.7458434726136147
 30
0.0
 10
-12.2360188410743902
 20
9.489363010316378
 30
0.0
 10
-12.5223094766669707
 20
9.8374153016388792
 30
0.0
  0
SPLINE
  5
1DB
  8
layer 2
 62
256
370
-1
 48
1.0
  6
ByLayer
100
AcDbEntity
100
AcDbSpline
 70
8
 71
2
 72
6
 73
3
 74
0
 40
0.0
 40
0.0
 40
0.0
 40
1.0
 40
1.0
 40
1.0
 10
-12.5223094766669707
 20
9.8374153016388792
 30
0.0
 10
-12.8086001122595405
 20
10.1854675929613805
 30
0.0
 10
-13.2281118361503207
 20
10.1857119271219805
 30
0.0
  0
SPLINE
  5
1DC
  8
layer 2
 62
256
370
-1
 48
1.0
  6
ByLayer
100
AcDbEntity
100
AcDbSpline
 70
8
 71
2
 72
6
 73
3
 74
0
 40
0.0
 40
0.0
 40
0.0
 40
1.0
 40
1.0
 40
1.0
 10
-13.2281118361503207
 20
10.1857119271219805
 30
0.0
 10
-13.6373906363616602
 20
10.1859503013709105
 30
0.0
 10
-13.9138456368922494
 20
9.851868378668966
 30
0.0
  0
SPLINE
  5
1DD
  8
layer 2
 62
256
370
-1
 48
1.0
  6
ByLayer
100
AcDbEntity
100
AcDbSpline
 70
8
 71
2
 72
6
 73
3
 74
0
 40
0.0
 40
0.0
 40
0.0
 40
1.0
 40
1.0
 40
1.0
 10
-13.9138456368922494
 20
9.851868378668966
 30
0.0
 10
-14.1868864839491895
 20
9.5177844674783234
 30
0.0
 10
-14.1873056232036703
 20
8.7981395661909758
 30
0.0
  0
LINE
  5
1DE
100
AcDbEntity
100
AcDbLine
  8
layer 2
 62
256
370
-1
 48
1.0
  6
ByLayer
 10
-8.2327087713212332
 20
8.1534702122332874
 30
0.0
 11
-7.5983704116723274
 21
8.0746562634454886
 31
0.0
  0
SPLINE
  5
1DF
  8
layer 2
 62
256
370
-1
 48
1.0
  6
ByLayer
100
AcDbEntity
100
AcDbSpline
 70
8
 71
2
 72
6
 73
3
 74
0
 40
0.0
 40
0.0
 40
0.0
 40
1.0
 40
1.0
 40
1.0
 10
-7.5983704116723327
 20
8.0746562634454886
 30
0.0
 10
-7.748764366690537
 20
7.5188094524096591
 30
0.0
 10
-8.1548077934188967
 20
7.2120879301040759
 30
0.0
  0
SPLINE
  5
1E0
  8
layer 2
 62
256
370
-1
 48
1.0
  6
ByLayer
100
AcDbEntity
100
AcDbSpline
 70
8
 71
2
 72
6
 73
3
 74
0
 40
0.0
 40
0.0
 40
0.0
 40
1.0
 40
1.0
 40
1.0
 10
-8.1548077934188967
 20
7.2120879301040759
 30
0.0
 10
-8.5608512201472475
 20
6.9053664077984926
 30
0.0
 10
-9.1918211143494766
 20
6.9057339005065188
 30
0.0
  0
SPLINE
  5
1E1
  8
layer 2
 62
256
370
-1
 48
1.0
  6
ByLayer
100
AcDbEntity
100
AcDbSpline
 70
8
 71
2
 72
6
 73
3
 74
0
 40
0.0
 40
0.0
 40
0.0
 40
1.0
 40
1.0
 40
1.0
 10
-9.1918211143494766
 20
6.9057339005065188
 30
0.0
 10
-9.9865082506811564
 20
6.9061967462467813
 30
0.0
 10
-10.4534768411746004
 20
7.3941909616322912
 30
0.0
  0
SPLINE
  5
1E2
  8
layer 2
 62
256
370
-1
 48
1.0
  6
ByLayer
100
AcDbEntity
100
AcDbSpline
 70
8
 71
2
 72
6
 73
3
 74
0
 40
0.0
 40
0.0
 40
0.0
 40
1.0
 40
1.0
 40
1.0
 10
-10.4534768411746004
 20
7.3941909616322912
 30
0.0
 10
-10.9170388288773097
 20
7.8855931752327724
 30
0.0
 10
-10.9165243402366006
 20
8.7689490601629423
 30
0.0
  0
SPLINE
  5
1E3
  8
layer 2
 62
256
370
-1
 48
1.0
  6
ByLayer
100
AcDbEntity
100
AcDbSpline
 70
8
 71
2
 72
6
 73
3
 74
0
 40
0.0
 40
0.0
 40
0.0
 40
1.0
 40
1.0
 40
1.0
 10
-10.9165243402366006
 20
8.7689490601629423
 30
0.0
 10
-10.9159919735968192
 20
9.683000735899693
 30
0.0
 10
-10.4450311746158206
 20
10.1875012713996504
 30
0.0
  0
SPLINE
  5
1E4
  8
layer 2
 62
256
370
-1
 48
1.0
  6
ByLayer
100
AcDbEntity
100
AcDbSpline
 70
8
 71
2
 72
6
 73
3
 74
0
 40
0.0
 40
0.0
 40
0.0
 40
1.0
 40
1.0
 40
1.0
 10
-10.4450311746158206
 20
10.1875012713996504
 30
0.0
 10
-9.9740703754612259
 20
10.6920021049227802
 30
0.0
 10
-9.2237290873209599
 20
10.6915650873178905
 30
0.0
  0
SPLINE
  5
1E5
  8
layer 2
 62
256
370
-1
 48
1.0
  6
ByLayer
100
AcDbEntity
100
AcDbSpline
 70
8
 71
2
 72
6
 73
3
 74
0
 40
0.0
 40
0.0
 40
0.0
 40
1.0
 40
1.0
 40
1.0
 10
-9.2237290873209599
 20
10.6915650873178905
 30
0.0
 10
-8.4972582632716787
 20
10.6911419724705894
 30
0.0
 10
-8.0371124156219764
 20
10.1963308721400594
 30
0.0
  0
SPLINE
  5
1E6
  8
layer 2
 62
256
370
-1
 48
1.0
  6
ByLayer
100
AcDbEntity
100
AcDbSpline
 70
8
 71
2
 72
6
 73
3
 74
0
 40
0.0
 40
0.0
 40
0.0
 40
1.0
 40
1.0
 40
1.0
 10
-8.0371124156219764
 20
10.1963308721400594
 30
0.0
 10
-7.5769665679722742
 20
9.7015197718095276
 30
0.0
 10
-7.577489002236053
 20
8.804521578097031
 30
0.0
  0
SPLINE
  5
1E7
  8
layer 2
 62
256
370
-1
 48
1.0
  6
ByLayer
100
AcDbEntity
100
AcDbSpline
 70
8
 71
2
 72
6
 73
3
 74
0
 40
0.0
 40
0.0
 40
0.0
 40
1.0
 40
1.0
 40
1.0
 10
-7.577489002236053
 20
8.804521578097031
 30
0.0
 10
-7.5775207854226512
 20
8.7499511508750309
 30
0.0
 10
-7.580988968180824
 20
8.640812875411644
 30
0.0
  0
LINE
  5
1E8
100
AcDbEntity
100
AcDbLine
  8
layer 2
 62
256
370
-1
 48
1.0
  6
ByLayer
 10
-7.580988968180824
 20
8.640812875411644
 30
0.0
 11
-10.2822137907891804
 21
8.6423861365674792
 31
0.0
  0
SPLINE
  5
1E9
  8
layer 2
 62
256
370
-1
 48
1.0
  6
ByLayer
100
AcDbEntity
100
AcDbSpline
 70
8
 71
2
 72
6
 73
3
 74
0
 40
0.0
 40
0.0
 40
0.0
 40
1.0
 40
1.0
 40
1.0
 10
-10.2822137907891804
 20
8.6423861365674792
 30
0.0
 10
-10.2484580306241195
 20
8.0455039397908461
 30
0.0
 10
-9.9450978231472575
 20
7.7281375079402954
 30
0.0
  0
SPLINE
  5
1EA
  8
layer 2
 62
256
370
-1
 48
1.0
  6
ByLayer
100
AcDbEntity
100
AcDbSpline
 70
8
 71
2
 72
6
 73
3
 74
0
 40
0.0
 40
0.0
 40
0.0
 40
1.0
 40
1.0
 40
1.0
 10
-9.9450978231472575
 20
7.7281375079402954
 30
0.0
 10
-9.6417376156704027
 20
7.4107710760897429
 30
0.0
 10
-9.1881225040091952
 20
7.4105068792598807
 30
0.0
  0
SPLINE
  5
1EB
  8
layer 2
 62
256
370
-1
 48
1.0
  6
ByLayer
100
AcDbEntity
100
AcDbSpline
 70
8
 71
2
 72
6
 73
3
 74
0
 40
0.0
 40
0.0
 40
0.0
 40
1.0
 40
1.0
 40
1.0
 10
-9.1881225040091952
 20
7.4105068792598807
 30
0.0
 10
-8.8504646328123826
 20
7.4103102188381822
 30
0.0
 10
-8.6116185497534126
 20
7.5875247594927764
 30
0.0
  0
SPLINE
  5
1EC
  8
layer 2
 62
256
370
-1
 48
1.0
  6
ByLayer
100
AcDbEntity
100
AcDbSpline
 70
8
 71
2
 72
6
 73
3
 74
0
 40
0.0
 40
0.0
 40
0.0
 40
1.0
 40
1.0
 40
1.0
 10
-8.6116185497534126
 20
7.5875247594927764
 30
0.0
 10
-8.3727724670415871
 20
7.7647387041010232
 30
0.0
 10
-8.2327087713212332
 20
8.1534702122332874
 30
0.0
  0
LINE
  5
1ED
100
AcDbEntity
100
AcDbLine
  8
layer 2
 62
256
370
-1
 48
1.0
  6
ByLayer
 10
-10.2478164095841606
 20
9.147140937562666
 30
0.0
 11
-8.2253119461015523
 21
9.1459629801844908
 31
0.0
  0
SPLINE
  5
1EE
  8
layer 2
 62
256
370
-1
 48
1.0
  6
ByLayer
100
AcDbEntity
100
AcDbSpline
 70
8
 71
2
 72
6
 73
3
 74
0
 40
0.0
 40
0.0
 40
0.0
 40
1.0
 40
1.0
 40
1.0
 10
-8.2253119461015523
 20
9.1459629801844908
 30
0.0
 10
-8.265967920844659
 20
9.6030125031335096
 30
0.0
 10
-8.4568366889222268
 20
9.8316365918404376
 30
0.0
  0
SPLINE
  5
1EF
  8
layer 2
 62
256
370
-1
 48
1.0
  6
ByLayer
100
AcDbEntity
100
AcDbSpline
 70
8
 71
2
 72
6
 73
3
 74
0
 40
0.0
 40
0.0
 40
0.0
 40
1.0
 40
1.0
 40
1.0
 10
-8.4568366889222268
 20
9.8316365918404376
 30
0.0
 10
-8.7499421219090401
 20
10.1865140089770705
 30
0.0
 10
-9.2171947739817917
 20
10.1867861486528604
 30
0.0
  0
SPLINE
  5
1F0
  8
layer 2
 62
256
370
-1
 48
1.0
  6
ByLayer
100
AcDbEntity
100
AcDbSpline
 70
8
 71
2
 72
6
 73
3
 74
0
 40
0.0
 40
0.0
 40
0.0
 40
1.0
 40
1.0
 40
1.0
 10
-9.2171947739817917
 20
10.1867861486528604
 30
0.0
 10
-9.6401206513462334
 20
10.1870324713021603
 30
0.0
 10
-9.930183395507548
 20
9.9041183414725644
 30
0.0
  0
SPLINE
  5
1F1
  8
layer 2
 62
256
370
-1
 48
1.0
  6
ByLayer
100
AcDbEntity
100
AcDbSpline
 70
8
 71
2
 72
6
 73
3
 74
0
 40
0.0
 40
0.0
 40
0.0
 40
1.0
 40
1.0
 40
1.0
 10
-9.930183395507548
 20
9.9041183414725644
 30
0.0
 10
-10.2168415231103307
 20
9.6212019306855368
 30
0.0
 10
-10.2478164095841606
 20
9.147140937562666
 30
0.0
  0
LINE
  5
1F2
100
AcDbEntity
100
AcDbLine
  8
0
 62
256
370
-1
 48
1.0
  6
ByLayer
 10
-62.1324613411223936
 20
107.4421304837400015
 30
0.0
 11
60.0
 21
107.4421304837400015
 31
0.0
  0
LINE
  5
1F3
100
AcDbEntity
100
AcDbLine
  8
0
 62
256
370
-1
 48
1.0
  6
ByLayer
 10
60.0
 20
107.4421304837400015
 30
0.0
 11
60.0
 21
-80.0
 31
0.0
  0
LINE
  5
1F4
100
AcDbEntity
100
AcDbLine
  8
0
 62
256
370
-1
 48
1.0
  6
ByLayer
 10
60.0
 20
-80.0
 30
0.0
 11
-62.1324613411223936
 21
-80.0
 31
0.0
  0
LINE
  5
1F5
100
AcDbEntity
100
AcDbLine
  8
0
 62
256
370
-1
 48
1.0
  6
ByLayer
 10
-62.1324613411223936
 20
-80.0
 30
0.0
 11
-62.1324613411223936
 21
107.4421304837400015
 31
0.0
  0
ENDSEC
  0
SECTION
  2
OBJECTS
  0
DICTIONARY
  5
C
100
AcDbDictionary
280
0
281
1
  3
ACAD_GROUP
350
D
  3
ACAD_LAYOUT
350
1A
  3
ACAD_MLINESTYLE
350
17
  3
ACAD_PLOTSETTINGS
350
19
  3
ACAD_PLOTSTYLENAME
350
E
  3
AcDbVariableDictionary
350
1F6
  3
QCAD_OBJECTS
350
1F7
  0
DICTIONARY
  5
D
100
AcDbDictionary
280
0
281
1
  0
ACDBDICTIONARYWDFLT
  5
E
100
AcDbDictionary
281
1
  3
Normal
350
F
100
AcDbDictionaryWithDefault
340
F
  0
ACDBPLACEHOLDER
  5
F
  0
DICTIONARY
  5
17
100
AcDbDictionary
280
0
281
1
  3
Standard
350
18
  0
MLINESTYLE
  5
18
100
AcDbMlineStyle
  2
STANDARD
 70
0
  3

 62
256
 51
90.0
 52
90.0
 71
2
 49
0.5
 62
256
  6
BYLAYER
 49
-0.5
 62
256
  6
BYLAYER
  0
DICTIONARY
  5
19
100
AcDbDictionary
280
0
281
1
  0
DICTIONARY
  5
1A
100
AcDbDictionary
281
1
  3
Layout1
350
1E
  3
Layout2
350
26
  3
Model
350
22
  0
LAYOUT
  5
1E
100
AcDbPlotSettings
  1

  2
none_device
  4

  6

 40
0.0
 41
0.0
 42
0.0
 43
0.0
 44
0.0
 45
0.0
 46
0.0
 47
0.0
 48
0.0
 49
0.0
140
0.0
141
0.0
142
1.0
143
1.0
 70
688
 72
0
 73
0
 74
5
  7

 75
16
147
1.0
148
0.0
149
0.0
100
AcDbLayout
  1
Layout1
 70
1
 71
1
 10
0.0
 20
0.0
 11
420.0
 21
297.0
 12
0.0
 22
0.0
 32
0.0
 14
100000000000000000000.0
 24
100000000000000000000.0
 34
100000000000000000000.0
 15
-100000000000000000000.0
 25
-100000000000000000000.0
 35
-100000000000000000000.0
146
0.0
 13
0.0
 23
0.0
 33
0.0
 16
1.0
 26
0.0
 36
0.0
 17
0.0
 27
1.0
 37
0.0
 76
0
330
1B
  0
LAYOUT
  5
22
100
AcDbPlotSettings
  1

  2
none_device
  4

  6

 40
0.0
 41
0.0
 42
0.0
 43
0.0
 44
0.0
 45
0.0
 46
0.0
 47
0.0
 48
0.0
 49
0.0
140
0.0
141
0.0
142
1.0
143
1.0
 70
1712
 72
0
 73
0
 74
0
  7

 75
0
147
1.0
148
0.0
149
0.0
100
AcDbLayout
  1
Model
 70
1
 71
0
 10
0.0
 20
0.0
 11
12.0
 21
9.0
 12
0.0
 22
0.0
 32
0.0
 14
0.0
 24
0.0
 34
0.0
 15
0.0
 25
0.0
 35
0.0
146
0.0
 13
0.0
 23
0.0
 33
0.0
 16
1.0
 26
0.0
 36
0.0
 17
0.0
 27
1.0
 37
0.0
 76
0
330
1F
  0
LAYOUT
  5
26
100
AcDbPlotSettings
  1

  2
none_device
  4

  6

 40
0.0
 41
0.0
 42
0.0
 43
0.0
 44
0.0
 45
0.0
 46
0.0
 47
0.0
 48
0.0
 49
0.0
140
0.0
141
0.0
142
1.0
143
1.0
 70
688
 72
0
 73
0
 74
5
  7

 75
16
147
1.0
148
0.0
149
0.0
100
AcDbLayout
  1
Layout2
 70
1
 71
2
 10
0.0
 20
0.0
 11
12.0
 21
9.0
 12
0.0
 22
0.0
 32
0.0
 14
0.0
 24
0.0
 34
0.0
 15
0.0
 25
0.0
 35
0.0
146
0.0
 13
0.0
 23
0.0
 33
0.0
 16
1.0
 26
0.0
 36
0.0
 17
0.0
 27
1.0
 37
0.0
 76
0
330
23
  0
DICTIONARY
  5
1F6
100
AcDbDictionary
281
1
  3
DIMASSOC
350
1F9
  3
HIDETEXT
350
1F8
  0
DICTIONARYVAR
  5
1F8
100
DictionaryVariables
280
0
  1
2
  0
DICTIONARYVAR
  5
1F9
100
DictionaryVariables
280
0
  1
1
  0
DICTIONARY
  5
1F7
100
AcDbDictionary
281
1
  3
ColorSettings/BackgroundColor
350
1FA
  3
ColorSettings/ColorMode
350
1FB
  3
Grid/DisplayGrid00
350
1FC
  3
Grid/DisplayGrid01
350
1FD
  3
Grid/DisplayGrid02
350
1FE
  3
Grid/DisplayGrid03
350
1FF
  3
Grid/GridSpacingX00
350
200
  3
Grid/GridSpacingX01
350
201
  3
Grid/GridSpacingX02
350
202
  3
Grid/GridSpacingX03
350
203
  3
Grid/GridSpacingY00
350
204
  3
Grid/GridSpacingY01
350
205
  3
Grid/GridSpacingY02
350
206
  3
Grid/GridSpacingY03
350
207
  3
Grid/IsometricGrid00
350
208
  3
Grid/IsometricGrid01
350
209
  3
Grid/IsometricGrid02
350
20A
  3
Grid/IsometricGrid03
350
20B
  3
Grid/IsometricProjection00
350
20C
  3
Grid/IsometricProjection01
350
20D
  3
Grid/IsometricProjection02
350
20E
  3
Grid/IsometricProjection03
350
20F
  3
Grid/MetaGridSpacingX00
350
210
  3
Grid/MetaGridSpacingX01
350
211
  3
Grid/MetaGridSpacingX02
350
212
  3
Grid/MetaGridSpacingX03
350
213
  3
Grid/MetaGridSpacingY00
350
214
  3
Grid/MetaGridSpacingY01
350
215
  3
Grid/MetaGridSpacingY02
350
216
  3
Grid/MetaGridSpacingY03
350
217
  3
MultiPageSettings/Columns
350
218
  3
MultiPageSettings/GlueMarginsBottom
350
219
  3
MultiPageSettings/GlueMarginsLeft
350
21A
  3
MultiPageSettings/GlueMarginsRight
350
21B
  3
MultiPageSettings/GlueMarginsTop
350
21C
  3
MultiPageSettings/PrintCropMarks
350
21D
  3
MultiPageSettings/Rows
350
21E
  3
PageSettings/OffsetX
350
21F
  3
PageSettings/OffsetY
350
220
  3
PageSettings/PageOrientation
350
221
  3
PageSettings/PaperHeight
350
222
  3
PageSettings/PaperWidth
350
223
  3
PageSettings/Scale
350
224
  3
PageSettings/ShowPaperBorders
350
225
  3
QCADVersion
350
226
  3
UnitSettings/PaperUnit
350
227
  3
ViewportCenter
350
228
  3
ViewportHeight
350
229
  3
ViewportWidth
350
22A
  0
XRECORD
  5
1FA
330
1F7
100
AcDbXrecord
280
1
1000
#ffffff
  0
XRECORD
  5
1FB
330
1F7
100
AcDbXrecord
280
1
1000
FullColor
  0
XRECORD
  5
1FC
330
1F7
100
AcDbXrecord
280
1
290
1
  0
XRECORD
  5
1FD
330
1F7
100
AcDbXrecord
280
1
290
1
  0
XRECORD
  5
1FE
330
1F7
100
AcDbXrecord
280
1
290
1
  0
XRECORD
  5
1FF
330
1F7
100
AcDbXrecord
280
1
290
1
  0
XRECORD
  5
200
330
1F7
100
AcDbXrecord
280
1
1000
auto
  0
XRECORD
  5
201
330
1F7
100
AcDbXrecord
280
1
1000
auto
  0
XRECORD
  5
202
330
1F7
100
AcDbXrecord
280
1
1000
auto
  0
XRECORD
  5
203
330
1F7
100
AcDbXrecord
280
1
1000
auto
  0
XRECORD
  5
204
330
1F7
100
AcDbXrecord
280
1
1000
auto
  0
XRECORD
  5
205
330
1F7
100
AcDbXrecord
280
1
1000
auto
  0
XRECORD
  5
206
330
1F7
100
AcDbXrecord
280
1
1000
auto
  0
XRECORD
  5
207
330
1F7
100
AcDbXrecord
280
1
1000
auto
  0
XRECORD
  5
208
330
1F7
100
AcDbXrecord
280
1
290
0
  0
XRECORD
  5
209
330
1F7
100
AcDbXrecord
280
1
290
0
  0
XRECORD
  5
20A
330
1F7
100
AcDbXrecord
280
1
290
0
  0
XRECORD
  5
20B
330
1F7
100
AcDbXrecord
280
1
290
0
  0
XRECORD
  5
20C
330
1F7
100
AcDbXrecord
280
1
 90
0
  0
XRECORD
  5
20D
330
1F7
100
AcDbXrecord
280
1
 90
0
  0
XRECORD
  5
20E
330
1F7
100
AcDbXrecord
280
1
 90
0
  0
XRECORD
  5
20F
330
1F7
100
AcDbXrecord
280
1
 90
0
  0
XRECORD
  5
210
330
1F7
100
AcDbXrecord
280
1
1000
auto
  0
XRECORD
  5
211
330
1F7
100
AcDbXrecord
280
1
1000
auto
  0
XRECORD
  5
212
330
1F7
100
AcDbXrecord
280
1
1000
auto
  0
XRECORD
  5
213
330
1F7
100
AcDbXrecord
280
1
1000
auto
  0
XRECORD
  5
214
330
1F7
100
AcDbXrecord
280
1
1000
auto
  0
XRECORD
  5
215
330
1F7
100
AcDbXrecord
280
1
1000
auto
  0
XRECORD
  5
216
330
1F7
100
AcDbXrecord
280
1
1000
auto
  0
XRECORD
  5
217
330
1F7
100
AcDbXrecord
280
1
1000
auto
  0
XRECORD
  5
218
330
1F7
100
AcDbXrecord
280
1
 90
1
  0
XRECORD
  5
219
330
1F7
100
AcDbXrecord
280
1
 40
10.0
  0
XRECORD
  5
21A
330
1F7
100
AcDbXrecord
280
1
 40
10.0
  0
XRECORD
  5
21B
330
1F7
100
AcDbXrecord
280
1
 40
10.0
  0
XRECORD
  5
21C
330
1F7
100
AcDbXrecord
280
1
 40
10.0
  0
XRECORD
  5
21D
330
1F7
100
AcDbXrecord
280
1
290
0
  0
XRECORD
  5
21E
330
1F7
100
AcDbXrecord
280
1
 90
1
  0
XRECORD
  5
21F
330
1F7
100
AcDbXrecord
280
1
 40
0.0
  0
XRECORD
  5
220
330
1F7
100
AcDbXrecord
280
1
 40
0.0
  0
XRECORD
  5
221
330
1F7
100
AcDbXrecord
280
1
1000
Portrait
  0
XRECORD
  5
222
330
1F7
100
AcDbXrecord
280
1
 40
297.0
  0
XRECORD
  5
223
330
1F7
100
AcDbXrecord
280
1
 40
210.0
  0
XRECORD
  5
224
330
1F7
100
AcDbXrecord
280
1
1000
1:1
  0
XRECORD
  5
225
330
1F7
100
AcDbXrecord
280
1
290
1
  0
XRECORD
  5
226
330
1F7
100
AcDbXrecord
280
1
1000
3.15.4
  0
XRECORD
  5
227
330
1F7
100
AcDbXrecord
280
1
 90
4
  0
XRECORD
  5
229
330
1F7
100
AcDbXrecord
280
1
 40
238.2516106018759672
  0
XRECORD
  5
22A
330
1F7
100
AcDbXrecord
280
1
 40
431.5671579383348444
  0
ENDSEC
  0
EOF
