999
dxflib 3.12.2.0
  0
SECTION
  2
HEADER
  9
$ACADVER
  1
AC1015
  9
$HANDSEED
  5
FFFF
  9
$DIMADEC
 70
0
  9
$DIMASZ
 40
2.5
  9
$DIMAUNIT
 70
0
  9
$DIMAZIN
 70
2
  9
$DIMDEC
 70
4
  9
$DIMEXE
 40
1.25
  9
$DIMEXO
 40
0.625
  9
$DIMGAP
 40
0.625
  9
$DIMLUNIT
 70
2
  9
$DIMSCALE
 40
1.0
  9
$DIMTSZ
 40
0.0
  9
$DIMTXT
 40
2.5
  9
$DIMZIN
 70
8
  9
$DWGCODEPAGE
  3
ANSI_1252
  9
$INSUNITS
 70
4
  9
$LTSCALE
 40
1.0
  9
$MEASUREMENT
 70
1
  9
$PDMODE
 70
0
  9
$PDSIZE
 40
0
  0
ENDSEC
  0
SECTION
  2
TABLES
  0
TABLE
  2
VPORT
  5
8
100
AcDbSymbolTable
 70
1
  0
VPORT
  5
30
100
AcDbSymbolTableRecord
100
AcDbViewportTableRecord
  2
*Active
 70
0
 10
0.0
 20
0.0
 11
1.0
 21
1.0
 12
286.3055555555554861
 22
148.5
 13
0.0
 23
0.0
 14
10.0
 24
10.0
 15
10.0
 25
10.0
 16
0.0
 26
0.0
 36
1.0
 17
0.0
 27
0.0
 37
0.0
 40
297.0
 41
1.92798353909465
 42
50.0
 43
0.0
 44
0.0
 50
0.0
 51
0.0
 71
0
 72
100
 73
1
 74
3
 75
1
 76
1
 77
0
 78
0
281
0
 65
1
110
0.0
120
0.0
130
0.0
111
1.0
121
0.0
131
0.0
112
0.0
122
1.0
132
0.0
 79
0
146
0.0
  0
ENDTAB
  0
TABLE
  2
LTYPE
  5
5
100
AcDbSymbolTable
 70
54
  0
LTYPE
  5
16
100
AcDbSymbolTableRecord
100
AcDbLinetypeTableRecord
  2
Continuous
 70
0
  3
Solid line
 72
65
 73
0
 40
0.0
  0
LTYPE
  5
31
100
AcDbSymbolTableRecord
100
AcDbLinetypeTableRecord
  2
CENTERX2
 70
0
  3
Center (2x) ________  __  ________  __  _____
 72
65
 73
4
 40
101.6000000000000085
 49
63.5
 74
0
 49
-12.6999999999999993
 74
0
 49
12.6999999999999993
 74
0
 49
-12.6999999999999993
 74
0
  0
LTYPE
  5
32
100
AcDbSymbolTableRecord
100
AcDbLinetypeTableRecord
  2
CUTLEFT2
 70
0
  3
G41 reversed----/----/----/----
 72
65
 73
2
 40
10.1600000000000001
 49
5.0800000000000001
 74
0
 49
5.0800000000000001
 74
0
  0
LTYPE
  5
33
100
AcDbSymbolTableRecord
100
AcDbLinetypeTableRecord
  2
ACAD_ISO14W100
 70
0
  3
ISO dash triple-dot __ . . . __ . . . __ . . . _
 72
65
 73
8
 40
24.0
 49
12.0
 74
0
 49
-3.0
 74
0
 49
0.0
 74
0
 49
-3.0
 74
0
 49
0.0
 74
0
 49
-3.0
 74
0
 49
0.0
 74
0
 49
-3.0
 74
0
  0
LTYPE
  5
34
100
AcDbSymbolTableRecord
100
AcDbLinetypeTableRecord
  2
GAS_LINE
 70
0
  3
Gas line ----GAS----GAS----GAS----GAS----GAS----GAS--
 72
65
 73
3
 40
24.1300000000000026
 49
12.6999999999999993
 74
0
 49
-5.0800000000000001
 74
0
 49
-6.3499999999999996
 74
0
  0
LTYPE
  5
35
100
AcDbSymbolTableRecord
100
AcDbLinetypeTableRecord
  2
ACAD_ISO06W100
 70
0
  3
ISO long-dash triple-dot ____ ... ____ ... ____
 72
65
 73
8
 40
36.0
 49
24.0
 74
0
 49
-3.0
 74
0
 49
0.0
 74
0
 49
-3.0
 74
0
 49
0.0
 74
0
 49
-3.0
 74
0
 49
0.0
 74
0
 49
-3.0
 74
0
  0
LTYPE
  5
36
100
AcDbSymbolTableRecord
100
AcDbLinetypeTableRecord
  2
DOT
 70
0
  3
Dot . . . . . . . . . . . . . . . . . . . . . . . .
 72
65
 73
2
 40
6.3499999999999996
 49
0.0
 74
0
 49
-6.3499999999999996
 74
0
  0
LTYPE
  5
37
100
AcDbSymbolTableRecord
100
AcDbLinetypeTableRecord
  2
DIVIDEX2
 70
0
  3
Divide (2x) ________  .  .  ________  .  .  _
 72
65
 73
6
 40
63.5
 49
25.3999999999999986
 74
0
 49
-12.6999999999999993
 74
0
 49
0.0
 74
0
 49
-12.6999999999999993
 74
0
 49
0.0
 74
0
 49
-12.6999999999999993
 74
0
  0
LTYPE
  5
38
100
AcDbSymbolTableRecord
100
AcDbLinetypeTableRecord
  2
ACAD_ISO13W100
 70
0
  3
ISO double-dash double-dot __ __ . . __ __ . . _
 72
65
 73
8
 40
36.0
 49
12.0
 74
0
 49
-3.0
 74
0
 49
12.0
 74
0
 49
-3.0
 74
0
 49
0.0
 74
0
 49
-3.0
 74
0
 49
0.0
 74
0
 49
-3.0
 74
0
  0
LTYPE
  5
39
100
AcDbSymbolTableRecord
100
AcDbLinetypeTableRecord
  2
FENCELINE1
 70
0
  3
Fenceline circle ----0-----0----0-----0----0-----0--
 72
65
 73
4
 40
36.8299999999999983
 49
6.3499999999999996
 74
0
 49
-2.54
 74
0
 49
-2.54
 74
0
 49
25.3999999999999986
 74
0
  0
LTYPE
  5
3A
100
AcDbSymbolTableRecord
100
AcDbLinetypeTableRecord
  2
ACAD_ISO05W100
 70
0
  3
ISO long-dash double-dot ____ .. ____ .. ____ . 
 72
65
 73
6
 40
33.0
 49
24.0
 74
0
 49
-3.0
 74
0
 49
0.0
 74
0
 49
-3.0
 74
0
 49
0.0
 74
0
 49
-3.0
 74
0
  0
LTYPE
  5
3B
100
AcDbSymbolTableRecord
100
AcDbLinetypeTableRecord
  2
BORDERX2
 70
0
  3
Border (2x) ____  ____  .  ____  ____  .  ___
 72
65
 73
6
 40
88.8999999999999915
 49
25.3999999999999986
 74
0
 49
-12.6999999999999993
 74
0
 49
25.3999999999999986
 74
0
 49
-12.6999999999999993
 74
0
 49
0.0
 74
0
 49
-12.6999999999999993
 74
0
  0
LTYPE
  5
3C
100
AcDbSymbolTableRecord
100
AcDbLinetypeTableRecord
  2
FENCELINE2
 70
0
  3
Fenceline square ----[]-----[]----[]-----[]----[]---
 72
65
 73
4
 40
36.8299999999999983
 49
6.3499999999999996
 74
0
 49
-2.54
 74
0
 49
-2.54
 74
0
 49
25.3999999999999986
 74
0
  0
LTYPE
  5
3D
100
AcDbSymbolTableRecord
100
AcDbLinetypeTableRecord
  2
DOT2
 70
0
  3
Dot (.5x) ........................................
 72
65
 73
2
 40
3.1749999999999998
 49
0.0
 74
0
 49
-3.1749999999999998
 74
0
  0
LTYPE
  5
3E
100
AcDbSymbolTableRecord
100
AcDbLinetypeTableRecord
  2
DASHDOTX2
 70
0
  3
Dash dot (2x) ____  .  ____  .  ____  .  ___
 72
65
 73
4
 40
50.7999999999999972
 49
25.3999999999999986
 74
0
 49
-12.6999999999999993
 74
0
 49
0.0
 74
0
 49
-12.6999999999999993
 74
0
  0
LTYPE
  5
3F
100
AcDbSymbolTableRecord
100
AcDbLinetypeTableRecord
  2
ZIGZAG
 70
0
  3
Zig zag /\/\/\/\/\/\/\/\/\/\/\/\/\/\/\/\/\/\/\/\/\/\/\/
 72
65
 73
4
 40
20.32254
 49
0.00254
 74
0
 49
-5.0800000000000001
 74
0
 49
-10.1600000000000001
 74
0
 49
-5.0800000000000001
 74
0
  0
LTYPE
  5
40
100
AcDbSymbolTableRecord
100
AcDbLinetypeTableRecord
  2
DASHED2
 70
0
  3
Dashed (.5x) _ _ _ _ _ _ _ _ _ _ _ _ _ _ _ _ _ 
 72
65
 73
2
 40
9.5249999999999986
 49
6.3499999999999996
 74
0
 49
-3.1749999999999998
 74
0
  0
LTYPE
  5
41
100
AcDbSymbolTableRecord
100
AcDbLinetypeTableRecord
  2
ACAD_ISO12W100
 70
0
  3
ISO dash double-dot __ . . __ . . __ . . __ . . 
 72
65
 73
6
 40
21.0
 49
12.0
 74
0
 49
-3.0
 74
0
 49
0.0
 74
0
 49
-3.0
 74
0
 49
0.0
 74
0
 49
-3.0
 74
0
  0
LTYPE
  5
42
100
AcDbSymbolTableRecord
100
AcDbLinetypeTableRecord
  2
HOT_WATER_SUPPLY
 70
0
  3
Hot water supply ---- HW ---- HW ---- HW ----
 72
65
 73
3
 40
22.8599999999999994
 49
12.6999999999999993
 74
0
 49
-5.0800000000000001
 74
0
 49
-5.0800000000000001
 74
0
  0
LTYPE
  5
43
100
AcDbSymbolTableRecord
100
AcDbLinetypeTableRecord
  2
PHANTOM2
 70
0
  3
Phantom (.5x) ___ _ _ ___ _ _ ___ _ _ ___ _ _
 72
65
 73
6
 40
31.7500000000000036
 49
15.875
 74
0
 49
-3.1749999999999998
 74
0
 49
3.1749999999999998
 74
0
 49
-3.1749999999999998
 74
0
 49
3.1749999999999998
 74
0
 49
-3.1749999999999998
 74
0
  0
LTYPE
  5
44
100
AcDbSymbolTableRecord
100
AcDbLinetypeTableRecord
  2
ACAD_ISO04W100
 70
0
  3
ISO long-dash dot ____ . ____ . ____ . ____ . _
 72
65
 73
4
 40
30.0
 49
24.0
 74
0
 49
-3.0
 74
0
 49
0.0
 74
0
 49
-3.0
 74
0
  0
LTYPE
  5
45
100
AcDbSymbolTableRecord
100
AcDbLinetypeTableRecord
  2
CUTRIGHT
 70
0
  3
G42 ----/----/-----/---
 72
65
 73
2
 40
10.1600000000000001
 49
5.0800000000000001
 74
0
 49
5.0800000000000001
 74
0
  0
LTYPE
  5
15
100
AcDbSymbolTableRecord
100
AcDbLinetypeTableRecord
  2
BYLAYER
 70
0
  3

 72
65
 73
0
 40
0.0
  0
LTYPE
  5
46
100
AcDbSymbolTableRecord
100
AcDbLinetypeTableRecord
  2
ACAD_ISO11W100
 70
0
  3
ISO double-dash dot __ __ . __ __ . __ __ . __ _
 72
65
 73
6
 40
33.0
 49
12.0
 74
0
 49
-3.0
 74
0
 49
12.0
 74
0
 49
-3.0
 74
0
 49
0.0
 74
0
 49
-3.0
 74
0
  0
LTYPE
  5
47
100
AcDbSymbolTableRecord
100
AcDbLinetypeTableRecord
  2
DRAINAGE2
 70
0
  3
Drainage reversed----<----<----<----
 72
65
 73
2
 40
10.1600000000000001
 49
5.0800000000000001
 74
0
 49
5.0800000000000001
 74
0
  0
LTYPE
  5
48
100
AcDbSymbolTableRecord
100
AcDbLinetypeTableRecord
  2
ACAD_ISO03W100
 70
0
  3
ISO dash space __    __    __    __    __    __
 72
65
 73
2
 40
30.0
 49
12.0
 74
0
 49
-18.0
 74
0
  0
LTYPE
  5
49
100
AcDbSymbolTableRecord
100
AcDbLinetypeTableRecord
  2
HIDDENX2
 70
0
  3
Hidden (2x) ____ ____ ____ ____ ____ ____ ____ 
 72
65
 73
2
 40
19.0499999999999972
 49
12.6999999999999993
 74
0
 49
-6.3499999999999996
 74
0
  0
LTYPE
  5
4A
100
AcDbSymbolTableRecord
100
AcDbLinetypeTableRecord
  2
CENTER2
 70
0
  3
Center (.5x) ___ _ ___ _ ___ _ ___ _ ___ _ ___
 72
65
 73
4
 40
28.5750000000000028
 49
19.0500000000000007
 74
0
 49
-3.1749999999999998
 74
0
 49
3.1749999999999998
 74
0
 49
-3.1749999999999998
 74
0
  0
LTYPE
  5
4B
100
AcDbSymbolTableRecord
100
AcDbLinetypeTableRecord
  2
DASHEDX2
 70
0
  3
Dashed (2x) ____  ____  ____  ____  ____  ___
 72
65
 73
2
 40
38.0999999999999943
 49
25.3999999999999986
 74
0
 49
-12.6999999999999993
 74
0
  0
LTYPE
  5
4C
100
AcDbSymbolTableRecord
100
AcDbLinetypeTableRecord
  2
ACAD_ISO10W100
 70
0
  3
ISO dash dot __ . __ . __ . __ . __ . __ . __ . 
 72
65
 73
4
 40
18.0
 49
12.0
 74
0
 49
-3.0
 74
0
 49
0.0
 74
0
 49
-3.0
 74
0
  0
LTYPE
  5
4D
100
AcDbSymbolTableRecord
100
AcDbLinetypeTableRecord
  2
DRAINAGE
 70
0
  3
Drainage ---->---->---->----
 72
65
 73
2
 40
10.1600000000000001
 49
5.0800000000000001
 74
0
 49
5.0800000000000001
 74
0
  0
LTYPE
  5
4E
100
AcDbSymbolTableRecord
100
AcDbLinetypeTableRecord
  2
DASHDOT
 70
0
  3
Dash dot __ . __ . __ . __ . __ . __ . __ . __
 72
65
 73
4
 40
25.3999999999999986
 49
12.6999999999999993
 74
0
 49
-6.3499999999999996
 74
0
 49
0.0
 74
0
 49
-6.3499999999999996
 74
0
  0
LTYPE
  5
4F
100
AcDbSymbolTableRecord
100
AcDbLinetypeTableRecord
  2
ACAD_ISO02W100
 70
0
  3
ISO dash __ __ __ __ __ __ __ __ __ __ __ __ __
 72
65
 73
2
 40
15.0
 49
12.0
 74
0
 49
-3.0
 74
0
  0
LTYPE
  5
50
100
AcDbSymbolTableRecord
100
AcDbLinetypeTableRecord
  2
DOTX2
 70
0
  3
Dot (2x) .  .  .  .  .  .  .  .  .  .  .  .  .  .
 72
65
 73
2
 40
12.6999999999999993
 49
0.0
 74
0
 49
-12.6999999999999993
 74
0
  0
LTYPE
  5
51
100
AcDbSymbolTableRecord
100
AcDbLinetypeTableRecord
  2
CENTER
 70
0
  3
Center ____ _ ____ _ ____ _ ____ _ ____ _ ____
 72
65
 73
4
 40
50.8000000000000043
 49
31.75
 74
0
 49
-6.3499999999999996
 74
0
 49
6.3499999999999996
 74
0
 49
-6.3499999999999996
 74
0
  0
LTYPE
  5
52
100
AcDbSymbolTableRecord
100
AcDbLinetypeTableRecord
  2
PHANTOM
 70
0
  3
Phantom ______  __  __  ______  __  __  ______ 
 72
65
 73
6
 40
63.5000000000000071
 49
31.75
 74
0
 49
-6.3499999999999996
 74
0
 49
6.3499999999999996
 74
0
 49
-6.3499999999999996
 74
0
 49
6.3499999999999996
 74
0
 49
-6.3499999999999996
 74
0
  0
LTYPE
  5
53
100
AcDbSymbolTableRecord
100
AcDbLinetypeTableRecord
  2
DIVIDE
 70
0
  3
Divide ____ . . ____ . . ____ . . ____ . . ____
 72
65
 73
6
 40
31.75
 49
12.6999999999999993
 74
0
 49
-6.3499999999999996
 74
0
 49
0.0
 74
0
 49
-6.3499999999999996
 74
0
 49
0.0
 74
0
 49
-6.3499999999999996
 74
0
  0
LTYPE
  5
54
100
AcDbSymbolTableRecord
100
AcDbLinetypeTableRecord
  2
DASHED
 70
0
  3
Dashed __ __ __ __ __ __ __ __ __ __ __ __ __ _
 72
65
 73
2
 40
19.0499999999999972
 49
12.6999999999999993
 74
0
 49
-6.3499999999999996
 74
0
  0
LTYPE
  5
55
100
AcDbSymbolTableRecord
100
AcDbLinetypeTableRecord
  2
CUTRIGHT2
 70
0
  3
G42 reversed----\----\----\----
 72
65
 73
2
 40
10.1600000000000001
 49
5.0800000000000001
 74
0
 49
5.0800000000000001
 74
0
  0
LTYPE
  5
56
100
AcDbSymbolTableRecord
100
AcDbLinetypeTableRecord
  2
BORDER2
 70
0
  3
Border (.5x) __.__.__.__.__.__.__.__.__.__.__.
 72
65
 73
6
 40
22.2249999999999979
 49
6.3499999999999996
 74
0
 49
-3.1749999999999998
 74
0
 49
6.3499999999999996
 74
0
 49
-3.1749999999999998
 74
0
 49
0.0
 74
0
 49
-3.1749999999999998
 74
0
  0
LTYPE
  5
57
100
AcDbSymbolTableRecord
100
AcDbLinetypeTableRecord
  2
DASHDOT2
 70
0
  3
Dash dot (.5x) _._._._._._._._._._._._._._._.
 72
65
 73
4
 40
12.6999999999999993
 49
6.3499999999999996
 74
0
 49
-3.1749999999999998
 74
0
 49
0.0
 74
0
 49
-3.1749999999999998
 74
0
  0
LTYPE
  5
58
100
AcDbSymbolTableRecord
100
AcDbLinetypeTableRecord
  2
ACAD_ISO09W100
 70
0
  3
ISO long-dash double-short-dash ____ __ __ ____
 72
65
 73
6
 40
45.0
 49
24.0
 74
0
 49
-3.0
 74
0
 49
6.0
 74
0
 49
-3.0
 74
0
 49
6.0
 74
0
 49
-3.0
 74
0
  0
LTYPE
  5
59
100
AcDbSymbolTableRecord
100
AcDbLinetypeTableRecord
  2
CUTLEFT
 70
0
  3
G41 ----\----\----\----
 72
65
 73
2
 40
10.1600000000000001
 49
5.0800000000000001
 74
0
 49
5.0800000000000001
 74
0
  0
LTYPE
  5
5A
100
AcDbSymbolTableRecord
100
AcDbLinetypeTableRecord
  2
DIVIDE2
 70
0
  3
Divide (.5x) __..__..__..__..__..__..__..__.._
 72
65
 73
6
 40
15.875
 49
6.3499999999999996
 74
0
 49
-3.1749999999999998
 74
0
 49
0.0
 74
0
 49
-3.1749999999999998
 74
0
 49
0.0
 74
0
 49
-3.1749999999999998
 74
0
  0
LTYPE
  5
5B
100
AcDbSymbolTableRecord
100
AcDbLinetypeTableRecord
  2
TRACKS
 70
0
  3
Tracks -|-|-|-|-|-|-|-|-|-|-|-|-|-|-|-|-|-|-|-|-|-|-|-|-
 72
65
 73
2
 40
7.6200000000000001
 49
3.8100000000000001
 74
0
 49
3.8100000000000001
 74
0
  0
LTYPE
  5
5C
100
AcDbSymbolTableRecord
100
AcDbLinetypeTableRecord
  2
HIDDEN2
 70
0
  3
Hidden (.5x) _ _ _ _ _ _ _ _ _ _ _ _ _ _ _ _ _ 
 72
65
 73
2
 40
4.7624999999999993
 49
3.1749999999999998
 74
0
 49
-1.5874999999999999
 74
0
  0
LTYPE
  5
5D
100
AcDbSymbolTableRecord
100
AcDbLinetypeTableRecord
  2
ACAD_ISO08W100
 70
0
  3
ISO long-dash short-dash ____ __ ____ __ ____ _
 72
65
 73
4
 40
36.0
 49
24.0
 74
0
 49
-3.0
 74
0
 49
6.0
 74
0
 49
-3.0
 74
0
  0
LTYPE
  5
5E
100
AcDbSymbolTableRecord
100
AcDbLinetypeTableRecord
  2
BORDER
 70
0
  3
Border __ __ . __ __ . __ __ . __ __ . __ __ .
 72
65
 73
6
 40
44.4499999999999957
 49
12.6999999999999993
 74
0
 49
-6.3499999999999996
 74
0
 49
12.6999999999999993
 74
0
 49
-6.3499999999999996
 74
0
 49
0.0
 74
0
 49
-6.3499999999999996
 74
0
  0
LTYPE
  5
5F
100
AcDbSymbolTableRecord
100
AcDbLinetypeTableRecord
  2
PHANTOMX2
 70
0
  3
Phantom (2x) ____________    ____    ____   _
 72
65
 73
6
 40
127.0000000000000142
 49
63.5
 74
0
 49
-12.6999999999999993
 74
0
 49
12.6999999999999993
 74
0
 49
-12.6999999999999993
 74
0
 49
12.6999999999999993
 74
0
 49
-12.6999999999999993
 74
0
  0
LTYPE
  5
60
100
AcDbSymbolTableRecord
100
AcDbLinetypeTableRecord
  2
ACAD_ISO15W100
 70
0
  3
ISO double-dash triple-dot __ __ . . . __ __ . .
 72
65
 73
10
 40
39.0
 49
12.0
 74
0
 49
-3.0
 74
0
 49
12.0
 74
0
 49
-3.0
 74
0
 49
0.0
 74
0
 49
-3.0
 74
0
 49
0.0
 74
0
 49
-3.0
 74
0
 49
0.0
 74
0
 49
-3.0
 74
0
  0
LTYPE
  5
61
100
AcDbSymbolTableRecord
100
AcDbLinetypeTableRecord
  2
BATTING
 70
0
  3
Batting SSSSSSSSSSSSSSSSSSSSSSSSSSSSSSSSSSSSSSSSSSSSSSS
 72
65
 73
4
 40
10.1625399999999999
 49
0.00254
 74
0
 49
-2.54
 74
0
 49
-5.0800000000000001
 74
0
 49
-2.54
 74
0
  0
LTYPE
  5
62
100
AcDbSymbolTableRecord
100
AcDbLinetypeTableRecord
  2
ACAD_ISO07W100
 70
0
  3
ISO dot . . . . . . . . . . . . . . . . . . . . 
 72
65
 73
2
 40
3.0
 49
0.0
 74
0
 49
-3.0
 74
0
  0
LTYPE
  5
14
100
AcDbSymbolTableRecord
100
AcDbLinetypeTableRecord
  2
BYBLOCK
 70
0
  3

 72
65
 73
0
 40
0.0
  0
LTYPE
  5
63
100
AcDbSymbolTableRecord
100
AcDbLinetypeTableRecord
  2
HIDDEN
 70
0
  3
Hidden __ __ __ __ __ __ __ __ __ __ __ __ __ __
 72
65
 73
2
 40
9.5249999999999986
 49
6.3499999999999996
 74
0
 49
-3.1749999999999998
 74
0
  0
ENDTAB
  0
TABLE
  2
LAYER
  5
2
100
AcDbSymbolTable
 70
4
  0
LAYER
  5
10
100
AcDbSymbolTableRecord
100
AcDbLayerTableRecord
  2
0
 70
0
 62
7
420
16777215
  6
Continuous
370
25
390
F
  0
LAYER
  5
64
100
AcDbSymbolTableRecord
100
AcDbLayerTableRecord
  2
Cut
 70
0
 62
7
420
16777215
  6
Continuous
370
-3
390
F
  0
LAYER
  5
65
100
AcDbSymbolTableRecord
100
AcDbLayerTableRecord
  2
Text
 70
0
 62
1
420
16711680
  6
Continuous
370
25
390
F
  0
LAYER
  5
66
100
AcDbSymbolTableRecord
100
AcDbLayerTableRecord
  2
Steg
 70
0
 62
5
420
255
  6
Continuous
370
25
390
F
  0
ENDTAB
  0
TABLE
  2
STYLE
  5
3
100
AcDbSymbolTable
 70
7
  0
STYLE
  5
67
100
AcDbSymbolTableRecord
100
AcDbTextStyleTableRecord
  2
Standard
 70
0
 40
0.0
 41
1.0
 50
0.0
 71
0
 42
2.5
  3

  4

1001
ACAD
1000
txt
1071
0
  0
STYLE
  5
68
100
AcDbSymbolTableRecord
100
AcDbTextStyleTableRecord
  2
textstyle0
 70
0
 40
0.0
 41
1.0
 50
0.0
 71
0
 42
3.5
  3

  4

1001
ACAD
1000
Arial
1071
0
  0
STYLE
  5
69
100
AcDbSymbolTableRecord
100
AcDbTextStyleTableRecord
  2
textstyle1
 70
0
 40
0.0
 41
1.0
 50
0.0
 71
0
 42
3.5
  3

  4

1001
ACAD
1000
Arial
1071
0
  0
STYLE
  5
6A
100
AcDbSymbolTableRecord
100
AcDbTextStyleTableRecord
  2
textstyle2
 70
0
 40
0.0
 41
1.0
 50
0.0
 71
0
 42
3.5
  3

  4

1001
ACAD
1000
Arial
1071
0
  0
STYLE
  5
6B
100
AcDbSymbolTableRecord
100
AcDbTextStyleTableRecord
  2
textstyle3
 70
0
 40
0.0
 41
1.0
 50
0.0
 71
0
 42
3.5
  3

  4

1001
ACAD
1000
Arial
1071
0
  0
STYLE
  5
6C
100
AcDbSymbolTableRecord
100
AcDbTextStyleTableRecord
  2
textstyle4
 70
0
 40
0.0
 41
1.0
 50
0.0
 71
0
 42
3.5
  3

  4

1001
ACAD
1000
Arial
1071
0
  0
STYLE
  5
6D
100
AcDbSymbolTableRecord
100
AcDbTextStyleTableRecord
  2
textstyle5
 70
0
 40
0.0
 41
1.0
 50
0.0
 71
0
 42
3.5
  3

  4

1001
ACAD
1000
Arial
1071
0
  0
ENDTAB
  0
TABLE
  2
VIEW
  5
6
100
AcDbSymbolTable
 70
0
  0
ENDTAB
  0
TABLE
  2
UCS
  5
7
100
AcDbSymbolTable
 70
0
  0
ENDTAB
  0
TABLE
  2
APPID
  5
9
100
AcDbSymbolTable
 70
1
  0
APPID
  5
12
100
AcDbSymbolTableRecord
100
AcDbRegAppTableRecord
  2
ACAD
 70
0
  0
APPID
  5
6E
100
AcDbSymbolTableRecord
100
AcDbRegAppTableRecord
  2
QCAD
 70
0
  0
ENDTAB
  0
TABLE
  2
DIMSTYLE
  5
A
100
AcDbSymbolTable
 70
1
100
AcDbDimStyleTable
 71
0
  0
DIMSTYLE
105
27
100
AcDbSymbolTableRecord
100
AcDbDimStyleTableRecord
  2
Standard
 41
2.5
 42
0.625
 43
3.75
 44
1.25
 70
0
 73
0
 74
0
 77
1
 78
8
140
2.5
141
2.5
143
0.03937007874016
147
0.625
171
3
172
1
271
2
272
2
274
3
278
44
283
0
284
8
340
67
  0
ENDTAB
  0
TABLE
  2
BLOCK_RECORD
  5
1
100
AcDbSymbolTable
 70
1
  0
BLOCK_RECORD
  5
1F
100
AcDbSymbolTableRecord
100
AcDbBlockTableRecord
  2
*Model_Space
340
22
  0
BLOCK_RECORD
  5
1B
100
AcDbSymbolTableRecord
100
AcDbBlockTableRecord
  2
*Paper_Space
340
1E
  0
BLOCK_RECORD
  5
23
100
AcDbSymbolTableRecord
100
AcDbBlockTableRecord
  2
*Paper_Space0
340
26
  0
ENDTAB
  0
ENDSEC
  0
SECTION
  2
BLOCKS
  0
BLOCK
  5
20
100
AcDbEntity
  8
0
100
AcDbBlockBegin
  2
*Model_Space
 70
0
 10
0.0
 20
0.0
 30
0.0
  3
*Model_Space
  1

  0
ENDBLK
  5
21
100
AcDbEntity
  8
0
100
AcDbBlockEnd
  0
BLOCK
  5
1C
100
AcDbEntity
 67
1
  8
0
100
AcDbBlockBegin
  2
*Paper_Space
 70
0
 10
0.0
 20
0.0
 30
0.0
  3
*Paper_Space
  1

  0
ENDBLK
  5
1D
100
AcDbEntity
 67
1
  8
0
100
AcDbBlockEnd
  0
BLOCK
  5
24
100
AcDbEntity
  8
0
100
AcDbBlockBegin
  2
*Paper_Space0
 70
0
 10
0.0
 20
0.0
 30
0.0
  3
*Paper_Space0
  1

  0
ENDBLK
  5
25
100
AcDbEntity
  8
0
100
AcDbBlockEnd
  0
ENDSEC
  0
SECTION
  2
ENTITIES
  0
SPLINE
  5
6F
  8
Cut
 62
256
370
-1
 48
1.0
  6
BYLAYER
100
AcDbEntity
100
AcDbSpline
 70
8
 71
3
 72
8
 73
4
 74
0
 40
0.0
 40
0.0
 40
0.0
 40
0.0
 40
1.0
 40
1.0
 40
1.0
 40
1.0
 10
42.8221079190645781
 20
32.4211780378719041
 30
0.0
 10
43.4408979190645681
 20
32.5023940378719445
 30
0.0
 10
43.7579279190645849
 20
32.4785290378719438
 30
0.0
 10
44.3085979190645816
 20
32.4785290378719438
 30
0.0
  0
SPLINE
  5
70
  8
Cut
 62
256
370
-1
 48
1.0
  6
BYLAYER
100
AcDbEntity
100
AcDbSpline
 70
8
 71
3
 72
8
 73
4
 74
0
 40
0.0
 40
0.0
 40
0.0
 40
0.0
 40
1.0
 40
1.0
 40
1.0
 40
1.0
 10
44.3085979190645816
 20
32.4785290378719438
 30
0.0
 10
44.971977919064571
 20
32.4785290378719438
 30
0.0
 10
46.1950879190645907
 20
32.4787990378719442
 30
0.0
 10
46.8761679190645708
 20
32.4785290378719438
 30
0.0
  0
SPLINE
  5
71
  8
Cut
 62
256
370
-1
 48
1.0
  6
BYLAYER
100
AcDbEntity
100
AcDbSpline
 70
8
 71
3
 72
8
 73
4
 74
0
 40
0.0
 40
0.0
 40
0.0
 40
0.0
 40
1.0
 40
1.0
 40
1.0
 40
1.0
 10
46.8761679190645708
 20
32.4785290378719438
 30
0.0
 10
47.2815679190645852
 20
32.478367037871898
 30
0.0
 10
47.5653579190645672
 20
32.4862290378719436
 30
0.0
 10
47.9572479190645851
 20
32.4399480378719218
 30
0.0
  0
SPLINE
  5
72
  8
Cut
 62
256
370
-1
 48
1.0
  6
BYLAYER
100
AcDbEntity
100
AcDbSpline
 70
8
 71
3
 72
8
 73
4
 74
0
 40
0.0
 40
0.0
 40
0.0
 40
0.0
 40
1.0
 40
1.0
 40
1.0
 40
1.0
 10
47.9572479190645851
 20
32.4399480378719218
 30
0.0
 10
50.0680579190645716
 20
32.1908940378719208
 30
0.0
 10
52.4667079190645751
 20
31.7889480378719149
 30
0.0
 10
54.5788679190645922
 20
31.0821240378719317
 30
0.0
  0
SPLINE
  5
73
  8
Cut
 62
256
370
-1
 48
1.0
  6
BYLAYER
100
AcDbEntity
100
AcDbSpline
 70
8
 71
3
 72
8
 73
4
 74
0
 40
0.0
 40
0.0
 40
0.0
 40
0.0
 40
1.0
 40
1.0
 40
1.0
 40
1.0
 10
54.5788679190645922
 20
31.0821240378719317
 30
0.0
 10
56.8991379190645858
 20
30.3057590378719333
 30
0.0
 10
59.7761679190645765
 20
28.9415430378719343
 30
0.0
 10
60.1950879190645907
 20
26.2623130378719161
 30
0.0
  0
SPLINE
  5
74
  8
Cut
 62
256
370
-1
 48
1.0
  6
BYLAYER
100
AcDbEntity
100
AcDbSpline
 70
8
 71
3
 72
8
 73
4
 74
0
 40
0.0
 40
0.0
 40
0.0
 40
0.0
 40
1.0
 40
1.0
 40
1.0
 40
1.0
 10
60.1950879190645907
 20
26.2623130378719161
 30
0.0
 10
60.3085979190645816
 20
25.5374070378719402
 30
0.0
 10
60.1004879190645767
 20
24.6759480378719154
 30
0.0
 10
59.8869779190645914
 20
23.965015037871904
 30
0.0
  0
SPLINE
  5
75
  8
Cut
 62
256
370
-1
 48
1.0
  6
BYLAYER
100
AcDbEntity
100
AcDbSpline
 70
8
 71
3
 72
8
 73
4
 74
0
 40
0.0
 40
0.0
 40
0.0
 40
0.0
 40
1.0
 40
1.0
 40
1.0
 40
1.0
 10
59.8869779190645914
 20
23.965015037871904
 30
0.0
 10
59.4856279190645836
 20
22.6289340378719253
 30
0.0
 10
58.8410379190645898
 20
21.3252850378719181
 30
0.0
 10
58.2842779190645928
 20
20.0460960378719442
 30
0.0
  0
SPLINE
  5
76
  8
Cut
 62
256
370
-1
 48
1.0
  6
BYLAYER
100
AcDbEntity
100
AcDbSpline
 70
8
 71
3
 72
8
 73
4
 74
0
 40
0.0
 40
0.0
 40
0.0
 40
0.0
 40
1.0
 40
1.0
 40
1.0
 40
1.0
 10
58.2842779190645928
 20
20.0460960378719442
 30
0.0
 10
57.2599479190645724
 20
17.6913680378719214
 30
0.0
 10
56.1964379190645644
 20
15.3978530378719078
 30
0.0
 10
55.6450879190645793
 20
12.8839350378719182
 30
0.0
  0
SPLINE
  5
77
  8
Cut
 62
256
370
-1
 48
1.0
  6
BYLAYER
100
AcDbEntity
100
AcDbSpline
 70
8
 71
3
 72
8
 73
4
 74
0
 40
0.0
 40
0.0
 40
0.0
 40
0.0
 40
1.0
 40
1.0
 40
1.0
 40
1.0
 10
55.6450879190645793
 20
12.8839350378719182
 30
0.0
 10
55.3167079190645694
 20
11.3908270378719116
 30
0.0
 10
55.3288679190645922
 20
9.6577180378719554
 30
0.0
 10
55.3950879190645793
 20
8.1542050378719004
 30
0.0
  0
SPLINE
  5
78
  8
Cut
 62
256
370
-1
 48
1.0
  6
BYLAYER
100
AcDbEntity
100
AcDbSpline
 70
8
 71
3
 72
8
 73
4
 74
0
 40
0.0
 40
0.0
 40
0.0
 40
0.0
 40
1.0
 40
1.0
 40
1.0
 40
1.0
 10
55.3950879190645793
 20
8.1542050378719004
 30
0.0
 10
55.5004879190645823
 20
5.7531230378719274
 30
0.0
 10
56.6423879190645749
 20
3.2575840378719194
 30
0.0
 10
56.7356279190645836
 20
0.8569080378719436
 30
0.0
  0
SPLINE
  5
79
  8
Cut
 62
256
370
-1
 48
1.0
  6
BYLAYER
100
AcDbEntity
100
AcDbSpline
 70
8
 71
3
 72
8
 73
4
 74
0
 40
0.0
 40
0.0
 40
0.0
 40
0.0
 40
1.0
 40
1.0
 40
1.0
 40
1.0
 10
56.7356279190645836
 20
0.8569080378719436
 30
0.0
 10
56.7572279190645901
 20
0.3156920378719237
 30
0.0
 10
56.7099279190645831
 20
-0.1521459621280483
 30
0.0
 10
56.4707679190645848
 20
-0.6294429621280697
 30
0.0
  0
SPLINE
  5
7A
  8
Cut
 62
256
370
-1
 48
1.0
  6
BYLAYER
100
AcDbEntity
100
AcDbSpline
 70
8
 71
3
 72
8
 73
4
 74
0
 40
0.0
 40
0.0
 40
0.0
 40
0.0
 40
1.0
 40
1.0
 40
1.0
 40
1.0
 10
56.4707679190645848
 20
-0.6294429621280697
 30
0.0
 10
55.6640079190645878
 20
-2.2337679621280868
 30
0.0
 10
53.4653579190645729
 20
-2.6074159621280897
 30
0.0
 10
51.8761679190645708
 20
-2.7689029621280552
 30
0.0
  0
SPLINE
  5
7B
  8
Cut
 62
256
370
-1
 48
1.0
  6
BYLAYER
100
AcDbEntity
100
AcDbSpline
 70
8
 71
3
 72
8
 73
4
 74
0
 40
0.0
 40
0.0
 40
0.0
 40
0.0
 40
1.0
 40
1.0
 40
1.0
 40
1.0
 10
51.8761679190645708
 20
-2.7689029621280552
 30
0.0
 10
51.5883279190645823
 20
-2.7980929621280834
 30
0.0
 10
51.3545479190645864
 20
-2.7956629621280795
 30
0.0
 10
51.0653579190645672
 20
-2.8303929621280473
 30
0.0
  0
SPLINE
  5
7C
  8
Cut
 62
256
370
-1
 48
1.0
  6
BYLAYER
100
AcDbEntity
100
AcDbSpline
 70
8
 71
3
 72
8
 73
4
 74
0
 40
0.0
 40
0.0
 40
0.0
 40
0.0
 40
1.0
 40
1.0
 40
1.0
 40
1.0
 10
51.0653579190645672
 20
-2.8303929621280473
 30
0.0
 10
50.7437379190645714
 20
-2.8687729621280651
 30
0.0
 10
50.570757919064576
 20
-2.9076929621280838
 30
0.0
 10
50.2545479190645921
 20
-2.9216129621280684
 30
0.0
  0
SPLINE
  5
7D
  8
Steg
 62
256
370
-1
 48
1.0
  6
BYLAYER
100
AcDbEntity
100
AcDbSpline
 70
8
 71
3
 72
8
 73
4
 74
0
 40
0.0
 40
0.0
 40
0.0
 40
0.0
 40
1.0
 40
1.0
 40
1.0
 40
1.0
 10
50.2545479190645921
 20
-2.9216129621280684
 30
0.0
 10
49.7775179190645787
 20
-2.9424229621280515
 30
0.0
 10
49.4450879190645907
 20
-2.9269129621280454
 30
0.0
 10
49.0383279190645709
 20
-2.9269129621280454
 30
0.0
  0
SPLINE
  5
7E
  8
Cut
 62
256
370
-1
 48
1.0
  6
BYLAYER
100
AcDbEntity
100
AcDbSpline
 70
8
 71
3
 72
8
 73
4
 74
0
 40
0.0
 40
0.0
 40
0.0
 40
0.0
 40
1.0
 40
1.0
 40
1.0
 40
1.0
 10
49.0383279190645709
 20
-2.9269129621280454
 30
0.0
 10
48.5599479190645837
 20
-2.9269129621280454
 30
0.0
 10
47.0626579190645913
 20
-3.0639399621280914
 30
0.0
 10
46.6491379190645858
 20
-2.7879939621280583
 30
0.0
  0
SPLINE
  5
7F
  8
Cut
 62
256
370
-1
 48
1.0
  6
BYLAYER
100
AcDbEntity
100
AcDbSpline
 70
8
 71
3
 72
8
 73
4
 74
0
 40
0.0
 40
0.0
 40
0.0
 40
0.0
 40
1.0
 40
1.0
 40
1.0
 40
1.0
 10
46.6491379190645858
 20
-2.7879939621280583
 30
0.0
 10
46.2829279190645906
 20
-2.5442099621280532
 30
0.0
 10
46.3383279190645823
 20
-2.1570479621280638
 30
0.0
 10
46.3356279190645779
 20
-1.7106959621280735
 30
0.0
  0
SPLINE
  5
80
  8
Cut
 62
256
370
-1
 48
1.0
  6
BYLAYER
100
AcDbEntity
100
AcDbSpline
 70
8
 71
3
 72
8
 73
4
 74
0
 40
0.0
 40
0.0
 40
0.0
 40
0.0
 40
1.0
 40
1.0
 40
1.0
 40
1.0
 10
46.3356279190645779
 20
-1.7106959621280735
 30
0.0
 10
46.3306279190645824
 20
-0.8593449621280511
 30
0.0
 10
46.3356279190645779
 20
0.1275470378719037
 30
0.0
 10
46.3356279190645779
 20
0.9920060378719144
 30
0.0
  0
SPLINE
  5
81
  8
Cut
 62
256
370
-1
 48
1.0
  6
BYLAYER
100
AcDbEntity
100
AcDbSpline
 70
8
 71
3
 72
8
 73
4
 74
0
 40
0.0
 40
0.0
 40
0.0
 40
0.0
 40
1.0
 40
1.0
 40
1.0
 40
1.0
 10
46.3356279190645779
 20
12.6136650378719359
 30
0.0
 10
46.3356279190645779
 20
14.1509620378719028
 30
0.0
 10
46.4180279190645848
 20
15.8198810378719195
 30
0.0
 10
46.3306279190645824
 20
17.3433950378719537
 30
0.0
  0
SPLINE
  5
82
  8
Cut
 62
256
370
-1
 48
1.0
  6
BYLAYER
100
AcDbEntity
100
AcDbSpline
 70
8
 71
3
 72
8
 73
4
 74
0
 40
0.0
 40
0.0
 40
0.0
 40
0.0
 40
1.0
 40
1.0
 40
1.0
 40
1.0
 10
46.3306279190645824
 20
17.3433950378719537
 30
0.0
 10
46.2914279190645885
 20
18.0152860378719133
 30
0.0
 10
46.0008979190645704
 20
18.6894760378719234
 30
0.0
 10
45.2544179190645792
 20
18.8642050378719368
 30
0.0
  0
SPLINE
  5
83
  8
Cut
 62
256
370
-1
 48
1.0
  6
BYLAYER
100
AcDbEntity
100
AcDbSpline
 70
8
 71
3
 72
8
 73
4
 74
0
 40
0.0
 40
0.0
 40
0.0
 40
0.0
 40
1.0
 40
1.0
 40
1.0
 40
1.0
 10
45.2544179190645792
 20
18.8642050378719368
 30
0.0
 10
44.1587379190645919
 20
19.1208270378719298
 30
0.0
 10
43.774007919064573
 20
18.1344760378719165
 30
0.0
 10
43.7686079190645927
 20
17.3433950378719537
 30
0.0
  0
SPLINE
  5
84
  8
Cut
 62
256
370
-1
 48
1.0
  6
BYLAYER
100
AcDbEntity
100
AcDbSpline
 70
8
 71
3
 72
8
 73
4
 74
0
 40
0.0
 40
0.0
 40
0.0
 40
0.0
 40
1.0
 40
1.0
 40
1.0
 40
1.0
 10
43.7686079190645927
 20
17.3433950378719537
 30
0.0
 10
43.7566079190645922
 20
15.6070430378719429
 30
0.0
 10
43.7684679190645767
 20
13.6910970378719234
 30
0.0
 10
43.7684679190645767
 20
11.937989037871926
 30
0.0
  0
SPLINE
  5
85
  8
Cut
 62
256
370
-1
 48
1.0
  6
BYLAYER
100
AcDbEntity
100
AcDbSpline
 70
8
 71
3
 72
8
 73
4
 74
0
 40
0.0
 40
0.0
 40
0.0
 40
0.0
 40
1.0
 40
1.0
 40
1.0
 40
1.0
 10
43.7684679190645767
 20
11.937989037871926
 30
0.0
 10
43.7684679190645767
 20
11.2536650378719223
 30
0.0
 10
43.7499679190645878
 20
10.441773037871922
 30
0.0
 10
43.7704679190645862
 20
9.7758270378719025
 30
0.0
  0
SPLINE
  5
86
  8
Cut
 62
256
370
-1
 48
1.0
  6
BYLAYER
100
AcDbEntity
100
AcDbSpline
 70
8
 71
3
 72
8
 73
4
 74
0
 40
0.0
 40
0.0
 40
0.0
 40
0.0
 40
1.0
 40
1.0
 40
1.0
 40
1.0
 10
43.7704679190645862
 20
9.7758270378719025
 30
0.0
 10
43.7858679190645859
 20
9.2778540378719008
 30
0.0
 10
43.9603279190645679
 20
8.9186650378719428
 30
0.0
 10
44.1455979190645706
 20
8.424476037871937
 30
0.0
  0
SPLINE
  5
87
  8
Cut
 62
256
370
-1
 48
1.0
  6
BYLAYER
100
AcDbEntity
100
AcDbSpline
 70
8
 71
3
 72
8
 73
4
 74
0
 40
0.0
 40
0.0
 40
0.0
 40
0.0
 40
1.0
 40
1.0
 40
1.0
 40
1.0
 10
44.1455979190645706
 20
8.424476037871937
 30
0.0
 10
44.2728979190645902
 20
8.085016037871906
 30
0.0
 10
44.3049279190645819
 20
7.8485300378719502
 30
0.0
 10
44.3050579190645664
 20
7.4785300378719457
 30
0.0
  0
SPLINE
  5
88
  8
Cut
 62
256
370
-1
 48
1.0
  6
BYLAYER
100
AcDbEntity
100
AcDbSpline
 70
8
 71
3
 72
8
 73
4
 74
0
 40
0.0
 40
0.0
 40
0.0
 40
0.0
 40
1.0
 40
1.0
 40
1.0
 40
1.0
 10
44.3050579190645664
 20
7.4785300378719457
 30
0.0
 10
44.3051979190645824
 20
6.7460970378719312
 30
0.0
 10
43.948437919064574
 20
6.3402860378719028
 30
0.0
 10
43.8054679190645828
 20
5.5866380378719045
 30
0.0
  0
SPLINE
  5
89
  8
Cut
 62
256
370
-1
 48
1.0
  6
BYLAYER
100
AcDbEntity
100
AcDbSpline
 70
8
 71
3
 72
8
 73
4
 74
0
 40
0.0
 40
0.0
 40
0.0
 40
0.0
 40
1.0
 40
1.0
 40
1.0
 40
1.0
 10
43.8054679190645828
 20
5.5866380378719045
 30
0.0
 10
43.6062779190645671
 20
4.5367730378719502
 30
0.0
 10
43.7684679190645767
 20
3.1847460378719292
 30
0.0
 10
43.7684679190645767
 20
2.073124037871918
 30
0.0
  0
SPLINE
  5
8A
  8
Cut
 62
256
370
-1
 48
1.0
  6
BYLAYER
100
AcDbEntity
100
AcDbSpline
 70
8
 71
3
 72
8
 73
4
 74
0
 40
0.0
 40
0.0
 40
0.0
 40
0.0
 40
1.0
 40
1.0
 40
1.0
 40
1.0
 10
43.7684679190645767
 20
2.073124037871918
 30
0.0
 10
43.7684679190645767
 20
0.9516380378719136
 30
0.0
 10
43.7754679190645817
 20
-0.336469962128052
 30
0.0
 10
43.7683379190645923
 20
-1.440388962128071
 30
0.0
  0
SPLINE
  5
8B
  8
Cut
 62
256
370
-1
 48
1.0
  6
BYLAYER
100
AcDbEntity
100
AcDbSpline
 70
8
 71
3
 72
8
 73
4
 74
0
 40
0.0
 40
0.0
 40
0.0
 40
0.0
 40
1.0
 40
1.0
 40
1.0
 40
1.0
 10
43.7683379190645923
 20
-1.440388962128071
 30
0.0
 10
43.7663379190645827
 20
-1.8075509621280785
 30
0.0
 10
43.8056379190645799
 20
-2.0690379621280668
 30
0.0
 10
43.6295479190645921
 20
-2.3663349621280814
 30
0.0
  0
SPLINE
  5
8C
  8
Cut
 62
256
370
-1
 48
1.0
  6
BYLAYER
100
AcDbEntity
100
AcDbSpline
 70
8
 71
3
 72
8
 73
4
 74
0
 40
0.0
 40
0.0
 40
0.0
 40
0.0
 40
1.0
 40
1.0
 40
1.0
 40
1.0
 10
43.6295479190645921
 20
-2.3663349621280814
 30
0.0
 10
43.4654979190645889
 20
-2.6434969621280571
 30
0.0
 10
43.2457679190645905
 20
-2.7259299621280944
 30
0.0
 10
42.9569779190645846
 20
-2.7717409621280522
 30
0.0
  0
SPLINE
  5
8D
  8
Cut
 62
256
370
-1
 48
1.0
  6
BYLAYER
100
AcDbEntity
100
AcDbSpline
 70
8
 71
3
 72
8
 73
4
 74
0
 40
0.0
 40
0.0
 40
0.0
 40
0.0
 40
1.0
 40
1.0
 40
1.0
 40
1.0
 10
42.9569779190645846
 20
-2.7717409621280522
 30
0.0
 10
42.4053579190645706
 20
-2.8591709621280925
 30
0.0
 10
41.8575179190645912
 20
-2.7917409621280909
 30
0.0
 10
41.2008979190645874
 20
-2.7917409621280909
 30
0.0
  0
SPLINE
  5
8E
  8
Cut
 62
256
370
-1
 48
1.0
  6
BYLAYER
100
AcDbEntity
100
AcDbSpline
 70
8
 71
3
 72
8
 73
4
 74
0
 40
0.0
 40
0.0
 40
0.0
 40
0.0
 40
1.0
 40
1.0
 40
1.0
 40
1.0
 10
41.2008979190645874
 20
-2.7917409621280909
 30
0.0
 10
40.2792779190645689
 20
-2.7917409621280909
 30
0.0
 10
39.4615779190645668
 20
-2.847960962128087
 30
0.0
 10
38.6333379190645729
 20
-2.7687709621280474
 30
0.0
  0
SPLINE
  5
8F
  8
Cut
 62
256
370
-1
 48
1.0
  6
BYLAYER
100
AcDbEntity
100
AcDbSpline
 70
8
 71
3
 72
8
 73
4
 74
0
 40
0.0
 40
0.0
 40
0.0
 40
0.0
 40
1.0
 40
1.0
 40
1.0
 40
1.0
 10
38.6333379190645729
 20
-2.7687709621280474
 30
0.0
 10
37.3065779190645799
 20
-2.6420139621280496
 30
0.0
 10
35.6826579190645816
 20
-2.4006619621281002
 30
0.0
 10
34.5798179190645811
 20
-1.6040409621280842
 30
0.0
  0
SPLINE
  5
90
  8
Cut
 62
256
370
-1
 48
1.0
  6
BYLAYER
100
AcDbEntity
100
AcDbSpline
 70
8
 71
3
 72
8
 73
4
 74
0
 40
0.0
 40
0.0
 40
0.0
 40
0.0
 40
1.0
 40
1.0
 40
1.0
 40
1.0
 10
34.5798179190645811
 20
-1.6040409621280842
 30
0.0
 10
33.6283279190645743
 20
-0.9167439621280833
 30
0.0
 10
33.2652279190645856
 20
0.1355540378719242
 30
0.0
 10
33.4017079190645774
 20
1.262311037871922
 30
0.0
  0
SPLINE
  5
91
  8
Cut
 62
256
370
-1
 48
1.0
  6
BYLAYER
100
AcDbEntity
100
AcDbSpline
 70
8
 71
3
 72
8
 73
4
 74
0
 40
0.0
 40
0.0
 40
0.0
 40
0.0
 40
1.0
 40
1.0
 40
1.0
 40
1.0
 10
33.4017079190645774
 20
1.262311037871922
 30
0.0
 10
33.5488679190645769
 20
2.4759590378718999
 30
0.0
 10
33.9211679190645725
 20
3.6969050378719261
 30
0.0
 10
34.2696879190645802
 20
4.9109590378719021
 30
0.0
  0
SPLINE
  5
92
  8
Cut
 62
256
370
-1
 48
1.0
  6
BYLAYER
100
AcDbEntity
100
AcDbSpline
 70
8
 71
3
 72
8
 73
4
 74
0
 40
0.0
 40
0.0
 40
0.0
 40
0.0
 40
1.0
 40
1.0
 40
1.0
 40
1.0
 10
34.2696879190645802
 20
4.9109590378719021
 30
0.0
 10
35.1194179190645741
 20
7.8712290378719389
 30
0.0
 10
35.3211679190645782
 20
10.9813650378719494
 30
0.0
 10
35.7176579190645782
 20
13.9650130378719091
 30
0.0
  0
SPLINE
  5
93
  8
Cut
 62
256
370
-1
 48
1.0
  6
BYLAYER
100
AcDbEntity
100
AcDbSpline
 70
8
 71
3
 72
8
 73
4
 74
0
 40
0.0
 40
0.0
 40
0.0
 40
0.0
 40
1.0
 40
1.0
 40
1.0
 40
1.0
 10
35.7176579190645782
 20
13.9650130378719091
 30
0.0
 10
36.0331979190645768
 20
16.3386620378719094
 30
0.0
 10
35.8429279190645786
 20
19.0770400378719209
 30
0.0
 10
35.3899579190645852
 20
21.3974460378719122
 30
0.0
  0
SPLINE
  5
94
  8
Cut
 62
256
370
-1
 48
1.0
  6
BYLAYER
100
AcDbEntity
100
AcDbSpline
 70
8
 71
3
 72
8
 73
4
 74
0
 40
0.0
 40
0.0
 40
0.0
 40
0.0
 40
1.0
 40
1.0
 40
1.0
 40
1.0
 10
35.3899579190645852
 20
21.3974460378719122
 30
0.0
 10
34.8926579190645754
 20
23.9452830378719277
 30
0.0
 10
32.949147919064572
 20
27.9502430378719104
 30
0.0
 10
34.5595479190645847
 20
30.3143920378719081
 30
0.0
  0
SPLINE
  5
95
  8
Cut
 62
256
370
-1
 48
1.0
  6
BYLAYER
100
AcDbEntity
100
AcDbSpline
 70
8
 71
3
 72
8
 73
4
 74
0
 40
0.0
 40
0.0
 40
0.0
 40
0.0
 40
1.0
 40
1.0
 40
1.0
 40
1.0
 10
34.5595479190645847
 20
30.3143920378719081
 30
0.0
 10
35.4698179190645817
 20
31.6506080378719439
 30
0.0
 10
37.4345479190645847
 20
31.9761350378719094
 30
0.0
 10
38.9036079190645836
 20
32.0764590378719063
 30
0.0
  0
SPLINE
  5
96
  8
Cut
 62
256
370
-1
 48
1.0
  6
BYLAYER
100
AcDbEntity
100
AcDbSpline
 70
8
 71
3
 72
8
 73
4
 74
0
 40
0.0
 40
0.0
 40
0.0
 40
0.0
 40
1.0
 40
1.0
 40
1.0
 40
1.0
 10
38.9036079190645836
 20
32.0764590378719063
 30
0.0
 10
39.7153579190645729
 20
32.1318780378719353
 30
0.0
 10
40.4806279190645881
 20
32.2518920378719045
 30
0.0
 10
41.2008979190645874
 20
32.3204460378719105
 30
0.0
  0
SPLINE
  5
97
  8
Cut
 62
256
370
-1
 48
1.0
  6
BYLAYER
100
AcDbEntity
100
AcDbSpline
 70
8
 71
3
 72
8
 73
4
 74
0
 40
0.0
 40
0.0
 40
0.0
 40
0.0
 40
1.0
 40
1.0
 40
1.0
 40
1.0
 10
41.2008979190645874
 20
32.3204460378719105
 30
0.0
 10
42.1057679190645757
 20
32.4065540378719348
 30
0.0
 10
41.8530679190645714
 20
32.2939060378718992
 30
0.0
 10
42.8225179190645662
 20
32.4211750378719117
 30
0.0
  0
LWPOLYLINE
  5
98
  8
Cut
 62
256
370
-1
 48
1.0
  6
BYLAYER
100
AcDbEntity
100
AcDbPolyline
 90
2
 70
0
 10
46.3356279190645779
 20
0.9920060378719144
 30
0.0
 10
46.3356279190645779
 20
12.6136650378719359
 30
0.0
  0
SPLINE
  5
99
  8
Cut
 62
256
370
-1
 48
1.0
  6
BYLAYER
100
AcDbEntity
100
AcDbSpline
 70
8
 71
3
 72
8
 73
4
 74
0
 40
0.0
 40
0.0
 40
0.0
 40
0.0
 40
1.0
 40
1.0
 40
1.0
 40
1.0
 10
1.3652361698382602
 20
16.070929780848477
 30
0.0
 10
1.474706547822743
 20
16.4748380374414083
 30
0.0
 10
1.6902328488414486
 20
16.7378405411731954
 30
0.0
 10
2.0849924301463663
 20
16.8640841927679297
 30
0.0
  0
SPLINE
  5
9A
  8
Cut
 62
256
370
-1
 48
1.0
  6
BYLAYER
100
AcDbEntity
100
AcDbSpline
 70
8
 71
3
 72
8
 73
4
 74
0
 40
0.0
 40
0.0
 40
0.0
 40
0.0
 40
1.0
 40
1.0
 40
1.0
 40
1.0
 10
2.0849924301463663
 20
16.8640841927679297
 30
0.0
 10
3.1427125222006698
 20
17.2024691323923804
 30
0.0
 10
4.5821604415457404
 20
16.8000860635473579
 30
0.0
 10
5.7061024648878682
 20
16.727950752737673
 30
0.0
  0
SPLINE
  5
9B
  8
Cut
 62
256
370
-1
 48
1.0
  6
BYLAYER
100
AcDbEntity
100
AcDbSpline
 70
8
 71
3
 72
8
 73
4
 74
0
 40
0.0
 40
0.0
 40
0.0
 40
0.0
 40
1.0
 40
1.0
 40
1.0
 40
1.0
 10
5.7061024648878682
 20
16.727950752737673
 30
0.0
 10
6.1456069737938979
 20
16.6996348923185245
 30
0.0
 10
6.7623637496768954
 20
16.7431689640602457
 30
0.0
 10
7.0713966536962207
 20
16.4152496550322695
 30
0.0
  0
SPLINE
  5
9C
  8
Cut
 62
256
370
-1
 48
1.0
  6
BYLAYER
100
AcDbEntity
100
AcDbSpline
 70
8
 71
3
 72
8
 73
4
 74
0
 40
0.0
 40
0.0
 40
0.0
 40
0.0
 40
1.0
 40
1.0
 40
1.0
 40
1.0
 10
7.0713966536962207
 20
16.4152496550322695
 30
0.0
 10
7.9132363811796047
 20
15.5219388348634695
 30
0.0
 10
6.8644711330561847
 20
13.6131641399011123
 30
0.0
 10
7.196749989681825
 20
12.4396080018576356
 30
0.0
  0
SPLINE
  5
9D
  8
Cut
 62
256
370
-1
 48
1.0
  6
BYLAYER
100
AcDbEntity
100
AcDbSpline
 70
8
 71
3
 72
8
 73
4
 74
0
 40
0.0
 40
0.0
 40
0.0
 40
0.0
 40
1.0
 40
1.0
 40
1.0
 40
1.0
 10
7.196749989681825
 20
12.4396080018576356
 30
0.0
 10
7.380525330125252
 20
11.79109622868393
 30
0.0
 10
8.1620746350180848
 20
11.3918993333784435
 30
0.0
 10
8.7775805144995651
 20
11.6581467889977262
 30
0.0
  0
SPLINE
  5
9E
  8
Cut
 62
256
370
-1
 48
1.0
  6
BYLAYER
100
AcDbEntity
100
AcDbSpline
 70
8
 71
3
 72
8
 73
4
 74
0
 40
0.0
 40
0.0
 40
0.0
 40
0.0
 40
1.0
 40
1.0
 40
1.0
 40
1.0
 10
8.7775805144995651
 20
11.6581467889977262
 30
0.0
 10
10.364680814692651
 20
12.3443851456399543
 30
0.0
 10
9.062256303653907
 20
15.6696597194978047
 30
0.0
 10
9.9246461709506733
 20
16.9092827855883989
 30
0.0
  0
SPLINE
  5
9F
  8
Cut
 62
256
370
-1
 48
1.0
  6
BYLAYER
100
AcDbEntity
100
AcDbSpline
 70
8
 71
3
 72
8
 73
4
 74
0
 40
0.0
 40
0.0
 40
0.0
 40
0.0
 40
1.0
 40
1.0
 40
1.0
 40
1.0
 10
9.9246461709506733
 20
16.9092827855883989
 30
0.0
 10
11.028895465670649
 20
18.4963786682654572
 30
0.0
 10
14.0995076684547875
 20
16.4456350138285892
 30
0.0
 10
15.4244751970660428
 20
17.3605460917622629
 30
0.0
  0
SPLINE
  5
A0
  8
Cut
 62
256
370
-1
 48
1.0
  6
BYLAYER
100
AcDbEntity
100
AcDbSpline
 70
8
 71
3
 72
8
 73
4
 74
0
 40
0.0
 40
0.0
 40
0.0
 40
0.0
 40
1.0
 40
1.0
 40
1.0
 40
1.0
 10
15.4244751970660428
 20
17.3605460917622629
 30
0.0
 10
15.8120685979609181
 20
17.6287175547905797
 30
0.0
 10
15.7534571150731377
 20
18.2658994885219848
 30
0.0
 10
15.7795515119325405
 20
18.6845163096753488
 30
0.0
  0
SPLINE
  5
A1
  8
Cut
 62
256
370
-1
 48
1.0
  6
BYLAYER
100
AcDbEntity
100
AcDbSpline
 70
8
 71
3
 72
8
 73
4
 74
0
 40
0.0
 40
0.0
 40
0.0
 40
0.0
 40
1.0
 40
1.0
 40
1.0
 40
1.0
 10
15.7795515119325405
 20
18.6845163096753488
 30
0.0
 10
15.8433946287572329
 20
19.7259158317292567
 30
0.0
 10
15.5787728086667183
 20
21.7569773945411775
 30
0.0
 10
16.9104057147310556
 20
22.028613244875185
 30
0.0
  0
SPLINE
  5
A2
  8
Cut
 62
256
370
-1
 48
1.0
  6
BYLAYER
100
AcDbEntity
100
AcDbSpline
 70
8
 71
3
 72
8
 73
4
 74
0
 40
0.0
 40
0.0
 40
0.0
 40
0.0
 40
1.0
 40
1.0
 40
1.0
 40
1.0
 10
16.9104057147310556
 20
22.028613244875185
 30
0.0
 10
18.0483658544992807
 20
22.25973802394196
 30
0.0
 10
19.3643938982868491
 20
21.9361054599674752
 30
0.0
 10
20.5449487754907878
 20
21.8648864884079437
 30
0.0
  0
SPLINE
  5
A3
  8
Cut
 62
256
370
-1
 48
1.0
  6
BYLAYER
100
AcDbEntity
100
AcDbSpline
 70
8
 71
3
 72
8
 73
4
 74
0
 40
0.0
 40
0.0
 40
0.0
 40
0.0
 40
1.0
 40
1.0
 40
1.0
 40
1.0
 10
20.5449487754907878
 20
21.8648864884079437
 30
0.0
 10
22.7645924190453499
 20
21.7317820537417425
 30
0.0
 10
24.986159604591613
 20
21.6317692915356652
 30
0.0
 10
27.207386042695326
 20
21.4986863374465322
 30
0.0
  0
SPLINE
  5
A4
  8
Cut
 62
256
370
-1
 48
1.0
  6
BYLAYER
100
AcDbEntity
100
AcDbSpline
 70
8
 71
3
 72
8
 73
4
 74
0
 40
0.0
 40
0.0
 40
0.0
 40
0.0
 40
1.0
 40
1.0
 40
1.0
 40
1.0
 10
27.207386042695326
 20
21.4986863374465322
 30
0.0
 10
29.8103674980413302
 20
-0.9569375307345718
 30
0.0
 10
30.1373314578455265
 20
-3.0531993401098037
 30
0.0
 10
28.9058315363557838
 20
-3.3895197736471347
 30
0.0
  0
SPLINE
  5
A5
  8
Cut
 62
256
370
-1
 48
1.0
  6
BYLAYER
100
AcDbEntity
100
AcDbSpline
 70
8
 71
3
 72
8
 73
4
 74
0
 40
0.0
 40
0.0
 40
0.0
 40
0.0
 40
1.0
 40
1.0
 40
1.0
 40
1.0
 10
28.9058315363557838
 20
-3.3895197736471347
 30
0.0
 10
28.0230671763185981
 20
-3.6305124963425479
 30
0.0
 10
26.9168790173931356
 20
-3.373666590332518
 30
0.0
 10
25.9854331093383735
 20
-3.3472182275855316
 30
0.0
  0
SPLINE
  5
A6
  8
Cut
 62
256
370
-1
 48
1.0
  6
BYLAYER
100
AcDbEntity
100
AcDbSpline
 70
8
 71
3
 72
8
 73
4
 74
0
 40
0.0
 40
0.0
 40
0.0
 40
0.0
 40
1.0
 40
1.0
 40
1.0
 40
1.0
 10
24.9212531530144901
 20
-3.3091119803349089
 30
0.0
 10
23.5705340943566526
 20
-3.2790060166818966
 30
0.0
 10
21.1433552925385015
 20
-3.1102830204850678
 30
0.0
 10
18.7077957141137645
 20
-2.964215955177754
 30
0.0
  0
SPLINE
  5
A7
  8
Cut
 62
256
370
-1
 48
1.0
  6
BYLAYER
100
AcDbEntity
100
AcDbSpline
 70
8
 71
3
 72
8
 73
4
 74
0
 40
0.0
 40
0.0
 40
0.0
 40
0.0
 40
1.0
 40
1.0
 40
1.0
 40
1.0
 10
18.7077957141137645
 20
-2.964215955177754
 30
0.0
 10
17.7866734483704789
 20
-2.9090465194281139
 30
0.0
 10
15.9603218062535976
 20
-3.0553403560614418
 30
0.0
 10
15.2178471953457279
 20
-2.5202841054837508
 30
0.0
  0
SPLINE
  5
A8
  8
Cut
 62
256
370
-1
 48
1.0
  6
BYLAYER
100
AcDbEntity
100
AcDbSpline
 70
8
 71
3
 72
8
 73
4
 74
0
 40
0.0
 40
0.0
 40
0.0
 40
0.0
 40
1.0
 40
1.0
 40
1.0
 40
1.0
 10
15.2178471953457279
 20
-2.5202841054837508
 30
0.0
 10
14.3970526841503581
 20
-1.9287619014478219
 30
0.0
 10
14.8737089164165841
 20
0.1523709105816762
 30
0.0
 10
14.9027598781021684
 20
1.0685686522297981
 30
0.0
  0
SPLINE
  5
A9
  8
Cut
 62
256
370
-1
 48
1.0
  6
BYLAYER
100
AcDbEntity
100
AcDbSpline
 70
8
 71
3
 72
8
 73
4
 74
0
 40
0.0
 40
0.0
 40
0.0
 40
0.0
 40
1.0
 40
1.0
 40
1.0
 40
1.0
 10
14.9027598781021684
 20
1.0685686522297981
 30
0.0
 10
14.9159452457975181
 20
1.4891663789946215
 30
0.0
 10
14.9212263186400502
 20
2.0043134654763781
 30
0.0
 10
14.4974402040549517
 20
2.1957143834727804
 30
0.0
  0
SPLINE
  5
AA
  8
Cut
 62
256
370
-1
 48
1.0
  6
BYLAYER
100
AcDbEntity
100
AcDbSpline
 70
8
 71
3
 72
8
 73
4
 74
0
 40
0.0
 40
0.0
 40
0.0
 40
0.0
 40
1.0
 40
1.0
 40
1.0
 40
1.0
 10
14.4974402040549517
 20
2.1957143834727804
 30
0.0
 10
13.6312199796959987
 20
2.5867769443393884
 30
0.0
 10
12.4409680319436511
 20
2.4247400970245039
 30
0.0
 10
11.5294733133069691
 20
2.4613849335150482
 30
0.0
  0
SPLINE
  5
AB
  8
Cut
 62
256
370
-1
 48
1.0
  6
BYLAYER
100
AcDbEntity
100
AcDbSpline
 70
8
 71
3
 72
8
 73
4
 74
0
 40
0.0
 40
0.0
 40
0.0
 40
0.0
 40
1.0
 40
1.0
 40
1.0
 40
1.0
 10
11.5294733133069691
 20
2.4613849335150482
 30
0.0
 10
9.2609787197604785
 20
2.5531770407972063
 30
0.0
 10
7.0121270079516229
 20
2.7087716172560379
 30
0.0
 10
4.7216528089703882
 20
2.8463739311949459
 30
0.0
  0
SPLINE
  5
AC
  8
Cut
 62
256
370
-1
 48
1.0
  6
BYLAYER
100
AcDbEntity
100
AcDbSpline
 70
8
 71
3
 72
8
 73
4
 74
0
 40
0.0
 40
0.0
 40
0.0
 40
0.0
 40
1.0
 40
1.0
 40
1.0
 40
1.0
 10
4.7216528089703882
 20
2.8463739311949459
 30
0.0
 10
3.7489682080480424
 20
2.9047547826575313
 30
0.0
 10
2.0315903562763626
 20
2.6928890875955203
 30
0.0
 10
1.1994431049146339
 20
3.239567768858211
 30
0.0
  0
SPLINE
  5
AD
  8
Cut
 62
256
370
-1
 48
1.0
  6
BYLAYER
100
AcDbEntity
100
AcDbSpline
 70
8
 71
3
 72
8
 73
4
 74
0
 40
0.0
 40
0.0
 40
0.0
 40
0.0
 40
1.0
 40
1.0
 40
1.0
 40
1.0
 10
1.1994431049146339
 20
3.239567768858211
 30
0.0
 10
0.3047104161442338
 20
3.8272252927151662
 30
0.0
 10
0.7428256245321361
 20
5.4781830932116735
 30
0.0
 10
0.7982114148014769
 20
6.3999540959754944
 30
0.0
  0
SPLINE
  5
AE
  8
Cut
 62
256
370
-1
 48
1.0
  6
BYLAYER
100
AcDbEntity
100
AcDbSpline
 70
8
 71
3
 72
8
 73
4
 74
0
 40
0.0
 40
0.0
 40
0.0
 40
0.0
 40
1.0
 40
1.0
 40
1.0
 40
1.0
 10
0.7982114148014769
 20
6.3999540959754944
 30
0.0
 10
0.9135668818890448
 20
8.3217756259019922
 30
0.0
 10
1.0382748205527275
 20
10.2903761117747088
 30
0.0
 10
1.0905815260818965
 20
12.1676739833277665
 30
0.0
  0
SPLINE
  5
AF
  8
Cut
 62
256
370
-1
 48
1.0
  6
BYLAYER
100
AcDbEntity
100
AcDbSpline
 70
8
 71
3
 72
8
 73
4
 74
0
 40
0.0
 40
0.0
 40
0.0
 40
0.0
 40
1.0
 40
1.0
 40
1.0
 40
1.0
 10
1.0905815260818965
 20
12.1676739833277665
 30
0.0
 10
1.12347784534448
 20
13.3489520796725643
 30
0.0
 10
1.0454741531625675
 20
14.8901457216354984
 30
0.0
 10
1.3652361698382602
 20
16.070929780848477
 30
0.0
  0
SPLINE
  5
B0
  8
Cut
 62
256
370
-1
 48
1.0
  6
BYLAYER
100
AcDbEntity
100
AcDbSpline
 70
8
 71
3
 72
8
 73
4
 74
0
 40
0.0
 40
0.0
 40
0.0
 40
0.0
 40
1.0
 40
1.0
 40
1.0
 40
1.0
 10
3.4109286847625757
 20
51.4482501873506166
 30
0.0
 10
4.0911876847625823
 20
51.6268401873506164
 30
0.0
 10
4.7940406847625869
 20
51.2520701873506184
 30
0.0
 10
5.126593684762577
 20
50.5810101873506213
 30
0.0
  0
SPLINE
  5
B1
  8
Cut
 62
256
370
-1
 48
1.0
  6
BYLAYER
100
AcDbEntity
100
AcDbSpline
 70
8
 71
3
 72
8
 73
4
 74
0
 40
0.0
 40
0.0
 40
0.0
 40
0.0
 40
1.0
 40
1.0
 40
1.0
 40
1.0
 10
5.126593684762577
 20
50.5810101873506213
 30
0.0
 10
5.5868646847625829
 20
49.6515401873506121
 30
0.0
 10
5.3049116847625815
 20
48.2986001873506083
 30
0.0
 10
5.3049116847625815
 20
47.1986601873506189
 30
0.0
  0
SPLINE
  5
B2
  8
Cut
 62
256
370
-1
 48
1.0
  6
BYLAYER
100
AcDbEntity
100
AcDbSpline
 70
8
 71
3
 72
8
 73
4
 74
0
 40
0.0
 40
0.0
 40
0.0
 40
0.0
 40
1.0
 40
1.0
 40
1.0
 40
1.0
 10
5.3049116847625815
 20
39.3516001873506198
 30
0.0
 10
5.3049116847625815
 20
38.2773701873506198
 30
0.0
 10
5.2671616847625788
 20
36.7972501873506204
 30
0.0
 10
3.9518346847625825
 20
36.5699601873506097
 30
0.0
  0
SPLINE
  5
B3
  8
Cut
 62
256
370
-1
 48
1.0
  6
BYLAYER
100
AcDbEntity
100
AcDbSpline
 70
8
 71
3
 72
8
 73
4
 74
0
 40
0.0
 40
0.0
 40
0.0
 40
0.0
 40
1.0
 40
1.0
 40
1.0
 40
1.0
 10
3.9518346847625825
 20
36.5699601873506097
 30
0.0
 10
3.5651646847625873
 20
36.5023601873506109
 30
0.0
 10
3.1956756847625858
 20
36.6294601873506096
 30
0.0
 10
2.8843646847625823
 20
36.8689601873506163
 30
0.0
  0
SPLINE
  5
B4
  8
Cut
 62
256
370
-1
 48
1.0
  6
BYLAYER
100
AcDbEntity
100
AcDbSpline
 70
8
 71
3
 72
8
 73
4
 74
0
 40
0.0
 40
0.0
 40
0.0
 40
0.0
 40
1.0
 40
1.0
 40
1.0
 40
1.0
 10
2.8843646847625823
 20
36.8689601873506163
 30
0.0
 10
2.1742056847625779
 20
37.4182501873506155
 30
0.0
 10
2.3284406847625778
 20
38.2489601873506118
 30
0.0
 10
2.3284406847625778
 20
39.0810101873506213
 30
0.0
  0
LWPOLYLINE
  5
B5
  8
Cut
 62
256
370
-1
 48
1.0
  6
BYLAYER
100
AcDbEntity
100
AcDbPolyline
 90
2
 70
0
 10
5.3049116847625815
 20
47.1986601873506189
 30
0.0
 10
5.3049116847625815
 20
39.3516001873506198
 30
0.0
  0
SPLINE
  5
B6
  8
Cut
 62
256
370
-1
 48
1.0
  6
BYLAYER
100
AcDbEntity
100
AcDbSpline
 70
8
 71
3
 72
8
 73
4
 74
0
 40
0.0
 40
0.0
 40
0.0
 40
0.0
 40
1.0
 40
1.0
 40
1.0
 40
1.0
 10
2.3284406847625778
 20
48.6869001873506093
 30
0.0
 10
2.3284406847625778
 20
49.7733101873506101
 30
0.0
 10
2.1453876847625768
 20
51.1181301873506087
 30
0.0
 10
3.4109286847625757
 20
51.4482501873506166
 30
0.0
  0
LWPOLYLINE
  5
B7
  8
Cut
 62
256
370
-1
 48
1.0
  6
BYLAYER
100
AcDbEntity
100
AcDbPolyline
 90
2
 70
0
 10
2.3284406847625778
 20
39.0810101873506213
 30
0.0
 10
2.3284406847625778
 20
48.6869001873506093
 30
0.0
  0
TEXT
  5
B8
100
AcDbEntity
100
AcDbText
  8
Text
 62
256
370
-1
 48
1.0
  6
BYLAYER
 10
2.1827907231145569
 20
31.3011283388937009
 30
0.0
 40
3.5
  1
7
 50
0.0
 41
1.0
  7
textstyle0
 71
0
 72
1
 11
3.849457389781227
 21
33.0511283388937116
 31
0.0
100
AcDbText
 73
2
  0
TEXT
  5
B9
100
AcDbEntity
100
AcDbText
  8
Text
 62
256
370
-1
 48
1.0
  6
BYLAYER
 10
12.5875653189571342
 20
13.2635522806968034
 30
0.0
 40
3.5
  1
7
 50
349.9999999999999432
 41
1.0
  7
textstyle1
 71
0
 72
1
 11
14.5327958848946039
 21
14.6975522190232546
 31
0.0
100
AcDbText
 73
2
  0
TEXT
  5
BA
100
AcDbEntity
100
AcDbText
  8
Text
 62
256
370
-1
 48
1.0
  6
BYLAYER
 10
6.5501670203822098
 20
3.8119799819337539
 30
0.0
 40
3.5
  1
14
 50
349.9999999999999432
 41
1.0
  7
textstyle2
 71
0
 72
1
 11
10.4650130923441598
 21
4.8986835649263023
 31
0.0
100
AcDbText
 73
2
  0
TEXT
  5
BB
100
AcDbEntity
100
AcDbText
  8
Text
 62
256
370
-1
 48
1.0
  6
BYLAYER
 10
3.8854472639927824
 20
8.6921707525398233
 30
0.0
 40
3.5
  1
15
 50
349.9999999999999432
 41
1.0
  7
textstyle3
 71
0
 72
1
 11
7.7182260232036821
 21
9.793345017004679
 31
0.0
100
AcDbText
 73
2
  0
SPLINE
  5
BC
  8
Cut
 62
256
370
-1
 48
1.0
  6
BYLAYER
100
AcDbEntity
100
AcDbSpline
 70
8
 71
3
 72
8
 73
4
 74
0
 40
0.0
 40
0.0
 40
0.0
 40
0.0
 40
1.0
 40
1.0
 40
1.0
 40
1.0
 10
17.3090214973192218
 20
51.9537010453400612
 30
0.0
 10
19.3778752636972413
 20
52.3326352205307614
 30
0.0
 10
18.9817344147557847
 20
49.4906786509146883
 30
0.0
 10
18.9462064745000163
 20
48.3374376915045758
 30
0.0
  0
SPLINE
  5
BD
  8
Cut
 62
256
370
-1
 48
1.0
  6
BYLAYER
100
AcDbEntity
100
AcDbSpline
 70
8
 71
3
 72
8
 73
4
 74
0
 40
0.0
 40
0.0
 40
0.0
 40
0.0
 40
1.0
 40
1.0
 40
1.0
 40
1.0
 10
18.9462064745000163
 20
48.3374376915045758
 30
0.0
 10
18.8619817919900257
 20
45.5982893357806418
 30
0.0
 10
18.8005568950853643
 20
42.7604322311417846
 30
0.0
 10
18.6288141423680855
 20
40.0229972589683669
 30
0.0
  0
SPLINE
  5
BE
  8
Cut
 62
256
370
-1
 48
1.0
  6
BYLAYER
100
AcDbEntity
100
AcDbSpline
 70
8
 71
3
 72
8
 73
4
 74
0
 40
0.0
 40
0.0
 40
0.0
 40
0.0
 40
1.0
 40
1.0
 40
1.0
 40
1.0
 10
18.6288141423680855
 20
40.0229972589683669
 30
0.0
 10
18.5564140849869901
 20
38.8707643906729814
 30
0.0
 10
18.6793061430623908
 20
37.3684915080627675
 30
0.0
 10
17.1581761268399333
 20
37.0919517023438274
 30
0.0
  0
SPLINE
  5
BF
  8
Cut
 62
256
370
-1
 48
1.0
  6
BYLAYER
100
AcDbEntity
100
AcDbSpline
 70
8
 71
3
 72
8
 73
4
 74
0
 40
0.0
 40
0.0
 40
0.0
 40
0.0
 40
1.0
 40
1.0
 40
1.0
 40
1.0
 10
17.1581761268399333
 20
37.0919517023438274
 30
0.0
 10
16.612918416887176
 20
36.9918641553008882
 30
0.0
 10
16.2153983312043977
 20
37.2362556497104862
 30
0.0
 10
15.9033827975721973
 20
37.6535055419480003
 30
0.0
  0
SPLINE
  5
C0
  8
Cut
 62
256
370
-1
 48
1.0
  6
BYLAYER
100
AcDbEntity
100
AcDbSpline
 70
8
 71
3
 72
8
 73
4
 74
0
 40
0.0
 40
0.0
 40
0.0
 40
0.0
 40
1.0
 40
1.0
 40
1.0
 40
1.0
 10
15.9033827975721973
 20
37.6535055419480003
 30
0.0
 10
15.4614478177288053
 20
38.2460081924524573
 30
0.0
 10
15.5736733557281983
 20
38.9027071652830472
 30
0.0
 10
15.599824679811773
 20
39.5965470219853515
 30
0.0
  0
SPLINE
  5
C1
  8
Cut
 62
256
370
-1
 48
1.0
  6
BYLAYER
100
AcDbEntity
100
AcDbSpline
 70
8
 71
3
 72
8
 73
4
 74
0
 40
0.0
 40
0.0
 40
0.0
 40
0.0
 40
1.0
 40
1.0
 40
1.0
 40
1.0
 10
15.599824679811773
 20
39.5965470219853515
 30
0.0
 10
15.7150759282190702
 20
42.6540644120854608
 30
0.0
 10
15.8459751831754563
 20
45.7691999027793841
 30
0.0
 10
15.9586454193822878
 20
48.8642253120356855
 30
0.0
  0
SPLINE
  5
C2
  8
Cut
 62
256
370
-1
 48
1.0
  6
BYLAYER
100
AcDbEntity
100
AcDbSpline
 70
8
 71
3
 72
8
 73
4
 74
0
 40
0.0
 40
0.0
 40
0.0
 40
0.0
 40
1.0
 40
1.0
 40
1.0
 40
1.0
 10
15.9586454193822878
 20
48.8642253120356855
 30
0.0
 10
15.9805793131750473
 20
49.4641202839291623
 30
0.0
 10
16.0039379382239915
 20
50.0541682557796008
 30
0.0
 10
16.1139862237132547
 20
50.6206953917235793
 30
0.0
  0
SPLINE
  5
C3
  8
Cut
 62
256
370
-1
 48
1.0
  6
BYLAYER
100
AcDbEntity
100
AcDbSpline
 70
8
 71
3
 72
8
 73
4
 74
0
 40
0.0
 40
0.0
 40
0.0
 40
0.0
 40
1.0
 40
1.0
 40
1.0
 40
1.0
 10
16.1139862237132547
 20
50.6206953917235793
 30
0.0
 10
16.2416928288401863
 20
51.2787872667736622
 30
0.0
 10
16.5751331102198449
 20
51.8196427800944264
 30
0.0
 10
17.3090214973192218
 20
51.9537010453400612
 30
0.0
  0
LINE
  5
C4
100
AcDbEntity
100
AcDbLine
  8
Steg
 62
256
370
-1
 48
1.0
  6
BYLAYER
 10
24.9212531530144901
 20
-3.3091119803349089
 30
0.0
 11
25.9854331093383735
 21
-3.3472182275855316
 31
0.0
  0
TEXT
  5
C5
100
AcDbEntity
100
AcDbText
  8
Text
 62
256
370
-1
 48
1.0
  6
BYLAYER
 10
17.9205949262244104
 20
33.988669696181212
 30
0.0
 40
3.5
  1
14
 50
350.0
 41
1.0
  7
textstyle4
 71
0
 72
1
 11
16.9984974092082979
 21
34.1172571854346103
 31
0.0
100
AcDbText
 73
2
  0
TEXT
  5
C6
100
AcDbEntity
100
AcDbText
  8
Text
 62
256
370
-1
 48
1.0
  6
BYLAYER
 10
46.2117345857312927
 20
18.9988000378719271
 30
0.0
 40
3.5
  1
15
 50
0.0
 41
1.0
  7
textstyle5
 71
0
 72
1
 11
49.7950679190646071
 21
20.7488000378719839
 31
0.0
100
AcDbText
 73
2
  0
LINE
  5
C7
100
AcDbEntity
100
AcDbLine
  8
Cut
 62
256
370
-1
 48
1.0
  6
BYLAYER
 10
-3.1994431049146339
 20
24.7604322311417882
 30
0.0
 11
24.8005568950853643
 21
24.7604322311417882
 31
0.0
  0
LINE
  5
C8
100
AcDbEntity
100
AcDbLine
  8
Cut
 62
256
370
-1
 48
1.0
  6
BYLAYER
 10
24.8005568950853643
 20
24.7604322311417882
 30
0.0
 11
24.8005568950853643
 21
58.7604322311417846
 31
0.0
  0
LINE
  5
C9
100
AcDbEntity
100
AcDbLine
  8
Cut
 62
256
370
-1
 48
1.0
  6
BYLAYER
 10
24.8005568950853643
 20
58.7604322311417846
 30
0.0
 11
-3.1994431049146339
 21
58.7604322311417846
 31
0.0
  0
LINE
  5
CA
100
AcDbEntity
100
AcDbLine
  8
Cut
 62
256
370
-1
 48
1.0
  6
BYLAYER
 10
-3.1994431049146339
 20
58.7604322311417846
 30
0.0
 11
-3.1994431049146339
 21
24.7604322311417882
 31
0.0
  0
LINE
  5
CB
100
AcDbEntity
100
AcDbLine
  8
Cut
 62
256
370
-1
 48
1.0
  6
BYLAYER
 10
10.8005568950853661
 20
58.7604322311417846
 30
0.0
 11
10.8005568950853661
 21
24.7604322311417882
 31
0.0
  0
ENDSEC
  0
SECTION
  2
OBJECTS
  0
DICTIONARY
  5
C
100
AcDbDictionary
280
0
281
1
  3
ACAD_GROUP
350
D
  3
ACAD_LAYOUT
350
1A
  3
ACAD_MLINESTYLE
350
17
  3
ACAD_PLOTSETTINGS
350
19
  3
ACAD_PLOTSTYLENAME
350
E
  3
AcDbVariableDictionary
350
CC
  3
QCAD_OBJECTS
350
CD
  0
DICTIONARY
  5
D
100
AcDbDictionary
280
0
281
1
  0
ACDBDICTIONARYWDFLT
  5
E
100
AcDbDictionary
281
1
  3
Normal
350
F
100
AcDbDictionaryWithDefault
340
F
  0
ACDBPLACEHOLDER
  5
F
  0
DICTIONARY
  5
17
100
AcDbDictionary
280
0
281
1
  3
Standard
350
18
  0
MLINESTYLE
  5
18
100
AcDbMlineStyle
  2
STANDARD
 70
0
  3

 62
256
 51
90.0
 52
90.0
 71
2
 49
0.5
 62
256
  6
BYLAYER
 49
-0.5
 62
256
  6
BYLAYER
  0
DICTIONARY
  5
19
100
AcDbDictionary
280
0
281
1
  0
DICTIONARY
  5
1A
100
AcDbDictionary
281
1
  3
Layout1
350
1E
  3
Layout2
350
26
  3
Model
350
22
  0
LAYOUT
  5
1E
100
AcDbPlotSettings
  1

  2
none_device
  4

  6

 40
0.0
 41
0.0
 42
0.0
 43
0.0
 44
0.0
 45
0.0
 46
0.0
 47
0.0
 48
0.0
 49
0.0
140
0.0
141
0.0
142
1.0
143
1.0
 70
688
 72
0
 73
0
 74
5
  7

 75
16
147
1.0
148
0.0
149
0.0
100
AcDbLayout
  1
Layout1
 70
1
 71
1
 10
0.0
 20
0.0
 11
420.0
 21
297.0
 12
0.0
 22
0.0
 32
0.0
 14
100000000000000000000.0
 24
100000000000000000000.0
 34
100000000000000000000.0
 15
-100000000000000000000.0
 25
-100000000000000000000.0
 35
-100000000000000000000.0
146
0.0
 13
0.0
 23
0.0
 33
0.0
 16
1.0
 26
0.0
 36
0.0
 17
0.0
 27
1.0
 37
0.0
 76
0
330
1B
  0
LAYOUT
  5
22
100
AcDbPlotSettings
  1

  2
none_device
  4

  6

 40
0.0
 41
0.0
 42
0.0
 43
0.0
 44
0.0
 45
0.0
 46
0.0
 47
0.0
 48
0.0
 49
0.0
140
0.0
141
0.0
142
1.0
143
1.0
 70
1712
 72
0
 73
0
 74
0
  7

 75
0
147
1.0
148
0.0
149
0.0
100
AcDbLayout
  1
Model
 70
1
 71
0
 10
0.0
 20
0.0
 11
12.0
 21
9.0
 12
0.0
 22
0.0
 32
0.0
 14
0.0
 24
0.0
 34
0.0
 15
0.0
 25
0.0
 35
0.0
146
0.0
 13
0.0
 23
0.0
 33
0.0
 16
1.0
 26
0.0
 36
0.0
 17
0.0
 27
1.0
 37
0.0
 76
0
330
1F
  0
LAYOUT
  5
26
100
AcDbPlotSettings
  1

  2
none_device
  4

  6

 40
0.0
 41
0.0
 42
0.0
 43
0.0
 44
0.0
 45
0.0
 46
0.0
 47
0.0
 48
0.0
 49
0.0
140
0.0
141
0.0
142
1.0
143
1.0
 70
688
 72
0
 73
0
 74
5
  7

 75
16
147
1.0
148
0.0
149
0.0
100
AcDbLayout
  1
Layout2
 70
1
 71
2
 10
0.0
 20
0.0
 11
12.0
 21
9.0
 12
0.0
 22
0.0
 32
0.0
 14
0.0
 24
0.0
 34
0.0
 15
0.0
 25
0.0
 35
0.0
146
0.0
 13
0.0
 23
0.0
 33
0.0
 16
1.0
 26
0.0
 36
0.0
 17
0.0
 27
1.0
 37
0.0
 76
0
330
23
  0
DICTIONARY
  5
CC
100
AcDbDictionary
281
1
  3
DIMASSOC
350
CF
  3
HIDETEXT
350
CE
  0
DICTIONARYVAR
  5
CE
100
DictionaryVariables
280
0
  1
2
  0
DICTIONARYVAR
  5
CF
100
DictionaryVariables
280
0
  1
1
  0
DICTIONARY
  5
CD
100
AcDbDictionary
281
1
  3
ColorSettings/BackgroundColor
350
D0
  3
ColorSettings/ColorMode
350
D1
  3
Grid/DisplayGrid00
350
D2
  3
Grid/DisplayGrid01
350
D3
  3
Grid/DisplayGrid02
350
D4
  3
Grid/DisplayGrid03
350
D5
  3
Grid/GridSpacingX00
350
D6
  3
Grid/GridSpacingX01
350
D7
  3
Grid/GridSpacingX02
350
D8
  3
Grid/GridSpacingX03
350
D9
  3
Grid/GridSpacingY00
350
DA
  3
Grid/GridSpacingY01
350
DB
  3
Grid/GridSpacingY02
350
DC
  3
Grid/GridSpacingY03
350
DD
  3
Grid/IsometricGrid00
350
DE
  3
Grid/IsometricGrid01
350
DF
  3
Grid/IsometricGrid02
350
E0
  3
Grid/IsometricGrid03
350
E1
  3
Grid/IsometricProjection00
350
E2
  3
Grid/IsometricProjection01
350
E3
  3
Grid/IsometricProjection02
350
E4
  3
Grid/IsometricProjection03
350
E5
  3
Grid/MetaGridSpacingX00
350
E6
  3
Grid/MetaGridSpacingX01
350
E7
  3
Grid/MetaGridSpacingX02
350
E8
  3
Grid/MetaGridSpacingX03
350
E9
  3
Grid/MetaGridSpacingY00
350
EA
  3
Grid/MetaGridSpacingY01
350
EB
  3
Grid/MetaGridSpacingY02
350
EC
  3
Grid/MetaGridSpacingY03
350
ED
  3
MultiPageSettings/Columns
350
EE
  3
MultiPageSettings/GlueMarginsBottom
350
EF
  3
MultiPageSettings/GlueMarginsLeft
350
F0
  3
MultiPageSettings/GlueMarginsRight
350
F1
  3
MultiPageSettings/GlueMarginsTop
350
F2
  3
MultiPageSettings/PrintCropMarks
350
F3
  3
MultiPageSettings/Rows
350
F4
  3
PageSettings/OffsetX
350
F5
  3
PageSettings/OffsetY
350
F6
  3
PageSettings/PageOrientation
350
F7
  3
PageSettings/PaperHeight
350
F8
  3
PageSettings/PaperWidth
350
F9
  3
PageSettings/Scale
350
FA
  3
PageSettings/ShowPaperBorders
350
FB
  3
QCADVersion
350
FC
  3
UnitSettings/PaperUnit
350
FD
  3
ViewportCenter
350
FE
  3
ViewportHeight
350
FF
  3
ViewportWidth
350
100
  0
XRECORD
  5
D0
330
CD
100
AcDbXrecord
280
1
1000
Weiss
  0
XRECORD
  5
D1
330
CD
100
AcDbXrecord
280
1
1000
FullColor
  0
XRECORD
  5
D2
330
CD
100
AcDbXrecord
280
1
290
1
  0
XRECORD
  5
D3
330
CD
100
AcDbXrecord
280
1
290
1
  0
XRECORD
  5
D4
330
CD
100
AcDbXrecord
280
1
290
1
  0
XRECORD
  5
D5
330
CD
100
AcDbXrecord
280
1
290
1
  0
XRECORD
  5
D6
330
CD
100
AcDbXrecord
280
1
1000
auto
  0
XRECORD
  5
D7
330
CD
100
AcDbXrecord
280
1
1000
auto
  0
XRECORD
  5
D8
330
CD
100
AcDbXrecord
280
1
1000
auto
  0
XRECORD
  5
D9
330
CD
100
AcDbXrecord
280
1
1000
auto
  0
XRECORD
  5
DA
330
CD
100
AcDbXrecord
280
1
1000
auto
  0
XRECORD
  5
DB
330
CD
100
AcDbXrecord
280
1
1000
auto
  0
XRECORD
  5
DC
330
CD
100
AcDbXrecord
280
1
1000
auto
  0
XRECORD
  5
DD
330
CD
100
AcDbXrecord
280
1
1000
auto
  0
XRECORD
  5
DE
330
CD
100
AcDbXrecord
280
1
290
0
  0
XRECORD
  5
DF
330
CD
100
AcDbXrecord
280
1
290
0
  0
XRECORD
  5
E0
330
CD
100
AcDbXrecord
280
1
290
0
  0
XRECORD
  5
E1
330
CD
100
AcDbXrecord
280
1
290
0
  0
XRECORD
  5
E2
330
CD
100
AcDbXrecord
280
1
 90
0
  0
XRECORD
  5
E3
330
CD
100
AcDbXrecord
280
1
 90
0
  0
XRECORD
  5
E4
330
CD
100
AcDbXrecord
280
1
 90
0
  0
XRECORD
  5
E5
330
CD
100
AcDbXrecord
280
1
 90
0
  0
XRECORD
  5
E6
330
CD
100
AcDbXrecord
280
1
1000
auto
  0
XRECORD
  5
E7
330
CD
100
AcDbXrecord
280
1
1000
auto
  0
XRECORD
  5
E8
330
CD
100
AcDbXrecord
280
1
1000
auto
  0
XRECORD
  5
E9
330
CD
100
AcDbXrecord
280
1
1000
auto
  0
XRECORD
  5
EA
330
CD
100
AcDbXrecord
280
1
1000
auto
  0
XRECORD
  5
EB
330
CD
100
AcDbXrecord
280
1
1000
auto
  0
XRECORD
  5
EC
330
CD
100
AcDbXrecord
280
1
1000
auto
  0
XRECORD
  5
ED
330
CD
100
AcDbXrecord
280
1
1000
auto
  0
XRECORD
  5
EE
330
CD
100
AcDbXrecord
280
1
 90
1
  0
XRECORD
  5
EF
330
CD
100
AcDbXrecord
280
1
 40
10.0
  0
XRECORD
  5
F0
330
CD
100
AcDbXrecord
280
1
 40
10.0
  0
XRECORD
  5
F1
330
CD
100
AcDbXrecord
280
1
 40
10.0
  0
XRECORD
  5
F2
330
CD
100
AcDbXrecord
280
1
 40
10.0
  0
XRECORD
  5
F3
330
CD
100
AcDbXrecord
280
1
290
0
  0
XRECORD
  5
F4
330
CD
100
AcDbXrecord
280
1
 90
1
  0
XRECORD
  5
F5
330
CD
100
AcDbXrecord
280
1
 40
0.0
  0
XRECORD
  5
F6
330
CD
100
AcDbXrecord
280
1
 40
0.0
  0
XRECORD
  5
F7
330
CD
100
AcDbXrecord
280
1
1000
Portrait
  0
XRECORD
  5
F8
330
CD
100
AcDbXrecord
280
1
 40
297.0
  0
XRECORD
  5
F9
330
CD
100
AcDbXrecord
280
1
 40
210.0
  0
XRECORD
  5
FA
330
CD
100
AcDbXrecord
280
1
1000
1:1
  0
XRECORD
  5
FB
330
CD
100
AcDbXrecord
280
1
290
1
  0
XRECORD
  5
FC
330
CD
100
AcDbXrecord
280
1
1000
3.15.4
  0
XRECORD
  5
FD
330
CD
100
AcDbXrecord
280
1
 90
4
  0
XRECORD
  5
FF
330
CD
100
AcDbXrecord
280
1
 40
78.3850372289503383
  0
XRECORD
  5
100
330
CD
100
AcDbXrecord
280
1
 40
141.9860611071239589
  0
ENDSEC
  0
EOF
