999
dxflib 3.12.2.0
  0
SECTION
  2
HEADER
  9
$ACADVER
  1
AC1015
  9
$HANDSEED
  5
FFFF
  9
$ANGBASE
 50
0.0
  9
$ANGDIR
 70
0
  9
$ATTMODE
 70
1
  9
$AUNITS
 70
0
  9
$AUPREC
 70
0
  9
$CECOLOR
 62
178
  9
$CELTSCALE
 40
1.0
  9
$CHAMFERA
 40
0.0
  9
$CHAMFERB
 40
0.0
  9
$CHAMFERC
 40
0.0
  9
$CHAMFERD
 40
0.0
  9
$CMLJUST
 70
0
  9
$CMLSCALE
 40
1.0
  9
$DIMADEC
 70
0
  9
$DIMALT
 70
0
  9
$DIMALTD
 70
2
  9
$DIMALTF
 40
25.3999999999999986
  9
$DIMALTRND
 40
0.0
  9
$DIMALTTD
 70
2
  9
$DIMALTTZ
 70
0
  9
$DIMALTU
 70
2
  9
$DIMALTZ
 70
0
  9
$DIMAPOST
  1

  9
$DIMASZ
 40
2.5
  9
$DIMATFIT
 70
3
  9
$DIMAUNIT
 70
0
  9
$DIMAZIN
 70
2
  9
$DIMBLK
  1

  9
$DIMBLK1
  1

  9
$DIMBLK2
  1

  9
$DIMCEN
 40
0.09
  9
$DIMCLRD
 70
178
  9
$DIMCLRE
 70
178
  9
$DIMCLRT
 70
178
  9
$DIMDEC
 70
4
  9
$DIMDLE
 40
0.0
  9
$DIMDLI
 40
0.38
  9
$DIMDSEP
 70
46
  9
$DIMEXE
 40
1.25
  9
$DIMEXO
 40
0.625
  9
$DIMFRAC
 70
0
  9
$DIMGAP
 40
0.625
  9
$DIMJUST
 70
0
  9
$DIMLDRBLK
  1

  9
$DIMLFAC
 40
1.0
  9
$DIMLIM
 70
0
  9
$DIMLUNIT
 70
2
  9
$DIMLWD
 70
-2
  9
$DIMLWE
 70
-2
  9
$DIMPOST
  1

  9
$DIMRND
 40
0.0
  9
$DIMSAH
 70
0
  9
$DIMSCALE
 40
1.0
  9
$DIMSD1
 70
0
  9
$DIMSD2
 70
0
  9
$DIMSE1
 70
0
  9
$DIMSE2
 70
0
  9
$DIMSOXD
 70
0
  9
$DIMTAD
 70
0
  9
$DIMTDEC
 70
4
  9
$DIMTFAC
 40
1.0
  9
$DIMTIH
 70
1
  9
$DIMTIX
 70
0
  9
$DIMTM
 40
0.0
  9
$DIMTOFL
 70
0
  9
$DIMTOH
 70
1
  9
$DIMTOL
 70
0
  9
$DIMTOLJ
 70
1
  9
$DIMTP
 40
0.0
  9
$DIMTSZ
 40
0.0
  9
$DIMTVP
 40
0.0
  9
$DIMTXSTY
  7
Standard
  9
$DIMTXT
 40
2.5
  9
$DIMTZIN
 70
0
  9
$DIMUPT
 70
0
  9
$DIMZIN
 70
8
  9
$DISPSILH
 70
0
  9
$DWGCODEPAGE
  3
ANSI_1252
  9
$ELEVATION
 40
0.0
  9
$EXTMAX
 10
-100000000000000000000.0
 20
-100000000000000000000.0
 30
-100000000000000000000.0
  9
$EXTMIN
 10
100000000000000000000.0
 20
100000000000000000000.0
 30
100000000000000000000.0
  9
$FILLETRAD
 40
0.5
  9
$FILLMODE
 70
1
  9
$INSBASE
 10
0.0
 20
0.0
 30
0.0
  9
$INSUNITS
 70
0
  9
$LIMCHECK
 70
0
  9
$LIMMAX
 10
12.0
 20
9.0
  9
$LIMMIN
 10
0.0
 20
0.0
  9
$LTSCALE
 40
1.0
  9
$LUNITS
 70
2
  9
$LUPREC
 70
4
  9
$MAXACTVP
 70
2
  9
$MEASUREMENT
 70
1
  9
$MIRRTEXT
 70
1
  9
$ORTHOMODE
 70
0
  9
$PDMODE
 70
0
  9
$PDSIZE
 40
0
  9
$PELEVATION
 40
0.0
  9
$PEXTMAX
 10
0.0
 20
0.0
 30
0.0
  9
$PEXTMIN
 10
0.0
 20
0.0
 30
0.0
  9
$PINSBASE
 10
0.0
 20
0.0
 30
0.0
  9
$PLIMCHECK
 70
0
  9
$PLIMMAX
 10
277.0
 20
202.5
  9
$PLIMMIN
 10
-20.0
 20
-7.5
  9
$PLINEGEN
 70
0
  9
$PLINEWID
 40
0.0
  9
$PROXYGRAPHICS
 70
1
  9
$PSLTSCALE
 70
1
  9
$PUCSNAME
  2

  9
$PUCSORG
 10
0.0
 20
0.0
 30
0.0
  9
$PUCSXDIR
 10
1.0
 20
0.0
 30
0.0
  9
$PUCSYDIR
 10
0.0
 20
1.0
 30
0.0
  9
$QTEXTMODE
 70
0
  9
$REGENMODE
 70
1
  9
$SHADEDGE
 70
3
  9
$SHADEDIF
 70
70
  9
$SKETCHINC
 40
0.1
  9
$SKPOLY
 70
0
  9
$SPLFRAME
 70
0
  9
$SPLINESEGS
 70
8
  9
$SPLINETYPE
 70
6
  9
$SURFTAB1
 70
6
  9
$SURFTAB2
 70
6
  9
$SURFTYPE
 70
6
  9
$SURFU
 70
6
  9
$SURFV
 70
6
  9
$TEXTSIZE
 40
0.2
  9
$TEXTSTYLE
  7
Standard
  9
$THICKNESS
 40
0.0
  9
$TILEMODE
 70
1
  9
$TRACEWID
 40
0.05
  9
$TREEDEPTH
 70
3020
  9
$UCSNAME
  2

  9
$UCSORG
 10
0.0
 20
0.0
 30
0.0
  9
$UCSXDIR
 10
1.0
 20
0.0
 30
0.0
  9
$UCSYDIR
 10
0.0
 20
1.0
 30
0.0
  9
$UNITMODE
 70
0
  9
$USERI1
 70
0
  9
$USERI2
 70
0
  9
$USERI3
 70
0
  9
$USERI4
 70
0
  9
$USERI5
 70
0
  9
$USERR1
 40
0.0
  9
$USERR2
 40
0.0
  9
$USERR3
 40
0.0
  9
$USERR4
 40
0.0
  9
$USERR5
 40
0.0
  9
$USRTIMER
 70
1
  9
$VISRETAIN
 70
1
  0
ENDSEC
  0
SECTION
  2
TABLES
  0
TABLE
  2
VPORT
  5
8
100
AcDbSymbolTable
 70
1
  0
VPORT
  5
30
100
AcDbSymbolTableRecord
100
AcDbViewportTableRecord
  2
*Active
 70
0
 10
0.0
 20
0.0
 11
1.0
 21
1.0
 12
286.3055555555554861
 22
148.5
 13
0.0
 23
0.0
 14
10.0
 24
10.0
 15
10.0
 25
10.0
 16
0.0
 26
0.0
 36
1.0
 17
0.0
 27
0.0
 37
0.0
 40
297.0
 41
1.92798353909465
 42
50.0
 43
0.0
 44
0.0
 50
0.0
 51
0.0
 71
0
 72
100
 73
1
 74
3
 75
1
 76
1
 77
0
 78
0
281
0
 65
1
110
0.0
120
0.0
130
0.0
111
1.0
121
0.0
131
0.0
112
0.0
122
1.0
132
0.0
 79
0
146
0.0
  0
ENDTAB
  0
TABLE
  2
LTYPE
  5
5
100
AcDbSymbolTable
 70
54
  0
LTYPE
  5
16
100
AcDbSymbolTableRecord
100
AcDbLinetypeTableRecord
  2
Continuous
 70
0
  3
Solid line
 72
65
 73
0
 40
0.0
  0
LTYPE
  5
15
100
AcDbSymbolTableRecord
100
AcDbLinetypeTableRecord
  2
ByLayer
 70
0
  3

 72
65
 73
0
 40
0.0
  0
LTYPE
  5
31
100
AcDbSymbolTableRecord
100
AcDbLinetypeTableRecord
  2
ACAD_ISO12W100
 70
0
  3
ISO dash double-dot __ . . __ . . __ . . __ . . 
 72
65
 73
6
 40
21.0
 49
12.0
 74
0
 49
-2.9500000000000002
 74
0
 49
0.1
 74
0
 49
-2.9000000000000004
 74
0
 49
0.1
 74
0
 49
-2.9500000000000002
 74
0
  0
LTYPE
  5
32
100
AcDbSymbolTableRecord
100
AcDbLinetypeTableRecord
  2
ZIGZAG
 70
0
  3
Zig zag /\/\/\/\/\/\/\/\/\/\/\/\/\/\/\/\/\/\/\/\/\/\/\/
 72
65
 73
2
 40
5.0825399999999998
 49
0.00254
 74
0
 49
-5.0800000000000001
 74
0
  0
LTYPE
  5
33
100
AcDbSymbolTableRecord
100
AcDbLinetypeTableRecord
  2
ACAD_ISO04W100
 70
0
  3
ISO long-dash dot ____ . ____ . ____ . ____ . _
 72
65
 73
4
 40
30.0
 49
24.0
 74
0
 49
-2.9500000000000002
 74
0
 49
0.1
 74
0
 49
-2.9500000000000002
 74
0
  0
LTYPE
  5
34
100
AcDbSymbolTableRecord
100
AcDbLinetypeTableRecord
  2
PHANTOM
 70
0
  3
Phantom ______  __  __  ______  __  __  ______ 
 72
65
 73
6
 40
63.5000000000000071
 49
31.75
 74
0
 49
-6.3499999999999996
 74
0
 49
6.3499999999999996
 74
0
 49
-6.3499999999999996
 74
0
 49
6.3499999999999996
 74
0
 49
-6.3499999999999996
 74
0
  0
LTYPE
  5
35
100
AcDbSymbolTableRecord
100
AcDbLinetypeTableRecord
  2
ACAD_ISO11W100
 70
0
  3
ISO double-dash dot __ __ . __ __ . __ __ . __ _
 72
65
 73
6
 40
33.0
 49
12.0
 74
0
 49
-3.0
 74
0
 49
12.0
 74
0
 49
-2.9500000000000002
 74
0
 49
0.1
 74
0
 49
-2.9500000000000002
 74
0
  0
LTYPE
  5
36
100
AcDbSymbolTableRecord
100
AcDbLinetypeTableRecord
  2
DRAINAGE2
 70
0
  3
Drainage reversed----<----<----<----
 72
65
 73
1
 40
5.0800000000000001
 49
5.0800000000000001
 74
0
  0
LTYPE
  5
37
100
AcDbSymbolTableRecord
100
AcDbLinetypeTableRecord
  2
ACAD_ISO03W100
 70
0
  3
ISO dash space __    __    __    __    __    __
 72
65
 73
2
 40
30.0
 49
12.0
 74
0
 49
-18.0
 74
0
  0
LTYPE
  5
38
100
AcDbSymbolTableRecord
100
AcDbLinetypeTableRecord
  2
BORDER2
 70
0
  3
Border (.5x) __.__.__.__.__.__.__.__.__.__.__.
 72
65
 73
6
 40
22.2250000000000014
 49
6.3499999999999996
 74
0
 49
-3.1749999999999998
 74
0
 49
6.3499999999999996
 74
0
 49
-3.125
 74
0
 49
0.1
 74
0
 49
-3.125
 74
0
  0
LTYPE
  5
39
100
AcDbSymbolTableRecord
100
AcDbLinetypeTableRecord
  2
ACAD_ISO10W100
 70
0
  3
ISO dash dot __ . __ . __ . __ . __ . __ . __ . 
 72
65
 73
4
 40
18.0
 49
12.0
 74
0
 49
-2.9500000000000002
 74
0
 49
0.1
 74
0
 49
-2.9500000000000002
 74
0
  0
LTYPE
  5
3A
100
AcDbSymbolTableRecord
100
AcDbLinetypeTableRecord
  2
CENTERX2
 70
0
  3
Center (2x) ________  __  ________  __  _____
 72
65
 73
4
 40
101.6000000000000085
 49
63.5
 74
0
 49
-12.6999999999999993
 74
0
 49
12.6999999999999993
 74
0
 49
-12.6999999999999993
 74
0
  0
LTYPE
  5
3B
100
AcDbSymbolTableRecord
100
AcDbLinetypeTableRecord
  2
CUTLEFT
 70
0
  3
G41 ----\----\----\----
 72
65
 73
1
 40
5.0800000000000001
 49
5.0800000000000001
 74
0
  0
LTYPE
  5
3C
100
AcDbSymbolTableRecord
100
AcDbLinetypeTableRecord
  2
DIVIDE2
 70
0
  3
Divide (.5x) __..__..__..__..__..__..__..__.._
 72
65
 73
6
 40
15.8749999999999982
 49
6.3499999999999996
 74
0
 49
-3.125
 74
0
 49
0.1
 74
0
 49
-3.0750000000000002
 74
0
 49
0.1
 74
0
 49
-3.125
 74
0
  0
LTYPE
  5
3D
100
AcDbSymbolTableRecord
100
AcDbLinetypeTableRecord
  2
ACAD_ISO02W100
 70
0
  3
ISO dash __ __ __ __ __ __ __ __ __ __ __ __ __
 72
65
 73
2
 40
15.0
 49
12.0
 74
0
 49
-3.0
 74
0
  0
LTYPE
  5
3E
100
AcDbSymbolTableRecord
100
AcDbLinetypeTableRecord
  2
FENCELINE1
 70
0
  3
Fenceline circle ----0-----0----0-----0----0-----0--
 72
65
 73
2
 40
8.8900000000000006
 49
6.3499999999999996
 74
0
 49
-2.54
 74
0
  0
LTYPE
  5
3F
100
AcDbSymbolTableRecord
100
AcDbLinetypeTableRecord
  2
GAS_LINE
 70
0
  3
Gas line ----GAS----GAS----GAS----GAS----GAS----GAS--
 72
65
 73
2
 40
17.7800000000000011
 49
12.6999999999999993
 74
0
 49
-5.0800000000000001
 74
0
  0
LTYPE
  5
40
100
AcDbSymbolTableRecord
100
AcDbLinetypeTableRecord
  2
DOT2
 70
0
  3
Dot (.5x) ........................................
 72
65
 73
2
 40
3.1749999999999998
 49
0.1
 74
0
 49
-3.0749999999999997
 74
0
  0
LTYPE
  5
41
100
AcDbSymbolTableRecord
100
AcDbLinetypeTableRecord
  2
FENCELINE2
 70
0
  3
Fenceline square ----[]-----[]----[]-----[]----[]---
 72
65
 73
2
 40
8.8900000000000006
 49
6.3499999999999996
 74
0
 49
-2.54
 74
0
  0
LTYPE
  5
42
100
AcDbSymbolTableRecord
100
AcDbLinetypeTableRecord
  2
HIDDEN2
 70
0
  3
Hidden (.5x) _ _ _ _ _ _ _ _ _ _ _ _ _ _ _ _ _ 
 72
65
 73
2
 40
4.7624999999999993
 49
3.1749999999999998
 74
0
 49
-1.5874999999999999
 74
0
  0
LTYPE
  5
43
100
AcDbSymbolTableRecord
100
AcDbLinetypeTableRecord
  2
HOT_WATER_SUPPLY
 70
0
  3
Hot water supply ---- HW ---- HW ---- HW ----
 72
65
 73
2
 40
17.7800000000000011
 49
12.6999999999999993
 74
0
 49
-5.0800000000000001
 74
0
  0
LTYPE
  5
44
100
AcDbSymbolTableRecord
100
AcDbLinetypeTableRecord
  2
CENTER
 70
0
  3
Center ____ _ ____ _ ____ _ ____ _ ____ _ ____
 72
65
 73
4
 40
50.8000000000000043
 49
31.75
 74
0
 49
-6.3499999999999996
 74
0
 49
6.3499999999999996
 74
0
 49
-6.3499999999999996
 74
0
  0
LTYPE
  5
45
100
AcDbSymbolTableRecord
100
AcDbLinetypeTableRecord
  2
BORDERX2
 70
0
  3
Border (2x) ____  ____  .  ____  ____  .  ___
 72
65
 73
6
 40
88.8999999999999773
 49
25.3999999999999986
 74
0
 49
-12.6999999999999993
 74
0
 49
25.3999999999999986
 74
0
 49
-12.6499999999999986
 74
0
 49
0.1
 74
0
 49
-12.6499999999999986
 74
0
  0
LTYPE
  5
46
100
AcDbSymbolTableRecord
100
AcDbLinetypeTableRecord
  2
BATTING
 70
0
  3
Batting SSSSSSSSSSSSSSSSSSSSSSSSSSSSSSSSSSSSSSSSSSSSSSS
 72
65
 73
2
 40
2.5425400000000002
 49
0.00254
 74
0
 49
-2.54
 74
0
  0
LTYPE
  5
47
100
AcDbSymbolTableRecord
100
AcDbLinetypeTableRecord
  2
DIVIDE
 70
0
  3
Divide ____ . . ____ . . ____ . . ____ . . ____
 72
65
 73
6
 40
31.7500000000000036
 49
12.6999999999999993
 74
0
 49
-6.2999999999999998
 74
0
 49
0.1
 74
0
 49
-6.25
 74
0
 49
0.1
 74
0
 49
-6.2999999999999998
 74
0
  0
LTYPE
  5
48
100
AcDbSymbolTableRecord
100
AcDbLinetypeTableRecord
  2
DASHED
 70
0
  3
Dashed __ __ __ __ __ __ __ __ __ __ __ __ __ _
 72
65
 73
2
 40
19.0499999999999972
 49
12.6999999999999993
 74
0
 49
-6.3499999999999996
 74
0
  0
LTYPE
  5
49
100
AcDbSymbolTableRecord
100
AcDbLinetypeTableRecord
  2
DASHDOTX2
 70
0
  3
Dash dot (2x) ____  .  ____  .  ____  .  ___
 72
65
 73
4
 40
50.7999999999999972
 49
25.3999999999999986
 74
0
 49
-12.6499999999999986
 74
0
 49
0.1
 74
0
 49
-12.6499999999999986
 74
0
  0
LTYPE
  5
4A
100
AcDbSymbolTableRecord
100
AcDbLinetypeTableRecord
  2
PHANTOM2
 70
0
  3
Phantom (.5x) ___ _ _ ___ _ _ ___ _ _ ___ _ _
 72
65
 73
6
 40
31.7500000000000036
 49
15.875
 74
0
 49
-3.1749999999999998
 74
0
 49
3.1749999999999998
 74
0
 49
-3.1749999999999998
 74
0
 49
3.1749999999999998
 74
0
 49
-3.1749999999999998
 74
0
  0
LTYPE
  5
4B
100
AcDbSymbolTableRecord
100
AcDbLinetypeTableRecord
  2
ACAD_ISO09W100
 70
0
  3
ISO long-dash double-short-dash ____ __ __ ____
 72
65
 73
6
 40
45.0
 49
24.0
 74
0
 49
-3.0
 74
0
 49
6.0
 74
0
 49
-3.0
 74
0
 49
6.0
 74
0
 49
-3.0
 74
0
  0
LTYPE
  5
4C
100
AcDbSymbolTableRecord
100
AcDbLinetypeTableRecord
  2
TRACKS
 70
0
  3
Tracks -|-|-|-|-|-|-|-|-|-|-|-|-|-|-|-|-|-|-|-|-|-|-|-|-
 72
65
 73
1
 40
3.8100000000000001
 49
3.8100000000000001
 74
0
  0
LTYPE
  5
4D
100
AcDbSymbolTableRecord
100
AcDbLinetypeTableRecord
  2
HIDDENX2
 70
0
  3
Hidden (2x) ____ ____ ____ ____ ____ ____ ____ 
 72
65
 73
2
 40
19.0499999999999972
 49
12.6999999999999993
 74
0
 49
-6.3499999999999996
 74
0
  0
LTYPE
  5
4E
100
AcDbSymbolTableRecord
100
AcDbLinetypeTableRecord
  2
ACAD_ISO08W100
 70
0
  3
ISO long-dash short-dash ____ __ ____ __ ____ _
 72
65
 73
4
 40
36.0
 49
24.0
 74
0
 49
-3.0
 74
0
 49
6.0
 74
0
 49
-3.0
 74
0
  0
LTYPE
  5
14
100
AcDbSymbolTableRecord
100
AcDbLinetypeTableRecord
  2
ByBlock
 70
0
  3

 72
65
 73
0
 40
0.0
  0
LTYPE
  5
4F
100
AcDbSymbolTableRecord
100
AcDbLinetypeTableRecord
  2
BORDER
 70
0
  3
Border __ __ . __ __ . __ __ . __ __ . __ __ .
 72
65
 73
6
 40
44.4499999999999957
 49
12.6999999999999993
 74
0
 49
-6.3499999999999996
 74
0
 49
12.6999999999999993
 74
0
 49
-6.2999999999999998
 74
0
 49
0.1
 74
0
 49
-6.2999999999999998
 74
0
  0
LTYPE
  5
50
100
AcDbSymbolTableRecord
100
AcDbLinetypeTableRecord
  2
DASHEDX2
 70
0
  3
Dashed (2x) ____  ____  ____  ____  ____  ___
 72
65
 73
2
 40
38.0999999999999943
 49
25.3999999999999986
 74
0
 49
-12.6999999999999993
 74
0
  0
LTYPE
  5
51
100
AcDbSymbolTableRecord
100
AcDbLinetypeTableRecord
  2
PHANTOMX2
 70
0
  3
Phantom (2x) ____________    ____    ____   _
 72
65
 73
6
 40
127.0000000000000142
 49
63.5
 74
0
 49
-12.6999999999999993
 74
0
 49
12.6999999999999993
 74
0
 49
-12.6999999999999993
 74
0
 49
12.6999999999999993
 74
0
 49
-12.6999999999999993
 74
0
  0
LTYPE
  5
52
100
AcDbSymbolTableRecord
100
AcDbLinetypeTableRecord
  2
DOTX2
 70
0
  3
Dot (2x) .  .  .  .  .  .  .  .  .  .  .  .  .  .
 72
65
 73
2
 40
12.6999999999999993
 49
0.1
 74
0
 49
-12.5999999999999996
 74
0
  0
LTYPE
  5
53
100
AcDbSymbolTableRecord
100
AcDbLinetypeTableRecord
  2
DRAINAGE
 70
0
  3
Drainage ---->---->---->----
 72
65
 73
1
 40
5.0800000000000001
 49
5.0800000000000001
 74
0
  0
LTYPE
  5
54
100
AcDbSymbolTableRecord
100
AcDbLinetypeTableRecord
  2
ACAD_ISO15W100
 70
0
  3
ISO double-dash triple-dot __ __ . . . __ __ . .
 72
65
 73
10
 40
39.0000000000000071
 49
12.0
 74
0
 49
-3.0
 74
0
 49
12.0
 74
0
 49
-2.9500000000000002
 74
0
 49
0.1
 74
0
 49
-2.9000000000000004
 74
0
 49
0.1
 74
0
 49
-2.9000000000000004
 74
0
 49
0.1
 74
0
 49
-2.9500000000000002
 74
0
  0
LTYPE
  5
55
100
AcDbSymbolTableRecord
100
AcDbLinetypeTableRecord
  2
DASHED2
 70
0
  3
Dashed (.5x) _ _ _ _ _ _ _ _ _ _ _ _ _ _ _ _ _ 
 72
65
 73
2
 40
9.5249999999999986
 49
6.3499999999999996
 74
0
 49
-3.1749999999999998
 74
0
  0
LTYPE
  5
56
100
AcDbSymbolTableRecord
100
AcDbLinetypeTableRecord
  2
ACAD_ISO07W100
 70
0
  3
ISO dot . . . . . . . . . . . . . . . . . . . . 
 72
65
 73
2
 40
3.0
 49
0.1
 74
0
 49
-2.8999999999999999
 74
0
  0
LTYPE
  5
57
100
AcDbSymbolTableRecord
100
AcDbLinetypeTableRecord
  2
CUTLEFT2
 70
0
  3
G41 reversed----/----/----/----
 72
65
 73
1
 40
5.0800000000000001
 49
5.0800000000000001
 74
0
  0
LTYPE
  5
58
100
AcDbSymbolTableRecord
100
AcDbLinetypeTableRecord
  2
ACAD_ISO14W100
 70
0
  3
ISO dash triple-dot __ . . . __ . . . __ . . . _
 72
65
 73
8
 40
24.0000000000000036
 49
12.0
 74
0
 49
-2.9500000000000002
 74
0
 49
0.1
 74
0
 49
-2.9000000000000004
 74
0
 49
0.1
 74
0
 49
-2.9000000000000004
 74
0
 49
0.1
 74
0
 49
-2.9500000000000002
 74
0
  0
LTYPE
  5
59
100
AcDbSymbolTableRecord
100
AcDbLinetypeTableRecord
  2
HIDDEN
 70
0
  3
Hidden __ __ __ __ __ __ __ __ __ __ __ __ __ __
 72
65
 73
2
 40
9.5249999999999986
 49
6.3499999999999996
 74
0
 49
-3.1749999999999998
 74
0
  0
LTYPE
  5
5A
100
AcDbSymbolTableRecord
100
AcDbLinetypeTableRecord
  2
DIVIDEX2
 70
0
  3
Divide (2x) ________  .  .  ________  .  .  _
 72
65
 73
6
 40
63.5
 49
25.3999999999999986
 74
0
 49
-12.6499999999999986
 74
0
 49
0.1
 74
0
 49
-12.5999999999999979
 74
0
 49
0.1
 74
0
 49
-12.6499999999999986
 74
0
  0
LTYPE
  5
5B
100
AcDbSymbolTableRecord
100
AcDbLinetypeTableRecord
  2
ACAD_ISO06W100
 70
0
  3
ISO long-dash triple-dot ____ ... ____ ... ____
 72
65
 73
8
 40
36.0000000000000071
 49
24.0
 74
0
 49
-2.9500000000000002
 74
0
 49
0.1
 74
0
 49
-2.9000000000000004
 74
0
 49
0.1
 74
0
 49
-2.9000000000000004
 74
0
 49
0.1
 74
0
 49
-2.9500000000000002
 74
0
  0
LTYPE
  5
5C
100
AcDbSymbolTableRecord
100
AcDbLinetypeTableRecord
  2
DOT
 70
0
  3
Dot . . . . . . . . . . . . . . . . . . . . . . . .
 72
65
 73
2
 40
6.3499999999999996
 49
0.1
 74
0
 49
-6.25
 74
0
  0
LTYPE
  5
5D
100
AcDbSymbolTableRecord
100
AcDbLinetypeTableRecord
  2
CENTER2
 70
0
  3
Center (.5x) ___ _ ___ _ ___ _ ___ _ ___ _ ___
 72
65
 73
4
 40
28.5750000000000028
 49
19.0500000000000007
 74
0
 49
-3.1749999999999998
 74
0
 49
3.1749999999999998
 74
0
 49
-3.1749999999999998
 74
0
  0
LTYPE
  5
5E
100
AcDbSymbolTableRecord
100
AcDbLinetypeTableRecord
  2
ACAD_ISO13W100
 70
0
  3
ISO double-dash double-dot __ __ . . __ __ . . _
 72
65
 73
8
 40
36.0000000000000071
 49
12.0
 74
0
 49
-3.0
 74
0
 49
12.0
 74
0
 49
-2.9500000000000002
 74
0
 49
0.1
 74
0
 49
-2.9000000000000004
 74
0
 49
0.1
 74
0
 49
-2.9500000000000002
 74
0
  0
LTYPE
  5
5F
100
AcDbSymbolTableRecord
100
AcDbLinetypeTableRecord
  2
ACAD_ISO05W100
 70
0
  3
ISO long-dash double-dot ____ .. ____ .. ____ . 
 72
65
 73
6
 40
33.0000000000000071
 49
24.0
 74
0
 49
-2.9500000000000002
 74
0
 49
0.1
 74
0
 49
-2.9000000000000004
 74
0
 49
0.1
 74
0
 49
-2.9500000000000002
 74
0
  0
LTYPE
  5
60
100
AcDbSymbolTableRecord
100
AcDbLinetypeTableRecord
  2
DASHDOT2
 70
0
  3
Dash dot (.5x) _._._._._._._._._._._._._._._.
 72
65
 73
4
 40
12.6999999999999993
 49
6.3499999999999996
 74
0
 49
-3.125
 74
0
 49
0.1
 74
0
 49
-3.125
 74
0
  0
LTYPE
  5
61
100
AcDbSymbolTableRecord
100
AcDbLinetypeTableRecord
  2
CUTRIGHT2
 70
0
  3
G42 reversed----\----\----\----
 72
65
 73
1
 40
5.0800000000000001
 49
5.0800000000000001
 74
0
  0
LTYPE
  5
62
100
AcDbSymbolTableRecord
100
AcDbLinetypeTableRecord
  2
DASHDOT
 70
0
  3
Dash dot __ . __ . __ . __ . __ . __ . __ . __
 72
65
 73
4
 40
25.4000000000000021
 49
12.6999999999999993
 74
0
 49
-6.2999999999999998
 74
0
 49
0.1
 74
0
 49
-6.2999999999999998
 74
0
  0
LTYPE
  5
63
100
AcDbSymbolTableRecord
100
AcDbLinetypeTableRecord
  2
CUTRIGHT
 70
0
  3
G42 ----/----/-----/---
 72
65
 73
1
 40
5.0800000000000001
 49
5.0800000000000001
 74
0
  0
ENDTAB
  0
TABLE
  2
LAYER
  5
2
100
AcDbSymbolTable
 70
4
  0
LAYER
  5
64
100
AcDbSymbolTableRecord
100
AcDbLayerTableRecord
  2
Br\U+00fccken
 70
0
 62
5
420
255
  6
Continuous
370
15
390
F
  0
LAYER
  5
65
100
AcDbSymbolTableRecord
100
AcDbLayerTableRecord
  2
Cut
 70
0
 62
7
420
16777215
  6
Continuous
370
-3
390
F
  0
LAYER
  5
66
100
AcDbSymbolTableRecord
100
AcDbLayerTableRecord
  2
Text
 70
0
 62
1
420
16711680
  6
Continuous
370
25
390
F
  0
LAYER
  5
10
100
AcDbSymbolTableRecord
100
AcDbLayerTableRecord
  2
0
 70
1
 62
-7
420
16777215
  6
Continuous
370
25
390
F
  0
ENDTAB
  0
TABLE
  2
STYLE
  5
3
100
AcDbSymbolTable
 70
16
  0
STYLE
  5
67
100
AcDbSymbolTableRecord
100
AcDbTextStyleTableRecord
  2
Standard
 70
0
 40
0.0
 41
1.0
 50
0.0
 71
0
 42
2.5
  3

  4

1001
ACAD
1000
txt
1071
0
  0
STYLE
  5
68
100
AcDbSymbolTableRecord
100
AcDbTextStyleTableRecord
  2
textstyle0
 70
0
 40
0.0
 41
1.0
 50
0.0
 71
0
 42
3.0
  3

  4

1001
ACAD
1000
Arial
1071
0
  0
STYLE
  5
69
100
AcDbSymbolTableRecord
100
AcDbTextStyleTableRecord
  2
textstyle1
 70
0
 40
0.0
 41
1.0
 50
0.0
 71
0
 42
3.0
  3

  4

1001
ACAD
1000
Arial
1071
0
  0
STYLE
  5
6A
100
AcDbSymbolTableRecord
100
AcDbTextStyleTableRecord
  2
textstyle2
 70
0
 40
0.0
 41
1.0
 50
0.0
 71
0
 42
3.0
  3

  4

1001
ACAD
1000
Arial
1071
0
  0
STYLE
  5
6B
100
AcDbSymbolTableRecord
100
AcDbTextStyleTableRecord
  2
textstyle3
 70
0
 40
0.0
 41
1.0
 50
0.0
 71
0
 42
3.0
  3

  4

1001
ACAD
1000
Arial
1071
0
  0
STYLE
  5
6C
100
AcDbSymbolTableRecord
100
AcDbTextStyleTableRecord
  2
textstyle4
 70
0
 40
0.0
 41
1.0
 50
0.0
 71
0
 42
3.0
  3

  4

1001
ACAD
1000
Arial
1071
0
  0
STYLE
  5
6D
100
AcDbSymbolTableRecord
100
AcDbTextStyleTableRecord
  2
textstyle5
 70
0
 40
0.0
 41
1.0
 50
0.0
 71
0
 42
3.0
  3

  4

1001
ACAD
1000
Arial
1071
0
  0
STYLE
  5
6E
100
AcDbSymbolTableRecord
100
AcDbTextStyleTableRecord
  2
textstyle6
 70
0
 40
0.0
 41
1.0
 50
0.0
 71
0
 42
3.0
  3

  4

1001
ACAD
1000
Arial
1071
0
  0
STYLE
  5
6F
100
AcDbSymbolTableRecord
100
AcDbTextStyleTableRecord
  2
textstyle7
 70
0
 40
0.0
 41
1.0
 50
0.0
 71
0
 42
3.0
  3

  4

1001
ACAD
1000
Arial
1071
0
  0
STYLE
  5
70
100
AcDbSymbolTableRecord
100
AcDbTextStyleTableRecord
  2
textstyle8
 70
0
 40
0.0
 41
1.0
 50
0.0
 71
0
 42
3.0
  3

  4

1001
ACAD
1000
Arial
1071
0
  0
STYLE
  5
71
100
AcDbSymbolTableRecord
100
AcDbTextStyleTableRecord
  2
textstyle9
 70
0
 40
0.0
 41
1.0
 50
0.0
 71
0
 42
3.0
  3

  4

1001
ACAD
1000
Arial
1071
0
  0
STYLE
  5
72
100
AcDbSymbolTableRecord
100
AcDbTextStyleTableRecord
  2
textstyle10
 70
0
 40
0.0
 41
1.0
 50
0.0
 71
0
 42
3.0
  3

  4

1001
ACAD
1000
Arial
1071
0
  0
STYLE
  5
73
100
AcDbSymbolTableRecord
100
AcDbTextStyleTableRecord
  2
textstyle11
 70
0
 40
0.0
 41
1.0
 50
0.0
 71
0
 42
3.0
  3

  4

1001
ACAD
1000
Arial
1071
0
  0
STYLE
  5
74
100
AcDbSymbolTableRecord
100
AcDbTextStyleTableRecord
  2
textstyle12
 70
0
 40
0.0
 41
1.0
 50
0.0
 71
0
 42
3.0
  3

  4

1001
ACAD
1000
Arial
1071
0
  0
STYLE
  5
75
100
AcDbSymbolTableRecord
100
AcDbTextStyleTableRecord
  2
textstyle13
 70
0
 40
0.0
 41
1.0
 50
0.0
 71
0
 42
3.0
  3

  4

1001
ACAD
1000
Arial
1071
0
  0
STYLE
  5
76
100
AcDbSymbolTableRecord
100
AcDbTextStyleTableRecord
  2
textstyle14
 70
0
 40
0.0
 41
1.0
 50
0.0
 71
0
 42
3.0
  3

  4

1001
ACAD
1000
Arial
1071
0
  0
ENDTAB
  0
TABLE
  2
VIEW
  5
6
100
AcDbSymbolTable
 70
0
  0
ENDTAB
  0
TABLE
  2
UCS
  5
7
100
AcDbSymbolTable
 70
0
  0
ENDTAB
  0
TABLE
  2
APPID
  5
9
100
AcDbSymbolTable
 70
1
  0
APPID
  5
12
100
AcDbSymbolTableRecord
100
AcDbRegAppTableRecord
  2
ACAD
 70
0
  0
APPID
  5
77
100
AcDbSymbolTableRecord
100
AcDbRegAppTableRecord
  2
QCAD
 70
0
  0
ENDTAB
  0
TABLE
  2
DIMSTYLE
  5
A
100
AcDbSymbolTable
 70
1
100
AcDbDimStyleTable
 71
0
  0
DIMSTYLE
105
27
100
AcDbSymbolTableRecord
100
AcDbDimStyleTableRecord
  2
Standard
 41
2.5
 42
0.625
 43
3.75
 44
1.25
 70
0
 73
0
 74
0
 77
1
 78
8
140
2.5
141
2.5
143
0.03937007874016
147
0.625
171
3
172
1
271
2
272
2
274
3
278
44
283
0
284
8
340
67
  0
ENDTAB
  0
TABLE
  2
BLOCK_RECORD
  5
1
100
AcDbSymbolTable
 70
1
  0
BLOCK_RECORD
  5
1F
100
AcDbSymbolTableRecord
100
AcDbBlockTableRecord
  2
*Model_Space
340
22
  0
BLOCK_RECORD
  5
1B
100
AcDbSymbolTableRecord
100
AcDbBlockTableRecord
  2
*Paper_Space
340
1E
  0
BLOCK_RECORD
  5
23
100
AcDbSymbolTableRecord
100
AcDbBlockTableRecord
  2
*Paper_Space0
340
26
  0
ENDTAB
  0
ENDSEC
  0
SECTION
  2
BLOCKS
  0
BLOCK
  5
20
100
AcDbEntity
  8
0
100
AcDbBlockBegin
  2
*Model_Space
 70
0
 10
0.0
 20
0.0
 30
0.0
  3
*Model_Space
  1

  0
ENDBLK
  5
21
100
AcDbEntity
  8
0
100
AcDbBlockEnd
  0
BLOCK
  5
1C
100
AcDbEntity
 67
1
  8
0
100
AcDbBlockBegin
  2
*Paper_Space
 70
0
 10
0.0
 20
0.0
 30
0.0
  3
*Paper_Space
  1

  0
ENDBLK
  5
1D
100
AcDbEntity
 67
1
  8
0
100
AcDbBlockEnd
  0
BLOCK
  5
24
100
AcDbEntity
  8
0
100
AcDbBlockBegin
  2
*Paper_Space0
 70
0
 10
0.0
 20
0.0
 30
0.0
  3
*Paper_Space0
  1

  0
ENDBLK
  5
25
100
AcDbEntity
  8
0
100
AcDbBlockEnd
  0
ENDSEC
  0
SECTION
  2
ENTITIES
  0
SPLINE
  5
78
  8
Cut
 62
256
370
-1
 48
1.0
  6
ByLayer
100
AcDbEntity
100
AcDbSpline
 70
8
 71
3
 72
8
 73
4
 74
0
 40
0.0
 40
0.0
 40
0.0
 40
0.0
 40
1.0
 40
1.0
 40
1.0
 40
1.0
 10
7.3065595409999986
 20
46.3099837984999709
 30
0.0
 10
9.7551546569999896
 20
46.4023745584999716
 30
0.0
 10
12.2586042869999918
 20
46.3521495814999724
 30
0.0
 10
14.7081193109999919
 20
46.3212226745000208
 30
0.0
  0
SPLINE
  5
79
  8
Cut
 62
256
370
-1
 48
1.0
  6
ByLayer
100
AcDbEntity
100
AcDbSpline
 70
8
 71
3
 72
8
 73
4
 74
0
 40
0.0
 40
0.0
 40
0.0
 40
0.0
 40
1.0
 40
1.0
 40
1.0
 40
1.0
 10
14.7081193109999919
 20
46.3212226745000208
 30
0.0
 10
15.3331568010000012
 20
46.3133234645000158
 30
0.0
 10
16.9186782329999907
 20
46.504807314200022
 30
0.0
 10
17.4040096949999921
 20
46.1204557531999626
 30
0.0
  0
SPLINE
  5
7A
  8
Cut
 62
256
370
-1
 48
1.0
  6
ByLayer
100
AcDbEntity
100
AcDbSpline
 70
8
 71
3
 72
8
 73
4
 74
0
 40
0.0
 40
0.0
 40
0.0
 40
0.0
 40
1.0
 40
1.0
 40
1.0
 40
1.0
 10
17.4040096949999921
 20
46.1204557531999626
 30
0.0
 10
17.7357565170000022
 20
45.8577000314000287
 30
0.0
 10
17.6158785060000014
 20
45.179135894600023
 30
0.0
 10
17.6158785060000014
 20
44.8024495670000107
 30
0.0
  0
SPLINE
  5
7B
  8
Cut
 62
256
370
-1
 48
1.0
  6
ByLayer
100
AcDbEntity
100
AcDbSpline
 70
8
 71
3
 72
8
 73
4
 74
0
 40
0.0
 40
0.0
 40
0.0
 40
0.0
 40
1.0
 40
1.0
 40
1.0
 40
1.0
 10
17.6158785060000014
 20
44.8024495670000107
 30
0.0
 10
17.6160084930000025
 20
43.5555512692999827
 30
0.0
 10
17.1600240960000008
 20
41.0569961497999714
 30
0.0
 10
18.9375863219999907
 20
40.8875530958000155
 30
0.0
  0
SPLINE
  5
7C
  8
Cut
 62
256
370
-1
 48
1.0
  6
ByLayer
100
AcDbEntity
100
AcDbSpline
 70
8
 71
3
 72
8
 73
4
 74
0
 40
0.0
 40
0.0
 40
0.0
 40
0.0
 40
1.0
 40
1.0
 40
1.0
 40
1.0
 10
18.9375863219999907
 20
40.8875530958000155
 30
0.0
 10
21.5164984050000001
 20
40.641583695200012
 30
0.0
 10
19.6852715459999921
 20
44.8547893324999905
 30
0.0
 10
20.7237376889999929
 20
45.9346233383000282
 30
0.0
  0
SPLINE
  5
7D
  8
Cut
 62
256
370
-1
 48
1.0
  6
ByLayer
100
AcDbEntity
100
AcDbSpline
 70
8
 71
3
 72
8
 73
4
 74
0
 40
0.0
 40
0.0
 40
0.0
 40
0.0
 40
1.0
 40
1.0
 40
1.0
 40
1.0
 10
20.7237376889999929
 20
45.9346233383000282
 30
0.0
 10
21.0845616029999903
 20
46.3099877981000247
 30
0.0
 10
21.6313569179999909
 20
46.2420525922999985
 30
0.0
 10
22.1096790809999924
 20
46.2614816492000216
 30
0.0
  0
SPLINE
  5
7E
  8
Cut
 62
256
370
-1
 48
1.0
  6
ByLayer
100
AcDbEntity
100
AcDbSpline
 70
8
 71
3
 72
8
 73
4
 74
0
 40
0.0
 40
0.0
 40
0.0
 40
0.0
 40
1.0
 40
1.0
 40
1.0
 40
1.0
 10
22.1096790809999924
 20
46.2614816492000216
 30
0.0
 10
23.2545445829999906
 20
46.3080069962000209
 30
0.0
 10
25.298700146999991
 20
46.6166241313999876
 30
0.0
 10
26.3194480619999922
 20
46.2679809992000202
 30
0.0
  0
SPLINE
  5
7F
  8
Cut
 62
256
370
-1
 48
1.0
  6
ByLayer
100
AcDbEntity
100
AcDbSpline
 70
8
 71
3
 72
8
 73
4
 74
0
 40
0.0
 40
0.0
 40
0.0
 40
0.0
 40
1.0
 40
1.0
 40
1.0
 40
1.0
 10
26.3194480619999922
 20
46.2679809992000202
 30
0.0
 10
26.8528947119999906
 20
46.0857172273999822
 30
0.0
 10
26.6169683069999898
 20
45.2756432429000313
 30
0.0
 10
26.6054694569999803
 20
44.802472564700011
 30
0.0
  0
SPLINE
  5
80
  8
Cut
 62
256
370
-1
 48
1.0
  6
ByLayer
100
AcDbEntity
100
AcDbSpline
 70
8
 71
3
 72
8
 73
4
 74
0
 40
0.0
 40
0.0
 40
0.0
 40
0.0
 40
1.0
 40
1.0
 40
1.0
 40
1.0
 10
26.6054694569999803
 20
44.802472564700011
 30
0.0
 10
26.5767723269999898
 20
43.6328935342999955
 30
0.0
 10
26.2410758999999807
 20
41.0451233371999962
 30
0.0
 10
27.9251874719999833
 20
40.9297388768000161
 30
0.0
  0
SPLINE
  5
81
  8
Cut
 62
256
370
-1
 48
1.0
  6
ByLayer
100
AcDbEntity
100
AcDbSpline
 70
8
 71
3
 72
8
 73
4
 74
0
 40
0.0
 40
0.0
 40
0.0
 40
0.0
 40
1.0
 40
1.0
 40
1.0
 40
1.0
 10
27.0
 20
26.0
 30
0.0
 10
24.5231177130000013
 20
25.9337866219999817
 30
0.0
 10
21.9414259079999816
 20
25.6876802350999931
 30
0.0
 10
19.4662634489999924
 20
25.951494851000021
 30
0.0
  0
SPLINE
  5
82
  8
Cut
 62
256
370
-1
 48
1.0
  6
ByLayer
100
AcDbEntity
100
AcDbSpline
 70
8
 71
3
 72
8
 73
4
 74
0
 40
0.0
 40
0.0
 40
0.0
 40
0.0
 40
1.0
 40
1.0
 40
1.0
 40
1.0
 10
18.8743726439999833
 20
25.9549055099000014
 30
0.0
 10
18.6105990239999919
 20
26.0426957299999913
 30
0.0
 10
16.9652035799999794
 20
25.6891360894999821
 30
0.0
 10
16.3515349530000016
 20
26.3387551210999931
 30
0.0
  0
SPLINE
  5
83
  8
Cut
 62
256
370
-1
 48
1.0
  6
ByLayer
100
AcDbEntity
100
AcDbSpline
 70
8
 71
3
 72
8
 73
4
 74
0
 40
0.0
 40
0.0
 40
0.0
 40
0.0
 40
1.0
 40
1.0
 40
1.0
 40
1.0
 10
16.3515349530000016
 20
26.3387551210999931
 30
0.0
 10
15.6943806749999819
 20
27.034369552700003
 30
0.0
 10
16.030227086999993
 20
28.823431628599991
 30
0.0
 10
16.0298271269999901
 20
29.735013461300003
 30
0.0
  0
SPLINE
  5
84
  8
Cut
 62
256
370
-1
 48
1.0
  6
ByLayer
100
AcDbEntity
100
AcDbSpline
 70
8
 71
3
 72
8
 73
4
 74
0
 40
0.0
 40
0.0
 40
0.0
 40
0.0
 40
1.0
 40
1.0
 40
1.0
 40
1.0
 10
16.0298271269999901
 20
29.735013461300003
 30
0.0
 10
16.029697139999989
 20
30.1120967491999885
 30
0.0
 10
16.124117696999992
 20
30.6783151216999777
 30
0.0
 10
15.8179583159999915
 20
30.9208488658999947
 30
0.0
  0
SPLINE
  5
85
  8
Cut
 62
256
370
-1
 48
1.0
  6
ByLayer
100
AcDbEntity
100
AcDbSpline
 70
8
 71
3
 72
8
 73
4
 74
0
 40
0.0
 40
0.0
 40
0.0
 40
0.0
 40
1.0
 40
1.0
 40
1.0
 40
1.0
 10
15.8179583159999915
 20
30.9208488658999947
 30
0.0
 10
15.500880026999992
 20
31.1719727509999949
 30
0.0
 10
14.8603840829999907
 20
31.0567202773999931
 30
0.0
 10
14.443785746999982
 20
31.0567202773999931
 30
0.0
  0
SPLINE
  5
86
  8
Cut
 62
256
370
-1
 48
1.0
  6
ByLayer
100
AcDbEntity
100
AcDbSpline
 70
8
 71
3
 72
8
 73
4
 74
0
 40
0.0
 40
0.0
 40
0.0
 40
0.0
 40
1.0
 40
1.0
 40
1.0
 40
1.0
 10
14.443785746999982
 20
31.0567202773999931
 30
0.0
 10
13.2505450829999916
 20
31.0567202773999931
 30
0.0
 10
11.2706230949999924
 20
30.6713108221999953
 30
0.0
 10
10.3833618299999895
 20
31.6136875750999984
 30
0.0
  0
SPLINE
  5
87
  8
Cut
 62
256
370
-1
 48
1.0
  6
ByLayer
100
AcDbEntity
100
AcDbSpline
 70
8
 71
3
 72
8
 73
4
 74
0
 40
0.0
 40
0.0
 40
0.0
 40
0.0
 40
1.0
 40
1.0
 40
1.0
 40
1.0
 10
10.3833618299999895
 20
31.6136875750999984
 30
0.0
 10
9.5442157529999889
 20
32.5047824566999992
 30
0.0
 10
9.9768124889999896
 20
34.5318847261999906
 30
0.0
 10
9.9479953709999993
 20
35.6826946336999953
 30
0.0
  0
SPLINE
  5
88
  8
Cut
 62
256
370
-1
 48
1.0
  6
ByLayer
100
AcDbEntity
100
AcDbSpline
 70
8
 71
3
 72
8
 73
4
 74
0
 40
0.0
 40
0.0
 40
0.0
 40
0.0
 40
1.0
 40
1.0
 40
1.0
 40
1.0
 10
9.9479953709999993
 20
35.6826946336999953
 30
0.0
 10
9.9314970209999895
 20
36.3473811583999975
 30
0.0
 10
9.7841017619999988
 20
37.0498679027000009
 30
0.0
 10
9.1544447339999895
 20
37.3772551606999883
 30
0.0
  0
SPLINE
  5
89
  8
Cut
 62
256
370
-1
 48
1.0
  6
ByLayer
100
AcDbEntity
100
AcDbSpline
 70
8
 71
3
 72
8
 73
4
 74
0
 40
0.0
 40
0.0
 40
0.0
 40
0.0
 40
1.0
 40
1.0
 40
1.0
 40
1.0
 10
9.1544447339999895
 20
37.3772551606999883
 30
0.0
 10
8.50693949099999
 20
37.713893493499981
 30
0.0
 10
7.7982403679999788
 20
37.4307798076999916
 30
0.0
 10
7.43992620299999
 20
36.8664152497999993
 30
0.0
  0
SPLINE
  5
8A
  8
Cut
 62
256
370
-1
 48
1.0
  6
ByLayer
100
AcDbEntity
100
AcDbSpline
 70
8
 71
3
 72
8
 73
4
 74
0
 40
0.0
 40
0.0
 40
0.0
 40
0.0
 40
1.0
 40
1.0
 40
1.0
 40
1.0
 10
7.43992620299999
 20
36.8664152497999993
 30
0.0
 10
6.7072994729999902
 20
35.7124326596000117
 30
0.0
 10
7.8356466269999991
 20
33.8609858228000178
 30
0.0
 10
7.0385263469999888
 20
32.8546384676000116
 30
0.0
  0
SPLINE
  5
8B
  8
Cut
 62
256
370
-1
 48
1.0
  6
ByLayer
100
AcDbEntity
100
AcDbSpline
 70
8
 71
3
 72
8
 73
4
 74
0
 40
0.0
 40
0.0
 40
0.0
 40
0.0
 40
1.0
 40
1.0
 40
1.0
 40
1.0
 10
7.0385263469999888
 20
32.8546384676000116
 30
0.0
 10
6.8136988319999894
 20
32.5708678475000113
 30
0.0
 10
6.3084093659999816
 20
32.6434295905999932
 30
0.0
 10
5.9848617239999902
 20
32.6427686566999853
 30
0.0
  0
SPLINE
  5
8C
  8
Cut
 62
256
370
-1
 48
1.0
  6
ByLayer
100
AcDbEntity
100
AcDbSpline
 70
8
 71
3
 72
8
 73
4
 74
0
 40
0.0
 40
0.0
 40
0.0
 40
0.0
 40
1.0
 40
1.0
 40
1.0
 40
1.0
 10
5.9848617239999902
 20
32.6427686566999853
 30
0.0
 10
5.0501452049999891
 20
32.6407688567000207
 30
0.0
 10
3.8960306279999917
 20
32.4435875767999988
 30
0.0
 10
3.0790823309999897
 20
32.9525766728000065
 30
0.0
  0
SPLINE
  5
8D
  8
Cut
 62
256
370
-1
 48
1.0
  6
ByLayer
100
AcDbEntity
100
AcDbSpline
 70
8
 71
3
 72
8
 73
4
 74
0
 40
0.0
 40
0.0
 40
0.0
 40
0.0
 40
1.0
 40
1.0
 40
1.0
 40
1.0
 10
3.0790823309999897
 20
32.9525766728000065
 30
0.0
 10
1.670933159999981
 20
33.830189902699999
 30
0.0
 10
2.1519050579999828
 20
36.4465092446000085
 30
0.0
 10
2.1519050579999828
 20
37.9295959211000024
 30
0.0
  0
SPLINE
  5
8E
  8
Cut
 62
256
370
-1
 48
1.0
  6
ByLayer
100
AcDbEntity
100
AcDbSpline
 70
8
 71
3
 72
8
 73
4
 74
0
 40
0.0
 40
0.0
 40
0.0
 40
0.0
 40
1.0
 40
1.0
 40
1.0
 40
1.0
 10
2.1519050579999828
 20
37.9295959211000024
 30
0.0
 10
2.1519050579999828
 20
39.5695699072999787
 30
0.0
 10
1.912938956999982
 20
41.4738854567000317
 30
0.0
 10
2.195400707999994
 20
43.0842534037999911
 30
0.0
  0
SPLINE
  5
8F
  8
Cut
 62
256
370
-1
 48
1.0
  6
ByLayer
100
AcDbEntity
100
AcDbSpline
 70
8
 71
3
 72
8
 73
4
 74
0
 40
0.0
 40
0.0
 40
0.0
 40
0.0
 40
1.0
 40
1.0
 40
1.0
 40
1.0
 10
2.195400707999994
 20
43.0842534037999911
 30
0.0
 10
2.3739628499999896
 20
44.1031575031999807
 30
0.0
 10
3.0160486349999895
 20
45.0147383360000077
 30
0.0
 10
3.8701332179999857
 20
45.623384465299992
 30
0.0
  0
SPLINE
  5
90
  8
Cut
 62
256
370
-1
 48
1.0
  6
ByLayer
100
AcDbEntity
100
AcDbSpline
 70
8
 71
3
 72
8
 73
4
 74
0
 40
0.0
 40
0.0
 40
0.0
 40
0.0
 40
1.0
 40
1.0
 40
1.0
 40
1.0
 10
3.8701332179999857
 20
45.623384465299992
 30
0.0
 10
4.8959106299999853
 20
46.3542883675999917
 30
0.0
 10
6.0876914399999897
 20
46.2640153957999729
 30
0.0
 10
7.3065695399999893
 20
46.3100107958000251
 30
0.0
  0
SPLINE
  5
91
  8
Cut
 62
256
370
-1
 48
1.0
  6
ByLayer
100
AcDbEntity
100
AcDbSpline
 70
8
 71
3
 72
8
 73
4
 74
0
 40
0.0
 40
0.0
 40
0.0
 40
0.0
 40
1.0
 40
1.0
 40
1.0
 40
1.0
 10
30.6365490765776407
 20
21.1029585667185415
 30
0.0
 10
31.0872854101826412
 20
20.5679476406958308
 30
0.0
 10
31.0421124842813008
 20
19.6480774010609913
 30
0.0
 10
31.0784983370479431
 20
18.9850108015582606
 30
0.0
  0
SPLINE
  5
92
  8
Cut
 62
256
370
-1
 48
1.0
  6
ByLayer
100
AcDbEntity
100
AcDbSpline
 70
8
 71
3
 72
8
 73
4
 74
0
 40
0.0
 40
0.0
 40
0.0
 40
0.0
 40
1.0
 40
1.0
 40
1.0
 40
1.0
 10
31.0784983370479431
 20
18.9850108015582606
 30
0.0
 10
31.176939424697462
 20
17.1911290754123094
 30
0.0
 10
31.7391581423705027
 20
14.7042654516121019
 30
0.0
 10
31.2488821587240402
 20
12.9923169896222817
 30
0.0
  0
SPLINE
  5
93
  8
Cut
 62
256
370
-1
 48
1.0
  6
ByLayer
100
AcDbEntity
100
AcDbSpline
 70
8
 71
3
 72
8
 73
4
 74
0
 40
0.0
 40
0.0
 40
0.0
 40
0.0
 40
1.0
 40
1.0
 40
1.0
 40
1.0
 10
31.2488821587240402
 20
12.9923169896222817
 30
0.0
 10
30.9114986702941721
 20
11.8140162399355617
 30
0.0
 10
29.5026303593055523
 20
11.3736720380329643
 30
0.0
 10
28.6204500959067722
 20
12.2482866084335029
 30
0.0
  0
SPLINE
  5
94
  8
Cut
 62
256
370
-1
 48
1.0
  6
ByLayer
100
AcDbEntity
100
AcDbSpline
 70
8
 71
3
 72
8
 73
4
 74
0
 40
0.0
 40
0.0
 40
0.0
 40
0.0
 40
1.0
 40
1.0
 40
1.0
 40
1.0
 10
28.6204500959067722
 20
12.2482866084335029
 30
0.0
 10
28.077437491936962
 20
12.7864860070515221
 30
0.0
 10
28.1265013824389811
 20
13.6056551347161019
 30
0.0
 10
28.0787667694020513
 20
14.3218310010196213
 30
0.0
  0
SPLINE
  5
95
  8
Cut
 62
256
370
-1
 48
1.0
  6
ByLayer
100
AcDbEntity
100
AcDbSpline
 70
8
 71
3
 72
8
 73
4
 74
0
 40
0.0
 40
0.0
 40
0.0
 40
0.0
 40
1.0
 40
1.0
 40
1.0
 40
1.0
 10
28.0787667694020513
 20
14.3218310010196213
 30
0.0
 10
27.9584419325823106
 20
16.1291176019007629
 30
0.0
 10
27.2911452345514931
 20
18.8432188499170223
 30
0.0
 10
27.8534849036818102
 20
20.5564357293804321
 30
0.0
  0
SPLINE
  5
96
  8
Cut
 62
256
370
-1
 48
1.0
  6
ByLayer
100
AcDbEntity
100
AcDbSpline
 70
8
 71
3
 72
8
 73
4
 74
0
 40
0.0
 40
0.0
 40
0.0
 40
0.0
 40
1.0
 40
1.0
 40
1.0
 40
1.0
 10
27.8534849036818102
 20
20.5564357293804321
 30
0.0
 10
28.2316416766155811
 20
21.7084740167747725
 30
0.0
 10
29.8343415545629611
 20
22.0549913144812315
 30
0.0
 10
30.6365490765776407
 20
21.1029585667185415
 30
0.0
  0
SPLINE
  5
97
  8
Cut
 62
256
370
-1
 48
1.0
  6
ByLayer
100
AcDbEntity
100
AcDbSpline
 70
8
 71
3
 72
8
 73
4
 74
0
 40
0.0
 40
0.0
 40
0.0
 40
0.0
 40
1.0
 40
1.0
 40
1.0
 40
1.0
 10
40.6038905672159416
 20
13.0467607534298509
 30
0.0
 10
40.3021572167232591
 20
11.629986175548332
 30
0.0
 10
38.2365833823756347
 20
11.360307998623373
 30
0.0
 10
37.6400838041464993
 20
12.7695578733751809
 30
0.0
  0
SPLINE
  5
98
  8
Cut
 62
256
370
-1
 48
1.0
  6
ByLayer
100
AcDbEntity
100
AcDbSpline
 70
8
 71
3
 72
8
 73
4
 74
0
 40
0.0
 40
0.0
 40
0.0
 40
0.0
 40
1.0
 40
1.0
 40
1.0
 40
1.0
 10
37.6400838041464993
 20
12.7695578733751809
 30
0.0
 10
37.0056053741799147
 20
14.2685484764808912
 30
0.0
 10
37.4510163312941486
 20
17.0317705166403108
 30
0.0
 10
37.4371018530137789
 20
18.6502322318393823
 30
0.0
  0
SPLINE
  5
99
  8
Cut
 62
256
370
-1
 48
1.0
  6
ByLayer
100
AcDbEntity
100
AcDbSpline
 70
8
 71
3
 72
8
 73
4
 74
0
 40
0.0
 40
0.0
 40
0.0
 40
0.0
 40
1.0
 40
1.0
 40
1.0
 40
1.0
 10
37.4371018530137789
 20
18.6502322318393823
 30
0.0
 10
37.4315337382824183
 20
19.3069019207449806
 30
0.0
 10
37.3146540748210285
 20
20.1183443725225608
 30
0.0
 10
37.5543657326690905
 20
20.738499689311972
 30
0.0
  0
SPLINE
  5
9A
  8
Cut
 62
256
370
-1
 48
1.0
  6
ByLayer
100
AcDbEntity
100
AcDbSpline
 70
8
 71
3
 72
8
 73
4
 74
0
 40
0.0
 40
0.0
 40
0.0
 40
0.0
 40
1.0
 40
1.0
 40
1.0
 40
1.0
 10
22.8078477527946717
 20
57.0844613848361888
 30
0.0
 10
23.2188986435946916
 20
55.5922506208361682
 30
0.0
 10
22.9018183547946812
 20
53.098190051836184
 30
0.0
 10
22.8825202847946727
 20
51.5332965568361629
 30
0.0
  0
SPLINE
  5
9B
  8
Cut
 62
256
370
-1
 48
1.0
  6
ByLayer
100
AcDbEntity
100
AcDbSpline
 70
8
 71
3
 72
8
 73
4
 74
0
 40
0.0
 40
0.0
 40
0.0
 40
0.0
 40
1.0
 40
1.0
 40
1.0
 40
1.0
 10
37.5543657326690905
 20
20.738499689311972
 30
0.0
 10
38.0996085051942686
 20
22.1494309902253121
 30
0.0
 10
40.1482154874329282
 20
21.8647961034539122
 30
0.0
 10
40.5578806797785347
 20
20.5439068920993435
 30
0.0
  0
SPLINE
  5
9C
  8
Cut
 62
256
370
-1
 48
1.0
  6
ByLayer
100
AcDbEntity
100
AcDbSpline
 70
8
 71
3
 72
8
 73
4
 74
0
 40
0.0
 40
0.0
 40
0.0
 40
0.0
 40
1.0
 40
1.0
 40
1.0
 40
1.0
 10
22.8825202847946727
 20
51.5332965568361629
 30
0.0
 10
22.8739211447946715
 20
50.8314667468361705
 30
0.0
 10
22.7610554324946719
 20
50.2261272868361601
 30
0.0
 10
22.2079207514946724
 20
49.7119787068361774
 30
0.0
  0
SPLINE
  5
9D
  8
Cut
 62
256
370
-1
 48
1.0
  6
ByLayer
100
AcDbEntity
100
AcDbSpline
 70
8
 71
3
 72
8
 73
4
 74
0
 40
0.0
 40
0.0
 40
0.0
 40
0.0
 40
1.0
 40
1.0
 40
1.0
 40
1.0
 10
40.5578806797785347
 20
20.5439068920993435
 30
0.0
 10
41.0299808502397241
 20
19.022057635495031
 30
0.0
 10
40.6409654223703285
 20
16.7604672458103643
 30
0.0
 10
40.6591826479555749
 20
15.1722634578444406
 30
0.0
  0
SPLINE
  5
9E
  8
Cut
 62
256
370
-1
 48
1.0
  6
ByLayer
100
AcDbEntity
100
AcDbSpline
 70
8
 71
3
 72
8
 73
4
 74
0
 40
0.0
 40
0.0
 40
0.0
 40
0.0
 40
1.0
 40
1.0
 40
1.0
 40
1.0
 10
22.2079207514946724
 20
49.7119787068361774
 30
0.0
 10
20.7178277756946798
 20
48.3281571028361725
 30
0.0
 10
16.8680917877946719
 20
49.022047706836176
 30
0.0
 10
14.9528063354946923
 20
49.022047706836176
 30
0.0
  0
SPLINE
  5
9F
  8
Cut
 62
256
370
-1
 48
1.0
  6
ByLayer
100
AcDbEntity
100
AcDbSpline
 70
8
 71
3
 72
8
 73
4
 74
0
 40
0.0
 40
0.0
 40
0.0
 40
0.0
 40
1.0
 40
1.0
 40
1.0
 40
1.0
 10
40.6591826479555749
 20
15.1722634578444406
 30
0.0
 10
40.6672612104923488
 20
14.4699863411089922
 30
0.0
 10
40.7490741201947699
 20
13.7284946714019007
 30
0.0
 10
40.6038905672159416
 20
13.0467607534298509
 30
0.0
  0
SPLINE
  5
A0
  8
Cut
 62
256
370
-1
 48
1.0
  6
ByLayer
100
AcDbEntity
100
AcDbSpline
 70
8
 71
3
 72
8
 73
4
 74
0
 40
0.0
 40
0.0
 40
0.0
 40
0.0
 40
1.0
 40
1.0
 40
1.0
 40
1.0
 10
14.9528063354946923
 20
49.022047706836176
 30
0.0
 10
13.2820364291946813
 20
49.022047706836176
 30
0.0
 10
11.4504146096946808
 20
48.8237975338361707
 30
0.0
 10
9.7981488527946716
 20
49.0617437368361777
 30
0.0
  0
SPLINE
  5
A1
  8
Cut
 62
256
370
-1
 48
1.0
  6
ByLayer
100
AcDbEntity
100
AcDbSpline
 70
8
 71
3
 72
8
 73
4
 74
0
 40
0.0
 40
0.0
 40
0.0
 40
0.0
 40
1.0
 40
1.0
 40
1.0
 40
1.0
 10
9.7981488527946716
 20
49.0617437368361777
 30
0.0
 10
8.9153811383946664
 20
49.1886210478361647
 30
0.0
 10
8.0912965550946812
 20
49.5468052258361809
 30
0.0
 10
7.7763340544946686
 20
50.4759623008361871
 30
0.0
  0
SPLINE
  5
A2
  8
Cut
 62
256
370
-1
 48
1.0
  6
ByLayer
100
AcDbEntity
100
AcDbSpline
 70
8
 71
3
 72
8
 73
4
 74
0
 40
0.0
 40
0.0
 40
0.0
 40
0.0
 40
1.0
 40
1.0
 40
1.0
 40
1.0
 10
7.7763340544946686
 20
50.4759623008361871
 30
0.0
 10
7.2266360297946859
 20
52.096380242836176
 30
0.0
 10
7.5092167688946656
 20
54.4543044268361598
 30
0.0
 10
7.5532293671946906
 20
56.1593039098361686
 30
0.0
  0
SPLINE
  5
A3
  8
Cut
 62
256
370
-1
 48
1.0
  6
ByLayer
100
AcDbEntity
100
AcDbSpline
 70
8
 71
3
 72
8
 73
4
 74
0
 40
0.0
 40
0.0
 40
0.0
 40
0.0
 40
1.0
 40
1.0
 40
1.0
 40
1.0
 10
7.5532293671946906
 20
56.1593039098361686
 30
0.0
 10
7.5745072391946824
 20
56.9866911628361805
 30
0.0
 10
7.8507456125946735
 20
57.8061492088361888
 30
0.0
 10
8.6105956199946796
 20
58.2727125478361785
 30
0.0
  0
SPLINE
  5
A4
  8
Cut
 62
256
370
-1
 48
1.0
  6
ByLayer
100
AcDbEntity
100
AcDbSpline
 70
8
 71
3
 72
8
 73
4
 74
0
 40
0.0
 40
0.0
 40
0.0
 40
0.0
 40
1.0
 40
1.0
 40
1.0
 40
1.0
 10
8.6105956199946796
 20
58.2727125478361785
 30
0.0
 10
9.2364230309946791
 20
58.6573340818361686
 30
0.0
 10
10.0072429412946704
 20
58.5383759788361715
 30
0.0
 10
10.7233443239946702
 20
58.5383759788361715
 30
0.0
  0
SPLINE
  5
A5
  8
Cut
 62
256
370
-1
 48
1.0
  6
ByLayer
100
AcDbEntity
100
AcDbSpline
 70
8
 71
3
 72
8
 73
4
 74
0
 40
0.0
 40
0.0
 40
0.0
 40
0.0
 40
1.0
 40
1.0
 40
1.0
 40
1.0
 10
15.613660243494671
 20
58.5383759788361715
 30
0.0
 10
17.2383017630946824
 20
58.5383759788361715
 30
0.0
 10
18.8813164451946811
 20
58.541375678836161
 30
0.0
 10
20.5039761629946717
 20
58.5383759788361715
 30
0.0
  0
SPLINE
  5
A6
  8
Cut
 62
256
370
-1
 48
1.0
  6
ByLayer
100
AcDbEntity
100
AcDbSpline
 70
8
 71
3
 72
8
 73
4
 74
0
 40
0.0
 40
0.0
 40
0.0
 40
0.0
 40
1.0
 40
1.0
 40
1.0
 40
1.0
 10
20.5039761629946717
 20
58.5383759788361715
 30
0.0
 10
21.5626632836946825
 20
58.537376078836175
 30
0.0
 10
22.4879907416946807
 20
58.2462851908361614
 30
0.0
 10
22.8078437531946818
 20
57.0845013808361585
 30
0.0
  0
LWPOLYLINE
  5
A7
  8
Cut
 62
256
370
-1
 48
1.0
  6
ByLayer
100
AcDbEntity
100
AcDbPolyline
 90
2
 70
0
 10
11.6238043276809222
 20
58.4816461274320858
 30
0.0
 10
15.613660243494671
 20
58.5383759788361715
 30
0.0
  0
SPLINE
  5
A8
  8
Cut
 62
256
370
-1
 48
1.0
  6
ByLayer
100
AcDbEntity
100
AcDbSpline
 70
8
 71
3
 72
8
 73
4
 74
0
 40
0.0
 40
0.0
 40
0.0
 40
0.0
 40
1.0
 40
1.0
 40
1.0
 40
1.0
 10
9.4653542647308182
 20
19.9686450011024412
 30
0.0
 10
9.8845401827958685
 20
19.3953784131963829
 30
0.0
 10
9.7835472528079581
 20
18.5288074591406726
 30
0.0
 10
9.7546267000002782
 20
17.8463925839865603
 30
0.0
  0
SPLINE
  5
A9
  8
Cut
 62
256
370
-1
 48
1.0
  6
ByLayer
100
AcDbEntity
100
AcDbSpline
 70
8
 71
3
 72
8
 73
4
 74
0
 40
0.0
 40
0.0
 40
0.0
 40
0.0
 40
1.0
 40
1.0
 40
1.0
 40
1.0
 10
9.7546267000002782
 20
17.8463925839865603
 30
0.0
 10
9.6779825948220584
 20
16.0433776642559103
 30
0.0
 10
10.1123622519849885
 20
13.5339257542753622
 30
0.0
 10
9.4837352913949378
 20
11.8352783630249441
 30
0.0
  0
SPLINE
  5
AA
  8
Cut
 62
256
370
-1
 48
1.0
  6
ByLayer
100
AcDbEntity
100
AcDbSpline
 70
8
 71
3
 72
8
 73
4
 74
0
 40
0.0
 40
0.0
 40
0.0
 40
0.0
 40
1.0
 40
1.0
 40
1.0
 40
1.0
 10
9.4837352913949378
 20
11.8352783630249441
 30
0.0
 10
9.0543069708164179
 20
10.675000458475882
 30
0.0
 10
7.5511338911480479
 20
10.429517539031302
 30
0.0
 10
6.765179753596243
 20
11.3892901956899735
 30
0.0
  0
SPLINE
  5
AB
  8
Cut
 62
256
370
-1
 48
1.0
  6
ByLayer
100
AcDbEntity
100
AcDbSpline
 70
8
 71
3
 72
8
 73
4
 74
0
 40
0.0
 40
0.0
 40
0.0
 40
0.0
 40
1.0
 40
1.0
 40
1.0
 40
1.0
 10
6.765179753596243
 20
11.3892901956899735
 30
0.0
 10
6.329452703217779
 20
11.9214138451776037
 30
0.0
 10
6.454896529771613
 20
12.8355256140905123
 30
0.0
 10
6.447746988510346
 20
13.495284238805862
 30
0.0
  0
SPLINE
  5
AC
  8
Cut
 62
256
370
-1
 48
1.0
  6
ByLayer
100
AcDbEntity
100
AcDbSpline
 70
8
 71
3
 72
8
 73
4
 74
0
 40
0.0
 40
0.0
 40
0.0
 40
0.0
 40
1.0
 40
1.0
 40
1.0
 40
1.0
 10
6.447746988510346
 20
13.495284238805862
 30
0.0
 10
6.428749259836267
 20
15.2609359780977591
 30
0.0
 10
6.1205558658037944
 20
17.8354585031191242
 30
0.0
 10
6.6335170477943208
 20
19.5198263636009024
 30
0.0
  0
SPLINE
  5
AD
  8
Cut
 62
256
370
-1
 48
1.0
  6
ByLayer
100
AcDbEntity
100
AcDbSpline
 70
8
 71
3
 72
8
 73
4
 74
0
 40
0.0
 40
0.0
 40
0.0
 40
0.0
 40
1.0
 40
1.0
 40
1.0
 40
1.0
 10
6.6335170477943208
 20
19.5198263636009024
 30
0.0
 10
7.0218475055136338
 20
20.7943435487046209
 30
0.0
 10
8.6977045578005061
 20
21.0180413199211102
 30
0.0
 10
9.4653542647308182
 20
19.9686450011024412
 30
0.0
  0
SPLINE
  5
AE
  8
Cut
 62
256
370
-1
 48
1.0
  6
ByLayer
100
AcDbEntity
100
AcDbSpline
 70
8
 71
3
 72
8
 73
4
 74
0
 40
0.0
 40
0.0
 40
0.0
 40
0.0
 40
1.0
 40
1.0
 40
1.0
 40
1.0
 10
51.5105292875946787
 20
48.7941805058361666
 30
0.0
 10
51.3942209195946731
 20
46.0833616148361784
 30
0.0
 10
50.1650338505946749
 20
43.5349794785361723
 30
0.0
 10
49.0283675285946927
 20
41.1282831722361664
 30
0.0
  0
SPLINE
  5
AF
  8
Cut
 62
256
370
-1
 48
1.0
  6
ByLayer
100
AcDbEntity
100
AcDbSpline
 70
8
 71
3
 72
8
 73
4
 74
0
 40
0.0
 40
0.0
 40
0.0
 40
0.0
 40
1.0
 40
1.0
 40
1.0
 40
1.0
 10
49.0283675285946927
 20
41.1282831722361664
 30
0.0
 10
48.5869116785947028
 20
40.1930437055361693
 30
0.0
 10
48.0740929655946729
 20
39.1293340871361579
 30
0.0
 10
47.6485055285947041
 20
38.2205279768361663
 30
0.0
  0
SPLINE
  5
B0
  8
Cut
 62
256
370
-1
 48
1.0
  6
ByLayer
100
AcDbEntity
100
AcDbSpline
 70
8
 71
3
 72
8
 73
4
 74
0
 40
0.0
 40
0.0
 40
0.0
 40
0.0
 40
1.0
 40
1.0
 40
1.0
 40
1.0
 10
47.6485055285947041
 20
38.2205279768361663
 30
0.0
 10
46.5012602645946984
 20
35.7723308210361779
 30
0.0
 10
46.0822821665946947
 20
32.9186332193361721
 30
0.0
 10
45.4134990515947123
 20
30.2902870802361512
 30
0.0
  0
SPLINE
  5
B1
  8
Cut
 62
256
370
-1
 48
1.0
  6
ByLayer
100
AcDbEntity
100
AcDbSpline
 70
8
 71
3
 72
8
 73
4
 74
0
 40
0.0
 40
0.0
 40
0.0
 40
0.0
 40
1.0
 40
1.0
 40
1.0
 40
1.0
 10
45.4134990515947123
 20
30.2902870802361512
 30
0.0
 10
44.9323971665947042
 20
28.3993211957361602
 30
0.0
 10
44.1235080635946986
 20
26.1899551544361522
 30
0.0
 10
41.8620742295947039
 20
26.1216229883361635
 30
0.0
  0
SPLINE
  5
B2
  8
Cut
 62
256
370
-1
 48
1.0
  6
ByLayer
100
AcDbEntity
100
AcDbSpline
 70
8
 71
3
 72
8
 73
4
 74
0
 40
0.0
 40
0.0
 40
0.0
 40
0.0
 40
1.0
 40
1.0
 40
1.0
 40
1.0
 10
41.8620742295947039
 20
26.1216229883361635
 30
0.0
 10
40.5813423155947035
 20
26.0828968613361631
 30
0.0
 10
39.6601044485946801
 20
26.9454435980361708
 30
0.0
 10
38.8221482525946797
 20
27.7791762164361806
 30
0.0
  0
SPLINE
  5
B3
  8
Cut
 62
256
370
-1
 48
1.0
  6
ByLayer
100
AcDbEntity
100
AcDbSpline
 70
8
 71
3
 72
8
 73
4
 74
0
 40
0.0
 40
0.0
 40
0.0
 40
0.0
 40
1.0
 40
1.0
 40
1.0
 40
1.0
 10
38.8221482525946797
 20
27.7791762164361806
 30
0.0
 10
38.3542650455946728
 20
28.2444166877361802
 30
0.0
 10
37.9762528505947046
 20
28.5911010158361414
 30
0.0
 10
37.5678436955946893
 20
29.1007510457361569
 30
0.0
  0
SPLINE
  5
B4
  8
Cut
 62
256
370
-1
 48
1.0
  6
ByLayer
100
AcDbEntity
100
AcDbSpline
 70
8
 71
3
 72
8
 73
4
 74
0
 40
0.0
 40
0.0
 40
0.0
 40
0.0
 40
1.0
 40
1.0
 40
1.0
 40
1.0
 10
37.5678436955946893
 20
29.1007510457361569
 30
0.0
 10
36.7880416835946988
 20
30.0764344676361581
 30
0.0
 10
36.0703534595946991
 20
31.1130497957361563
 30
0.0
 10
35.3473757645947089
 20
32.1406770227361704
 30
0.0
  0
SPLINE
  5
B5
  8
Cut
 62
256
370
-1
 48
1.0
  6
ByLayer
100
AcDbEntity
100
AcDbSpline
 70
8
 71
3
 72
8
 73
4
 74
0
 40
0.0
 40
0.0
 40
0.0
 40
0.0
 40
1.0
 40
1.0
 40
1.0
 40
1.0
 10
35.3473757645947089
 20
32.1406770227361704
 30
0.0
 10
34.42218829259469
 20
33.4537926980361675
 30
0.0
 10
33.4388366375946831
 20
34.9383332291361768
 30
0.0
 10
32.7832622015946669
 20
36.3701390342361606
 30
0.0
  0
SPLINE
  5
B6
  8
Cut
 62
256
370
-1
 48
1.0
  6
ByLayer
100
AcDbEntity
100
AcDbSpline
 70
8
 71
3
 72
8
 73
4
 74
0
 40
0.0
 40
0.0
 40
0.0
 40
0.0
 40
1.0
 40
1.0
 40
1.0
 40
1.0
 10
32.7832622015946669
 20
36.3701390342361606
 30
0.0
 10
30.1715733965947024
 20
42.0744935417361887
 30
0.0
 10
28.2868218905947018
 20
50.9920506968361735
 30
0.0
 10
32.2188986435946916
 20
56.5922506208361682
 30
0.0
  0
SPLINE
  5
B7
  8
Cut
 62
256
370
-1
 48
1.0
  6
ByLayer
100
AcDbEntity
100
AcDbSpline
 70
8
 71
3
 72
8
 73
4
 74
0
 40
0.0
 40
0.0
 40
0.0
 40
0.0
 40
1.0
 40
1.0
 40
1.0
 40
1.0
 10
32.2188986435946916
 20
56.5922506208361682
 30
0.0
 10
32.7700535225947007
 20
57.376422195836156
 30
0.0
 10
33.3912513965947042
 20
57.9797818538361724
 30
0.0
 10
34.1961708965947011
 20
58.5029095358361815
 30
0.0
  0
SPLINE
  5
B8
  8
Cut
 62
256
370
-1
 48
1.0
  6
ByLayer
100
AcDbEntity
100
AcDbSpline
 70
8
 71
3
 72
8
 73
4
 74
0
 40
0.0
 40
0.0
 40
0.0
 40
0.0
 40
1.0
 40
1.0
 40
1.0
 40
1.0
 10
34.1961708965947011
 20
58.5029095358361815
 30
0.0
 10
34.7882916785946819
 20
58.8876610568361656
 30
0.0
 10
35.4028902125946985
 20
59.1754022798361916
 30
0.0
 10
36.046565838594681
 20
59.2237774418361624
 30
0.0
  0
SPLINE
  5
B9
  8
Cut
 62
256
370
-1
 48
1.0
  6
ByLayer
100
AcDbEntity
100
AcDbSpline
 70
8
 71
3
 72
8
 73
4
 74
0
 40
0.0
 40
0.0
 40
0.0
 40
0.0
 40
1.0
 40
1.0
 40
1.0
 40
1.0
 10
36.046565838594681
 20
59.2237774418361624
 30
0.0
 10
36.6558649025946934
 20
59.2694728718361574
 30
0.0
 10
38.3542650455946799
 20
59.5120386128361787
 30
0.0
 10
38.8750129655946992
 20
59.099799840836198
 30
0.0
  0
SPLINE
  5
BA
  8
Cut
 62
256
370
-1
 48
1.0
  6
ByLayer
100
AcDbEntity
100
AcDbSpline
 70
8
 71
3
 72
8
 73
4
 74
0
 40
0.0
 40
0.0
 40
0.0
 40
0.0
 40
1.0
 40
1.0
 40
1.0
 40
1.0
 10
38.8750129655946992
 20
59.099799840836198
 30
0.0
 10
39.301930269594699
 20
58.7611737068361464
 30
0.0
 10
39.0587345915946926
 20
57.6212077148361743
 30
0.0
 10
39.0930911555946849
 20
57.1209377468361623
 30
0.0
  0
SPLINE
  5
BB
  8
Cut
 62
256
370
-1
 48
1.0
  6
ByLayer
100
AcDbEntity
100
AcDbSpline
 70
8
 71
3
 72
8
 73
4
 74
0
 40
0.0
 40
0.0
 40
0.0
 40
0.0
 40
1.0
 40
1.0
 40
1.0
 40
1.0
 10
39.0930911555946849
 20
57.1209377468361623
 30
0.0
 10
39.1459858655946746
 20
56.3748323648361662
 30
0.0
 10
39.6376366955946793
 20
55.7533645178361752
 30
0.0
 10
39.6957908795947034
 20
55.0062092408361707
 30
0.0
  0
SPLINE
  5
BC
  8
Cut
 62
256
370
-1
 48
1.0
  6
ByLayer
100
AcDbEntity
100
AcDbSpline
 70
8
 71
3
 72
8
 73
4
 74
0
 40
0.0
 40
0.0
 40
0.0
 40
0.0
 40
1.0
 40
1.0
 40
1.0
 40
1.0
 10
39.6957908795947034
 20
55.0062092408361707
 30
0.0
 10
39.7525851995946837
 20
54.2733225368361758
 30
0.0
 10
39.3600844535946948
 20
53.6969201828361662
 30
0.0
 10
39.1710733565946825
 20
53.0236475168361778
 30
0.0
  0
SPLINE
  5
BD
  8
Cut
 62
256
370
-1
 48
1.0
  6
ByLayer
100
AcDbEntity
100
AcDbSpline
 70
8
 71
3
 72
8
 73
4
 74
0
 40
0.0
 40
0.0
 40
0.0
 40
0.0
 40
1.0
 40
1.0
 40
1.0
 40
1.0
 10
39.1710733565946825
 20
53.0236475168361778
 30
0.0
 10
38.8723732295946789
 20
51.9654833438361692
 30
0.0
 10
39.2953209305946984
 20
50.1153583748361768
 30
0.0
 10
40.6725331955946885
 20
50.3125586528361595
 30
0.0
  0
SPLINE
  5
BE
  8
Cut
 62
256
370
-1
 48
1.0
  6
ByLayer
100
AcDbEntity
100
AcDbSpline
 70
8
 71
3
 72
8
 73
4
 74
0
 40
0.0
 40
0.0
 40
0.0
 40
0.0
 40
1.0
 40
1.0
 40
1.0
 40
1.0
 10
40.6725331955946885
 20
50.3125586528361595
 30
0.0
 10
41.8409263445946848
 20
50.4800219048361782
 30
0.0
 10
41.9942410115947027
 20
51.6848914058361686
 30
0.0
 10
41.9942410115947027
 20
52.6271371718361678
 30
0.0
  0
SPLINE
  5
BF
  8
Cut
 62
256
370
-1
 48
1.0
  6
ByLayer
100
AcDbEntity
100
AcDbSpline
 70
8
 71
3
 72
8
 73
4
 74
0
 40
0.0
 40
0.0
 40
0.0
 40
0.0
 40
1.0
 40
1.0
 40
1.0
 40
1.0
 10
41.9942410115947027
 20
57.2531045288361753
 30
0.0
 10
41.9942410115947027
 20
57.7257472598361829
 30
0.0
 10
41.8250679305946846
 20
58.637466078836141
 30
0.0
 10
42.1303773965946746
 20
59.0237974418361517
 30
0.0
  0
SPLINE
  5
C0
  8
Cut
 62
256
370
-1
 48
1.0
  6
ByLayer
100
AcDbEntity
100
AcDbSpline
 70
8
 71
3
 72
8
 73
4
 74
0
 40
0.0
 40
0.0
 40
0.0
 40
0.0
 40
1.0
 40
1.0
 40
1.0
 40
1.0
 10
42.1303773965946746
 20
59.0237974418361517
 30
0.0
 10
42.4317272585946981
 20
59.4051093068361666
 30
0.0
 10
43.442836137594675
 20
59.3640034178361731
 30
0.0
 10
43.8446359535947039
 20
59.3640034178361873
 30
0.0
  0
SPLINE
  5
C1
  8
Cut
 62
256
370
-1
 48
1.0
  6
ByLayer
100
AcDbEntity
100
AcDbSpline
 70
8
 71
3
 72
8
 73
4
 74
0
 40
0.0
 40
0.0
 40
0.0
 40
0.0
 40
1.0
 40
1.0
 40
1.0
 40
1.0
 10
44.5020177088446829
 20
59.3184592227111551
 30
0.0
 10
44.7544042688985044
 20
59.3143953224381875
 30
0.0
 10
44.6905213565946937
 20
59.2877110478361686
 30
0.0
 10
45.1663437695946826
 20
59.2285269668361565
 30
0.0
  0
SPLINE
  5
C2
  8
Cut
 62
256
370
-1
 48
1.0
  6
ByLayer
100
AcDbEntity
100
AcDbSpline
 70
8
 71
3
 72
8
 73
4
 74
0
 40
0.0
 40
0.0
 40
0.0
 40
0.0
 40
1.0
 40
1.0
 40
1.0
 40
1.0
 10
45.1663437695946826
 20
59.2285269668361565
 30
0.0
 10
48.1811522585947003
 20
58.8530345198361573
 30
0.0
 10
50.0103993155947109
 20
56.5243174148361476
 30
0.0
 10
50.8932910175946844
 20
53.8166682068361695
 30
0.0
  0
SPLINE
  5
C3
  8
Cut
 62
256
370
-1
 48
1.0
  6
ByLayer
100
AcDbEntity
100
AcDbSpline
 70
8
 71
3
 72
8
 73
4
 74
0
 40
0.0
 40
0.0
 40
0.0
 40
0.0
 40
1.0
 40
1.0
 40
1.0
 40
1.0
 10
50.8932910175946844
 20
53.8166682068361695
 30
0.0
 10
51.2157887645946843
 20
52.8276371198361687
 30
0.0
 10
51.9110092355946691
 20
49.5516547508361782
 30
0.0
 10
51.3783625055947013
 20
48.9263572868361649
 30
0.0
  0
SPLINE
  5
C4
  8
Cut
 62
256
370
-1
 48
1.0
  6
ByLayer
100
AcDbEntity
100
AcDbSpline
 70
8
 71
3
 72
8
 73
4
 74
0
 40
0.0
 40
0.0
 40
0.0
 40
0.0
 40
1.0
 40
1.0
 40
1.0
 40
1.0
 10
47.4143042287994092
 20
22.0009484290282025
 30
0.0
 10
48.2022407389271947
 20
22.7641495443483635
 30
0.0
 10
49.5700289322794987
 20
22.4595844274693235
 30
0.0
 10
49.9187132174933481
 20
21.3956915296780608
 30
0.0
  0
SPLINE
  5
C5
  8
Cut
 62
256
370
-1
 48
1.0
  6
ByLayer
100
AcDbEntity
100
AcDbSpline
 70
8
 71
3
 72
8
 73
4
 74
0
 40
0.0
 40
0.0
 40
0.0
 40
0.0
 40
1.0
 40
1.0
 40
1.0
 40
1.0
 10
20.6326349326350105
 20
12.5025041766792135
 30
0.0
 10
20.502092629078593
 20
10.9613400036367921
 30
0.0
 10
18.400582488415683
 20
10.0914166424142344
 30
0.0
 10
17.677527100098601
 20
11.7682912019129944
 30
0.0
  0
SPLINE
  5
C6
  8
Cut
 62
256
370
-1
 48
1.0
  6
ByLayer
100
AcDbEntity
100
AcDbSpline
 70
8
 71
3
 72
8
 73
4
 74
0
 40
0.0
 40
0.0
 40
0.0
 40
0.0
 40
1.0
 40
1.0
 40
1.0
 40
1.0
 10
49.9187132174933481
 20
21.3956915296780608
 30
0.0
 10
50.5225073046424242
 20
19.5542290674262631
 30
0.0
 10
50.1410185618059003
 20
16.9027782065346734
 30
0.0
 10
50.1540554398449743
 20
14.9690088093989218
 30
0.0
  0
SPLINE
  5
C7
  8
Cut
 62
256
370
-1
 48
1.0
  6
ByLayer
100
AcDbEntity
100
AcDbSpline
 70
8
 71
3
 72
8
 73
4
 74
0
 40
0.0
 40
0.0
 40
0.0
 40
0.0
 40
1.0
 40
1.0
 40
1.0
 40
1.0
 10
17.677527100098601
 20
11.7682912019129944
 30
0.0
 10
17.1846483730372128
 20
12.9143932134100918
 30
0.0
 10
17.4418788073862707
 20
14.8307018864208118
 30
0.0
 10
17.5236035098546807
 20
16.0252014789681532
 30
0.0
  0
SPLINE
  5
C8
  8
Cut
 62
256
370
-1
 48
1.0
  6
ByLayer
100
AcDbEntity
100
AcDbSpline
 70
8
 71
3
 72
8
 73
4
 74
0
 40
0.0
 40
0.0
 40
0.0
 40
0.0
 40
1.0
 40
1.0
 40
1.0
 40
1.0
 10
50.1540554398449743
 20
14.9690088093989218
 30
0.0
 10
50.1594526890993748
 20
14.1983566374691996
 30
0.0
 10
50.2506368982008311
 20
13.2711978844574539
 30
0.0
 10
49.5605543049780906
 20
12.7323694233381719
 30
0.0
  0
SPLINE
  5
C9
  8
Cut
 62
256
370
-1
 48
1.0
  6
ByLayer
100
AcDbEntity
100
AcDbSpline
 70
8
 71
3
 72
8
 73
4
 74
0
 40
0.0
 40
0.0
 40
0.0
 40
0.0
 40
1.0
 40
1.0
 40
1.0
 40
1.0
 10
17.5236035098546807
 20
16.0252014789681532
 30
0.0
 10
17.6013522213963398
 20
17.1430858111411304
 30
0.0
 10
17.3420025907691802
 20
18.4013849502252036
 30
0.0
 10
17.6241079692139131
 20
19.5049489179448727
 30
0.0
  0
SPLINE
  5
CA
  8
Cut
 62
256
370
-1
 48
1.0
  6
ByLayer
100
AcDbEntity
100
AcDbSpline
 70
8
 71
3
 72
8
 73
4
 74
0
 40
0.0
 40
0.0
 40
0.0
 40
0.0
 40
1.0
 40
1.0
 40
1.0
 40
1.0
 10
49.5605543049780906
 20
12.7323694233381719
 30
0.0
 10
48.6040121448432743
 20
11.9862893542733318
 30
0.0
 10
47.2560488071106448
 20
12.8090015599663811
 30
0.0
 10
46.9963902561111908
 20
13.9090183289171421
 30
0.0
  0
SPLINE
  5
CB
  8
Cut
 62
256
370
-1
 48
1.0
  6
ByLayer
100
AcDbEntity
100
AcDbSpline
 70
8
 71
3
 72
8
 73
4
 74
0
 40
0.0
 40
0.0
 40
0.0
 40
0.0
 40
1.0
 40
1.0
 40
1.0
 40
1.0
 10
17.6241079692139131
 20
19.5049489179448727
 30
0.0
 10
18.0095201839765622
 20
21.0044043014392905
 30
0.0
 10
20.0411527158268008
 20
20.9905790962167202
 30
0.0
 10
20.497407635709461
 20
19.5583571638302303
 30
0.0
  0
SPLINE
  5
CC
  8
Cut
 62
256
370
-1
 48
1.0
  6
ByLayer
100
AcDbEntity
100
AcDbSpline
 70
8
 71
3
 72
8
 73
4
 74
0
 40
0.0
 40
0.0
 40
0.0
 40
0.0
 40
1.0
 40
1.0
 40
1.0
 40
1.0
 10
46.9963902561111908
 20
13.9090183289171421
 30
0.0
 10
46.6211220538773148
 20
15.4947683356512407
 30
0.0
 10
46.891819187645325
 20
17.8808016285017715
 30
0.0
 10
46.8759723993710509
 20
19.4863512449296223
 30
0.0
  0
SPLINE
  5
CD
  8
Cut
 62
256
370
-1
 48
1.0
  6
ByLayer
100
AcDbEntity
100
AcDbSpline
 70
8
 71
3
 72
8
 73
4
 74
0
 40
0.0
 40
0.0
 40
0.0
 40
0.0
 40
1.0
 40
1.0
 40
1.0
 40
1.0
 10
20.497407635709461
 20
19.5583571638302303
 30
0.0
 10
21.093123829950283
 20
17.6861871244780993
 30
0.0
 10
20.7969744251145023
 20
14.4572638668126139
 30
0.0
 10
20.6326349326350105
 20
12.5025041766792135
 30
0.0
  0
SPLINE
  5
CE
  8
Cut
 62
256
370
-1
 48
1.0
  6
ByLayer
100
AcDbEntity
100
AcDbSpline
 70
8
 71
3
 72
8
 73
4
 74
0
 40
0.0
 40
0.0
 40
0.0
 40
0.0
 40
1.0
 40
1.0
 40
1.0
 40
1.0
 10
46.8759723993710509
 20
19.4863512449296223
 30
0.0
 10
46.8681695396678748
 20
20.3563405383798823
 30
0.0
 10
46.7153330170732914
 20
21.324210838765822
 30
0.0
 10
47.4143042287994092
 20
22.0009484290282025
 30
0.0
  0
LWPOLYLINE
  5
CF
  8
Cut
 62
256
370
-1
 48
1.0
  6
ByLayer
100
AcDbEntity
100
AcDbPolyline
 90
2
 70
0
 10
41.9942410115947027
 20
52.6271371718361678
 30
0.0
 10
41.9942410115947027
 20
57.2531045288361753
 30
0.0
  0
TEXT
  5
D0
100
AcDbEntity
100
AcDbText
  8
Text
 62
256
370
-1
 48
1.0
  6
ByLayer
 10
37.1749868695175181
 20
6.3841536891964452
 30
0.0
 40
3.0
  1
1
 50
358.9999999999999432
 41
1.0
  7
textstyle8
 71
0
 72
1
 11
38.6218347829930551
 21
8.1089904123449017
 31
0.0
100
AcDbText
 73
2
  0
TEXT
  5
D1
100
AcDbEntity
100
AcDbText
  8
Text
 62
256
370
-1
 48
1.0
  6
ByLayer
 10
46.1068745315719539
 20
7.239634501137024
 30
0.0
 40
3.0
  1
3
 50
0.0
 41
1.0
  7
textstyle2
 71
0
 72
1
 11
47.7733745315719389
 21
8.9894595011370235
 31
0.0
100
AcDbText
 73
2
  0
TEXT
  5
D2
100
AcDbEntity
100
AcDbText
  8
Text
 62
256
370
-1
 48
1.0
  6
ByLayer
 10
28.4159007593820512
 20
6.7956304322592906
 30
0.0
 40
3.0
  1
4
 50
0.0000000000000127
 41
1.0
  7
textstyle3
 71
0
 72
1
 11
30.1657257593820525
 21
8.5454554322592919
 31
0.0
100
AcDbText
 73
2
  0
TEXT
  5
D3
100
AcDbEntity
100
AcDbText
  8
Text
 62
256
370
-1
 48
1.0
  6
ByLayer
 10
13.7036620720921221
 20
41.4496109947117759
 30
0.0
 40
3.0
  1
8
 50
0.0
 41
1.0
  7
textstyle0
 71
0
 72
1
 11
15.3701620720921213
 21
43.1994359947117914
 31
0.0
100
AcDbText
 73
2
  0
TEXT
  5
D4
100
AcDbEntity
100
AcDbText
  8
Text
 62
256
370
-1
 48
1.0
  6
ByLayer
 10
10.7746803796979691
 20
31.7825207447808786
 30
0.0
 40
3.0
  1
9
 50
0.0
 41
1.0
  7
textstyle1
 71
0
 72
1
 11
12.3578553796979715
 21
33.5323457447808977
 31
0.0
100
AcDbText
 73
2
  0
TEXT
  5
D5
100
AcDbEntity
100
AcDbText
  8
Text
 62
256
370
-1
 48
1.0
  6
ByLayer
 10
17.9031553479172025
 20
5.3918785789214763
 30
0.0
 40
3.0
  1
2
 50
9.9999999999999876
 41
1.0
  7
textstyle6
 71
0
 72
1
 11
19.2404835458260131
 21
7.4045044934180027
 31
0.0
100
AcDbText
 73
2
  0
TEXT
  5
D6
100
AcDbEntity
100
AcDbText
  8
Text
 62
256
370
-1
 48
1.0
  6
ByLayer
 10
6.412399902670912
 20
5.6757844970228621
 30
0.0
 40
3.0
  1
5
 50
0.0
 41
1.0
  7
textstyle7
 71
0
 72
1
 11
8.0788999026709121
 21
7.4256094970228617
 31
0.0
100
AcDbText
 73
2
  0
TEXT
  5
D7
100
AcDbEntity
100
AcDbText
  8
Text
 62
256
370
-1
 48
1.0
  6
ByLayer
 10
16.3750960922946831
 20
50.9155583368361988
 30
0.0
 40
3.0
  1
4
 50
0.0
 41
1.0
  7
textstyle4
 71
0
 72
1
 11
18.1249210922946808
 21
52.6653833368362001
 31
0.0
100
AcDbText
 73
2
  0
TEXT
  5
D8
100
AcDbEntity
100
AcDbText
  8
Text
 62
256
370
-1
 48
1.0
  6
ByLayer
 10
7.3399310914797624
 20
50.9295131452334431
 30
0.0
 40
3.0
  1
1
 50
0.0
 41
1.0
  7
textstyle5
 71
0
 72
1
 11
8.7564560914797624
 21
52.6793381452334444
 31
0.0
100
AcDbText
 73
2
  0
TEXT
  5
D9
100
AcDbEntity
100
AcDbText
  8
Text
 62
256
370
-1
 48
1.0
  6
ByLayer
 10
15.7315681231310815
 20
36.6493736778814281
 30
0.0
 40
3.0
  1
16
 50
0.0
 41
1.0
  7
textstyle11
 71
0
 72
1
 11
19.3145431231310809
 21
38.3991986778814294
 31
0.0
100
AcDbText
 73
2
  0
TEXT
  5
DA
100
AcDbEntity
100
AcDbText
  8
Text
 62
256
370
-1
 48
1.0
  6
ByLayer
 10
10.0382029181763279
 20
51.031176828912578
 30
0.0
 40
3.0
  1
2
 50
0.0
 41
1.0
  7
textstyle12
 71
0
 72
1
 11
11.7047029181763325
 21
52.7810018289125651
 31
0.0
100
AcDbText
 73
2
  0
TEXT
  5
DB
100
AcDbEntity
100
AcDbText
  8
Text
 62
256
370
-1
 48
1.0
  6
ByLayer
 10
13.2575529013505609
 20
50.9972889343527953
 30
0.0
 40
3.0
  1
3
 50
0.0
 41
1.0
  7
textstyle9
 71
0
 72
1
 11
14.9240529013505618
 21
52.7471139343527966
 31
0.0
100
AcDbText
 73
2
  0
TEXT
  5
DC
100
AcDbEntity
100
AcDbText
  8
Text
 62
256
370
-1
 48
1.0
  6
ByLayer
 10
19.4581210922946219
 20
50.9155583368361846
 30
0.0
 40
3.0
  1
5
 50
0.0
 41
1.0
  7
textstyle10
 71
0
 72
1
 11
21.1246210922946211
 21
52.6653833368361859
 31
0.0
100
AcDbText
 73
2
  0
TEXT
  5
DD
100
AcDbEntity
100
AcDbText
  8
Text
 62
256
370
-1
 48
1.0
  6
ByLayer
 10
41.8823222045947219
 20
43.5073559078361711
 30
0.0
 40
3.0
  1
25
 50
90.0
 41
1.0
  7
textstyle13
 71
0
 72
1
 11
40.1324972045947206
 21
46.8403559078361695
 31
0.0
100
AcDbText
 73
2
  0
TEXT
  5
DE
100
AcDbEntity
100
AcDbText
  8
Text
 62
256
370
-1
 48
1.0
  6
ByLayer
 10
4.5424726439999787
 20
38.4036605098999644
 30
0.0
 40
3.0
  1
25
 50
0.0
 41
1.0
  7
textstyle14
 71
0
 72
1
 11
7.8754726439999789
 21
40.1534855098999657
 31
0.0
100
AcDbText
 73
2
  0
LINE
  5
DF
100
AcDbEntity
100
AcDbLine
  8
Br\U+00fccken
 62
256
370
-1
 48
1.0
  6
ByLayer
 10
43.8446359535947039
 20
59.3640034178361873
 30
0.0
 11
44.5020177088446829
 21
59.3184592227111551
 31
0.0
  0
LINE
  5
E0
100
AcDbEntity
100
AcDbLine
  8
Br\U+00fccken
 62
256
370
-1
 48
1.0
  6
ByLayer
 10
18.8743726439999833
 20
25.9549055099000014
 30
0.0
 11
19.4662634489999924
 21
25.951494851000021
 31
0.0
  0
LINE
  5
E1
100
AcDbEntity
100
AcDbLine
  8
Br\U+00fccken
 62
256
370
-1
 48
1.0
  6
ByLayer
 10
10.7233443239946702
 20
58.5383759788361715
 30
0.0
 11
11.6238043276809222
 21
58.4816461274320858
 31
0.0
  0
LINE
  5
E2
100
AcDbEntity
100
AcDbLine
  8
Cut
 62
256
370
-1
 48
1.0
  6
ByLayer
 10
13.9414259079999816
 20
2.6876802350999931
 30
0.0
 11
1.9414259079999781
 21
2.6876802350999931
 31
0.0
  0
LINE
  5
E3
100
AcDbEntity
100
AcDbLine
  8
Cut
 62
256
370
-1
 48
1.0
  6
ByLayer
 10
1.9414259079999781
 20
2.6876802350999931
 30
0.0
 11
1.9414259079999781
 21
24.6876802350999931
 31
0.0
  0
LINE
  5
E4
100
AcDbEntity
100
AcDbLine
  8
Cut
 62
256
370
-1
 48
1.0
  6
ByLayer
 10
1.9414259079999781
 20
24.6876802350999931
 30
0.0
 11
12.870352464929061
 21
24.6944189732578003
 31
0.0
  0
LINE
  5
E5
100
AcDbEntity
100
AcDbLine
  8
Cut
 62
256
370
-1
 48
1.0
  6
ByLayer
 10
13.9414259079999816
 20
24.6876802350999931
 30
0.0
 11
13.9414259079999816
 21
2.6876802350999931
 31
0.0
  0
LINE
  5
E6
100
AcDbEntity
100
AcDbLine
  8
Cut
 62
256
370
-1
 48
1.0
  6
ByLayer
 10
15.9613255855909824
 20
24.7127087550368607
 30
0.0
 11
23.9414259079999816
 21
24.6876802350999931
 31
0.0
  0
LINE
  5
E7
100
AcDbEntity
100
AcDbLine
  8
Cut
 62
256
370
-1
 48
1.0
  6
ByLayer
 10
23.9414259079999816
 20
24.6876802350999931
 30
0.0
 11
23.9414259079999816
 21
2.6876802350999931
 31
0.0
  0
LINE
  5
E8
100
AcDbEntity
100
AcDbLine
  8
Cut
 62
256
370
-1
 48
1.0
  6
ByLayer
 10
23.9414259079999816
 20
2.6876802350999931
 30
0.0
 11
14.9414259079999816
 21
2.6876802350999931
 31
0.0
  0
LINE
  5
E9
100
AcDbEntity
100
AcDbLine
  8
Cut
 62
256
370
-1
 48
1.0
  6
ByLayer
 10
14.9414259079999816
 20
2.6876802350999931
 30
0.0
 11
14.9414259079999816
 21
24.6876802350999931
 31
0.0
  0
LINE
  5
EA
100
AcDbEntity
100
AcDbLine
  8
Cut
 62
256
370
-1
 48
1.0
  6
ByLayer
 10
26.0207055640764828
 20
24.6944189732578003
 30
0.0
 11
33.9414259079999781
 21
24.6876802350999931
 31
0.0
  0
LINE
  5
EB
100
AcDbEntity
100
AcDbLine
  8
Cut
 62
256
370
-1
 48
1.0
  6
ByLayer
 10
33.9414259079999781
 20
24.6876802350999931
 30
0.0
 11
33.9414259079999781
 21
2.6876802350999931
 31
0.0
  0
LINE
  5
EC
100
AcDbEntity
100
AcDbLine
  8
Cut
 62
256
370
-1
 48
1.0
  6
ByLayer
 10
33.9414259079999781
 20
2.6876802350999931
 30
0.0
 11
24.9414259079999816
 21
2.6876802350999931
 31
0.0
  0
LINE
  5
ED
100
AcDbEntity
100
AcDbLine
  8
Cut
 62
256
370
-1
 48
1.0
  6
ByLayer
 10
24.9414259079999816
 20
2.6876802350999931
 30
0.0
 11
24.9414259079999816
 21
24.6876802350999931
 31
0.0
  0
LINE
  5
EE
100
AcDbEntity
100
AcDbLine
  8
Cut
 62
256
370
-1
 48
1.0
  6
ByLayer
 10
35.9703468518876051
 20
24.6944189732578003
 30
0.0
 11
42.9414259079999781
 21
24.6876802350999931
 31
0.0
  0
LINE
  5
EF
100
AcDbEntity
100
AcDbLine
  8
Cut
 62
256
370
-1
 48
1.0
  6
ByLayer
 10
42.9414259079999781
 20
24.6876802350999931
 30
0.0
 11
42.9414259079999781
 21
2.6876802350999931
 31
0.0
  0
LINE
  5
F0
100
AcDbEntity
100
AcDbLine
  8
Cut
 62
256
370
-1
 48
1.0
  6
ByLayer
 10
42.9414259079999781
 20
2.6876802350999931
 30
0.0
 11
34.9414259079999781
 21
2.6876802350999931
 31
0.0
  0
LINE
  5
F1
100
AcDbEntity
100
AcDbLine
  8
Cut
 62
256
370
-1
 48
1.0
  6
ByLayer
 10
34.9414259079999781
 20
2.6876802350999931
 30
0.0
 11
34.9414259079999781
 21
24.6876802350999931
 31
0.0
  0
LINE
  5
F2
100
AcDbEntity
100
AcDbLine
  8
Cut
 62
256
370
-1
 48
1.0
  6
ByLayer
 10
44.8591807965129945
 20
24.7492883185949815
 30
0.0
 11
52.9414259079999781
 21
24.6876802350999931
 31
0.0
  0
LINE
  5
F3
100
AcDbEntity
100
AcDbLine
  8
Cut
 62
256
370
-1
 48
1.0
  6
ByLayer
 10
52.9414259079999781
 20
24.6876802350999931
 30
0.0
 11
52.9414259079999781
 21
2.6876802350999931
 31
0.0
  0
LINE
  5
F4
100
AcDbEntity
100
AcDbLine
  8
Cut
 62
256
370
-1
 48
1.0
  6
ByLayer
 10
52.9414259079999781
 20
2.6876802350999931
 30
0.0
 11
43.9414259079999781
 21
2.6876802350999931
 31
0.0
  0
LINE
  5
F5
100
AcDbEntity
100
AcDbLine
  8
Cut
 62
256
370
-1
 48
1.0
  6
ByLayer
 10
43.9414259079999781
 20
2.6876802350999931
 30
0.0
 11
43.9414259079999781
 21
24.6876802350999931
 31
0.0
  0
LINE
  5
F6
100
AcDbEntity
100
AcDbLine
  8
Cut
 62
256
370
-1
 48
1.0
  6
ByLayer
 10
27.9251874719999833
 20
40.9297388768000161
 30
0.0
 11
27.0
 21
26.0
 31
0.0
  0
LINE
  5
F7
100
AcDbEntity
100
AcDbLine
  8
Br\U+00fccken
 62
256
370
-1
 48
1.0
  6
ByLayer
 10
43.9414259079999781
 20
24.6876802350999931
 30
0.0
 11
44.8591807965129945
 21
24.7492883185949815
 31
0.0
  0
LINE
  5
F8
100
AcDbEntity
100
AcDbLine
  8
Br\U+00fccken
 62
256
370
-1
 48
1.0
  6
ByLayer
 10
35.9703468518876051
 20
24.6944189732578003
 30
0.0
 11
34.9414259079999781
 21
24.6876802350999931
 31
0.0
  0
LINE
  5
F9
100
AcDbEntity
100
AcDbLine
  8
Br\U+00fccken
 62
256
370
-1
 48
1.0
  6
ByLayer
 10
26.0207055640764828
 20
24.6944189732578003
 30
0.0
 11
24.9414259079999816
 21
24.6876802350999931
 31
0.0
  0
LINE
  5
FA
100
AcDbEntity
100
AcDbLine
  8
Br\U+00fccken
 62
256
370
-1
 48
1.0
  6
ByLayer
 10
15.9613255855909824
 20
24.7127087550368607
 30
0.0
 11
14.9414259079999816
 21
24.6876802350999931
 31
0.0
  0
LINE
  5
FB
100
AcDbEntity
100
AcDbLine
  8
Br\U+00fccken
 62
256
370
-1
 48
1.0
  6
ByLayer
 10
13.9414259079999816
 20
24.6876802350999931
 30
0.0
 11
12.870352464929061
 21
24.6944189732578003
 31
0.0
  0
LINE
  5
FC
100
AcDbEntity
100
AcDbLine
  8
Cut
 62
256
370
-1
 48
1.0
  6
ByLayer
 10
0.0
 20
0.0
 30
0.0
 11
54.0
 21
0.0
 31
0.0
  0
LINE
  5
FD
100
AcDbEntity
100
AcDbLine
  8
Cut
 62
256
370
-1
 48
1.0
  6
ByLayer
 10
54.0
 20
0.0
 30
0.0
 11
54.0
 21
60.0
 31
0.0
  0
LINE
  5
FE
100
AcDbEntity
100
AcDbLine
  8
Cut
 62
256
370
-1
 48
1.0
  6
ByLayer
 10
54.0
 20
60.0
 30
0.0
 11
0.0
 21
60.0
 31
0.0
  0
LINE
  5
FF
100
AcDbEntity
100
AcDbLine
  8
Cut
 62
256
370
-1
 48
1.0
  6
ByLayer
 10
0.0
 20
60.0
 30
0.0
 11
0.0
 21
0.0
 31
0.0
  0
ENDSEC
  0
SECTION
  2
OBJECTS
  0
DICTIONARY
  5
C
100
AcDbDictionary
280
0
281
1
  3
ACAD_GROUP
350
D
  3
ACAD_LAYOUT
350
1A
  3
ACAD_MLINESTYLE
350
17
  3
ACAD_PLOTSETTINGS
350
19
  3
ACAD_PLOTSTYLENAME
350
E
  3
AcDbVariableDictionary
350
100
  3
QCAD_OBJECTS
350
101
  0
DICTIONARY
  5
D
100
AcDbDictionary
280
0
281
1
  0
ACDBDICTIONARYWDFLT
  5
E
100
AcDbDictionary
281
1
  3
Normal
350
F
100
AcDbDictionaryWithDefault
340
F
  0
ACDBPLACEHOLDER
  5
F
  0
DICTIONARY
  5
17
100
AcDbDictionary
280
0
281
1
  3
Standard
350
18
  0
MLINESTYLE
  5
18
100
AcDbMlineStyle
  2
STANDARD
 70
0
  3

 62
256
 51
90.0
 52
90.0
 71
2
 49
0.5
 62
256
  6
BYLAYER
 49
-0.5
 62
256
  6
BYLAYER
  0
DICTIONARY
  5
19
100
AcDbDictionary
280
0
281
1
  0
DICTIONARY
  5
1A
100
AcDbDictionary
281
1
  3
Layout1
350
1E
  3
Layout2
350
26
  3
Model
350
22
  0
LAYOUT
  5
1E
100
AcDbPlotSettings
  1

  2
none_device
  4

  6

 40
0.0
 41
0.0
 42
0.0
 43
0.0
 44
0.0
 45
0.0
 46
0.0
 47
0.0
 48
0.0
 49
0.0
140
0.0
141
0.0
142
1.0
143
1.0
 70
688
 72
0
 73
0
 74
5
  7

 75
16
147
1.0
148
0.0
149
0.0
100
AcDbLayout
  1
Layout1
 70
1
 71
1
 10
0.0
 20
0.0
 11
420.0
 21
297.0
 12
0.0
 22
0.0
 32
0.0
 14
100000000000000000000.0
 24
100000000000000000000.0
 34
100000000000000000000.0
 15
-100000000000000000000.0
 25
-100000000000000000000.0
 35
-100000000000000000000.0
146
0.0
 13
0.0
 23
0.0
 33
0.0
 16
1.0
 26
0.0
 36
0.0
 17
0.0
 27
1.0
 37
0.0
 76
0
330
1B
  0
LAYOUT
  5
22
100
AcDbPlotSettings
  1

  2
none_device
  4

  6

 40
0.0
 41
0.0
 42
0.0
 43
0.0
 44
0.0
 45
0.0
 46
0.0
 47
0.0
 48
0.0
 49
0.0
140
0.0
141
0.0
142
1.0
143
1.0
 70
1712
 72
0
 73
0
 74
0
  7

 75
0
147
1.0
148
0.0
149
0.0
100
AcDbLayout
  1
Model
 70
1
 71
0
 10
0.0
 20
0.0
 11
12.0
 21
9.0
 12
0.0
 22
0.0
 32
0.0
 14
0.0
 24
0.0
 34
0.0
 15
0.0
 25
0.0
 35
0.0
146
0.0
 13
0.0
 23
0.0
 33
0.0
 16
1.0
 26
0.0
 36
0.0
 17
0.0
 27
1.0
 37
0.0
 76
0
330
1F
  0
LAYOUT
  5
26
100
AcDbPlotSettings
  1

  2
none_device
  4

  6

 40
0.0
 41
0.0
 42
0.0
 43
0.0
 44
0.0
 45
0.0
 46
0.0
 47
0.0
 48
0.0
 49
0.0
140
0.0
141
0.0
142
1.0
143
1.0
 70
688
 72
0
 73
0
 74
5
  7

 75
16
147
1.0
148
0.0
149
0.0
100
AcDbLayout
  1
Layout2
 70
1
 71
2
 10
0.0
 20
0.0
 11
12.0
 21
9.0
 12
0.0
 22
0.0
 32
0.0
 14
0.0
 24
0.0
 34
0.0
 15
0.0
 25
0.0
 35
0.0
146
0.0
 13
0.0
 23
0.0
 33
0.0
 16
1.0
 26
0.0
 36
0.0
 17
0.0
 27
1.0
 37
0.0
 76
0
330
23
  0
DICTIONARY
  5
100
100
AcDbDictionary
281
1
  3
DIMASSOC
350
103
  3
HIDETEXT
350
102
  0
DICTIONARYVAR
  5
102
100
DictionaryVariables
280
0
  1
2
  0
DICTIONARYVAR
  5
103
100
DictionaryVariables
280
0
  1
1
  0
DICTIONARY
  5
101
100
AcDbDictionary
281
1
  3
ColorSettings/BackgroundColor
350
104
  3
ColorSettings/ColorMode
350
105
  3
Grid/DisplayGrid00
350
106
  3
Grid/DisplayGrid01
350
107
  3
Grid/DisplayGrid02
350
108
  3
Grid/DisplayGrid03
350
109
  3
Grid/GridSpacingX00
350
10A
  3
Grid/GridSpacingX01
350
10B
  3
Grid/GridSpacingX02
350
10C
  3
Grid/GridSpacingX03
350
10D
  3
Grid/GridSpacingY00
350
10E
  3
Grid/GridSpacingY01
350
10F
  3
Grid/GridSpacingY02
350
110
  3
Grid/GridSpacingY03
350
111
  3
Grid/IsometricGrid00
350
112
  3
Grid/IsometricGrid01
350
113
  3
Grid/IsometricGrid02
350
114
  3
Grid/IsometricGrid03
350
115
  3
Grid/IsometricProjection00
350
116
  3
Grid/IsometricProjection01
350
117
  3
Grid/IsometricProjection02
350
118
  3
Grid/IsometricProjection03
350
119
  3
Grid/MetaGridSpacingX00
350
11A
  3
Grid/MetaGridSpacingX01
350
11B
  3
Grid/MetaGridSpacingX02
350
11C
  3
Grid/MetaGridSpacingX03
350
11D
  3
Grid/MetaGridSpacingY00
350
11E
  3
Grid/MetaGridSpacingY01
350
11F
  3
Grid/MetaGridSpacingY02
350
120
  3
Grid/MetaGridSpacingY03
350
121
  3
MultiPageSettings/Columns
350
122
  3
MultiPageSettings/GlueMarginsBottom
350
123
  3
MultiPageSettings/GlueMarginsLeft
350
124
  3
MultiPageSettings/GlueMarginsRight
350
125
  3
MultiPageSettings/GlueMarginsTop
350
126
  3
MultiPageSettings/PrintCropMarks
350
127
  3
MultiPageSettings/Rows
350
128
  3
PageSettings/OffsetX
350
129
  3
PageSettings/OffsetY
350
12A
  3
PageSettings/PageOrientation
350
12B
  3
PageSettings/PaperHeight
350
12C
  3
PageSettings/PaperWidth
350
12D
  3
PageSettings/Scale
350
12E
  3
PageSettings/ShowPaperBorders
350
12F
  3
QCADVersion
350
130
  3
UnitSettings/Measurement
350
131
  3
UnitSettings/PaperUnit
350
132
  3
ViewportCenter
350
133
  3
ViewportHeight
350
134
  3
ViewportWidth
350
135
  0
XRECORD
  5
104
330
101
100
AcDbXrecord
280
1
1000
#ffffff
  0
XRECORD
  5
105
330
101
100
AcDbXrecord
280
1
1000
FullColor
  0
XRECORD
  5
106
330
101
100
AcDbXrecord
280
1
290
1
  0
XRECORD
  5
107
330
101
100
AcDbXrecord
280
1
290
1
  0
XRECORD
  5
108
330
101
100
AcDbXrecord
280
1
290
1
  0
XRECORD
  5
109
330
101
100
AcDbXrecord
280
1
290
1
  0
XRECORD
  5
10A
330
101
100
AcDbXrecord
280
1
1000
auto
  0
XRECORD
  5
10B
330
101
100
AcDbXrecord
280
1
1000
auto
  0
XRECORD
  5
10C
330
101
100
AcDbXrecord
280
1
1000
auto
  0
XRECORD
  5
10D
330
101
100
AcDbXrecord
280
1
1000
auto
  0
XRECORD
  5
10E
330
101
100
AcDbXrecord
280
1
1000
auto
  0
XRECORD
  5
10F
330
101
100
AcDbXrecord
280
1
1000
auto
  0
XRECORD
  5
110
330
101
100
AcDbXrecord
280
1
1000
auto
  0
XRECORD
  5
111
330
101
100
AcDbXrecord
280
1
1000
auto
  0
XRECORD
  5
112
330
101
100
AcDbXrecord
280
1
290
0
  0
XRECORD
  5
113
330
101
100
AcDbXrecord
280
1
290
0
  0
XRECORD
  5
114
330
101
100
AcDbXrecord
280
1
290
0
  0
XRECORD
  5
115
330
101
100
AcDbXrecord
280
1
290
0
  0
XRECORD
  5
116
330
101
100
AcDbXrecord
280
1
 90
0
  0
XRECORD
  5
117
330
101
100
AcDbXrecord
280
1
 90
0
  0
XRECORD
  5
118
330
101
100
AcDbXrecord
280
1
 90
0
  0
XRECORD
  5
119
330
101
100
AcDbXrecord
280
1
 90
0
  0
XRECORD
  5
11A
330
101
100
AcDbXrecord
280
1
1000
auto
  0
XRECORD
  5
11B
330
101
100
AcDbXrecord
280
1
1000
auto
  0
XRECORD
  5
11C
330
101
100
AcDbXrecord
280
1
1000
auto
  0
XRECORD
  5
11D
330
101
100
AcDbXrecord
280
1
1000
auto
  0
XRECORD
  5
11E
330
101
100
AcDbXrecord
280
1
1000
auto
  0
XRECORD
  5
11F
330
101
100
AcDbXrecord
280
1
1000
auto
  0
XRECORD
  5
120
330
101
100
AcDbXrecord
280
1
1000
auto
  0
XRECORD
  5
121
330
101
100
AcDbXrecord
280
1
1000
auto
  0
XRECORD
  5
122
330
101
100
AcDbXrecord
280
1
 90
1
  0
XRECORD
  5
123
330
101
100
AcDbXrecord
280
1
 40
10.0
  0
XRECORD
  5
124
330
101
100
AcDbXrecord
280
1
 40
10.0
  0
XRECORD
  5
125
330
101
100
AcDbXrecord
280
1
 40
10.0
  0
XRECORD
  5
126
330
101
100
AcDbXrecord
280
1
 40
10.0
  0
XRECORD
  5
127
330
101
100
AcDbXrecord
280
1
290
0
  0
XRECORD
  5
128
330
101
100
AcDbXrecord
280
1
 90
1
  0
XRECORD
  5
129
330
101
100
AcDbXrecord
280
1
 40
0.0
  0
XRECORD
  5
12A
330
101
100
AcDbXrecord
280
1
 40
0.0
  0
XRECORD
  5
12B
330
101
100
AcDbXrecord
280
1
1000
Portrait
  0
XRECORD
  5
12C
330
101
100
AcDbXrecord
280
1
 40
297.0
  0
XRECORD
  5
12D
330
101
100
AcDbXrecord
280
1
 40
210.0
  0
XRECORD
  5
12E
330
101
100
AcDbXrecord
280
1
1000
1:1
  0
XRECORD
  5
12F
330
101
100
AcDbXrecord
280
1
290
1
  0
XRECORD
  5
130
330
101
100
AcDbXrecord
280
1
1000
3.15.4
  0
XRECORD
  5
131
330
101
100
AcDbXrecord
280
1
 90
1
  0
XRECORD
  5
132
330
101
100
AcDbXrecord
280
1
 90
4
  0
XRECORD
  5
134
330
101
100
AcDbXrecord
280
1
 40
76.5175381244852275
  0
XRECORD
  5
135
330
101
100
AcDbXrecord
280
1
 40
138.6032874128333674
  0
ENDSEC
  0
EOF
